<svg xmlns="http://www.w3.org/2000/svg" version="1.0" width="3024mm" height="4032mm" viewBox="0 0 3024 4032"><path fill="none" stroke="DarkBlue" stroke-width="0.1" d="M 0,268.8 C 60.48 268.03 168.82 301.96 129.7 248.2 C 90.58 194.44 211.54 194.44 190.18 248.2 C 168.82 301.96 241.92 266.59 302.4 268.8 C 362.88 271.01 444.22 242.89 412.63 296.65 C 381.03 350.41 501.99 350.41 473.11 296.65 C 444.22 242.89 544.32 278.43 604.8 268.8 C 665.28 259.17 742.9 296.61 715.3 242.85 C 687.71 189.09 808.67 189.09 775.78 242.85 C 742.9 296.61 846.72 274.42 907.2 268.8 C 967.68 263.18 1049.2 297.2 1020.69 243.44 C 992.19 189.68 1113.15 189.68 1081.17 243.44 C 1049.2 297.2 1149.12 271.73 1209.6 268.8 C 1270.08 265.87 1364.92 234.82 1323.41 288.58 C 1281.9 342.34 1402.86 342.34 1383.89 288.58 C 1364.92 234.82 1451.52 260.52 1512 268.8 C 1572.48 277.08 1681.13 300.01 1643.37 246.25 C 1605.62 192.49 1726.58 192.49 1703.85 246.25 C 1681.13 300.01 1753.92 259.51 1814.4 268.8 C 1874.88 278.09 1973.23 303.03 1934.39 249.27 C 1895.55 195.51 2016.51 195.51 1994.87 249.27 C 1973.23 303.03 2056.32 273.74 2116.8 268.8 C 2177.28 263.86 2263.63 244.31 2229.83 298.07 C 2196.04 351.83 2317 351.83 2290.31 298.07 C 2263.63 244.31 2358.72 263.53 2419.2 268.8 C 2479.68 274.07 2588.16 242.93 2546.01 296.69 C 2503.87 350.45 2624.83 350.45 2606.49 296.69 C 2588.16 242.93 2661.12 261.97 2721.6 268.8 C 2782.08 275.63 2867.52 300.64 2842.91 246.88 C 2818.29 193.12 2939.25 193.12 2903.39 246.88 C 2867.52 300.64 2963.52 269.29 3024 268.8 M 0,537.6 C 60.48 539.47 140.08 554.66 119.95 500.9 C 99.82 447.14 220.78 447.14 180.43 500.9 C 140.08 554.66 241.92 542.27 302.4 537.6 C 362.88 532.93 469.19 566.33 429.75 512.57 C 390.3 458.81 511.26 458.81 490.23 512.57 C 469.19 566.33 544.32 529.41 604.8 537.6 C 665.28 545.79 749.84 519.27 729.84 573.03 C 709.83 626.79 830.79 626.79 790.32 573.03 C 749.84 519.27 846.72 544.18 907.2 537.6 C 967.68 531.02 1058.43 571.48 1021.65 517.72 C 984.86 463.96 1105.82 463.96 1082.13 517.72 C 1058.43 571.48 1149.12 530.36 1209.6 537.6 C 1270.08 544.84 1367.86 556.18 1333.23 502.42 C 1298.6 448.66 1419.56 448.66 1393.71 502.42 C 1367.86 556.18 1451.52 540.42 1512 537.6 C 1572.48 534.78 1647.75 553.87 1621.29 500.11 C 1594.83 446.35 1715.79 446.35 1681.77 500.11 C 1647.75 553.87 1753.92 544.67 1814.4 537.6 C 1874.88 530.53 1956.71 517.2 1927.37 570.96 C 1898.03 624.72 2018.99 624.72 1987.85 570.96 C 1956.71 517.2 2056.32 540.97 2116.8 537.6 C 2177.28 534.23 2269.28 510.19 2246.14 563.95 C 2223 617.71 2343.96 617.71 2306.62 563.95 C 2269.28 510.19 2358.72 528.2 2419.2 537.6 C 2479.68 547 2564.37 517.48 2533.01 571.24 C 2501.66 625 2622.62 625 2593.49 571.24 C 2564.37 517.48 2661.12 531.44 2721.6 537.6 C 2782.08 543.76 2880.28 507.48 2851.2 561.24 C 2822.11 615 2943.07 615 2911.68 561.24 C 2880.28 507.48 2963.52 547.11 3024 537.6 M 0,806.4 C 60.48 815.44 155.1 827.3 129.32 773.54 C 103.54 719.78 224.5 719.78 189.8 773.54 C 155.1 827.3 241.92 797.13 302.4 806.4 C 362.88 815.67 475.22 774.36 433.6 828.12 C 391.99 881.88 512.95 881.88 494.08 828.12 C 475.22 774.36 544.32 816.08 604.8 806.4 C 665.28 796.72 740.85 776.52 721.17 830.28 C 701.48 884.04 822.44 884.04 781.65 830.28 C 740.85 776.52 846.72 802.22 907.2 806.4 C 967.68 810.58 1049.95 831.72 1019.53 777.96 C 989.12 724.2 1110.08 724.2 1080.01 777.96 C 1049.95 831.72 1149.12 816.88 1209.6 806.4 C 1270.08 795.92 1371.64 829.2 1335.59 775.44 C 1299.54 721.68 1420.5 721.68 1396.07 775.44 C 1371.64 829.2 1451.52 810.31 1512 806.4 C 1572.48 802.49 1662.99 774.45 1629.38 828.21 C 1595.77 881.97 1716.73 881.97 1689.86 828.21 C 1662.99 774.45 1753.92 812.31 1814.4 806.4 C 1874.88 800.49 1967.91 773.02 1944.91 826.78 C 1921.91 880.54 2042.87 880.54 2005.39 826.78 C 1967.91 773.02 2056.32 816.83 2116.8 806.4 C 2177.28 795.97 2264.62 835.47 2242.82 781.71 C 2221.03 727.95 2341.99 727.95 2303.3 781.71 C 2264.62 835.47 2358.72 804.11 2419.2 806.4 C 2479.68 808.69 2555.37 780.23 2533.1 833.99 C 2510.83 887.75 2631.79 887.75 2593.58 833.99 C 2555.37 780.23 2661.12 813.22 2721.6 806.4 C 2782.08 799.58 2892.55 779.8 2851.45 833.56 C 2810.35 887.32 2931.31 887.32 2911.93 833.56 C 2892.55 779.8 2963.52 812.18 3024 806.4 M 0,1075.2 C 60.48 1084.41 152.26 1048.35 131.89 1102.11 C 111.51 1155.87 232.47 1155.87 192.37 1102.11 C 152.26 1048.35 241.92 1080.95 302.4 1075.2 C 362.88 1069.45 446.85 1102.79 414.03 1049.03 C 381.21 995.27 502.17 995.27 474.51 1049.03 C 446.85 1102.79 544.32 1079.76 604.8 1075.2 C 665.28 1070.64 754.52 1098.6 734.75 1044.84 C 714.98 991.08 835.94 991.08 795.23 1044.84 C 754.52 1098.6 846.72 1082.49 907.2 1075.2 C 967.68 1067.91 1044.29 1045.37 1017.91 1099.13 C 991.53 1152.89 1112.49 1152.89 1078.39 1099.13 C 1044.29 1045.37 1149.12 1077 1209.6 1075.2 C 1270.08 1073.4 1371.88 1104.53 1339.56 1050.77 C 1307.24 997.01 1428.2 997.01 1400.04 1050.77 C 1371.88 1104.53 1451.52 1084.6 1512 1075.2 C 1572.48 1065.8 1658.02 1097.46 1623.16 1043.7 C 1588.3 989.94 1709.26 989.94 1683.64 1043.7 C 1658.02 1097.46 1753.92 1065.11 1814.4 1075.2 C 1874.88 1085.29 1977.4 1094.7 1945.34 1040.94 C 1913.28 987.18 2034.24 987.18 2005.82 1040.94 C 1977.4 1094.7 2056.32 1083.87 2116.8 1075.2 C 2177.28 1066.53 2252.47 1039.55 2233.45 1093.31 C 2214.43 1147.07 2335.39 1147.07 2293.93 1093.31 C 2252.47 1039.55 2358.72 1066.02 2419.2 1075.2 C 2479.68 1084.38 2583.77 1047.32 2542.22 1101.08 C 2500.67 1154.84 2621.63 1154.84 2602.7 1101.08 C 2583.77 1047.32 2661.12 1076.19 2721.6 1075.2 C 2782.08 1074.21 2869.55 1101.33 2844.9 1047.57 C 2820.25 993.81 2941.21 993.81 2905.38 1047.57 C 2869.55 1101.33 2963.52 1078.21 3024 1075.2 M 0,1344 C 60.48 1340.97 155.38 1368.79 122.19 1315.03 C 89 1261.27 209.96 1261.27 182.67 1315.03 C 155.38 1368.79 241.92 1341 302.4 1344 C 362.88 1347 451.11 1318.46 429.6 1372.22 C 408.09 1425.98 529.05 1425.98 490.08 1372.22 C 451.11 1318.46 544.32 1342.06 604.8 1344 C 665.28 1345.94 759.85 1317.57 729.56 1371.33 C 699.26 1425.09 820.22 1425.09 790.04 1371.33 C 759.85 1317.57 846.72 1336.14 907.2 1344 C 967.68 1351.86 1053.63 1377.28 1029.18 1323.52 C 1004.72 1269.76 1125.68 1269.76 1089.66 1323.52 C 1053.63 1377.28 1149.12 1348.83 1209.6 1344 C 1270.08 1339.17 1361.65 1371.12 1329.97 1317.36 C 1298.29 1263.6 1419.25 1263.6 1390.45 1317.36 C 1361.65 1371.12 1451.52 1352.91 1512 1344 C 1572.48 1335.09 1669.57 1314.51 1642.39 1368.27 C 1615.21 1422.03 1736.17 1422.03 1702.87 1368.27 C 1669.57 1314.51 1753.92 1354.33 1814.4 1344 C 1874.88 1333.67 1984.81 1367.73 1947.37 1313.97 C 1909.93 1260.21 2030.89 1260.21 2007.85 1313.97 C 1984.81 1367.73 2056.32 1342.21 2116.8 1344 C 2177.28 1345.79 2270.52 1364.91 2242.62 1311.15 C 2214.73 1257.39 2335.69 1257.39 2303.1 1311.15 C 2270.52 1364.91 2358.72 1333.52 2419.2 1344 C 2479.68 1354.48 2561.89 1321.22 2541.85 1374.98 C 2521.82 1428.74 2642.78 1428.74 2602.33 1374.98 C 2561.89 1321.22 2661.12 1351.99 2721.6 1344 C 2782.08 1336.01 2872.97 1323.79 2845.58 1377.55 C 2818.18 1431.31 2939.14 1431.31 2906.06 1377.55 C 2872.97 1323.79 2963.52 1349.63 3024 1344 M 0,1612.8 C 60.48 1621.48 149.82 1579.84 110.48 1633.6 C 71.14 1687.36 192.1 1687.36 170.96 1633.6 C 149.82 1579.84 241.92 1603.72 302.4 1612.8 C 362.88 1621.88 458.21 1645.53 421.9 1591.77 C 385.59 1538.01 506.55 1538.01 482.38 1591.77 C 458.21 1645.53 544.32 1608.63 604.8 1612.8 C 665.28 1616.97 761.55 1581.1 726.21 1634.86 C 690.86 1688.62 811.82 1688.62 786.69 1634.86 C 761.55 1581.1 846.72 1613.6 907.2 1612.8 C 967.68 1612 1059.8 1646.93 1023.87 1593.17 C 987.93 1539.41 1108.89 1539.41 1084.35 1593.17 C 1059.8 1646.93 1149.12 1620.16 1209.6 1612.8 C 1270.08 1605.44 1362.54 1584.96 1334.31 1638.72 C 1306.08 1692.48 1427.04 1692.48 1394.79 1638.72 C 1362.54 1584.96 1451.52 1604.56 1512 1612.8 C 1572.48 1621.04 1648.52 1595.47 1621.12 1649.23 C 1593.72 1702.99 1714.68 1702.99 1681.6 1649.23 C 1648.52 1595.47 1753.92 1609.23 1814.4 1612.8 C 1874.88 1616.37 1961.5 1635.6 1928.38 1581.84 C 1895.26 1528.08 2016.22 1528.08 1988.86 1581.84 C 1961.5 1635.6 2056.32 1619.08 2116.8 1612.8 C 2177.28 1606.52 2273.23 1589.26 2234.34 1643.02 C 2195.45 1696.78 2316.41 1696.78 2294.82 1643.02 C 2273.23 1589.26 2358.72 1606.03 2419.2 1612.8 C 2479.68 1619.57 2571.41 1590.23 2530.18 1643.99 C 2488.96 1697.75 2609.92 1697.75 2590.66 1643.99 C 2571.41 1590.23 2661.12 1618.79 2721.6 1612.8 C 2782.08 1606.81 2863.77 1631.06 2837.49 1577.3 C 2811.2 1523.54 2932.16 1523.54 2897.97 1577.3 C 2863.77 1631.06 2963.52 1617.06 3024 1612.8 M 0,1881.6 C 60.48 1874.61 164.62 1899.36 132.39 1845.6 C 100.17 1791.84 221.13 1791.84 192.87 1845.6 C 164.62 1899.36 241.92 1888.17 302.4 1881.6 C 362.88 1875.03 458.74 1853.63 425.42 1907.39 C 392.1 1961.15 513.06 1961.15 485.9 1907.39 C 458.74 1853.63 544.32 1872.35 604.8 1881.6 C 665.28 1890.85 772.31 1856.19 736.47 1909.95 C 700.63 1963.71 821.59 1963.71 796.95 1909.95 C 772.31 1856.19 846.72 1889.69 907.2 1881.6 C 967.68 1873.51 1058.44 1855.92 1036.35 1909.68 C 1014.25 1963.44 1135.21 1963.44 1096.83 1909.68 C 1058.44 1855.92 1149.12 1872.33 1209.6 1881.6 C 1270.08 1890.87 1345.91 1850.7 1320.71 1904.46 C 1295.52 1958.22 1416.48 1958.22 1381.19 1904.46 C 1345.91 1850.7 1451.52 1884.23 1512 1881.6 C 1572.48 1878.97 1658.67 1903.6 1633.44 1849.84 C 1608.22 1796.08 1729.18 1796.08 1693.92 1849.84 C 1658.67 1903.6 1753.92 1887.35 1814.4 1881.6 C 1874.88 1875.85 1948.27 1906.56 1930.03 1852.8 C 1911.79 1799.04 2032.75 1799.04 1990.51 1852.8 C 1948.27 1906.56 2056.32 1885.88 2116.8 1881.6 C 2177.28 1877.32 2265.32 1913.26 2234.28 1859.5 C 2203.23 1805.74 2324.19 1805.74 2294.76 1859.5 C 2265.32 1913.26 2358.72 1875.65 2419.2 1881.6 C 2479.68 1887.55 2583.86 1863.05 2551.58 1916.81 C 2519.3 1970.57 2640.26 1970.57 2612.06 1916.81 C 2583.86 1863.05 2661.12 1872.44 2721.6 1881.6 C 2782.08 1890.76 2872.73 1852.57 2854.57 1906.33 C 2836.41 1960.09 2957.37 1960.09 2915.05 1906.33 C 2872.73 1852.57 2963.52 1872.84 3024 1881.6 M 0,2150.4 C 60.48 2148.6 157.8 2133.45 115.97 2187.21 C 74.14 2240.97 195.1 2240.97 176.45 2187.21 C 157.8 2133.45 241.92 2147.36 302.4 2150.4 C 362.88 2153.44 461.67 2127.34 428.38 2181.1 C 395.09 2234.86 516.05 2234.86 488.86 2181.1 C 461.67 2127.34 544.32 2156.56 604.8 2150.4 C 665.28 2144.24 747.56 2183.15 728.7 2129.39 C 709.85 2075.63 830.81 2075.63 789.18 2129.39 C 747.56 2183.15 846.72 2155.94 907.2 2150.4 C 967.68 2144.86 1052.89 2118.2 1031.24 2171.96 C 1009.58 2225.72 1130.54 2225.72 1091.72 2171.96 C 1052.89 2118.2 1149.12 2142.26 1209.6 2150.4 C 1270.08 2158.54 1362.32 2183.78 1325.45 2130.02 C 1288.59 2076.26 1409.55 2076.26 1385.93 2130.02 C 1362.32 2183.78 1451.52 2157.37 1512 2150.4 C 1572.48 2143.43 1660.96 2181.44 1632.67 2127.68 C 1604.39 2073.92 1725.35 2073.92 1693.15 2127.68 C 1660.96 2181.44 1753.92 2140.12 1814.4 2150.4 C 1874.88 2160.68 1968.23 2128.88 1942.65 2182.64 C 1917.07 2236.4 2038.03 2236.4 2003.13 2182.64 C 1968.23 2128.88 2056.32 2154.71 2116.8 2150.4 C 2177.28 2146.09 2284.46 2167.73 2243.87 2113.97 C 2203.29 2060.21 2324.25 2060.21 2304.35 2113.97 C 2284.46 2167.73 2358.72 2152.38 2419.2 2150.4 C 2479.68 2148.42 2564.55 2180.93 2537.11 2127.17 C 2509.67 2073.41 2630.63 2073.41 2597.59 2127.17 C 2564.55 2180.93 2661.12 2144.2 2721.6 2150.4 C 2782.08 2156.6 2876.46 2167.63 2835.95 2113.87 C 2795.44 2060.11 2916.4 2060.11 2896.43 2113.87 C 2876.46 2167.63 2963.52 2150.3 3024 2150.4 M 0,2419.2 C 60.48 2409.26 141.51 2381.83 123.1 2435.59 C 104.7 2489.35 225.66 2489.35 183.58 2435.59 C 141.51 2381.83 241.92 2409.08 302.4 2419.2 C 362.88 2429.32 448.25 2392.92 415.71 2446.68 C 383.17 2500.44 504.13 2500.44 476.19 2446.68 C 448.25 2392.92 544.32 2416.87 604.8 2419.2 C 665.28 2421.53 754.83 2438.86 728.16 2385.1 C 701.49 2331.34 822.45 2331.34 788.64 2385.1 C 754.83 2438.86 846.72 2421.22 907.2 2419.2 C 967.68 2417.18 1063.24 2385.73 1026.61 2439.49 C 989.98 2493.25 1110.94 2493.25 1087.09 2439.49 C 1063.24 2385.73 1149.12 2427.42 1209.6 2419.2 C 1270.08 2410.98 1351.42 2435.72 1326.7 2381.96 C 1301.98 2328.2 1422.94 2328.2 1387.18 2381.96 C 1351.42 2435.72 1451.52 2419.98 1512 2419.2 C 1572.48 2418.42 1659.06 2455.41 1633.15 2401.65 C 1607.23 2347.89 1728.19 2347.89 1693.63 2401.65 C 1659.06 2455.41 1753.92 2426.36 1814.4 2419.2 C 1874.88 2412.04 1966.44 2442.65 1932.69 2388.89 C 1898.93 2335.13 2019.89 2335.13 1993.17 2388.89 C 1966.44 2442.65 2056.32 2416.37 2116.8 2419.2 C 2177.28 2422.03 2272.98 2388.01 2238.19 2441.77 C 2203.4 2495.53 2324.36 2495.53 2298.67 2441.77 C 2272.98 2388.01 2358.72 2413.88 2419.2 2419.2 C 2479.68 2424.52 2574.57 2390.75 2542.86 2444.51 C 2511.15 2498.27 2632.11 2498.27 2603.34 2444.51 C 2574.57 2390.75 2661.12 2423.04 2721.6 2419.2 C 2782.08 2415.36 2879.39 2395.52 2850.22 2449.28 C 2821.04 2503.04 2942 2503.04 2910.7 2449.28 C 2879.39 2395.52 2963.52 2428.61 3024 2419.2 M 0,2688 C 60.48 2684.5 157.64 2656.94 122.39 2710.7 C 87.13 2764.46 208.09 2764.46 182.87 2710.7 C 157.64 2656.94 241.92 2679.2 302.4 2688 C 362.88 2696.8 465.25 2706.67 427.44 2652.91 C 389.62 2599.15 510.58 2599.15 487.92 2652.91 C 465.25 2706.67 544.32 2693.25 604.8 2688 C 665.28 2682.75 754.34 2722.45 719.71 2668.69 C 685.08 2614.93 806.04 2614.93 780.19 2668.69 C 754.34 2722.45 846.72 2696.92 907.2 2688 C 967.68 2679.08 1065.12 2718.66 1024.5 2664.9 C 983.87 2611.14 1104.83 2611.14 1084.98 2664.9 C 1065.12 2718.66 1149.12 2684.87 1209.6 2688 C 1270.08 2691.13 1360.24 2722.73 1329.47 2668.97 C 1298.69 2615.21 1419.65 2615.21 1389.95 2668.97 C 1360.24 2722.73 1451.52 2696.13 1512 2688 C 1572.48 2679.87 1665.86 2719.87 1626.55 2666.11 C 1587.23 2612.35 1708.19 2612.35 1687.03 2666.11 C 1665.86 2719.87 1753.92 2685.17 1814.4 2688 C 1874.88 2690.83 1962.08 2664.01 1928.4 2717.77 C 1894.73 2771.53 2015.69 2771.53 1988.88 2717.77 C 1962.08 2664.01 2056.32 2691.02 2116.8 2688 C 2177.28 2684.98 2268.14 2663.6 2246.57 2717.36 C 2225 2771.12 2345.96 2771.12 2307.05 2717.36 C 2268.14 2663.6 2358.72 2682.1 2419.2 2688 C 2479.68 2693.9 2590.88 2665.15 2549.07 2718.91 C 2507.26 2772.67 2628.22 2772.67 2609.55 2718.91 C 2590.88 2665.15 2661.12 2695.29 2721.6 2688 C 2782.08 2680.71 2861.45 2714.7 2835.36 2660.94 C 2809.27 2607.18 2930.23 2607.18 2895.84 2660.94 C 2861.45 2714.7 2963.52 2695.38 3024 2688 M 0,2956.8 C 60.48 2964.82 160.45 2979.34 125.16 2925.58 C 89.86 2871.82 210.82 2871.82 185.64 2925.58 C 160.45 2979.34 241.92 2952.7 302.4 2956.8 C 362.88 2960.9 434.48 2990.17 411.95 2936.41 C 389.42 2882.65 510.38 2882.65 472.43 2936.41 C 434.48 2990.17 544.32 2959.7 604.8 2956.8 C 665.28 2953.9 749.37 2978.95 714.12 2925.19 C 678.87 2871.43 799.83 2871.43 774.6 2925.19 C 749.37 2978.95 846.72 2962.69 907.2 2956.8 C 967.68 2950.91 1069.36 2933.14 1038.7 2986.9 C 1008.05 3040.66 1129.01 3040.66 1099.18 2986.9 C 1069.36 2933.14 1149.12 2946.38 1209.6 2956.8 C 1270.08 2967.22 1357.44 2929.25 1323.54 2983.01 C 1289.64 3036.77 1410.6 3036.77 1384.02 2983.01 C 1357.44 2929.25 1451.52 2950.61 1512 2956.8 C 1572.48 2962.99 1657.35 2932.31 1624.75 2986.07 C 1592.16 3039.83 1713.12 3039.83 1685.23 2986.07 C 1657.35 2932.31 1753.92 2949.26 1814.4 2956.8 C 1874.88 2964.34 1967.85 2988.73 1935.71 2934.97 C 1903.58 2881.21 2024.54 2881.21 1996.19 2934.97 C 1967.85 2988.73 2056.32 2965.13 2116.8 2956.8 C 2177.28 2948.47 2259.53 2976 2227.96 2922.24 C 2196.39 2868.48 2317.35 2868.48 2288.44 2922.24 C 2259.53 2976 2358.72 2949.08 2419.2 2956.8 C 2479.68 2964.52 2564.33 2935.08 2543.65 2988.84 C 2522.96 3042.6 2643.92 3042.6 2604.13 2988.84 C 2564.33 2935.08 2661.12 2956.69 2721.6 2956.8 C 2782.08 2956.91 2865.47 2979.84 2840.13 2926.08 C 2814.8 2872.32 2935.76 2872.32 2900.61 2926.08 C 2865.47 2979.84 2963.52 2955.9 3024 2956.8 M 0,3225.6 C 60.48 3227.43 157.61 3203.37 118.34 3257.13 C 79.08 3310.89 200.04 3310.89 178.82 3257.13 C 157.61 3203.37 241.92 3227.79 302.4 3225.6 C 362.88 3223.41 438.02 3241.88 413.09 3188.12 C 388.16 3134.36 509.12 3134.36 473.57 3188.12 C 438.02 3241.88 544.32 3232.34 604.8 3225.6 C 665.28 3218.86 770.24 3197.82 735.68 3251.58 C 701.11 3305.34 822.07 3305.34 796.16 3251.58 C 770.24 3197.82 846.72 3235.09 907.2 3225.6 C 967.68 3216.11 1043.17 3261.87 1020.85 3208.11 C 998.54 3154.35 1119.5 3154.35 1081.33 3208.11 C 1043.17 3261.87 1149.12 3216.15 1209.6 3225.6 C 1270.08 3235.05 1351.76 3262.13 1330.49 3208.37 C 1309.22 3154.61 1430.18 3154.61 1390.97 3208.37 C 1351.76 3262.13 1451.52 3229.16 1512 3225.6 C 1572.48 3222.04 1657.21 3242.85 1635.32 3189.09 C 1613.44 3135.33 1734.4 3135.33 1695.8 3189.09 C 1657.21 3242.85 1753.92 3234.85 1814.4 3225.6 C 1874.88 3216.35 1967.55 3259.13 1945.29 3205.37 C 1923.04 3151.61 2044 3151.61 2005.77 3205.37 C 1967.55 3259.13 2056.32 3231.62 2116.8 3225.6 C 2177.28 3219.58 2266.66 3252.26 2228.5 3198.5 C 2190.34 3144.74 2311.3 3144.74 2288.98 3198.5 C 2266.66 3252.26 2358.72 3228.13 2419.2 3225.6 C 2479.68 3223.07 2562.78 3205.62 2540.57 3259.38 C 2518.37 3313.14 2639.33 3313.14 2601.05 3259.38 C 2562.78 3205.62 2661.12 3232.9 2721.6 3225.6 C 2782.08 3218.3 2887.37 3252.33 2848.85 3198.57 C 2810.33 3144.81 2931.29 3144.81 2909.33 3198.57 C 2887.37 3252.33 2963.52 3226.5 3024 3225.6 M 0,3494.4 C 60.48 3503.75 145.6 3520.55 110.86 3466.79 C 76.12 3413.03 197.08 3413.03 171.34 3466.79 C 145.6 3520.55 241.92 3485.15 302.4 3494.4 C 362.88 3503.65 441.29 3526.73 418.82 3472.97 C 396.34 3419.21 517.3 3419.21 479.3 3472.97 C 441.29 3526.73 544.32 3495.99 604.8 3494.4 C 665.28 3492.81 767.1 3478.13 734.82 3531.89 C 702.54 3585.65 823.5 3585.65 795.3 3531.89 C 767.1 3478.13 846.72 3485.42 907.2 3494.4 C 967.68 3503.38 1053 3462.87 1031.82 3516.63 C 1010.64 3570.39 1131.6 3570.39 1092.3 3516.63 C 1053 3462.87 1149.12 3489.13 1209.6 3494.4 C 1270.08 3499.67 1376.52 3527.66 1337.38 3473.9 C 1298.24 3420.14 1419.2 3420.14 1397.86 3473.9 C 1376.52 3527.66 1451.52 3503.02 1512 3494.4 C 1572.48 3485.78 1667.94 3529.69 1633.7 3475.93 C 1599.46 3422.17 1720.42 3422.17 1694.18 3475.93 C 1667.94 3529.69 1753.92 3488.57 1814.4 3494.4 C 1874.88 3500.23 1980.72 3463.93 1940.55 3517.69 C 1900.37 3571.45 2021.33 3571.45 2001.03 3517.69 C 1980.72 3463.93 2056.32 3492.52 2116.8 3494.4 C 2177.28 3496.28 2260.74 3459.72 2240.78 3513.48 C 2220.81 3567.24 2341.77 3567.24 2301.26 3513.48 C 2260.74 3459.72 2358.72 3495.95 2419.2 3494.4 C 2479.68 3492.85 2574.73 3514.52 2540.32 3460.76 C 2505.9 3407 2626.86 3407 2600.8 3460.76 C 2574.73 3514.52 2661.12 3494.8 2721.6 3494.4 C 2782.08 3494 2891.69 3466.8 2854.42 3520.56 C 2817.16 3574.32 2938.12 3574.32 2914.9 3520.56 C 2891.69 3466.8 2963.52 3496.51 3024 3494.4 M 0,3763.2 C 60.48 3770.91 155.39 3726.45 122.64 3780.21 C 89.9 3833.97 210.86 3833.97 183.12 3780.21 C 155.39 3726.45 241.92 3771.5 302.4 3763.2 C 362.88 3754.9 464.01 3727.8 428.6 3781.56 C 393.19 3835.32 514.15 3835.32 489.08 3781.56 C 464.01 3727.8 544.32 3767.68 604.8 3763.2 C 665.28 3758.72 756.12 3729.68 715.29 3783.44 C 674.46 3837.2 795.42 3837.2 775.77 3783.44 C 756.12 3729.68 846.72 3754.75 907.2 3763.2 C 967.68 3771.65 1068.22 3728.8 1034.1 3782.56 C 999.98 3836.32 1120.94 3836.32 1094.58 3782.56 C 1068.22 3728.8 1149.12 3756.16 1209.6 3763.2 C 1270.08 3770.24 1369.58 3785.19 1338.35 3731.43 C 1307.12 3677.67 1428.08 3677.67 1398.83 3731.43 C 1369.58 3785.19 1451.52 3754.24 1512 3763.2 C 1572.48 3772.16 1672.25 3796.01 1632.04 3742.25 C 1591.82 3688.49 1712.78 3688.49 1692.52 3742.25 C 1672.25 3796.01 1753.92 3754.22 1814.4 3763.2 C 1874.88 3772.18 1959.7 3729.42 1924.93 3783.18 C 1890.15 3836.94 2011.11 3836.94 1985.41 3783.18 C 1959.7 3729.42 2056.32 3760.25 2116.8 3763.2 C 2177.28 3766.15 2265.96 3728.21 2244.43 3781.97 C 2222.9 3835.73 2343.86 3835.73 2304.91 3781.97 C 2265.96 3728.21 2358.72 3762.93 2419.2 3763.2 C 2479.68 3763.47 2559.88 3729.21 2540.71 3782.97 C 2521.53 3836.73 2642.49 3836.73 2601.19 3782.97 C 2559.88 3729.21 2661.12 3759.97 2721.6 3763.2 C 2782.08 3766.43 2882.27 3794.79 2842.72 3741.03 C 2803.17 3687.27 2924.13 3687.27 2903.2 3741.03 C 2882.27 3794.79 2963.52 3753.05 3024 3763.2 "></path><path fill="none" stroke="DarkRed" stroke-width="0.1" d="M 302.4,0 C 306.75 53.76 273.64 121.08 334.12 103.4 C 394.6 85.71 394.6 193.23 334.12 157.16 C 273.64 121.08 299.16 215.04 302.4 268.8 C 305.64 322.56 332.86 402.96 272.38 384.12 C 211.9 365.29 211.9 472.81 272.38 437.88 C 332.86 402.96 301.12 483.84 302.4 537.6 C 303.68 591.36 328.18 688.11 267.7 655.44 C 207.22 622.78 207.22 730.3 267.7 709.2 C 328.18 688.11 312.78 752.64 302.4 806.4 C 292.02 860.16 281.19 922.14 341.67 904.33 C 402.15 886.53 402.15 994.05 341.67 958.09 C 281.19 922.14 291.98 1021.44 302.4 1075.2 C 312.82 1128.96 327.73 1223.55 267.25 1191.58 C 206.77 1159.61 206.77 1267.13 267.25 1245.34 C 327.73 1223.55 293.18 1290.24 302.4 1344 C 311.62 1397.76 270.08 1480.34 330.56 1456.48 C 391.04 1432.62 391.04 1540.14 330.56 1510.24 C 270.08 1480.34 309.51 1559.04 302.4 1612.8 C 295.29 1666.56 282.78 1748.77 343.26 1717.87 C 403.74 1686.98 403.74 1794.5 343.26 1771.63 C 282.78 1748.77 302.74 1827.84 302.4 1881.6 C 302.06 1935.36 269.55 2018 330.03 1992.86 C 390.51 1967.71 390.51 2075.23 330.03 2046.62 C 269.55 2018 294.77 2096.64 302.4 2150.4 C 310.03 2204.16 332.03 2292.01 271.55 2262.68 C 211.07 2233.34 211.07 2340.86 271.55 2316.44 C 332.03 2292.01 302.45 2365.44 302.4 2419.2 C 302.35 2472.96 334.88 2563.78 274.4 2535.27 C 213.92 2506.77 213.92 2614.29 274.4 2589.03 C 334.88 2563.78 307.3 2634.24 302.4 2688 C 297.5 2741.76 334.97 2817.28 274.49 2798.04 C 214.01 2778.8 214.01 2886.32 274.49 2851.8 C 334.97 2817.28 300.91 2903.04 302.4 2956.8 C 303.89 3010.56 274.85 3107.78 335.33 3072.78 C 395.81 3037.78 395.81 3145.3 335.33 3126.54 C 274.85 3107.78 299.76 3171.84 302.4 3225.6 C 305.04 3279.36 273.61 3360.54 334.09 3331.1 C 394.57 3301.65 394.57 3409.17 334.09 3384.86 C 273.61 3360.54 308.54 3440.64 302.4 3494.4 C 296.26 3548.16 267.65 3610.83 328.13 3592.53 C 388.61 3574.23 388.61 3681.75 328.13 3646.29 C 267.65 3610.83 300.94 3709.44 302.4 3763.2 C 303.86 3816.96 333.08 3886.65 272.6 3864.45 C 212.12 3842.24 212.12 3949.76 272.6 3918.21 C 333.08 3886.65 299.58 3978.24 302.4 4032 M 604.8,0 C 599.42 53.76 570.98 135.28 631.46 105.8 C 691.94 76.31 691.94 183.83 631.46 159.56 C 570.98 135.28 614.88 215.04 604.8 268.8 C 594.72 322.56 632.45 404.9 571.97 385.68 C 511.49 366.45 511.49 473.97 571.97 439.44 C 632.45 404.9 613.92 483.84 604.8 537.6 C 595.68 591.36 564.15 672.63 624.63 643.43 C 685.11 614.24 685.11 721.76 624.63 697.19 C 564.15 672.63 604.82 752.64 604.8 806.4 C 604.78 860.16 642.57 950.05 582.09 916.88 C 521.61 883.7 521.61 991.22 582.09 970.64 C 642.57 950.05 604.59 1021.44 604.8 1075.2 C 605.01 1128.96 585.73 1207.97 646.21 1190.4 C 706.69 1172.84 706.69 1280.36 646.21 1244.16 C 585.73 1207.97 605.92 1290.24 604.8 1344 C 603.68 1397.76 633.71 1477.06 573.23 1455.05 C 512.75 1433.03 512.75 1540.55 573.23 1508.81 C 633.71 1477.06 604.87 1559.04 604.8 1612.8 C 604.73 1666.56 643.91 1735.5 583.43 1718.79 C 522.95 1702.07 522.95 1809.59 583.43 1772.55 C 643.91 1735.5 595.87 1827.84 604.8 1881.6 C 613.73 1935.36 623.41 2003.73 562.93 1979.21 C 502.45 1954.69 502.45 2062.21 562.93 2032.97 C 623.41 2003.73 600.64 2096.64 604.8 2150.4 C 608.96 2204.16 638.1 2285.08 577.62 2253.46 C 517.14 2221.84 517.14 2329.36 577.62 2307.22 C 638.1 2285.08 611.01 2365.44 604.8 2419.2 C 598.59 2472.96 582.8 2565.24 643.28 2535.24 C 703.76 2505.24 703.76 2612.76 643.28 2589 C 582.8 2565.24 615.25 2634.24 604.8 2688 C 594.35 2741.76 575.13 2819.41 635.61 2798.03 C 696.09 2776.65 696.09 2884.17 635.61 2851.79 C 575.13 2819.41 593.51 2903.04 604.8 2956.8 C 616.09 3010.56 645.74 3092.64 585.26 3074.55 C 524.78 3056.46 524.78 3163.98 585.26 3128.31 C 645.74 3092.64 600.61 3171.84 604.8 3225.6 C 608.99 3279.36 567.3 3364.03 627.78 3337.27 C 688.26 3310.52 688.26 3418.04 627.78 3391.03 C 567.3 3364.03 594.44 3440.64 604.8 3494.4 C 615.16 3548.16 645.96 3633.56 585.48 3610.45 C 525 3587.34 525 3694.86 585.48 3664.21 C 645.96 3633.56 614.11 3709.44 604.8 3763.2 C 595.49 3816.96 573.11 3898.47 633.59 3881.11 C 694.07 3863.74 694.07 3971.26 633.59 3934.87 C 573.11 3898.47 606.36 3978.24 604.8 4032 M 907.2,0 C 897.87 53.76 882.01 154.45 942.49 117.57 C 1002.97 80.7 1002.97 188.22 942.49 171.33 C 882.01 154.45 898.39 215.04 907.2 268.8 C 916.01 322.56 934.66 391.74 874.18 366.11 C 813.7 340.47 813.7 447.99 874.18 419.87 C 934.66 391.74 900.24 483.84 907.2 537.6 C 914.16 591.36 881.9 684.02 942.38 655.02 C 1002.86 626.03 1002.86 733.55 942.38 708.78 C 881.9 684.02 906.55 752.64 907.2 806.4 C 907.85 860.16 939.26 929.61 878.78 908.97 C 818.3 888.33 818.3 995.85 878.78 962.73 C 939.26 929.61 918.92 1021.44 907.2 1075.2 C 895.48 1128.96 880.58 1205.97 941.06 1179.23 C 1001.54 1152.49 1001.54 1260.01 941.06 1232.99 C 880.58 1205.97 898.22 1290.24 907.2 1344 C 916.18 1397.76 935.49 1479.6 875.01 1458.26 C 814.53 1436.91 814.53 1544.43 875.01 1512.02 C 935.49 1479.6 913.82 1559.04 907.2 1612.8 C 900.58 1666.56 868.3 1742.69 928.78 1726.14 C 989.26 1709.6 989.26 1817.12 928.78 1779.9 C 868.3 1742.69 895.15 1827.84 907.2 1881.6 C 919.25 1935.36 941.74 2019.73 881.26 1995.52 C 820.78 1971.31 820.78 2078.83 881.26 2049.28 C 941.74 2019.73 911.13 2096.64 907.2 2150.4 C 903.27 2204.16 881.23 2292.3 941.71 2264.15 C 1002.19 2236.01 1002.19 2343.53 941.71 2317.91 C 881.23 2292.3 895.83 2365.44 907.2 2419.2 C 918.57 2472.96 949.03 2563.32 888.55 2532.91 C 828.07 2502.51 828.07 2610.03 888.55 2586.67 C 949.03 2563.32 910.36 2634.24 907.2 2688 C 904.04 2741.76 873.41 2834.72 933.89 2797.16 C 994.37 2759.6 994.37 2867.12 933.89 2850.92 C 873.41 2834.72 914.28 2903.04 907.2 2956.8 C 900.12 3010.56 927.57 3091.75 867.09 3072.98 C 806.61 3054.21 806.61 3161.73 867.09 3126.74 C 927.57 3091.75 895.15 3171.84 907.2 3225.6 C 919.25 3279.36 870.78 3355.49 931.26 3335.33 C 991.74 3315.17 991.74 3422.69 931.26 3389.09 C 870.78 3355.49 916.37 3440.64 907.2 3494.4 C 898.03 3548.16 887.65 3630.06 948.13 3602.15 C 1008.61 3574.24 1008.61 3681.76 948.13 3655.91 C 887.65 3630.06 897.3 3709.44 907.2 3763.2 C 917.1 3816.96 879.47 3908.72 939.95 3871.49 C 1000.43 3834.25 1000.43 3941.77 939.95 3925.25 C 879.47 3908.72 900.93 3978.24 907.2 4032 M 1209.6,0 C 1216.17 53.76 1185.34 145.9 1245.82 117.78 C 1306.3 89.66 1306.3 197.18 1245.82 171.54 C 1185.34 145.9 1198.77 215.04 1209.6 268.8 C 1220.43 322.56 1184.89 392.05 1245.37 374.63 C 1305.85 357.21 1305.85 464.73 1245.37 428.39 C 1184.89 392.05 1218.25 483.84 1209.6 537.6 C 1200.95 591.36 1184.48 676.78 1244.96 654.03 C 1305.44 631.29 1305.44 738.81 1244.96 707.79 C 1184.48 676.78 1199.83 752.64 1209.6 806.4 C 1219.37 860.16 1181.15 942.29 1241.63 913.82 C 1302.11 885.35 1302.11 992.87 1241.63 967.58 C 1181.15 942.29 1211.12 1021.44 1209.6 1075.2 C 1208.08 1128.96 1167.53 1200.61 1228.01 1182.98 C 1288.49 1165.36 1288.49 1272.88 1228.01 1236.74 C 1167.53 1200.61 1212.48 1290.24 1209.6 1344 C 1206.72 1397.76 1171.02 1480.32 1231.5 1451.29 C 1291.98 1422.27 1291.98 1529.79 1231.5 1505.05 C 1171.02 1480.32 1203.59 1559.04 1209.6 1612.8 C 1215.61 1666.56 1181.83 1732.25 1242.31 1709.63 C 1302.79 1687.01 1302.79 1794.53 1242.31 1763.39 C 1181.83 1732.25 1218.85 1827.84 1209.6 1881.6 C 1200.35 1935.36 1180.86 2015.46 1241.34 1982.55 C 1301.82 1949.64 1301.82 2057.16 1241.34 2036.31 C 1180.86 2015.46 1211.36 2096.64 1209.6 2150.4 C 1207.84 2204.16 1250.01 2278.49 1189.53 2261.65 C 1129.05 2244.82 1129.05 2352.34 1189.53 2315.41 C 1250.01 2278.49 1214.29 2365.44 1209.6 2419.2 C 1204.91 2472.96 1233.21 2542.4 1172.73 2522.26 C 1112.25 2502.11 1112.25 2609.63 1172.73 2576.02 C 1233.21 2542.4 1218.4 2634.24 1209.6 2688 C 1200.8 2741.76 1240.11 2831.31 1179.63 2796.59 C 1119.15 2761.87 1119.15 2869.39 1179.63 2850.35 C 1240.11 2831.31 1197.63 2903.04 1209.6 2956.8 C 1221.57 3010.56 1244.02 3087.58 1183.54 3068.4 C 1123.06 3049.22 1123.06 3156.74 1183.54 3122.16 C 1244.02 3087.58 1204.84 3171.84 1209.6 3225.6 C 1214.36 3279.36 1191.03 3366.69 1251.51 3335.12 C 1311.99 3303.56 1311.99 3411.08 1251.51 3388.88 C 1191.03 3366.69 1207.05 3440.64 1209.6 3494.4 C 1212.15 3548.16 1231 3636.25 1170.52 3608.83 C 1110.04 3581.41 1110.04 3688.93 1170.52 3662.59 C 1231 3636.25 1201.78 3709.44 1209.6 3763.2 C 1217.42 3816.96 1239.43 3915.04 1178.95 3880.27 C 1118.47 3845.5 1118.47 3953.02 1178.95 3934.03 C 1239.43 3915.04 1219.38 3978.24 1209.6 4032 M 1512,0 C 1521.64 53.76 1492.04 129.82 1552.52 105.34 C 1613 80.85 1613 188.37 1552.52 159.1 C 1492.04 129.82 1506.15 215.04 1512 268.8 C 1517.85 322.56 1484.47 403.6 1544.95 379.23 C 1605.43 354.87 1605.43 462.39 1544.95 432.99 C 1484.47 403.6 1522.21 483.84 1512 537.6 C 1501.79 591.36 1484.41 667.59 1544.89 638.58 C 1605.37 609.57 1605.37 717.09 1544.89 692.34 C 1484.41 667.59 1511.96 752.64 1512 806.4 C 1512.04 860.16 1532.87 951.47 1472.39 919.45 C 1411.91 887.43 1411.91 994.95 1472.39 973.21 C 1532.87 951.47 1515.45 1021.44 1512 1075.2 C 1508.55 1128.96 1470.13 1208.15 1530.61 1186.59 C 1591.09 1165.04 1591.09 1272.56 1530.61 1240.35 C 1470.13 1208.15 1521.11 1290.24 1512 1344 C 1502.89 1397.76 1482.58 1471.84 1543.06 1449.41 C 1603.54 1426.97 1603.54 1534.49 1543.06 1503.17 C 1482.58 1471.84 1509.33 1559.04 1512 1612.8 C 1514.67 1666.56 1543.3 1743.81 1482.82 1717.59 C 1422.34 1691.36 1422.34 1798.88 1482.82 1771.35 C 1543.3 1743.81 1519.34 1827.84 1512 1881.6 C 1504.66 1935.36 1532.81 2007.06 1472.33 1985.98 C 1411.85 1964.89 1411.85 2072.41 1472.33 2039.74 C 1532.81 2007.06 1504.26 2096.64 1512 2150.4 C 1519.74 2204.16 1551.54 2277.48 1491.06 2258.63 C 1430.58 2239.78 1430.58 2347.3 1491.06 2312.39 C 1551.54 2277.48 1501.57 2365.44 1512 2419.2 C 1522.43 2472.96 1548.36 2559.99 1487.88 2537.45 C 1427.4 2514.91 1427.4 2622.43 1487.88 2591.21 C 1548.36 2559.99 1504.59 2634.24 1512 2688 C 1519.41 2741.76 1550.39 2817.29 1489.91 2788.62 C 1429.43 2759.94 1429.43 2867.46 1489.91 2842.38 C 1550.39 2817.29 1512.06 2903.04 1512 2956.8 C 1511.94 3010.56 1469.93 3095.94 1530.41 3067.41 C 1590.89 3038.87 1590.89 3146.39 1530.41 3121.17 C 1469.93 3095.94 1521.41 3171.84 1512 3225.6 C 1502.59 3279.36 1479.14 3370.14 1539.62 3337.47 C 1600.1 3304.8 1600.1 3412.32 1539.62 3391.23 C 1479.14 3370.14 1505.23 3440.64 1512 3494.4 C 1518.77 3548.16 1543.24 3617.75 1482.76 3591.91 C 1422.28 3566.07 1422.28 3673.59 1482.76 3645.67 C 1543.24 3617.75 1517.34 3709.44 1512 3763.2 C 1506.66 3816.96 1540.4 3903.07 1479.92 3872.38 C 1419.44 3841.68 1419.44 3949.2 1479.92 3926.14 C 1540.4 3903.07 1516.65 3978.24 1512 4032 M 1814.4,0 C 1809.34 53.76 1843.49 116.88 1783.01 99.05 C 1722.53 81.22 1722.53 188.74 1783.01 152.81 C 1843.49 116.88 1808.86 215.04 1814.4 268.8 C 1819.94 322.56 1854.56 422.67 1794.08 385.21 C 1733.6 347.74 1733.6 455.26 1794.08 438.97 C 1854.56 422.67 1807.93 483.84 1814.4 537.6 C 1820.87 591.36 1779.79 668.66 1840.27 650.74 C 1900.75 632.82 1900.75 740.34 1840.27 704.5 C 1779.79 668.66 1803.4 752.64 1814.4 806.4 C 1825.4 860.16 1834.55 942.62 1774.07 908 C 1713.59 873.37 1713.59 980.89 1774.07 961.76 C 1834.55 942.62 1819.54 1021.44 1814.4 1075.2 C 1809.26 1128.96 1790.69 1226.4 1851.17 1188.91 C 1911.65 1151.43 1911.65 1258.95 1851.17 1242.67 C 1790.69 1226.4 1812.7 1290.24 1814.4 1344 C 1816.1 1397.76 1853.6 1480.04 1793.12 1461.81 C 1732.64 1443.58 1732.64 1551.1 1793.12 1515.57 C 1853.6 1480.04 1809.85 1559.04 1814.4 1612.8 C 1818.95 1666.56 1849.99 1743.55 1789.51 1717.03 C 1729.03 1690.51 1729.03 1798.03 1789.51 1770.79 C 1849.99 1743.55 1814.35 1827.84 1814.4 1881.6 C 1814.45 1935.36 1795.81 2010.66 1856.29 1992.3 C 1916.77 1973.93 1916.77 2081.45 1856.29 2046.06 C 1795.81 2010.66 1817.48 2096.64 1814.4 2150.4 C 1811.32 2204.16 1836.59 2302.59 1776.11 2266.43 C 1715.63 2230.27 1715.63 2337.79 1776.11 2320.19 C 1836.59 2302.59 1823.13 2365.44 1814.4 2419.2 C 1805.67 2472.96 1786.34 2542.16 1846.82 2523.87 C 1907.3 2505.58 1907.3 2613.1 1846.82 2577.63 C 1786.34 2542.16 1809.38 2634.24 1814.4 2688 C 1819.42 2741.76 1772.49 2818.94 1832.97 2798.49 C 1893.45 2778.03 1893.45 2885.55 1832.97 2852.25 C 1772.49 2818.94 1807.98 2903.04 1814.4 2956.8 C 1820.82 3010.56 1855.83 3095.7 1795.35 3074.24 C 1734.87 3052.77 1734.87 3160.29 1795.35 3128 C 1855.83 3095.7 1806.85 3171.84 1814.4 3225.6 C 1821.95 3279.36 1843.98 3358.08 1783.5 3329.22 C 1723.02 3300.36 1723.02 3407.88 1783.5 3382.98 C 1843.98 3358.08 1809.08 3440.64 1814.4 3494.4 C 1819.72 3548.16 1777.73 3616.7 1838.21 3599.28 C 1898.69 3581.86 1898.69 3689.38 1838.21 3653.04 C 1777.73 3616.7 1811.51 3709.44 1814.4 3763.2 C 1817.29 3816.96 1794 3896.77 1854.48 3860.76 C 1914.96 3824.75 1914.96 3932.27 1854.48 3914.52 C 1794 3896.77 1812.04 3978.24 1814.4 4032 M 2116.8,0 C 2111.06 53.76 2153.06 132.15 2092.58 98.77 C 2032.1 65.39 2032.1 172.91 2092.58 152.53 C 2153.06 132.15 2123.03 215.04 2116.8 268.8 C 2110.57 322.56 2091.07 395.81 2151.55 366 C 2212.03 336.18 2212.03 443.7 2151.55 419.76 C 2091.07 395.81 2111.68 483.84 2116.8 537.6 C 2121.92 591.36 2095.76 669.83 2156.24 647.15 C 2216.72 624.48 2216.72 732 2156.24 700.91 C 2095.76 669.83 2119.96 752.64 2116.8 806.4 C 2113.64 860.16 2153.02 943.04 2092.54 908.99 C 2032.06 874.94 2032.06 982.46 2092.54 962.75 C 2153.02 943.04 2110.64 1021.44 2116.8 1075.2 C 2122.96 1128.96 2143.4 1210.84 2082.92 1189.69 C 2022.44 1168.55 2022.44 1276.07 2082.92 1243.45 C 2143.4 1210.84 2112.95 1290.24 2116.8 1344 C 2120.65 1397.76 2077.15 1483.09 2137.63 1453.82 C 2198.11 1424.56 2198.11 1532.08 2137.63 1507.58 C 2077.15 1483.09 2120.77 1559.04 2116.8 1612.8 C 2112.83 1666.56 2093.82 1738.39 2154.3 1722.17 C 2214.78 1705.95 2214.78 1813.47 2154.3 1775.93 C 2093.82 1738.39 2127.87 1827.84 2116.8 1881.6 C 2105.73 1935.36 2076.71 2013.95 2137.19 1993.19 C 2197.67 1972.43 2197.67 2079.95 2137.19 2046.95 C 2076.71 2013.95 2110.91 2096.64 2116.8 2150.4 C 2122.69 2204.16 2082.66 2293.33 2143.14 2266.73 C 2203.62 2240.14 2203.62 2347.66 2143.14 2320.49 C 2082.66 2293.33 2112.16 2365.44 2116.8 2419.2 C 2121.44 2472.96 2093.39 2571 2153.87 2536.53 C 2214.35 2502.05 2214.35 2609.57 2153.87 2590.29 C 2093.39 2571 2105.64 2634.24 2116.8 2688 C 2127.96 2741.76 2149.64 2820.14 2089.16 2797.18 C 2028.68 2774.23 2028.68 2881.75 2089.16 2850.94 C 2149.64 2820.14 2110.98 2903.04 2116.8 2956.8 C 2122.62 3010.56 2098.21 3081.95 2158.69 3063.19 C 2219.17 3044.42 2219.17 3151.94 2158.69 3116.95 C 2098.21 3081.95 2120.24 3171.84 2116.8 3225.6 C 2113.36 3279.36 2149.88 3358.62 2089.4 3326.95 C 2028.92 3295.28 2028.92 3402.8 2089.4 3380.71 C 2149.88 3358.62 2112.42 3440.64 2116.8 3494.4 C 2121.18 3548.16 2147.17 3636.87 2086.69 3601.44 C 2026.21 3566 2026.21 3673.52 2086.69 3655.2 C 2147.17 3636.87 2115.12 3709.44 2116.8 3763.2 C 2118.48 3816.96 2079.84 3894.14 2140.32 3865.46 C 2200.8 3836.79 2200.8 3944.31 2140.32 3919.22 C 2079.84 3894.14 2121.88 3978.24 2116.8 4032 M 2419.2,0 C 2408.87 53.76 2453.17 136.58 2392.69 102.13 C 2332.21 67.68 2332.21 175.2 2392.69 155.89 C 2453.17 136.58 2422.95 215.04 2419.2 268.8 C 2415.45 322.56 2400.9 400.36 2461.38 371.67 C 2521.86 342.98 2521.86 450.5 2461.38 425.43 C 2400.9 400.36 2426.07 483.84 2419.2 537.6 C 2412.33 591.36 2461.52 682.21 2401.04 648.93 C 2340.56 615.65 2340.56 723.17 2401.04 702.69 C 2461.52 682.21 2410.5 752.64 2419.2 806.4 C 2427.9 860.16 2454.38 945.06 2393.9 913.09 C 2333.42 881.12 2333.42 988.64 2393.9 966.85 C 2454.38 945.06 2407.61 1021.44 2419.2 1075.2 C 2430.79 1128.96 2383.78 1195.91 2444.26 1175.59 C 2504.74 1155.28 2504.74 1262.8 2444.26 1229.35 C 2383.78 1195.91 2408.56 1290.24 2419.2 1344 C 2429.84 1397.76 2388.48 1481.17 2448.96 1459.91 C 2509.44 1438.66 2509.44 1546.18 2448.96 1513.67 C 2388.48 1481.17 2413.77 1559.04 2419.2 1612.8 C 2424.63 1666.56 2438.24 1767.97 2377.76 1730.94 C 2317.28 1693.91 2317.28 1801.43 2377.76 1784.7 C 2438.24 1767.97 2426.49 1827.84 2419.2 1881.6 C 2411.91 1935.36 2441.1 2002.76 2380.62 1980.26 C 2320.14 1957.75 2320.14 2065.27 2380.62 2034.02 C 2441.1 2002.76 2414.35 2096.64 2419.2 2150.4 C 2424.05 2204.16 2454.37 2295.14 2393.89 2266.47 C 2333.41 2237.79 2333.41 2345.31 2393.89 2320.23 C 2454.37 2295.14 2411.93 2365.44 2419.2 2419.2 C 2426.47 2472.96 2452.87 2556.7 2392.39 2528.35 C 2331.91 2500 2331.91 2607.52 2392.39 2582.11 C 2452.87 2556.7 2413.72 2634.24 2419.2 2688 C 2424.68 2741.76 2456.85 2832.97 2396.37 2800.19 C 2335.89 2767.4 2335.89 2874.92 2396.37 2853.95 C 2456.85 2832.97 2407.28 2903.04 2419.2 2956.8 C 2431.12 3010.56 2449.68 3085.22 2389.2 3056.61 C 2328.72 3027.99 2328.72 3135.51 2389.2 3110.37 C 2449.68 3085.22 2428.03 3171.84 2419.2 3225.6 C 2410.37 3279.36 2454.77 3365.21 2394.29 3339.14 C 2333.81 3313.07 2333.81 3420.59 2394.29 3392.9 C 2454.77 3365.21 2419.56 3440.64 2419.2 3494.4 C 2418.84 3548.16 2437.68 3641.35 2377.2 3609.34 C 2316.72 3577.33 2316.72 3684.85 2377.2 3663.1 C 2437.68 3641.35 2422.49 3709.44 2419.2 3763.2 C 2415.91 3816.96 2380.4 3876.77 2440.88 3860.07 C 2501.36 3843.38 2501.36 3950.9 2440.88 3913.83 C 2380.4 3876.77 2413.44 3978.24 2419.2 4032 M 2721.6,0 C 2712.62 53.76 2757.43 141.36 2696.95 106.87 C 2636.47 72.39 2636.47 179.91 2696.95 160.63 C 2757.43 141.36 2710.88 215.04 2721.6 268.8 C 2732.32 322.56 2698.03 409.22 2758.51 378.56 C 2818.99 347.91 2818.99 455.43 2758.51 432.32 C 2698.03 409.22 2709.57 483.84 2721.6 537.6 C 2733.63 591.36 2756.23 672.3 2695.75 646.28 C 2635.27 620.26 2635.27 727.78 2695.75 700.04 C 2756.23 672.3 2721.68 752.64 2721.6 806.4 C 2721.52 860.16 2684.16 956.43 2744.64 923.99 C 2805.12 891.54 2805.12 999.06 2744.64 977.75 C 2684.16 956.43 2719.56 1021.44 2721.6 1075.2 C 2723.64 1128.96 2684.6 1207.56 2745.08 1188.94 C 2805.56 1170.32 2805.56 1277.84 2745.08 1242.7 C 2684.6 1207.56 2713.09 1290.24 2721.6 1344 C 2730.11 1397.76 2754.53 1478.94 2694.05 1459.79 C 2633.57 1440.64 2633.57 1548.16 2694.05 1513.55 C 2754.53 1478.94 2725.47 1559.04 2721.6 1612.8 C 2717.73 1666.56 2697.19 1749.76 2757.67 1713.72 C 2818.15 1677.69 2818.15 1785.21 2757.67 1767.48 C 2697.19 1749.76 2717.01 1827.84 2721.6 1881.6 C 2726.19 1935.36 2747.96 2022.62 2687.48 1993.66 C 2627 1964.7 2627 2072.22 2687.48 2047.42 C 2747.96 2022.62 2720.47 2096.64 2721.6 2150.4 C 2722.73 2204.16 2743.81 2291.66 2683.33 2261.38 C 2622.85 2231.1 2622.85 2338.62 2683.33 2315.14 C 2743.81 2291.66 2717.68 2365.44 2721.6 2419.2 C 2725.52 2472.96 2740.64 2554.25 2680.16 2536.92 C 2619.68 2519.59 2619.68 2627.11 2680.16 2590.68 C 2740.64 2554.25 2722.1 2634.24 2721.6 2688 C 2721.1 2741.76 2760.72 2832.87 2700.24 2802.1 C 2639.76 2771.33 2639.76 2878.85 2700.24 2855.86 C 2760.72 2832.87 2718.93 2903.04 2721.6 2956.8 C 2724.27 3010.56 2697.94 3079.47 2758.42 3055.76 C 2818.9 3032.05 2818.9 3139.57 2758.42 3109.52 C 2697.94 3079.47 2719.44 3171.84 2721.6 3225.6 C 2723.76 3279.36 2701.34 3365.28 2761.82 3332.38 C 2822.3 3299.49 2822.3 3407.01 2761.82 3386.14 C 2701.34 3365.28 2721.59 3440.64 2721.6 3494.4 C 2721.61 3548.16 2748.59 3633.18 2688.11 3609.37 C 2627.63 3585.56 2627.63 3693.08 2688.11 3663.13 C 2748.59 3633.18 2732.53 3709.44 2721.6 3763.2 C 2710.67 3816.96 2683.5 3895.49 2743.98 3862.39 C 2804.46 3829.29 2804.46 3936.81 2743.98 3916.15 C 2683.5 3895.49 2711.01 3978.24 2721.6 4032 "></path><path fill="none" stroke="Black" stroke-width="0.1" d="M 2 0 L 3022 0 A 2 2 0 0 1 3024 2 L 3024 4030 A 2 2 0 0 1 3022 4032 L 2 4032 A 2 2 0 0 1 0 4030 L 0 2 A 2 2 0 0 1 2 0 "></path></svg>