<?xml version="1.0" standalone="no"?>
<!DOCTYPE svg PUBLIC "-//W3C//DTD SVG 20010904//EN"
 "http://www.w3.org/TR/2001/REC-SVG-20010904/DTD/svg10.dtd">
<svg version="1.0" xmlns="http://www.w3.org/2000/svg"
 width="336.000000pt" height="344.000000pt" viewBox="0 0 336.000000 344.000000"
 preserveAspectRatio="xMidYMid meet">
<metadata>
Created by potrace 1.16, written by Peter Selinger 2001-2019
</metadata>
<g transform="translate(0.000000,344.000000) scale(0.100000,-0.100000)"
fill="#000000" stroke="none">
<path d="M0 2051 l0 -1388 68 3 67 3 356 12 356 12 89 -6 89 -6 45 -16 44 -16
23 -21 23 -21 0 -33 0 -33 -42 -78 -41 -78 -5 -86 -4 -85 22 -52 23 -53 44
-39 45 -39 50 -17 51 -17 101 6 101 5 55 21 55 21 39 28 39 27 30 54 30 54 5
79 5 80 -13 57 -12 56 -29 73 -29 73 0 30 0 31 28 28 29 28 53 16 54 16 110 0
111 0 136 -20 135 -19 165 -35 164 -36 20 -5 20 -5 10 7 10 8 14 25 14 25 48
95 47 95 35 105 35 105 32 135 32 135 29 113 30 114 21 45 21 44 29 30 30 29
37 0 37 0 16 -12 17 -13 3 -25 3 -25 27 -3 26 -3 16 48 15 48 12 89 11 88 -4
102 -5 101 -22 58 -23 58 -55 59 -55 60 -61 30 -62 30 -62 11 -63 11 -62 -11
-63 -11 -52 -36 -52 -36 -10 7 -10 6 -13 42 -13 42 1 190 2 190 16 212 16 213
0 75 0 75 -1355 0 -1355 0 0 -1389z"/>
</g>
</svg>
