<?xml version="1.0" standalone="no"?>
<!DOCTYPE svg PUBLIC "-//W3C//DTD SVG 20010904//EN"
 "http://www.w3.org/TR/2001/REC-SVG-20010904/DTD/svg10.dtd">
<svg version="1.0" xmlns="http://www.w3.org/2000/svg"
 width="334.000000pt" height="342.000000pt" viewBox="0 0 334.000000 342.000000"
 preserveAspectRatio="xMidYMid meet">
<metadata>
Created by potrace 1.16, written by Peter Selinger 2001-2019
</metadata>
<g transform="translate(0.000000,342.000000) scale(0.100000,-0.100000)"
fill="#000000" stroke="none">
<path d="M0 2043 l0 -1378 242 8 243 9 265 1 265 2 51 -18 51 -18 23 -24 22
-23 0 -38 0 -38 -42 -80 -43 -81 -5 -75 -4 -76 22 -52 23 -53 44 -39 45 -39
50 -17 51 -17 91 6 91 5 55 21 55 21 39 28 39 27 30 54 30 53 5 73 4 73 -12
53 -13 54 -28 73 -29 73 0 40 0 41 28 28 29 28 53 16 54 16 120 0 121 0 136
-20 135 -19 169 -36 169 -37 6 -3 6 -4 9 7 10 7 14 25 14 25 48 95 47 95 35
105 35 105 32 135 32 135 29 113 30 114 21 45 21 44 29 30 30 29 47 0 47 0 16
-12 17 -13 3 -25 3 -25 17 -3 16 -3 16 48 15 48 12 89 11 89 -4 91 -5 91 -22
58 -23 58 -55 59 -55 60 -61 30 -62 30 -57 11 -58 10 -57 -11 -58 -10 -52 -36
-52 -36 -18 4 -18 3 -15 40 -14 40 0 205 1 205 17 212 16 213 0 65 0 65 -1345
0 -1345 0 0 -1377z"/>
</g>
</svg>
