<?xml version="1.0" standalone="no"?>
<!DOCTYPE svg PUBLIC "-//W3C//DTD SVG 20010904//EN"
 "http://www.w3.org/TR/2001/REC-SVG-20010904/DTD/svg10.dtd">
<svg version="1.0" xmlns="http://www.w3.org/2000/svg"
 width="295.000000pt" height="296.000000pt" viewBox="0 0 295.000000 296.000000"
 preserveAspectRatio="xMidYMid meet">
<metadata>
Created by potrace 1.16, written by Peter Selinger 2001-2019
</metadata>
<g transform="translate(0.000000,296.000000) scale(0.100000,-0.100000)"
fill="#000000" stroke="none">
<path d="M165 2711 l-7 -249 7 -93 7 -94 19 -72 18 -71 20 -40 20 -40 33 -32
33 -33 50 -23 50 -24 87 0 87 0 53 11 53 11 31 36 32 37 21 -19 21 -19 19 -51
19 -51 12 -80 13 -80 1 -120 1 -121 -38 -76 -37 -76 -48 -40 -47 -39 -52 -27
-52 -26 -70 -12 -69 -12 -68 13 -67 12 -66 32 -66 31 -52 1 -51 0 -26 -24 -26
-25 -15 -50 -15 -50 0 -115 0 -116 20 -120 20 -120 25 -105 26 -105 39 -127
40 -126 38 -7 37 -6 285 -1 285 -2 80 18 80 18 63 35 64 35 28 45 28 44 12 51
13 51 -7 74 -6 73 -11 48 -12 47 -28 23 -29 23 0 24 0 24 30 35 30 34 65 26
65 26 93 16 92 16 73 -5 74 -6 73 -34 72 -35 54 -55 54 -55 33 -55 33 -55 26
-74 26 -73 1 -85 1 -85 -25 -44 -25 -44 -14 -25 -14 -26 0 -52 0 -53 17 -27
18 -26 42 -19 43 -19 69 -6 69 -6 108 11 109 12 121 31 122 30 112 44 111 44
16 0 16 0 0 14 0 15 20 188 20 188 10 112 10 112 1 163 1 163 -12 60 -12 60
-25 42 -25 43 -39 12 -40 11 -50 -11 -51 -12 -27 -19 -26 -19 -48 -16 -48 -16
-53 0 -52 0 -55 16 -54 16 -48 25 -49 24 -43 40 -44 41 -26 51 -25 51 0 80 0
81 15 63 15 63 16 32 16 32 21 23 20 22 14 0 13 0 27 -30 26 -30 41 -12 41
-11 105 -1 105 0 67 32 66 32 41 46 41 47 25 51 25 51 20 78 19 78 11 100 10
101 0 117 0 118 -7 136 -6 137 -1352 0 -1353 0 -7 -249z"/>
</g>
</svg>
