<?xml version="1.0" standalone="no"?>
<!DOCTYPE svg PUBLIC "-//W3C//DTD SVG 20010904//EN"
 "http://www.w3.org/TR/2001/REC-SVG-20010904/DTD/svg10.dtd">
<svg version="1.0" xmlns="http://www.w3.org/2000/svg"
 width="293.000000pt" height="294.000000pt" viewBox="0 0 293.000000 294.000000"
 preserveAspectRatio="xMidYMid meet">
<metadata>
Created by potrace 1.16, written by Peter Selinger 2001-2019
</metadata>
<g transform="translate(0.000000,294.000000) scale(0.100000,-0.100000)"
fill="#000000" stroke="none">
<path d="M165 2697 l-7 -243 7 -90 7 -89 19 -72 18 -71 20 -40 20 -40 33 -32
33 -33 50 -23 50 -24 76 0 76 0 56 11 57 12 25 33 26 34 18 0 18 0 17 -19 17
-19 19 -48 18 -49 12 -80 13 -80 1 -130 1 -131 -38 -76 -37 -76 -48 -40 -47
-39 -50 -25 -50 -26 -53 -11 -53 -11 -44 0 -44 0 -53 11 -53 11 -65 31 -65 31
-42 0 -41 1 -26 -24 -26 -25 -15 -50 -15 -50 0 -105 0 -106 20 -120 20 -120
25 -105 26 -105 39 -127 40 -126 38 -7 37 -6 275 -1 275 -2 80 18 80 18 63 35
64 35 28 45 28 44 12 51 13 50 -7 67 -7 66 -11 45 -11 45 -28 25 -28 25 -2 15
-1 15 1 17 1 17 30 35 30 34 65 26 65 26 93 16 92 16 83 -5 82 -5 74 -35 73
-35 54 -55 54 -55 33 -55 33 -55 26 -74 26 -73 1 -95 1 -95 -25 -44 -25 -44
-13 -24 -14 -24 0 -45 0 -45 17 -25 17 -26 41 -18 42 -19 61 -6 60 -7 108 11
108 12 121 31 122 30 115 46 115 45 13 0 12 0 0 13 0 13 20 188 20 188 10 112
10 112 1 158 0 158 -12 55 -11 55 -25 42 -24 42 -35 11 -35 12 -46 -12 -47
-11 -25 -18 -26 -19 -48 -16 -48 -16 -63 0 -62 0 -55 16 -54 16 -48 25 -49 24
-43 40 -44 41 -26 51 -25 51 0 90 0 91 15 63 15 63 16 32 16 32 21 23 20 22
24 0 23 0 27 -30 26 -30 41 -11 41 -12 96 0 95 -1 66 32 66 32 41 46 41 47 25
51 25 51 20 78 19 78 11 100 10 101 0 107 0 108 -7 136 -6 137 -1342 0 -1343
0 -7 -243z"/>
</g>
</svg>
