<?xml version="1.0" standalone="no"?>
<!DOCTYPE svg PUBLIC "-//W3C//DTD SVG 20010904//EN"
 "http://www.w3.org/TR/2001/REC-SVG-20010904/DTD/svg10.dtd">
<svg version="1.0" xmlns="http://www.w3.org/2000/svg"
 width="278.000000pt" height="419.000000pt" viewBox="0 0 278.000000 419.000000"
 preserveAspectRatio="xMidYMid meet">
<metadata>
Created by potrace 1.16, written by Peter Selinger 2001-2019
</metadata>
<g transform="translate(0.000000,419.000000) scale(0.100000,-0.100000)"
fill="#000000" stroke="none">
<path d="M1225 4172 l-50 -17 -23 -16 -23 -17 -24 -32 -24 -33 -12 -56 -11
-56 6 -83 7 -84 24 -95 24 -94 21 -33 20 -33 0 -10 0 -9 -32 -19 -33 -20 -140
1 -140 1 -255 16 -255 16 -136 5 -135 6 -12 -188 -12 -187 -6 -150 -6 -150 11
-111 11 -111 16 -45 15 -45 20 -22 20 -21 43 0 42 0 43 21 43 21 81 20 81 21
86 -6 85 -5 53 -20 54 -21 47 -32 47 -33 33 -43 33 -43 26 -62 27 -63 0 -115
0 -115 -18 -57 -18 -58 -30 -34 -30 -35 -29 -6 -29 -6 -43 20 -43 21 -32 21
-32 20 -54 6 -53 5 -32 -16 -32 -17 -26 -41 -26 -41 -20 -56 -19 -56 -49 -205
-48 -205 -32 -98 -31 -99 -35 -79 -34 -80 -41 -70 -41 -70 6 -15 5 -14 69 0
69 0 259 21 259 22 205 1 205 1 18 -7 18 -8 -15 -22 -14 -23 -22 -70 -22 -70
-5 -95 -6 -95 12 -72 12 -71 29 -59 28 -60 51 -51 52 -52 56 -16 57 -17 62 6
63 6 49 25 49 25 28 33 28 33 21 45 20 45 -1 76 0 77 -42 89 -41 90 0 25 0 25
21 27 21 26 31 17 32 16 55 15 55 14 454 9 455 9 10 10 9 9 -16 70 -17 70 -20
118 -20 118 -25 252 -25 253 -16 77 -16 77 -24 48 -24 48 -26 17 -26 17 -48
-1 -47 -1 -21 -11 -22 -12 0 -13 0 -13 -18 -16 -19 -17 -34 0 -34 0 -45 21
-44 20 -53 53 -53 53 -22 49 -23 49 1 76 2 75 21 46 21 47 27 19 28 19 39 13
39 13 106 -6 106 -5 115 -32 115 -31 33 -6 32 -5 16 13 15 12 13 32 14 32 13
74 14 74 -2 265 -1 265 -15 213 -14 212 -6 6 -6 7 -98 -41 -98 -41 -55 -20
-55 -21 -85 -25 -85 -26 -114 -25 -114 -25 -91 -6 -91 -6 -55 12 -54 12 -33
25 -32 24 -6 33 -6 32 30 93 30 93 17 105 17 105 -11 85 -11 85 -32 60 -32 60
-39 31 -39 30 -49 19 -50 19 -108 0 -107 -1 -50 -17z"/>
</g>
</svg>
