<?xml version="1.0" standalone="no"?>
<!DOCTYPE svg PUBLIC "-//W3C//DTD SVG 20010904//EN"
 "http://www.w3.org/TR/2001/REC-SVG-20010904/DTD/svg10.dtd">
<svg version="1.0" xmlns="http://www.w3.org/2000/svg"
 width="276.000000pt" height="417.000000pt" viewBox="0 0 276.000000 417.000000"
 preserveAspectRatio="xMidYMid meet">
<metadata>
Created by potrace 1.16, written by Peter Selinger 2001-2019
</metadata>
<g transform="translate(0.000000,417.000000) scale(0.100000,-0.100000)"
fill="#000000" stroke="none">
<path d="M1225 4152 l-50 -17 -23 -16 -23 -17 -24 -32 -24 -33 -12 -55 -11
-55 7 -76 7 -76 24 -93 23 -93 21 -33 20 -33 0 -20 0 -19 -32 -19 -33 -20
-150 1 -150 1 -255 16 -255 17 -126 3 -125 4 -12 -186 -12 -186 -6 -140 -6
-140 11 -111 11 -111 16 -45 15 -45 20 -22 20 -21 33 0 32 0 43 21 43 21 81
20 81 20 96 -4 95 -5 53 -21 54 -21 47 -32 47 -33 33 -43 33 -43 26 -62 27
-63 0 -125 0 -125 -18 -57 -18 -58 -30 -34 -30 -35 -29 -6 -30 -7 -29 7 -28 6
-53 34 -53 34 -45 7 -44 7 -34 -16 -33 -16 -27 -42 -26 -42 -20 -56 -19 -56
-49 -208 -49 -208 -40 -117 -39 -117 -35 -75 -35 -75 -32 -53 -31 -52 18 -7
17 -7 176 12 175 12 205 16 205 16 146 -4 146 -3 17 -14 17 -14 -17 -18 -16
-17 -25 -79 -24 -78 -6 -85 -6 -85 12 -72 12 -71 29 -59 28 -60 51 -51 52 -52
56 -16 56 -16 54 6 54 6 48 25 48 24 28 33 28 33 20 45 21 45 -1 67 -1 67 -41
89 -41 89 0 35 0 35 21 27 21 26 31 17 32 16 55 15 55 14 454 9 455 9 8 8 9 9
-15 56 -15 57 -20 122 -21 123 -25 252 -25 253 -16 77 -16 77 -24 48 -24 48
-25 16 -25 16 -40 0 -39 -1 -20 -11 -21 -11 0 -13 0 -13 -18 -16 -19 -17 -44
0 -44 0 -45 21 -44 20 -53 53 -53 53 -22 49 -23 49 1 85 1 85 22 47 21 47 27
19 28 19 34 11 34 12 89 0 90 0 100 -20 100 -21 65 -21 65 -22 17 11 16 10 17
34 16 34 14 80 13 80 -1 225 0 225 -12 200 -12 200 -6 41 -5 42 -82 -35 -82
-35 -69 -25 -68 -25 -82 -24 -81 -25 -115 -25 -115 -25 -100 -6 -100 -6 -56
12 -56 12 -32 27 -32 27 -5 40 -5 40 30 92 30 92 17 102 17 102 -12 79 -11 80
-32 59 -31 60 -39 31 -39 30 -49 19 -50 19 -98 0 -97 -1 -50 -17z"/>
</g>
</svg>
