<?xml version="1.0" standalone="no"?>
<!DOCTYPE svg PUBLIC "-//W3C//DTD SVG 20010904//EN"
 "http://www.w3.org/TR/2001/REC-SVG-20010904/DTD/svg10.dtd">
<svg version="1.0" xmlns="http://www.w3.org/2000/svg"
 width="345.000000pt" height="293.000000pt" viewBox="0 0 345.000000 293.000000"
 preserveAspectRatio="xMidYMid meet">
<metadata>
Created by potrace 1.16, written by Peter Selinger 2001-2019
</metadata>
<g transform="translate(0.000000,293.000000) scale(0.100000,-0.100000)"
fill="#000000" stroke="none">
<path d="M1095 2904 l-260 -23 -88 0 -88 -1 8 -152 8 -153 -1 -275 -1 -275
-21 -98 -21 -98 -21 -45 -22 -45 -35 -26 -34 -26 -29 0 -30 0 -82 38 -82 39
-52 4 -53 4 -36 -6 -36 -7 -39 -35 -39 -36 -21 -54 -20 -55 0 -102 0 -102 15
-63 15 -63 27 -57 27 -57 51 -51 51 -51 59 -22 60 -23 72 4 71 5 78 37 79 37
38 1 39 0 30 -32 30 -33 10 -26 9 -26 9 -73 8 -73 -9 -112 -9 -112 -20 -110
-19 -110 -30 -120 -31 -119 8 -8 8 -8 370 -16 369 -15 110 10 110 10 38 11 37
11 40 38 40 38 0 54 -1 54 -13 35 -12 35 -27 38 -26 38 -11 52 -12 52 16 75
16 75 32 65 31 64 56 57 56 57 57 17 57 16 39 -20 40 -20 36 -50 37 -49 30
-67 30 -66 25 -92 25 -92 6 -86 6 -85 -13 -38 -12 -37 -23 -9 -23 -9 -12 -49
-11 -50 11 -40 10 -41 27 -21 26 -20 56 -18 56 -17 155 1 155 1 100 12 100 11
235 37 235 36 8 11 7 11 -4 20 -5 20 -15 120 -16 120 -15 272 -15 272 -10 73
-11 73 -16 53 -17 53 -32 36 -32 36 -49 4 -48 5 -90 -35 -90 -35 -60 -13 -60
-12 -47 7 -47 7 -48 32 -48 32 -29 58 -29 57 -5 81 -5 80 32 62 32 62 55 45
55 45 44 22 44 23 88 26 88 27 130 0 130 0 82 -27 82 -27 6 -9 6 -10 26 0 26
0 -7 83 -7 82 -24 250 -25 250 -10 135 -10 135 0 83 0 84 -29 -7 -30 -6 -403
-9 -403 -8 -60 -16 -60 -17 -37 -24 -37 -25 -11 -40 -11 -40 12 -42 11 -42 24
-29 23 -28 13 -40 12 -41 -13 -46 -12 -46 -27 -36 -27 -37 -32 -27 -31 -26
-54 -25 -53 -24 -64 -10 -64 -10 -75 10 -75 10 -50 20 -49 20 -43 29 -43 29
-27 33 -28 33 -31 65 -30 65 -4 87 -4 88 26 84 26 83 15 13 15 12 0 24 0 24
-26 10 -25 10 -112 -1 -112 -1 -260 -24z"/>
</g>
</svg>
