<?xml version="1.0" standalone="no"?>
<!DOCTYPE svg PUBLIC "-//W3C//DTD SVG 20010904//EN"
 "http://www.w3.org/TR/2001/REC-SVG-20010904/DTD/svg10.dtd">
<svg version="1.0" xmlns="http://www.w3.org/2000/svg"
 width="343.000000pt" height="291.000000pt" viewBox="0 0 343.000000 291.000000"
 preserveAspectRatio="xMidYMid meet">
<metadata>
Created by potrace 1.16, written by Peter Selinger 2001-2019
</metadata>
<g transform="translate(0.000000,291.000000) scale(0.100000,-0.100000)"
fill="#000000" stroke="none">
<path d="M1095 2884 l-260 -23 -88 0 -88 -1 8 -142 8 -143 -1 -285 -1 -285
-21 -98 -21 -98 -21 -45 -22 -45 -35 -27 -36 -27 -37 0 -37 0 -82 39 -82 39
-44 5 -44 4 -36 -6 -36 -7 -39 -35 -39 -36 -21 -54 -20 -55 0 -92 0 -92 15
-63 15 -63 27 -57 27 -57 51 -51 51 -51 59 -22 60 -23 62 5 62 5 81 37 80 38
46 0 45 0 30 -33 31 -33 10 -26 9 -26 9 -77 9 -77 -10 -118 -9 -118 -20 -110
-19 -110 -29 -113 -28 -113 7 -5 7 -4 363 -15 363 -16 105 10 106 11 38 10 37
11 40 38 40 38 0 44 -1 44 -13 35 -12 35 -27 38 -26 38 -12 54 -12 55 16 82
16 82 31 63 31 62 50 55 49 54 38 15 38 15 36 7 35 7 41 -21 40 -20 36 -50 37
-49 30 -67 30 -66 25 -92 25 -92 6 -96 6 -95 -13 -38 -12 -37 -23 -9 -22 -8
-11 -44 -11 -44 10 -37 10 -36 26 -21 26 -20 56 -17 56 -18 145 1 145 1 100
12 100 11 235 37 235 36 7 10 7 11 -4 6 -3 5 -16 125 -16 125 -15 272 -15 272
-10 73 -11 73 -16 53 -17 53 -31 35 -32 35 -39 6 -39 5 -90 -35 -90 -34 -54
-13 -53 -13 -59 6 -59 5 -45 27 -45 26 -26 39 -25 38 -15 48 -14 47 0 72 0 72
31 59 31 59 54 45 55 45 44 22 44 23 88 26 88 27 135 1 135 1 60 -18 60 -18
43 -21 43 -20 5 5 5 5 -11 118 -11 119 -24 255 -25 255 -7 162 -6 162 -8 -5
-9 -5 -412 -8 -413 -9 -60 -16 -60 -17 -37 -24 -37 -25 -10 -35 -9 -35 10 -37
10 -38 23 -27 23 -27 12 -37 12 -36 -4 -42 -5 -42 -18 -37 -17 -37 -42 -41
-41 -42 -60 -28 -60 -28 -68 -11 -69 -11 -80 11 -81 11 -49 20 -50 20 -43 29
-43 29 -27 33 -28 33 -31 65 -30 65 -4 98 -4 97 26 84 26 83 15 13 15 12 0 14
0 14 -26 10 -25 10 -102 -1 -102 -1 -260 -24z"/>
</g>
</svg>
