<?xml version="1.0" standalone="no"?>
<!DOCTYPE svg PUBLIC "-//W3C//DTD SVG 20010904//EN"
 "http://www.w3.org/TR/2001/REC-SVG-20010904/DTD/svg10.dtd">
<svg version="1.0" xmlns="http://www.w3.org/2000/svg"
 width="365.000000pt" height="345.000000pt" viewBox="0 0 365.000000 345.000000"
 preserveAspectRatio="xMidYMid meet">
<metadata>
Created by potrace 1.16, written by Peter Selinger 2001-2019
</metadata>
<g transform="translate(0.000000,345.000000) scale(0.100000,-0.100000)"
fill="#000000" stroke="none">
<path d="M1392 3420 l-61 -31 -32 -36 -32 -37 -23 -50 -24 -51 0 -38 0 -38 14
-34 14 -33 20 -11 19 -10 13 -45 12 -45 -6 -34 -6 -33 -33 -34 -32 -33 -40
-17 -41 -17 -54 -12 -55 -12 -125 -9 -125 -8 -305 12 -305 13 -5 -4 -4 -4 -1
-282 0 -282 17 -74 18 -74 29 -63 29 -63 33 -35 32 -36 55 -27 54 -26 80 -5
81 -5 67 12 68 13 19 20 18 20 29 15 28 15 25 -7 24 -6 34 -33 33 -34 22 -42
21 -42 20 -76 20 -77 6 -120 6 -120 -12 -75 -11 -75 -31 -62 -30 -62 -41 -36
-41 -35 -56 -21 -56 -21 -87 -5 -86 -6 -99 13 -98 12 -115 29 -115 29 -38 0
-38 0 -20 -10 -19 -11 -22 -42 -23 -42 1 -155 0 -155 27 -127 27 -127 39 -119
39 -118 21 -50 22 -51 61 -7 61 -6 242 0 242 0 89 15 89 16 66 30 67 31 40 41
41 42 23 50 23 50 -1 110 0 110 -12 40 -12 40 -30 19 -31 18 4 11 4 12 33 23
33 22 51 16 51 15 108 11 109 12 132 -12 133 -12 54 -16 54 -16 33 -20 32 -20
0 -14 0 -13 -30 -23 -30 -22 -10 -35 -10 -36 0 -33 0 -33 14 -34 14 -34 39
-25 38 -25 62 -20 61 -21 179 -41 178 -41 90 -30 90 -30 65 -33 65 -33 34 -26
35 -26 17 0 18 0 11 38 10 37 24 130 25 130 26 254 26 255 15 75 14 76 27 55
28 54 27 19 26 20 36 -7 36 -7 10 -12 10 -12 19 -25 19 -25 64 0 63 1 49 24
49 25 43 41 43 42 27 53 27 54 5 67 5 67 -29 56 -28 57 -37 29 -37 29 -64 30
-63 29 -65 10 -65 11 -50 0 -50 0 -70 -15 -70 -15 -63 -31 -63 -31 -14 12 -14
11 -10 50 -11 50 0 152 0 152 15 235 14 235 7 148 7 147 -22 0 -22 0 -59 30
-59 30 -73 29 -73 29 -110 30 -110 31 -170 36 -170 36 -75 20 -75 20 -53 32
-54 32 -14 27 -14 27 0 30 0 30 11 24 10 23 30 11 29 11 0 26 0 26 -42 21 -43
22 -50 13 -50 14 -91 0 -91 0 -61 -30z"/>
</g>
</svg>
