<?xml version="1.0" standalone="no"?>
<!DOCTYPE svg PUBLIC "-//W3C//DTD SVG 20010904//EN"
 "http://www.w3.org/TR/2001/REC-SVG-20010904/DTD/svg10.dtd">
<svg version="1.0" xmlns="http://www.w3.org/2000/svg"
 width="363.000000pt" height="343.000000pt" viewBox="0 0 363.000000 343.000000"
 preserveAspectRatio="xMidYMid meet">
<metadata>
Created by potrace 1.16, written by Peter Selinger 2001-2019
</metadata>
<g transform="translate(0.000000,343.000000) scale(0.100000,-0.100000)"
fill="#000000" stroke="none">
<path d="M1392 3400 l-61 -31 -32 -36 -32 -37 -23 -50 -24 -51 0 -28 0 -28 14
-34 14 -33 19 -11 19 -10 12 -39 12 -39 0 -31 0 -31 -9 -23 -9 -23 -28 -29
-29 -29 -40 -17 -41 -17 -54 -12 -55 -12 -130 -9 -130 -9 -300 13 -300 12 -5
-3 -4 -4 -1 -272 0 -272 17 -74 18 -74 29 -63 29 -63 33 -35 32 -36 54 -27 55
-26 74 -5 74 -5 62 13 63 12 32 29 33 29 25 6 25 6 26 -6 25 -7 34 -33 33 -34
22 -42 21 -42 20 -76 21 -77 5 -130 5 -130 -11 -75 -11 -75 -31 -62 -30 -62
-41 -36 -41 -35 -56 -21 -56 -21 -97 -6 -97 -5 -98 13 -98 12 -115 29 -115 29
-28 0 -28 0 -20 -10 -19 -11 -22 -42 -23 -42 1 -145 0 -145 27 -127 27 -127
39 -119 39 -118 21 -50 22 -51 61 -7 61 -6 232 0 232 0 89 15 89 16 66 30 67
31 40 41 41 42 23 50 23 50 -1 100 -1 100 -11 40 -12 40 -30 19 -31 18 3 21 3
21 34 23 35 24 50 14 51 15 75 10 75 9 78 1 78 0 97 -10 97 -11 55 -15 55 -16
33 -20 32 -20 0 -22 0 -22 -34 -31 -34 -30 -7 -46 -7 -46 12 -35 12 -36 33
-26 34 -26 68 -23 68 -24 180 -42 180 -41 90 -30 90 -30 65 -33 65 -33 34 -26
35 -26 7 0 8 0 11 37 10 38 24 130 25 130 26 254 26 255 14 72 14 72 22 51 22
51 29 25 30 25 27 0 28 0 29 -10 29 -10 17 -30 16 -29 35 -6 34 -7 44 12 44
12 51 34 52 35 25 32 24 32 23 44 22 45 5 57 6 58 -29 56 -28 57 -37 29 -37
29 -65 31 -65 30 -90 11 -89 12 -84 -17 -84 -16 -69 -36 -69 -35 -18 16 -18
16 -10 49 -11 50 0 162 0 162 14 235 15 235 7 138 6 137 -21 0 -22 0 -59 30
-59 30 -73 29 -73 29 -110 30 -110 31 -170 36 -170 36 -75 20 -75 20 -53 32
-54 32 -14 27 -14 27 0 40 0 40 11 24 10 23 30 11 29 11 0 16 0 16 -42 21 -43
22 -50 13 -50 14 -81 0 -81 0 -61 -30z"/>
</g>
</svg>
