<?xml version="1.0" standalone="no"?>
<!DOCTYPE svg PUBLIC "-//W3C//DTD SVG 20010904//EN"
 "http://www.w3.org/TR/2001/REC-SVG-20010904/DTD/svg10.dtd">
<svg version="1.0" xmlns="http://www.w3.org/2000/svg"
 width="355.000000pt" height="369.000000pt" viewBox="0 0 355.000000 369.000000"
 preserveAspectRatio="xMidYMid meet">
<metadata>
Created by potrace 1.16, written by Peter Selinger 2001-2019
</metadata>
<g transform="translate(0.000000,369.000000) scale(0.100000,-0.100000)"
fill="#000000" stroke="none">
<path d="M1960 3680 l-65 -8 -43 -12 -44 -11 -36 -34 -37 -34 0 -53 1 -54 27
-53 28 -52 15 -61 16 -62 -6 -49 -7 -49 -20 -53 -19 -52 -48 -50 -48 -50 -45
-26 -44 -26 -65 -17 -64 -16 -86 4 -85 4 -48 23 -47 23 -29 29 -29 29 -7 29
-6 30 17 33 16 33 19 21 19 21 15 69 15 69 0 56 0 55 -15 50 -14 49 -30 35
-29 36 -49 27 -49 26 -58 15 -58 15 -102 11 -101 11 -336 -7 -337 -7 -6 -121
-7 -121 -15 -265 -16 -265 4 -180 3 -180 15 -29 15 -29 17 -10 16 -11 74 37
73 38 80 16 80 16 84 -11 84 -12 64 -30 65 -30 37 -29 37 -29 28 -57 29 -56
-6 -49 -6 -49 -22 -43 -22 -43 -24 -32 -25 -32 -52 -35 -53 -35 -44 -11 -44
-11 -28 10 -27 11 -12 24 -11 25 -30 11 -30 10 -38 0 -37 0 -30 -25 -29 -25
-22 -51 -22 -51 -14 -72 -14 -72 -26 -255 -26 -254 -25 -132 -24 -132 -16 -47
-15 -46 3 -2 3 -3 150 9 150 9 245 -4 245 -5 75 -16 75 -17 71 -33 71 -34 28
-36 28 -37 5 -48 4 -48 -30 -69 -30 -69 -11 -40 -11 -40 0 -82 0 -82 20 -54
20 -53 41 -43 42 -43 41 -19 41 -19 96 0 95 0 55 16 54 16 49 25 50 25 56 54
57 54 25 52 26 53 7 43 7 42 -7 40 -7 40 -27 28 -28 27 -12 36 -12 36 7 19 7
19 31 33 30 33 76 23 75 24 205 26 205 26 80 16 80 15 83 26 82 27 0 16 0 17
44 94 44 95 35 106 35 106 36 158 36 159 30 130 30 130 26 55 25 55 17 18 17
19 28 14 28 15 35 -7 36 -7 44 -38 45 -39 40 0 40 0 25 17 26 17 23 37 24 37
17 58 16 58 -4 95 -5 96 -31 66 -32 66 -47 47 -48 46 -55 29 -55 29 -54 12
-53 13 -60 -7 -59 -6 -76 -40 -76 -40 -20 0 -20 0 -32 20 -33 20 -22 47 -22
47 -15 70 -16 71 -1 210 -1 210 9 178 9 177 -49 0 -49 0 -165 14 -165 14 -140
5 -140 5 -65 -8z"/>
</g>
</svg>
