<?xml version="1.0" standalone="no"?>
<!DOCTYPE svg PUBLIC "-//W3C//DTD SVG 20010904//EN"
 "http://www.w3.org/TR/2001/REC-SVG-20010904/DTD/svg10.dtd">
<svg version="1.0" xmlns="http://www.w3.org/2000/svg"
 width="353.000000pt" height="367.000000pt" viewBox="0 0 353.000000 367.000000"
 preserveAspectRatio="xMidYMid meet">
<metadata>
Created by potrace 1.16, written by Peter Selinger 2001-2019
</metadata>
<g transform="translate(0.000000,367.000000) scale(0.100000,-0.100000)"
fill="#000000" stroke="none">
<path d="M1960 3660 l-65 -8 -43 -12 -44 -11 -36 -34 -37 -33 1 -44 1 -43 31
-65 31 -65 12 -54 11 -54 -6 -53 -6 -54 -20 -53 -20 -54 -48 -50 -48 -50 -45
-26 -44 -26 -65 -17 -64 -16 -95 4 -96 4 -48 23 -47 23 -30 29 -29 30 -7 35
-6 34 13 31 13 32 23 28 24 28 14 68 15 68 0 46 0 45 -15 50 -14 49 -30 35
-29 36 -49 27 -49 26 -58 15 -58 15 -102 11 -101 11 -326 -7 -327 -7 -7 -131
-6 -131 -15 -235 -14 -235 0 -162 0 -162 11 -50 10 -49 18 -16 18 -16 69 35
69 36 84 16 84 17 89 -12 90 -11 65 -30 65 -31 37 -29 37 -29 28 -57 29 -56
-6 -58 -5 -57 -22 -45 -23 -44 -24 -32 -25 -32 -52 -35 -51 -34 -44 -12 -44
-12 -34 7 -35 6 -16 29 -17 30 -29 10 -29 10 -28 0 -27 0 -30 -25 -29 -25 -22
-51 -22 -51 -14 -72 -14 -72 -26 -249 -25 -250 -16 -90 -15 -90 -15 -65 -15
-65 -4 -16 -5 -16 382 1 383 1 85 -18 85 -18 71 -33 71 -34 29 -37 28 -37 4
-57 4 -58 -30 -69 -30 -69 -11 -40 -11 -40 0 -72 0 -72 20 -54 20 -53 41 -43
42 -43 41 -19 41 -19 86 0 85 0 55 16 54 16 49 25 50 25 56 54 57 54 25 52 25
53 7 38 7 37 -7 35 -6 36 -28 27 -27 27 -12 38 -13 38 7 27 6 27 32 33 31 33
76 23 75 24 205 26 205 26 80 16 80 15 83 26 82 27 -3 10 -3 10 47 101 47 100
35 106 35 107 36 158 36 159 30 130 30 130 26 55 25 55 17 18 17 19 29 15 29
15 43 -7 44 -6 46 -40 45 -39 30 0 30 0 25 17 26 17 23 37 24 37 17 58 17 58
-5 86 -5 86 -32 66 -31 65 -47 47 -48 46 -55 29 -55 29 -53 12 -54 12 -51 -6
-51 -7 -75 -40 -74 -39 -30 0 -30 0 -32 20 -33 20 -22 47 -22 47 -15 70 -16
71 -1 220 -1 220 9 168 8 167 -45 0 -46 0 -173 14 -173 15 -125 5 -125 4 -65
-8z"/>
</g>
</svg>
