<?xml version="1.0" standalone="no"?>
<!DOCTYPE svg PUBLIC "-//W3C//DTD SVG 20010904//EN"
 "http://www.w3.org/TR/2001/REC-SVG-20010904/DTD/svg10.dtd">
<svg version="1.0" xmlns="http://www.w3.org/2000/svg"
 width="402.000000pt" height="306.000000pt" viewBox="0 0 402.000000 306.000000"
 preserveAspectRatio="xMidYMid meet">
<metadata>
Created by potrace 1.16, written by Peter Selinger 2001-2019
</metadata>
<g transform="translate(0.000000,306.000000) scale(0.100000,-0.100000)"
fill="#000000" stroke="none">
<path d="M2445 3045 l-40 -14 -23 -27 -24 -27 5 -56 4 -56 21 -90 21 -90 16
-118 15 -118 0 -85 0 -85 -16 -76 -16 -77 -24 -47 -24 -48 -37 -37 -38 -37
-52 -24 -53 -24 -89 -12 -89 -11 -129 12 -128 11 -38 11 -39 11 -35 33 -35 32
-5 45 -5 45 27 74 27 75 19 65 18 65 0 101 1 100 -16 47 -16 46 -38 44 -39 44
-55 26 -54 26 -78 17 -79 18 -319 -2 -320 -2 -3 -4 -4 -4 11 -163 10 -164 9
-180 9 -180 -8 -107 -9 -107 -20 -46 -20 -45 -23 -9 -23 -8 -23 8 -23 9 -37
29 -37 30 -47 10 -47 11 -50 -10 -50 -9 -52 -27 -52 -26 -50 -51 -50 -51 -28
-60 -28 -60 -12 -55 -11 -56 5 -95 5 -95 17 -53 16 -53 28 -31 28 -31 16 6 17
6 0 30 0 29 31 11 32 11 24 0 25 0 29 -17 30 -18 23 -40 24 -40 20 -66 21 -67
41 -198 40 -199 35 -125 34 -125 26 -65 25 -65 36 -77 36 -76 117 -6 116 -7
140 -10 140 -10 195 -15 195 -16 58 5 58 5 14 12 15 12 0 17 0 17 -25 34 -26
35 -20 65 -20 65 -6 90 -5 90 15 72 16 73 32 67 32 68 56 55 56 56 49 23 50
23 46 7 46 7 78 -7 78 -8 64 -22 63 -22 48 -37 48 -36 22 -39 23 -40 0 -40 0
-40 -25 -40 -24 -40 -12 -25 -11 -25 -5 -42 -5 -42 6 -25 6 -25 36 -35 36 -35
62 -20 61 -20 85 -15 85 -15 173 -26 173 -26 87 -25 87 -25 54 -25 53 -24 9 0
8 0 36 76 36 76 30 80 29 80 30 112 29 111 46 224 46 223 23 64 24 64 23 35
24 35 29 10 29 10 36 -10 36 -10 15 -32 15 -33 27 -3 27 -3 15 23 15 23 15 60
16 59 0 116 0 115 -14 50 -13 50 -23 45 -23 45 -41 43 -41 43 -50 27 -50 26
-86 4 -86 4 -55 -16 -54 -15 -44 -30 -43 -29 -12 5 -12 4 -13 27 -12 27 -11
85 -10 85 17 270 18 270 4 120 5 120 -8 10 -8 10 -90 42 -90 42 -75 29 -75 29
-90 26 -90 26 -84 16 -83 15 -97 0 -96 -1 -40 -14z"/>
</g>
</svg>
