<?xml version="1.0" standalone="no"?>
<!DOCTYPE svg PUBLIC "-//W3C//DTD SVG 20010904//EN"
 "http://www.w3.org/TR/2001/REC-SVG-20010904/DTD/svg10.dtd">
<svg version="1.0" xmlns="http://www.w3.org/2000/svg"
 width="400.000000pt" height="304.000000pt" viewBox="0 0 400.000000 304.000000"
 preserveAspectRatio="xMidYMid meet">
<metadata>
Created by potrace 1.16, written by Peter Selinger 2001-2019
</metadata>
<g transform="translate(0.000000,304.000000) scale(0.100000,-0.100000)"
fill="#000000" stroke="none">
<path d="M2445 3025 l-40 -14 -23 -27 -24 -27 5 -46 4 -46 21 -90 21 -90 16
-118 15 -118 0 -95 0 -95 -16 -76 -16 -77 -24 -47 -24 -48 -37 -37 -38 -37
-50 -23 -50 -23 -65 -10 -65 -11 -75 0 -75 0 -86 9 -86 9 -42 12 -43 11 -35
33 -36 33 -5 54 -4 55 27 74 27 75 19 65 18 65 0 91 1 90 -16 47 -16 46 -38
44 -39 44 -55 26 -54 26 -78 17 -79 17 -309 -1 -310 -2 -3 -3 -3 -4 10 -149
10 -149 9 -191 10 -191 -9 -111 -9 -112 -20 -45 -20 -45 -27 -10 -27 -11 -29
10 -28 10 -37 30 -38 30 -42 9 -42 10 -45 -9 -45 -8 -52 -27 -52 -26 -50 -51
-50 -51 -28 -60 -28 -60 -12 -55 -11 -56 5 -85 5 -85 16 -52 16 -52 26 -31 26
-30 9 6 9 5 0 29 0 28 31 11 32 11 34 0 35 0 29 -17 30 -18 23 -40 24 -40 20
-66 21 -67 41 -198 40 -199 35 -125 34 -125 26 -65 25 -65 36 -77 36 -76 117
-6 116 -7 195 -14 195 -15 148 -11 147 -11 44 6 44 7 12 15 13 14 -27 39 -28
39 -20 64 -20 63 -5 100 -5 100 15 72 16 73 32 67 32 68 56 55 56 56 49 23 49
23 51 8 51 8 84 -8 84 -9 63 -22 63 -22 48 -37 48 -36 22 -39 23 -40 0 -50 0
-50 -25 -40 -24 -40 -12 -25 -11 -25 -5 -32 -5 -32 6 -25 6 -25 36 -35 36 -35
62 -20 61 -20 85 -15 85 -15 173 -26 173 -26 87 -25 87 -25 52 -24 53 -24 35
76 36 75 30 80 29 80 30 112 29 111 46 224 46 223 23 64 24 64 23 35 24 35 35
11 36 11 39 -11 40 -11 15 -32 15 -33 17 -3 17 -3 15 23 15 23 15 60 16 59 0
106 0 105 -14 50 -13 50 -23 45 -23 45 -41 43 -41 43 -50 26 -50 26 -76 5 -76
4 -54 -15 -54 -16 -47 -31 -47 -32 -19 6 -19 6 -11 26 -12 25 -11 72 -12 72 6
130 6 130 17 260 17 260 -6 25 -6 25 -38 17 -38 16 -95 42 -95 42 -104 34
-105 34 -103 20 -104 20 -87 0 -87 -1 -40 -14z"/>
</g>
</svg>
