<?xml version="1.0" standalone="no"?>
<!DOCTYPE svg PUBLIC "-//W3C//DTD SVG 20010904//EN"
 "http://www.w3.org/TR/2001/REC-SVG-20010904/DTD/svg10.dtd">
<svg version="1.0" xmlns="http://www.w3.org/2000/svg"
 width="442.000000pt" height="365.000000pt" viewBox="0 0 442.000000 365.000000"
 preserveAspectRatio="xMidYMid meet">
<metadata>
Created by potrace 1.16, written by Peter Selinger 2001-2019
</metadata>
<g transform="translate(0.000000,365.000000) scale(0.100000,-0.100000)"
fill="#000000" stroke="none">
<path d="M953 3643 l-113 -4 0 -92 0 -92 10 -135 10 -135 25 -260 25 -260 6
-53 6 -54 -24 15 -23 15 -75 24 -75 23 -145 -1 -145 -1 -88 -27 -88 -26 -44
-23 -44 -22 -55 -45 -54 -45 -31 -59 -31 -59 0 -82 0 -82 14 -47 15 -48 25
-38 26 -39 46 -27 45 -27 69 -5 68 -5 53 13 54 13 89 34 90 35 30 -6 31 -6 31
-35 30 -34 17 -53 16 -53 11 -73 10 -73 15 -272 15 -272 15 -120 16 -120 5
-19 6 -19 172 6 171 7 270 25 270 25 68 0 68 0 -20 -27 -21 -26 -18 -56 -17
-56 1 -125 1 -125 22 -90 22 -90 44 -92 45 -92 53 -53 52 -54 40 -19 40 -20
130 0 130 1 57 17 57 17 33 30 32 30 4 62 4 63 -41 80 -41 80 0 36 0 36 21 27
21 27 36 18 37 19 50 17 50 17 212 48 212 49 123 41 123 41 75 41 75 41 22 11
23 11 0 17 0 17 35 60 35 60 34 80 35 79 31 99 32 98 48 205 49 205 19 56 20
56 26 41 26 41 31 16 31 16 38 -6 38 -6 53 -35 53 -34 33 -6 33 -6 34 6 34 7
31 34 30 35 18 58 18 57 0 135 0 135 -26 63 -27 62 -33 43 -33 43 -47 33 -47
32 -54 21 -53 21 -106 5 -105 4 -81 -20 -81 -20 -43 -21 -43 -21 -22 0 -23 0
-20 21 -20 22 -16 45 -15 46 -11 119 -12 118 12 212 12 212 6 98 6 97 -14 0
-14 0 -71 -30 -72 -30 -93 -25 -94 -25 -215 -40 -215 -39 -69 -21 -68 -22 -42
-38 -41 -39 1 -53 0 -53 17 -30 16 -30 27 -53 26 -54 -6 -41 -7 -41 -18 -41
-18 -40 -45 -45 -44 -45 -55 -28 -55 -27 -74 -16 -75 -16 -70 6 -70 6 -37 10
-37 11 -36 32 -37 32 -12 30 -13 30 -7 46 -7 46 15 99 15 99 31 108 30 107 0
39 0 40 -11 28 -10 28 -22 24 -22 23 -35 23 -35 22 -50 17 -50 17 -95 14 -95
15 -245 -2 -245 -2 -112 -3z"/>
</g>
</svg>
