<?xml version="1.0" standalone="no"?>
<!DOCTYPE svg PUBLIC "-//W3C//DTD SVG 20010904//EN"
 "http://www.w3.org/TR/2001/REC-SVG-20010904/DTD/svg10.dtd">
<svg version="1.0" xmlns="http://www.w3.org/2000/svg"
 width="440.000000pt" height="363.000000pt" viewBox="0 0 440.000000 363.000000"
 preserveAspectRatio="xMidYMid meet">
<metadata>
Created by potrace 1.16, written by Peter Selinger 2001-2019
</metadata>
<g transform="translate(0.000000,363.000000) scale(0.100000,-0.100000)"
fill="#000000" stroke="none">
<path d="M951 3623 l-114 -4 6 -162 7 -162 25 -255 24 -255 11 -119 11 -118
-5 -5 -5 -5 -43 20 -43 21 -60 18 -60 18 -135 -1 -135 -1 -88 -27 -88 -26 -44
-23 -44 -22 -55 -45 -54 -45 -31 -59 -31 -59 0 -72 0 -72 14 -47 15 -48 25
-38 26 -39 45 -26 45 -27 59 -5 59 -6 53 13 54 13 90 34 90 35 39 -5 39 -6 32
-35 31 -35 17 -53 16 -53 11 -73 10 -73 15 -272 15 -272 15 -120 16 -120 5
-19 6 -19 162 6 161 7 270 25 270 25 76 0 76 0 6 -6 6 -7 -24 -29 -25 -29 -17
-57 -18 -57 1 -115 1 -115 22 -90 22 -90 44 -92 45 -92 53 -53 52 -54 40 -19
40 -20 120 1 120 0 57 17 57 17 32 29 32 29 5 52 5 51 -42 84 -42 84 -1 42 0
41 19 27 20 26 31 18 31 18 58 21 58 20 212 48 212 49 123 41 123 41 75 41 75
41 22 11 21 11 0 15 -1 15 37 62 36 62 34 80 35 79 31 99 32 98 48 205 49 205
19 56 20 56 26 42 27 42 33 16 34 16 44 -7 45 -7 53 -34 53 -34 28 -6 29 -7
30 7 29 6 30 35 30 34 18 58 18 57 0 125 0 125 -27 63 -26 62 -33 43 -33 43
-47 33 -47 32 -54 21 -53 21 -95 5 -96 4 -81 -20 -81 -20 -43 -21 -43 -21 -32
0 -33 0 -20 21 -20 22 -15 45 -16 45 -11 111 -11 111 6 145 6 145 12 168 11
167 -5 5 -4 5 -71 -30 -71 -30 -93 -25 -94 -25 -215 -40 -215 -39 -69 -21 -68
-22 -42 -38 -41 -39 1 -43 1 -44 16 -29 16 -30 27 -54 27 -53 -6 -49 -6 -49
-19 -42 -19 -43 -45 -45 -44 -45 -55 -28 -55 -27 -74 -16 -75 -16 -80 6 -80 5
-37 11 -37 11 -36 32 -37 32 -13 31 -13 31 -7 49 -6 50 12 89 11 90 34 124 34
123 0 28 0 29 -11 28 -10 28 -22 24 -22 23 -35 23 -35 22 -50 17 -50 17 -95
14 -95 15 -235 -2 -235 -2 -114 -3z"/>
</g>
</svg>
