<?xml version="1.0" standalone="no"?>
<!DOCTYPE svg PUBLIC "-//W3C//DTD SVG 20010904//EN"
 "http://www.w3.org/TR/2001/REC-SVG-20010904/DTD/svg10.dtd">
<svg version="1.0" xmlns="http://www.w3.org/2000/svg"
 width="363.000000pt" height="392.000000pt" viewBox="0 0 363.000000 392.000000"
 preserveAspectRatio="xMidYMid meet">
<metadata>
Created by potrace 1.16, written by Peter Selinger 2001-2019
</metadata>
<g transform="translate(0.000000,392.000000) scale(0.100000,-0.100000)"
fill="#000000" stroke="none">
<path d="M1709 3910 l-46 -8 -29 -15 -29 -15 -19 -21 -20 -22 1 -47 1 -47 25
-60 25 -60 16 -77 16 -77 0 -89 0 -89 -15 -86 -15 -86 -29 -79 -28 -78 -26
-41 -26 -41 -37 -36 -37 -36 -38 -11 -37 -12 -86 8 -85 7 -43 21 -43 22 -18
35 -18 35 6 59 6 59 41 126 40 126 1 90 2 90 -14 39 -13 39 -36 39 -36 40 -48
24 -48 24 -56 15 -56 14 -102 11 -101 11 -322 -7 -322 -7 6 -44 6 -45 -13
-351 -12 -352 11 -78 11 -78 15 -29 15 -30 30 -15 29 -15 43 0 43 1 55 20 55
20 105 30 105 29 82 6 82 7 45 -13 46 -13 35 -40 35 -40 17 -56 17 -56 0 -155
1 -155 -30 -55 -30 -54 -43 -33 -43 -32 -51 -16 -52 -15 -70 0 -71 0 -45 10
-45 10 -112 37 -113 37 -42 -14 -43 -15 -27 -55 -28 -55 -11 -75 -12 -75 7
-450 7 -449 5 -8 5 -8 112 0 112 0 270 20 270 20 108 0 108 0 22 -11 22 -12 4
-3 3 -3 -21 -34 -20 -33 -21 -85 -21 -84 -6 -135 -5 -135 16 -73 15 -74 26
-55 25 -55 36 -49 36 -49 14 0 14 0 0 -10 0 -10 53 -27 52 -27 87 -4 86 -4 56
31 55 32 31 38 30 39 31 66 31 67 5 83 6 83 -12 36 -12 36 -30 37 -29 37 0 38
0 37 25 30 25 29 47 21 48 20 75 16 75 15 225 26 225 26 90 15 90 15 108 26
107 26 0 14 0 14 -35 122 -35 122 -24 110 -25 110 -16 110 -17 110 0 105 -1
105 19 55 19 55 34 22 34 23 26 -6 26 -6 45 -29 45 -28 45 -10 45 -11 80 0 80
0 90 19 90 19 57 22 57 21 73 48 73 48 43 49 43 49 16 54 15 54 -6 91 -7 91
-15 64 -15 65 -30 62 -31 62 -31 30 -32 30 -43 22 -43 22 -63 -4 -64 -4 -52
-32 -52 -32 -66 -12 -67 -11 -46 7 -47 7 -45 30 -44 29 -26 39 -26 39 -20 60
-20 60 -12 73 -12 74 6 278 7 277 -21 0 -21 0 -142 49 -141 48 -140 36 -140
36 -90 15 -90 15 -95 5 -95 5 -46 -9z"/>
</g>
</svg>
