<?xml version="1.0" standalone="no"?>
<!DOCTYPE svg PUBLIC "-//W3C//DTD SVG 20010904//EN"
 "http://www.w3.org/TR/2001/REC-SVG-20010904/DTD/svg10.dtd">
<svg version="1.0" xmlns="http://www.w3.org/2000/svg"
 width="361.000000pt" height="390.000000pt" viewBox="0 0 361.000000 390.000000"
 preserveAspectRatio="xMidYMid meet">
<metadata>
Created by potrace 1.16, written by Peter Selinger 2001-2019
</metadata>
<g transform="translate(0.000000,390.000000) scale(0.100000,-0.100000)"
fill="#000000" stroke="none">
<path d="M1709 3890 l-46 -8 -29 -15 -29 -15 -19 -21 -18 -20 0 -39 1 -40 24
-58 25 -59 16 -77 16 -77 0 -99 0 -99 -15 -86 -15 -86 -29 -79 -28 -78 -26
-41 -26 -41 -37 -36 -36 -35 -36 -12 -35 -12 -96 7 -96 7 -45 22 -45 22 -18
35 -18 35 5 67 6 67 41 128 41 128 1 80 1 80 -13 39 -13 39 -36 39 -36 40 -48
24 -48 24 -56 15 -56 14 -102 11 -101 11 -310 -7 -310 -7 4 -46 4 -46 -13
-340 -12 -340 11 -78 11 -78 15 -29 15 -30 30 -15 29 -15 33 0 33 1 55 20 55
20 105 30 105 29 92 7 92 6 45 -13 46 -13 35 -40 35 -40 17 -56 17 -56 0 -165
1 -165 -30 -55 -30 -54 -43 -33 -43 -32 -51 -16 -52 -15 -80 0 -81 0 -45 10
-45 10 -110 36 -110 37 -38 -16 -38 -16 -24 -53 -24 -53 -12 -75 -12 -75 7
-440 8 -439 4 -8 5 -8 102 0 102 0 270 20 270 20 117 0 117 0 26 -12 25 -11 0
-15 0 -15 -20 -32 -19 -31 -21 -85 -21 -84 -6 -125 -5 -125 16 -73 15 -74 26
-55 25 -55 36 -49 36 -49 14 0 14 0 0 -10 0 -10 53 -26 52 -27 77 -5 76 -4 56
31 55 32 31 38 30 39 31 66 31 66 5 78 6 78 -21 45 -21 44 -21 26 -21 25 -1
43 0 43 19 27 19 26 54 27 55 27 75 15 75 15 225 26 225 26 115 20 115 20 80
21 80 21 3 2 3 2 -40 141 -40 140 -25 123 -25 124 -12 85 -12 85 0 110 0 110
19 55 19 55 35 23 35 23 35 -6 35 -7 45 -28 45 -29 45 -10 45 -11 70 0 70 0
90 19 90 19 57 22 57 21 73 48 73 48 43 49 43 49 15 53 16 54 -7 81 -7 82 -14
64 -15 65 -30 62 -31 62 -31 30 -32 30 -43 22 -43 22 -54 -4 -54 -5 -50 -31
-51 -31 -60 -12 -61 -12 -58 6 -58 5 -31 16 -32 16 -33 34 -33 33 -22 45 -21
45 -18 64 -18 64 1 321 1 322 -21 0 -21 0 -130 47 -130 46 -150 39 -150 39
-90 15 -90 15 -85 5 -85 5 -46 -9z"/>
</g>
</svg>
