<?xml version="1.0" standalone="no"?>
<!DOCTYPE svg PUBLIC "-//W3C//DTD SVG 20010904//EN"
 "http://www.w3.org/TR/2001/REC-SVG-20010904/DTD/svg10.dtd">
<svg version="1.0" xmlns="http://www.w3.org/2000/svg"
 width="350.000000pt" height="307.000000pt" viewBox="0 0 350.000000 307.000000"
 preserveAspectRatio="xMidYMid meet">
<metadata>
Created by potrace 1.16, written by Peter Selinger 2001-2019
</metadata>
<g transform="translate(0.000000,307.000000) scale(0.100000,-0.100000)"
fill="#000000" stroke="none">
<path d="M1760 3050 l-55 -19 -22 -26 -23 -26 0 -49 0 -49 29 -73 28 -73 13
-54 13 -53 -6 -64 -5 -63 -29 -53 -30 -53 -39 -27 -39 -28 -55 -20 -54 -21
-81 -6 -82 -6 -51 17 -50 17 -45 39 -44 39 -23 53 -22 52 5 66 5 65 42 82 43
82 0 45 0 46 -23 25 -23 24 -51 18 -51 18 -280 -2 -280 -2 -235 -8 -235 -8 -3
-1389 -2 -1388 21 5 21 6 299 -9 299 -9 122 9 123 9 68 21 67 21 37 32 36 32
18 40 19 40 0 98 0 98 -16 72 -16 72 -23 25 -23 25 -11 22 -11 22 27 18 27 18
159 4 158 3 62 -31 62 -31 25 -23 25 -23 31 -44 31 -45 21 -40 20 -40 21 -69
21 -68 0 -49 0 -50 -15 -34 -14 -35 -15 -6 -15 -6 -10 -30 -11 -31 0 -54 0
-54 25 -25 25 -25 38 -16 37 -16 92 -5 92 -5 98 12 98 12 125 29 125 28 141
46 141 46 16 0 17 0 0 28 0 27 15 50 16 50 24 120 24 120 26 220 26 220 14 90
14 90 21 61 21 61 35 34 35 34 38 0 38 0 74 -39 74 -39 67 -5 67 -5 45 27 45
26 33 67 32 66 4 127 4 128 -11 82 -11 82 -16 34 -17 35 -28 14 -28 15 -56 0
-57 0 -121 -41 -122 -41 -45 -5 -45 -5 -43 11 -42 12 -36 31 -35 31 -24 42
-25 42 -22 79 -23 79 2 368 1 367 -5 0 -6 0 -165 36 -166 35 -135 19 -136 20
-135 0 -135 -1 -55 -19z"/>
</g>
</svg>
