<?xml version="1.0" standalone="no"?>
<!DOCTYPE svg PUBLIC "-//W3C//DTD SVG 20010904//EN"
 "http://www.w3.org/TR/2001/REC-SVG-20010904/DTD/svg10.dtd">
<svg version="1.0" xmlns="http://www.w3.org/2000/svg"
 width="348.000000pt" height="305.000000pt" viewBox="0 0 348.000000 305.000000"
 preserveAspectRatio="xMidYMid meet">
<metadata>
Created by potrace 1.16, written by Peter Selinger 2001-2019
</metadata>
<g transform="translate(0.000000,305.000000) scale(0.100000,-0.100000)"
fill="#000000" stroke="none">
<path d="M1760 3030 l-55 -19 -22 -26 -23 -26 0 -39 0 -39 29 -73 28 -73 13
-54 12 -53 -4 -73 -5 -73 -30 -53 -30 -54 -39 -27 -39 -28 -55 -21 -55 -21
-91 -5 -91 -6 -51 17 -50 17 -45 39 -44 39 -23 53 -22 52 4 76 5 75 43 81 42
80 0 38 0 38 -22 23 -23 24 -51 18 -51 18 -270 -2 -270 -2 -235 -8 -235 -8 -3
-1378 -2 -1378 9 5 8 6 304 -9 304 -9 120 8 120 9 68 21 67 21 37 32 36 32 18
40 19 40 0 88 0 88 -16 72 -17 72 -27 32 -28 32 -7 21 -7 22 15 15 14 14 39 9
39 10 146 0 146 0 59 -30 59 -30 25 -23 25 -23 31 -44 31 -45 21 -40 20 -40
21 -69 21 -68 0 -59 0 -60 -15 -34 -14 -35 -15 -6 -15 -6 -10 -30 -11 -31 0
-44 0 -44 25 -25 25 -25 38 -16 37 -15 82 -6 81 -5 99 12 98 12 125 29 125 28
145 48 145 49 13 -2 13 -1 -4 12 -4 11 24 85 23 85 20 105 20 105 20 170 20
170 16 120 16 120 24 75 23 76 36 34 36 35 48 0 47 0 74 -39 74 -38 57 -5 58
-6 45 27 45 26 32 66 33 67 4 117 4 117 -11 82 -11 83 -16 34 -17 35 -28 14
-28 15 -46 0 -47 0 -121 -41 -122 -41 -55 -5 -55 -5 -43 11 -42 12 -36 31 -35
31 -24 42 -25 42 -22 79 -23 79 1 368 2 367 -6 0 -5 0 -165 36 -166 35 -135
19 -136 20 -125 0 -125 -1 -55 -19z"/>
</g>
</svg>
