<?xml version="1.0" standalone="no"?>
<!DOCTYPE svg PUBLIC "-//W3C//DTD SVG 20010904//EN"
 "http://www.w3.org/TR/2001/REC-SVG-20010904/DTD/svg10.dtd">
<svg version="1.0" xmlns="http://www.w3.org/2000/svg"
 width="287.000000pt" height="364.000000pt" viewBox="0 0 287.000000 364.000000"
 preserveAspectRatio="xMidYMid meet">
<metadata>
Created by potrace 1.16, written by Peter Selinger 2001-2019
</metadata>
<g transform="translate(0.000000,364.000000) scale(0.100000,-0.100000)"
fill="#000000" stroke="none">
<path d="M1832 3630 l-53 -10 -32 -16 -32 -16 -22 -20 -22 -21 -6 -29 -7 -29
12 -49 12 -48 23 -6 23 -6 13 -37 12 -36 -13 -68 -12 -69 -38 -80 -39 -80 -63
-63 -63 -64 -54 -18 -54 -18 -121 6 -121 6 -37 11 -37 11 -30 26 -31 27 0 37
0 36 34 64 34 64 11 53 11 53 0 53 0 53 -15 44 -16 44 -32 33 -32 34 -35 15
-35 15 -45 14 -44 14 -91 11 -90 10 -326 -7 -326 -6 -6 -127 -6 -126 -17 -240
-16 -240 6 -105 5 -105 11 -37 11 -37 15 -16 15 -15 22 0 22 0 44 30 45 31 55
15 55 16 65 -4 66 -5 50 -26 50 -26 41 -43 41 -43 23 -45 23 -45 13 -50 14
-50 0 -95 0 -96 -16 -59 -15 -60 -16 -24 -16 -25 -18 23 -19 23 0 14 0 13 -37
10 -38 11 -21 0 -21 0 -29 -10 -29 -10 -24 -35 -23 -35 -24 -64 -23 -64 -46
-223 -46 -224 -29 -111 -30 -112 -29 -80 -30 -80 -35 -75 -36 -75 0 -7 0 -6
348 7 347 6 95 -16 95 -16 70 -35 70 -34 23 -46 22 -46 0 -47 -1 -47 -20 -55
-21 -55 -19 -52 -19 -51 -6 -54 -6 -53 11 -41 11 -40 27 -31 28 -30 40 -20 40
-21 53 -11 53 -11 107 0 108 0 59 15 59 16 49 27 49 26 25 33 25 33 6 45 5 44
-38 38 -38 38 -9 33 -9 33 19 37 19 37 39 23 39 22 60 19 60 19 219 47 218 47
105 34 104 34 82 40 82 41 16 12 15 12 37 160 36 160 16 110 17 110 1 130 1
130 -13 52 -13 51 -33 38 -34 38 -54 0 -55 0 -80 -38 -81 -37 -53 -6 -53 -5
-60 23 -59 22 -51 51 -51 51 -27 57 -27 57 -15 63 -15 63 0 82 0 82 20 55 21
54 39 36 39 35 36 7 36 6 36 -5 35 -6 81 -38 81 -38 46 0 47 0 35 27 36 27 22
45 21 45 22 98 21 98 1 320 0 320 -8 116 -9 115 -271 33 -272 33 -160 4 -160
3 -53 -9z"/>
</g>
</svg>
