<?xml version="1.0" standalone="no"?>
<!DOCTYPE svg PUBLIC "-//W3C//DTD SVG 20010904//EN"
 "http://www.w3.org/TR/2001/REC-SVG-20010904/DTD/svg10.dtd">
<svg version="1.0" xmlns="http://www.w3.org/2000/svg"
 width="285.000000pt" height="362.000000pt" viewBox="0 0 285.000000 362.000000"
 preserveAspectRatio="xMidYMid meet">
<metadata>
Created by potrace 1.16, written by Peter Selinger 2001-2019
</metadata>
<g transform="translate(0.000000,362.000000) scale(0.100000,-0.100000)"
fill="#000000" stroke="none">
<path d="M1832 3610 l-53 -10 -37 -19 -37 -19 -16 -18 -17 -19 -6 -22 -7 -21
12 -45 11 -45 24 -6 23 -6 12 -41 13 -41 -12 -71 -12 -72 -40 -82 -39 -82 -63
-64 -63 -64 -54 -18 -54 -18 -131 6 -131 6 -37 11 -37 11 -30 26 -31 27 0 47
0 46 34 64 34 64 11 53 11 53 0 43 0 43 -15 44 -16 44 -32 33 -32 34 -35 15
-35 15 -45 14 -44 14 -91 11 -90 10 -316 -7 -316 -7 -6 -116 -6 -116 -17 -279
-18 -278 11 -87 11 -86 13 -27 12 -28 19 -6 19 -6 47 32 47 31 54 16 54 15 76
-4 76 -5 50 -26 50 -26 41 -43 41 -43 23 -45 23 -45 13 -50 14 -50 0 -105 0
-106 -16 -59 -15 -60 -15 -23 -15 -23 -17 3 -17 3 -15 33 -15 32 -40 11 -39
11 -36 -11 -35 -11 -24 -35 -23 -35 -24 -64 -23 -64 -46 -223 -46 -224 -29
-111 -30 -112 -29 -80 -30 -81 -34 -71 -34 -71 346 7 346 7 95 -17 95 -16 71
-35 70 -34 24 -50 23 -50 -5 -68 -5 -68 -31 -70 -31 -70 -11 -65 -12 -65 11
-41 11 -40 27 -31 28 -30 40 -20 40 -21 53 -11 53 -11 97 0 98 0 59 15 59 16
49 27 49 26 25 32 24 32 6 36 5 35 -40 41 -41 42 -6 39 -7 39 19 38 20 37 39
23 39 22 65 20 65 20 208 45 208 45 86 26 86 26 66 28 67 29 55 32 56 31 0 12
1 11 36 150 35 150 16 110 16 110 2 120 1 120 -13 52 -13 51 -33 38 -33 37
-46 0 -46 0 -80 -38 -81 -37 -62 -5 -62 -5 -60 23 -59 22 -51 51 -51 51 -27
57 -27 57 -15 63 -15 63 0 92 0 92 20 55 21 54 39 36 39 35 36 7 36 6 44 -4
44 -5 82 -39 82 -39 37 0 37 0 36 27 35 27 22 45 21 45 22 98 21 98 0 310 1
310 -8 116 -9 115 -270 33 -270 33 -151 3 -152 4 -53 -9z"/>
</g>
</svg>
