<?xml version="1.0" standalone="no"?>
<!DOCTYPE svg PUBLIC "-//W3C//DTD SVG 20010904//EN"
 "http://www.w3.org/TR/2001/REC-SVG-20010904/DTD/svg10.dtd">
<svg version="1.0" xmlns="http://www.w3.org/2000/svg"
 width="356.000000pt" height="297.000000pt" viewBox="0 0 356.000000 297.000000"
 preserveAspectRatio="xMidYMid meet">
<metadata>
Created by potrace 1.16, written by Peter Selinger 2001-2019
</metadata>
<g transform="translate(0.000000,297.000000) scale(0.100000,-0.100000)"
fill="#000000" stroke="none">
<path d="M2055 2960 l-40 -8 -30 -12 -30 -11 -27 -26 -28 -27 -6 -33 -6 -33
35 -108 36 -108 11 -69 11 -70 -6 -64 -7 -63 -18 -53 -18 -53 -18 -29 -18 -28
-31 -33 -30 -33 -43 -30 -42 -30 -58 -21 -57 -20 -115 -5 -115 -5 -75 11 -75
12 -46 15 -47 15 -45 42 -45 42 -19 35 -18 35 0 125 0 125 24 99 23 99 14 33
14 33 0 38 0 38 -20 32 -19 32 -40 21 -40 20 -63 15 -63 15 -128 6 -128 7
-223 -13 -224 -13 -7 -154 -7 -154 5 -177 5 -177 17 -59 17 -59 21 -45 21 -45
33 -33 33 -34 33 -16 32 -17 67 -5 68 -5 60 12 60 12 50 31 49 30 45 5 45 5
43 -22 43 -22 28 -26 28 -26 24 -41 23 -41 21 -62 21 -61 11 -100 11 -100 -16
-53 -15 -53 -43 -49 -43 -49 -73 -48 -73 -48 -57 -21 -57 -22 -90 -19 -90 -19
-60 0 -60 0 -45 11 -45 10 -46 30 -46 29 -44 6 -44 6 -35 -24 -35 -23 -19 -55
-19 -55 0 -125 1 -125 16 -110 17 -110 30 -130 29 -130 29 -98 29 -99 6 -5 5
-5 193 -9 193 -9 156 10 156 10 78 20 78 20 53 24 53 24 44 42 45 41 17 34 16
35 10 59 11 59 -11 70 -11 70 -36 71 -36 70 4 22 3 22 26 19 26 19 39 10 39 9
145 0 145 1 58 -16 58 -15 29 -15 30 -15 36 -32 35 -31 26 -51 26 -51 5 -83 5
-82 -13 -63 -12 -62 -29 -89 -29 -89 0 -38 0 -38 10 -23 11 -23 34 -22 34 -22
46 -12 46 -12 152 6 152 5 115 21 115 21 115 30 115 30 43 11 42 11 0 11 0 10
-29 61 -28 61 -46 115 -45 115 -36 122 -35 122 -22 113 -22 113 -1 105 0 105
23 45 22 45 17 13 16 12 35 0 36 0 55 -21 55 -21 90 -20 90 -20 100 0 100 -1
55 13 55 13 47 23 47 24 35 30 35 31 25 51 26 52 0 102 0 102 -14 75 -15 75
-24 49 -25 48 -34 32 -33 32 -28 10 -28 11 -57 0 -57 -1 -65 -23 -65 -24 -64
-27 -63 -27 -33 6 -32 6 -21 23 -21 22 -16 37 -15 38 -10 97 -10 97 15 344 16
345 -3 2 -3 2 -165 22 -165 21 -95 10 -95 10 -120 -1 -120 -1 -40 -8z"/>
</g>
</svg>
