<?xml version="1.0" standalone="no"?>
<!DOCTYPE svg PUBLIC "-//W3C//DTD SVG 20010904//EN"
 "http://www.w3.org/TR/2001/REC-SVG-20010904/DTD/svg10.dtd">
<svg version="1.0" xmlns="http://www.w3.org/2000/svg"
 width="354.000000pt" height="295.000000pt" viewBox="0 0 354.000000 295.000000"
 preserveAspectRatio="xMidYMid meet">
<metadata>
Created by potrace 1.16, written by Peter Selinger 2001-2019
</metadata>
<g transform="translate(0.000000,295.000000) scale(0.100000,-0.100000)"
fill="#000000" stroke="none">
<path d="M2070 2943 l-25 -4 -46 -15 -46 -15 -26 -27 -26 -27 -6 -25 -6 -25
35 -106 35 -105 12 -74 11 -74 -7 -68 -6 -69 -19 -53 -18 -54 -18 -29 -18 -28
-31 -33 -30 -33 -43 -30 -42 -30 -58 -21 -57 -20 -125 -5 -125 -5 -75 11 -75
12 -46 15 -47 15 -45 42 -45 42 -19 35 -18 35 0 135 0 135 24 99 23 99 14 33
14 33 0 28 0 28 -20 32 -19 32 -40 21 -40 20 -63 15 -63 15 -118 6 -118 7
-224 -13 -223 -13 -7 -154 -8 -155 6 -166 5 -167 17 -59 17 -59 21 -45 21 -45
33 -33 33 -34 32 -16 31 -16 58 -5 58 -6 61 12 60 12 51 31 50 31 54 5 54 4
43 -22 43 -22 32 -30 31 -30 31 -62 30 -62 15 -65 14 -64 7 -82 7 -81 -16 -54
-15 -53 -43 -49 -43 -49 -73 -48 -73 -48 -57 -21 -57 -22 -90 -19 -90 -19 -70
0 -70 0 -45 11 -45 10 -45 29 -45 28 -35 7 -35 6 -35 -23 -35 -23 -19 -55 -19
-55 0 -115 1 -115 16 -110 17 -110 30 -130 29 -130 29 -98 29 -99 6 -5 5 -5
188 -9 188 -8 151 9 152 10 77 20 78 20 53 24 53 24 44 42 45 41 16 34 17 34
10 55 10 54 -11 66 -10 65 -35 68 -35 68 0 31 0 31 18 15 17 15 24 13 25 13
120 7 121 7 86 -8 86 -8 55 -21 55 -20 42 -36 42 -36 27 -52 27 -51 -1 -130 0
-130 -28 -85 -28 -85 -10 -46 -11 -45 7 -27 6 -26 21 -20 22 -20 36 -18 36
-18 165 0 165 1 100 18 100 18 85 20 85 20 90 25 90 25 2 2 2 2 -28 59 -29 60
-45 115 -45 115 -36 122 -35 122 -22 113 -23 113 0 115 -1 115 23 45 23 45 17
13 16 12 45 0 46 0 55 -21 55 -21 90 -20 90 -19 95 -1 95 0 50 13 50 12 47 23
47 24 35 30 35 31 25 51 26 52 0 92 0 92 -14 75 -15 75 -24 49 -25 48 -34 32
-33 32 -28 10 -28 11 -47 0 -47 -1 -65 -23 -65 -24 -64 -27 -64 -27 -39 5 -40
5 -20 19 -21 18 -18 41 -19 42 -10 101 -11 102 16 341 15 342 -3 1 -2 2 -165
22 -165 21 -95 10 -95 10 -110 -2 -110 -1 -25 -4z"/>
</g>
</svg>
