<?xml version="1.0" standalone="no"?>
<!DOCTYPE svg PUBLIC "-//W3C//DTD SVG 20010904//EN"
 "http://www.w3.org/TR/2001/REC-SVG-20010904/DTD/svg10.dtd">
<svg version="1.0" xmlns="http://www.w3.org/2000/svg"
 width="345.000000pt" height="282.000000pt" viewBox="0 0 345.000000 282.000000"
 preserveAspectRatio="xMidYMid meet">
<metadata>
Created by potrace 1.16, written by Peter Selinger 2001-2019
</metadata>
<g transform="translate(0.000000,282.000000) scale(0.100000,-0.100000)"
fill="#000000" stroke="none">
<path d="M40 2755 l0 -65 -16 -213 -17 -212 -1 -215 -1 -215 15 -40 15 -40 28
-3 28 -3 52 35 52 36 53 10 52 9 53 -9 52 -10 62 -30 61 -30 55 -60 55 -59 23
-58 22 -58 5 -81 4 -81 -11 -89 -12 -89 -15 -48 -16 -47 -9 6 -9 5 0 24 0 24
-19 11 -20 10 -55 0 -54 0 -30 -29 -29 -30 -21 -44 -21 -45 -30 -114 -29 -113
-32 -134 -31 -134 -30 -89 -29 -89 -30 -68 -29 -68 -36 -63 -35 -62 0 -19 0
-18 33 -5 32 -5 265 -6 265 -6 93 10 94 10 55 12 56 13 61 37 61 36 29 57 30
57 0 77 0 77 -13 63 -14 63 -18 10 -19 10 -16 24 -15 23 17 33 16 33 22 19 21
18 52 25 51 25 74 15 73 16 70 -6 70 -5 53 -16 53 -16 43 -42 44 -42 12 -45
12 -45 -5 -70 -5 -70 -36 -111 -36 -111 0 -53 0 -53 36 -33 35 -34 57 -17 57
-18 195 0 195 0 255 20 255 19 13 13 13 12 -40 128 -40 128 -26 105 -25 105
-20 120 -20 120 0 96 0 95 15 50 15 50 25 24 26 24 32 0 32 -1 65 -30 65 -31
53 -11 53 -11 54 0 54 0 53 11 53 11 50 26 50 25 47 39 48 40 37 76 38 76 -1
141 -1 140 -13 80 -12 80 -18 49 -19 48 -17 19 -17 19 -28 0 -28 0 -26 -34
-25 -33 -57 -12 -56 -11 -66 0 -66 0 -50 24 -50 23 -33 33 -33 32 -20 40 -20
40 -22 76 -21 77 1 328 2 327 -1354 0 -1355 0 0 -65z"/>
</g>
</svg>
