<?xml version="1.0" standalone="no"?>
<!DOCTYPE svg PUBLIC "-//W3C//DTD SVG 20010904//EN"
 "http://www.w3.org/TR/2001/REC-SVG-20010904/DTD/svg10.dtd">
<svg version="1.0" xmlns="http://www.w3.org/2000/svg"
 width="343.000000pt" height="280.000000pt" viewBox="0 0 343.000000 280.000000"
 preserveAspectRatio="xMidYMid meet">
<metadata>
Created by potrace 1.16, written by Peter Selinger 2001-2019
</metadata>
<g transform="translate(0.000000,280.000000) scale(0.100000,-0.100000)"
fill="#000000" stroke="none">
<path d="M40 2735 l0 -65 -16 -213 -17 -212 -1 -205 0 -205 14 -40 15 -40 18
-3 18 -4 52 36 52 36 58 10 57 11 58 -10 57 -11 62 -30 61 -30 55 -60 55 -59
23 -58 22 -58 5 -91 4 -91 -11 -89 -12 -89 -15 -48 -16 -48 -16 3 -17 3 -3 25
-3 25 -17 13 -16 12 -47 0 -47 0 -30 -29 -29 -30 -21 -44 -21 -45 -30 -114
-29 -113 -32 -135 -32 -135 -35 -105 -35 -105 -47 -95 -48 -95 -13 -22 -14
-22 8 -8 8 -8 266 -8 267 -9 115 11 115 11 54 15 54 14 56 34 56 35 29 56 29
56 0 73 0 72 -13 55 -13 54 -33 32 -34 31 0 17 0 17 16 31 16 32 22 19 21 18
52 25 51 25 74 15 73 16 80 -6 80 -5 53 -16 53 -16 43 -42 44 -42 12 -45 12
-45 -5 -80 -5 -80 -36 -111 -36 -111 0 -43 0 -43 36 -33 35 -34 57 -17 57 -18
185 0 185 0 255 20 255 19 11 10 10 10 -33 105 -34 106 -30 120 -29 120 -20
120 -20 120 0 106 0 105 15 50 15 50 26 25 26 24 41 -1 42 0 65 -31 65 -31 53
-11 53 -11 44 0 44 0 53 11 53 11 50 26 50 25 47 39 48 40 37 76 38 76 -1 131
-1 130 -13 80 -12 80 -18 49 -19 48 -17 19 -17 19 -18 0 -18 0 -26 -34 -25
-33 -57 -12 -56 -11 -76 0 -76 0 -50 24 -50 23 -33 33 -33 32 -20 40 -20 40
-22 76 -21 77 1 328 2 327 -1345 0 -1344 0 0 -65z"/>
</g>
</svg>
