<?xml version="1.0" standalone="no"?>
<!DOCTYPE svg PUBLIC "-//W3C//DTD SVG 20010904//EN"
 "http://www.w3.org/TR/2001/REC-SVG-20010904/DTD/svg10.dtd">
<svg version="1.0" xmlns="http://www.w3.org/2000/svg"
 width="350.000000pt" height="301.000000pt" viewBox="0 0 350.000000 301.000000"
 preserveAspectRatio="xMidYMid meet">
<metadata>
Created by potrace 1.16, written by Peter Selinger 2001-2019
</metadata>
<g transform="translate(0.000000,301.000000) scale(0.100000,-0.100000)"
fill="#000000" stroke="none">
<path d="M127 2793 l-6 -218 -15 -170 -16 -170 -9 -130 -9 -130 5 -32 5 -33
16 0 16 0 20 19 21 19 115 21 115 21 102 11 102 12 77 -12 77 -11 41 -19 41
-18 25 -26 25 -25 13 -16 13 -16 16 -43 15 -42 5 -102 6 -101 -32 -55 -31 -55
-33 -24 -32 -25 -52 -27 -53 -26 -62 -15 -63 -15 -70 0 -70 0 -60 14 -60 15
-77 30 -76 31 -29 0 -28 0 -31 -19 -31 -19 -16 -34 -16 -34 -12 -75 -11 -74 6
-115 7 -115 14 -105 14 -105 48 -251 48 -251 135 -2 135 -2 230 -15 230 -16
170 -2 170 -1 33 20 32 19 0 29 0 30 -20 33 -21 33 -23 93 -24 93 -7 70 -6 70
11 50 11 50 26 37 26 38 55 27 56 27 97 4 97 4 50 -16 51 -17 43 -34 44 -33
32 -60 32 -59 11 -75 11 -74 -16 -94 -16 -95 -31 -99 -31 -98 5 -46 5 -47 33
-27 32 -27 56 -12 56 -12 110 6 110 5 115 26 115 25 85 26 85 25 55 21 55 20
98 41 98 41 38 76 38 76 27 74 27 75 29 115 29 116 36 184 37 185 23 68 23 69
26 33 25 34 28 9 28 10 31 -9 32 -8 26 -35 27 -35 29 0 29 0 15 15 15 16 11
37 10 37 10 123 11 123 -10 97 -10 97 -20 58 -20 59 -29 39 -29 39 -26 20 -26
20 -42 15 -42 15 -56 0 -56 0 -44 -11 -44 -10 -74 -36 -74 -36 -23 11 -24 10
-16 49 -17 48 -5 105 -6 105 16 256 16 255 0 92 0 92 -1353 0 -1354 0 -6 -217z"/>
</g>
</svg>
