<?xml version="1.0" standalone="no"?>
<!DOCTYPE svg PUBLIC "-//W3C//DTD SVG 20010904//EN"
 "http://www.w3.org/TR/2001/REC-SVG-20010904/DTD/svg10.dtd">
<svg version="1.0" xmlns="http://www.w3.org/2000/svg"
 width="348.000000pt" height="299.000000pt" viewBox="0 0 348.000000 299.000000"
 preserveAspectRatio="xMidYMid meet">
<metadata>
Created by potrace 1.16, written by Peter Selinger 2001-2019
</metadata>
<g transform="translate(0.000000,299.000000) scale(0.100000,-0.100000)"
fill="#000000" stroke="none">
<path d="M131 2853 l-2 -138 -10 -140 -9 -140 -15 -165 -15 -166 -2 -92 -2
-92 7 -7 7 -6 23 20 22 20 111 21 111 21 111 12 111 12 81 -11 81 -12 42 -18
42 -19 25 -26 25 -25 13 -16 13 -16 16 -43 15 -42 5 -112 5 -111 -31 -55 -31
-55 -33 -24 -32 -25 -52 -27 -53 -26 -67 -16 -68 -16 -100 5 -100 4 -75 27
-75 27 -48 17 -49 16 -36 -19 -35 -20 -18 -35 -18 -35 -12 -75 -11 -75 6 -105
7 -105 20 -140 19 -140 43 -210 42 -210 30 -6 30 -7 106 -1 105 -1 230 -16
229 -16 160 -2 160 -1 33 20 32 19 0 19 0 20 -20 33 -21 33 -24 93 -23 94 -7
79 -7 80 12 50 11 50 26 37 26 38 56 27 56 28 107 3 106 4 50 -16 51 -17 43
-34 44 -33 32 -60 32 -60 11 -80 12 -79 -17 -102 -17 -102 -30 -92 -30 -92 5
-40 5 -40 32 -27 32 -27 56 -12 56 -12 100 6 100 6 115 25 115 25 85 26 85 25
55 21 55 20 98 41 98 41 36 71 36 71 23 62 23 62 25 88 25 89 46 224 45 225
21 65 20 65 25 38 25 39 35 14 35 15 37 -11 37 -10 31 -36 30 -37 25 6 26 7
11 24 11 24 11 64 12 63 1 140 0 140 -17 65 -17 65 -20 42 -20 42 -40 40 -40
39 -46 16 -47 16 -45 0 -46 0 -44 -11 -45 -10 -70 -34 -70 -35 -21 0 -21 0
-17 13 -16 12 -16 45 -16 45 -6 115 -5 115 16 256 16 255 0 82 0 82 -1344 0
-1343 0 -2 -137z"/>
</g>
</svg>
