<?xml version="1.0" standalone="no"?>
<!DOCTYPE svg PUBLIC "-//W3C//DTD SVG 20010904//EN"
 "http://www.w3.org/TR/2001/REC-SVG-20010904/DTD/svg10.dtd">
<svg version="1.0" xmlns="http://www.w3.org/2000/svg"
 width="353.000000pt" height="300.000000pt" viewBox="0 0 353.000000 300.000000"
 preserveAspectRatio="xMidYMid meet">
<metadata>
Created by potrace 1.16, written by Peter Selinger 2001-2019
</metadata>
<g transform="translate(0.000000,300.000000) scale(0.100000,-0.100000)"
fill="#000000" stroke="none">
<path d="M154 2993 l-142 -4 -7 -322 -7 -323 11 -87 12 -86 14 -42 15 -42 21
-33 21 -34 46 -28 47 -27 100 0 100 0 64 18 64 17 34 31 35 30 36 -3 36 -3 22
-33 23 -33 11 -47 11 -47 6 -195 5 -195 -15 -72 -16 -71 -25 -41 -26 -40 -22
-12 -22 -12 -42 1 -41 0 -77 41 -78 41 -38 0 -37 0 -28 -22 -28 -22 -23 -52
-23 -52 -15 -73 -15 -74 -26 -205 -26 -205 -24 -120 -23 -120 -25 -76 -24 -76
216 -6 216 -7 155 0 155 1 77 13 77 14 53 29 52 28 23 34 23 34 11 41 11 41
-5 80 -6 80 -41 130 -42 130 -5 61 -6 61 13 37 12 37 26 24 26 25 46 16 45 16
130 5 131 5 52 -22 52 -22 39 -43 40 -43 20 -41 21 -41 17 -67 17 -68 0 -135
0 -135 -18 -110 -18 -110 -25 -95 -25 -95 6 -34 5 -33 32 -29 32 -28 56 -12
56 -12 100 6 100 6 125 26 125 27 150 50 150 49 84 37 84 37 43 80 44 80 35
110 35 110 45 220 44 220 21 61 21 60 30 37 30 36 34 10 34 9 41 -9 41 -9 54
-31 54 -30 55 -6 56 -6 39 39 39 40 16 54 16 54 11 115 11 116 -7 70 -7 69
-15 46 -15 45 -27 37 -26 36 -44 22 -44 21 -47 6 -47 5 -79 -16 -79 -16 -83
-30 -83 -30 -30 0 -30 0 -39 22 -39 23 -30 50 -31 50 -19 77 -20 76 -10 96
-11 95 0 178 1 178 9 135 8 135 -3 3 -2 3 -78 -26 -78 -27 -90 -19 -89 -20
-204 -29 -203 -29 -72 -17 -72 -16 -36 -15 -36 -15 -29 -26 -28 -27 -10 -25
-9 -24 11 -48 12 -48 19 0 19 0 16 -25 17 -26 -6 -50 -6 -50 -32 -60 -32 -60
-58 -54 -58 -53 -58 -24 -58 -23 -185 0 -185 1 -43 13 -43 12 -20 20 -19 19 0
41 0 41 34 77 35 76 16 90 17 90 -4 90 -4 90 -22 42 -21 41 -36 29 -35 29 -47
17 -48 17 -70 10 -70 10 -195 -2 -195 -2 -141 -3z"/>
</g>
</svg>
