<?xml version="1.0" standalone="no"?>
<!DOCTYPE svg PUBLIC "-//W3C//DTD SVG 20010904//EN"
 "http://www.w3.org/TR/2001/REC-SVG-20010904/DTD/svg10.dtd">
<svg version="1.0" xmlns="http://www.w3.org/2000/svg"
 width="355.000000pt" height="302.000000pt" viewBox="0 0 355.000000 302.000000"
 preserveAspectRatio="xMidYMid meet">
<metadata>
Created by potrace 1.16, written by Peter Selinger 2001-2019
</metadata>
<g transform="translate(0.000000,302.000000) scale(0.100000,-0.100000)"
fill="#000000" stroke="none">
<path d="M154 3013 l-142 -4 -7 -323 -7 -322 7 -75 7 -74 15 -55 14 -55 25
-42 25 -42 47 -28 47 -28 110 0 110 0 64 18 64 17 34 31 35 30 26 -3 26 -3 22
-33 22 -33 12 -52 12 -52 5 -171 5 -172 -11 -68 -12 -69 -22 -44 -22 -43 -24
-19 -24 -19 -39 0 -39 0 -75 40 -76 40 -48 0 -47 0 -28 -22 -28 -22 -23 -52
-23 -52 -15 -73 -15 -74 -26 -205 -26 -205 -20 -105 -20 -105 -30 -99 -30 -98
3 -4 4 -3 374 -7 375 -6 82 15 82 15 53 29 52 28 23 34 23 34 11 41 11 41 -5
90 -5 90 -42 130 -42 130 -5 51 -6 51 13 37 12 37 26 24 26 25 46 16 45 16
120 5 120 6 52 -23 53 -22 39 -43 40 -43 20 -41 21 -41 17 -67 17 -68 -1 -130
0 -130 -17 -100 -16 -100 -26 -103 -26 -104 5 -40 5 -40 32 -28 33 -29 56 -12
56 -12 110 6 110 6 125 26 125 27 150 50 150 49 84 37 84 37 43 80 44 80 35
110 35 110 45 220 44 220 22 63 21 64 38 39 37 39 45 0 45 0 68 -36 69 -37 63
-5 63 -5 39 39 39 40 16 54 16 54 11 115 11 116 -6 78 -7 78 -15 47 -16 47
-27 37 -26 36 -45 22 -44 22 -52 5 -51 6 -69 -12 -69 -12 -99 -35 -100 -34
-18 0 -19 0 -39 22 -39 23 -30 50 -31 50 -19 78 -20 77 -12 107 -12 108 6 250
7 250 6 53 7 52 -16 0 -17 0 -76 -26 -77 -26 -90 -19 -89 -20 -204 -29 -203
-29 -72 -17 -72 -16 -36 -15 -36 -15 -32 -30 -32 -31 -6 -29 -7 -29 12 -49 12
-50 19 0 19 0 16 -25 17 -25 -7 -42 -7 -42 -31 -58 -31 -59 -58 -54 -58 -53
-58 -24 -58 -23 -175 1 -175 0 -43 13 -43 12 -20 20 -19 19 0 31 0 31 34 77
35 76 16 90 17 90 -4 100 -4 100 -22 42 -21 41 -36 29 -35 29 -47 17 -48 17
-70 10 -70 10 -205 -2 -205 -2 -141 -3z"/>
</g>
</svg>
