<?xml version="1.0" standalone="no"?>
<!DOCTYPE svg PUBLIC "-//W3C//DTD SVG 20010904//EN"
 "http://www.w3.org/TR/2001/REC-SVG-20010904/DTD/svg10.dtd">
<svg version="1.0" xmlns="http://www.w3.org/2000/svg"
 width="362.000000pt" height="373.000000pt" viewBox="0 0 362.000000 373.000000"
 preserveAspectRatio="xMidYMid meet">
<metadata>
Created by potrace 1.16, written by Peter Selinger 2001-2019
</metadata>
<g transform="translate(0.000000,373.000000) scale(0.100000,-0.100000)"
fill="#000000" stroke="none">
<path d="M2050 3723 l-25 -4 -45 -15 -45 -14 -27 -25 -26 -24 -12 -37 -12 -37
5 -71 5 -71 41 -129 41 -128 6 -72 6 -71 -11 -41 -11 -41 -23 -34 -23 -34 -52
-28 -53 -29 -82 -15 -82 -15 -368 7 -367 6 -7 -17 -7 -18 13 -276 13 -275 5
-126 6 -126 -7 -47 -7 -46 -23 -27 -23 -27 -64 31 -64 30 -50 16 -50 16 -59
10 -60 11 -75 0 -76 0 -50 -14 -50 -13 -40 -20 -40 -21 -43 -43 -43 -44 -29
-60 -28 -60 -12 -60 -13 -60 -1 -90 0 -90 23 -45 24 -45 52 -50 52 -50 79 -41
79 -42 78 -26 78 -26 86 -16 86 -16 109 4 110 3 22 26 23 27 21 11 21 11 29 0
30 0 30 -34 30 -35 12 -58 12 -58 -6 -89 -7 -89 -15 -77 -14 -78 -35 -127 -35
-127 -51 -129 -50 -129 6 -10 6 -10 86 0 86 0 271 -16 271 -16 110 5 110 6 38
11 38 11 21 21 20 20 -4 57 -4 57 -30 44 -31 45 -11 34 -12 34 0 66 0 67 15
59 16 59 30 63 30 63 55 60 55 59 61 31 61 30 55 0 56 0 43 -21 43 -21 41 -46
41 -47 23 -45 23 -45 16 -54 16 -55 0 -50 0 -51 -21 -40 -20 -40 -20 -35 -19
-35 0 -60 0 -61 16 -22 15 -22 39 -20 40 -20 62 -14 63 -14 65 -6 65 -6 308
-10 307 -10 71 -10 70 -10 15 14 14 15 -15 56 -14 56 -11 77 -10 77 -20 237
-20 237 -15 72 -15 71 -28 49 -27 49 -34 16 -34 16 -50 -6 -50 -5 -36 -25 -36
-25 -39 -16 -40 -17 -40 6 -40 7 -41 18 -40 18 -46 41 -46 41 -35 68 -36 68
-10 50 -11 50 -5 45 -6 45 10 83 9 83 23 41 23 41 35 19 35 18 63 0 64 0 62
-16 61 -15 93 -30 92 -29 58 0 58 0 46 29 46 29 26 54 26 53 17 80 16 80 -3
310 -4 310 0 118 -1 117 -12 0 -12 0 -33 -19 -33 -20 -100 -39 -100 -40 -114
-36 -114 -36 -121 -25 -120 -26 -91 -6 -90 -6 -56 12 -56 12 -31 27 -30 27 -7
26 -6 25 24 94 25 95 18 110 18 110 0 145 0 145 -17 68 -17 67 -20 41 -21 40
-37 41 -37 41 -50 23 -50 24 -120 -1 -120 -2 -25 -4z"/>
</g>
</svg>
