<?xml version="1.0" standalone="no"?>
<!DOCTYPE svg PUBLIC "-//W3C//DTD SVG 20010904//EN"
 "http://www.w3.org/TR/2001/REC-SVG-20010904/DTD/svg10.dtd">
<svg version="1.0" xmlns="http://www.w3.org/2000/svg"
 width="360.000000pt" height="371.000000pt" viewBox="0 0 360.000000 371.000000"
 preserveAspectRatio="xMidYMid meet">
<metadata>
Created by potrace 1.16, written by Peter Selinger 2001-2019
</metadata>
<g transform="translate(0.000000,371.000000) scale(0.100000,-0.100000)"
fill="#000000" stroke="none">
<path d="M2050 3703 l-25 -4 -45 -15 -45 -14 -27 -25 -26 -24 -12 -37 -13 -37
6 -61 5 -61 42 -130 41 -130 6 -80 5 -80 -11 -41 -11 -41 -23 -34 -23 -34 -52
-28 -53 -29 -82 -15 -82 -15 -368 7 -367 6 -7 -17 -6 -17 14 -291 14 -291 0
-152 0 -152 -21 -28 -21 -28 -17 -3 -17 -4 -62 30 -62 29 -50 16 -50 16 -59
10 -60 11 -65 0 -66 0 -50 -14 -50 -13 -40 -20 -40 -21 -43 -43 -43 -44 -29
-60 -28 -60 -12 -60 -13 -60 0 -80 -1 -80 23 -45 24 -45 52 -50 52 -50 79 -41
79 -42 78 -26 78 -26 86 -16 86 -16 99 4 100 3 22 26 23 27 21 11 21 11 39 0
40 0 30 -34 30 -35 12 -58 13 -58 -7 -99 -6 -99 -20 -98 -20 -98 -34 -119 -35
-119 -44 -111 -45 -111 6 -5 5 -6 85 0 85 0 271 -16 271 -16 100 5 100 6 38
11 38 11 21 21 20 20 -4 47 -5 48 -30 44 -30 44 -11 34 -12 34 0 76 0 77 15
59 16 59 30 63 30 63 55 60 56 60 62 30 63 31 60 1 61 1 46 -22 46 -23 41 -46
41 -47 23 -45 23 -45 16 -54 16 -55 0 -60 0 -61 -21 -40 -20 -40 -20 -35 -19
-35 0 -50 0 -51 16 -22 15 -22 39 -20 40 -20 62 -14 63 -14 65 -6 65 -6 310
-10 310 -11 59 -8 60 -8 11 10 11 11 -13 49 -12 48 -11 77 -10 77 -20 237 -20
237 -15 72 -15 71 -28 49 -27 49 -34 16 -33 16 -43 -6 -42 -7 -33 -24 -33 -25
-44 -16 -43 -17 -46 7 -46 6 -41 19 -42 18 -46 41 -46 41 -35 68 -36 68 -10
50 -11 50 -6 50 -6 50 10 88 10 88 23 41 23 41 38 20 38 19 68 0 69 -1 63 -16
64 -16 93 -30 92 -29 48 0 48 0 46 29 46 29 26 54 26 53 17 80 16 80 -3 300
-4 300 0 118 -1 117 -2 0 -2 0 -33 -19 -33 -20 -100 -39 -100 -40 -114 -36
-114 -36 -121 -26 -121 -25 -100 -6 -100 -6 -56 12 -56 12 -32 28 -32 29 -5
33 -6 34 25 95 25 95 18 110 18 110 0 135 0 135 -17 68 -17 67 -20 41 -21 40
-37 41 -37 41 -50 23 -50 24 -110 -1 -110 -2 -25 -4z"/>
</g>
</svg>
