<?xml version="1.0" standalone="no"?>
<!DOCTYPE svg PUBLIC "-//W3C//DTD SVG 20010904//EN"
 "http://www.w3.org/TR/2001/REC-SVG-20010904/DTD/svg10.dtd">
<svg version="1.0" xmlns="http://www.w3.org/2000/svg"
 width="365.000000pt" height="362.000000pt" viewBox="0 0 365.000000 362.000000"
 preserveAspectRatio="xMidYMid meet">
<metadata>
Created by potrace 1.16, written by Peter Selinger 2001-2019
</metadata>
<g transform="translate(0.000000,362.000000) scale(0.100000,-0.100000)"
fill="#000000" stroke="none">
<path d="M1440 3609 l-45 -9 -62 -30 -61 -30 -33 -37 -32 -37 -26 -56 -26 -55
0 -145 0 -145 24 -90 23 -89 21 -42 20 -43 -16 -25 -17 -25 -37 -11 -38 -11
-110 -5 -110 -6 -301 21 -302 21 -51 0 -51 0 0 -102 0 -103 -16 -245 -16 -245
-1 -145 -1 -145 17 -37 16 -38 28 0 28 0 70 35 70 36 79 15 79 16 70 -11 70
-12 51 -24 51 -24 40 -40 41 -39 27 -55 26 -54 10 -44 11 -44 0 -44 0 -44 -12
-40 -12 -40 -55 -59 -54 -59 -81 -39 -81 -39 -60 -15 -60 -15 -65 -7 -66 -6
-59 12 -60 12 -64 34 -64 34 -40 0 -40 0 -32 -34 -32 -35 -12 -45 -11 -45 0
-93 0 -93 15 -100 15 -100 40 -152 39 -152 47 -128 46 -128 9 -11 9 -12 253
-7 252 -6 110 10 111 11 59 15 60 16 51 23 51 24 41 37 41 37 27 55 26 56 5
78 6 77 -13 82 -13 82 -33 20 -34 20 0 20 0 20 30 28 31 29 54 20 53 20 68 12
67 12 76 -6 76 -5 50 -19 50 -18 23 -35 24 -35 -4 -55 -5 -55 -37 -77 -38 -77
0 -46 -1 -45 13 -25 13 -25 46 -27 45 -26 71 -19 70 -19 250 -35 250 -35 118
-25 118 -25 87 -28 87 -29 28 32 29 31 48 100 49 100 30 105 29 105 41 170 40
171 20 45 20 46 20 25 20 25 30 13 31 12 36 -7 36 -6 39 -40 38 -39 14 0 14 0
26 20 26 20 20 56 21 55 11 47 10 46 9 126 9 125 -11 48 -10 48 -32 42 -32 42
-54 33 -55 33 -55 16 -55 16 -95 -1 -96 -1 -69 -22 -70 -21 -42 -24 -42 -24
-15 0 -15 0 -12 23 -13 22 -4 110 -4 110 21 360 21 361 0 96 0 96 -32 12 -33
12 -78 23 -78 24 -122 25 -122 25 -215 31 -215 31 -85 20 -85 20 -48 30 -48
30 -16 37 -15 37 11 51 12 52 14 6 15 5 20 33 20 33 0 45 0 45 -29 60 -29 60
-43 42 -44 42 -37 16 -37 15 -53 -1 -53 -1 -45 -9z"/>
</g>
</svg>
