<?xml version="1.0" standalone="no"?>
<!DOCTYPE svg PUBLIC "-//W3C//DTD SVG 20010904//EN"
 "http://www.w3.org/TR/2001/REC-SVG-20010904/DTD/svg10.dtd">
<svg version="1.0" xmlns="http://www.w3.org/2000/svg"
 width="367.000000pt" height="364.000000pt" viewBox="0 0 367.000000 364.000000"
 preserveAspectRatio="xMidYMid meet">
<metadata>
Created by potrace 1.16, written by Peter Selinger 2001-2019
</metadata>
<g transform="translate(0.000000,364.000000) scale(0.100000,-0.100000)"
fill="#000000" stroke="none">
<path d="M1440 3629 l-45 -9 -62 -30 -61 -30 -33 -37 -32 -37 -26 -56 -26 -55
0 -155 0 -155 24 -90 23 -90 19 -36 18 -36 -15 -21 -15 -21 -37 -11 -37 -11
-100 -5 -100 -6 -301 21 -302 21 -61 0 -61 0 0 -102 0 -103 -16 -245 -16 -245
-1 -155 -1 -155 16 -37 17 -38 38 0 38 0 70 35 70 35 75 16 75 15 64 -11 65
-11 50 -24 51 -24 40 -40 41 -39 27 -55 26 -54 10 -44 11 -44 0 -34 0 -34 -12
-40 -12 -40 -55 -59 -54 -59 -81 -39 -81 -39 -60 -15 -60 -15 -56 -6 -56 -7
-59 12 -59 12 -64 34 -64 34 -50 0 -50 0 -32 -34 -32 -35 -12 -45 -11 -45 0
-103 0 -103 15 -100 15 -100 40 -152 39 -152 47 -128 46 -128 9 -11 10 -12
262 -7 262 -7 110 11 111 11 59 15 60 16 51 23 51 24 41 37 41 37 27 56 26 56
6 84 5 84 -13 85 -12 85 -34 20 -34 20 0 10 0 10 30 28 31 29 54 20 53 20 68
12 67 12 66 -6 66 -5 50 -19 50 -18 23 -35 24 -35 -5 -45 -4 -45 -38 -78 -38
-79 -1 -53 0 -53 14 -26 13 -26 46 -27 45 -26 71 -19 70 -19 250 -35 250 -35
115 -24 115 -25 98 -31 98 -31 30 33 31 34 48 100 49 100 30 105 29 105 41
172 41 173 17 37 17 38 19 28 19 27 30 16 29 15 31 -6 31 -7 38 -39 38 -39 24
0 24 0 26 20 26 20 20 56 21 55 11 47 10 46 9 133 10 132 -11 51 -11 51 -32
42 -32 42 -54 33 -55 33 -55 16 -55 16 -105 -1 -105 -1 -70 -21 -70 -22 -43
-25 -44 -25 -10 10 -10 10 -9 38 -9 39 0 90 0 90 20 340 20 340 0 112 0 111
-32 12 -33 12 -78 23 -78 24 -122 25 -122 25 -215 31 -215 31 -85 20 -85 20
-48 30 -48 30 -15 35 -15 35 12 42 11 42 19 13 19 13 15 29 15 29 0 53 0 53
-29 60 -29 60 -43 42 -44 42 -37 16 -37 15 -63 -1 -63 -1 -45 -9z"/>
</g>
</svg>
