<?xml version="1.0" standalone="no"?>
<!DOCTYPE svg PUBLIC "-//W3C//DTD SVG 20010904//EN"
 "http://www.w3.org/TR/2001/REC-SVG-20010904/DTD/svg10.dtd">
<svg version="1.0" xmlns="http://www.w3.org/2000/svg"
 width="346.000000pt" height="433.000000pt" viewBox="0 0 346.000000 433.000000"
 preserveAspectRatio="xMidYMid meet">
<metadata>
Created by potrace 1.16, written by Peter Selinger 2001-2019
</metadata>
<g transform="translate(0.000000,433.000000) scale(0.100000,-0.100000)"
fill="#000000" stroke="none">
<path d="M1305 4318 l-30 -11 -42 -29 -42 -29 -25 -32 -24 -32 -22 -44 -22
-45 -5 -56 -6 -57 13 -37 12 -37 23 -27 22 -27 12 -54 12 -55 -7 -43 -6 -44
-22 -31 -21 -32 -43 -33 -43 -32 -77 -25 -77 -24 -89 -11 -89 -12 -201 0 -201
0 -131 7 -132 7 -6 -114 -6 -114 -16 -325 -16 -325 6 -90 7 -90 10 -38 10 -38
20 -20 19 -19 24 0 24 0 74 39 73 39 63 13 63 12 72 -12 72 -11 60 -30 60 -29
35 -30 36 -29 29 -53 30 -54 -2 -81 -1 -81 -16 -61 -16 -62 -26 -52 -26 -51
-49 -53 -50 -52 -52 -23 -52 -22 -62 -1 -62 0 -74 37 -73 38 -37 6 -37 6 -28
-12 -29 -12 -21 -28 -20 -28 -17 -54 -16 -54 -6 -118 -6 -117 13 -228 12 -227
2 -52 1 -51 340 5 340 5 73 -15 73 -16 51 -28 52 -28 31 -49 30 -49 4 -76 3
-75 -12 -70 -13 -70 -33 -30 -34 -30 0 -26 0 -27 19 -25 20 -25 63 -31 63 -31
83 -16 83 -17 117 3 117 4 67 33 66 32 49 45 50 44 32 61 33 61 5 52 5 53 -16
31 -16 32 -19 6 -20 6 -7 32 -7 32 1 28 1 29 16 25 17 25 51 23 52 24 65 11
65 11 370 9 370 8 1 1 1 1 -23 116 -24 117 -20 136 -19 136 -7 105 -6 105 11
73 11 74 20 38 20 39 22 15 22 16 29 0 29 0 80 -36 80 -36 54 -7 54 -8 54 8
54 7 38 18 39 18 14 11 14 10 43 42 42 42 30 63 30 63 12 54 13 53 1 82 1 81
-22 40 -21 41 -47 43 -46 43 -56 25 -55 25 -51 14 -52 14 -76 0 -76 0 -47 -14
-46 -14 -50 -32 -49 -32 -18 4 -18 3 -14 40 -14 40 0 160 0 160 16 275 17 275
3 101 3 101 -11 1 -10 1 -49 10 -48 11 -317 15 -316 15 -66 14 -67 15 -41 21
-42 21 -20 32 -20 32 5 46 5 45 37 73 38 72 0 67 -1 67 -22 57 -22 57 -46 51
-45 51 -45 25 -44 26 -60 19 -61 19 -66 -1 -67 -1 -30 -10z"/>
</g>
</svg>
