<?xml version="1.0" standalone="no"?>
<!DOCTYPE svg PUBLIC "-//W3C//DTD SVG 20010904//EN"
 "http://www.w3.org/TR/2001/REC-SVG-20010904/DTD/svg10.dtd">
<svg version="1.0" xmlns="http://www.w3.org/2000/svg"
 width="348.000000pt" height="435.000000pt" viewBox="0 0 348.000000 435.000000"
 preserveAspectRatio="xMidYMid meet">
<metadata>
Created by potrace 1.16, written by Peter Selinger 2001-2019
</metadata>
<g transform="translate(0.000000,435.000000) scale(0.100000,-0.100000)"
fill="#000000" stroke="none">
<path d="M1304 4338 l-32 -10 -48 -37 -49 -37 -33 -54 -32 -55 -10 -35 -10
-35 0 -53 0 -53 15 -37 16 -37 18 -20 19 -20 11 -55 11 -55 -9 -39 -10 -39
-19 -26 -19 -26 -42 -32 -42 -32 -77 -25 -77 -24 -100 -13 -100 -12 -321 6
-322 6 -6 -112 -6 -112 -16 -330 -16 -330 6 -95 7 -95 10 -38 10 -38 20 -20
19 -19 34 0 34 0 74 39 73 39 58 12 59 12 66 -11 67 -12 60 -29 60 -29 35 -30
36 -29 29 -53 29 -54 -1 -72 -2 -72 -15 -61 -16 -60 -26 -52 -26 -51 -49 -53
-50 -52 -52 -22 -52 -23 -53 0 -53 0 -74 38 -74 37 -45 5 -46 6 -28 -12 -29
-12 -21 -28 -20 -28 -17 -54 -17 -54 -5 -137 -6 -137 12 -203 12 -203 1 -67 1
-67 341 6 341 5 73 -15 73 -16 51 -28 52 -28 30 -49 30 -48 4 -66 5 -66 -13
-70 -13 -70 -33 -30 -34 -30 0 -36 0 -37 19 -25 20 -25 63 -31 63 -31 83 -16
83 -17 127 4 127 3 67 33 66 32 49 45 50 44 33 62 33 61 4 62 5 62 -16 31 -16
32 -19 6 -19 6 -6 22 -6 22 0 31 0 31 20 25 19 25 49 21 48 21 65 11 64 11
367 8 367 7 6 5 5 6 -25 122 -25 123 -19 136 -20 137 -7 95 -6 95 11 73 11 74
20 38 20 39 22 15 22 16 19 0 19 0 80 -36 79 -36 60 -8 59 -8 59 8 59 8 39 18
38 18 14 11 14 10 43 42 42 42 30 63 30 63 12 55 13 54 1 91 1 90 -22 40 -21
41 -47 43 -46 43 -56 25 -55 25 -51 14 -52 14 -86 0 -86 0 -47 -14 -46 -14
-50 -32 -49 -32 -10 7 -10 6 -13 42 -12 42 1 150 0 150 16 265 16 265 4 117 4
116 -62 11 -62 11 -314 15 -314 15 -66 14 -67 15 -41 21 -42 21 -20 32 -20 32
6 37 5 37 37 72 38 71 -1 77 -1 76 -22 57 -22 57 -46 51 -45 51 -45 25 -44 26
-60 19 -61 19 -76 -1 -77 -1 -31 -10z"/>
</g>
</svg>
