<?xml version="1.0" standalone="no"?>
<!DOCTYPE svg PUBLIC "-//W3C//DTD SVG 20010904//EN"
 "http://www.w3.org/TR/2001/REC-SVG-20010904/DTD/svg10.dtd">
<svg version="1.0" xmlns="http://www.w3.org/2000/svg"
 width="348.000000pt" height="443.000000pt" viewBox="0 0 348.000000 443.000000"
 preserveAspectRatio="xMidYMid meet">
<metadata>
Created by potrace 1.16, written by Peter Selinger 2001-2019
</metadata>
<g transform="translate(0.000000,443.000000) scale(0.100000,-0.100000)"
fill="#000000" stroke="none">
<path d="M1964 4420 l-61 -8 -38 -17 -39 -16 -33 -25 -33 -25 -24 -47 -24 -48
-13 -63 -12 -63 6 -136 5 -137 21 -135 22 -135 14 -32 14 -32 -7 -5 -8 -4
-134 18 -135 19 -165 16 -165 16 -196 5 -195 5 3 -63 4 -63 15 -198 15 -199 8
-164 8 -164 -8 -81 -8 -80 -12 -15 -12 -15 -16 14 -16 14 -50 16 -50 16 -83
17 -84 16 -106 -4 -107 -4 -61 -28 -62 -28 -35 -36 -36 -37 -26 -56 -25 -56
-11 -59 -11 -59 5 -75 5 -75 18 -45 18 -45 23 -34 23 -34 29 -28 30 -28 43
-22 43 -22 55 -1 56 -1 54 39 55 39 47 5 48 5 35 -37 35 -37 20 -67 19 -67 10
-80 11 -80 15 -205 15 -205 11 -84 10 -84 14 -75 15 -75 -5 -7 -5 -8 12 -4 12
-4 51 8 50 9 235 2 235 1 65 -12 65 -13 71 -25 70 -25 37 -30 38 -31 21 -41
22 -42 0 -65 -1 -65 -37 -93 -36 -93 -7 -44 -6 -43 7 -37 7 -37 35 -35 35 -34
42 -19 42 -18 65 -13 65 -12 145 0 145 0 60 17 59 18 38 19 37 19 36 35 35 36
24 47 24 47 11 53 11 53 0 72 0 72 -15 90 -14 91 -26 87 -25 87 0 34 0 33 20
26 20 25 48 19 47 18 110 -1 110 -1 112 -22 111 -21 128 -41 128 -41 54 -24
54 -24 15 0 16 0 -7 33 -7 32 -14 100 -14 100 -16 240 -16 240 -10 80 -10 80
-15 55 -16 55 -19 31 -19 31 -33 18 -34 18 -48 -7 -48 -8 -26 -28 -26 -27 -22
-12 -22 -11 -34 0 -34 0 -61 30 -60 31 -36 39 -35 39 -28 53 -27 53 -4 121 -4
120 15 80 15 79 23 60 22 60 42 43 42 42 22 0 21 0 38 -34 38 -35 88 -17 87
-17 59 11 59 11 46 31 45 31 24 42 24 42 16 55 17 55 9 120 10 120 -9 223 -10
224 -4 5 -5 4 -53 14 -54 15 -125 20 -125 20 -253 25 -252 25 -71 15 -70 14
-55 26 -54 25 -16 33 -17 32 1 41 0 41 38 73 39 73 3 68 4 67 -25 55 -24 54
-38 38 -38 38 -46 20 -46 20 -75 3 -75 3 -61 -9z"/>
</g>
</svg>
