<?xml version="1.0" standalone="no"?>
<!DOCTYPE svg PUBLIC "-//W3C//DTD SVG 20010904//EN"
 "http://www.w3.org/TR/2001/REC-SVG-20010904/DTD/svg10.dtd">
<svg version="1.0" xmlns="http://www.w3.org/2000/svg"
 width="350.000000pt" height="445.000000pt" viewBox="0 0 350.000000 445.000000"
 preserveAspectRatio="xMidYMid meet">
<metadata>
Created by potrace 1.16, written by Peter Selinger 2001-2019
</metadata>
<g transform="translate(0.000000,445.000000) scale(0.100000,-0.100000)"
fill="#000000" stroke="none">
<path d="M1964 4440 l-61 -8 -38 -17 -39 -16 -33 -25 -33 -25 -24 -47 -24 -48
-13 -63 -12 -63 7 -157 6 -156 24 -135 23 -135 7 -16 7 -15 -128 17 -128 18
-165 16 -165 16 -207 6 -207 6 5 -69 5 -69 20 -269 20 -270 0 -140 1 -141 -7
-30 -8 -30 -3 -7 -4 -6 -29 14 -28 14 -84 22 -84 22 -150 1 -150 0 -61 -28
-62 -29 -35 -36 -36 -37 -26 -56 -25 -56 -11 -59 -11 -59 5 -85 5 -85 18 -45
18 -45 23 -34 23 -34 29 -28 30 -28 43 -22 43 -23 65 0 66 -1 53 39 54 38 39
5 38 6 35 -37 35 -37 20 -67 19 -67 10 -80 10 -80 11 -145 11 -145 10 -110 10
-110 16 -90 15 -90 0 -27 -1 -26 14 -6 14 -5 63 10 63 11 220 1 220 1 65 -12
65 -13 71 -25 70 -25 37 -30 38 -31 21 -41 22 -42 -1 -55 0 -55 -38 -95 -37
-94 -5 -52 -6 -52 7 -37 7 -37 35 -35 35 -34 42 -19 42 -18 65 -13 65 -12 155
0 155 -1 60 18 59 18 38 19 37 19 36 35 35 36 24 47 24 47 11 53 11 53 0 82 0
82 -15 90 -14 91 -26 87 -25 87 0 24 0 23 20 26 20 25 48 19 47 18 100 -1 100
-1 112 -22 111 -21 128 -41 128 -41 54 -24 54 -24 26 0 25 0 -6 38 -6 37 -15
105 -15 105 -16 240 -16 240 -10 80 -10 80 -15 55 -16 55 -18 30 -19 30 -29
17 -30 18 -34 0 -33 0 -37 -10 -38 -11 -10 -19 -11 -20 -29 -15 -29 -15 -24 0
-24 0 -61 30 -60 31 -36 39 -35 39 -28 53 -27 53 -4 111 -4 110 15 80 15 79
23 60 22 60 42 43 42 42 12 0 11 0 38 -34 37 -34 77 -16 77 -16 38 0 38 0 44
11 43 10 44 30 44 30 24 42 24 42 16 55 17 55 9 121 10 121 -9 232 -10 233 -4
5 -5 4 -53 14 -54 15 -125 20 -125 20 -253 25 -252 25 -71 15 -70 14 -55 26
-54 25 -15 30 -15 29 0 36 0 36 38 71 37 72 4 77 3 78 -25 54 -24 54 -38 38
-38 38 -46 20 -46 21 -85 2 -85 3 -61 -9z"/>
</g>
</svg>
