<?xml version="1.0" standalone="no"?>
<!DOCTYPE svg PUBLIC "-//W3C//DTD SVG 20010904//EN"
 "http://www.w3.org/TR/2001/REC-SVG-20010904/DTD/svg10.dtd">
<svg version="1.0" xmlns="http://www.w3.org/2000/svg"
 width="290.000000pt" height="433.000000pt" viewBox="0 0 290.000000 433.000000"
 preserveAspectRatio="xMidYMid meet">
<metadata>
Created by potrace 1.16, written by Peter Selinger 2001-2019
</metadata>
<g transform="translate(0.000000,433.000000) scale(0.100000,-0.100000)"
fill="#000000" stroke="none">
<path d="M1327 4316 l-38 -14 -38 -25 -39 -26 -35 -43 -36 -44 -22 -49 -22
-50 -1 -90 -1 -90 43 -78 42 -79 0 -46 0 -47 -20 -32 -19 -32 -48 -24 -48 -25
-60 -13 -60 -13 -195 0 -195 -1 -227 9 -228 9 -4 -14 -4 -14 -21 -285 -22
-285 -11 -155 -10 -155 8 -55 9 -55 27 -3 27 -3 28 20 28 19 100 23 100 23
106 1 105 0 60 -30 59 -30 32 -49 33 -48 16 -51 16 -52 5 -111 6 -111 -26 -57
-26 -56 -51 -50 -51 -49 -83 -42 -84 -41 -65 -5 -66 -6 -40 40 -39 40 -44 7
-43 6 -30 -8 -30 -8 -32 -42 -31 -42 -13 -57 -12 -58 1 -170 0 -170 21 -196
21 -196 11 -102 12 -103 21 7 21 6 295 6 295 6 86 -12 86 -11 57 -15 58 -15
55 -26 54 -26 35 -34 34 -35 21 -41 22 -42 5 -61 4 -60 -11 -57 -12 -56 -21
-18 -20 -19 -14 -27 -14 -27 0 -26 0 -26 15 -28 14 -29 43 -20 43 -21 63 -12
62 -12 73 5 72 5 47 20 46 21 50 50 50 51 26 44 26 44 20 59 21 59 6 72 6 71
-12 49 -13 48 -25 33 -25 33 -8 31 -9 30 14 34 13 33 40 20 39 20 69 12 68 12
111 -7 110 -6 135 -20 135 -20 163 -31 163 -31 5 4 5 5 39 234 39 234 16 145
17 145 -5 155 -4 155 -12 37 -12 38 -28 31 -28 31 -41 5 -40 5 -98 -30 -99
-31 -90 -17 -90 -16 -90 5 -90 5 -50 17 -50 17 -43 30 -42 29 -30 52 -30 52 0
48 0 48 16 37 15 37 32 33 32 34 39 20 39 20 38 13 39 14 78 11 79 11 94 -11
94 -11 90 -20 90 -21 31 -19 31 -19 12 0 12 0 16 15 15 16 9 37 9 37 -1 125 0
125 -9 130 -9 130 -16 285 -17 285 -7 15 -8 15 -70 27 -69 27 -116 30 -115 30
-275 45 -276 46 -57 20 -57 20 -34 21 -34 21 -15 21 -15 21 0 38 0 37 10 25
10 26 14 0 15 0 15 16 16 15 0 48 0 47 -25 51 -26 51 -50 47 -49 46 -43 19
-42 20 -60 -1 -60 0 -38 -13z"/>
</g>
</svg>
