<?xml version="1.0" standalone="no"?>
<!DOCTYPE svg PUBLIC "-//W3C//DTD SVG 20010904//EN"
 "http://www.w3.org/TR/2001/REC-SVG-20010904/DTD/svg10.dtd">
<svg version="1.0" xmlns="http://www.w3.org/2000/svg"
 width="288.000000pt" height="431.000000pt" viewBox="0 0 288.000000 431.000000"
 preserveAspectRatio="xMidYMid meet">
<metadata>
Created by potrace 1.16, written by Peter Selinger 2001-2019
</metadata>
<g transform="translate(0.000000,431.000000) scale(0.100000,-0.100000)"
fill="#000000" stroke="none">
<path d="M1327 4296 l-38 -14 -38 -25 -39 -26 -35 -43 -36 -44 -22 -49 -22
-50 -1 -80 -1 -80 43 -78 42 -79 0 -56 0 -57 -20 -32 -19 -32 -48 -24 -48 -25
-60 -13 -60 -13 -205 -1 -205 0 -217 9 -218 8 -4 -13 -4 -14 -21 -285 -22
-285 -11 -146 -10 -145 9 -55 8 -54 17 -3 17 -3 28 20 28 19 100 23 100 23
116 1 115 0 60 -30 59 -30 32 -49 33 -48 16 -51 16 -52 5 -121 6 -122 -26 -56
-26 -56 -51 -50 -51 -49 -84 -42 -84 -42 -76 -5 -75 -5 -35 38 -36 37 -38 9
-37 8 -30 -8 -29 -7 -32 -42 -31 -42 -13 -57 -12 -58 1 -160 1 -160 20 -196
21 -196 11 -99 11 -99 82 7 81 6 250 1 250 1 70 -10 70 -10 58 -15 58 -15 55
-26 55 -26 35 -34 34 -35 22 -42 21 -42 5 -71 4 -71 -11 -53 -11 -53 -30 -34
-30 -33 -6 -25 -6 -25 12 -30 12 -30 32 -20 33 -19 69 -17 69 -16 70 4 70 5
47 20 46 21 50 50 50 51 26 44 26 44 20 58 20 59 6 65 6 66 -12 45 -12 44 -28
41 -28 40 -7 31 -6 32 15 35 14 36 40 20 39 20 69 12 69 12 120 -6 120 -7 140
-20 140 -21 149 -29 150 -30 3 4 4 3 39 234 39 234 16 145 17 145 -5 145 -5
145 -11 37 -12 38 -27 30 -28 30 -31 6 -31 6 -99 -31 -98 -30 -90 -17 -90 -16
-100 5 -100 5 -50 17 -50 17 -45 32 -45 33 -28 51 -28 51 0 53 -1 54 16 39 17
40 32 33 32 34 39 20 39 20 39 14 39 13 83 11 83 11 99 -11 99 -11 90 -20 90
-21 32 -20 33 -20 16 17 16 16 9 37 9 37 -1 115 0 115 -9 130 -9 130 -16 285
-17 285 -7 15 -8 15 -70 27 -69 27 -116 30 -115 30 -275 45 -276 46 -57 20
-57 20 -34 21 -34 21 -15 21 -15 21 0 48 0 47 10 25 10 26 14 0 15 0 15 16 16
15 0 38 0 37 -25 51 -26 51 -50 47 -49 46 -43 19 -42 20 -50 -1 -50 0 -38 -13z"/>
</g>
</svg>
