<?xml version="1.0" standalone="no"?>
<!DOCTYPE svg PUBLIC "-//W3C//DTD SVG 20010904//EN"
 "http://www.w3.org/TR/2001/REC-SVG-20010904/DTD/svg10.dtd">
<svg version="1.0" xmlns="http://www.w3.org/2000/svg"
 width="349.000000pt" height="434.000000pt" viewBox="0 0 349.000000 434.000000"
 preserveAspectRatio="xMidYMid meet">
<metadata>
Created by potrace 1.16, written by Peter Selinger 2001-2019
</metadata>
<g transform="translate(0.000000,434.000000) scale(0.100000,-0.100000)"
fill="#000000" stroke="none">
<path d="M2031 4324 l-44 -16 -37 -23 -37 -23 -40 -46 -40 -45 -30 -63 -31
-63 -13 -55 -13 -55 1 -80 1 -80 16 -45 17 -45 24 -37 25 -38 0 -14 0 -14 -32
-13 -33 -14 -225 1 -225 1 -243 22 -243 21 -19 0 -19 0 2 -302 2 -303 -18 -80
-18 -80 -28 -60 -28 -60 -36 -36 -36 -36 -35 -17 -35 -17 -57 -10 -58 -11 -45
6 -46 7 -50 11 -50 11 -36 24 -36 23 -32 10 -32 9 -25 -11 -26 -12 -18 -36
-18 -36 -12 -65 -12 -64 -2 -150 -1 -150 28 -57 28 -57 59 -55 60 -55 63 -35
62 -34 85 -27 85 -27 80 -1 80 -1 33 17 32 18 0 10 0 10 35 15 34 14 31 0 31
0 28 -15 28 -14 16 -33 16 -34 10 -44 11 -45 0 -80 0 -81 -10 -84 -11 -85 -29
-145 -29 -146 -36 -117 -35 -117 0 -5 0 -5 298 7 297 6 75 -12 75 -12 60 -29
60 -29 16 -13 16 -13 23 -45 23 -45 5 -81 4 -81 -16 -80 -16 -79 -31 -59 -32
-58 -1 -43 -1 -43 21 -28 21 -28 44 -22 44 -23 78 -15 79 -15 132 -2 133 -2
59 29 59 29 41 40 41 41 34 70 34 70 0 91 0 91 -38 74 -39 74 -1 43 0 43 28
29 29 30 51 19 52 20 80 11 79 10 345 10 344 10 40 6 40 6 5 236 5 237 -1 185
-1 185 -11 59 -12 60 -21 43 -21 44 -29 14 -28 15 -41 0 -41 0 -22 -11 -22
-12 -9 -14 -8 -15 -34 -14 -33 -14 -73 0 -73 0 -95 33 -95 33 -57 37 -56 38
-42 45 -42 45 -21 47 -21 47 1 83 1 83 29 57 28 57 45 23 45 24 95 -5 95 -5
130 -43 130 -43 75 -1 75 0 35 20 35 21 27 44 27 45 18 65 18 65 -3 459 -2
459 -17 13 -18 12 -75 16 -75 16 -65 9 -65 10 -180 16 -180 15 -108 16 -109
15 -53 20 -54 20 -32 36 -31 36 4 51 5 51 33 75 34 75 3 60 4 60 -21 33 -21
33 -52 24 -52 24 -65 10 -65 11 -75 -1 -75 0 -44 -15z"/>
</g>
</svg>
