<?xml version="1.0" standalone="no"?>
<!DOCTYPE svg PUBLIC "-//W3C//DTD SVG 20010904//EN"
 "http://www.w3.org/TR/2001/REC-SVG-20010904/DTD/svg10.dtd">
<svg version="1.0" xmlns="http://www.w3.org/2000/svg"
 width="351.000000pt" height="436.000000pt" viewBox="0 0 351.000000 436.000000"
 preserveAspectRatio="xMidYMid meet">
<metadata>
Created by potrace 1.16, written by Peter Selinger 2001-2019
</metadata>
<g transform="translate(0.000000,436.000000) scale(0.100000,-0.100000)"
fill="#000000" stroke="none">
<path d="M2031 4344 l-44 -16 -37 -23 -37 -23 -40 -46 -40 -45 -30 -63 -31
-63 -13 -55 -13 -55 1 -90 1 -90 16 -45 17 -45 24 -37 25 -38 0 -4 0 -4 -32
-13 -33 -14 -215 1 -215 1 -243 22 -243 21 -29 0 -29 0 2 -302 2 -303 -18 -80
-18 -80 -28 -60 -28 -60 -36 -36 -36 -36 -35 -17 -35 -16 -53 -10 -53 -11 -40
6 -40 6 -50 11 -50 11 -35 24 -35 23 -39 11 -38 10 -30 -12 -29 -12 -19 -36
-18 -37 -12 -65 -12 -64 -2 -160 -1 -160 28 -57 28 -57 59 -55 60 -55 63 -35
62 -34 85 -27 85 -27 90 -2 90 -1 25 14 25 14 21 23 22 23 36 6 36 7 30 -12
29 -12 16 -24 15 -23 15 -58 15 -57 0 -71 0 -71 -10 -84 -11 -85 -29 -145 -29
-146 -36 -117 -35 -117 0 -15 0 -15 297 6 298 7 75 -12 75 -12 60 -29 60 -29
16 -13 16 -13 23 -45 23 -45 5 -71 4 -71 -16 -80 -16 -79 -32 -59 -32 -60 -1
-52 0 -51 21 -29 21 -28 44 -22 44 -23 79 -15 78 -15 142 -2 141 -3 60 30 60
29 41 40 41 41 34 70 34 70 0 101 0 101 -37 72 -38 72 0 38 0 39 34 30 34 30
49 16 48 16 74 10 74 10 346 10 346 10 40 6 40 6 5 236 5 237 -1 195 -1 195
-11 59 -12 60 -21 43 -21 44 -29 14 -28 15 -51 0 -51 0 -22 -11 -22 -12 -9
-14 -8 -15 -34 -14 -33 -14 -63 0 -63 0 -95 33 -95 33 -57 37 -56 38 -42 45
-42 45 -21 47 -21 47 2 74 1 74 28 56 28 56 45 23 45 24 85 -5 85 -5 130 -43
130 -43 85 -1 85 0 35 20 35 21 27 44 27 45 18 65 18 65 -3 469 -2 469 -17 12
-18 13 -75 16 -75 16 -65 9 -65 10 -180 16 -180 15 -108 16 -109 15 -53 20
-54 20 -32 36 -31 36 4 41 5 41 34 75 33 75 4 70 3 70 -21 33 -21 33 -52 24
-52 24 -65 10 -65 11 -85 -1 -85 0 -44 -15z"/>
</g>
</svg>
