<?xml version="1.0" standalone="no"?>
<!DOCTYPE svg PUBLIC "-//W3C//DTD SVG 20010904//EN"
 "http://www.w3.org/TR/2001/REC-SVG-20010904/DTD/svg10.dtd">
<svg version="1.0" xmlns="http://www.w3.org/2000/svg"
 width="363.000000pt" height="356.000000pt" viewBox="0 0 363.000000 356.000000"
 preserveAspectRatio="xMidYMid meet">
<metadata>
Created by potrace 1.16, written by Peter Selinger 2001-2019
</metadata>
<g transform="translate(0.000000,356.000000) scale(0.100000,-0.100000)"
fill="#000000" stroke="none">
<path d="M2165 3554 l-20 -5 -30 -11 -30 -11 -33 -24 -32 -24 -15 -29 -15 -29
0 -58 0 -59 35 -73 35 -73 11 -44 11 -44 -12 -45 -13 -45 -42 -39 -42 -38 -64
-21 -64 -21 -70 -12 -70 -12 -180 -1 -180 -1 -218 8 -218 9 3 -469 3 -468 -18
-65 -18 -65 -27 -45 -27 -44 -35 -21 -35 -20 -65 1 -65 0 -130 43 -130 43
-105 5 -105 4 -45 -23 -45 -23 -29 -57 -28 -58 -1 -92 -2 -93 22 -47 21 -47
42 -45 42 -45 56 -38 57 -37 95 -33 95 -33 83 0 83 0 33 14 34 14 8 15 9 14
22 12 22 11 31 0 31 0 28 -15 29 -14 21 -44 21 -43 12 -60 12 -59 0 -195 1
-195 -7 -230 -7 -230 182 -1 182 -2 175 -16 175 -17 140 -19 139 -20 9 0 9 0
-5 33 -6 32 -25 140 -25 140 -7 136 -7 137 12 63 13 63 24 48 24 48 42 30 42
31 55 16 55 16 101 1 100 1 46 -21 46 -21 38 -38 38 -38 24 -55 25 -54 -4 -58
-4 -59 -39 -73 -38 -73 0 -50 -1 -50 17 -32 17 -33 54 -25 55 -26 70 -14 71
-15 252 -25 253 -25 70 -11 70 -10 102 -21 102 -20 16 5 15 6 0 398 -1 398
-13 77 -14 77 -23 40 -22 40 -35 17 -34 16 -44 -7 -43 -6 -41 -34 -41 -34 -34
-7 -33 -6 -30 7 -30 6 -48 32 -47 31 -37 57 -37 57 -18 64 -19 63 1 105 0 105
17 65 17 65 25 42 25 43 41 28 41 27 56 -1 56 0 91 -42 91 -42 43 0 43 0 37
39 37 38 17 62 17 62 10 127 11 127 -11 230 -11 230 -6 78 -7 79 -21 -7 -21
-6 -144 -34 -144 -34 -126 -22 -126 -22 -150 -1 -150 -1 -47 23 -48 24 -21 26
-21 27 5 49 4 50 26 20 26 21 10 28 11 28 0 63 0 62 -16 55 -16 54 -36 69 -36
70 -51 52 -51 52 -54 28 -55 27 -80 3 -80 3 -20 -5z"/>
</g>
</svg>
