<?xml version="1.0" standalone="no"?>
<!DOCTYPE svg PUBLIC "-//W3C//DTD SVG 20010904//EN"
 "http://www.w3.org/TR/2001/REC-SVG-20010904/DTD/svg10.dtd">
<svg version="1.0" xmlns="http://www.w3.org/2000/svg"
 width="361.000000pt" height="354.000000pt" viewBox="0 0 361.000000 354.000000"
 preserveAspectRatio="xMidYMid meet">
<metadata>
Created by potrace 1.16, written by Peter Selinger 2001-2019
</metadata>
<g transform="translate(0.000000,354.000000) scale(0.100000,-0.100000)"
fill="#000000" stroke="none">
<path d="M2165 3534 l-20 -5 -30 -11 -30 -11 -33 -24 -32 -24 -15 -29 -15 -29
0 -47 0 -47 40 -86 39 -86 7 -43 7 -42 -13 -45 -13 -45 -42 -39 -42 -38 -64
-21 -64 -21 -70 -12 -70 -12 -190 -1 -190 -1 -208 8 -207 9 2 -469 3 -468 -18
-65 -18 -65 -27 -45 -27 -44 -35 -21 -35 -20 -75 0 -75 1 -130 43 -130 43 -95
5 -95 5 -45 -24 -45 -23 -28 -57 -29 -57 -1 -83 -1 -83 21 -47 21 -47 42 -45
42 -45 56 -38 57 -37 95 -33 95 -33 73 0 73 0 33 14 34 14 8 15 9 14 22 12 22
11 41 0 41 0 28 -15 29 -14 21 -44 21 -43 10 -52 10 -53 6 -107 6 -107 -10
-295 -11 -295 6 -26 5 -26 186 -6 187 -7 160 -15 160 -15 115 -15 115 -15 27
-6 26 -5 -4 23 -4 23 -25 140 -25 140 -6 146 -7 147 12 63 13 63 24 48 24 48
42 30 42 31 55 16 56 16 110 1 110 1 46 -21 46 -21 38 -38 38 -38 24 -54 25
-55 -4 -67 -3 -68 -39 -73 -38 -73 0 -41 -1 -41 17 -32 16 -33 54 -25 55 -26
70 -14 71 -15 252 -25 253 -25 100 -16 100 -15 67 -15 68 -15 10 6 10 6 0 387
-1 387 -13 77 -14 77 -23 40 -22 40 -34 16 -33 16 -36 -7 -36 -7 -33 -28 -32
-28 -27 -11 -27 -10 -35 0 -35 0 -34 14 -35 15 -34 26 -35 27 -32 49 -31 49
-21 63 -20 62 0 120 0 120 17 65 17 65 25 42 25 43 41 28 42 27 65 0 66 0 91
-43 91 -42 33 0 33 0 37 39 37 38 17 62 17 61 10 123 10 122 -11 225 -10 225
-6 76 -6 76 -67 -19 -66 -18 -170 -35 -170 -34 -110 -12 -110 -11 -97 5 -98 5
-45 22 -45 22 -21 26 -21 27 4 59 4 59 27 21 26 21 10 28 11 28 0 53 0 52 -16
55 -16 54 -36 69 -36 70 -51 52 -51 52 -54 27 -55 28 -70 3 -70 3 -20 -5z"/>
</g>
</svg>
