<?xml version="1.0" standalone="no"?>
<!DOCTYPE svg PUBLIC "-//W3C//DTD SVG 20010904//EN"
 "http://www.w3.org/TR/2001/REC-SVG-20010904/DTD/svg10.dtd">
<svg version="1.0" xmlns="http://www.w3.org/2000/svg"
 width="282.000000pt" height="306.000000pt" viewBox="0 0 282.000000 306.000000"
 preserveAspectRatio="xMidYMid meet">
<metadata>
Created by potrace 1.16, written by Peter Selinger 2001-2019
</metadata>
<g transform="translate(0.000000,306.000000) scale(0.100000,-0.100000)"
fill="#000000" stroke="none">
<path d="M810 3035 l-215 -23 -197 -11 -198 -11 -78 0 -79 0 -6 -127 -6 -128
-17 -240 -16 -240 6 -130 5 -130 11 -37 11 -38 20 -11 21 -11 62 31 62 30 70
17 69 16 85 -4 85 -4 43 -23 43 -22 44 -41 44 -41 28 -61 27 -61 1 -96 0 -96
-39 -57 -39 -56 -69 -46 -70 -47 -60 -18 -60 -19 -28 0 -29 0 -26 12 -25 11
-6 23 -6 23 -30 10 -31 11 -30 0 -30 0 -32 -20 -32 -20 -16 -37 -16 -38 -10
-40 -9 -40 -7 -69 -7 -69 7 -417 8 -417 126 -7 126 -6 230 -25 230 -25 113
-11 112 -11 25 6 25 6 0 20 0 19 -15 9 -15 8 -26 120 -26 119 -1 95 -2 95 13
41 12 41 23 34 22 33 43 33 43 32 52 17 52 16 116 5 116 6 59 -27 59 -27 48
-47 48 -47 35 -57 35 -57 25 -72 25 -71 6 -63 6 -63 -7 -35 -6 -35 -26 -27
-26 -28 -9 -24 -9 -24 0 -54 0 -53 29 -30 30 -29 46 -13 46 -13 137 6 137 6
75 16 75 17 111 33 110 34 120 51 121 51 6 357 7 357 -10 92 -10 92 -16 43
-15 43 -5 15 -5 15 -33 23 -32 22 -34 0 -33 0 -111 -36 -111 -37 -88 -5 -87
-4 -48 13 -47 13 -51 50 -50 51 -25 75 -24 75 0 115 0 115 28 48 29 49 46 29
47 30 50 15 50 15 100 6 100 5 95 -11 95 -12 105 -21 105 -20 9 -9 10 -9 12 0
11 0 7 40 6 39 -10 168 -11 168 -29 358 -30 358 0 20 0 19 -17 0 -18 0 -51
-19 -51 -20 -124 -25 -124 -26 -165 -21 -165 -21 -66 -13 -66 -14 -56 -21 -56
-21 -26 -30 -25 -31 0 -47 0 -48 11 -32 11 -31 9 0 9 0 20 -32 20 -33 0 -35 0
-35 -21 -44 -20 -45 -47 -45 -48 -46 -48 -24 -48 -23 -51 -14 -52 -14 -71 0
-71 0 -49 25 -49 26 -39 42 -39 42 -29 61 -28 61 -16 74 -16 74 5 125 5 125
25 95 25 94 16 12 16 11 0 12 0 11 -67 -1 -68 -2 -215 -22z"/>
</g>
</svg>
