<?xml version="1.0" standalone="no"?>
<!DOCTYPE svg PUBLIC "-//W3C//DTD SVG 20010904//EN"
 "http://www.w3.org/TR/2001/REC-SVG-20010904/DTD/svg10.dtd">
<svg version="1.0" xmlns="http://www.w3.org/2000/svg"
 width="280.000000pt" height="304.000000pt" viewBox="0 0 280.000000 304.000000"
 preserveAspectRatio="xMidYMid meet">
<metadata>
Created by potrace 1.16, written by Peter Selinger 2001-2019
</metadata>
<g transform="translate(0.000000,304.000000) scale(0.100000,-0.100000)"
fill="#000000" stroke="none">
<path d="M810 3015 l-215 -23 -197 -11 -198 -11 -78 0 -79 0 -6 -127 -6 -128
-17 -240 -16 -240 6 -120 5 -120 11 -37 11 -37 16 -9 16 -9 56 28 56 29 73 16
73 16 92 -4 92 -4 43 -23 43 -22 44 -41 44 -41 28 -61 27 -61 1 -106 0 -106
-39 -57 -39 -56 -69 -46 -70 -47 -60 -18 -60 -19 -38 0 -39 0 -26 12 -25 11
-6 23 -6 23 -30 10 -31 11 -19 0 -20 0 -30 -17 -30 -18 -18 -35 -17 -35 -11
-50 -11 -50 -6 -59 -7 -60 7 -413 8 -413 56 0 56 0 120 -11 120 -10 225 -24
225 -24 70 -6 70 -6 15 11 15 10 -18 14 -18 14 -26 118 -25 119 -2 105 -1 105
13 41 12 41 23 34 22 33 43 33 43 32 52 17 52 16 126 5 127 6 58 -27 59 -27
48 -47 48 -47 35 -57 35 -57 25 -73 26 -73 5 -71 6 -71 -7 -36 -6 -35 -26 -27
-26 -28 -9 -24 -9 -24 0 -44 0 -43 29 -30 30 -29 45 -13 46 -13 123 6 122 5
80 17 80 17 110 33 111 34 120 51 121 51 6 347 7 347 -10 92 -10 92 -16 43
-15 43 -5 15 -5 15 -33 23 -32 22 -25 0 -25 0 -75 -25 -74 -26 -59 -15 -60
-16 -77 0 -76 0 -44 13 -44 13 -51 51 -50 50 -25 75 -24 75 0 125 0 125 28 48
29 49 46 29 47 30 50 15 50 16 106 5 105 6 100 -12 99 -12 105 -21 105 -21 11
-8 11 -9 6 37 6 37 -9 155 -10 156 -31 380 -31 380 -3 3 -4 4 -54 -20 -55 -21
-123 -25 -124 -26 -165 -21 -165 -21 -66 -13 -66 -14 -56 -21 -56 -21 -26 -30
-25 -31 0 -37 0 -38 11 -32 11 -31 9 0 9 0 20 -32 20 -33 0 -45 0 -45 -21 -44
-20 -45 -47 -45 -48 -46 -48 -24 -48 -23 -51 -14 -52 -14 -81 0 -81 0 -49 25
-49 26 -39 42 -39 42 -29 61 -28 61 -16 74 -16 74 5 135 5 135 25 95 25 94 18
13 18 13 -60 -1 -59 -2 -215 -22z"/>
</g>
</svg>
