<?xml version="1.0" standalone="no"?>
<!DOCTYPE svg PUBLIC "-//W3C//DTD SVG 20010904//EN"
 "http://www.w3.org/TR/2001/REC-SVG-20010904/DTD/svg10.dtd">
<svg version="1.0" xmlns="http://www.w3.org/2000/svg"
 width="333.000000pt" height="363.000000pt" viewBox="0 0 333.000000 363.000000"
 preserveAspectRatio="xMidYMid meet">
<metadata>
Created by potrace 1.16, written by Peter Selinger 2001-2019
</metadata>
<g transform="translate(0.000000,363.000000) scale(0.100000,-0.100000)"
fill="#000000" stroke="none">
<path d="M550 3623 l-55 -2 -247 -12 -248 -12 0 -1377 0 -1376 78 9 77 9 220
-6 220 -5 95 -20 95 -20 65 -27 64 -26 40 -28 41 -28 26 -25 25 -26 27 -49 27
-50 8 -60 9 -61 -9 -73 -9 -73 -23 -25 -24 -25 -11 -22 -11 -22 0 -28 0 -28
20 -32 19 -32 48 -25 49 -24 62 -12 62 -13 94 5 94 5 64 30 65 30 35 36 36 36
31 63 31 63 10 54 10 54 0 102 0 102 -20 116 -20 116 -20 63 -20 63 0 31 0 31
20 26 20 25 47 16 47 16 80 0 81 0 86 -14 86 -14 96 -26 97 -27 87 -33 88 -34
79 -36 80 -36 7 7 8 8 21 120 20 120 15 180 15 180 11 120 10 120 14 79 14 79
28 56 28 56 38 18 37 19 42 -7 41 -7 38 -39 38 -39 26 0 26 0 27 14 27 14 32
34 32 33 28 60 28 60 -1 115 -1 115 -17 65 -17 65 -24 52 -23 52 -34 30 -33
30 -32 7 -31 6 -22 -7 -21 -7 -32 -27 -32 -28 -55 -19 -55 -18 -57 0 -57 -1
-28 21 -28 21 -23 44 -22 45 -10 110 -10 110 10 224 10 225 0 108 0 107 -7 0
-8 0 -49 -15 -49 -15 -81 -15 -81 -15 -217 -25 -217 -24 -66 -16 -65 -15 -39
-20 -39 -19 -22 -28 -22 -28 4 -51 4 -51 34 -41 33 -42 5 -54 4 -54 -16 -49
-16 -49 -41 -46 -40 -47 -48 -30 -48 -31 -59 -22 -59 -21 -130 0 -130 0 -59
21 -59 22 -49 31 -48 31 -40 48 -40 48 -23 49 -22 48 0 105 0 105 37 76 38 76
6 31 6 32 -12 30 -13 31 -41 24 -41 23 -60 11 -60 10 -65 3 -65 3 -55 -2z"/>
</g>
</svg>
