<?xml version="1.0" standalone="no"?>
<!DOCTYPE svg PUBLIC "-//W3C//DTD SVG 20010904//EN"
 "http://www.w3.org/TR/2001/REC-SVG-20010904/DTD/svg10.dtd">
<svg version="1.0" xmlns="http://www.w3.org/2000/svg"
 width="335.000000pt" height="365.000000pt" viewBox="0 0 335.000000 365.000000"
 preserveAspectRatio="xMidYMid meet">
<metadata>
Created by potrace 1.16, written by Peter Selinger 2001-2019
</metadata>
<g transform="translate(0.000000,365.000000) scale(0.100000,-0.100000)"
fill="#000000" stroke="none">
<path d="M550 3643 l-55 -2 -247 -12 -248 -12 0 -1389 0 -1388 42 7 43 8 250
-1 250 0 100 -22 101 -22 67 -27 67 -28 54 -40 55 -40 35 -59 35 -59 7 -45 7
-45 -6 -79 -5 -80 -25 -27 -25 -26 -11 -22 -11 -22 0 -38 0 -38 20 -32 19 -32
48 -25 49 -24 62 -12 62 -13 103 5 104 5 65 30 65 30 35 36 36 36 31 63 31 63
10 54 10 54 0 112 0 112 -20 116 -20 116 -20 63 -20 63 0 21 0 21 20 26 20 25
47 16 47 16 70 0 71 0 86 -14 86 -14 95 -26 95 -26 69 -26 69 -25 102 -46 102
-45 14 5 14 5 11 59 11 58 15 105 15 105 16 210 16 210 15 113 15 114 20 53
20 53 20 25 19 26 33 10 32 11 34 -10 34 -9 32 -36 33 -35 36 0 37 0 27 14 27
14 32 34 32 33 28 60 28 60 -1 125 0 125 -17 64 -18 65 -25 55 -26 56 -33 28
-34 28 -35 6 -35 5 -25 -6 -26 -6 -32 -29 -33 -28 -55 -18 -55 -19 -48 0 -47
0 -27 21 -28 20 -23 44 -22 44 -10 107 -9 107 9 213 9 213 1 123 0 122 -17 0
-18 0 -49 -15 -49 -15 -81 -15 -81 -15 -217 -25 -217 -24 -66 -16 -65 -15 -39
-20 -39 -19 -22 -28 -22 -28 4 -60 4 -61 33 -41 33 -42 5 -44 5 -45 -16 -49
-16 -49 -41 -46 -40 -47 -48 -30 -48 -31 -59 -22 -59 -21 -120 0 -120 0 -59
21 -59 22 -49 31 -48 31 -40 48 -40 48 -23 49 -22 48 0 95 0 95 39 78 38 78 5
40 6 39 -13 30 -13 31 -41 24 -41 23 -60 11 -60 10 -75 3 -75 3 -55 -2z"/>
</g>
</svg>
