<?xml version="1.0" standalone="no"?>
<!DOCTYPE svg PUBLIC "-//W3C//DTD SVG 20010904//EN"
 "http://www.w3.org/TR/2001/REC-SVG-20010904/DTD/svg10.dtd">
<svg version="1.0" xmlns="http://www.w3.org/2000/svg"
 width="298.000000pt" height="358.000000pt" viewBox="0 0 298.000000 358.000000"
 preserveAspectRatio="xMidYMid meet">
<metadata>
Created by potrace 1.16, written by Peter Selinger 2001-2019
</metadata>
<g transform="translate(0.000000,358.000000) scale(0.100000,-0.100000)"
fill="#000000" stroke="none">
<path d="M1520 3564 l-35 -15 -39 -37 -38 -37 -24 -38 -25 -37 -15 -62 -16
-62 6 -49 7 -50 40 -74 39 -75 0 -40 0 -40 -21 -37 -20 -36 -34 -24 -34 -23
-59 -18 -59 -19 -77 -10 -77 -11 -207 1 -207 0 -170 8 -170 9 -8 -7 -8 -8 -15
-339 -15 -339 10 -108 11 -108 18 -42 19 -42 23 -20 22 -20 62 0 61 0 82 38
83 38 52 11 53 11 38 -7 38 -7 40 -36 41 -37 24 -49 25 -49 15 -75 14 -75 0
-82 0 -82 -26 -52 -25 -51 -35 -31 -35 -30 -47 -24 -47 -23 -49 -12 -49 -12
-87 0 -87 0 -89 20 -89 19 -55 21 -55 21 -56 0 -55 0 -16 -12 -17 -13 -23 -45
-23 -45 1 -125 0 -125 22 -113 23 -113 35 -122 36 -122 45 -115 46 -115 29
-63 30 -64 20 5 19 5 229 -9 229 -9 118 10 118 9 67 21 67 20 45 43 45 42 14
35 15 35 7 51 6 51 -11 84 -11 84 -19 40 -19 40 -23 28 -23 29 27 23 27 23 73
12 73 13 180 0 180 1 65 -18 65 -18 55 -29 55 -30 27 -23 27 -24 20 -38 21
-39 0 -35 0 -35 -37 -59 -37 -60 -4 -51 -4 -52 16 -32 17 -32 32 -20 32 -19
35 -10 35 -10 73 -11 73 -10 322 -9 322 -8 23 -7 22 -7 0 1386 0 1386 -21 0
-21 0 -186 -34 -187 -35 -105 -15 -105 -15 -120 -12 -120 -12 -75 6 -75 5 -47
12 -47 12 -36 35 -35 34 0 34 0 34 9 24 10 25 19 6 20 7 13 32 14 32 -1 75 0
75 -13 70 -14 70 -29 85 -30 85 -34 57 -35 57 -30 25 -31 26 -56 0 -57 -1 -35
-15z"/>
</g>
</svg>
