<?xml version="1.0" standalone="no"?>
<!DOCTYPE svg PUBLIC "-//W3C//DTD SVG 20010904//EN"
 "http://www.w3.org/TR/2001/REC-SVG-20010904/DTD/svg10.dtd">
<svg version="1.0" xmlns="http://www.w3.org/2000/svg"
 width="296.000000pt" height="356.000000pt" viewBox="0 0 296.000000 356.000000"
 preserveAspectRatio="xMidYMid meet">
<metadata>
Created by potrace 1.16, written by Peter Selinger 2001-2019
</metadata>
<g transform="translate(0.000000,356.000000) scale(0.100000,-0.100000)"
fill="#000000" stroke="none">
<path d="M1520 3544 l-35 -15 -39 -37 -38 -37 -24 -38 -25 -37 -15 -61 -16
-60 7 -42 7 -42 39 -73 39 -74 0 -50 0 -50 -21 -37 -20 -36 -34 -24 -34 -23
-59 -18 -59 -19 -77 -10 -77 -11 -222 1 -222 1 -155 7 -155 8 -8 -7 -8 -7 -15
-334 -15 -334 11 -103 10 -104 18 -41 19 -42 21 -18 20 -19 40 -5 39 -5 64 27
64 27 65 24 65 23 47 1 47 0 28 -11 28 -10 33 -32 34 -32 25 -48 24 -49 15
-75 14 -75 0 -92 0 -92 -26 -52 -25 -51 -35 -31 -35 -30 -47 -24 -47 -23 -50
-12 -50 -13 -95 0 -95 1 -90 19 -90 20 -55 21 -55 21 -46 0 -45 0 -16 -12 -17
-13 -23 -45 -23 -45 1 -115 0 -115 23 -113 22 -113 35 -122 36 -122 45 -115
46 -115 29 -63 30 -62 7 5 8 4 234 -9 234 -9 115 9 115 9 67 21 67 20 44 43
45 42 11 22 12 23 10 55 10 55 -11 82 -12 82 -14 34 -14 34 -25 30 -25 30 0
18 0 19 25 19 26 20 72 13 72 12 190 0 190 1 65 -18 65 -18 55 -29 55 -30 27
-23 27 -24 20 -38 21 -39 0 -45 0 -45 -37 -59 -36 -59 -4 -46 -4 -46 20 -32
20 -32 38 -19 38 -19 48 -12 48 -12 147 -9 147 -10 190 0 190 -1 48 -8 47 -8
0 1374 0 1373 -11 0 -11 0 -186 -34 -187 -35 -105 -15 -105 -15 -120 -12 -120
-12 -85 6 -85 5 -47 12 -47 12 -36 35 -35 34 0 44 0 44 9 24 10 25 19 6 20 7
13 32 14 32 -2 75 -1 75 -16 70 -15 70 -26 75 -27 75 -34 57 -35 57 -30 25
-31 26 -46 0 -47 -1 -35 -15z"/>
</g>
</svg>
