<?xml version="1.0" standalone="no"?>
<!DOCTYPE svg PUBLIC "-//W3C//DTD SVG 20010904//EN"
 "http://www.w3.org/TR/2001/REC-SVG-20010904/DTD/svg10.dtd">
<svg version="1.0" xmlns="http://www.w3.org/2000/svg"
 width="363.000000pt" height="292.000000pt" viewBox="0 0 363.000000 292.000000"
 preserveAspectRatio="xMidYMid meet">
<metadata>
Created by potrace 1.16, written by Peter Selinger 2001-2019
</metadata>
<g transform="translate(0.000000,292.000000) scale(0.100000,-0.100000)"
fill="#000000" stroke="none">
<path d="M30 2838 l0 -82 -16 -255 -16 -256 5 -125 6 -125 16 -45 16 -45 16
-12 17 -13 31 0 31 0 74 36 73 36 64 11 63 11 48 -12 47 -13 32 -22 33 -22 30
-42 31 -43 20 -57 20 -58 9 -88 9 -88 -9 -109 -9 -108 -11 -41 -11 -40 -15
-16 -15 -15 -9 0 -9 0 -27 35 -26 35 -41 11 -41 11 -38 -11 -37 -12 -27 -34
-26 -34 -23 -69 -23 -68 -37 -185 -36 -184 -29 -116 -29 -115 -27 -75 -27 -74
-33 -67 -34 -68 0 -14 0 -14 48 -6 47 -7 330 -1 330 -2 65 13 65 12 50 16 49
16 53 34 52 33 26 45 27 44 10 71 10 70 -15 93 -16 93 -33 69 -33 70 0 46 0
47 20 22 20 23 44 20 44 19 84 6 83 5 44 -17 45 -17 55 -60 56 -60 35 -73 35
-73 21 -79 22 -79 1 -100 1 -100 -19 -35 -19 -35 -20 -27 -20 -27 -1 -58 -1
-59 18 -28 19 -28 46 -21 47 -22 175 1 175 0 125 23 125 22 145 35 145 34 46
15 46 16 26 77 26 77 16 62 15 63 11 52 10 53 29 203 30 203 15 65 15 64 25
50 26 51 32 20 32 19 25 -5 24 -6 75 -37 75 -37 66 -3 67 -4 51 22 52 22 40
47 40 46 20 52 19 51 12 68 12 67 -5 66 -5 66 -20 47 -21 46 -43 45 -44 46
-58 35 -57 34 -73 18 -72 19 -105 0 -105 0 -55 -14 -55 -13 -68 -31 -67 -30
-18 17 -19 16 -13 38 -12 37 -5 177 -5 176 16 274 16 273 5 43 5 42 -1360 0
-1360 0 0 -82z"/>
</g>
</svg>
