<?xml version="1.0" standalone="no"?>
<!DOCTYPE svg PUBLIC "-//W3C//DTD SVG 20010904//EN"
 "http://www.w3.org/TR/2001/REC-SVG-20010904/DTD/svg10.dtd">
<svg version="1.0" xmlns="http://www.w3.org/2000/svg"
 width="361.000000pt" height="290.000000pt" viewBox="0 0 361.000000 290.000000"
 preserveAspectRatio="xMidYMid meet">
<metadata>
Created by potrace 1.16, written by Peter Selinger 2001-2019
</metadata>
<g transform="translate(0.000000,290.000000) scale(0.100000,-0.100000)"
fill="#000000" stroke="none">
<path d="M30 2818 l0 -82 -16 -255 -16 -256 5 -115 6 -115 16 -45 16 -45 16
-12 17 -13 21 0 21 0 70 35 70 34 45 10 44 11 46 0 45 0 47 -16 46 -16 40 -39
40 -40 20 -42 20 -42 17 -65 17 -65 0 -140 -1 -140 -12 -63 -11 -64 -11 -24
-11 -24 -26 -7 -25 -6 -30 37 -31 36 -37 10 -37 11 -35 -15 -35 -14 -25 -39
-25 -38 -20 -65 -21 -65 -45 -225 -46 -224 -25 -89 -25 -88 -23 -62 -23 -62
-32 -64 -32 -63 6 -6 6 -6 252 -8 252 -7 115 5 115 6 60 9 60 10 50 16 49 16
53 34 52 33 26 44 26 45 10 65 10 64 -15 89 -15 89 -33 70 -33 69 0 56 0 57
20 22 20 23 45 20 45 20 92 5 93 5 45 -17 44 -17 55 -60 56 -60 35 -73 35 -73
22 -79 21 -79 1 -110 1 -110 -19 -35 -19 -35 -19 -26 -20 -26 -1 -50 -2 -49
18 -28 19 -28 46 -21 47 -22 165 1 165 0 125 23 125 22 145 35 145 34 46 15
46 16 26 77 26 77 16 62 15 63 11 52 10 53 29 203 30 203 15 65 15 64 25 50
26 51 32 20 32 20 31 -5 32 -4 77 -38 78 -38 57 -4 56 -4 52 22 52 22 40 47
40 46 20 52 19 51 12 68 12 67 -6 57 -5 57 -20 46 -20 45 -43 45 -44 46 -58
35 -57 34 -73 18 -72 19 -100 -1 -100 -1 -64 -17 -65 -17 -47 -25 -48 -24 -19
0 -19 0 -15 18 -15 17 -14 40 -14 40 1 285 2 285 14 203 13 202 -1347 0 -1348
0 0 -82z"/>
</g>
</svg>
