<?xml version="1.0" standalone="no"?>
<!DOCTYPE svg PUBLIC "-//W3C//DTD SVG 20010904//EN"
 "http://www.w3.org/TR/2001/REC-SVG-20010904/DTD/svg10.dtd">
<svg version="1.0" xmlns="http://www.w3.org/2000/svg"
 width="359.000000pt" height="374.000000pt" viewBox="0 0 359.000000 374.000000"
 preserveAspectRatio="xMidYMid meet">
<metadata>
Created by potrace 1.16, written by Peter Selinger 2001-2019
</metadata>
<g transform="translate(0.000000,374.000000) scale(0.100000,-0.100000)"
fill="#000000" stroke="none">
<path d="M1785 3730 l-60 -7 -38 -18 -38 -18 -16 -30 -15 -30 5 -42 4 -42 15
-29 16 -29 16 -31 16 -31 11 -59 11 -59 -7 -70 -6 -70 -19 -82 -19 -82 -29
-63 -29 -63 -32 -43 -32 -43 -32 -20 -32 -20 -195 4 -195 4 -33 12 -32 13 -11
19 -10 19 17 32 16 33 18 20 17 20 7 35 7 35 9 80 8 80 -9 59 -10 58 -21 42
-20 41 -37 34 -36 34 -50 23 -50 23 -65 18 -65 18 -312 0 -312 -1 -8 -8 -8 -8
-3 -96 -2 -97 -17 -275 -16 -275 0 -170 0 -170 14 -40 14 -40 28 -3 28 -3 49
31 50 32 46 14 47 14 66 0 66 0 52 -14 51 -14 55 -25 56 -25 46 -43 47 -43 21
-41 21 -40 -1 -73 -1 -72 -12 -53 -12 -52 -30 -63 -30 -63 -42 -42 -43 -42
-14 -10 -14 -11 -40 -19 -40 -20 -95 0 -95 0 -81 38 -82 37 -39 0 -39 0 -22
-16 -22 -15 -20 -39 -20 -38 -11 -74 -12 -73 7 -115 6 -115 20 -135 20 -135
23 -115 23 -115 304 0 305 0 75 -19 75 -18 61 -29 62 -29 37 -37 37 -38 20
-40 21 -40 5 -77 4 -76 -11 -50 -12 -49 -30 -22 -29 -22 0 -39 0 -39 34 -26
35 -26 48 -19 48 -18 76 -12 76 -12 119 3 119 4 56 28 56 27 45 39 44 39 26
48 26 49 12 64 11 64 -6 51 -6 51 -16 50 -16 50 -21 40 -21 40 0 38 0 39 32
28 32 29 38 11 38 12 122 5 122 5 118 -11 118 -12 199 -29 200 -30 5 5 4 5
-24 238 -24 237 0 180 0 180 13 41 12 41 23 34 23 34 28 13 28 14 33 -6 34 -7
41 -34 41 -34 47 -7 47 -7 63 11 63 10 75 36 75 36 65 62 65 62 32 65 32 66
-1 200 0 200 -17 44 -17 45 -26 33 -25 33 -41 21 -40 21 -87 11 -86 10 -135
-16 -135 -17 -85 -17 -85 -16 -26 -23 -25 -24 -7 0 -7 0 0 53 0 52 20 215 20
215 7 227 6 227 -49 21 -49 22 -145 48 -145 49 -120 30 -120 30 -95 15 -95 14
-65 4 -65 5 -60 -7z"/>
</g>
</svg>
