<?xml version="1.0" standalone="no"?>
<!DOCTYPE svg PUBLIC "-//W3C//DTD SVG 20010904//EN"
 "http://www.w3.org/TR/2001/REC-SVG-20010904/DTD/svg10.dtd">
<svg version="1.0" xmlns="http://www.w3.org/2000/svg"
 width="357.000000pt" height="372.000000pt" viewBox="0 0 357.000000 372.000000"
 preserveAspectRatio="xMidYMid meet">
<metadata>
Created by potrace 1.16, written by Peter Selinger 2001-2019
</metadata>
<g transform="translate(0.000000,372.000000) scale(0.100000,-0.100000)"
fill="#000000" stroke="none">
<path d="M1785 3709 l-60 -6 -38 -18 -39 -18 -16 -34 -16 -34 12 -46 13 -46
18 -26 18 -26 14 -40 14 -40 -1 -110 -1 -110 -21 -87 -21 -87 -29 -63 -29 -63
-32 -43 -32 -43 -32 -20 -32 -20 -205 3 -205 4 -37 16 -37 17 -6 24 -7 25 17
33 17 34 18 20 17 20 12 61 11 61 2 69 1 69 -8 35 -7 35 -20 40 -20 40 -37 34
-36 34 -50 23 -50 23 -65 18 -65 18 -302 0 -302 -1 -8 -8 -8 -8 -3 -96 -2 -97
-17 -275 -16 -275 0 -160 0 -160 14 -40 14 -40 18 -3 18 -4 49 32 50 32 46 14
47 14 76 0 76 0 52 -14 51 -14 55 -25 56 -25 46 -43 47 -43 21 -41 22 -40 -1
-81 -1 -82 -13 -53 -12 -54 -30 -63 -30 -63 -42 -42 -43 -42 -14 -10 -14 -11
-39 -18 -38 -18 -54 -7 -54 -8 -54 8 -54 7 -80 36 -80 36 -29 0 -29 0 -22 -16
-22 -15 -20 -39 -20 -38 -11 -74 -11 -73 6 -105 7 -105 19 -135 20 -135 23
-115 23 -114 304 -1 305 0 75 -19 75 -18 61 -29 62 -29 37 -37 37 -38 20 -40
21 -40 5 -84 5 -83 -12 -53 -12 -52 -29 -22 -30 -22 0 -29 0 -29 34 -26 35
-26 48 -19 48 -18 76 -12 76 -12 109 3 109 4 56 28 56 27 45 39 44 39 26 48
26 49 11 62 12 61 -7 44 -6 43 -15 50 -16 50 -21 40 -21 40 0 48 0 49 32 28
32 29 38 12 38 11 136 5 136 5 149 -16 149 -16 155 -24 155 -23 4 3 3 3 -22
213 -22 213 -5 166 -6 165 12 69 12 68 16 31 15 31 21 22 20 23 33 6 32 6 31
-7 31 -7 40 -33 41 -34 45 -7 45 -6 57 11 57 11 73 35 73 35 65 62 65 62 32
65 32 66 -1 190 0 190 -17 44 -17 45 -26 33 -25 33 -40 21 -40 20 -82 11 -82
11 -130 -17 -130 -16 -85 -17 -85 -16 -32 -29 -31 -30 -11 6 -11 7 0 62 0 62
20 215 20 215 7 217 6 217 -49 21 -49 22 -145 48 -145 49 -120 30 -120 30 -95
15 -95 14 -55 4 -55 3 -60 -6z"/>
</g>
</svg>
