<?xml version="1.0" standalone="no"?>
<!DOCTYPE svg PUBLIC "-//W3C//DTD SVG 20010904//EN"
 "http://www.w3.org/TR/2001/REC-SVG-20010904/DTD/svg10.dtd">
<svg version="1.0" xmlns="http://www.w3.org/2000/svg"
 width="343.000000pt" height="372.000000pt" viewBox="0 0 343.000000 372.000000"
 preserveAspectRatio="xMidYMid meet">
<metadata>
Created by potrace 1.16, written by Peter Selinger 2001-2019
</metadata>
<g transform="translate(0.000000,372.000000) scale(0.100000,-0.100000)"
fill="#000000" stroke="none">
<path d="M1765 3704 l-40 -14 -22 -26 -23 -25 0 -32 0 -32 20 -63 20 -63 20
-116 20 -116 0 -102 0 -102 -10 -54 -10 -54 -31 -63 -31 -63 -36 -36 -35 -36
-65 -30 -64 -30 -94 -5 -94 -5 -62 13 -62 12 -49 24 -48 25 -19 32 -20 32 0
28 0 28 11 22 11 22 24 25 23 25 9 73 9 73 -9 61 -8 60 -27 50 -27 49 -25 26
-26 25 -41 28 -40 28 -65 26 -64 27 -100 21 -100 22 -275 1 -275 0 -17 -7 -18
-7 0 -1376 0 -1376 8 5 7 4 140 12 140 11 195 19 195 19 112 7 112 6 36 -6 36
-7 -20 -25 -20 -26 -20 -53 -20 -53 -7 -74 -6 -75 17 -84 17 -84 28 -60 29
-60 23 -30 23 -30 39 -37 40 -37 61 -31 62 -31 74 -6 75 -6 30 16 30 15 43 47
43 47 38 81 38 82 17 84 17 84 -5 50 -6 50 -16 23 -15 24 -15 0 -14 0 -10 38
-11 37 0 23 0 24 33 33 33 33 55 16 54 15 80 6 80 7 140 -11 140 -11 240 -30
240 -30 22 -5 22 -5 -4 12 -4 13 -46 128 -46 128 -39 152 -40 152 -15 100 -15
100 0 93 0 93 11 45 12 45 32 35 32 34 40 0 40 0 64 -34 64 -34 60 -12 59 -12
66 6 65 7 60 15 60 15 81 39 81 39 54 59 55 59 12 40 12 40 0 44 0 44 -11 44
-10 44 -26 54 -27 55 -41 39 -40 40 -51 24 -51 24 -70 12 -70 11 -79 -16 -79
-15 -70 -36 -70 -35 -28 0 -28 0 -16 38 -17 37 1 145 1 145 16 245 16 245 0
106 0 106 -102 46 -103 46 -69 25 -69 26 -95 26 -95 26 -86 14 -86 14 -85 -1
-85 0 -40 -15z"/>
</g>
</svg>
