<?xml version="1.0" standalone="no"?>
<!DOCTYPE svg PUBLIC "-//W3C//DTD SVG 20010904//EN"
 "http://www.w3.org/TR/2001/REC-SVG-20010904/DTD/svg10.dtd">
<svg version="1.0" xmlns="http://www.w3.org/2000/svg"
 width="345.000000pt" height="374.000000pt" viewBox="0 0 345.000000 374.000000"
 preserveAspectRatio="xMidYMid meet">
<metadata>
Created by potrace 1.16, written by Peter Selinger 2001-2019
</metadata>
<g transform="translate(0.000000,374.000000) scale(0.100000,-0.100000)"
fill="#000000" stroke="none">
<path d="M1765 3724 l-40 -14 -22 -26 -23 -25 0 -42 0 -42 20 -63 20 -63 20
-116 20 -116 0 -92 0 -92 -10 -54 -10 -54 -31 -63 -31 -63 -36 -36 -35 -36
-64 -29 -64 -30 -83 -5 -84 -6 -64 12 -64 12 -49 27 -50 27 -19 36 -19 35 7
27 6 27 30 33 29 34 10 77 9 78 -9 65 -9 66 -27 49 -27 49 -25 26 -26 25 -41
28 -40 28 -65 26 -64 27 -100 21 -100 22 -285 1 -285 0 -17 -7 -18 -7 0 -1387
0 -1386 22 5 23 6 130 11 130 10 210 20 210 21 115 2 115 2 -2 -10 -2 -10 -25
-61 -26 -61 -6 -85 -7 -84 17 -84 18 -85 28 -60 29 -60 23 -30 23 -30 39 -37
40 -37 62 -32 62 -31 84 -5 84 -6 30 16 30 15 43 47 43 47 38 81 38 82 16 77
16 77 -1 48 0 48 -12 35 -12 35 -23 10 -23 10 -10 38 -10 38 6 19 6 19 30 25
30 26 52 14 52 15 70 6 70 6 145 -11 145 -11 230 -30 230 -29 39 -6 39 -6 -7
28 -7 29 -45 123 -45 123 -39 152 -40 152 -15 100 -15 100 0 83 0 83 11 45 12
45 32 35 32 34 30 0 30 0 64 -34 64 -34 60 -12 60 -12 73 6 74 6 61 16 62 15
81 39 81 39 54 59 55 59 12 40 12 40 0 54 0 54 -11 44 -10 44 -26 54 -27 55
-41 39 -40 40 -53 25 -53 25 -77 11 -77 11 -80 -16 -80 -16 -70 -36 -70 -35
-18 0 -18 0 -16 38 -17 37 1 135 2 135 15 245 16 245 0 116 0 116 -102 46
-103 46 -69 25 -69 26 -95 26 -95 26 -86 14 -86 14 -95 -1 -95 0 -40 -15z"/>
</g>
</svg>
