<?xml version="1.0" standalone="no"?>
<!DOCTYPE svg PUBLIC "-//W3C//DTD SVG 20010904//EN"
 "http://www.w3.org/TR/2001/REC-SVG-20010904/DTD/svg10.dtd">
<svg version="1.0" xmlns="http://www.w3.org/2000/svg"
 width="438.000000pt" height="386.000000pt" viewBox="0 0 438.000000 386.000000"
 preserveAspectRatio="xMidYMid meet">
<metadata>
Created by potrace 1.16, written by Peter Selinger 2001-2019
</metadata>
<g transform="translate(0.000000,386.000000) scale(0.100000,-0.100000)"
fill="#000000" stroke="none">
<path d="M2625 3842 l-50 -17 -23 -35 -24 -35 5 -47 6 -46 30 -60 30 -60 11
-69 11 -68 -6 -55 -6 -55 -15 -59 -15 -59 -23 -46 -22 -46 -26 -40 -27 -40
-23 -26 -23 -26 -38 -27 -37 -27 -38 -16 -37 -16 -75 0 -75 0 -60 17 -60 18
-44 26 -44 26 -34 33 -33 34 -23 37 -23 37 -18 44 -17 44 -9 68 -8 69 9 73 9
72 19 65 20 65 26 34 25 35 0 23 0 22 -19 11 -20 10 -108 0 -108 0 -190 -14
-190 -15 -184 -7 -184 -7 7 -156 6 -156 16 -215 17 -215 1 -185 1 -185 -7 -26
-8 -27 -15 -6 -16 -6 -22 14 -22 14 -90 21 -90 20 -100 11 -99 12 -71 -7 -70
-7 -53 -14 -52 -14 -48 -24 -47 -24 -32 -34 -32 -33 -17 -40 -17 -40 1 -62 0
-63 29 -51 28 -52 45 -33 45 -32 50 -17 50 -17 110 -5 110 -5 90 16 90 17 97
30 97 31 23 -7 23 -7 27 -29 27 -29 12 -38 11 -37 5 -135 5 -135 -17 -145 -16
-145 -39 -230 -39 -230 -7 -24 -7 -24 24 6 24 7 190 11 190 11 225 -5 225 -5
63 -16 62 -16 49 -25 49 -24 21 -27 21 -27 0 -31 0 -31 -29 -85 -29 -85 -12
-70 -12 -71 4 -99 4 -100 26 -56 26 -56 23 -27 23 -26 45 -27 46 -27 86 -4 87
-4 52 17 52 17 49 48 49 48 26 55 25 55 14 69 15 68 0 119 0 118 -15 107 -16
106 -24 100 -25 101 0 21 0 20 20 26 20 25 52 18 52 17 110 -6 111 -5 120 -27
120 -27 110 -35 110 -35 108 -44 108 -44 25 0 26 0 -6 48 -6 47 -25 255 -25
255 -7 150 -6 150 12 75 12 75 22 44 22 45 27 20 27 19 40 -12 41 -12 11 -20
11 -21 33 -14 34 -14 79 0 79 0 77 20 77 19 62 30 62 30 50 38 50 38 23 45 24
45 -7 120 -6 120 -11 50 -10 50 -24 47 -24 48 -42 27 -42 28 -115 -1 -116 0
-126 -42 -127 -42 -28 11 -29 10 -19 17 -18 17 -24 47 -24 47 -16 93 -16 93 6
270 6 270 6 62 7 61 -139 45 -139 46 -82 20 -82 21 -116 20 -117 20 -116 0
-117 -1 -50 -17z"/>
</g>
</svg>
