<?xml version="1.0" standalone="no"?>
<!DOCTYPE svg PUBLIC "-//W3C//DTD SVG 20010904//EN"
 "http://www.w3.org/TR/2001/REC-SVG-20010904/DTD/svg10.dtd">
<svg version="1.0" xmlns="http://www.w3.org/2000/svg"
 width="436.000000pt" height="384.000000pt" viewBox="0 0 436.000000 384.000000"
 preserveAspectRatio="xMidYMid meet">
<metadata>
Created by potrace 1.16, written by Peter Selinger 2001-2019
</metadata>
<g transform="translate(0.000000,384.000000) scale(0.100000,-0.100000)"
fill="#000000" stroke="none">
<path d="M2625 3822 l-50 -17 -23 -35 -24 -35 6 -38 6 -39 30 -58 30 -59 11
-72 11 -73 -7 -60 -6 -61 -15 -59 -15 -59 -23 -46 -22 -46 -26 -40 -27 -40
-23 -27 -23 -26 -53 -36 -53 -35 -37 -8 -37 -8 -70 1 -71 1 -59 18 -60 17 -44
26 -44 26 -34 33 -33 34 -25 39 -24 38 -22 64 -21 63 0 105 0 105 21 79 21 79
20 31 20 31 12 24 12 23 -19 14 -19 14 -100 0 -101 0 -190 -14 -190 -15 -184
-7 -184 -7 7 -151 7 -151 14 -195 15 -195 6 -170 7 -170 -7 -57 -7 -56 -19
-22 -19 -22 -33 20 -33 20 -90 21 -90 20 -99 11 -99 11 -83 -11 -83 -11 -39
-13 -39 -14 -39 -20 -39 -20 -32 -34 -32 -33 -17 -40 -16 -39 1 -54 0 -53 28
-51 28 -51 45 -33 45 -32 50 -17 50 -17 100 -5 100 -5 90 16 90 17 98 30 99
31 31 -6 31 -6 28 -30 27 -30 12 -38 11 -37 5 -145 5 -145 -17 -145 -16 -145
-39 -234 -40 -235 4 -3 3 -3 194 11 193 11 231 -4 230 -5 70 -17 70 -17 49
-27 49 -27 20 -26 19 -27 0 -38 -1 -39 -29 -85 -30 -85 -12 -71 -13 -71 5 -89
4 -89 26 -56 26 -56 23 -27 23 -26 45 -27 46 -27 76 -4 77 -4 52 17 52 17 49
48 49 48 26 55 25 55 14 69 15 68 0 109 0 108 -15 107 -16 106 -24 100 -25
101 0 31 0 30 20 26 20 25 52 18 51 17 121 -6 121 -5 120 -27 120 -27 110 -35
110 -35 108 -44 108 -44 15 0 15 0 -5 33 -6 32 -26 265 -27 265 -1 200 -1 200
18 59 19 60 33 33 33 33 25 0 24 0 32 -11 31 -11 11 -20 11 -20 33 -14 34 -14
69 0 69 0 77 20 77 19 62 30 62 30 50 38 50 38 23 45 23 45 -6 105 -6 105 -11
55 -10 55 -24 47 -24 48 -42 27 -42 28 -105 -1 -106 0 -128 -43 -128 -42 -29
6 -29 6 -26 21 -26 20 -24 48 -25 49 -16 93 -16 93 6 285 6 285 6 47 6 46
-138 45 -139 46 -82 20 -82 21 -116 20 -117 20 -106 0 -107 -1 -50 -17z"/>
</g>
</svg>
