<?xml version="1.0" standalone="no"?>
<!DOCTYPE svg PUBLIC "-//W3C//DTD SVG 20010904//EN"
 "http://www.w3.org/TR/2001/REC-SVG-20010904/DTD/svg10.dtd">
<svg version="1.0" xmlns="http://www.w3.org/2000/svg"
 width="366.000000pt" height="362.000000pt" viewBox="0 0 366.000000 362.000000"
 preserveAspectRatio="xMidYMid meet">
<metadata>
Created by potrace 1.16, written by Peter Selinger 2001-2019
</metadata>
<g transform="translate(0.000000,362.000000) scale(0.100000,-0.100000)"
fill="#000000" stroke="none">
<path d="M2752 3610 l-53 -10 -39 -20 -39 -20 -15 -22 -16 -22 0 -32 0 -31 11
-32 11 -31 14 0 14 0 16 -25 17 -25 -5 -78 -5 -77 -22 -58 -23 -58 -50 -75
-51 -75 -51 -41 -51 -41 -55 -25 -55 -25 -104 -5 -103 -4 -65 17 -64 18 -40
35 -39 35 -11 40 -10 39 10 49 11 49 24 48 23 47 18 55 18 55 1 60 1 60 -24
42 -24 42 -48 20 -47 21 -54 12 -53 12 -200 0 -200 1 -238 -9 -239 -8 9 -242
8 -241 -2 -170 -2 -170 -16 -80 -15 -80 -26 -53 -26 -54 -46 -29 -46 -29 -48
0 -48 0 -92 29 -93 30 -64 16 -63 16 -69 1 -68 0 -38 -19 -38 -20 -23 -41 -23
-41 -10 -88 -10 -88 6 -50 6 -50 11 -50 10 -50 36 -68 35 -68 46 -41 46 -41
42 -18 41 -19 46 -6 46 -7 43 17 44 16 33 25 33 24 42 7 43 6 33 -16 34 -16
27 -49 28 -49 15 -71 15 -72 20 -237 20 -237 10 -77 11 -77 13 -50 13 -50 -11
-12 -11 -11 110 7 110 7 180 14 180 14 138 0 138 0 44 -11 44 -11 18 -20 18
-20 -23 -36 -23 -37 -21 -45 -21 -45 -5 -75 -4 -75 17 -65 17 -65 31 -60 32
-59 51 -51 52 -51 52 -28 52 -28 52 -14 51 -14 80 0 81 0 57 15 56 15 44 20
44 21 32 31 31 30 0 22 0 22 -12 12 -12 12 -18 0 -18 0 -10 26 -10 25 0 39 0
39 30 34 29 34 58 26 58 26 224 56 224 57 101 35 101 35 89 44 89 45 25 19 25
20 14 0 15 0 -6 15 -5 15 34 148 34 148 20 120 20 119 9 105 8 105 -7 87 -7
87 -22 46 -23 47 -34 16 -34 16 -125 -43 -125 -42 -87 -6 -87 -6 -65 17 -65
17 -40 25 -40 26 -42 45 -42 45 -23 57 -23 56 0 210 0 210 13 37 13 36 30 42
30 42 47 21 47 22 150 -1 150 -1 133 -26 133 -26 25 -16 25 -16 9 6 10 6 0 97
0 97 -20 215 -20 215 -6 162 -7 163 -16 4 -16 5 -100 21 -100 21 -125 19 -125
20 -120 4 -120 5 -53 -9z"/>
</g>
</svg>
