<?xml version="1.0" standalone="no"?>
<!DOCTYPE svg PUBLIC "-//W3C//DTD SVG 20010904//EN"
 "http://www.w3.org/TR/2001/REC-SVG-20010904/DTD/svg10.dtd">
<svg version="1.0" xmlns="http://www.w3.org/2000/svg"
 width="368.000000pt" height="364.000000pt" viewBox="0 0 368.000000 364.000000"
 preserveAspectRatio="xMidYMid meet">
<metadata>
Created by potrace 1.16, written by Peter Selinger 2001-2019
</metadata>
<g transform="translate(0.000000,364.000000) scale(0.100000,-0.100000)"
fill="#000000" stroke="none">
<path d="M2752 3630 l-53 -10 -39 -20 -39 -20 -15 -22 -16 -22 0 -42 0 -41 11
-32 11 -31 14 0 14 0 16 -25 17 -26 -5 -67 -6 -67 -22 -58 -22 -58 -50 -75
-51 -75 -51 -41 -51 -41 -55 -25 -55 -25 -93 -5 -94 -4 -65 17 -64 18 -40 35
-39 35 -10 35 -9 35 10 44 9 44 24 47 23 47 19 55 18 55 0 70 1 70 -24 42 -24
42 -48 20 -47 21 -54 12 -53 12 -210 1 -210 0 -239 -9 -238 -8 8 -252 9 -251
-2 -160 -2 -160 -16 -80 -15 -80 -26 -53 -26 -54 -46 -29 -46 -29 -38 0 -38 0
-92 29 -93 30 -65 16 -65 17 -76 1 -76 0 -39 -20 -39 -20 -23 -41 -23 -41 -10
-88 -10 -88 6 -65 7 -65 10 -45 11 -45 35 -68 35 -68 46 -41 46 -41 44 -19 44
-20 56 -5 56 -5 40 16 40 17 35 24 35 23 32 7 32 6 33 -15 33 -16 27 -49 28
-49 15 -71 15 -72 20 -242 21 -242 9 -68 10 -67 10 -43 9 -43 -6 -23 -6 -24
119 7 119 7 180 15 180 14 128 0 128 0 44 -11 44 -11 15 -17 15 -17 -30 -44
-29 -45 -15 -49 -15 -50 0 -69 0 -69 16 -62 16 -61 31 -60 32 -59 51 -51 52
-51 52 -28 52 -28 52 -14 51 -14 90 0 91 0 57 15 56 15 44 20 44 21 32 31 31
30 0 32 0 32 -12 12 -12 12 -18 0 -18 0 -10 26 -10 25 0 29 0 29 30 34 29 34
58 26 58 26 224 56 224 57 101 35 101 35 89 44 89 45 25 19 25 20 13 0 13 0 0
33 -1 32 31 133 31 132 19 118 20 117 9 110 10 110 -8 92 -8 92 -22 46 -22 46
-29 14 -28 15 -22 0 -23 0 -117 -40 -117 -40 -78 -6 -79 -7 -65 17 -65 17 -40
25 -40 26 -42 45 -42 45 -23 57 -23 56 0 200 0 200 13 37 13 36 30 42 30 42
47 21 47 22 135 -1 135 -1 125 -22 125 -23 43 -20 42 -20 15 6 15 5 0 108 0
108 -20 215 -20 215 -6 162 -7 163 -16 4 -16 5 -100 21 -100 21 -125 20 -125
19 -130 5 -130 4 -53 -9z"/>
</g>
</svg>
