<?xml version="1.0" standalone="no"?>
<!DOCTYPE svg PUBLIC "-//W3C//DTD SVG 20010904//EN"
 "http://www.w3.org/TR/2001/REC-SVG-20010904/DTD/svg10.dtd">
<svg version="1.0" xmlns="http://www.w3.org/2000/svg"
 width="365.000000pt" height="347.000000pt" viewBox="0 0 365.000000 347.000000"
 preserveAspectRatio="xMidYMid meet">
<metadata>
Created by potrace 1.16, written by Peter Selinger 2001-2019
</metadata>
<g transform="translate(0.000000,347.000000) scale(0.100000,-0.100000)"
fill="#000000" stroke="none">
<path d="M1300 3460 l-165 -7 -198 -8 -199 -8 7 -96 7 -96 0 -215 1 -215 -17
-75 -16 -75 -26 -53 -26 -53 -47 -34 -46 -34 -55 -12 -54 -11 -85 16 -85 17
-38 35 -38 34 -31 0 -32 0 -42 -42 -42 -43 -22 -60 -23 -60 -15 -79 -15 -79 4
-131 4 -131 27 -53 28 -53 35 -39 36 -39 60 -31 61 -30 44 0 44 0 29 15 29 15
11 20 10 19 42 11 41 11 23 -5 22 -6 31 -31 31 -30 20 -67 19 -67 10 -80 10
-80 16 -240 16 -240 14 -100 15 -100 6 -39 7 -39 126 7 126 6 285 7 285 6 70
-12 70 -12 50 -24 50 -24 18 -30 17 -29 0 -34 0 -33 -45 -95 -45 -95 0 -60 0
-60 20 -43 19 -42 31 -18 30 -17 0 -7 0 -6 67 -23 67 -22 85 -1 86 -1 42 23
42 22 28 29 28 28 19 24 18 24 24 50 24 50 0 65 0 66 -16 22 -15 22 -15 0 -14
0 -10 26 -10 25 0 29 0 28 25 30 25 29 67 22 68 21 95 10 95 9 386 2 385 3 11
40 10 41 42 109 42 108 39 152 38 151 11 90 11 90 0 62 0 62 -11 51 -11 52
-30 34 -30 34 -50 0 -49 0 -21 -11 -21 -11 -23 -27 -22 -26 -89 -3 -90 -4 -86
16 -86 16 -78 26 -78 26 -79 42 -79 41 -52 50 -52 50 -23 45 -24 45 1 71 1 70
12 60 12 59 28 60 29 60 43 44 43 43 40 21 40 20 50 13 50 14 56 0 55 0 60
-11 59 -10 50 -16 50 -16 62 -29 62 -29 27 3 27 3 21 28 21 28 0 162 0 162
-14 303 -15 302 -13 0 -12 0 -70 -45 -69 -45 -86 -34 -86 -35 -77 -22 -78 -22
-179 -43 -179 -44 -58 -26 -57 -26 -27 -28 -27 -28 -5 -45 -5 -45 12 -36 12
-36 12 0 13 0 16 -18 17 -19 0 -22 0 -22 -33 -33 -33 -32 -55 -27 -54 -27 -70
-15 -70 -15 -75 0 -75 0 -44 11 -44 10 -53 26 -52 25 -35 29 -34 28 -36 53
-37 53 -17 67 -17 67 12 57 11 56 30 47 29 46 17 54 17 53 -5 35 -6 35 -17 19
-18 19 -50 14 -51 14 -80 5 -80 4 -165 -7z"/>
</g>
</svg>
