<?xml version="1.0" standalone="no"?>
<!DOCTYPE svg PUBLIC "-//W3C//DTD SVG 20010904//EN"
 "http://www.w3.org/TR/2001/REC-SVG-20010904/DTD/svg10.dtd">
<svg version="1.0" xmlns="http://www.w3.org/2000/svg"
 width="363.000000pt" height="345.000000pt" viewBox="0 0 363.000000 345.000000"
 preserveAspectRatio="xMidYMid meet">
<metadata>
Created by potrace 1.16, written by Peter Selinger 2001-2019
</metadata>
<g transform="translate(0.000000,345.000000) scale(0.100000,-0.100000)"
fill="#000000" stroke="none">
<path d="M1300 3439 l-165 -6 -198 -8 -199 -8 7 -76 7 -76 0 -235 1 -235 -16
-75 -17 -75 -27 -54 -28 -55 -47 -33 -47 -34 -60 -11 -60 -11 -87 17 -88 17
-38 35 -38 34 -21 0 -22 0 -42 -42 -42 -43 -22 -60 -23 -60 -15 -79 -15 -80 4
-120 4 -121 27 -53 28 -53 35 -39 36 -39 60 -31 61 -30 34 0 34 0 22 11 22 12
26 27 26 28 48 8 48 7 34 -18 33 -18 19 -31 19 -31 16 -55 15 -55 10 -80 10
-80 16 -240 16 -240 14 -100 15 -100 6 -39 7 -39 111 7 111 6 300 7 300 6 70
-12 70 -12 50 -24 50 -24 18 -30 17 -29 0 -44 0 -43 -45 -95 -45 -95 0 -50 0
-50 19 -42 19 -41 29 -18 28 -19 5 -7 6 -8 59 -20 60 -21 80 -2 80 -2 42 23
42 22 28 29 28 28 19 24 18 24 24 50 24 50 0 55 0 56 -16 22 -15 22 -15 0 -14
0 -10 26 -10 25 0 39 0 38 25 30 24 29 64 21 65 21 103 10 104 10 382 3 381 3
0 15 -1 15 42 105 43 105 34 118 34 118 20 98 20 98 6 99 7 99 -13 58 -12 58
-30 35 -30 34 -40 0 -39 0 -21 -11 -21 -11 -23 -27 -22 -26 -100 -3 -99 -4
-86 16 -86 16 -78 26 -78 26 -79 42 -79 41 -52 50 -52 50 -24 45 -23 45 1 80
0 80 13 60 12 60 28 60 29 60 43 44 43 43 40 21 40 20 50 13 50 14 66 0 65 0
60 -11 59 -10 50 -16 50 -16 62 -29 62 -30 17 4 17 3 21 28 21 28 0 152 0 152
-14 300 -14 300 -2 3 -3 3 -70 -45 -70 -46 -86 -34 -86 -35 -77 -22 -78 -22
-180 -44 -179 -44 -56 -25 -55 -25 -27 -26 -28 -27 -6 -34 -7 -34 12 -39 12
-39 13 0 13 0 16 -18 17 -19 0 -32 0 -32 -33 -33 -33 -32 -55 -27 -54 -27 -75
-16 -75 -16 -105 5 -105 4 -45 18 -45 18 -52 33 -51 33 -42 55 -42 55 -19 62
-19 61 0 42 0 43 14 46 14 46 21 30 22 30 20 58 20 58 -6 32 -6 32 -24 20 -25
19 -48 10 -47 11 -65 3 -65 4 -165 -7z"/>
</g>
</svg>
