<?xml version="1.0" standalone="no"?>
<!DOCTYPE svg PUBLIC "-//W3C//DTD SVG 20010904//EN"
 "http://www.w3.org/TR/2001/REC-SVG-20010904/DTD/svg10.dtd">
<svg version="1.0" xmlns="http://www.w3.org/2000/svg"
 width="282.000000pt" height="282.000000pt" viewBox="0 0 282.000000 282.000000"
 preserveAspectRatio="xMidYMid meet">
<metadata>
Created by potrace 1.16, written by Peter Selinger 2001-2019
</metadata>
<g transform="translate(0.000000,282.000000) scale(0.100000,-0.100000)"
fill="#000000" stroke="none">
<path d="M169 2813 l-96 -4 -7 -47 -6 -47 -6 -295 -6 -295 16 -93 16 -93 25
-49 24 -48 27 -21 26 -20 35 -7 36 -7 136 44 136 44 91 0 90 0 42 -28 42 -27
24 -48 24 -47 10 -55 11 -55 6 -95 6 -95 -23 -45 -23 -45 -50 -38 -50 -38 -62
-30 -62 -30 -77 -19 -77 -20 -59 0 -59 0 -34 14 -33 14 -11 20 -11 20 -31 11
-32 11 -34 0 -35 0 -33 -33 -33 -33 -19 -60 -18 -59 1 -210 1 -210 27 -265 26
-265 6 -36 5 -36 192 -6 192 -6 230 -17 230 -16 81 5 81 5 27 17 26 17 0 30 0
31 -21 34 -21 34 -24 92 -24 92 -7 97 -6 97 17 45 17 45 31 30 31 30 46 17 46
16 121 5 122 6 55 -26 55 -25 41 -41 40 -40 20 -40 21 -39 9 -44 10 -45 -10
-39 -11 -39 -31 -43 -31 -43 -4 -62 -3 -62 31 -37 31 -38 72 -22 72 -23 460 3
459 2 9 9 9 9 -20 119 -21 118 -10 110 -10 110 -11 145 -11 145 -10 80 -10 80
-19 67 -20 67 -35 37 -35 36 -57 -4 -58 -4 -54 -39 -54 -39 -46 1 -47 1 -43
21 -42 22 -30 28 -29 28 -23 34 -23 34 -18 45 -18 44 -5 66 -5 65 11 58 11 59
26 58 26 58 36 35 37 36 60 28 60 27 96 4 97 4 83 -16 84 -17 50 -16 50 -16
18 -15 18 -16 17 10 16 11 9 29 9 29 -1 165 0 165 -20 260 -21 260 0 55 0 55
-9 14 -9 14 -38 -7 -39 -6 -344 -10 -345 -10 -79 -10 -80 -11 -52 -20 -51 -19
-29 -30 -29 -30 0 -50 0 -50 40 -77 39 -77 0 -80 0 -81 -34 -70 -34 -70 -41
-41 -41 -40 -58 -29 -58 -28 -124 2 -124 1 -78 15 -78 15 -44 23 -44 22 -20
28 -21 27 1 35 1 34 31 57 31 58 16 79 16 79 -4 92 -4 91 -24 45 -23 45 -16
13 -16 13 -60 29 -60 29 -65 10 -65 11 -220 -2 -220 -2 -96 -3z"/>
</g>
</svg>
