<?xml version="1.0" standalone="no"?>
<!DOCTYPE svg PUBLIC "-//W3C//DTD SVG 20010904//EN"
 "http://www.w3.org/TR/2001/REC-SVG-20010904/DTD/svg10.dtd">
<svg version="1.0" xmlns="http://www.w3.org/2000/svg"
 width="280.000000pt" height="280.000000pt" viewBox="0 0 280.000000 280.000000"
 preserveAspectRatio="xMidYMid meet">
<metadata>
Created by potrace 1.16, written by Peter Selinger 2001-2019
</metadata>
<g transform="translate(0.000000,280.000000) scale(0.100000,-0.100000)"
fill="#000000" stroke="none">
<path d="M169 2793 l-96 -4 -7 -47 -6 -47 -6 -285 -6 -285 16 -93 16 -93 25
-49 24 -48 26 -20 26 -21 29 -6 29 -6 128 42 128 43 106 0 105 1 42 -28 42
-27 24 -48 24 -47 10 -55 11 -55 6 -105 6 -105 -23 -45 -23 -45 -50 -38 -50
-38 -62 -30 -62 -30 -77 -19 -77 -20 -69 0 -69 0 -34 14 -33 14 -11 20 -11 20
-31 11 -32 11 -24 0 -25 0 -33 -33 -33 -33 -19 -60 -18 -59 1 -200 1 -200 27
-265 26 -265 6 -36 5 -36 192 -6 192 -6 230 -17 230 -16 72 5 71 5 26 17 26
17 0 20 0 21 -21 34 -21 34 -24 92 -24 92 -7 107 -6 107 17 45 17 45 31 30 31
30 46 17 46 16 131 5 132 6 55 -26 55 -25 41 -41 40 -40 21 -40 20 -40 11 -50
10 -49 -11 -43 -12 -43 -31 -43 -30 -43 -4 -52 -4 -53 31 -37 31 -38 72 -22
72 -23 450 3 449 2 8 8 8 8 -15 75 -14 76 -10 84 -11 84 -15 205 -15 205 -11
80 -10 80 -19 67 -20 67 -35 37 -35 37 -48 -5 -47 -5 -55 -39 -54 -39 -56 1
-55 1 -43 22 -43 22 -30 28 -29 28 -23 34 -23 34 -18 45 -18 45 -5 75 -5 75
11 58 11 59 26 58 26 58 36 35 37 36 60 28 60 27 107 4 106 4 84 -16 83 -17
50 -16 50 -16 16 -14 16 -14 12 15 12 15 8 80 8 81 -8 167 -8 168 -16 188 -15
189 0 56 0 57 -9 14 -9 14 -23 -7 -24 -6 -350 -10 -351 -10 -79 -11 -78 -11
-52 -19 -51 -19 -29 -30 -28 -29 0 -43 1 -43 39 -74 38 -74 0 -91 0 -91 -34
-70 -34 -70 -41 -41 -41 -40 -59 -29 -59 -29 -133 2 -132 2 -79 15 -78 15 -44
23 -44 22 -21 28 -21 28 1 43 1 43 32 58 31 59 16 79 16 80 -4 81 -5 81 -23
45 -23 45 -16 13 -16 13 -60 29 -60 29 -65 10 -65 11 -210 -2 -210 -2 -96 -3z"/>
</g>
</svg>
