<?xml version="1.0" standalone="no"?>
<!DOCTYPE svg PUBLIC "-//W3C//DTD SVG 20010904//EN"
 "http://www.w3.org/TR/2001/REC-SVG-20010904/DTD/svg10.dtd">
<svg version="1.0" xmlns="http://www.w3.org/2000/svg"
 width="428.000000pt" height="424.000000pt" viewBox="0 0 428.000000 424.000000"
 preserveAspectRatio="xMidYMid meet">
<metadata>
Created by potrace 1.16, written by Peter Selinger 2001-2019
</metadata>
<g transform="translate(0.000000,424.000000) scale(0.100000,-0.100000)"
fill="#000000" stroke="none">
<path d="M1970 4230 l-85 -7 -40 -13 -40 -13 -29 -20 -28 -20 -14 -33 -14 -33
0 -70 0 -69 25 -93 24 -94 25 -60 26 -60 0 -42 0 -42 -29 -30 -28 -29 -59 -12
-59 -13 -260 9 -260 9 -150 0 -150 0 3 -245 4 -245 -11 -100 -12 -100 -20 -78
-21 -77 -37 -58 -37 -57 -40 -27 -39 -27 -44 -16 -44 -15 -53 0 -53 0 -53 11
-53 12 -39 33 -40 34 -41 0 -42 0 -34 -23 -34 -23 -28 -56 -28 -57 -14 -68
-15 -68 0 -102 0 -101 19 -60 18 -60 22 -30 21 -31 36 -22 35 -21 45 5 44 5
39 35 40 36 35 6 35 7 28 -17 29 -17 21 -31 22 -32 21 -65 22 -65 54 -250 54
-250 40 -125 41 -125 47 -102 47 -102 35 0 35 0 220 14 220 15 97 0 97 0 78
-11 78 -10 52 -24 53 -24 12 -26 12 -27 -16 -42 -16 -41 -27 -70 -27 -70 -1
-85 -1 -85 21 -45 20 -45 27 -32 27 -32 69 -35 69 -34 71 -12 72 -12 102 4
101 3 58 29 58 28 39 50 40 49 20 66 20 65 0 112 0 111 -20 90 -19 90 -20 59
-21 59 0 24 0 25 28 28 29 28 44 13 44 12 86 -1 86 0 94 -16 94 -17 133 -35
134 -34 139 -51 140 -51 15 6 16 6 -6 58 -5 57 -12 214 -12 214 6 116 6 116
16 54 17 54 20 28 21 28 28 12 29 11 27 -6 28 -7 74 -37 73 -36 72 0 71 0 52
23 52 23 50 52 49 53 26 51 26 52 16 63 16 62 2 90 1 90 -30 54 -29 53 -36 29
-35 30 -60 29 -60 30 -77 12 -78 12 -67 -13 -68 -12 -74 -40 -75 -40 -23 6
-23 5 -15 31 -16 30 -11 91 -11 91 17 336 16 336 6 121 6 122 -28 6 -29 6
-150 10 -150 10 -135 0 -135 0 -110 10 -110 10 -50 11 -50 12 -30 15 -30 14
-29 31 -28 31 4 48 5 49 37 33 36 34 0 58 0 59 -30 63 -30 63 -52 52 -53 53
-45 22 -46 22 -53 10 -54 10 -66 -1 -66 -2 -85 -7z"/>
</g>
</svg>
