<?xml version="1.0" standalone="no"?>
<!DOCTYPE svg PUBLIC "-//W3C//DTD SVG 20010904//EN"
 "http://www.w3.org/TR/2001/REC-SVG-20010904/DTD/svg10.dtd">
<svg version="1.0" xmlns="http://www.w3.org/2000/svg"
 width="426.000000pt" height="422.000000pt" viewBox="0 0 426.000000 422.000000"
 preserveAspectRatio="xMidYMid meet">
<metadata>
Created by potrace 1.16, written by Peter Selinger 2001-2019
</metadata>
<g transform="translate(0.000000,422.000000) scale(0.100000,-0.100000)"
fill="#000000" stroke="none">
<path d="M1970 4210 l-85 -7 -40 -13 -40 -13 -29 -20 -28 -20 -14 -33 -14 -33
0 -60 0 -59 25 -93 24 -94 25 -60 26 -60 0 -52 0 -52 -29 -30 -28 -29 -59 -12
-59 -13 -270 9 -270 9 -140 0 -140 0 4 -245 3 -245 -11 -100 -12 -100 -20 -78
-21 -77 -37 -58 -37 -57 -40 -27 -39 -27 -44 -16 -44 -15 -63 0 -63 0 -53 11
-53 12 -39 33 -40 34 -31 0 -32 0 -34 -23 -34 -23 -28 -56 -28 -57 -14 -68
-15 -68 0 -92 0 -91 19 -60 18 -60 22 -30 21 -31 36 -22 35 -21 36 5 36 6 31
30 31 30 28 10 28 11 26 0 25 0 27 -16 27 -16 21 -31 22 -32 21 -65 22 -65 54
-250 54 -250 40 -125 40 -125 47 -100 47 -100 2 -3 2 -4 251 16 251 16 99 0
100 0 78 -11 78 -11 48 -20 48 -21 14 -21 15 -20 0 -31 0 -30 -23 -50 -24 -50
-18 -55 -18 -55 0 -70 0 -70 20 -45 20 -45 27 -32 27 -32 69 -35 69 -34 72
-12 72 -12 91 4 92 4 58 28 57 28 39 50 40 49 20 66 20 65 0 102 0 101 -20 90
-19 90 -20 59 -21 59 0 34 0 35 28 28 29 28 44 13 44 12 95 0 95 -1 95 -16 95
-17 134 -35 134 -35 136 -49 135 -50 7 8 7 7 -15 235 -14 235 4 150 5 150 17
54 17 54 20 28 21 28 29 12 28 12 37 -6 37 -6 73 -38 74 -37 62 0 62 1 52 22
52 23 50 52 49 53 26 51 26 52 16 62 16 61 1 81 2 81 -30 54 -29 53 -36 29
-35 30 -60 29 -60 30 -72 11 -72 12 -63 -12 -63 -13 -73 -39 -74 -39 -24 0
-24 0 -19 19 -20 20 -10 38 -10 38 -7 90 -6 90 16 320 16 320 6 117 6 116 -29
6 -28 6 -150 10 -150 10 -135 0 -135 0 -110 10 -110 10 -50 11 -50 12 -30 15
-30 14 -29 31 -28 31 4 58 4 58 37 34 37 34 0 48 0 49 -30 63 -30 63 -52 52
-53 53 -45 22 -46 22 -53 10 -54 10 -56 -1 -56 -2 -85 -7z"/>
</g>
</svg>
