<?xml version="1.0" standalone="no"?>
<!DOCTYPE svg PUBLIC "-//W3C//DTD SVG 20010904//EN"
 "http://www.w3.org/TR/2001/REC-SVG-20010904/DTD/svg10.dtd">
<svg version="1.0" xmlns="http://www.w3.org/2000/svg"
 width="275.000000pt" height="365.000000pt" viewBox="0 0 275.000000 365.000000"
 preserveAspectRatio="xMidYMid meet">
<metadata>
Created by potrace 1.16, written by Peter Selinger 2001-2019
</metadata>
<g transform="translate(0.000000,365.000000) scale(0.100000,-0.100000)"
fill="#000000" stroke="none">
<path d="M1247 3639 l-37 -9 -38 -19 -37 -19 -16 -18 -17 -19 -21 -42 -21 -42
-10 -72 -10 -72 10 -106 11 -106 20 -95 21 -95 14 -23 15 -22 -16 -6 -16 -7
-182 17 -182 17 -160 15 -160 14 -187 7 -188 6 0 -99 0 -98 -21 -361 -21 -360
4 -120 4 -120 12 -22 13 -23 25 0 25 0 42 24 42 24 69 21 69 21 91 1 91 0 50
-15 50 -15 55 -33 54 -33 32 -42 32 -42 10 -46 10 -45 -9 -121 -8 -121 -16
-61 -16 -62 -22 -44 -22 -45 -23 -14 -22 -14 -33 35 -32 36 -28 10 -28 11 -33
0 -33 0 -33 -22 -34 -23 -27 -55 -27 -55 -42 -175 -42 -175 -29 -105 -30 -105
-48 -100 -49 -100 -26 -28 -26 -28 0 -13 0 -13 263 -9 262 -9 235 0 235 0 53
14 53 13 34 33 35 32 0 53 0 53 -24 71 -25 71 -21 105 -22 105 -1 95 -2 95 23
43 23 44 45 20 46 20 73 5 72 6 58 -18 57 -18 52 -48 53 -48 30 -58 31 -58 18
-65 17 -65 0 -100 0 -100 -17 -65 -17 -65 -25 -68 -24 -68 0 -43 0 -43 20 -26
20 -25 48 -24 47 -23 145 1 145 0 80 13 80 13 110 24 110 24 148 42 147 41 0
24 0 23 -40 80 -40 80 -45 135 -45 135 -54 253 -54 252 -22 65 -21 65 -22 32
-21 31 -27 16 -27 16 -36 0 -37 0 -32 -14 -32 -13 -24 -26 -24 -26 -28 -6 -29
-7 -35 22 -35 21 -21 31 -22 30 -18 60 -19 60 0 81 0 82 15 68 14 68 28 57 28
56 34 23 34 23 22 0 21 0 40 -34 39 -33 53 -12 53 -11 73 0 73 0 44 15 44 16
39 27 40 27 37 57 37 58 21 77 20 78 11 90 10 90 0 101 0 101 -7 166 -6 167
-446 -3 -446 -2 -60 18 -59 19 -34 36 -34 35 5 46 5 46 36 100 37 100 -3 81
-3 80 -28 42 -27 42 -48 24 -47 24 -53 11 -53 11 -97 -1 -97 -1 -38 -9z"/>
</g>
</svg>
