<?xml version="1.0" standalone="no"?>
<!DOCTYPE svg PUBLIC "-//W3C//DTD SVG 20010904//EN"
 "http://www.w3.org/TR/2001/REC-SVG-20010904/DTD/svg10.dtd">
<svg version="1.0" xmlns="http://www.w3.org/2000/svg"
 width="273.000000pt" height="363.000000pt" viewBox="0 0 273.000000 363.000000"
 preserveAspectRatio="xMidYMid meet">
<metadata>
Created by potrace 1.16, written by Peter Selinger 2001-2019
</metadata>
<g transform="translate(0.000000,363.000000) scale(0.100000,-0.100000)"
fill="#000000" stroke="none">
<path d="M1247 3619 l-37 -9 -38 -19 -37 -19 -16 -18 -17 -19 -21 -42 -21 -42
-10 -68 -9 -68 10 -100 10 -100 20 -95 20 -95 21 -29 20 -28 -13 -9 -14 -9
-36 0 -36 0 -159 15 -159 15 -165 15 -165 15 -177 7 -178 6 0 -99 0 -98 -21
-361 -21 -360 4 -110 4 -110 13 -22 12 -23 15 0 15 0 42 24 42 24 70 21 69 22
96 1 95 1 55 -16 55 -16 55 -33 54 -33 32 -42 32 -42 10 -48 11 -48 -9 -125
-9 -126 -10 -46 -11 -47 -21 -55 -20 -56 -26 -20 -26 -20 -14 0 -14 0 -38 39
-39 40 -36 6 -36 7 -31 -12 -30 -13 -20 -25 -20 -25 -20 -46 -20 -45 -40 -171
-41 -170 -29 -105 -30 -105 -48 -100 -49 -100 -26 -28 -26 -28 0 -3 0 -3 263
-9 262 -9 225 0 225 0 53 14 53 13 34 33 35 32 0 43 0 43 -24 71 -25 71 -22
105 -21 105 -2 105 -1 105 23 43 23 44 46 20 46 20 82 6 82 5 58 -18 57 -18
52 -48 53 -48 30 -58 31 -58 18 -65 17 -65 0 -110 0 -110 -17 -65 -17 -65 -25
-68 -24 -68 0 -33 0 -33 20 -26 20 -25 48 -24 47 -23 135 1 135 0 80 13 80 13
110 24 110 24 148 42 147 41 0 14 0 13 -40 80 -40 80 -45 135 -45 135 -54 253
-54 252 -22 65 -21 65 -22 32 -21 31 -27 16 -27 16 -25 0 -26 0 -28 -11 -28
-10 -31 -30 -31 -30 -36 -6 -36 -5 -35 21 -36 22 -21 31 -22 30 -18 60 -19 60
0 91 0 92 15 68 14 68 28 57 28 56 34 23 34 23 32 0 31 0 40 -34 39 -33 53
-12 53 -11 64 0 65 0 50 19 49 19 38 30 38 30 32 54 32 53 21 75 20 75 12 120
11 120 -8 227 -7 227 -447 -2 -446 -2 -60 18 -59 19 -34 35 -34 36 5 56 4 56
37 100 37 100 -3 71 -3 71 -28 41 -27 42 -48 24 -47 24 -53 11 -53 11 -87 -1
-87 -1 -38 -9z"/>
</g>
</svg>
