<?xml version="1.0" standalone="no"?>
<!DOCTYPE svg PUBLIC "-//W3C//DTD SVG 20010904//EN"
 "http://www.w3.org/TR/2001/REC-SVG-20010904/DTD/svg10.dtd">
<svg version="1.0" xmlns="http://www.w3.org/2000/svg"
 width="344.000000pt" height="410.000000pt" viewBox="0 0 344.000000 410.000000"
 preserveAspectRatio="xMidYMid meet">
<metadata>
Created by potrace 1.16, written by Peter Selinger 2001-2019
</metadata>
<g transform="translate(0.000000,410.000000) scale(0.100000,-0.100000)"
fill="#000000" stroke="none">
<path d="M1194 4085 l-62 -13 -31 -16 -31 -16 -35 -32 -36 -31 -18 -36 -19
-36 -12 -60 -12 -60 6 -79 7 -80 24 -114 24 -114 18 -14 18 -14 -15 -10 -15
-11 -70 6 -70 6 -225 24 -225 24 -120 10 -120 11 -61 0 -61 0 -6 -217 -7 -218
-20 -215 -20 -215 0 -62 0 -62 11 -7 11 -6 31 30 32 29 85 16 85 17 130 16
130 17 82 -11 82 -11 40 -20 40 -21 25 -33 26 -33 17 -45 17 -44 0 -190 1
-190 -32 -66 -32 -65 -65 -62 -65 -62 -73 -35 -73 -35 -57 -11 -57 -11 -45 6
-45 7 -41 34 -41 34 -34 7 -33 6 -30 -7 -29 -6 -21 -22 -20 -22 -15 -31 -16
-31 -12 -68 -12 -68 5 -161 5 -161 23 -227 23 -226 11 4 11 3 345 17 345 16
80 -7 80 -7 48 -10 49 -10 34 -30 34 -30 0 -42 0 -42 -45 -88 -45 -89 0 -56 0
-56 24 -50 23 -50 31 -32 31 -31 45 -26 44 -26 58 -15 58 -15 68 0 69 0 37 19
37 19 41 45 41 44 26 44 25 44 26 65 25 65 15 60 14 60 7 57 6 57 -7 48 -7 47
-33 34 -33 34 -6 29 -7 29 7 29 6 29 17 16 18 15 39 18 40 17 100 -1 100 0 90
-17 90 -17 95 -25 95 -26 135 -50 135 -50 58 -29 57 -29 0 8 0 8 -25 225 -24
224 -10 151 -11 151 10 106 9 105 14 34 14 33 26 31 27 31 28 6 28 6 37 -8 36
-9 36 -37 35 -38 75 5 76 5 84 42 84 42 51 49 51 50 26 56 26 56 -6 122 -5
121 -16 52 -16 51 -33 48 -32 49 -59 30 -60 30 -115 0 -116 -1 -100 -23 -100
-23 -28 -19 -28 -20 -17 3 -16 3 -9 45 -8 45 6 105 6 105 24 298 25 298 0 46
0 45 -12 -5 -13 -6 -121 -50 -122 -51 -122 -35 -123 -35 -91 -15 -91 -15 -94
0 -94 0 -40 12 -39 12 -29 29 -29 29 0 43 0 44 9 24 9 24 26 28 26 27 6 35 7
36 -6 71 -5 71 -26 73 -25 73 -35 57 -35 57 -48 47 -48 47 -55 25 -55 26 -105
-1 -105 -1 -61 -13z"/>
</g>
</svg>
