<?xml version="1.0" standalone="no"?>
<!DOCTYPE svg PUBLIC "-//W3C//DTD SVG 20010904//EN"
 "http://www.w3.org/TR/2001/REC-SVG-20010904/DTD/svg10.dtd">
<svg version="1.0" xmlns="http://www.w3.org/2000/svg"
 width="346.000000pt" height="412.000000pt" viewBox="0 0 346.000000 412.000000"
 preserveAspectRatio="xMidYMid meet">
<metadata>
Created by potrace 1.16, written by Peter Selinger 2001-2019
</metadata>
<g transform="translate(0.000000,412.000000) scale(0.100000,-0.100000)"
fill="#000000" stroke="none">
<path d="M1194 4105 l-62 -13 -31 -16 -31 -16 -35 -32 -36 -31 -18 -36 -19
-36 -12 -60 -13 -60 7 -87 6 -86 25 -118 24 -117 12 -7 11 -7 -11 -7 -10 -7
-103 11 -103 10 -230 25 -230 25 -141 6 -141 7 -6 -214 -6 -214 -21 -229 -21
-228 3 -66 3 -67 19 -3 18 -4 32 30 31 29 85 16 85 17 128 16 129 16 74 -11
75 -11 39 -20 39 -20 25 -33 26 -33 17 -45 17 -44 0 -180 1 -180 -32 -66 -32
-65 -64 -61 -63 -61 -62 -31 -63 -32 -61 -15 -61 -16 -43 7 -43 6 -41 34 -41
34 -35 7 -35 6 -36 -5 -35 -6 -20 -18 -20 -18 -19 -36 -18 -36 -12 -68 -11
-67 4 -172 5 -171 23 -228 24 -228 25 5 26 5 335 17 335 16 70 -6 70 -7 53
-10 53 -11 35 -30 34 -30 0 -32 0 -32 -45 -88 -45 -89 0 -66 0 -66 24 -50 23
-50 31 -32 31 -31 45 -26 44 -26 58 -15 58 -15 78 0 79 0 37 19 37 19 41 45
41 44 26 44 25 44 26 65 25 65 15 60 14 60 7 62 7 63 -7 52 -7 51 -34 35 -33
34 -6 29 -6 28 13 28 13 28 50 25 50 25 90 -1 90 -1 90 -17 90 -17 95 -25 95
-26 110 -40 110 -40 88 -41 87 -40 6 6 7 6 -27 243 -26 243 -9 140 -10 140 9
104 9 103 21 43 20 42 23 20 22 21 20 2 20 2 27 -1 27 -1 41 -41 41 -41 84 4
84 4 85 43 85 42 51 49 51 50 26 56 26 56 -6 132 -5 131 -16 52 -16 51 -33 48
-32 49 -59 30 -60 30 -125 0 -126 0 -100 -24 -100 -23 -28 -20 -29 -20 -11 11
-12 12 2 127 1 127 26 303 26 303 0 55 0 54 -12 0 -11 0 -131 -55 -131 -54
-124 -36 -124 -35 -91 -15 -91 -15 -84 0 -84 0 -40 12 -39 12 -29 29 -29 29 0
33 0 34 9 24 9 24 26 28 26 27 6 35 7 35 -6 82 -5 81 -25 73 -26 73 -35 57
-35 57 -48 47 -48 47 -55 25 -55 26 -115 -1 -115 -1 -61 -13z"/>
</g>
</svg>
