<?xml version="1.0" standalone="no"?>
<!DOCTYPE svg PUBLIC "-//W3C//DTD SVG 20010904//EN"
 "http://www.w3.org/TR/2001/REC-SVG-20010904/DTD/svg10.dtd">
<svg version="1.0" xmlns="http://www.w3.org/2000/svg"
 width="346.000000pt" height="303.000000pt" viewBox="0 0 346.000000 303.000000"
 preserveAspectRatio="xMidYMid meet">
<metadata>
Created by potrace 1.16, written by Peter Selinger 2001-2019
</metadata>
<g transform="translate(0.000000,303.000000) scale(0.100000,-0.100000)"
fill="#000000" stroke="none">
<path d="M2595 3013 l-49 -18 -20 -34 -19 -34 10 -46 11 -46 28 -75 27 -75 5
-114 5 -114 -13 -56 -12 -56 -28 -60 -29 -60 -36 -42 -36 -42 -43 -29 -43 -30
-59 -23 -59 -23 -120 0 -120 0 -55 22 -55 22 -38 36 -37 36 0 39 0 38 30 23
30 22 10 35 10 36 0 56 0 55 -16 46 -15 46 -35 40 -34 40 -48 29 -47 29 -56
22 -55 23 -95 20 -94 20 -215 6 -216 6 -98 -8 -99 -7 7 -162 6 -161 20 -215
20 -215 0 -97 0 -97 -10 -6 -9 -6 -25 16 -25 16 -133 26 -133 26 -150 1 -150
1 -47 -22 -47 -21 -30 -42 -30 -42 -13 -36 -13 -37 0 -210 0 -210 23 -56 23
-57 42 -45 42 -45 40 -26 40 -25 65 -17 65 -17 87 6 87 6 125 42 125 43 34
-16 34 -16 23 -47 22 -46 7 -87 7 -87 -8 -105 -9 -105 -20 -119 -20 -120 -35
-150 -34 -150 7 -7 8 -8 225 -9 225 -9 137 8 136 8 86 20 86 21 48 24 47 24
29 28 29 29 13 32 14 32 0 49 0 48 -37 105 -36 104 -5 76 -4 76 11 36 12 37
45 39 44 39 64 17 64 17 138 -5 139 -5 39 -13 39 -13 35 -33 35 -33 -5 -48 -5
-49 -36 -74 -37 -74 0 -49 0 -48 21 -29 21 -30 46 -23 47 -23 50 -16 50 -16
215 -46 215 -47 130 -43 130 -42 82 -42 83 -41 5 0 5 0 0 1373 0 1372 -43 24
-42 24 -71 38 -71 39 -91 35 -91 35 -98 25 -98 26 -105 5 -105 5 -50 -18z"/>
</g>
</svg>
