<?xml version="1.0" standalone="no"?>
<!DOCTYPE svg PUBLIC "-//W3C//DTD SVG 20010904//EN"
 "http://www.w3.org/TR/2001/REC-SVG-20010904/DTD/svg10.dtd">
<svg version="1.0" xmlns="http://www.w3.org/2000/svg"
 width="348.000000pt" height="305.000000pt" viewBox="0 0 348.000000 305.000000"
 preserveAspectRatio="xMidYMid meet">
<metadata>
Created by potrace 1.16, written by Peter Selinger 2001-2019
</metadata>
<g transform="translate(0.000000,305.000000) scale(0.100000,-0.100000)"
fill="#000000" stroke="none">
<path d="M2597 3035 l-48 -16 -19 -32 -20 -32 0 -33 0 -32 21 -58 22 -57 18
-65 18 -65 0 -95 1 -95 -15 -54 -14 -53 -25 -52 -25 -52 -36 -41 -36 -42 -43
-29 -43 -30 -59 -23 -59 -23 -110 0 -110 1 -55 21 -55 22 -38 36 -37 36 0 29
0 28 30 23 30 22 10 35 10 36 0 66 0 65 -16 46 -15 46 -35 40 -34 40 -48 29
-47 29 -56 22 -55 23 -95 20 -94 20 -226 6 -225 6 -99 -8 -98 -7 6 -172 7
-171 20 -215 20 -215 0 -87 0 -88 -4 0 -4 0 -33 14 -34 14 -125 23 -125 23
-155 0 -155 1 -47 -22 -47 -21 -30 -42 -30 -42 -13 -36 -13 -37 0 -220 0 -220
23 -56 23 -57 42 -45 42 -45 40 -26 40 -25 65 -17 65 -17 96 6 97 5 120 41
121 42 30 -15 29 -15 22 -47 23 -46 6 -82 6 -81 -7 -95 -7 -95 -16 -95 -15
-95 -42 -188 -41 -188 9 -9 9 -9 230 -9 230 -10 142 9 142 8 85 20 86 21 48
24 47 24 29 28 29 29 13 32 14 32 0 59 0 58 -36 105 -37 104 -5 66 -4 66 11
36 12 37 45 39 44 39 64 17 64 17 129 -5 128 -5 39 -13 39 -13 35 -33 35 -33
-6 -40 -5 -40 -36 -72 -36 -73 0 -59 0 -58 21 -29 21 -30 46 -23 47 -23 50
-16 50 -16 215 -46 215 -47 130 -43 130 -42 82 -42 83 -41 15 0 15 0 0 1383 0
1382 -43 24 -42 24 -71 38 -71 39 -91 35 -91 35 -98 25 -98 26 -115 4 -115 5
-48 -15z"/>
</g>
</svg>
