<?xml version="1.0" standalone="no"?>
<!DOCTYPE svg PUBLIC "-//W3C//DTD SVG 20010904//EN"
 "http://www.w3.org/TR/2001/REC-SVG-20010904/DTD/svg10.dtd">
<svg version="1.0" xmlns="http://www.w3.org/2000/svg"
 width="425.000000pt" height="433.000000pt" viewBox="0 0 425.000000 433.000000"
 preserveAspectRatio="xMidYMid meet">
<metadata>
Created by potrace 1.16, written by Peter Selinger 2001-2019
</metadata>
<g transform="translate(0.000000,433.000000) scale(0.100000,-0.100000)"
fill="#000000" stroke="none">
<path d="M1848 4315 l-78 -15 -62 -25 -62 -25 -28 -27 -28 -26 -10 -32 -11
-32 10 -26 10 -26 24 -16 24 -15 11 -53 11 -52 7 -52 6 -51 -12 -51 -12 -50
-28 -44 -28 -45 -64 -35 -63 -35 -80 -18 -80 -17 -270 1 -270 1 -48 12 -48 11
-4 -4 -4 -4 10 -94 10 -95 1 -220 1 -220 -16 -78 -16 -78 -27 -60 -27 -60 -33
-28 -32 -29 -37 -12 -37 -12 -42 6 -41 7 -86 39 -86 40 -42 0 -43 0 -29 -17
-28 -17 -15 -36 -15 -37 -10 -59 -11 -59 -1 -180 -1 -180 15 -41 15 -41 21
-42 22 -41 47 -48 48 -48 54 -27 54 -27 58 0 58 0 20 22 20 23 15 18 15 17 39
0 39 0 30 -31 30 -30 16 -52 16 -52 10 -75 9 -75 1 -310 0 -310 7 -67 6 -68
36 5 36 4 280 12 280 12 100 -11 100 -11 53 -16 52 -16 35 -30 34 -30 11 -33
11 -33 -42 -124 -42 -124 -4 -110 -5 -110 31 -47 30 -47 38 -19 38 -20 60 -12
60 -13 125 -1 126 -1 68 34 67 35 26 30 26 31 30 64 30 64 5 104 5 103 -17 70
-17 70 -25 60 -24 60 0 29 0 29 25 30 24 29 58 19 58 19 135 -1 135 -1 100
-12 100 -13 208 -34 207 -34 25 0 25 0 0 11 0 12 -36 90 -36 91 -33 115 -33
116 -22 130 -22 130 4 96 5 96 24 44 24 44 27 9 27 9 128 -31 128 -31 89 -12
90 -11 110 4 111 5 56 22 56 21 41 35 41 36 30 62 31 62 11 75 11 75 -5 140
-5 140 -20 77 -21 76 -20 40 -20 40 -28 30 -28 29 -22 12 -22 11 -31 0 -31 0
-27 -14 -27 -14 -18 -20 -18 -20 -66 -12 -65 -13 -64 6 -64 5 -53 26 -54 26
-32 36 -33 35 -29 63 -29 63 -17 69 -17 69 0 274 -1 274 -11 4 -11 4 -114 -47
-114 -46 -130 -33 -130 -33 -105 -12 -105 -12 -55 7 -55 7 -42 18 -41 18 -17
26 -18 26 5 48 5 47 26 39 27 39 11 41 11 41 -5 82 -6 82 -25 71 -25 72 -33
55 -33 55 -54 55 -54 55 -75 36 -75 36 -106 3 -106 2 -77 -14z"/>
</g>
</svg>
