<?xml version="1.0" standalone="no"?>
<!DOCTYPE svg PUBLIC "-//W3C//DTD SVG 20010904//EN"
 "http://www.w3.org/TR/2001/REC-SVG-20010904/DTD/svg10.dtd">
<svg version="1.0" xmlns="http://www.w3.org/2000/svg"
 width="423.000000pt" height="431.000000pt" viewBox="0 0 423.000000 431.000000"
 preserveAspectRatio="xMidYMid meet">
<metadata>
Created by potrace 1.16, written by Peter Selinger 2001-2019
</metadata>
<g transform="translate(0.000000,431.000000) scale(0.100000,-0.100000)"
fill="#000000" stroke="none">
<path d="M1848 4295 l-77 -15 -65 -26 -66 -26 -30 -34 -30 -35 -1 -17 -1 -17
1 -15 2 -15 28 -25 28 -25 11 -45 11 -45 7 -66 7 -67 -13 -50 -12 -51 -28 -44
-28 -45 -64 -35 -63 -35 -80 -18 -80 -18 -285 2 -285 2 -34 10 -35 10 -1 -3
-2 -2 9 -80 8 -80 2 -235 1 -235 -16 -78 -16 -78 -27 -60 -27 -60 -33 -28 -32
-29 -38 -12 -37 -12 -49 5 -50 6 -87 41 -88 40 -32 0 -33 0 -29 -17 -28 -17
-15 -36 -15 -37 -10 -59 -11 -59 -1 -170 -1 -170 15 -41 15 -41 21 -42 22 -41
47 -48 48 -48 54 -27 54 -27 48 0 48 0 20 23 20 22 15 18 15 17 49 0 49 0 30
-31 30 -30 16 -52 16 -52 10 -75 9 -75 1 -310 0 -310 6 -66 7 -66 16 3 16 3
300 12 300 12 100 -11 100 -11 55 -17 54 -16 37 -37 37 -37 7 -34 6 -35 -42
-125 -41 -125 -5 -100 -5 -100 31 -47 30 -47 38 -19 38 -20 60 -12 60 -13 115
-1 116 -1 68 34 67 35 26 30 26 31 30 64 30 63 5 94 5 94 -17 70 -17 70 -25
60 -24 60 0 39 0 39 25 30 24 29 58 19 58 19 145 -1 145 -1 95 -12 95 -11 223
-37 222 -36 5 4 4 5 -35 88 -35 89 -34 116 -33 116 -22 130 -22 130 4 105 5
105 21 42 22 42 19 11 20 10 28 0 28 0 115 -29 115 -29 98 -12 98 -13 97 5 97
6 56 21 56 21 41 35 41 36 30 62 31 62 11 75 11 75 -5 130 -5 130 -21 77 -20
76 -21 42 -22 42 -33 34 -34 33 -25 7 -26 6 -25 -6 -25 -6 -33 -29 -32 -29
-63 -12 -62 -13 -74 5 -74 5 -55 26 -54 27 -32 36 -33 35 -29 63 -29 63 -17
69 -17 69 -1 275 -1 275 -14 -3 -15 -3 -110 -44 -110 -43 -122 -30 -121 -31
-108 -12 -108 -11 -60 7 -61 6 -42 19 -41 18 -17 26 -17 25 0 45 0 45 14 24
13 24 25 44 25 44 -1 95 -1 95 -26 73 -26 74 -33 55 -33 55 -54 55 -54 55 -74
36 -75 35 -96 3 -97 3 -77 -14z"/>
</g>
</svg>
