<?xml version="1.0" standalone="no"?>
<!DOCTYPE svg PUBLIC "-//W3C//DTD SVG 20010904//EN"
 "http://www.w3.org/TR/2001/REC-SVG-20010904/DTD/svg10.dtd">
<svg version="1.0" xmlns="http://www.w3.org/2000/svg"
 width="275.000000pt" height="369.000000pt" viewBox="0 0 275.000000 369.000000"
 preserveAspectRatio="xMidYMid meet">
<metadata>
Created by potrace 1.16, written by Peter Selinger 2001-2019
</metadata>
<g transform="translate(0.000000,369.000000) scale(0.100000,-0.100000)"
fill="#000000" stroke="none">
<path d="M36 3678 l-4 -13 -17 -305 -17 -305 4 -185 5 -185 13 -35 13 -35 15
-17 15 -18 29 0 29 0 48 24 47 25 65 17 64 17 90 1 90 1 72 -19 73 -18 57 -34
58 -35 44 -46 43 -45 19 -44 20 -44 6 -49 5 -48 -11 -68 -12 -67 -19 -51 -20
-52 -40 -46 -40 -47 -52 -22 -52 -22 -47 4 -48 5 -78 38 -78 38 -40 4 -40 4
-32 -20 -32 -20 -26 -51 -25 -50 -15 -64 -15 -65 -30 -203 -29 -203 -10 -52
-10 -52 -21 -82 -21 -82 -20 -51 -19 -51 0 -18 0 -17 368 2 367 2 78 -16 78
-17 58 -26 59 -27 35 -36 36 -37 17 -40 17 -40 0 -75 -1 -75 -41 -129 -42
-130 -5 -75 -5 -76 18 -35 18 -35 45 -22 45 -23 106 -6 105 -7 36 12 36 12 36
35 37 36 26 41 26 41 28 78 29 79 15 86 15 86 0 109 0 109 -16 77 -16 77 -24
57 -24 57 0 34 0 34 23 21 22 21 40 17 40 17 100 0 100 -1 95 -16 95 -17 150
-39 150 -39 130 -46 130 -47 20 -4 20 -4 12 8 13 8 -25 114 -24 115 -15 125
-16 125 -15 175 -16 175 -14 90 -14 91 -16 43 -15 44 -22 35 -21 34 -35 15
-35 14 -50 -6 -50 -7 -33 -36 -32 -35 -55 -5 -55 -4 -53 17 -54 18 -49 24 -49
25 -47 44 -48 45 -16 34 -16 33 0 86 0 85 11 53 12 53 34 34 34 34 49 -6 49
-6 71 -31 70 -31 79 -11 79 -12 61 11 60 12 37 17 37 18 45 44 44 45 34 71 34
71 19 75 19 76 11 109 11 108 0 141 0 141 -7 113 -6 112 -1349 0 -1349 0 -3
-12z"/>
</g>
</svg>
