<?xml version="1.0" standalone="no"?>
<!DOCTYPE svg PUBLIC "-//W3C//DTD SVG 20010904//EN"
 "http://www.w3.org/TR/2001/REC-SVG-20010904/DTD/svg10.dtd">
<svg version="1.0" xmlns="http://www.w3.org/2000/svg"
 width="273.000000pt" height="367.000000pt" viewBox="0 0 273.000000 367.000000"
 preserveAspectRatio="xMidYMid meet">
<metadata>
Created by potrace 1.16, written by Peter Selinger 2001-2019
</metadata>
<g transform="translate(0.000000,367.000000) scale(0.100000,-0.100000)"
fill="#000000" stroke="none">
<path d="M36 3658 l-4 -13 -17 -305 -18 -305 5 -175 5 -175 13 -35 13 -35 15
-17 15 -18 19 0 19 0 48 24 47 25 65 17 64 17 100 1 100 1 72 -19 73 -18 57
-34 58 -35 44 -46 43 -45 20 -45 20 -46 5 -57 6 -57 -12 -67 -12 -68 -19 -51
-20 -52 -40 -46 -40 -47 -52 -22 -52 -22 -56 4 -57 4 -78 38 -77 38 -32 4 -31
5 -32 -20 -32 -20 -26 -51 -25 -50 -15 -64 -15 -65 -30 -203 -29 -203 -10 -52
-10 -52 -21 -82 -21 -82 -20 -51 -19 -51 0 -8 0 -7 368 2 367 2 78 -16 78 -17
59 -27 60 -27 39 -42 38 -42 14 -39 13 -39 -1 -80 -1 -80 -41 -128 -41 -128
-6 -67 -5 -67 18 -35 18 -35 45 -22 45 -22 96 -7 96 -7 35 12 36 12 36 35 37
36 26 41 26 41 28 78 29 79 15 86 15 86 0 99 0 99 -16 77 -16 77 -25 59 -24
58 -1 40 0 39 18 21 19 21 45 20 45 21 110 -1 110 -1 95 -16 95 -17 120 -30
120 -30 124 -41 124 -40 44 -19 43 -18 13 5 14 5 -18 82 -18 82 -15 100 -16
100 -20 220 -20 220 -11 75 -10 75 -15 55 -16 55 -25 43 -25 44 -34 14 -34 14
-42 -6 -42 -7 -32 -36 -33 -35 -64 -4 -65 -4 -54 17 -53 18 -49 24 -49 25 -47
44 -48 45 -16 34 -16 33 0 96 0 95 11 53 12 53 34 34 34 34 58 -6 58 -5 71
-31 70 -31 75 -12 75 -11 56 11 57 12 36 17 36 17 45 44 44 45 34 71 34 71 19
75 19 76 11 109 11 108 0 131 0 131 -7 113 -6 112 -1339 0 -1339 0 -3 -12z"/>
</g>
</svg>
