<?xml version="1.0" standalone="no"?>
<!DOCTYPE svg PUBLIC "-//W3C//DTD SVG 20010904//EN"
 "http://www.w3.org/TR/2001/REC-SVG-20010904/DTD/svg10.dtd">
<svg version="1.0" xmlns="http://www.w3.org/2000/svg"
 width="361.000000pt" height="433.000000pt" viewBox="0 0 361.000000 433.000000"
 preserveAspectRatio="xMidYMid meet">
<metadata>
Created by potrace 1.16, written by Peter Selinger 2001-2019
</metadata>
<g transform="translate(0.000000,433.000000) scale(0.100000,-0.100000)"
fill="#000000" stroke="none">
<path d="M1180 4323 l-25 -4 -46 -15 -46 -15 -31 -30 -31 -30 -17 -45 -17 -45
6 -107 7 -107 24 -92 24 -92 21 -34 21 -34 0 -21 0 -20 -26 -17 -26 -17 -71
-5 -72 -5 -230 16 -230 17 -196 6 -196 6 -7 -114 -7 -114 -1 -285 0 -285 17
-90 16 -90 24 -54 25 -53 43 -43 43 -42 39 -13 38 -12 101 4 101 5 95 38 95
37 72 5 72 6 29 -30 29 -29 12 -52 11 -53 0 -67 0 -67 -19 -40 -18 -41 -49
-43 -48 -42 -71 -34 -70 -34 -80 -16 -80 -16 -45 6 -45 7 -20 10 -20 10 -27
26 -28 26 -57 4 -58 4 -27 -24 -27 -23 -20 -45 -19 -45 -11 -75 -10 -75 -3
-130 -3 -130 2 -320 3 -320 102 6 103 7 295 1 295 1 65 -10 65 -11 62 -20 62
-20 50 -45 50 -45 18 -52 18 -52 -1 -75 -1 -75 -13 -60 -12 -60 -34 -61 -34
-61 0 -55 0 -55 29 -40 29 -40 48 -22 48 -23 76 -5 75 -5 65 16 65 17 45 26
45 26 18 16 18 16 35 35 34 35 30 59 30 59 0 42 0 42 -18 16 -19 17 -12 0 -11
0 -10 26 -10 25 0 41 0 41 40 38 40 38 83 26 82 25 175 31 175 31 115 29 115
30 86 41 86 41 -34 131 -33 131 -26 120 -25 120 -19 135 -20 135 0 95 0 96 15
57 15 58 16 24 16 24 33 11 34 11 83 -26 83 -26 113 -20 114 -19 96 0 97 0 64
15 64 16 50 26 49 27 39 45 39 44 17 56 16 56 -6 95 -6 95 -20 63 -19 63 -27
36 -28 35 -55 25 -54 26 -102 -5 -101 -5 -129 -43 -130 -42 -47 0 -48 0 -35
21 -35 22 -25 52 -25 52 -12 80 -11 80 7 356 7 356 1 19 2 19 -470 0 -470 0
-67 23 -67 22 -31 38 -31 37 4 53 4 52 30 43 31 43 12 43 11 43 -10 49 -11 50
-20 40 -21 40 -40 40 -41 41 -51 24 -52 24 -110 -1 -110 -2 -25 -4z"/>
</g>
</svg>
