<?xml version="1.0" standalone="no"?>
<!DOCTYPE svg PUBLIC "-//W3C//DTD SVG 20010904//EN"
 "http://www.w3.org/TR/2001/REC-SVG-20010904/DTD/svg10.dtd">
<svg version="1.0" xmlns="http://www.w3.org/2000/svg"
 width="363.000000pt" height="435.000000pt" viewBox="0 0 363.000000 435.000000"
 preserveAspectRatio="xMidYMid meet">
<metadata>
Created by potrace 1.16, written by Peter Selinger 2001-2019
</metadata>
<g transform="translate(0.000000,435.000000) scale(0.100000,-0.100000)"
fill="#000000" stroke="none">
<path d="M1180 4343 l-25 -4 -46 -15 -46 -15 -31 -30 -31 -30 -17 -45 -17 -45
6 -117 6 -117 24 -90 24 -90 24 -43 24 -43 -25 -19 -25 -19 -54 -7 -53 -7
-247 17 -246 18 -201 5 -201 6 -7 -114 -7 -114 -1 -295 0 -295 16 -90 17 -90
24 -54 25 -53 43 -43 43 -42 38 -13 39 -12 111 4 111 5 95 37 95 38 62 5 62 6
29 -30 29 -29 12 -52 11 -53 0 -57 0 -57 -19 -40 -18 -41 -49 -43 -48 -42 -71
-34 -70 -34 -78 -16 -79 -16 -36 7 -37 7 -20 10 -20 9 -28 26 -28 26 -67 4
-67 4 -27 -24 -27 -23 -20 -45 -19 -45 -12 -75 -12 -75 1 -460 2 -459 2 -2 2
-1 115 8 115 8 280 0 280 1 65 -10 65 -11 62 -20 62 -20 50 -45 50 -45 18 -52
17 -52 0 -65 -1 -65 -13 -60 -12 -60 -34 -61 -34 -61 0 -65 0 -65 29 -40 29
-40 48 -23 49 -23 85 -5 85 -4 65 16 65 17 45 26 45 26 18 16 18 16 35 35 34
35 30 59 30 59 0 52 0 52 -18 16 -19 17 -12 0 -11 0 -10 26 -10 25 0 31 0 31
40 38 40 38 83 26 82 25 175 31 175 31 115 29 115 30 85 41 85 40 3 3 3 2 -45
179 -45 179 -20 105 -20 105 -16 113 -15 113 0 82 0 83 15 57 15 58 16 24 15
24 29 9 28 10 78 -24 78 -25 114 -20 114 -19 106 0 107 0 64 15 64 16 50 26
49 27 39 45 39 44 17 56 16 56 -6 105 -6 105 -19 63 -20 63 -27 36 -28 35 -54
25 -55 25 -112 -4 -111 -5 -126 -42 -126 -41 -43 0 -43 0 -33 21 -33 20 -25
52 -25 52 -12 80 -11 80 7 345 8 345 1 30 1 30 -470 0 -470 0 -67 23 -67 22
-31 38 -31 37 4 43 5 44 30 42 30 42 12 44 12 44 -7 45 -6 46 -24 51 -23 52
-42 42 -42 42 -51 24 -52 24 -120 -1 -120 -2 -25 -4z"/>
</g>
</svg>
