<?xml version="1.0" standalone="no"?>
<!DOCTYPE svg PUBLIC "-//W3C//DTD SVG 20010904//EN"
 "http://www.w3.org/TR/2001/REC-SVG-20010904/DTD/svg10.dtd">
<svg version="1.0" xmlns="http://www.w3.org/2000/svg"
 width="429.000000pt" height="320.000000pt" viewBox="0 0 429.000000 320.000000"
 preserveAspectRatio="xMidYMid meet">
<metadata>
Created by potrace 1.16, written by Peter Selinger 2001-2019
</metadata>
<g transform="translate(0.000000,320.000000) scale(0.100000,-0.100000)"
fill="#000000" stroke="none">
<path d="M2553 3190 l-41 -9 -29 -15 -29 -15 -11 -13 -11 -13 -7 -23 -7 -24 6
-33 6 -32 34 -35 33 -34 7 -47 7 -48 -6 -57 -7 -57 -14 -60 -15 -60 -25 -65
-26 -65 -25 -44 -26 -44 -41 -44 -41 -45 -37 -19 -37 -19 -69 0 -68 0 -58 15
-58 15 -44 26 -45 26 -31 31 -31 32 -23 50 -24 50 0 56 0 56 45 89 45 88 0 42
0 42 -34 30 -34 30 -49 10 -48 10 -80 7 -80 7 -345 -16 -345 -17 -13 -5 -14
-4 7 -98 6 -97 21 -275 20 -275 1 -155 2 -155 -8 -27 -7 -28 -14 0 -13 0 -18
20 -17 19 -67 23 -66 23 -115 -1 -115 0 -80 -23 -79 -22 -68 -36 -68 -36 -40
-38 -39 -38 -22 -42 -21 -43 0 -60 1 -61 15 -43 15 -42 30 -44 30 -43 37 -33
38 -33 43 -19 43 -19 43 3 42 3 15 32 15 32 41 11 42 12 37 -18 37 -17 19 -31
19 -31 20 -62 19 -62 46 -277 46 -277 28 -106 29 -106 26 -75 27 -75 47 3 47
4 285 -21 285 -20 135 -7 135 -6 84 11 84 11 19 16 18 17 0 10 0 10 -15 17
-14 16 -26 94 -26 95 -6 90 -6 91 16 55 16 55 29 40 29 39 54 30 54 30 100 0
100 0 50 -28 50 -28 32 -29 32 -29 30 -53 29 -53 16 -54 16 -55 0 -66 0 -66
-14 -54 -15 -55 -25 -55 -26 -55 0 -52 0 -53 21 -21 21 -21 47 -21 46 -20 115
0 115 1 95 17 95 16 115 29 115 29 120 41 120 42 31 10 30 10 27 97 27 96 19
90 20 90 26 190 25 190 20 117 20 117 21 55 20 56 30 30 31 30 47 0 48 0 37
-25 37 -25 29 -15 29 -15 53 0 53 0 31 19 32 19 25 34 24 33 19 50 19 50 -1
120 -1 120 -16 68 -17 67 -21 43 -22 42 -43 43 -43 42 -45 0 -44 0 -46 -35
-45 -34 -63 -17 -63 -17 -75 0 -75 -1 -30 16 -30 16 -27 29 -26 28 -15 37 -15
37 -12 78 -12 78 7 347 7 346 -26 17 -26 17 -91 40 -91 39 -133 44 -132 44
-124 25 -124 25 -85 5 -85 5 -42 -9z"/>
</g>
</svg>
