<?xml version="1.0" standalone="no"?>
<!DOCTYPE svg PUBLIC "-//W3C//DTD SVG 20010904//EN"
 "http://www.w3.org/TR/2001/REC-SVG-20010904/DTD/svg10.dtd">
<svg version="1.0" xmlns="http://www.w3.org/2000/svg"
 width="431.000000pt" height="322.000000pt" viewBox="0 0 431.000000 322.000000"
 preserveAspectRatio="xMidYMid meet">
<metadata>
Created by potrace 1.16, written by Peter Selinger 2001-2019
</metadata>
<g transform="translate(0.000000,322.000000) scale(0.100000,-0.100000)"
fill="#000000" stroke="none">
<path d="M2553 3210 l-42 -9 -23 -12 -23 -12 -17 -15 -18 -15 -6 -33 -6 -34 6
-35 7 -35 30 -28 30 -28 10 -44 10 -44 -6 -55 -7 -56 -14 -60 -15 -60 -25 -65
-26 -65 -25 -44 -26 -44 -41 -44 -41 -45 -37 -19 -37 -19 -59 0 -58 0 -58 15
-58 15 -44 26 -45 26 -31 31 -31 32 -23 50 -24 50 0 46 0 46 45 89 45 88 0 52
0 52 -34 30 -34 30 -49 11 -49 10 -90 7 -89 6 -345 -16 -345 -17 -14 -5 -13
-4 6 -108 7 -107 20 -275 21 -275 1 -145 2 -145 -8 -29 -8 -29 -22 22 -23 21
-59 21 -60 22 -130 1 -130 0 -80 -23 -79 -22 -68 -36 -68 -36 -40 -38 -39 -38
-19 -38 -19 -38 -6 -38 -6 -38 9 -55 9 -56 21 -44 22 -44 44 -49 45 -50 53
-26 54 -26 53 3 54 3 15 32 15 31 34 11 35 10 34 -16 34 -16 19 -31 19 -31 20
-62 19 -62 46 -277 46 -277 28 -106 29 -106 27 -77 28 -77 46 6 46 5 285 -21
285 -20 145 -7 145 -6 84 11 84 11 19 16 18 17 0 20 0 20 -15 17 -14 16 -26
94 -26 95 -6 80 -6 81 16 55 16 55 29 40 29 39 54 30 54 30 90 0 90 0 50 -28
50 -28 32 -29 32 -29 30 -53 29 -53 16 -54 16 -55 0 -56 0 -56 -14 -54 -15
-55 -25 -55 -26 -55 0 -62 0 -63 21 -21 21 -21 47 -21 46 -21 125 1 125 1 95
16 95 17 115 29 115 29 120 41 120 42 31 10 30 10 27 97 27 96 19 90 20 90 26
190 25 190 20 117 20 117 21 55 20 56 30 30 31 30 37 0 38 0 37 -25 37 -25 29
-15 29 -15 63 0 63 0 31 19 32 19 25 34 24 33 19 50 19 50 -1 130 -1 130 -16
68 -17 67 -21 43 -22 42 -43 43 -43 42 -55 0 -54 0 -46 -35 -45 -34 -63 -17
-63 -16 -65 -1 -65 -1 -30 16 -30 16 -27 29 -26 28 -15 37 -15 37 -12 78 -12
78 7 347 7 346 -26 17 -26 17 -91 40 -91 39 -133 44 -132 44 -124 25 -124 25
-95 5 -95 5 -42 -9z"/>
</g>
</svg>
