<?xml version="1.0" standalone="no"?>
<!DOCTYPE svg PUBLIC "-//W3C//DTD SVG 20010904//EN"
 "http://www.w3.org/TR/2001/REC-SVG-20010904/DTD/svg10.dtd">
<svg version="1.0" xmlns="http://www.w3.org/2000/svg"
 width="431.000000pt" height="391.000000pt" viewBox="0 0 431.000000 391.000000"
 preserveAspectRatio="xMidYMid meet">
<metadata>
Created by potrace 1.16, written by Peter Selinger 2001-2019
</metadata>
<g transform="translate(0.000000,391.000000) scale(0.100000,-0.100000)"
fill="#000000" stroke="none">
<path d="M2465 3895 l-40 -15 -22 -26 -23 -25 0 -32 0 -31 25 -101 24 -100 16
-106 15 -107 0 -108 0 -109 -15 -68 -14 -69 -25 -55 -26 -55 -49 -48 -49 -48
-52 -17 -52 -17 -77 4 -76 4 -46 27 -45 27 -23 26 -23 27 -26 56 -26 56 -4 89
-5 89 13 71 12 71 30 85 29 85 1 39 0 38 -19 27 -20 26 -49 27 -49 27 -70 17
-70 17 -230 5 -231 4 -194 -11 -195 -12 -9 -9 -9 -9 21 -273 22 -273 11 -184
11 -184 -4 -109 -5 -109 -11 -11 -11 -11 -14 12 -15 12 -108 25 -109 25 -125
6 -125 5 -70 -16 -69 -17 -47 -30 -47 -30 -27 -40 -26 -41 -12 -54 -11 -54 11
-76 11 -76 28 -56 29 -55 39 -20 39 -20 45 12 45 12 43 30 42 31 45 5 45 5 31
-21 30 -21 24 -53 24 -52 17 -68 16 -67 31 -187 30 -188 25 -119 25 -119 36
-106 36 -106 11 -33 11 -34 165 7 165 6 220 21 220 20 80 7 80 7 17 -4 18 -4
-23 -28 -23 -27 -25 -149 -24 -149 0 -170 0 -170 19 -59 20 -59 30 -40 31 -40
46 -28 45 -29 65 -16 64 -17 140 -1 140 0 60 18 60 17 40 28 40 27 22 34 23
33 15 50 15 51 0 79 0 79 -20 96 -19 97 -21 59 -20 59 0 37 0 37 21 27 21 26
31 17 32 16 55 15 55 15 408 4 408 5 -2 446 -1 447 12 75 12 75 19 45 20 45
27 23 27 24 58 -4 57 -4 28 -26 27 -26 20 -10 20 -10 45 -7 45 -6 80 16 80 16
70 34 71 34 48 42 49 43 18 41 19 40 0 67 0 67 -11 53 -12 52 -29 29 -29 30
-72 -6 -72 -5 -95 -37 -95 -38 -101 -5 -101 -4 -38 12 -39 13 -43 42 -43 43
-25 53 -24 54 -17 90 -16 90 1 320 2 320 7 83 8 82 -13 0 -12 0 -108 44 -108
44 -110 35 -110 35 -120 27 -120 27 -130 4 -130 4 -40 -15z"/>
</g>
</svg>
