<?xml version="1.0" standalone="no"?>
<!DOCTYPE svg PUBLIC "-//W3C//DTD SVG 20010904//EN"
 "http://www.w3.org/TR/2001/REC-SVG-20010904/DTD/svg10.dtd">
<svg version="1.0" xmlns="http://www.w3.org/2000/svg"
 width="433.000000pt" height="393.000000pt" viewBox="0 0 433.000000 393.000000"
 preserveAspectRatio="xMidYMid meet">
<metadata>
Created by potrace 1.16, written by Peter Selinger 2001-2019
</metadata>
<g transform="translate(0.000000,393.000000) scale(0.100000,-0.100000)"
fill="#000000" stroke="none">
<path d="M2465 3915 l-40 -15 -22 -26 -23 -25 0 -42 0 -41 25 -101 24 -100 16
-106 15 -107 0 -98 0 -99 -15 -68 -14 -69 -25 -55 -26 -55 -49 -48 -49 -48
-52 -17 -53 -17 -67 4 -66 5 -45 26 -45 27 -23 26 -23 27 -26 56 -26 56 -4 79
-5 79 13 71 13 71 30 90 30 90 0 43 0 43 -20 27 -20 27 -49 27 -49 27 -70 17
-70 17 -238 5 -238 4 -197 -11 -196 -11 -10 -10 -10 -10 22 -288 22 -287 11
-175 11 -175 -4 -103 -5 -102 -4 -4 -4 -5 -66 19 -67 18 -93 16 -93 16 -100 0
-101 0 -65 -16 -65 -15 -46 -30 -47 -30 -26 -39 -25 -39 -12 -46 -12 -47 6
-77 6 -78 21 -56 21 -57 30 -30 30 -29 35 -7 36 -7 41 13 42 12 41 29 40 30
36 6 37 5 30 -21 30 -21 24 -53 24 -52 17 -68 16 -67 31 -187 30 -188 25 -119
25 -119 36 -106 36 -106 11 -33 11 -34 180 7 180 7 210 19 210 20 84 6 83 6
-15 -24 -15 -24 -23 -140 -23 -140 -1 -185 0 -185 19 -59 20 -59 30 -40 31
-40 46 -28 45 -29 65 -16 64 -17 150 -1 150 0 60 18 60 17 40 28 40 27 22 34
23 33 15 50 15 51 0 89 0 89 -20 96 -19 97 -21 59 -20 59 0 27 0 27 21 27 21
26 31 17 32 16 55 15 55 15 408 4 408 5 -2 451 -1 452 15 81 15 81 17 34 17
34 27 23 26 24 48 -5 48 -4 27 -25 27 -26 21 -10 21 -11 50 -7 51 -6 83 17 84
16 70 34 71 34 48 42 49 43 18 41 19 40 0 77 0 77 -11 53 -12 52 -29 29 -29
29 -82 -4 -82 -5 -95 -38 -95 -38 -91 -5 -91 -5 -38 13 -39 13 -41 41 -42 41
-22 42 -21 43 -16 67 -16 68 -7 134 -8 134 8 276 7 276 7 28 7 27 -15 0 -16 0
-108 44 -108 44 -110 35 -110 35 -120 27 -120 27 -140 4 -140 4 -40 -15z"/>
</g>
</svg>
