<?xml version="1.0" standalone="no"?>
<!DOCTYPE svg PUBLIC "-//W3C//DTD SVG 20010904//EN"
 "http://www.w3.org/TR/2001/REC-SVG-20010904/DTD/svg10.dtd">
<svg version="1.0" xmlns="http://www.w3.org/2000/svg"
 width="283.000000pt" height="300.000000pt" viewBox="0 0 283.000000 300.000000"
 preserveAspectRatio="xMidYMid meet">
<metadata>
Created by potrace 1.16, written by Peter Selinger 2001-2019
</metadata>
<g transform="translate(0.000000,300.000000) scale(0.100000,-0.100000)"
fill="#000000" stroke="none">
<path d="M1772 2989 l-53 -9 -29 -15 -29 -15 -15 -22 -16 -22 0 -42 0 -41 21
-59 20 -59 19 -90 20 -90 0 -91 0 -92 -20 -65 -20 -66 -40 -49 -39 -50 -57
-28 -57 -28 -82 -4 -82 -4 -72 12 -72 12 -69 34 -69 35 -27 32 -27 32 -20 44
-19 45 0 61 0 62 17 54 18 54 24 50 23 50 0 40 0 41 -15 20 -14 21 -48 21 -48
20 -78 11 -78 11 -117 0 -117 0 -220 -15 -220 -14 -16 -1 -16 0 -7 -147 -6
-148 -10 -240 -11 -240 10 -130 10 -130 16 -53 16 -53 27 -30 27 -30 36 -5 37
-6 81 37 82 36 75 16 76 15 73 -11 73 -11 56 -20 56 -21 47 -33 48 -33 33 -54
34 -54 -5 -57 -5 -57 -25 -53 -24 -54 -31 -35 -31 -35 -65 -34 -66 -33 -53 0
-54 0 -29 16 -29 15 -49 26 -49 26 -50 0 -50 0 -32 -35 -33 -35 -21 -62 -20
-63 -10 -60 -11 -60 -25 -210 -25 -210 -20 -110 -19 -111 -26 -88 -26 -89 8
-8 8 -8 340 -7 340 -7 88 12 88 12 62 20 62 19 40 28 40 28 23 42 23 42 6 55
6 54 -12 58 -11 58 -35 80 -35 80 0 30 0 31 15 21 16 22 51 16 52 15 131 0
131 0 57 -15 58 -15 39 -20 40 -21 31 -42 31 -42 -5 -47 -4 -46 -33 -53 -34
-52 -4 -60 -5 -61 18 -32 17 -32 52 -26 51 -26 75 -14 75 -15 257 -20 256 -21
78 -11 79 -10 68 -16 68 -15 3 4 4 3 25 145 26 145 18 115 17 115 1 205 0 205
-26 56 -26 55 -37 18 -38 18 -50 -7 -51 -7 -31 -30 -31 -30 -23 -9 -23 -9 -35
0 -35 0 -62 21 -62 21 -65 43 -65 44 -33 40 -33 41 -26 52 -27 53 -4 88 -4 88
12 62 12 62 19 36 18 36 33 28 32 27 56 -4 55 -4 85 -38 85 -38 66 -1 65 -1
35 24 34 25 17 20 18 20 20 53 20 53 16 92 16 92 1 175 2 175 -9 197 -8 197
-106 41 -106 41 -110 34 -111 33 -115 26 -115 25 -104 11 -103 10 -22 -1 -21
-1 -53 -9z"/>
</g>
</svg>
