<?xml version="1.0" standalone="no"?>
<!DOCTYPE svg PUBLIC "-//W3C//DTD SVG 20010904//EN"
 "http://www.w3.org/TR/2001/REC-SVG-20010904/DTD/svg10.dtd">
<svg version="1.0" xmlns="http://www.w3.org/2000/svg"
 width="281.000000pt" height="298.000000pt" viewBox="0 0 281.000000 298.000000"
 preserveAspectRatio="xMidYMid meet">
<metadata>
Created by potrace 1.16, written by Peter Selinger 2001-2019
</metadata>
<g transform="translate(0.000000,298.000000) scale(0.100000,-0.100000)"
fill="#000000" stroke="none">
<path d="M1772 2969 l-53 -9 -29 -15 -29 -15 -15 -22 -16 -22 0 -32 0 -31 21
-59 20 -59 19 -90 20 -90 0 -101 0 -102 -20 -65 -20 -66 -40 -49 -39 -50 -57
-28 -58 -28 -92 -4 -91 -4 -72 12 -72 12 -69 34 -69 35 -27 32 -27 32 -20 45
-20 45 0 70 0 70 18 55 18 55 24 50 23 50 0 30 0 31 -15 20 -14 21 -48 21 -48
20 -78 11 -78 11 -107 0 -107 0 -220 -15 -220 -14 -16 -1 -16 0 -7 -147 -6
-148 -10 -233 -10 -233 10 -127 9 -127 16 -52 15 -52 26 -30 25 -30 29 -6 29
-6 81 36 81 36 77 16 77 16 80 -11 80 -10 57 -22 58 -21 47 -33 48 -33 33 -54
34 -54 -5 -66 -4 -66 -25 -54 -25 -54 -27 -32 -27 -32 -53 -30 -52 -30 -50
-11 -50 -11 -46 10 -46 11 -51 31 -51 32 -50 5 -50 5 -34 -36 -34 -37 -21 -62
-20 -63 -10 -60 -11 -60 -25 -210 -25 -210 -20 -110 -19 -111 -24 -82 -24 -83
7 -4 6 -4 330 -7 329 -7 88 12 88 12 62 20 62 19 40 28 40 28 22 39 22 40 7
44 7 45 -11 60 -12 61 -35 80 -35 80 0 40 0 41 15 21 16 22 51 16 52 15 141 0
141 0 57 -15 58 -15 39 -20 40 -21 31 -42 31 -42 -4 -56 -4 -56 -34 -52 -33
-53 -5 -50 -5 -51 18 -32 17 -33 52 -26 51 -26 75 -14 75 -15 260 -21 260 -20
100 -15 101 -15 34 -10 34 -10 2 3 2 2 25 145 26 145 18 115 17 115 1 195 0
195 -26 56 -26 55 -36 17 -36 17 -42 -6 -42 -7 -31 -30 -31 -29 -23 -9 -23 -9
-45 0 -45 0 -62 21 -62 21 -65 43 -65 44 -33 40 -33 41 -26 52 -27 53 -4 98
-4 98 12 62 12 62 19 36 18 36 33 28 32 27 65 -4 66 -4 85 -38 85 -38 56 -1
56 0 34 24 34 24 17 20 18 20 20 53 20 53 16 91 16 91 1 166 2 166 -9 197 -8
197 -106 41 -106 41 -110 34 -111 33 -115 26 -115 25 -104 11 -103 10 -12 -1
-11 -1 -53 -9z"/>
</g>
</svg>
