<?xml version="1.0" standalone="no"?>
<!DOCTYPE svg PUBLIC "-//W3C//DTD SVG 20010904//EN"
 "http://www.w3.org/TR/2001/REC-SVG-20010904/DTD/svg10.dtd">
<svg version="1.0" xmlns="http://www.w3.org/2000/svg"
 width="356.000000pt" height="297.000000pt" viewBox="0 0 356.000000 297.000000"
 preserveAspectRatio="xMidYMid meet">
<metadata>
Created by potrace 1.16, written by Peter Selinger 2001-2019
</metadata>
<g transform="translate(0.000000,297.000000) scale(0.100000,-0.100000)"
fill="#000000" stroke="none">
<path d="M1997 2960 l-38 -10 -29 -15 -29 -15 -15 -22 -16 -22 0 -43 0 -43 25
-87 26 -87 14 -91 15 -90 0 -62 0 -62 -11 -53 -11 -53 -24 -47 -24 -47 -35
-36 -36 -35 -37 -19 -38 -19 -59 -18 -60 -17 -135 0 -135 1 -65 12 -65 12 -42
18 -42 19 -35 34 -35 35 -6 36 -7 36 7 38 7 37 36 90 35 90 1 75 1 75 -22 42
-22 41 -38 31 -37 30 -70 25 -71 25 -65 13 -65 12 -215 0 -215 0 -77 -8 -76
-8 -5 -21 -6 -22 -7 -365 -7 -365 12 -80 12 -80 25 -52 25 -52 36 -22 36 -22
56 0 56 0 130 43 130 43 91 5 92 5 54 -25 55 -26 28 -35 27 -36 19 -62 19 -62
7 -86 6 -87 -16 -55 -17 -56 -39 -44 -39 -45 -49 -27 -50 -26 -64 -16 -64 -15
-90 0 -90 1 -107 18 -108 19 -90 27 -90 28 -39 -11 -39 -12 -16 -25 -16 -24
-15 -58 -15 -57 0 -106 0 -105 20 -135 19 -135 25 -120 26 -120 33 -130 33
-130 130 -8 129 -8 265 5 265 5 55 11 55 11 65 21 65 21 25 15 25 16 33 30 34
31 13 25 13 25 6 40 7 40 -10 53 -11 53 -31 72 -32 72 -5 47 -5 48 40 39 39
39 44 13 45 12 100 0 100 0 64 -17 65 -17 40 -22 40 -22 23 -34 23 -34 10 -38
11 -38 -15 -64 -15 -64 -26 -59 -26 -59 -6 -42 -6 -42 7 -25 6 -24 26 -31 25
-31 66 -20 66 -20 146 -10 146 -10 283 -3 282 -2 5 16 5 16 -39 105 -39 105
-36 124 -36 124 -19 90 -19 90 -13 99 -12 98 6 70 6 69 18 36 18 37 28 20 27
20 38 -11 37 -12 84 -26 85 -25 70 -11 71 -11 80 5 81 6 56 21 56 21 45 40 46
40 28 57 28 57 4 118 3 118 -12 82 -12 82 -19 45 -20 45 -21 22 -21 23 -50 0
-49 0 -37 -29 -36 -28 -35 -11 -35 -10 -41 -6 -41 -6 -54 16 -54 16 -46 48
-47 47 -21 58 -22 58 -17 71 -16 71 1 335 2 335 -32 12 -32 12 -160 55 -160
55 -110 21 -110 21 -110 4 -110 4 -38 -9z"/>
</g>
</svg>
