<?xml version="1.0" standalone="no"?>
<!DOCTYPE svg PUBLIC "-//W3C//DTD SVG 20010904//EN"
 "http://www.w3.org/TR/2001/REC-SVG-20010904/DTD/svg10.dtd">
<svg version="1.0" xmlns="http://www.w3.org/2000/svg"
 width="354.000000pt" height="295.000000pt" viewBox="0 0 354.000000 295.000000"
 preserveAspectRatio="xMidYMid meet">
<metadata>
Created by potrace 1.16, written by Peter Selinger 2001-2019
</metadata>
<g transform="translate(0.000000,295.000000) scale(0.100000,-0.100000)"
fill="#000000" stroke="none">
<path d="M1997 2940 l-38 -10 -29 -15 -29 -15 -15 -22 -16 -22 0 -33 0 -33 25
-87 26 -87 14 -91 15 -90 0 -72 0 -72 -11 -53 -11 -53 -24 -47 -24 -47 -35
-36 -36 -35 -37 -19 -38 -19 -59 -18 -60 -17 -145 0 -145 0 -65 12 -65 13 -42
18 -42 19 -35 34 -35 35 -7 37 -7 37 6 43 7 44 36 93 37 93 1 65 0 65 -22 42
-21 41 -38 31 -37 30 -70 25 -71 25 -65 13 -65 12 -205 0 -205 0 -77 -8 -76
-8 -5 -21 -6 -22 -7 -355 -6 -355 11 -80 12 -80 25 -52 25 -52 35 -22 35 -21
48 0 47 0 130 42 129 43 101 5 102 5 54 -26 55 -25 28 -35 27 -36 19 -63 20
-63 6 -95 6 -95 -16 -56 -17 -56 -39 -44 -39 -45 -49 -27 -50 -26 -64 -16 -64
-15 -97 0 -96 0 -114 19 -113 20 -83 26 -83 26 -34 -11 -33 -11 -16 -24 -16
-24 -15 -58 -15 -57 0 -96 0 -95 20 -135 19 -135 25 -120 26 -120 33 -130 33
-130 130 -8 129 -8 255 5 255 5 55 11 55 11 65 21 65 21 25 15 25 16 33 30 34
31 16 30 15 30 0 60 -1 60 -15 40 -16 40 -25 60 -26 60 0 49 0 48 38 38 38 38
44 13 45 12 110 0 110 0 64 -17 65 -17 40 -22 40 -22 23 -34 23 -34 11 -40 11
-41 -12 -60 -12 -61 -29 -70 -29 -70 -6 -32 -6 -32 6 -25 6 -24 26 -31 25 -31
66 -20 66 -20 146 -10 146 -10 272 -3 271 -2 -5 8 -4 7 10 0 10 0 -25 68 -26
67 -30 90 -29 90 -34 130 -34 130 -15 113 -16 113 0 64 0 64 11 53 12 53 32
32 33 33 31 0 30 0 50 -20 50 -19 83 -23 83 -22 115 0 115 0 56 22 57 23 45
40 46 40 28 57 28 57 4 108 3 107 -12 83 -12 82 -19 45 -20 45 -21 22 -21 23
-40 0 -39 0 -37 -29 -36 -28 -35 -11 -35 -10 -48 -7 -47 -6 -58 16 -57 17 -46
48 -47 47 -21 58 -22 58 -17 71 -17 71 2 335 2 336 -32 11 -32 12 -160 55
-160 55 -109 20 -109 21 -101 5 -101 4 -38 -9z"/>
</g>
</svg>
