<?xml version="1.0" standalone="no"?>
<!DOCTYPE svg PUBLIC "-//W3C//DTD SVG 20010904//EN"
 "http://www.w3.org/TR/2001/REC-SVG-20010904/DTD/svg10.dtd">
<svg version="1.0" xmlns="http://www.w3.org/2000/svg"
 width="275.000000pt" height="372.000000pt" viewBox="0 0 275.000000 372.000000"
 preserveAspectRatio="xMidYMid meet">
<metadata>
Created by potrace 1.16, written by Peter Selinger 2001-2019
</metadata>
<g transform="translate(0.000000,372.000000) scale(0.100000,-0.100000)"
fill="#000000" stroke="none">
<path d="M1780 3707 l-55 -13 -33 -18 -34 -17 -14 -36 -15 -35 6 -32 7 -31 28
-40 28 -41 12 -44 12 -45 -6 -66 -6 -65 -20 -59 -20 -58 -26 -44 -26 -44 -50
-51 -50 -50 -46 -21 -47 -20 -70 -5 -70 -4 -69 16 -69 17 -33 19 -32 20 -12
30 -12 30 6 25 6 25 30 33 30 34 11 53 11 53 -4 71 -5 71 -21 42 -22 42 -34
35 -35 34 -54 26 -55 26 -58 15 -57 15 -86 11 -86 12 -308 -5 -307 -5 -4 -4
-4 -4 -7 -350 -7 -350 12 -78 12 -78 15 -37 15 -37 26 -28 27 -29 30 -16 30
-16 75 1 75 0 63 17 63 17 45 34 46 35 44 0 45 0 43 -42 43 -43 22 -42 21 -43
17 -67 16 -68 1 -120 1 -120 -19 -50 -19 -50 -24 -33 -25 -34 -32 -19 -31 -19
-53 0 -53 0 -29 15 -29 15 -37 25 -37 25 -48 0 -47 0 -31 -30 -30 -30 -20 -56
-21 -55 -20 -117 -19 -117 -30 -215 -30 -216 -37 -139 -36 -140 -5 -23 -6 -24
64 6 64 6 200 10 200 11 110 -10 110 -10 50 -15 50 -16 33 -20 33 -20 16 -38
15 -37 -10 -40 -11 -40 -33 -90 -32 -90 -1 -100 0 -100 23 -52 24 -51 54 -50
55 -51 56 -21 56 -21 50 -11 49 -10 107 4 106 4 50 26 50 26 40 39 40 39 26
33 27 32 32 66 31 66 20 75 19 75 0 69 0 69 -14 32 -13 32 -27 39 -26 39 0 45
0 45 34 32 35 32 48 13 48 12 85 5 85 5 125 -12 125 -12 178 -29 177 -29 16 0
16 0 -5 17 -6 18 -40 115 -39 115 -26 120 -25 120 -30 188 -31 187 -16 67 -17
68 -24 52 -24 53 -30 21 -31 21 -45 -5 -45 -5 -42 -31 -43 -30 -45 -12 -45
-12 -39 20 -39 20 -29 55 -28 56 -11 76 -11 76 11 54 12 54 26 41 27 40 47 30
47 30 69 17 70 16 125 -5 125 -6 109 -25 108 -25 15 -12 14 -12 11 11 12 12 4
112 4 113 -11 175 -11 175 -22 287 -22 288 -16 4 -15 5 -130 25 -130 25 -140
21 -140 21 -140 4 -140 5 -55 -13z"/>
</g>
</svg>
