<?xml version="1.0" standalone="no"?>
<!DOCTYPE svg PUBLIC "-//W3C//DTD SVG 20010904//EN"
 "http://www.w3.org/TR/2001/REC-SVG-20010904/DTD/svg10.dtd">
<svg version="1.0" xmlns="http://www.w3.org/2000/svg"
 width="277.000000pt" height="374.000000pt" viewBox="0 0 277.000000 374.000000"
 preserveAspectRatio="xMidYMid meet">
<metadata>
Created by potrace 1.16, written by Peter Selinger 2001-2019
</metadata>
<g transform="translate(0.000000,374.000000) scale(0.100000,-0.100000)"
fill="#000000" stroke="none">
<path d="M1780 3727 l-55 -13 -33 -18 -34 -17 -15 -37 -15 -36 6 -40 7 -41 28
-40 29 -41 12 -44 12 -45 -6 -57 -7 -58 -20 -57 -19 -56 -26 -44 -26 -44 -50
-51 -50 -50 -46 -20 -46 -21 -60 -4 -61 -5 -69 16 -69 17 -33 19 -32 20 -12
29 -12 29 15 28 15 29 20 19 21 18 12 56 11 56 -4 81 -5 80 -21 42 -22 42 -34
35 -35 34 -54 26 -55 26 -58 15 -57 15 -86 11 -86 12 -317 -5 -318 -5 -4 -4
-4 -4 -7 -360 -7 -360 12 -78 12 -78 15 -37 15 -37 26 -28 27 -29 30 -16 30
-16 85 0 85 1 63 17 63 17 45 34 46 35 34 0 35 0 43 -42 43 -43 22 -42 21 -43
17 -67 16 -68 1 -110 1 -110 -19 -50 -19 -50 -24 -33 -25 -34 -32 -19 -31 -19
-43 0 -43 0 -29 15 -29 15 -37 25 -37 25 -58 0 -57 0 -31 -30 -30 -30 -20 -56
-21 -55 -20 -117 -19 -117 -30 -215 -30 -216 -37 -139 -36 -140 -5 -34 -5 -33
78 6 79 6 187 10 187 10 108 -9 108 -10 50 -15 50 -16 33 -20 33 -20 15 -37
15 -36 -16 -46 -16 -46 -27 -75 -26 -75 0 -110 -1 -110 23 -52 24 -51 54 -50
55 -51 56 -21 56 -21 49 -10 50 -11 116 4 117 4 50 26 50 26 40 39 40 39 26
33 27 32 32 66 31 66 20 75 19 75 0 79 0 79 -14 32 -13 32 -27 39 -26 39 0 35
0 35 34 32 35 32 48 13 48 12 75 5 75 5 125 -12 125 -12 178 -29 177 -29 26 0
26 0 -5 28 -6 27 -39 115 -40 115 -26 120 -25 120 -30 188 -31 187 -16 67 -17
68 -24 52 -24 53 -30 21 -30 21 -55 -4 -54 -5 -43 -30 -42 -30 -38 -12 -37
-13 -38 20 -37 19 -28 55 -28 54 -11 72 -12 72 12 50 12 50 26 40 26 39 47 30
47 30 69 17 70 16 115 -5 115 -6 106 -25 107 -24 20 -13 19 -12 15 6 15 5 6
39 7 38 0 115 0 115 -14 210 -14 210 -18 227 -18 228 -15 4 -16 5 -130 25
-130 25 -140 21 -140 21 -150 4 -150 5 -55 -13z"/>
</g>
</svg>
