<?xml version="1.0" standalone="no"?>
<!DOCTYPE svg PUBLIC "-//W3C//DTD SVG 20010904//EN"
 "http://www.w3.org/TR/2001/REC-SVG-20010904/DTD/svg10.dtd">
<svg version="1.0" xmlns="http://www.w3.org/2000/svg"
 width="345.000000pt" height="366.000000pt" viewBox="0 0 345.000000 366.000000"
 preserveAspectRatio="xMidYMid meet">
<metadata>
Created by potrace 1.16, written by Peter Selinger 2001-2019
</metadata>
<g transform="translate(0.000000,366.000000) scale(0.100000,-0.100000)"
fill="#000000" stroke="none">
<path d="M2018 3650 l-47 -8 -51 -28 -52 -28 -53 -58 -54 -58 -30 -63 -30 -63
-16 -59 -15 -59 0 -87 0 -86 12 -34 11 -34 30 -43 29 -44 5 -38 5 -38 -20 -20
-21 -21 -38 -11 -38 -11 -90 -5 -90 -6 -271 16 -271 16 -97 0 -97 0 -6 -17 -7
-17 12 -215 12 -216 16 -252 16 -252 -6 -65 -7 -64 -14 -18 -13 -19 -19 17
-18 16 -125 28 -125 27 -125 1 -125 1 -39 -14 -39 -13 -38 -35 -39 -35 -17
-57 -17 -56 0 -105 0 -105 24 -53 23 -53 40 -34 40 -35 56 -22 56 -22 130 0
130 -1 84 18 83 18 80 25 80 26 30 -13 29 -12 21 -41 22 -41 4 -92 4 -92 -16
-116 -17 -115 -39 -153 -39 -152 -56 -164 -57 -163 11 -8 12 -7 166 -6 166 -7
206 0 206 0 96 15 97 14 51 20 52 20 44 35 43 36 18 45 17 45 -5 64 -5 63 -14
25 -14 25 -25 44 -25 44 0 80 0 80 33 69 33 70 36 44 36 44 51 24 51 24 27 0
27 0 58 -22 58 -21 56 -56 56 -56 31 -67 32 -66 6 -45 7 -45 -7 -35 -6 -35
-26 -27 -26 -28 -9 -24 -9 -24 0 -55 0 -55 17 -25 16 -25 48 -25 49 -24 72
-16 73 -15 264 -30 264 -30 116 -26 116 -25 36 -5 36 -5 8 369 7 368 -11 83
-11 83 -12 41 -12 40 -37 39 -37 39 -45 0 -44 0 -34 -12 -34 -12 -18 -22 -18
-23 -34 -10 -35 -9 -38 10 -37 10 -41 23 -40 24 -43 46 -43 46 -31 67 -32 67
0 170 1 170 22 81 23 80 24 30 23 29 18 -32 19 -32 70 -18 70 -17 100 0 100
-1 47 23 47 23 30 34 29 33 20 55 20 54 11 77 11 77 0 133 0 133 -7 196 -6
195 -26 6 -26 6 -185 10 -185 10 -235 10 -235 10 -63 15 -63 15 -39 20 -39 20
-15 22 -16 22 0 41 0 40 19 35 20 35 20 40 21 40 0 71 0 70 -16 55 -16 54 -23
45 -23 45 -41 47 -41 46 -43 20 -42 20 -40 5 -40 5 -47 -8z"/>
</g>
</svg>
