<?xml version="1.0" standalone="no"?>
<!DOCTYPE svg PUBLIC "-//W3C//DTD SVG 20010904//EN"
 "http://www.w3.org/TR/2001/REC-SVG-20010904/DTD/svg10.dtd">
<svg version="1.0" xmlns="http://www.w3.org/2000/svg"
 width="343.000000pt" height="364.000000pt" viewBox="0 0 343.000000 364.000000"
 preserveAspectRatio="xMidYMid meet">
<metadata>
Created by potrace 1.16, written by Peter Selinger 2001-2019
</metadata>
<g transform="translate(0.000000,364.000000) scale(0.100000,-0.100000)"
fill="#000000" stroke="none">
<path d="M2018 3629 l-47 -7 -51 -28 -52 -28 -53 -58 -54 -58 -30 -63 -30 -63
-16 -59 -15 -59 0 -77 0 -76 12 -34 11 -34 30 -44 30 -44 5 -48 4 -47 -20 -20
-21 -21 -38 -11 -38 -11 -100 -6 -100 -5 -271 16 -271 16 -87 0 -87 0 -6 -16
-6 -17 11 -201 11 -201 17 -265 17 -265 -7 -67 -8 -68 -16 -21 -17 -20 -26 19
-25 20 -125 28 -124 27 -115 1 -115 1 -39 -14 -39 -13 -38 -35 -39 -35 -17
-57 -16 -56 0 -95 0 -95 23 -53 23 -53 40 -34 40 -35 56 -21 56 -21 85 -5 85
-5 95 16 95 15 90 27 90 27 23 4 22 5 31 -12 30 -13 21 -41 22 -41 4 -103 4
-102 -16 -115 -17 -115 -39 -153 -39 -152 -54 -157 -55 -157 16 -6 15 -6 336
-6 336 -6 100 12 99 13 63 19 62 19 49 40 50 39 17 45 18 46 -6 55 -5 54 -14
24 -13 24 -25 44 -25 44 0 90 0 90 33 69 33 70 36 44 36 44 51 24 51 24 37 0
37 0 58 -22 58 -21 56 -56 56 -56 32 -68 33 -68 5 -54 6 -53 -7 -35 -6 -35
-26 -27 -26 -28 -9 -24 -9 -24 0 -45 0 -45 17 -25 16 -25 48 -25 49 -24 72
-16 73 -15 264 -30 264 -30 116 -25 116 -26 26 -5 26 -5 7 364 7 363 -10 78
-11 79 -12 40 -12 40 -37 39 -37 39 -35 0 -34 0 -34 -12 -34 -12 -18 -23 -18
-23 -40 -10 -39 -11 -42 11 -43 12 -41 23 -40 24 -43 46 -43 46 -30 64 -30 64
-6 68 -7 68 7 116 6 116 22 79 21 79 26 33 25 33 19 -17 18 -17 6 -17 6 -18
72 -18 72 -18 90 0 90 0 47 22 47 23 30 34 29 33 20 55 21 55 12 89 12 88 -7
305 -7 305 -3 2 -2 3 -72 10 -72 10 -307 10 -308 10 -65 6 -65 6 -63 14 -62
14 -40 20 -39 20 -15 22 -16 22 0 51 0 50 19 35 20 35 20 40 21 40 0 61 0 60
-16 55 -16 54 -23 45 -23 45 -41 47 -41 46 -43 20 -42 20 -30 4 -30 5 -47 -8z"/>
</g>
</svg>
