<?xml version="1.0" standalone="no"?>
<!DOCTYPE svg PUBLIC "-//W3C//DTD SVG 20010904//EN"
 "http://www.w3.org/TR/2001/REC-SVG-20010904/DTD/svg10.dtd">
<svg version="1.0" xmlns="http://www.w3.org/2000/svg"
 width="439.000000pt" height="445.000000pt" viewBox="0 0 439.000000 445.000000"
 preserveAspectRatio="xMidYMid meet">
<metadata>
Created by potrace 1.16, written by Peter Selinger 2001-2019
</metadata>
<g transform="translate(0.000000,445.000000) scale(0.100000,-0.100000)"
fill="#000000" stroke="none">
<path d="M2017 4439 l-38 -9 -29 -15 -30 -15 -22 -43 -23 -42 1 -105 2 -105
21 -105 22 -105 25 -71 24 -71 0 -43 0 -43 -35 -32 -34 -33 -53 -13 -53 -14
-225 0 -225 0 -268 9 -268 9 7 -309 7 -309 -12 -93 -11 -93 -22 -56 -21 -56
-39 -43 -40 -43 -46 -18 -47 -18 -100 1 -100 1 -66 16 -66 16 -52 33 -53 32
-35 0 -35 0 -19 -24 -19 -25 -17 -55 -17 -55 -1 -190 0 -190 28 -59 27 -59 55
-52 54 -52 46 -22 46 -22 62 -16 62 -16 110 1 110 0 74 16 73 16 72 25 73 25
32 0 33 0 28 -30 28 -30 12 -51 13 -52 -6 -106 -5 -106 -27 -120 -26 -120 -39
-115 -38 -115 -45 -103 -46 -103 14 -5 13 -5 246 10 245 11 158 0 158 0 37
-10 37 -11 30 -25 30 -25 6 -32 6 -32 -20 -60 -20 -60 -32 -90 -32 -90 -1
-100 -1 -100 19 -39 20 -39 35 -35 34 -35 51 -23 51 -23 89 -16 89 -15 81 0
81 1 77 13 77 14 53 24 53 25 38 37 39 37 21 47 22 47 -1 80 0 80 -28 75 -27
75 -16 51 -15 51 17 37 18 37 46 23 46 24 55 10 55 11 50 6 50 5 285 11 285
10 40 7 40 7 3 15 4 15 23 90 24 90 15 90 16 90 25 210 25 210 11 60 10 60 20
63 21 62 34 37 34 36 50 -5 50 -5 51 -32 52 -32 46 -10 47 -10 49 11 49 11 53
30 52 30 27 32 27 32 25 54 25 54 4 66 5 66 -34 54 -33 54 -48 33 -47 33 -58
21 -57 22 -80 10 -80 11 -77 -16 -77 -16 -81 -36 -81 -36 -29 6 -29 6 -25 30
-26 30 -15 52 -16 52 -9 127 -10 127 10 233 10 233 6 149 7 148 -22 -7 -22 -7
-112 -33 -113 -33 -134 -30 -135 -31 -80 -12 -80 -13 -135 0 -135 -1 -47 23
-48 24 -20 25 -20 26 0 33 0 33 24 68 25 68 17 65 17 65 0 110 0 110 -17 65
-18 65 -31 58 -30 58 -52 48 -52 47 -53 17 -52 17 -67 -1 -66 -1 -38 -9z"/>
</g>
</svg>
