<?xml version="1.0" standalone="no"?>
<!DOCTYPE svg PUBLIC "-//W3C//DTD SVG 20010904//EN"
 "http://www.w3.org/TR/2001/REC-SVG-20010904/DTD/svg10.dtd">
<svg version="1.0" xmlns="http://www.w3.org/2000/svg"
 width="441.000000pt" height="447.000000pt" viewBox="0 0 441.000000 447.000000"
 preserveAspectRatio="xMidYMid meet">
<metadata>
Created by potrace 1.16, written by Peter Selinger 2001-2019
</metadata>
<g transform="translate(0.000000,447.000000) scale(0.100000,-0.100000)"
fill="#000000" stroke="none">
<path d="M2017 4459 l-38 -9 -29 -15 -30 -15 -22 -43 -23 -42 1 -115 2 -115
21 -105 22 -105 25 -71 24 -71 0 -33 0 -33 -35 -32 -34 -33 -53 -13 -53 -14
-215 0 -215 0 -278 9 -279 9 7 -309 7 -309 -11 -93 -11 -93 -22 -56 -21 -56
-39 -43 -40 -43 -46 -18 -47 -18 -90 1 -90 1 -66 16 -66 16 -53 33 -53 33 -44
0 -44 0 -20 -25 -19 -25 -17 -55 -17 -55 -1 -200 0 -200 28 -59 27 -59 55 -52
54 -52 46 -22 46 -22 62 -16 62 -16 120 0 120 1 74 16 73 16 72 25 73 25 22 0
23 0 28 -30 28 -30 12 -52 13 -51 -6 -96 -5 -96 -27 -120 -27 -120 -30 -95
-30 -95 -55 -128 -55 -129 10 -10 10 -10 264 11 263 11 145 0 145 0 37 -10 37
-11 30 -24 29 -25 6 -24 6 -24 -19 -59 -20 -58 -32 -90 -32 -90 -1 -110 -1
-110 19 -39 20 -39 35 -35 34 -35 51 -23 51 -23 89 -16 89 -15 91 0 91 1 77
13 77 14 53 24 53 25 38 37 39 37 21 47 22 47 -1 90 -1 90 -21 60 -21 60 -21
58 -21 58 17 35 17 35 46 23 46 24 55 10 55 11 50 6 50 5 280 10 280 10 45 6
46 6 32 137 32 136 10 60 10 60 25 210 25 210 11 60 10 60 20 63 21 62 34 37
34 36 41 -6 41 -5 51 -32 51 -31 51 -11 52 -10 53 11 54 12 52 30 53 30 27 32
27 32 25 55 26 55 4 75 4 75 -34 54 -33 54 -48 33 -47 33 -58 21 -57 22 -86
11 -86 11 -81 -16 -80 -16 -80 -36 -80 -36 -25 9 -24 10 -22 27 -21 27 -15 51
-16 51 -9 123 -10 123 10 217 9 217 7 168 7 167 -13 0 -13 0 -116 -35 -116
-34 -125 -30 -126 -30 -92 -15 -93 -15 -97 -7 -97 -6 -60 11 -60 11 -40 28
-40 28 -9 27 -10 28 32 97 31 97 12 45 13 45 0 120 -1 120 -17 65 -18 65 -31
58 -30 58 -52 48 -52 47 -53 17 -52 17 -77 -1 -76 -1 -38 -9z"/>
</g>
</svg>
