<?xml version="1.0" standalone="no"?>
<!DOCTYPE svg PUBLIC "-//W3C//DTD SVG 20010904//EN"
 "http://www.w3.org/TR/2001/REC-SVG-20010904/DTD/svg10.dtd">
<svg version="1.0" xmlns="http://www.w3.org/2000/svg"
 width="341.000000pt" height="368.000000pt" viewBox="0 0 341.000000 368.000000"
 preserveAspectRatio="xMidYMid meet">
<metadata>
Created by potrace 1.16, written by Peter Selinger 2001-2019
</metadata>
<g transform="translate(0.000000,368.000000) scale(0.100000,-0.100000)"
fill="#000000" stroke="none">
<path d="M1892 3663 l-52 -16 -44 -39 -45 -38 -12 -37 -11 -36 4 -76 5 -76 36
-104 37 -105 0 -48 0 -49 -14 -32 -13 -32 -29 -29 -29 -28 -47 -24 -48 -24
-86 -21 -86 -20 -136 -8 -137 -8 -219 9 -220 9 -12 -5 -13 -5 6 -283 6 -283
-12 -120 -13 -119 -19 -74 -19 -73 -32 -61 -32 -60 -30 -23 -31 -23 -39 -11
-39 -10 -42 9 -43 10 -35 35 -35 35 -47 0 -48 0 -45 -22 -45 -23 -35 -40 -34
-40 -27 -55 -26 -55 3 -135 2 -135 11 -75 11 -75 13 -32 13 -31 23 -7 23 -8
32 38 31 38 50 4 49 5 32 -27 33 -28 25 -48 24 -49 41 -157 41 -158 30 -105
30 -105 35 -85 35 -85 41 -70 41 -70 25 -26 26 -26 155 -6 155 -7 300 -29 300
-30 83 -7 82 -7 0 8 0 8 -24 51 -25 51 -15 77 -16 77 0 93 0 93 19 93 20 93
40 83 40 84 46 46 45 47 43 19 42 20 50 0 50 0 41 -19 40 -18 36 -32 37 -32
25 -51 26 -52 0 -28 0 -29 -15 -29 -15 -29 -19 -10 -18 -10 -13 -45 -13 -46 7
-32 6 -32 39 -36 39 -37 67 -21 66 -22 132 -26 132 -25 153 -30 153 -30 117
-35 116 -35 69 -30 69 -29 9 0 9 0 0 1373 0 1374 -107 51 -108 50 -112 36
-113 35 -212 46 -213 46 -50 16 -50 16 -47 23 -46 23 -21 30 -21 29 0 48 0 49
37 74 36 74 5 49 5 48 -35 33 -35 33 -39 13 -39 14 -150 3 -150 3 -53 -16z"/>
</g>
</svg>
