<?xml version="1.0" standalone="no"?>
<!DOCTYPE svg PUBLIC "-//W3C//DTD SVG 20010904//EN"
 "http://www.w3.org/TR/2001/REC-SVG-20010904/DTD/svg10.dtd">
<svg version="1.0" xmlns="http://www.w3.org/2000/svg"
 width="343.000000pt" height="370.000000pt" viewBox="0 0 343.000000 370.000000"
 preserveAspectRatio="xMidYMid meet">
<metadata>
Created by potrace 1.16, written by Peter Selinger 2001-2019
</metadata>
<g transform="translate(0.000000,370.000000) scale(0.100000,-0.100000)"
fill="#000000" stroke="none">
<path d="M1892 3683 l-52 -16 -44 -39 -45 -38 -11 -36 -12 -36 4 -87 5 -86 36
-104 37 -105 0 -38 0 -39 -14 -32 -13 -32 -29 -29 -29 -28 -47 -24 -48 -24
-87 -21 -86 -21 -131 -7 -131 -7 -224 9 -224 8 -13 -5 -14 -5 7 -283 6 -283
-12 -120 -13 -119 -19 -74 -19 -73 -32 -61 -32 -60 -30 -23 -31 -23 -35 -9
-35 -10 -36 9 -37 8 -35 35 -35 35 -57 0 -58 0 -45 -22 -45 -23 -34 -40 -35
-40 -19 -38 -20 -37 -9 -51 -10 -51 9 -151 10 -152 11 -54 12 -53 19 -19 19
-19 24 0 24 0 29 36 28 35 41 6 40 5 32 -27 33 -28 25 -48 24 -49 41 -157 41
-158 30 -105 30 -105 35 -85 35 -85 41 -70 41 -70 25 -26 26 -26 155 -6 155
-7 300 -29 300 -30 93 -7 92 -7 0 18 0 18 -24 51 -25 51 -15 77 -16 77 0 83 0
83 19 93 20 93 40 83 40 84 46 46 45 47 43 19 42 20 41 0 40 0 52 -26 52 -26
35 -40 34 -41 17 -43 16 -43 -6 -27 -7 -27 -28 -26 -28 -26 -13 -39 -12 -38 5
-45 5 -45 40 -37 40 -38 67 -21 66 -22 132 -26 132 -25 153 -30 153 -30 117
-35 116 -35 69 -30 69 -29 19 0 19 0 0 1383 0 1384 -107 51 -108 50 -112 36
-113 35 -212 46 -213 46 -50 16 -50 16 -47 23 -46 23 -21 30 -21 29 0 38 0 39
37 75 37 75 4 58 4 57 -34 33 -35 33 -39 13 -39 14 -160 3 -160 3 -53 -16z"/>
</g>
</svg>
