<?xml version="1.0" standalone="no"?>
<!DOCTYPE svg PUBLIC "-//W3C//DTD SVG 20010904//EN"
 "http://www.w3.org/TR/2001/REC-SVG-20010904/DTD/svg10.dtd">
<svg version="1.0" xmlns="http://www.w3.org/2000/svg"
 width="362.000000pt" height="357.000000pt" viewBox="0 0 362.000000 357.000000"
 preserveAspectRatio="xMidYMid meet">
<metadata>
Created by potrace 1.16, written by Peter Selinger 2001-2019
</metadata>
<g transform="translate(0.000000,357.000000) scale(0.100000,-0.100000)"
fill="#000000" stroke="none">
<path d="M1893 3556 l-62 -14 -45 -21 -46 -20 -25 -25 -25 -25 0 -30 0 -29 34
-20 33 -20 13 -82 13 -82 -6 -68 -6 -69 -26 -54 -26 -55 -41 -37 -41 -37 -51
-24 -51 -23 -60 -16 -59 -15 -111 -11 -110 -11 -230 7 -230 6 -25 5 -25 4 0
-332 0 -333 -19 -85 -18 -85 -24 -65 -25 -66 -37 -49 -37 -49 -48 -30 -48 -29
-54 -5 -55 -4 -45 11 -45 11 -42 30 -43 30 -37 6 -37 6 -25 -27 -25 -27 -8
-46 -7 -47 -1 -160 0 -160 14 -60 13 -60 34 -72 34 -71 51 -45 51 -45 44 -12
44 -13 53 5 53 4 60 37 59 37 38 0 37 0 21 -21 21 -21 19 -42 18 -42 12 -75
12 -74 -8 -320 -7 -320 -1 -30 -2 -30 235 -8 235 -8 215 5 215 4 48 12 47 12
48 31 47 32 23 45 22 44 0 48 0 47 -11 53 -11 53 -40 82 -40 82 6 35 7 36 36
35 36 35 61 19 61 19 75 7 75 7 74 -16 74 -16 64 -30 64 -29 59 -59 58 -59 12
-41 13 -40 -6 -16 -6 -16 -25 -9 -24 -10 -11 -32 -11 -32 0 -41 0 -41 20 -33
21 -33 53 -25 54 -25 74 -14 73 -14 220 -21 220 -21 100 -21 100 -21 30 -1 30
-1 47 110 48 110 34 105 34 105 27 120 27 120 6 116 5 116 -13 52 -12 51 -28
30 -28 30 -43 0 -42 0 -73 -25 -72 -25 -73 -16 -74 -15 -105 0 -105 0 -57 15
-57 16 -46 21 -46 22 -54 52 -55 52 -27 59 -28 59 0 180 1 180 17 55 17 55 18
24 19 24 27 0 27 -1 51 -31 51 -32 66 -16 66 -16 110 -1 110 -1 47 18 46 18
40 43 39 43 21 56 21 56 11 83 10 82 -1 186 -2 185 -6 145 -6 145 -70 23 -70
24 -105 24 -105 24 -275 40 -275 40 -72 18 -71 19 -39 23 -38 23 -17 21 -18
21 0 45 0 45 37 75 37 75 4 65 4 65 -24 35 -23 35 -50 19 -50 19 -105 3 -105
4 -62 -14z"/>
</g>
</svg>
