<?xml version="1.0" standalone="no"?>
<!DOCTYPE svg PUBLIC "-//W3C//DTD SVG 20010904//EN"
 "http://www.w3.org/TR/2001/REC-SVG-20010904/DTD/svg10.dtd">
<svg version="1.0" xmlns="http://www.w3.org/2000/svg"
 width="360.000000pt" height="355.000000pt" viewBox="0 0 360.000000 355.000000"
 preserveAspectRatio="xMidYMid meet">
<metadata>
Created by potrace 1.16, written by Peter Selinger 2001-2019
</metadata>
<g transform="translate(0.000000,355.000000) scale(0.100000,-0.100000)"
fill="#000000" stroke="none">
<path d="M1893 3536 l-62 -14 -45 -21 -46 -20 -25 -25 -25 -25 0 -20 0 -19 34
-20 33 -20 13 -82 13 -82 -6 -77 -5 -78 -26 -56 -27 -55 -41 -37 -41 -37 -51
-24 -51 -23 -60 -16 -60 -16 -135 -11 -135 -11 -230 9 -230 9 0 -330 0 -330
-19 -85 -18 -85 -24 -65 -25 -66 -37 -49 -37 -49 -49 -30 -48 -30 -64 -4 -64
-4 -45 11 -45 11 -42 30 -43 29 -27 7 -27 6 -25 -27 -25 -27 -8 -46 -7 -47 0
-150 -1 -150 14 -60 13 -60 34 -72 34 -71 51 -45 51 -45 44 -12 44 -13 44 5
44 5 59 37 60 37 40 1 40 0 21 -11 20 -11 26 -52 25 -53 11 -65 10 -65 -1
-215 -1 -215 -7 -140 -7 -140 6 -7 5 -7 400 -6 400 -7 80 16 79 16 46 28 45
28 22 33 23 33 6 37 7 36 -12 70 -12 70 -39 79 -40 79 0 30 0 29 16 33 15 33
37 25 37 25 53 16 52 15 83 6 82 7 74 -16 74 -16 61 -28 61 -29 52 -47 51 -46
22 -45 21 -44 -3 -33 -3 -33 -25 -12 -25 -12 -12 -28 -12 -28 -1 -35 0 -35 20
-33 21 -33 53 -25 54 -25 74 -14 73 -14 220 -21 220 -21 100 -21 100 -21 20
-1 20 -1 47 110 48 110 34 105 34 105 27 120 27 120 5 106 6 106 -13 52 -12
51 -28 30 -28 30 -33 0 -32 0 -73 -25 -72 -25 -73 -16 -74 -16 -110 0 -110 -1
-62 16 -62 16 -46 22 -46 22 -54 52 -55 52 -27 59 -28 59 0 190 1 190 17 55
17 55 19 25 19 24 35 0 35 0 53 -32 52 -33 66 -16 66 -16 100 -1 100 -1 47 18
46 18 40 43 39 43 21 56 21 56 11 83 10 82 -1 176 -2 175 -6 145 -6 145 -70
23 -70 24 -105 24 -105 24 -275 40 -275 40 -70 18 -71 19 -45 26 -46 27 -13
25 -13 25 1 45 0 46 38 77 37 77 5 55 4 55 -24 35 -23 35 -50 19 -50 18 -95 4
-95 4 -62 -14z"/>
</g>
</svg>
