<?xml version="1.0" standalone="no"?>
<!DOCTYPE svg PUBLIC "-//W3C//DTD SVG 20010904//EN"
 "http://www.w3.org/TR/2001/REC-SVG-20010904/DTD/svg10.dtd">
<svg version="1.0" xmlns="http://www.w3.org/2000/svg"
 width="274.000000pt" height="353.000000pt" viewBox="0 0 274.000000 353.000000"
 preserveAspectRatio="xMidYMid meet">
<metadata>
Created by potrace 1.16, written by Peter Selinger 2001-2019
</metadata>
<g transform="translate(0.000000,353.000000) scale(0.100000,-0.100000)"
fill="#000000" stroke="none">
<path d="M1242 3515 l-63 -14 -52 -25 -52 -25 -21 -18 -22 -19 -16 -32 -16
-31 0 -27 0 -27 34 -31 33 -32 13 -53 13 -53 0 -65 0 -64 -29 -56 -29 -55 -56
-35 -56 -34 -54 -14 -54 -15 -110 -11 -110 -10 -285 9 -285 10 -9 -8 -9 -9 -1
-368 -1 -368 23 -79 22 -79 25 -42 24 -42 35 -31 36 -31 42 -12 43 -11 65 5
65 5 122 41 121 41 37 0 36 0 28 -15 28 -14 17 -35 16 -34 11 -83 11 -82 -4
-108 -4 -107 -33 -66 -32 -66 -45 -26 -45 -27 -49 6 -48 6 -73 38 -73 38 -57
0 -58 0 -36 -35 -36 -34 -23 -76 -24 -75 -16 -120 -16 -120 -20 -170 -21 -170
-15 -85 -15 -85 -30 -114 -30 -113 4 -5 5 -4 183 -10 184 -11 120 7 120 6 75
15 75 16 61 29 62 29 35 39 36 40 15 52 16 53 0 47 0 48 -11 50 -10 50 -30 37
-29 37 -6 24 -6 24 17 47 18 46 44 47 44 47 67 35 67 34 50 14 50 14 110 -1
110 0 57 -22 56 -23 36 -39 35 -39 7 -36 6 -36 -5 -34 -5 -33 -27 -64 -27 -63
-15 -52 -14 -52 10 -39 11 -39 30 -26 30 -27 48 -19 47 -19 80 -16 80 -16 165
-25 165 -25 105 -21 105 -21 123 -40 123 -41 3 4 3 4 -8 430 -7 430 -15 55
-14 55 -11 25 -10 25 -27 27 -28 28 -58 0 -59 0 -20 -22 -20 -23 -15 -17 -15
-18 -38 0 -38 0 -54 27 -54 27 -48 48 -47 48 -22 41 -21 42 -15 41 -14 41 1
161 0 161 11 59 11 58 14 36 15 36 28 17 29 17 23 0 22 0 89 -41 89 -41 58 -5
58 -6 37 13 38 12 32 29 33 28 27 60 27 60 16 78 15 78 1 200 1 200 -8 118 -8
117 -58 0 -59 0 -183 -16 -183 -17 -205 -1 -205 -1 -57 18 -57 17 -35 34 -36
33 0 33 0 33 36 111 36 111 5 90 5 90 -12 45 -12 45 -44 42 -43 42 -53 16 -53
16 -100 5 -100 4 -63 -15z"/>
</g>
</svg>
