<?xml version="1.0" standalone="no"?>
<!DOCTYPE svg PUBLIC "-//W3C//DTD SVG 20010904//EN"
 "http://www.w3.org/TR/2001/REC-SVG-20010904/DTD/svg10.dtd">
<svg version="1.0" xmlns="http://www.w3.org/2000/svg"
 width="272.000000pt" height="351.000000pt" viewBox="0 0 272.000000 351.000000"
 preserveAspectRatio="xMidYMid meet">
<metadata>
Created by potrace 1.16, written by Peter Selinger 2001-2019
</metadata>
<g transform="translate(0.000000,351.000000) scale(0.100000,-0.100000)"
fill="#000000" stroke="none">
<path d="M1242 3495 l-63 -14 -52 -25 -52 -25 -21 -18 -22 -19 -16 -32 -16
-31 0 -17 0 -17 34 -31 33 -32 13 -54 13 -55 0 -72 0 -73 -29 -56 -29 -56 -56
-35 -56 -34 -54 -14 -54 -15 -115 -11 -115 -11 -280 10 -280 9 -9 -8 -9 -8 -1
-358 -1 -358 23 -79 22 -79 25 -42 24 -42 35 -31 36 -31 42 -12 43 -11 55 5
55 5 122 41 121 41 47 0 46 0 28 -15 28 -14 17 -35 16 -34 11 -83 11 -82 -4
-117 -4 -117 -33 -67 -32 -66 -45 -26 -45 -27 -58 6 -57 5 -74 38 -74 39 -47
0 -48 0 -36 -35 -36 -34 -23 -76 -24 -75 -16 -120 -16 -120 -20 -170 -20 -170
-20 -105 -20 -105 -24 -87 -24 -87 77 -7 76 -7 215 0 215 0 80 17 80 18 61 29
62 29 35 40 36 39 17 58 17 57 -6 62 -6 63 -16 33 -15 33 -25 34 -25 34 0 31
0 31 24 50 23 50 46 42 45 42 59 29 58 29 50 14 50 14 120 0 120 -1 57 -22 56
-23 36 -39 35 -39 7 -36 6 -36 -4 -42 -5 -42 -28 -65 -27 -65 -13 -47 -14 -47
10 -34 9 -34 30 -27 30 -26 49 -20 49 -19 109 -20 108 -21 140 -21 140 -20
118 -25 118 -25 97 -34 97 -34 0 2 1 2 -7 420 -7 420 -15 55 -14 55 -11 25
-10 25 -27 27 -28 28 -48 0 -49 0 -20 -22 -20 -23 -15 -17 -15 -18 -48 0 -48
0 -54 27 -54 27 -48 48 -47 48 -22 41 -21 42 -15 41 -15 41 1 170 1 170 11 59
10 59 15 37 15 36 28 17 29 17 33 0 32 0 88 -40 87 -41 50 -6 49 -5 37 12 38
12 32 29 33 28 27 60 27 60 16 78 15 78 1 190 1 190 -8 118 -8 117 -48 0 -49
0 -183 -16 -183 -17 -215 -1 -215 -1 -57 18 -57 17 -35 34 -36 33 0 43 0 43
36 111 36 111 5 80 5 80 -12 45 -12 45 -44 42 -43 42 -53 16 -53 16 -90 4 -90
5 -63 -15z"/>
</g>
</svg>
