<?xml version="1.0" standalone="no"?>
<!DOCTYPE svg PUBLIC "-//W3C//DTD SVG 20010904//EN"
 "http://www.w3.org/TR/2001/REC-SVG-20010904/DTD/svg10.dtd">
<svg version="1.0" xmlns="http://www.w3.org/2000/svg"
 width="432.000000pt" height="369.000000pt" viewBox="0 0 432.000000 369.000000"
 preserveAspectRatio="xMidYMid meet">
<metadata>
Created by potrace 1.16, written by Peter Selinger 2001-2019
</metadata>
<g transform="translate(0.000000,369.000000) scale(0.100000,-0.100000)"
fill="#000000" stroke="none">
<path d="M896 3463 l7 -228 -12 -124 -12 -123 -20 -77 -19 -76 -34 -71 -34
-71 -44 -45 -45 -44 -35 -17 -35 -17 -53 -11 -53 -11 -70 11 -70 12 -71 31
-71 31 -67 5 -67 5 -34 -34 -34 -34 -12 -53 -11 -53 0 -105 0 -106 16 -33 16
-34 48 -45 47 -44 49 -25 49 -24 53 -18 54 -17 75 4 76 4 27 33 28 33 38 8 38
9 31 -13 32 -14 21 -34 22 -35 15 -44 16 -43 14 -91 14 -90 16 -175 15 -175
11 -90 10 -90 25 -136 26 -135 8 -14 8 -14 231 14 231 13 107 -7 108 -7 65
-15 65 -15 40 -22 40 -23 20 -36 19 -36 -22 -69 -22 -68 -17 -75 -18 -75 0
-145 0 -145 18 -35 19 -35 45 -42 45 -42 47 -15 46 -15 75 -12 75 -11 135 5
135 5 57 20 58 21 42 30 43 30 30 33 31 33 18 28 18 29 19 55 19 55 6 77 6 76
-11 74 -12 75 -34 103 -34 103 6 18 6 17 25 27 25 27 51 18 51 18 175 -1 175
-1 155 -22 155 -22 63 -6 62 -6 0 26 0 25 -34 119 -34 118 -22 105 -21 104
-15 96 -14 95 0 106 0 105 15 51 15 51 31 26 31 26 17 0 18 0 32 -11 31 -11 0
-14 0 -14 23 -14 22 -15 51 -7 52 -6 83 17 84 17 50 21 50 21 56 33 55 33 45
48 46 47 29 50 29 50 0 90 0 90 -22 48 -22 48 -58 58 -58 57 -57 27 -57 27
-63 16 -63 16 -110 -4 -110 -4 -50 -23 -50 -22 -22 -21 -22 -20 -6 35 -7 36
26 343 25 343 7 168 6 167 -1356 0 -1357 0 7 -227z"/>
</g>
</svg>
