<?xml version="1.0" standalone="no"?>
<!DOCTYPE svg PUBLIC "-//W3C//DTD SVG 20010904//EN"
 "http://www.w3.org/TR/2001/REC-SVG-20010904/DTD/svg10.dtd">
<svg version="1.0" xmlns="http://www.w3.org/2000/svg"
 width="430.000000pt" height="367.000000pt" viewBox="0 0 430.000000 367.000000"
 preserveAspectRatio="xMidYMid meet">
<metadata>
Created by potrace 1.16, written by Peter Selinger 2001-2019
</metadata>
<g transform="translate(0.000000,367.000000) scale(0.100000,-0.100000)"
fill="#000000" stroke="none">
<path d="M896 3443 l7 -228 -12 -124 -12 -123 -20 -77 -19 -76 -34 -71 -34
-71 -44 -45 -45 -44 -36 -17 -36 -17 -57 -12 -56 -11 -75 11 -75 12 -70 31
-71 31 -58 5 -58 6 -34 -34 -34 -34 -12 -53 -11 -53 0 -95 0 -96 16 -33 16
-34 48 -45 47 -44 49 -25 49 -24 53 -18 54 -17 65 4 64 4 33 35 32 36 42 7 42
6 34 -14 33 -14 21 -34 22 -35 15 -44 16 -43 14 -91 14 -90 16 -175 15 -175
11 -90 10 -90 25 -136 26 -135 8 -14 8 -13 216 13 217 13 122 -7 122 -6 63
-15 63 -15 40 -20 40 -21 19 -32 20 -32 0 -28 0 -28 -14 -33 -14 -33 -23 -99
-24 -99 0 -135 0 -135 18 -35 19 -35 45 -42 45 -42 47 -15 46 -15 75 -12 75
-11 125 5 125 5 57 20 58 21 42 30 43 30 30 33 31 33 18 28 18 29 18 54 19 53
6 69 7 68 -11 74 -12 74 -35 105 -35 106 6 26 6 26 27 26 27 26 45 17 45 16
115 5 115 6 120 -12 120 -12 158 -21 157 -21 7 7 7 7 -12 42 -12 42 -34 130
-34 130 -22 115 -22 115 -5 151 -6 150 17 56 16 56 31 26 31 26 27 0 28 0 32
-11 31 -11 0 -14 0 -14 23 -14 22 -14 45 -7 45 -6 80 16 80 17 50 21 50 21 56
33 55 33 45 48 46 47 29 50 29 50 0 80 0 80 -22 48 -22 48 -58 58 -58 57 -57
27 -57 27 -63 16 -63 16 -100 -4 -100 -5 -50 -22 -50 -22 -27 -26 -27 -26 -11
27 -10 27 0 39 0 38 24 324 25 323 6 163 7 162 -1346 0 -1346 0 6 -227z"/>
</g>
</svg>
