<?xml version="1.0" standalone="no"?>
<!DOCTYPE svg PUBLIC "-//W3C//DTD SVG 20010904//EN"
 "http://www.w3.org/TR/2001/REC-SVG-20010904/DTD/svg10.dtd">
<svg version="1.0" xmlns="http://www.w3.org/2000/svg"
 width="341.000000pt" height="356.000000pt" viewBox="0 0 341.000000 356.000000"
 preserveAspectRatio="xMidYMid meet">
<metadata>
Created by potrace 1.16, written by Peter Selinger 2001-2019
</metadata>
<g transform="translate(0.000000,356.000000) scale(0.100000,-0.100000)"
fill="#000000" stroke="none">
<path d="M781 3553 l-83 -4 8 -217 9 -217 -2 -150 -3 -150 -15 -87 -15 -87
-20 -53 -20 -53 -18 -20 -17 -20 -33 -24 -33 -23 -48 0 -47 1 -85 37 -84 38
-76 4 -75 4 -33 -27 -32 -28 -18 -36 -19 -36 -12 -62 -12 -61 4 -109 4 -108
27 -53 26 -52 33 -41 33 -40 65 -44 65 -43 62 -21 62 -21 55 0 55 0 24 9 25
10 24 26 25 26 39 9 38 9 35 -16 34 -17 26 -55 26 -56 0 -185 -1 -185 -23
-149 -22 -149 -24 -126 -25 -125 3 -2 2 -2 90 9 90 8 240 2 240 1 68 -16 68
-16 32 -16 32 -16 23 -22 24 -21 20 -39 20 -39 5 -52 5 -52 -16 -82 -17 -82
-31 -60 -31 -60 -5 -54 -4 -55 36 -35 37 -34 52 -17 52 -16 210 -5 210 -5 64
22 64 21 42 29 42 29 33 37 33 38 31 66 31 65 0 135 0 135 -38 92 -37 93 0 19
0 19 25 30 25 30 42 17 43 18 100 4 100 5 125 -16 125 -17 165 -36 165 -36 33
-5 32 -4 0 14 0 15 -20 58 -20 57 -20 106 -20 105 -26 206 -25 206 -15 75 -16
75 -20 48 -21 47 -30 26 -31 26 -59 -4 -60 -4 -13 -20 -13 -19 -17 -17 -17
-18 -41 0 -40 0 -41 20 -41 20 -35 30 -34 29 -27 28 -28 28 -29 55 -29 55 -11
53 -11 53 0 77 0 77 10 90 10 90 15 46 16 46 30 29 30 29 43 -1 42 -1 65 -31
64 -31 45 -12 45 -11 65 -2 65 -1 50 15 50 14 51 51 51 51 22 59 23 60 15 75
16 75 -1 288 -1 289 -6 16 -5 17 -282 -3 -283 -2 -131 -10 -131 -10 -50 -15
-50 -15 -34 -23 -34 -23 -12 -37 -13 -38 11 -49 10 -49 20 -6 19 -6 16 -31 16
-31 -6 -45 -6 -44 -32 -60 -31 -59 -50 -44 -49 -45 -66 -32 -66 -33 -107 -3
-107 -4 -84 17 -83 16 -63 31 -63 31 -20 25 -19 25 0 17 0 16 34 30 33 30 13
70 12 69 -3 86 -4 86 -30 49 -31 49 -51 28 -52 28 -68 14 -68 15 -265 -2 -265
-2 -84 -3z"/>
</g>
</svg>
