<?xml version="1.0" standalone="no"?>
<!DOCTYPE svg PUBLIC "-//W3C//DTD SVG 20010904//EN"
 "http://www.w3.org/TR/2001/REC-SVG-20010904/DTD/svg10.dtd">
<svg version="1.0" xmlns="http://www.w3.org/2000/svg"
 width="339.000000pt" height="354.000000pt" viewBox="0 0 339.000000 354.000000"
 preserveAspectRatio="xMidYMid meet">
<metadata>
Created by potrace 1.16, written by Peter Selinger 2001-2019
</metadata>
<g transform="translate(0.000000,354.000000) scale(0.100000,-0.100000)"
fill="#000000" stroke="none">
<path d="M782 3533 l-84 -4 9 -207 8 -207 -2 -160 -3 -159 -15 -87 -15 -88
-20 -53 -20 -53 -18 -20 -17 -20 -34 -24 -34 -24 -56 0 -56 1 -85 38 -85 38
-66 4 -65 4 -32 -27 -33 -28 -18 -36 -19 -36 -12 -62 -12 -62 4 -98 4 -98 27
-53 26 -52 33 -41 33 -40 65 -44 65 -43 62 -21 62 -21 45 0 45 0 23 9 23 9 31
29 31 30 42 7 42 6 36 -17 36 -17 25 -55 26 -56 4 -132 4 -133 -12 -117 -12
-118 -30 -175 -29 -175 -6 -34 -6 -34 114 7 114 7 215 1 215 1 68 -17 68 -16
32 -16 32 -16 23 -22 24 -21 20 -40 21 -39 5 -62 4 -61 -16 -82 -17 -82 -31
-59 -30 -59 -5 -45 -6 -46 37 -35 37 -34 52 -17 52 -16 200 -5 200 -5 64 22
64 21 42 29 42 29 33 37 33 38 31 66 31 65 0 125 0 125 -38 92 -37 93 0 29 0
29 25 31 26 30 47 18 47 18 155 -1 155 -1 100 -17 100 -17 159 -35 158 -35 4
4 4 4 -20 58 -20 57 -20 106 -20 105 -26 206 -25 206 -15 75 -16 75 -20 48
-21 47 -30 26 -31 26 -50 -5 -49 -4 -13 -19 -13 -19 -17 -17 -17 -18 -51 0
-50 0 -41 20 -41 20 -35 30 -34 29 -27 28 -28 28 -29 55 -29 55 -11 53 -11 53
0 87 0 87 10 90 10 90 15 46 16 46 30 29 30 29 52 -1 52 0 65 -32 65 -31 45
-12 45 -11 55 -1 55 -1 48 13 47 14 45 39 44 39 25 52 25 52 16 60 15 60 10
115 9 114 -6 208 -6 207 -6 8 -6 9 -360 -7 -360 -8 -65 -11 -65 -11 -52 -24
-51 -23 -17 -25 -16 -25 -1 -29 -1 -28 7 -32 7 -32 20 -6 19 -6 16 -32 16 -31
-5 -53 -5 -52 -33 -61 -32 -61 -50 -44 -49 -45 -66 -32 -67 -33 -117 -4 -117
-3 -83 17 -83 16 -63 31 -63 31 -20 25 -19 25 0 27 0 26 34 30 33 30 13 70 12
70 -3 75 -4 76 -30 49 -31 49 -51 28 -52 28 -68 14 -68 15 -255 -2 -255 -2
-83 -3z"/>
</g>
</svg>
