<?xml version="1.0" standalone="no"?>
<!DOCTYPE svg PUBLIC "-//W3C//DTD SVG 20010904//EN"
 "http://www.w3.org/TR/2001/REC-SVG-20010904/DTD/svg10.dtd">
<svg version="1.0" xmlns="http://www.w3.org/2000/svg"
 width="351.000000pt" height="374.000000pt" viewBox="0 0 351.000000 374.000000"
 preserveAspectRatio="xMidYMid meet">
<metadata>
Created by potrace 1.16, written by Peter Selinger 2001-2019
</metadata>
<g transform="translate(0.000000,374.000000) scale(0.100000,-0.100000)"
fill="#000000" stroke="none">
<path d="M1294 3716 l-51 -24 -36 -44 -36 -44 -33 -70 -33 -69 0 -90 0 -90 25
-44 25 -44 13 -24 14 -24 5 -54 6 -55 -18 -46 -17 -45 -50 -39 -49 -40 -62
-19 -63 -19 -99 -13 -100 -12 -336 6 -336 6 -15 6 -15 6 -14 -253 -14 -253 1
-175 1 -175 17 -64 17 -65 25 -33 25 -33 27 -7 26 -6 46 17 45 18 80 25 80 25
80 5 80 5 43 -11 42 -12 36 -31 35 -31 20 -38 19 -38 15 -63 15 -63 0 -79 0
-80 -21 -43 -21 -43 -41 -35 -41 -36 -56 -26 -55 -26 -71 -5 -71 -4 -44 21
-44 22 -45 25 -44 24 -28 0 -27 0 -25 -11 -25 -12 -25 -36 -25 -36 -17 -65
-17 -65 -3 -470 -3 -470 -6 -22 -5 -23 22 -4 23 -5 185 -6 185 -6 125 11 124
10 66 16 65 16 60 29 60 28 37 31 37 31 32 64 32 65 5 68 4 68 -12 72 -12 72
-29 17 -28 17 -5 13 -5 12 24 19 25 20 67 13 68 14 155 0 155 0 68 -32 67 -32
55 -52 56 -53 35 -72 36 -72 5 -46 5 -45 -6 -36 -7 -37 -25 -25 -25 -25 -10
-25 -9 -24 0 -45 0 -45 33 -33 34 -33 39 -14 39 -14 205 1 205 0 215 33 215
32 7 7 8 8 -24 234 -24 235 -7 110 -6 110 11 94 11 94 18 41 19 41 21 23 22
22 39 0 40 0 62 -25 63 -25 60 -15 59 -15 76 0 76 0 46 16 46 15 39 34 39 33
31 59 31 58 13 55 13 55 1 100 0 100 -28 57 -28 57 -41 35 -40 35 -44 21 -44
20 -52 11 -52 12 -111 -6 -110 -5 -75 -22 -75 -21 -33 -21 -34 -21 -15 15 -14
15 -10 39 -9 39 0 165 0 165 20 310 20 310 0 41 0 42 -27 5 -28 5 -116 26
-116 25 -264 30 -264 30 -73 15 -72 16 -49 24 -48 25 -16 25 -17 25 0 45 0 45
9 24 9 24 26 28 26 27 6 35 7 35 -6 53 -5 54 -33 68 -32 68 -56 56 -56 56 -58
21 -58 22 -37 0 -37 0 -51 -24z"/>
</g>
</svg>
