<?xml version="1.0" standalone="no"?>
<!DOCTYPE svg PUBLIC "-//W3C//DTD SVG 20010904//EN"
 "http://www.w3.org/TR/2001/REC-SVG-20010904/DTD/svg10.dtd">
<svg version="1.0" xmlns="http://www.w3.org/2000/svg"
 width="353.000000pt" height="376.000000pt" viewBox="0 0 353.000000 376.000000"
 preserveAspectRatio="xMidYMid meet">
<metadata>
Created by potrace 1.16, written by Peter Selinger 2001-2019
</metadata>
<g transform="translate(0.000000,376.000000) scale(0.100000,-0.100000)"
fill="#000000" stroke="none">
<path d="M1294 3736 l-51 -24 -36 -44 -36 -44 -32 -67 -31 -67 -5 -78 -5 -77
11 -41 11 -41 26 -38 26 -39 11 -52 11 -52 -13 -44 -13 -43 -45 -42 -45 -42
-56 -21 -56 -21 -100 -16 -101 -15 -340 6 -340 7 -26 5 -25 6 -12 -224 -12
-223 -6 -135 -6 -135 11 -110 11 -110 12 -39 12 -39 32 -34 31 -33 37 0 37 0
59 25 60 25 83 20 82 20 50 0 50 0 38 -11 38 -10 35 -31 35 -31 20 -38 19 -38
15 -63 15 -63 0 -69 0 -70 -21 -43 -21 -43 -41 -35 -41 -36 -55 -26 -55 -26
-61 -5 -62 -4 -44 21 -44 22 -45 25 -44 24 -38 0 -37 0 -25 -11 -25 -12 -25
-36 -25 -36 -17 -65 -17 -65 -3 -450 -3 -450 -5 -52 -6 -53 22 -4 23 -5 195
-6 195 -6 125 11 124 10 66 16 65 16 60 29 60 28 37 31 37 31 32 65 32 65 5
78 4 78 -12 71 -12 72 -29 17 -29 17 0 8 0 8 23 14 22 14 60 13 60 13 150 1
150 0 68 -32 67 -32 55 -52 56 -53 35 -70 35 -71 5 -37 6 -37 -6 -37 -7 -36
-25 -25 -25 -25 -10 -25 -9 -24 0 -55 0 -55 33 -33 34 -33 39 -14 39 -14 215
1 215 0 215 32 215 33 8 8 9 9 -27 253 -27 254 -1 145 -1 145 12 56 13 56 27
42 27 42 24 6 25 6 35 -10 36 -11 75 -27 75 -27 106 -5 106 -5 50 16 50 17 40
34 39 33 31 59 31 58 13 55 13 55 1 110 0 110 -28 57 -28 57 -41 35 -40 35
-44 21 -44 20 -52 11 -52 12 -121 -6 -120 -5 -74 -22 -75 -21 -28 -17 -28 -16
-11 11 -11 11 -9 38 -9 39 0 160 0 160 20 300 20 300 0 56 0 57 -27 5 -28 5
-116 26 -116 25 -264 30 -264 30 -73 15 -72 16 -49 24 -48 25 -16 25 -17 25 0
35 0 35 9 24 9 24 26 28 26 27 6 35 7 35 -5 62 -5 63 -33 69 -33 69 -56 56
-56 56 -58 21 -58 22 -47 0 -47 0 -51 -24z"/>
</g>
</svg>
