<?xml version="1.0" standalone="no"?>
<!DOCTYPE svg PUBLIC "-//W3C//DTD SVG 20010904//EN"
 "http://www.w3.org/TR/2001/REC-SVG-20010904/DTD/svg10.dtd">
<svg version="1.0" xmlns="http://www.w3.org/2000/svg"
 width="417.000000pt" height="371.000000pt" viewBox="0 0 417.000000 371.000000"
 preserveAspectRatio="xMidYMid meet">
<metadata>
Created by potrace 1.16, written by Peter Selinger 2001-2019
</metadata>
<g transform="translate(0.000000,371.000000) scale(0.100000,-0.100000)"
fill="#000000" stroke="none">
<path d="M2009 3696 l-45 -12 -48 -28 -47 -27 -34 -47 -35 -47 -16 -54 -16
-55 4 -66 5 -66 39 -84 39 -85 0 -71 0 -70 -27 -41 -27 -41 -63 -31 -63 -30
-90 -17 -90 -17 -383 7 -383 6 8 -217 8 -218 0 -230 0 -230 -13 -44 -14 -45
-34 -34 -35 -35 -57 6 -57 5 -60 27 -60 27 -54 19 -54 19 -64 0 -64 0 -32 -14
-32 -14 -28 -30 -28 -31 -19 -43 -19 -43 -11 -68 -12 -68 4 -102 4 -102 27
-50 26 -50 38 -37 38 -37 45 -20 45 -21 43 0 43 0 37 15 37 16 20 19 20 19 45
12 46 12 29 -14 29 -14 23 -34 23 -34 15 -50 15 -49 10 -82 10 -81 15 -284 16
-284 14 -110 14 -110 -5 -8 -5 -9 63 0 63 0 330 -31 330 -30 193 -6 192 -6 0
11 0 11 -24 25 -25 24 -16 54 -15 54 -1 95 -1 94 7 50 7 50 15 60 14 60 20 53
19 52 25 50 25 49 31 36 32 36 31 16 30 16 92 -6 92 -6 67 -17 67 -17 47 -31
46 -31 13 -27 12 -26 -10 -26 -10 -27 -23 -22 -24 -22 -11 -34 -12 -34 0 -29
0 -29 11 -22 12 -22 22 -22 22 -23 54 -24 54 -25 205 -50 205 -50 83 -26 82
-26 65 -29 64 -29 57 -36 57 -36 9 9 9 9 3 479 3 479 17 65 17 65 25 36 25 36
25 12 25 11 27 0 28 0 44 -24 45 -25 44 -22 44 -21 71 4 71 5 55 26 56 26 41
36 41 35 21 43 21 43 0 80 0 79 -15 63 -15 63 -19 38 -20 38 -35 31 -35 31
-38 10 -38 11 -60 0 -60 0 -82 -20 -83 -20 -60 -25 -59 -25 -27 0 -27 0 -31
33 -32 34 -12 39 -13 39 -11 118 -10 119 11 216 12 217 6 121 6 120 -62 42
-61 41 -66 31 -66 31 -76 25 -77 25 -200 49 -200 50 -62 30 -62 31 -22 35 -21
35 4 55 5 54 32 46 33 45 5 38 5 38 -16 32 -17 31 -41 30 -42 31 -65 19 -66
20 -90 10 -90 10 -25 -1 -25 0 -46 -13z"/>
</g>
</svg>
