<?xml version="1.0" standalone="no"?>
<!DOCTYPE svg PUBLIC "-//W3C//DTD SVG 20010904//EN"
 "http://www.w3.org/TR/2001/REC-SVG-20010904/DTD/svg10.dtd">
<svg version="1.0" xmlns="http://www.w3.org/2000/svg"
 width="419.000000pt" height="373.000000pt" viewBox="0 0 419.000000 373.000000"
 preserveAspectRatio="xMidYMid meet">
<metadata>
Created by potrace 1.16, written by Peter Selinger 2001-2019
</metadata>
<g transform="translate(0.000000,373.000000) scale(0.100000,-0.100000)"
fill="#000000" stroke="none">
<path d="M2009 3716 l-45 -12 -48 -28 -47 -27 -34 -47 -35 -47 -16 -54 -16
-54 4 -76 5 -76 38 -85 39 -85 1 -61 0 -60 -27 -41 -27 -41 -63 -31 -63 -30
-90 -17 -90 -17 -383 7 -383 7 8 -228 8 -228 0 -220 0 -220 -13 -44 -14 -45
-34 -34 -35 -35 -48 6 -47 6 -60 26 -59 27 -54 19 -54 19 -74 0 -74 0 -32 -14
-32 -14 -28 -30 -28 -31 -19 -43 -19 -43 -11 -68 -12 -68 4 -112 4 -112 26
-50 27 -50 38 -37 38 -37 45 -20 45 -21 53 0 53 0 37 15 37 16 20 18 20 19 37
11 37 12 28 -13 27 -13 23 -34 23 -34 15 -50 15 -49 10 -82 10 -81 15 -281 15
-281 11 -84 11 -84 0 -37 1 -38 61 0 61 0 330 -31 330 -30 203 -6 202 -6 0 21
0 21 -24 25 -25 24 -17 58 -17 58 6 131 6 130 19 70 20 70 16 43 16 44 31 59
32 59 38 35 38 34 28 7 28 7 95 -11 95 -11 52 -16 52 -16 43 -32 43 -33 3 -31
3 -30 -29 -29 -28 -29 -12 -34 -12 -34 0 -39 0 -39 11 -22 12 -22 22 -22 22
-23 54 -24 54 -25 205 -50 205 -50 83 -26 82 -26 65 -29 64 -29 56 -35 55 -36
16 0 15 0 5 14 5 14 3 474 3 473 17 65 17 65 25 37 25 36 29 12 29 12 29 -7
29 -6 54 -34 53 -35 34 -6 34 -7 66 5 67 5 55 26 56 26 41 36 41 35 21 43 21
43 0 90 0 89 -15 63 -15 63 -19 38 -20 38 -35 31 -35 31 -38 10 -38 11 -70 0
-70 0 -82 -20 -83 -20 -61 -26 -62 -25 -23 5 -23 6 -25 33 -25 33 -14 55 -15
55 -7 114 -6 115 10 180 11 180 7 141 6 140 -62 42 -61 41 -66 31 -66 31 -76
25 -77 25 -200 49 -200 50 -62 30 -62 31 -22 35 -21 35 5 45 5 46 32 45 33 46
5 47 4 47 -16 32 -17 31 -41 30 -42 31 -65 19 -66 20 -90 10 -90 10 -35 -1
-35 0 -46 -13z"/>
</g>
</svg>
