<?xml version="1.0" standalone="no"?>
<!DOCTYPE svg PUBLIC "-//W3C//DTD SVG 20010904//EN"
 "http://www.w3.org/TR/2001/REC-SVG-20010904/DTD/svg10.dtd">
<svg version="1.0" xmlns="http://www.w3.org/2000/svg"
 width="357.000000pt" height="383.000000pt" viewBox="0 0 357.000000 383.000000"
 preserveAspectRatio="xMidYMid meet">
<metadata>
Created by potrace 1.16, written by Peter Selinger 2001-2019
</metadata>
<g transform="translate(0.000000,383.000000) scale(0.100000,-0.100000)"
fill="#000000" stroke="none">
<path d="M1274 3820 l-51 -7 -38 -13 -38 -12 -37 -34 -38 -34 -23 -53 -24 -52
0 -125 0 -125 23 -104 24 -105 19 -48 19 -49 0 -15 0 -15 -34 -33 -33 -34 -74
-15 -74 -16 -100 -6 -100 -5 -180 10 -180 10 -167 6 -168 7 0 -1385 0 -1385
272 -9 273 -9 185 0 185 1 57 17 57 17 37 35 37 35 -5 72 -5 73 -37 82 -37 83
-10 56 -10 56 6 42 7 41 20 52 19 52 45 50 45 50 56 27 56 28 86 4 86 4 56
-21 57 -22 41 -29 40 -29 36 -53 35 -53 21 -65 20 -65 5 -75 6 -75 -16 -95
-15 -95 -27 -80 -27 -80 -1 -50 -1 -51 18 -28 19 -28 46 -21 47 -22 140 1 140
0 115 23 115 22 75 20 75 20 137 46 138 47 -5 35 -5 36 -20 226 -20 226 0 135
0 135 10 54 10 53 21 44 22 44 32 15 32 15 74 -25 74 -25 80 -18 80 -18 100 0
100 -1 40 13 40 12 50 38 50 37 26 54 27 53 11 57 11 56 6 75 6 75 -12 44 -11
43 -54 53 -54 54 -73 35 -73 35 -88 25 -88 26 -109 12 -108 12 -87 -12 -87
-11 -45 -26 -46 -25 7 118 6 118 30 350 30 349 0 81 0 82 -32 24 -33 25 -63
32 -64 32 -88 29 -89 29 -183 41 -183 41 -48 14 -48 14 -42 23 -42 23 -22 25
-22 24 -6 27 -6 27 12 41 12 41 17 0 18 0 13 16 14 17 -1 38 -1 38 -27 44 -26
45 -47 42 -48 42 -35 18 -35 18 -65 20 -65 19 -75 6 -75 5 -51 -8z"/>
</g>
</svg>
