<?xml version="1.0" standalone="no"?>
<!DOCTYPE svg PUBLIC "-//W3C//DTD SVG 20010904//EN"
 "http://www.w3.org/TR/2001/REC-SVG-20010904/DTD/svg10.dtd">
<svg version="1.0" xmlns="http://www.w3.org/2000/svg"
 width="355.000000pt" height="381.000000pt" viewBox="0 0 355.000000 381.000000"
 preserveAspectRatio="xMidYMid meet">
<metadata>
Created by potrace 1.16, written by Peter Selinger 2001-2019
</metadata>
<g transform="translate(0.000000,381.000000) scale(0.100000,-0.100000)"
fill="#000000" stroke="none">
<path d="M1274 3800 l-51 -7 -38 -13 -38 -12 -37 -34 -38 -34 -23 -53 -24 -52
0 -115 0 -115 24 -104 23 -105 19 -48 19 -49 0 -25 0 -25 -34 -33 -33 -34 -74
-16 -74 -15 -105 -6 -105 -6 -190 11 -190 10 -152 7 -153 6 0 -1375 0 -1375
273 -9 272 -9 175 1 175 0 57 17 57 17 37 35 37 35 -5 62 -6 63 -36 82 -37 83
-10 57 -11 58 6 48 7 49 20 53 20 54 45 50 45 50 52 25 52 25 56 9 57 9 62 -8
62 -7 63 -31 64 -32 36 -42 36 -41 24 -51 25 -50 15 -70 15 -70 0 -60 0 -60
-15 -90 -14 -90 -27 -80 -26 -80 -2 -40 -1 -41 18 -28 19 -28 46 -21 47 -22
130 1 130 1 115 22 115 22 75 20 75 20 135 46 135 45 -22 242 -22 241 0 156
-1 156 10 54 10 53 21 44 22 44 34 16 34 16 42 -13 42 -12 106 -29 106 -29 74
-7 75 -6 59 12 60 12 48 30 48 31 25 32 25 33 20 56 19 56 11 98 12 97 -12 44
-12 43 -54 53 -54 54 -73 35 -73 35 -85 24 -85 25 -95 12 -95 12 -70 -6 -70
-7 -36 -9 -36 -10 -37 -25 -37 -25 -6 0 -6 0 6 133 7 132 30 350 30 350 0 71
0 72 -32 24 -33 25 -63 32 -64 32 -88 29 -89 29 -183 41 -183 41 -48 14 -48
14 -42 23 -42 23 -22 25 -23 25 -6 33 -6 33 12 44 13 45 17 0 18 0 12 15 13
16 -1 30 -1 30 -25 44 -26 43 -47 42 -48 42 -35 18 -35 18 -70 20 -70 21 -60
4 -60 5 -51 -8z"/>
</g>
</svg>
