<?xml version="1.0" standalone="no"?>
<!DOCTYPE svg PUBLIC "-//W3C//DTD SVG 20010904//EN"
 "http://www.w3.org/TR/2001/REC-SVG-20010904/DTD/svg10.dtd">
<svg version="1.0" xmlns="http://www.w3.org/2000/svg"
 width="355.000000pt" height="363.000000pt" viewBox="0 0 355.000000 363.000000"
 preserveAspectRatio="xMidYMid meet">
<metadata>
Created by potrace 1.16, written by Peter Selinger 2001-2019
</metadata>
<g transform="translate(0.000000,363.000000) scale(0.100000,-0.100000)"
fill="#000000" stroke="none">
<path d="M1233 3615 l-73 -13 -62 -29 -63 -30 -32 -27 -32 -27 -27 -55 -26
-54 4 -58 4 -57 38 -83 37 -82 6 -68 6 -69 -13 -37 -12 -37 -25 -30 -26 -30
-41 -21 -41 -21 -50 -16 -50 -16 -345 0 -345 -1 -11 -2 -11 -2 -7 -192 -6
-193 -15 -200 -14 -200 -1 -153 0 -153 14 -34 15 -35 18 0 19 0 22 16 22 15
51 15 51 15 76 15 77 15 110 0 110 1 66 -16 66 -15 54 -24 54 -24 42 -41 42
-41 16 -31 16 -31 6 -47 5 -47 -11 -91 -11 -91 -20 -59 -21 -59 -26 -37 -26
-38 -36 -23 -36 -22 -65 0 -65 1 -85 39 -85 39 -48 1 -48 0 -39 -41 -38 -42
-21 -67 -21 -67 -40 -222 -41 -221 -24 -93 -25 -93 -35 -76 -35 -76 0 -11 0
-11 328 0 327 0 68 17 67 18 48 24 49 25 30 35 31 34 12 37 12 38 -4 81 -4 81
-39 85 -39 85 0 57 -1 57 31 43 30 43 64 33 65 32 75 16 75 15 105 -3 105 -3
55 -27 55 -27 44 -43 44 -43 29 -45 29 -45 19 -64 20 -63 0 -58 0 -57 -12 -34
-11 -34 -26 -38 -25 -39 -4 -59 -4 -59 36 -35 37 -34 52 -16 52 -16 120 -8
120 -9 280 8 280 8 30 -1 30 -2 3 45 4 45 -17 318 -18 318 6 147 5 147 17 54
17 54 16 25 16 25 33 14 34 14 39 -11 40 -11 16 -24 15 -24 31 -10 31 -11 71
0 71 0 73 20 74 21 61 30 62 31 41 34 41 33 18 37 17 37 -4 47 -5 46 -24 48
-24 49 -45 38 -45 39 -55 27 -55 27 -90 4 -90 4 -89 -46 -90 -46 -42 0 -42 0
-30 25 -29 25 -21 48 -21 48 -12 69 -13 70 0 180 -1 180 8 245 8 245 -8 11 -8
12 -95 16 -95 16 -230 15 -230 15 -78 11 -77 10 -42 15 -41 14 -32 20 -32 20
-18 33 -18 34 7 46 7 46 29 37 30 37 10 39 11 39 -10 54 -10 54 -29 58 -30 58
-47 47 -48 46 -47 26 -46 25 -59 16 -59 15 -71 -1 -70 -1 -72 -13z"/>
</g>
</svg>
