<?xml version="1.0" standalone="no"?>
<!DOCTYPE svg PUBLIC "-//W3C//DTD SVG 20010904//EN"
 "http://www.w3.org/TR/2001/REC-SVG-20010904/DTD/svg10.dtd">
<svg version="1.0" xmlns="http://www.w3.org/2000/svg"
 width="357.000000pt" height="365.000000pt" viewBox="0 0 357.000000 365.000000"
 preserveAspectRatio="xMidYMid meet">
<metadata>
Created by potrace 1.16, written by Peter Selinger 2001-2019
</metadata>
<g transform="translate(0.000000,365.000000) scale(0.100000,-0.100000)"
fill="#000000" stroke="none">
<path d="M1233 3635 l-73 -13 -62 -29 -63 -30 -32 -27 -32 -27 -27 -54 -26
-55 4 -67 4 -68 37 -81 37 -82 6 -59 7 -60 -13 -37 -12 -37 -25 -30 -26 -30
-41 -21 -41 -21 -50 -16 -50 -16 -345 0 -345 -1 -11 -2 -11 -2 -7 -192 -6
-193 -15 -200 -14 -200 -1 -163 0 -163 14 -34 15 -35 28 0 29 0 22 16 22 15
51 15 51 15 76 15 77 15 101 0 101 0 65 -15 65 -15 54 -24 54 -24 42 -41 42
-41 15 -29 15 -30 7 -39 6 -39 -11 -91 -11 -90 -20 -59 -21 -59 -26 -37 -26
-38 -36 -22 -36 -23 -55 1 -55 0 -85 39 -85 40 -58 0 -58 0 -39 -41 -38 -42
-21 -67 -21 -67 -40 -222 -41 -221 -24 -93 -25 -93 -35 -76 -35 -76 0 -21 0
-21 338 0 337 0 68 17 67 18 48 24 49 25 30 35 31 34 12 37 12 37 -4 92 -4 91
-39 85 -39 85 0 47 0 48 30 42 30 43 64 33 65 32 75 16 75 16 95 -4 95 -3 55
-27 55 -27 44 -43 44 -43 29 -45 29 -45 21 -68 20 -68 -4 -57 -4 -57 -16 -30
-16 -30 -21 -40 -21 -39 0 -59 0 -60 35 -33 36 -33 52 -16 52 -16 123 -9 123
-9 277 8 277 8 40 -1 40 -1 3 55 4 55 -17 318 -18 319 6 136 5 137 17 55 17
55 19 27 19 26 27 9 28 10 32 -9 33 -9 16 -24 15 -24 31 -10 31 -11 81 0 81 0
73 20 73 20 70 36 71 35 43 44 44 43 7 37 6 36 -4 43 -5 43 -24 48 -24 48 -45
38 -45 39 -55 27 -55 27 -100 4 -100 4 -89 -46 -90 -46 -32 0 -32 0 -30 25
-29 25 -21 48 -21 48 -12 69 -13 70 0 170 -1 170 8 255 8 255 -8 11 -8 12 -95
16 -95 16 -230 15 -230 15 -78 11 -77 10 -42 15 -41 14 -31 19 -31 20 -18 31
-19 31 7 39 7 39 29 37 29 37 11 39 10 40 -7 54 -6 55 -33 67 -32 67 -48 47
-48 46 -47 26 -46 25 -59 16 -59 15 -81 -1 -80 -1 -72 -13z"/>
</g>
</svg>
