<?xml version="1.0" standalone="no"?>
<!DOCTYPE svg PUBLIC "-//W3C//DTD SVG 20010904//EN"
 "http://www.w3.org/TR/2001/REC-SVG-20010904/DTD/svg10.dtd">
<svg version="1.0" xmlns="http://www.w3.org/2000/svg"
 width="362.000000pt" height="455.000000pt" viewBox="0 0 362.000000 455.000000"
 preserveAspectRatio="xMidYMid meet">
<metadata>
Created by potrace 1.16, written by Peter Selinger 2001-2019
</metadata>
<g transform="translate(0.000000,455.000000) scale(0.100000,-0.100000)"
fill="#000000" stroke="none">
<path d="M2173 4530 l-43 -19 -45 -47 -46 -46 -40 -84 -40 -83 -20 -93 -19
-93 0 -103 0 -103 15 -77 16 -77 23 -48 24 -49 -67 6 -66 6 -310 31 -310 31
-160 1 -160 2 -1 -400 0 -400 -17 -78 -16 -78 -27 -60 -27 -60 -43 -38 -43
-37 -39 -12 -39 -12 -65 0 -64 0 -57 15 -57 15 -51 26 -51 25 -60 10 -59 10
-42 -12 -42 -11 -28 -20 -28 -20 -24 -48 -25 -49 -10 -69 -11 -70 11 -41 11
-40 32 -42 32 -42 65 -39 65 -39 80 -26 80 -27 146 0 146 -1 74 36 74 37 17 6
17 5 29 -10 29 -10 26 -48 26 -47 12 -75 12 -74 -6 -155 -5 -155 -28 -286 -27
-286 6 -17 7 -17 117 6 118 6 235 14 235 14 125 6 125 7 68 -11 69 -10 24 -16
25 -16 -14 -23 -15 -22 -20 -74 -21 -75 -12 -84 -12 -84 6 -116 5 -116 26 -80
26 -80 34 -51 35 -51 47 -32 47 -31 71 0 71 0 35 21 35 21 43 46 43 47 49 100
49 100 25 90 26 90 15 100 15 100 0 67 0 67 -11 50 -11 51 -23 18 -23 18 -10
36 -10 35 14 32 13 32 48 21 48 21 90 0 90 0 109 -22 109 -22 135 -44 135 -45
105 -50 105 -50 13 0 14 0 0 1384 0 1383 -74 31 -74 31 -115 35 -116 35 -153
30 -153 30 -132 25 -132 26 -66 22 -67 21 -38 36 -38 36 -7 24 -7 23 12 44 13
45 18 10 19 10 15 29 15 29 0 38 0 38 -19 41 -18 40 -32 36 -32 37 -51 25 -52
26 -60 0 -61 0 -42 -20z"/>
</g>
</svg>
