<?xml version="1.0" standalone="no"?>
<!DOCTYPE svg PUBLIC "-//W3C//DTD SVG 20010904//EN"
 "http://www.w3.org/TR/2001/REC-SVG-20010904/DTD/svg10.dtd">
<svg version="1.0" xmlns="http://www.w3.org/2000/svg"
 width="360.000000pt" height="453.000000pt" viewBox="0 0 360.000000 453.000000"
 preserveAspectRatio="xMidYMid meet">
<metadata>
Created by potrace 1.16, written by Peter Selinger 2001-2019
</metadata>
<g transform="translate(0.000000,453.000000) scale(0.100000,-0.100000)"
fill="#000000" stroke="none">
<path d="M2173 4510 l-43 -19 -45 -47 -46 -46 -40 -84 -40 -83 -20 -93 -19
-93 0 -93 0 -93 16 -77 15 -77 25 -51 24 -51 0 -8 0 -8 -82 7 -83 7 -305 30
-305 30 -150 2 -150 2 0 -400 -1 -400 -17 -78 -16 -78 -27 -60 -27 -60 -43
-38 -43 -37 -42 -13 -42 -13 -71 1 -71 1 -58 15 -57 15 -51 26 -51 25 -53 9
-54 9 -38 -11 -38 -10 -28 -20 -28 -20 -24 -48 -24 -48 -10 -63 -11 -63 10
-38 11 -37 32 -42 32 -42 65 -39 65 -39 80 -26 80 -27 136 0 136 -1 74 37 74
37 23 6 22 6 34 -11 33 -11 26 -47 26 -48 12 -75 12 -74 -6 -170 -6 -170 -26
-273 -27 -272 6 -15 6 -15 92 5 93 5 265 17 265 16 170 1 170 0 38 -16 37 -17
6 -16 6 -15 -15 -23 -15 -23 -20 -74 -21 -75 -12 -84 -12 -84 6 -106 6 -106
25 -80 26 -80 34 -51 35 -51 47 -32 47 -31 61 0 61 0 35 21 35 21 43 46 43 47
49 100 49 100 25 90 26 90 15 100 15 100 0 57 0 57 -11 50 -11 51 -23 18 -23
19 -11 41 -12 41 15 36 15 36 48 21 48 22 100 -1 100 0 109 -22 109 -22 135
-44 135 -45 105 -50 105 -50 3 0 4 0 0 1374 0 1373 -74 31 -74 31 -115 35
-116 35 -153 30 -153 30 -132 25 -132 26 -66 22 -67 21 -39 37 -39 36 -6 32
-7 32 13 46 13 45 18 10 19 10 15 29 15 29 0 28 0 28 -19 41 -18 40 -32 36
-32 37 -51 25 -52 26 -50 0 -51 0 -42 -20z"/>
</g>
</svg>
