<?xml version="1.0" standalone="no"?>
<!DOCTYPE svg PUBLIC "-//W3C//DTD SVG 20010904//EN"
 "http://www.w3.org/TR/2001/REC-SVG-20010904/DTD/svg10.dtd">
<svg version="1.0" xmlns="http://www.w3.org/2000/svg"
 width="271.000000pt" height="289.000000pt" viewBox="0 0 271.000000 289.000000"
 preserveAspectRatio="xMidYMid meet">
<metadata>
Created by potrace 1.16, written by Peter Selinger 2001-2019
</metadata>
<g transform="translate(0.000000,289.000000) scale(0.100000,-0.100000)"
fill="#000000" stroke="none">
<path d="M1737 2880 l-57 -7 -45 -17 -44 -17 -26 -30 -25 -31 0 -31 0 -32 11
-37 10 -38 14 0 15 0 14 -22 15 -23 7 -41 6 -42 -17 -83 -17 -84 -38 -82 -38
-81 -43 -47 -43 -47 -30 -15 -30 -16 -65 7 -66 6 -61 30 -60 31 -40 37 -39 37
-23 30 -23 30 -29 60 -29 60 -17 88 -17 87 10 74 11 74 26 54 25 53 13 17 12
17 -8 8 -8 8 -141 -2 -142 -1 -205 -21 -205 -20 -140 -11 -140 -12 -7 -4 -8
-5 0 -1378 0 -1378 153 -6 152 -7 195 -11 195 -10 115 6 115 7 69 15 69 15 33
34 34 33 0 35 0 35 -19 49 -19 48 -23 105 -24 104 0 105 1 105 23 52 23 53 39
35 38 34 58 17 57 17 81 -1 80 -1 70 -22 70 -21 35 -18 35 -18 44 -38 44 -38
29 -45 28 -45 0 -26 0 -26 -12 -12 -12 -12 -16 0 -17 0 -11 -39 -12 -38 0 -31
0 -31 9 -23 9 -23 18 -20 19 -20 42 -23 42 -23 48 -14 48 -14 183 -41 183 -41
89 -29 88 -29 69 -35 68 -36 16 -12 16 -11 15 5 15 6 6 174 7 173 0 185 0 185
-10 65 -11 65 -25 53 -26 52 -21 12 -22 12 -48 -1 -48 -1 -59 -36 -60 -37 -35
-6 -35 -6 -44 13 -44 12 -51 45 -51 45 -34 71 -34 72 -13 60 -13 60 0 140 0
140 7 47 8 46 24 26 24 26 28 -11 28 -10 31 -24 31 -24 46 -12 46 -11 74 4 74
3 49 30 49 31 37 49 37 49 25 66 24 65 18 85 19 85 0 333 0 333 -12 7 -12 8
-258 32 -258 32 -120 10 -120 10 -65 -1 -65 -2 -58 -7z"/>
</g>
</svg>
