<?xml version="1.0" standalone="no"?>
<!DOCTYPE svg PUBLIC "-//W3C//DTD SVG 20010904//EN"
 "http://www.w3.org/TR/2001/REC-SVG-20010904/DTD/svg10.dtd">
<svg version="1.0" xmlns="http://www.w3.org/2000/svg"
 width="269.000000pt" height="287.000000pt" viewBox="0 0 269.000000 287.000000"
 preserveAspectRatio="xMidYMid meet">
<metadata>
Created by potrace 1.16, written by Peter Selinger 2001-2019
</metadata>
<g transform="translate(0.000000,287.000000) scale(0.100000,-0.100000)"
fill="#000000" stroke="none">
<path d="M1737 2860 l-57 -7 -45 -17 -44 -17 -26 -30 -25 -31 0 -21 0 -22 11
-37 10 -38 14 0 15 0 15 -24 16 -23 6 -50 5 -50 -17 -84 -17 -84 -38 -82 -38
-81 -43 -47 -43 -47 -30 -15 -30 -16 -75 6 -74 6 -62 31 -61 31 -40 37 -39 37
-23 30 -23 30 -29 60 -28 60 -17 84 -17 84 6 75 7 74 20 53 20 53 20 26 20 25
-36 7 -36 6 -112 -6 -112 -7 -195 -19 -195 -19 -140 -11 -140 -12 -7 -4 -8 -5
0 -1368 0 -1368 153 -6 152 -7 190 -10 190 -11 105 6 105 6 74 15 74 16 33 34
34 33 0 25 0 25 -19 49 -19 48 -23 105 -24 104 0 115 0 115 24 52 23 53 39 35
38 34 58 17 58 17 90 -1 90 -1 70 -21 70 -22 35 -18 35 -18 48 -42 47 -42 26
-43 25 -44 1 -30 1 -30 -13 -16 -12 -15 -18 0 -17 0 -13 -45 -12 -44 6 -33 6
-33 23 -25 22 -25 42 -23 42 -23 48 -14 48 -14 183 -41 183 -41 89 -29 88 -29
64 -32 63 -31 18 -16 17 -16 10 10 10 10 6 335 7 334 -12 75 -12 75 -25 53
-26 52 -20 11 -21 11 -40 0 -40 -1 -60 -37 -59 -37 -44 -5 -44 -5 -44 13 -44
12 -51 45 -51 45 -34 71 -34 72 -13 60 -14 60 1 150 0 150 7 47 8 46 25 27 25
27 27 -6 27 -7 43 -29 42 -30 45 -11 45 -11 64 4 64 4 48 30 49 30 37 49 37
49 25 66 24 65 18 85 19 85 0 323 0 323 -12 7 -12 8 -258 32 -258 32 -120 10
-120 10 -55 -1 -55 -2 -58 -7z"/>
</g>
</svg>
