<?xml version="1.0" standalone="no"?>
<!DOCTYPE svg PUBLIC "-//W3C//DTD SVG 20010904//EN"
 "http://www.w3.org/TR/2001/REC-SVG-20010904/DTD/svg10.dtd">
<svg version="1.0" xmlns="http://www.w3.org/2000/svg"
 width="356.000000pt" height="284.000000pt" viewBox="0 0 356.000000 284.000000"
 preserveAspectRatio="xMidYMid meet">
<metadata>
Created by potrace 1.16, written by Peter Selinger 2001-2019
</metadata>
<g transform="translate(0.000000,284.000000) scale(0.100000,-0.100000)"
fill="#000000" stroke="none">
<path d="M2602 2825 l-54 -13 -26 -19 -27 -20 -13 -24 -13 -24 5 -38 4 -37 20
-38 19 -37 16 -50 15 -50 6 -43 7 -44 -12 -61 -11 -62 -26 -49 -26 -48 -44
-39 -45 -39 -56 -27 -56 -28 -109 -4 -109 -3 -76 12 -76 12 -48 18 -48 19 -35
26 -34 26 0 29 0 29 30 22 29 22 12 52 12 53 -5 83 -5 84 -21 40 -20 40 -37
38 -37 37 -62 29 -61 29 -75 18 -75 17 -189 5 -189 4 -124 -7 -124 -7 6 -18 6
-18 1 -278 1 -279 -16 -75 -15 -75 -23 -60 -22 -59 -51 -51 -51 -51 -50 -14
-50 -14 -55 1 -55 1 -45 11 -45 12 -65 31 -65 32 -52 0 -52 1 -30 -29 -30 -29
-16 -46 -15 -46 -10 -90 -10 -90 0 -87 0 -87 11 -53 11 -53 29 -55 29 -55 28
-28 27 -28 34 -29 35 -30 41 -20 41 -20 50 0 51 0 17 18 17 17 13 19 13 19 49
4 50 5 31 -26 30 -26 21 -47 20 -48 16 -75 15 -75 25 -205 25 -205 16 -85 16
-85 26 -90 27 -90 355 0 356 1 50 15 50 16 41 21 41 21 26 30 25 30 12 37 13
37 -6 69 -6 68 -37 82 -38 83 -4 57 -4 58 26 54 27 55 32 27 32 27 62 29 62
30 78 13 78 14 65 1 66 0 59 -15 59 -16 46 -25 47 -26 48 -46 47 -47 30 -58
29 -58 10 -54 10 -54 -11 -39 -10 -39 -30 -37 -29 -37 -7 -46 -7 -46 18 -34
18 -33 32 -20 32 -20 41 -14 42 -15 77 -10 78 -11 234 -15 234 -16 85 -15 85
-15 5 6 6 5 -23 63 -24 62 -28 106 -28 106 -46 277 -46 277 -19 62 -20 62 -19
31 -19 31 -37 17 -37 18 -42 -12 -41 -11 -15 -32 -15 -32 -42 -3 -43 -3 -43
19 -43 19 -38 33 -37 33 -30 43 -30 44 -15 42 -15 43 -1 61 0 60 21 43 22 42
39 38 40 38 68 36 68 36 79 22 80 23 115 0 115 1 66 -23 67 -23 17 -19 18 -20
13 0 14 0 7 28 8 27 -2 155 -1 155 -20 275 -21 275 -7 103 -6 102 -22 5 -21 5
-140 20 -140 21 -130 14 -130 15 -130 -1 -130 -1 -53 -13z"/>
</g>
</svg>
