<?xml version="1.0" standalone="no"?>
<!DOCTYPE svg PUBLIC "-//W3C//DTD SVG 20010904//EN"
 "http://www.w3.org/TR/2001/REC-SVG-20010904/DTD/svg10.dtd">
<svg version="1.0" xmlns="http://www.w3.org/2000/svg"
 width="358.000000pt" height="286.000000pt" viewBox="0 0 358.000000 286.000000"
 preserveAspectRatio="xMidYMid meet">
<metadata>
Created by potrace 1.16, written by Peter Selinger 2001-2019
</metadata>
<g transform="translate(0.000000,286.000000) scale(0.100000,-0.100000)"
fill="#000000" stroke="none">
<path d="M2602 2845 l-54 -13 -26 -19 -27 -20 -13 -24 -13 -24 4 -46 4 -45 17
-35 18 -34 15 -40 14 -40 9 -53 9 -53 -10 -57 -11 -57 -26 -49 -26 -48 -44
-39 -45 -39 -55 -27 -56 -27 -99 -4 -99 -4 -77 12 -76 12 -48 18 -48 19 -35
26 -34 26 0 19 0 19 30 22 29 22 12 52 12 52 -5 94 -4 94 -21 40 -21 40 -37
38 -37 37 -62 29 -61 29 -75 18 -75 17 -200 5 -199 4 -124 -7 -123 -7 6 -37 6
-36 1 -260 1 -260 -16 -75 -15 -75 -23 -60 -22 -59 -51 -51 -51 -51 -45 -13
-45 -13 -51 0 -51 0 -44 12 -44 11 -65 32 -65 31 -62 1 -62 0 -30 -29 -30 -29
-16 -46 -15 -46 -10 -90 -10 -90 0 -97 0 -97 11 -53 11 -53 29 -55 29 -55 28
-28 27 -28 34 -29 35 -30 41 -20 41 -20 60 0 61 0 17 18 17 17 12 18 13 18 40
6 40 5 31 -26 30 -26 21 -47 20 -48 16 -75 15 -75 25 -205 25 -205 16 -85 16
-85 26 -90 27 -90 365 0 366 1 50 15 50 16 41 21 41 21 26 30 25 30 12 37 13
37 -6 78 -5 77 -38 83 -39 84 0 61 0 61 30 49 31 49 47 32 47 32 56 20 55 21
95 12 94 12 67 -11 66 -12 61 -30 61 -30 49 -48 49 -48 34 -72 35 -71 1 -54 1
-53 -17 -30 -17 -30 -21 -26 -20 -25 -6 -56 -6 -56 19 -31 19 -32 31 -20 31
-19 41 -14 42 -15 77 -10 78 -11 234 -15 234 -16 81 -14 81 -15 18 0 17 0 0
23 0 23 -25 63 -24 63 -25 100 -26 99 -45 275 -46 275 -19 62 -20 62 -19 31
-19 31 -35 16 -35 17 -17 0 -18 0 -36 -11 -36 -11 -15 -31 -15 -32 -33 -3 -34
-3 -53 26 -54 26 -45 50 -44 49 -23 48 -23 47 -4 66 -4 66 21 42 22 42 39 38
40 38 68 36 68 36 79 22 80 22 105 1 105 0 66 -22 67 -23 17 -19 18 -20 23 0
24 0 7 28 8 27 -1 165 -2 165 -20 275 -21 275 -7 103 -6 102 -22 5 -21 5 -140
20 -140 21 -130 14 -130 15 -140 -1 -140 -1 -53 -13z"/>
</g>
</svg>
