<?xml version="1.0" standalone="no"?>
<!DOCTYPE svg PUBLIC "-//W3C//DTD SVG 20010904//EN"
 "http://www.w3.org/TR/2001/REC-SVG-20010904/DTD/svg10.dtd">
<svg version="1.0" xmlns="http://www.w3.org/2000/svg"
 width="338.000000pt" height="353.000000pt" viewBox="0 0 338.000000 353.000000"
 preserveAspectRatio="xMidYMid meet">
<metadata>
Created by potrace 1.16, written by Peter Selinger 2001-2019
</metadata>
<g transform="translate(0.000000,353.000000) scale(0.100000,-0.100000)"
fill="#000000" stroke="none">
<path d="M1040 3515 l-155 -13 -98 -7 -98 -7 7 -306 7 -307 -12 -88 -12 -89
-21 -55 -20 -55 -29 -33 -30 -34 -47 -23 -47 -22 -90 0 -90 0 -72 18 -72 18
-6 18 -6 17 -18 17 -19 17 -25 -33 -26 -33 -21 -79 -22 -79 -6 -116 -7 -116 7
-68 6 -68 30 -64 30 -64 43 -46 43 -46 40 -24 41 -23 43 -12 42 -11 39 11 40
10 18 23 18 23 34 12 34 12 34 0 35 0 37 -39 37 -39 12 -40 12 -40 11 -79 10
-78 -7 -368 -7 -369 134 7 134 6 223 15 222 14 150 1 149 0 40 -11 40 -11 9
-16 9 -16 -23 -51 -23 -51 -22 -90 -23 -90 0 -115 -1 -115 23 -50 23 -50 36
-32 35 -32 34 -16 35 -16 62 -10 62 -11 70 7 70 6 63 14 62 15 48 24 47 24 12
21 13 20 -6 16 -7 16 -28 6 -28 5 -10 31 -11 30 0 26 0 26 20 33 20 32 32 20
33 20 80 26 80 25 145 36 145 35 109 35 110 35 71 32 70 33 66 41 66 42 12 0
11 0 0 4 0 4 -28 29 -28 28 -41 70 -41 70 -35 85 -35 85 -30 105 -30 105 -41
158 -41 157 -24 49 -25 48 -33 28 -32 27 -49 -5 -50 -4 -31 -38 -32 -38 -23 8
-23 7 -13 31 -13 32 -11 75 -11 75 -2 135 -3 135 26 55 27 55 34 40 35 40 45
23 45 22 48 0 47 0 35 -35 35 -35 43 -10 42 -9 39 10 39 11 31 23 30 23 32 60
32 61 19 73 19 74 13 119 12 120 -6 278 -6 279 -5 6 -6 6 -30 -23 -30 -22 -88
-44 -87 -43 -101 -35 -101 -35 -224 -57 -224 -56 -58 -26 -58 -26 -29 -34 -30
-34 0 -39 0 -39 10 -25 10 -26 18 0 18 0 12 -12 12 -12 0 -22 0 -22 -31 -30
-32 -31 -44 -21 -44 -20 -56 -15 -57 -15 -81 0 -80 0 -51 14 -52 14 -52 28
-52 28 -52 51 -51 51 -32 59 -31 60 -17 65 -17 65 4 75 5 75 21 45 21 45 23
37 23 36 -18 20 -18 20 -44 11 -44 11 -163 -1 -163 -2 -155 -12z"/>
</g>
</svg>
