<?xml version="1.0" standalone="no"?>
<!DOCTYPE svg PUBLIC "-//W3C//DTD SVG 20010904//EN"
 "http://www.w3.org/TR/2001/REC-SVG-20010904/DTD/svg10.dtd">
<svg version="1.0" xmlns="http://www.w3.org/2000/svg"
 width="340.000000pt" height="355.000000pt" viewBox="0 0 340.000000 355.000000"
 preserveAspectRatio="xMidYMid meet">
<metadata>
Created by potrace 1.16, written by Peter Selinger 2001-2019
</metadata>
<g transform="translate(0.000000,355.000000) scale(0.100000,-0.100000)"
fill="#000000" stroke="none">
<path d="M1040 3535 l-155 -13 -98 -7 -99 -7 7 -311 7 -312 -12 -84 -11 -84
-21 -54 -20 -55 -29 -33 -30 -34 -47 -22 -47 -23 -80 0 -80 0 -70 18 -70 17
-17 30 -17 29 -17 7 -17 6 -28 -32 -27 -33 -22 -81 -22 -80 -7 -123 -7 -124 7
-71 8 -71 30 -63 29 -64 43 -46 43 -46 40 -24 41 -23 44 -12 43 -11 41 7 41 6
28 28 27 28 32 11 32 11 24 0 25 0 37 -39 37 -39 12 -40 12 -40 11 -79 10 -78
-7 -369 -7 -368 144 6 144 7 220 15 220 14 150 -1 150 0 35 -12 35 -12 -2 -20
-2 -20 -25 -71 -25 -71 -17 -94 -16 -94 5 -85 4 -86 22 -49 22 -50 36 -32 35
-32 34 -16 35 -16 62 -11 62 -10 80 6 80 7 63 14 62 15 48 24 48 24 13 25 13
25 -7 21 -7 22 -29 6 -29 5 -11 39 -12 38 13 31 13 30 28 24 29 24 57 22 58
22 195 49 195 50 95 31 95 31 70 32 70 32 66 41 66 42 12 0 11 0 0 14 0 14
-28 29 -28 28 -41 70 -41 70 -35 85 -35 85 -30 105 -30 105 -41 158 -41 157
-24 49 -25 48 -33 28 -32 27 -59 -4 -59 -4 -32 -39 -33 -38 -20 20 -21 21 -12
53 -11 54 -9 137 -8 136 9 46 8 45 20 38 19 38 35 40 34 40 45 23 45 22 38 0
37 0 35 -35 36 -36 47 -10 48 -10 44 11 43 12 32 24 32 24 35 70 35 70 15 72
16 73 10 90 10 90 0 191 0 191 -7 121 -6 122 -17 0 -17 0 -25 -20 -25 -19 -89
-45 -89 -44 -101 -35 -101 -35 -224 -57 -224 -56 -58 -26 -58 -26 -29 -34 -30
-34 0 -49 0 -49 10 -25 10 -26 19 0 19 0 12 -15 13 -16 -12 -22 -12 -22 -37
-26 -37 -26 -60 -23 -60 -22 -86 -5 -86 -6 -54 13 -54 12 -58 31 -58 31 -52
51 -52 51 -32 59 -31 60 -16 61 -16 62 0 49 0 49 15 50 15 49 30 45 30 45 0
21 0 21 -17 15 -18 16 -40 11 -40 11 -175 -1 -175 -2 -155 -12z"/>
</g>
</svg>
