<?xml version="1.0" standalone="no"?>
<!DOCTYPE svg PUBLIC "-//W3C//DTD SVG 20010904//EN"
 "http://www.w3.org/TR/2001/REC-SVG-20010904/DTD/svg10.dtd">
<svg version="1.0" xmlns="http://www.w3.org/2000/svg"
 width="313.000000pt" height="280.000000pt" viewBox="0 0 313.000000 280.000000"
 preserveAspectRatio="xMidYMid meet">
<metadata>
Created by potrace 1.16, written by Peter Selinger 2001-2019
</metadata>
<g transform="translate(0.000000,280.000000) scale(0.100000,-0.100000)"
fill="#000000" stroke="none">
<path d="M410 2788 l-195 -9 -3 -4 -4 -4 -1 -338 -2 -338 17 -71 17 -71 22
-58 21 -58 47 -47 46 -48 59 -17 58 -17 57 7 56 6 35 11 35 11 36 28 37 29 29
0 30 0 21 -23 21 -22 20 -45 19 -45 12 -83 12 -82 -4 -98 -4 -98 -27 -56 -28
-57 -46 -40 -45 -40 -57 -22 -56 -23 -105 0 -105 0 -83 23 -83 22 -50 19 -50
20 -40 0 -41 0 -33 -33 -32 -32 -12 -53 -11 -53 0 -74 0 -74 16 -113 15 -113
34 -131 34 -131 46 -134 47 -134 5 -31 5 -31 196 -6 195 -7 206 0 206 0 92 19
92 19 52 28 52 29 26 39 26 40 0 80 0 81 -39 84 -38 83 -5 57 -5 57 16 55 16
54 35 47 35 47 52 31 53 30 50 10 51 11 98 -11 98 -11 62 -20 63 -19 41 -30
41 -30 17 -31 16 -32 -6 -29 -6 -29 -32 -45 -32 -45 -4 -64 -4 -64 21 -35 22
-35 62 -31 62 -30 200 -50 200 -49 77 -25 76 -25 66 -31 66 -31 60 -41 60 -40
13 5 13 5 62 183 61 184 30 125 30 125 17 110 16 110 -4 115 -4 115 -21 41
-22 41 -30 13 -31 12 -32 -4 -33 -5 -90 -27 -90 -27 -95 -15 -95 -16 -76 6
-76 5 -55 21 -55 20 -40 35 -40 34 -23 53 -23 53 0 85 0 85 16 56 17 57 39 35
38 35 39 13 39 14 105 -1 105 -2 124 -27 125 -27 24 -19 25 -19 13 0 14 0 16
24 16 25 5 93 5 93 -16 235 -16 235 -12 225 -12 226 -375 -3 -376 -3 -113 -10
-113 -10 -65 -22 -65 -21 -24 -29 -25 -30 0 -48 0 -49 10 -25 10 -26 14 0 15
0 15 -22 16 -22 0 -46 0 -45 -24 -50 -24 -50 -18 -24 -19 -24 -28 -28 -28 -29
-42 -22 -42 -22 -70 1 -70 2 -60 21 -59 20 -6 8 -5 7 -28 19 -29 18 -19 41
-19 42 0 40 0 40 45 95 45 95 0 53 0 54 -17 28 -16 28 -38 22 -38 21 -68 14
-68 15 -240 -2 -240 -1 -195 -9z"/>
</g>
</svg>
