<?xml version="1.0" standalone="no"?>
<!DOCTYPE svg PUBLIC "-//W3C//DTD SVG 20010904//EN"
 "http://www.w3.org/TR/2001/REC-SVG-20010904/DTD/svg10.dtd">
<svg version="1.0" xmlns="http://www.w3.org/2000/svg"
 width="311.000000pt" height="278.000000pt" viewBox="0 0 311.000000 278.000000"
 preserveAspectRatio="xMidYMid meet">
<metadata>
Created by potrace 1.16, written by Peter Selinger 2001-2019
</metadata>
<g transform="translate(0.000000,278.000000) scale(0.100000,-0.100000)"
fill="#000000" stroke="none">
<path d="M410 2768 l-195 -9 -3 -4 -4 -3 -1 -329 -1 -328 16 -71 17 -71 22
-58 21 -58 47 -47 46 -48 57 -17 58 -16 47 6 48 7 35 10 35 11 36 28 37 29 39
0 40 0 21 -23 21 -22 20 -45 19 -45 12 -82 12 -83 -3 -107 -4 -108 -28 -57
-28 -57 -46 -40 -45 -40 -57 -23 -56 -22 -115 0 -115 0 -83 22 -83 23 -50 19
-50 20 -30 0 -31 0 -33 -33 -32 -32 -12 -53 -11 -53 0 -67 0 -67 15 -104 15
-104 20 -86 21 -86 34 -115 35 -115 31 -80 30 -80 1 -21 1 -21 195 -6 195 -7
196 0 196 0 92 19 92 19 52 28 52 29 26 39 26 40 0 70 0 71 -39 85 -39 84 -5
66 -4 66 16 55 16 54 35 47 35 47 52 31 53 30 53 11 53 11 105 -12 105 -11 63
-19 63 -20 41 -30 41 -30 17 -31 16 -32 -5 -38 -5 -38 -33 -45 -32 -46 -5 -54
-4 -55 21 -35 22 -35 62 -31 62 -30 200 -50 200 -49 80 -26 80 -26 79 -40 78
-39 41 -30 41 -30 7 7 7 8 52 150 51 150 39 152 39 153 17 115 16 115 -4 102
-4 103 -22 41 -21 41 -30 13 -31 12 -22 -5 -23 -4 -90 -27 -90 -27 -95 -15
-95 -16 -85 5 -85 5 -56 21 -56 21 -40 35 -40 34 -23 53 -23 53 0 95 0 95 16
56 17 57 39 35 38 35 39 13 39 14 115 -1 115 -1 124 -27 125 -28 25 -20 26
-19 17 20 16 21 8 68 7 67 -17 265 -17 265 -11 215 -12 215 -365 -3 -366 -2
-113 -10 -113 -10 -65 -22 -65 -21 -24 -29 -25 -30 0 -38 0 -39 10 -25 10 -26
14 0 15 0 15 -22 16 -22 0 -56 0 -55 -24 -50 -24 -50 -18 -24 -19 -24 -28 -28
-28 -29 -42 -22 -42 -23 -80 2 -80 2 -60 21 -59 20 -6 8 -5 7 -28 19 -29 18
-19 41 -19 42 0 50 0 50 45 95 45 95 0 43 0 44 -17 28 -16 28 -38 22 -38 21
-68 14 -68 15 -230 -2 -230 -1 -195 -9z"/>
</g>
</svg>
