<?xml version="1.0" standalone="no"?>
<!DOCTYPE svg PUBLIC "-//W3C//DTD SVG 20010904//EN"
 "http://www.w3.org/TR/2001/REC-SVG-20010904/DTD/svg10.dtd">
<svg version="1.0" xmlns="http://www.w3.org/2000/svg"
 width="285.000000pt" height="290.000000pt" viewBox="0 0 285.000000 290.000000"
 preserveAspectRatio="xMidYMid meet">
<metadata>
Created by potrace 1.16, written by Peter Selinger 2001-2019
</metadata>
<g transform="translate(0.000000,290.000000) scale(0.100000,-0.100000)"
fill="#000000" stroke="none">
<path d="M146 2753 l-6 -148 -27 -370 -26 -370 7 -38 7 -38 15 -6 15 -6 27 26
27 26 50 22 50 22 90 5 90 4 63 -16 63 -16 57 -27 57 -27 58 -57 58 -58 22
-48 22 -48 -1 -71 0 -70 -29 -50 -28 -49 -46 -47 -45 -48 -55 -33 -56 -33 -50
-21 -50 -21 -78 -16 -79 -17 -36 7 -37 6 -23 14 -22 14 0 14 0 14 -31 11 -32
11 -38 0 -37 0 -31 -26 -31 -26 -15 -51 -15 -51 0 -125 0 -126 14 -95 15 -96
21 -104 22 -105 34 -118 34 -119 0 -19 0 -19 23 1 22 1 360 -8 360 -7 88 12
88 12 60 19 60 18 34 23 34 24 20 36 21 37 0 60 0 60 -39 74 -38 73 -7 35 -6
36 15 57 15 57 24 37 24 38 38 37 39 37 37 16 37 15 35 0 34 0 31 -26 30 -25
35 -57 34 -57 27 -75 26 -75 15 -70 15 -70 2 -65 2 -65 -14 -32 -13 -32 -20
-7 -19 -6 -10 -25 -9 -24 0 -54 0 -54 36 -35 35 -34 52 -14 52 -13 160 1 160
1 121 17 121 16 134 24 134 24 98 18 99 18 -6 29 -6 30 0 1358 0 1359 -1344 0
-1344 0 -6 -147z"/>
</g>
</svg>
