<?xml version="1.0" standalone="no"?>
<!DOCTYPE svg PUBLIC "-//W3C//DTD SVG 20010904//EN"
 "http://www.w3.org/TR/2001/REC-SVG-20010904/DTD/svg10.dtd">
<svg version="1.0" xmlns="http://www.w3.org/2000/svg"
 width="283.000000pt" height="288.000000pt" viewBox="0 0 283.000000 288.000000"
 preserveAspectRatio="xMidYMid meet">
<metadata>
Created by potrace 1.16, written by Peter Selinger 2001-2019
</metadata>
<g transform="translate(0.000000,288.000000) scale(0.100000,-0.100000)"
fill="#000000" stroke="none">
<path d="M146 2723 l-7 -158 -25 -329 -24 -328 0 -39 0 -38 10 -27 11 -27 27
26 27 26 50 22 50 22 100 5 100 4 63 -16 63 -16 57 -27 57 -27 58 -57 58 -58
22 -48 22 -48 0 -80 0 -80 -29 -50 -29 -50 -46 -47 -45 -48 -55 -33 -56 -33
-50 -21 -50 -21 -80 -17 -80 -16 -45 6 -45 7 -22 14 -23 14 0 14 0 14 -31 11
-32 11 -28 0 -27 0 -31 -26 -31 -26 -15 -51 -15 -51 0 -115 0 -116 14 -95 15
-96 21 -104 22 -105 34 -118 34 -119 0 -16 0 -17 23 -1 22 -2 350 -7 350 -8
88 12 88 12 60 19 60 18 34 23 34 24 20 36 21 37 0 50 0 50 -39 74 -39 73 -7
42 -7 42 16 60 15 61 25 37 24 38 38 37 39 37 37 16 37 15 45 0 44 0 31 -26
30 -25 35 -57 34 -57 27 -75 26 -75 15 -70 16 -70 1 -75 2 -75 -14 -32 -13
-32 -20 -7 -19 -6 -10 -25 -9 -24 0 -44 0 -44 36 -35 35 -34 52 -14 52 -13
150 1 150 1 121 17 121 16 134 24 134 24 98 18 98 17 -6 15 -5 14 0 1364 0
1364 -1334 0 -1334 0 -6 -157z"/>
</g>
</svg>
