<?xml version="1.0" standalone="no"?>
<!DOCTYPE svg PUBLIC "-//W3C//DTD SVG 20010904//EN"
 "http://www.w3.org/TR/2001/REC-SVG-20010904/DTD/svg10.dtd">
<svg version="1.0" xmlns="http://www.w3.org/2000/svg"
 width="426.000000pt" height="381.000000pt" viewBox="0 0 426.000000 381.000000"
 preserveAspectRatio="xMidYMid meet">
<metadata>
Created by potrace 1.16, written by Peter Selinger 2001-2019
</metadata>
<g transform="translate(0.000000,381.000000) scale(0.100000,-0.100000)"
fill="#000000" stroke="none">
<path d="M2487 3800 l-38 -10 -28 -15 -29 -15 -21 -26 -21 -27 0 -39 0 -38 37
-93 38 -92 0 -115 0 -115 -31 -65 -31 -66 -33 -38 -33 -37 -42 -29 -42 -29
-64 -21 -64 -22 -190 5 -190 5 -52 16 -52 17 -37 34 -37 35 6 37 7 38 29 57
30 57 17 82 16 82 -4 71 -5 71 -18 35 -17 35 -22 23 -21 24 -37 19 -38 19 -67
16 -68 17 -220 -1 -220 0 -117 -7 -118 -7 0 -97 1 -96 14 -260 15 -260 0 -110
0 -111 -11 -84 -10 -85 -17 -35 -17 -35 -25 -14 -25 -14 -65 31 -66 30 -61 16
-61 16 -73 0 -74 0 -44 -20 -44 -20 -24 -28 -25 -27 -21 -45 -20 -45 -1 -75
-1 -75 25 -50 24 -49 41 -41 41 -41 49 -25 50 -24 90 0 90 0 61 38 60 37 36 2
37 1 25 -17 26 -16 19 -39 20 -38 12 -69 12 -69 -6 -180 -6 -180 -26 -255 -25
-255 -7 -34 -6 -34 24 7 24 7 333 14 334 15 91 -10 92 -9 47 -17 48 -16 25
-30 25 -30 0 -33 0 -34 -29 -74 -28 -74 -18 -72 -17 -71 4 -113 5 -112 22 -49
22 -49 55 -53 54 -53 58 -22 57 -23 120 -1 120 0 67 33 66 32 58 63 59 63 34
68 33 69 11 64 11 64 -14 42 -15 42 -21 3 -21 3 -12 40 -12 40 18 37 18 37 55
28 55 27 70 15 70 14 205 26 205 26 70 14 70 15 83 22 82 23 0 11 0 11 35 76
35 76 25 93 24 93 41 221 40 222 21 67 21 67 38 41 38 42 39 -1 38 0 85 -39
85 -40 75 0 75 0 36 22 36 23 26 38 26 37 21 59 20 59 11 91 11 91 -5 56 -5
56 -16 32 -17 32 -42 41 -42 41 -51 23 -51 22 -43 12 -43 12 -81 8 -80 8 -99
-9 -100 -8 -86 -22 -86 -21 -31 -19 -31 -19 -7 0 -7 0 -15 35 -14 34 0 143 1
143 14 200 15 200 7 211 6 210 -142 32 -141 32 -118 21 -117 21 -155 4 -155 3
-38 -9z"/>
</g>
</svg>
