<?xml version="1.0" standalone="no"?>
<!DOCTYPE svg PUBLIC "-//W3C//DTD SVG 20010904//EN"
 "http://www.w3.org/TR/2001/REC-SVG-20010904/DTD/svg10.dtd">
<svg version="1.0" xmlns="http://www.w3.org/2000/svg"
 width="424.000000pt" height="379.000000pt" viewBox="0 0 424.000000 379.000000"
 preserveAspectRatio="xMidYMid meet">
<metadata>
Created by potrace 1.16, written by Peter Selinger 2001-2019
</metadata>
<g transform="translate(0.000000,379.000000) scale(0.100000,-0.100000)"
fill="#000000" stroke="none">
<path d="M2487 3780 l-38 -10 -28 -15 -29 -15 -21 -26 -21 -27 0 -29 0 -28 37
-93 38 -92 0 -125 0 -125 -31 -65 -31 -66 -33 -38 -33 -37 -42 -29 -42 -29
-64 -21 -64 -22 -200 5 -200 5 -52 16 -52 17 -37 34 -37 35 6 46 5 45 30 59
31 59 17 82 16 82 -4 62 -5 61 -18 34 -17 35 -22 23 -21 24 -37 19 -38 19 -67
16 -68 17 -215 -1 -215 -1 -112 -6 -113 -7 0 -76 0 -77 16 -295 16 -295 -5
-150 -6 -150 -15 -55 -14 -55 -27 -22 -26 -23 -20 0 -20 0 -62 29 -63 29 -61
16 -61 16 -63 0 -64 0 -44 -20 -44 -20 -24 -28 -25 -27 -20 -45 -21 -44 -1
-66 0 -65 24 -50 24 -49 41 -41 41 -41 49 -25 50 -24 80 0 80 0 61 38 62 38
44 2 44 2 27 -18 27 -17 19 -39 20 -38 12 -69 12 -68 -6 -191 -6 -190 -25
-255 -26 -255 -5 -23 -6 -24 11 7 10 6 343 15 342 14 95 -10 95 -9 47 -17 48
-16 25 -30 25 -30 0 -43 0 -44 -29 -74 -28 -74 -18 -72 -17 -71 4 -103 5 -102
22 -49 22 -49 55 -53 54 -53 58 -22 57 -23 110 0 110 -1 67 33 66 32 58 63 59
63 34 68 33 69 11 61 10 61 -16 37 -16 38 -19 0 -19 0 -13 44 -12 44 11 35 12
35 17 15 18 16 47 21 48 21 67 14 67 14 205 26 205 26 75 15 75 15 70 21 70
22 8 -2 7 -2 0 14 0 13 35 76 35 76 25 93 24 93 41 221 40 222 21 67 21 67 38
42 39 41 48 0 48 -1 85 -39 85 -39 65 -1 65 0 36 22 36 23 26 38 26 37 21 59
20 59 11 91 11 91 -5 47 -6 47 -16 31 -16 31 -42 41 -42 41 -54 24 -54 24 -66
15 -66 16 -110 -1 -110 0 -77 -15 -76 -15 -51 -15 -51 -15 -22 -15 -22 -16
-19 0 -18 0 -15 35 -14 34 0 153 1 153 14 200 15 200 6 201 7 200 -142 32
-141 32 -118 21 -117 20 -145 4 -145 4 -38 -9z"/>
</g>
</svg>
