<?xml version="1.0" standalone="no"?>
<!DOCTYPE svg PUBLIC "-//W3C//DTD SVG 20010904//EN"
 "http://www.w3.org/TR/2001/REC-SVG-20010904/DTD/svg10.dtd">
<svg version="1.0" xmlns="http://www.w3.org/2000/svg"
 width="414.000000pt" height="287.000000pt" viewBox="0 0 414.000000 287.000000"
 preserveAspectRatio="xMidYMid meet">
<metadata>
Created by potrace 1.16, written by Peter Selinger 2001-2019
</metadata>
<g transform="translate(0.000000,287.000000) scale(0.100000,-0.100000)"
fill="#000000" stroke="none">
<path d="M2542 2855 l-62 -14 -30 -21 -30 -21 -10 -19 -10 -19 0 -39 0 -39 26
-39 27 -39 13 -32 14 -32 0 -69 0 -69 -19 -75 -20 -75 -31 -66 -32 -66 -27
-32 -26 -33 -40 -39 -40 -39 -50 -26 -50 -26 -106 -4 -107 -4 -49 10 -50 11
-56 21 -56 21 -55 51 -54 50 -24 51 -23 52 0 100 1 100 32 90 33 90 11 41 11
42 -19 38 -19 39 -40 22 -40 22 -70 17 -70 17 -190 -1 -190 0 -154 -11 -154
-11 -4 -4 -4 -3 16 -199 16 -199 6 -245 6 -245 -12 -58 -13 -58 -23 -27 -24
-27 -30 17 -31 17 -117 27 -118 27 -115 1 -115 1 -34 -19 -35 -18 -18 -22 -18
-21 -17 -55 -18 -55 1 -180 0 -180 18 -70 17 -70 23 -51 23 -51 24 -21 23 -22
13 0 14 0 20 35 20 34 22 7 22 7 42 -1 42 0 30 -21 29 -21 22 -47 23 -48 13
-45 13 -45 36 -175 36 -175 30 -110 31 -110 43 -95 43 -95 6 -17 5 -18 138 0
138 0 220 -15 220 -15 121 0 121 0 31 11 30 10 6 24 6 24 -12 28 -12 28 -12
15 -12 15 -28 160 -27 160 -1 111 -1 111 30 59 30 59 47 23 47 23 73 11 73 10
100 -4 100 -5 63 -28 62 -28 0 -8 0 -9 11 0 11 0 19 -23 19 -22 25 -47 25 -47
0 -47 0 -46 -30 -28 -30 -28 -10 -26 -10 -27 0 -44 0 -44 28 -29 27 -30 41
-20 40 -20 61 -16 60 -16 234 -40 234 -40 111 -30 112 -29 83 -34 84 -35 14
20 14 21 34 80 33 80 30 111 29 111 36 190 36 190 20 77 21 78 30 44 29 45 34
11 34 11 41 -11 41 -11 6 -17 6 -17 15 -17 15 -18 24 0 24 0 28 15 29 14 26
32 27 32 20 40 21 40 14 46 15 46 6 105 5 105 -16 68 -16 67 -24 48 -24 48
-43 42 -42 43 -56 26 -56 27 -80 4 -81 4 -64 -16 -65 -16 -68 -35 -68 -35 -18
0 -18 0 -18 20 -18 20 -7 78 -6 77 7 140 7 140 13 268 13 269 -12 7 -12 7
-202 32 -203 32 -95 10 -95 10 -85 -1 -85 -1 -63 -13z"/>
</g>
</svg>
