<?xml version="1.0" standalone="no"?>
<!DOCTYPE svg PUBLIC "-//W3C//DTD SVG 20010904//EN"
 "http://www.w3.org/TR/2001/REC-SVG-20010904/DTD/svg10.dtd">
<svg version="1.0" xmlns="http://www.w3.org/2000/svg"
 width="416.000000pt" height="289.000000pt" viewBox="0 0 416.000000 289.000000"
 preserveAspectRatio="xMidYMid meet">
<metadata>
Created by potrace 1.16, written by Peter Selinger 2001-2019
</metadata>
<g transform="translate(0.000000,289.000000) scale(0.100000,-0.100000)"
fill="#000000" stroke="none">
<path d="M2542 2875 l-62 -14 -30 -21 -30 -21 -10 -19 -10 -19 0 -49 0 -49 26
-39 27 -39 13 -32 14 -32 0 -59 0 -59 -19 -75 -20 -75 -31 -66 -32 -66 -27
-32 -26 -33 -40 -39 -40 -39 -50 -26 -50 -26 -96 -4 -96 -4 -50 10 -50 11 -56
21 -56 21 -55 51 -54 50 -24 51 -23 52 1 90 0 90 33 90 32 90 11 46 12 47 -15
38 -15 39 -33 22 -34 23 -51 16 -51 15 -115 10 -115 10 -205 -10 -205 -11 -67
-6 -68 -6 0 -22 0 -21 15 -185 15 -185 7 -240 6 -240 -12 -57 -12 -57 -21 -26
-20 -26 -22 15 -23 14 -119 28 -119 28 -125 0 -125 1 -34 -19 -35 -18 -18 -22
-18 -21 -17 -55 -18 -55 1 -190 0 -190 18 -70 17 -70 23 -51 23 -51 24 -21 23
-22 23 0 23 0 17 27 17 28 15 13 15 12 44 0 44 0 28 -20 28 -20 22 -47 23 -48
13 -45 13 -45 36 -175 36 -175 30 -110 31 -110 43 -95 43 -95 6 -17 5 -18 138
0 138 0 220 -15 220 -15 131 0 131 0 31 11 31 11 6 29 7 30 -13 32 -12 32 -13
15 -12 15 -28 160 -27 160 -1 102 0 101 29 59 30 58 47 23 47 23 73 11 73 10
90 -4 91 -5 62 -28 62 -28 0 -8 0 -9 11 0 11 0 19 -23 19 -22 25 -47 25 -47 0
-37 0 -36 -30 -28 -30 -28 -10 -26 -10 -27 0 -54 0 -54 28 -29 27 -30 41 -20
40 -20 61 -16 60 -16 232 -40 231 -40 103 -26 102 -25 103 -41 103 -41 14 19
14 19 36 84 36 85 29 110 29 111 36 190 36 190 20 77 21 78 29 44 30 44 29 10
29 11 36 -10 36 -10 6 -17 6 -17 15 -17 15 -18 34 0 34 0 28 15 29 14 26 32
27 32 20 40 21 40 15 46 14 46 6 115 5 115 -16 68 -16 67 -24 48 -24 48 -43
42 -42 43 -56 27 -56 26 -90 4 -91 4 -64 -16 -65 -16 -73 -37 -72 -37 -22 21
-21 22 -6 73 -6 73 6 125 6 125 14 288 13 288 -12 8 -12 7 -202 32 -203 32
-95 10 -95 10 -95 -1 -95 -1 -63 -13z"/>
</g>
</svg>
