<?xml version="1.0" standalone="no"?>
<!DOCTYPE svg PUBLIC "-//W3C//DTD SVG 20010904//EN"
 "http://www.w3.org/TR/2001/REC-SVG-20010904/DTD/svg10.dtd">
<svg version="1.0" xmlns="http://www.w3.org/2000/svg"
 width="276.000000pt" height="290.000000pt" viewBox="0 0 276.000000 290.000000"
 preserveAspectRatio="xMidYMid meet">
<metadata>
Created by potrace 1.16, written by Peter Selinger 2001-2019
</metadata>
<g transform="translate(0.000000,290.000000) scale(0.100000,-0.100000)"
fill="#000000" stroke="none">
<path d="M875 2890 l-70 -7 -235 -21 -235 -21 -146 -7 -145 -6 -13 -271 -13
-272 -7 -140 -7 -140 6 -77 7 -78 18 -20 18 -20 18 0 18 0 68 35 68 35 65 16
64 16 81 -4 80 -4 56 -27 56 -26 42 -43 43 -42 24 -48 24 -48 16 -67 16 -68
-5 -105 -6 -105 -15 -46 -14 -46 -21 -40 -20 -40 -27 -32 -26 -32 -29 -14 -28
-15 -24 0 -24 0 -15 18 -15 17 -6 17 -6 17 -41 11 -41 11 -34 -11 -34 -11 -29
-45 -30 -44 -21 -78 -20 -77 -36 -190 -36 -190 -29 -110 -29 -110 -31 -75 -31
-75 -14 -22 -15 -22 0 -4 0 -4 143 -7 142 -6 177 -10 177 -9 103 9 103 9 34
10 33 10 34 26 34 26 6 24 6 23 -27 78 -27 77 -19 99 -19 99 0 78 0 79 17 51
16 51 35 40 34 41 40 20 40 20 67 15 66 14 88 0 87 0 46 -22 46 -21 50 -51 50
-50 44 -91 43 -90 15 -65 16 -65 0 -73 0 -73 -15 -37 -16 -37 -21 -23 -22 -22
-4 -59 -4 -58 34 -36 35 -36 59 -17 59 -18 160 1 160 1 200 27 200 26 87 11
87 12 -9 16 -8 16 -11 159 -11 160 -11 280 -10 280 -9 55 -9 54 -17 52 -16 53
-30 30 -30 30 -32 6 -32 6 -75 -26 -74 -27 -69 -19 -70 -19 -60 0 -61 0 -40
19 -40 18 -27 29 -27 29 -15 41 -14 42 -7 53 -6 54 10 85 11 85 22 64 23 63
37 43 37 42 53 24 53 24 100 -1 100 -1 80 -26 80 -25 48 -19 47 -18 27 15 26
15 19 25 19 26 14 54 15 55 10 125 10 125 -11 216 -10 217 -7 68 -7 69 -400 0
-400 0 -60 -14 -60 -13 -37 -19 -36 -18 -21 -27 -21 -27 0 -37 0 -37 20 -59
21 -59 19 -97 20 -96 0 -79 0 -79 -15 -51 -15 -50 -23 -33 -22 -34 -40 -27
-40 -28 -60 -17 -60 -18 -140 0 -140 1 -64 17 -65 16 -45 29 -46 28 -31 40
-30 40 -20 59 -19 59 0 170 0 170 24 149 25 149 24 29 24 28 -10 0 -10 0 -14
3 -13 4 -70 -7z"/>
</g>
</svg>
