<?xml version="1.0" standalone="no"?>
<!DOCTYPE svg PUBLIC "-//W3C//DTD SVG 20010904//EN"
 "http://www.w3.org/TR/2001/REC-SVG-20010904/DTD/svg10.dtd">
<svg version="1.0" xmlns="http://www.w3.org/2000/svg"
 width="278.000000pt" height="292.000000pt" viewBox="0 0 278.000000 292.000000"
 preserveAspectRatio="xMidYMid meet">
<metadata>
Created by potrace 1.16, written by Peter Selinger 2001-2019
</metadata>
<g transform="translate(0.000000,292.000000) scale(0.100000,-0.100000)"
fill="#000000" stroke="none">
<path d="M875 2910 l-70 -7 -235 -21 -235 -21 -146 -7 -145 -6 -13 -271 -13
-272 -7 -146 -8 -147 7 -81 7 -81 18 -20 18 -20 28 0 28 0 68 35 68 35 65 16
65 16 70 -4 71 -5 55 -26 56 -26 42 -43 43 -42 24 -48 24 -48 16 -67 16 -68
-5 -95 -6 -95 -15 -48 -15 -48 -28 -50 -27 -50 -33 -30 -33 -29 -26 -6 -25 -6
-19 17 -20 18 0 13 0 13 -18 10 -17 9 -37 7 -37 7 -35 -12 -35 -11 -29 -45
-30 -44 -21 -78 -20 -77 -36 -190 -36 -190 -29 -110 -29 -110 -31 -75 -31 -75
-14 -22 -15 -22 0 -14 0 -14 138 -6 137 -7 188 -10 188 -10 107 10 107 9 37
11 37 11 36 33 35 33 0 28 0 28 -26 75 -26 75 -19 99 -19 99 0 68 0 69 17 51
16 51 35 40 34 41 40 20 40 20 67 15 66 14 78 0 77 0 46 -22 46 -21 50 -51 50
-50 44 -91 43 -90 15 -65 16 -65 0 -63 0 -63 -15 -37 -16 -37 -22 -23 -21 -23
-4 -68 -4 -68 34 -36 35 -36 59 -17 59 -18 170 1 170 1 200 27 200 26 88 12
87 11 0 9 0 8 -9 18 -9 17 -11 159 -11 160 -11 280 -10 280 -9 55 -9 54 -17
52 -16 53 -30 30 -30 30 -34 7 -34 6 -38 -10 -37 -10 -90 -32 -90 -31 -66 -6
-66 -6 -38 13 -38 12 -38 35 -38 34 -15 47 -15 47 -6 41 -6 40 10 85 11 84 22
64 23 63 37 43 37 42 52 22 52 23 52 5 52 5 84 -17 84 -16 73 -30 74 -29 27 0
28 0 27 21 26 21 14 27 14 27 17 79 18 80 0 210 0 210 -12 170 -13 170 -8 8
-8 9 -413 -5 -414 -4 -55 -15 -55 -15 -32 -16 -31 -17 -21 -26 -21 -27 0 -47
0 -47 20 -59 21 -59 19 -97 20 -96 0 -69 0 -69 -15 -51 -15 -50 -23 -33 -22
-34 -40 -27 -40 -28 -60 -17 -60 -18 -130 0 -130 1 -64 17 -65 16 -45 29 -46
28 -31 40 -30 40 -20 59 -19 59 0 160 0 160 25 149 24 149 23 27 23 28 0 10 0
10 -22 6 -23 6 -10 -2 -10 -1 -70 -7z"/>
</g>
</svg>
