<?xml version="1.0" standalone="no"?>
<!DOCTYPE svg PUBLIC "-//W3C//DTD SVG 20010904//EN"
 "http://www.w3.org/TR/2001/REC-SVG-20010904/DTD/svg10.dtd">
<svg version="1.0" xmlns="http://www.w3.org/2000/svg"
 width="282.000000pt" height="360.000000pt" viewBox="0 0 282.000000 360.000000"
 preserveAspectRatio="xMidYMid meet">
<metadata>
Created by potrace 1.16, written by Peter Selinger 2001-2019
</metadata>
<g transform="translate(0.000000,360.000000) scale(0.100000,-0.100000)"
fill="#000000" stroke="none">
<path d="M875 3593 l-80 -3 -245 -15 -245 -14 -122 -7 -123 -6 0 -37 0 -36
-20 -310 -21 -310 0 -166 0 -167 6 -38 7 -39 14 -22 14 -23 17 0 16 0 31 19
31 20 75 21 75 21 100 6 100 6 52 -12 53 -11 44 -20 44 -21 40 -35 41 -35 28
-57 28 -57 -1 -90 0 -90 -13 -55 -13 -55 -31 -58 -31 -59 -39 -33 -39 -34 -46
-15 -46 -16 -66 0 -66 0 -59 15 -60 15 -63 25 -62 25 -50 0 -49 0 -22 -22 -21
-23 -19 -41 -19 -41 -11 -99 -11 -99 7 -110 6 -110 25 -245 25 -244 2 -2 2 -2
165 10 165 10 200 -5 200 -6 95 -20 94 -20 66 -33 65 -33 29 -42 29 -42 0 -43
0 -43 -37 -77 -38 -76 -5 -59 -5 -59 15 -55 16 -54 31 -37 30 -37 57 -28 57
-27 97 -4 96 -4 56 16 56 16 43 33 43 33 3 47 3 47 -40 39 -41 40 0 40 0 39
26 32 27 31 46 23 46 24 75 20 75 20 185 42 185 42 139 45 138 46 102 51 101
51 27 275 27 275 7 195 7 195 -12 74 -12 75 -26 48 -26 47 -34 12 -35 11 -31
-6 -32 -6 -74 -38 -74 -37 -126 1 -126 1 -80 26 -80 26 -65 39 -65 39 -32 42
-32 42 -9 33 -9 33 9 57 9 58 24 48 24 48 28 20 28 19 25 8 25 8 44 -2 44 -1
76 -35 76 -34 50 -11 50 -11 75 -1 75 -1 43 13 42 13 40 35 41 34 24 49 25 49
15 57 15 57 10 111 11 110 -7 333 -7 332 -15 0 -15 0 -66 -42 -66 -41 -70 -33
-71 -32 -110 -35 -109 -35 -145 -35 -145 -36 -80 -25 -80 -26 -33 -20 -32 -20
-20 -32 -20 -33 0 -36 0 -36 11 -32 11 -31 16 0 17 0 14 -9 13 -9 -7 -21 -6
-21 -50 -25 -49 -25 -62 -14 -63 -14 -60 -7 -60 -6 -62 10 -62 10 -35 16 -34
16 -35 32 -36 32 -23 50 -23 50 1 105 1 105 21 89 22 90 26 57 26 57 -11 21
-11 20 -38 10 -37 9 -70 4 -70 3 -80 -2z"/>
</g>
</svg>
