<?xml version="1.0" standalone="no"?>
<!DOCTYPE svg PUBLIC "-//W3C//DTD SVG 20010904//EN"
 "http://www.w3.org/TR/2001/REC-SVG-20010904/DTD/svg10.dtd">
<svg version="1.0" xmlns="http://www.w3.org/2000/svg"
 width="280.000000pt" height="358.000000pt" viewBox="0 0 280.000000 358.000000"
 preserveAspectRatio="xMidYMid meet">
<metadata>
Created by potrace 1.16, written by Peter Selinger 2001-2019
</metadata>
<g transform="translate(0.000000,358.000000) scale(0.100000,-0.100000)"
fill="#000000" stroke="none">
<path d="M875 3573 l-80 -3 -245 -15 -245 -14 -122 -7 -123 -6 0 -37 0 -36
-20 -310 -20 -310 0 -165 0 -165 9 -39 10 -39 14 -15 15 -15 34 21 33 21 75
21 75 22 110 5 111 6 52 -12 52 -11 44 -20 44 -21 40 -35 41 -35 28 -57 28
-57 0 -100 -1 -100 -13 -55 -13 -55 -31 -58 -31 -59 -39 -33 -39 -34 -46 -15
-46 -16 -76 0 -76 0 -59 15 -60 15 -63 25 -62 25 -40 0 -39 0 -22 -22 -21 -23
-19 -41 -18 -41 -11 -94 -11 -94 6 -105 6 -105 25 -245 25 -244 2 -2 2 -1 150
9 150 10 215 -6 215 -5 95 -20 94 -20 66 -33 65 -33 30 -43 29 -43 0 -52 0
-52 -37 -75 -37 -76 -6 -50 -6 -51 15 -54 16 -54 31 -37 30 -37 57 -27 56 -28
87 -4 87 -4 56 16 56 16 43 33 43 33 3 37 3 37 -40 39 -41 40 0 50 0 49 26 32
27 31 46 23 46 24 75 20 75 20 185 42 185 42 139 45 138 46 102 51 101 51 27
275 27 275 7 185 7 185 -12 74 -12 75 -26 48 -26 47 -33 11 -34 11 -22 -6 -23
-6 -74 -37 -74 -37 -136 1 -136 0 -80 27 -80 26 -65 39 -65 39 -32 42 -32 42
-11 37 -10 38 11 63 10 63 24 48 24 48 28 20 28 20 38 10 38 11 54 -9 53 -9
51 -25 51 -26 57 -15 58 -15 71 -1 71 -1 42 13 42 13 43 37 43 38 27 60 27 60
17 78 16 78 -2 394 -2 395 -5 4 -4 4 -68 -42 -68 -43 -70 -33 -71 -32 -110
-35 -109 -35 -145 -35 -145 -36 -80 -25 -80 -26 -33 -20 -32 -20 -20 -32 -20
-33 0 -26 0 -26 11 -30 10 -31 28 -5 28 -6 7 -16 6 -16 -13 -20 -12 -21 -47
-24 -48 -24 -62 -15 -63 -14 -70 -6 -70 -7 -62 11 -62 10 -35 16 -34 16 -35
32 -36 32 -23 50 -23 50 1 115 0 115 23 90 22 90 24 53 24 53 -19 19 -20 20
-7 1 -8 1 -80 6 -80 7 -80 -2z"/>
</g>
</svg>
