<?xml version="1.0" standalone="no"?>
<!DOCTYPE svg PUBLIC "-//W3C//DTD SVG 20010904//EN"
 "http://www.w3.org/TR/2001/REC-SVG-20010904/DTD/svg10.dtd">
<svg version="1.0" xmlns="http://www.w3.org/2000/svg"
 width="346.000000pt" height="363.000000pt" viewBox="0 0 346.000000 363.000000"
 preserveAspectRatio="xMidYMid meet">
<metadata>
Created by potrace 1.16, written by Peter Selinger 2001-2019
</metadata>
<g transform="translate(0.000000,363.000000) scale(0.100000,-0.100000)"
fill="#000000" stroke="none">
<path d="M931 3618 l-205 -9 -3 -3 -4 -4 12 -238 11 -239 -5 -205 -6 -205 -16
-70 -15 -70 -26 -52 -25 -53 -31 -21 -30 -22 -42 -4 -41 -5 -90 34 -90 35 -53
13 -53 12 -55 -4 -55 -5 -27 -20 -27 -20 -25 -44 -25 -44 0 -210 1 -210 13
-57 12 -57 18 -22 17 -21 47 40 47 41 35 7 35 6 33 -6 32 -6 28 -29 28 -30 24
-53 24 -53 54 -210 55 -210 22 -65 22 -65 38 -82 39 -83 40 -58 41 -58 0 -13
0 -12 72 7 72 7 230 1 231 1 80 -19 80 -18 45 -23 45 -24 29 -27 28 -27 19
-41 19 -41 0 -60 0 -60 -11 -40 -11 -40 -24 -61 -24 -62 -11 -52 -11 -52 7
-45 7 -46 43 -42 43 -43 48 -15 49 -16 65 -11 65 -10 110 0 110 0 43 28 42 29
29 32 30 33 35 67 35 68 16 59 15 58 0 71 0 70 -20 33 -20 32 -8 0 -9 0 -11
25 -12 26 0 39 0 38 26 32 26 31 37 15 36 16 75 14 75 14 380 12 380 12 47 0
48 1 -7 20 -7 20 -1 380 0 380 -14 55 -13 55 -18 35 -18 35 -22 20 -22 20 -42
0 -41 -1 -80 -39 -80 -40 -75 0 -75 0 -56 27 -56 28 -40 41 -41 41 -26 47 -25
47 -16 59 -15 59 0 88 0 87 22 58 21 58 71 71 71 71 75 35 75 36 66 16 65 16
102 0 102 0 57 -20 56 -20 22 -20 21 -20 7 7 7 6 0 121 -1 121 -14 155 -14
155 -18 223 -18 224 -30 -6 -30 -5 -285 -10 -285 -11 -50 -5 -50 -6 -55 -11
-55 -10 -46 -24 -46 -23 -18 -37 -17 -37 15 -51 16 -51 27 -75 28 -75 0 -80 1
-80 -22 -47 -21 -47 -39 -37 -38 -37 -53 -25 -53 -24 -77 -14 -77 -13 -81 -1
-81 0 -89 15 -89 16 -51 23 -51 23 -34 35 -35 35 -20 39 -19 39 1 100 1 100
32 90 32 90 20 60 20 60 -6 32 -6 32 -30 25 -30 25 -37 11 -37 10 -205 -2
-205 -1 -204 -9z"/>
</g>
</svg>
