<?xml version="1.0" standalone="no"?>
<!DOCTYPE svg PUBLIC "-//W3C//DTD SVG 20010904//EN"
 "http://www.w3.org/TR/2001/REC-SVG-20010904/DTD/svg10.dtd">
<svg version="1.0" xmlns="http://www.w3.org/2000/svg"
 width="348.000000pt" height="365.000000pt" viewBox="0 0 348.000000 365.000000"
 preserveAspectRatio="xMidYMid meet">
<metadata>
Created by potrace 1.16, written by Peter Selinger 2001-2019
</metadata>
<g transform="translate(0.000000,365.000000) scale(0.100000,-0.100000)"
fill="#000000" stroke="none">
<path d="M931 3638 l-205 -9 -4 -3 -4 -4 13 -257 12 -258 -6 -186 -6 -186 -16
-70 -15 -70 -26 -52 -25 -53 -30 -20 -29 -21 -33 -6 -33 -5 -90 35 -90 35 -56
12 -55 13 -62 -5 -61 -4 -28 -21 -27 -20 -25 -44 -25 -44 -3 -157 -4 -156 11
-103 11 -103 18 -36 17 -35 16 -3 17 -3 45 40 46 39 31 7 30 7 28 -7 28 -6 27
-29 28 -29 24 -53 24 -53 54 -210 55 -210 22 -65 22 -65 38 -82 39 -83 40 -58
41 -58 0 -13 0 -13 93 8 92 7 210 1 210 1 80 -19 80 -18 45 -23 45 -24 29 -27
28 -27 19 -41 19 -41 0 -50 0 -50 -14 -50 -15 -50 -24 -65 -25 -66 -7 -47 -7
-47 7 -46 7 -47 43 -42 43 -43 48 -15 49 -16 65 -11 65 -10 120 0 120 0 43 28
42 29 29 32 30 33 35 67 35 68 16 59 15 58 0 81 0 80 -20 33 -20 32 -8 0 -9 0
-11 25 -12 26 0 29 0 28 26 32 26 31 37 15 36 16 75 14 75 14 380 12 380 12
48 -1 48 0 -7 41 -8 41 0 370 -1 370 -14 55 -13 55 -18 35 -18 35 -22 20 -22
20 -52 0 -51 0 -80 -40 -80 -40 -65 0 -65 0 -56 27 -56 28 -40 41 -41 41 -26
47 -25 47 -16 59 -15 59 0 78 0 77 22 58 21 58 71 71 71 71 75 35 75 36 66 16
65 16 92 0 92 0 57 -20 56 -20 23 -21 23 -22 15 6 16 6 0 133 -1 133 -14 155
-14 155 -18 224 -18 223 -45 -6 -45 -6 -280 -10 -280 -10 -50 -5 -50 -6 -55
-11 -55 -10 -46 -24 -46 -23 -18 -37 -17 -37 6 -38 6 -37 29 -74 29 -73 12
-59 12 -59 -6 -41 -7 -40 -19 -42 -18 -43 -39 -37 -38 -37 -53 -25 -53 -24
-77 -14 -77 -13 -71 -1 -71 0 -89 15 -89 16 -51 23 -51 23 -34 35 -35 35 -20
39 -19 39 1 90 1 90 32 90 32 90 20 60 21 60 -6 40 -5 40 -30 27 -30 27 -38
10 -38 11 -215 -2 -215 -1 -204 -9z"/>
</g>
</svg>
