<?xml version="1.0" standalone="no"?>
<!DOCTYPE svg PUBLIC "-//W3C//DTD SVG 20010904//EN"
 "http://www.w3.org/TR/2001/REC-SVG-20010904/DTD/svg10.dtd">
<svg version="1.0" xmlns="http://www.w3.org/2000/svg"
 width="358.000000pt" height="282.000000pt" viewBox="0 0 358.000000 282.000000"
 preserveAspectRatio="xMidYMid meet">
<metadata>
Created by potrace 1.16, written by Peter Selinger 2001-2019
</metadata>
<g transform="translate(0.000000,282.000000) scale(0.100000,-0.100000)"
fill="#000000" stroke="none">
<path d="M896 2813 l-89 -4 7 -104 7 -104 9 -184 10 -184 -10 -124 -10 -124
-14 -53 -15 -53 -15 -24 -16 -25 -25 -16 -26 -17 -77 31 -77 30 -84 17 -84 17
-71 -4 -71 -5 -53 -23 -53 -23 -37 -42 -37 -43 -23 -63 -22 -64 -11 -85 -11
-85 6 -62 6 -62 16 -43 15 -43 27 -29 27 -29 40 -18 40 -19 71 0 70 0 70 19
69 19 73 26 72 26 25 -6 25 -6 29 -30 29 -29 16 -53 17 -52 9 -54 9 -55 10
-280 11 -280 11 -160 11 -159 8 -16 8 -16 284 -19 283 -20 245 0 245 0 37 17
37 17 7 25 6 26 -16 25 -16 25 -25 102 -26 103 -6 102 -6 101 12 64 13 63 31
58 31 58 35 29 35 29 45 16 45 15 37 0 37 0 37 -16 37 -15 50 -47 50 -47 26
-50 25 -50 1 -44 1 -43 -32 -27 -32 -26 -10 -28 -11 -28 0 -42 0 -42 18 -30
19 -30 51 -28 51 -28 88 -19 88 -18 180 -27 180 -26 125 -25 125 -24 112 -35
111 -35 6 0 6 0 0 28 0 27 -10 35 -10 35 -19 95 -20 95 -26 235 -26 235 -19
83 -20 82 -14 28 -14 27 -27 25 -27 25 -57 0 -57 0 -55 -38 -55 -38 -35 -5
-34 -5 -44 23 -43 23 -29 40 -29 40 -20 57 -20 56 -11 74 -11 73 6 55 5 55 16
46 16 46 48 54 48 54 47 24 48 23 51 14 52 14 96 0 95 0 60 -10 59 -11 73 -21
72 -21 0 -8 0 -9 15 0 15 0 0 63 0 62 -30 310 -31 310 -6 167 -6 167 -7 11 -7
12 -84 -41 -84 -40 -115 -30 -115 -29 -175 -31 -175 -31 -82 -25 -83 -26 -40
-38 -40 -38 0 -51 0 -51 10 -25 10 -26 13 0 14 0 16 -18 17 -19 0 -30 0 -30
-30 -59 -30 -59 -34 -35 -35 -35 -18 -16 -18 -16 -45 -26 -45 -26 -65 -17 -65
-16 -66 5 -66 6 -48 22 -47 22 -29 40 -29 40 0 45 0 45 34 61 34 61 12 60 13
60 1 85 1 85 -18 52 -18 52 -50 45 -50 45 -62 20 -62 20 -65 11 -65 10 -315
-2 -315 -2 -89 -3z"/>
</g>
</svg>
