<?xml version="1.0" standalone="no"?>
<!DOCTYPE svg PUBLIC "-//W3C//DTD SVG 20010904//EN"
 "http://www.w3.org/TR/2001/REC-SVG-20010904/DTD/svg10.dtd">
<svg version="1.0" xmlns="http://www.w3.org/2000/svg"
 width="356.000000pt" height="280.000000pt" viewBox="0 0 356.000000 280.000000"
 preserveAspectRatio="xMidYMid meet">
<metadata>
Created by potrace 1.16, written by Peter Selinger 2001-2019
</metadata>
<g transform="translate(0.000000,280.000000) scale(0.100000,-0.100000)"
fill="#000000" stroke="none">
<path d="M896 2793 l-89 -4 7 -87 6 -87 10 -197 10 -197 -10 -128 -10 -128
-15 -55 -14 -54 -19 -26 -19 -25 -26 -15 -27 -15 -47 18 -48 19 -80 25 -80 26
-100 1 -100 1 -53 -24 -53 -24 -37 -42 -37 -43 -23 -63 -22 -64 -11 -85 -10
-85 6 -54 7 -53 14 -42 15 -41 27 -29 27 -29 40 -18 40 -19 61 0 60 0 70 19
69 19 74 27 75 26 32 -6 32 -6 30 -30 30 -30 16 -53 17 -52 9 -54 9 -55 10
-280 11 -280 11 -160 11 -159 8 -16 8 -16 284 -19 283 -20 230 0 230 0 38 13
37 14 11 19 10 20 -15 24 -16 25 -26 102 -25 103 -6 112 -6 111 12 64 13 63
31 58 31 58 35 29 35 29 45 16 45 15 47 0 47 0 37 -16 37 -15 50 -47 50 -47
26 -50 26 -50 0 -54 1 -53 -32 -27 -32 -26 -10 -28 -11 -28 0 -32 0 -32 18
-30 19 -30 51 -28 51 -28 88 -19 88 -18 180 -27 180 -26 130 -26 130 -26 103
-32 102 -33 0 17 0 16 -10 35 -10 35 -19 95 -20 95 -26 235 -26 235 -19 83
-20 82 -14 28 -14 27 -27 25 -27 25 -47 0 -47 0 -56 -39 -56 -38 -44 -5 -43
-5 -44 24 -43 23 -29 40 -29 40 -20 57 -20 56 -11 74 -11 73 5 65 6 65 16 46
16 46 48 54 48 54 47 24 48 23 51 14 52 14 107 0 106 0 78 -15 79 -15 50 -16
50 -17 7 -11 8 -11 0 55 0 55 -30 310 -30 310 -6 155 -5 155 -4 21 -4 20 -78
-38 -78 -37 -115 -30 -115 -29 -175 -31 -175 -31 -82 -25 -83 -26 -40 -38 -40
-38 0 -41 0 -41 10 -25 10 -26 13 0 14 0 16 -18 17 -19 0 -40 0 -40 -30 -59
-30 -59 -34 -35 -35 -35 -18 -16 -18 -16 -45 -26 -45 -26 -65 -17 -65 -16 -75
5 -76 5 -48 23 -48 22 -29 40 -29 40 0 55 0 55 34 61 34 61 12 60 13 60 1 75
1 75 -18 52 -18 52 -50 45 -50 45 -62 20 -62 20 -65 11 -65 10 -305 -2 -305
-2 -89 -3z"/>
</g>
</svg>
