<?xml version="1.0" standalone="no"?>
<!DOCTYPE svg PUBLIC "-//W3C//DTD SVG 20010904//EN"
 "http://www.w3.org/TR/2001/REC-SVG-20010904/DTD/svg10.dtd">
<svg version="1.0" xmlns="http://www.w3.org/2000/svg"
 width="345.000000pt" height="368.000000pt" viewBox="0 0 345.000000 368.000000"
 preserveAspectRatio="xMidYMid meet">
<metadata>
Created by potrace 1.16, written by Peter Selinger 2001-2019
</metadata>
<g transform="translate(0.000000,368.000000) scale(0.100000,-0.100000)"
fill="#000000" stroke="none">
<path d="M1998 3670 l-57 -9 -30 -15 -29 -15 -26 -31 -26 -32 0 -46 0 -47 26
-60 25 -60 16 -40 15 -40 1 -60 0 -60 -15 -30 -16 -30 -34 -31 -33 -30 -25
-16 -25 -15 -65 -21 -65 -21 -65 -13 -65 -13 -382 1 -382 1 4 -26 4 -26 5
-150 6 -150 30 -310 30 -310 0 -55 0 -55 -8 11 -7 11 -50 17 -50 16 -79 15
-78 15 -106 0 -107 0 -52 -14 -51 -14 -48 -23 -47 -24 -48 -54 -48 -54 -16
-46 -16 -46 -6 -65 -5 -65 11 -73 11 -74 20 -56 20 -57 29 -40 29 -40 43 -23
44 -24 43 5 44 5 56 38 56 39 47 0 47 0 27 -25 27 -25 14 -27 14 -28 20 -82
19 -83 26 -235 26 -235 20 -95 19 -96 14 -47 14 -47 -4 0 -5 0 12 -12 12 -13
416 0 416 0 50 17 51 17 32 34 32 33 10 35 10 34 0 38 0 38 -16 72 -16 72 -35
79 -35 78 -5 57 -4 56 23 45 23 45 49 33 49 32 51 15 51 15 95 9 95 9 54 -9
54 -8 55 -27 54 -26 54 -56 55 -55 39 -81 38 -81 16 -72 16 -72 0 -70 0 -70
-11 -52 -11 -53 -29 -67 -29 -68 0 -46 0 -45 35 -34 35 -34 51 -12 52 -13 111
6 111 5 105 22 105 22 110 35 110 35 72 30 71 29 6 14 5 14 -14 109 -14 109
-16 284 -15 284 -10 81 -10 82 -15 49 -15 50 -23 34 -23 34 -29 14 -29 14 -46
-12 -45 -12 -20 -19 -20 -19 -37 -16 -37 -15 -43 0 -43 0 -45 21 -45 20 -38
37 -38 37 -26 50 -27 50 -4 102 -4 102 12 68 11 68 19 43 19 43 28 31 28 30
32 14 32 14 64 0 64 0 54 -19 54 -19 60 -27 60 -27 57 -5 57 -6 35 35 34 34
12 39 12 40 5 135 5 135 -12 315 -12 315 -11 7 -12 8 -275 0 -275 0 -132 10
-131 10 -65 20 -66 20 -25 31 -26 31 -6 24 -6 25 6 32 6 32 29 70 29 70 12 61
12 60 -11 41 -11 40 -23 34 -23 34 -40 22 -40 22 -56 15 -56 14 -88 5 -89 6
-57 -9z"/>
</g>
</svg>
