<?xml version="1.0" standalone="no"?>
<!DOCTYPE svg PUBLIC "-//W3C//DTD SVG 20010904//EN"
 "http://www.w3.org/TR/2001/REC-SVG-20010904/DTD/svg10.dtd">
<svg version="1.0" xmlns="http://www.w3.org/2000/svg"
 width="347.000000pt" height="370.000000pt" viewBox="0 0 347.000000 370.000000"
 preserveAspectRatio="xMidYMid meet">
<metadata>
Created by potrace 1.16, written by Peter Selinger 2001-2019
</metadata>
<g transform="translate(0.000000,370.000000) scale(0.100000,-0.100000)"
fill="#000000" stroke="none">
<path d="M1998 3690 l-57 -9 -30 -15 -29 -15 -26 -31 -26 -32 0 -56 0 -57 26
-60 25 -60 15 -40 15 -40 1 -50 1 -51 -16 -29 -15 -30 -34 -31 -33 -30 -25
-16 -25 -15 -65 -21 -65 -21 -65 -13 -65 -13 -382 1 -382 1 4 -61 5 -61 4
-115 5 -115 33 -347 32 -347 -5 -6 -6 -5 -42 15 -42 14 -80 16 -81 15 -117 0
-116 0 -52 -14 -51 -14 -48 -23 -47 -24 -48 -54 -48 -54 -16 -46 -16 -46 -6
-75 -5 -75 11 -73 11 -74 20 -56 20 -57 29 -40 29 -40 43 -23 44 -24 52 5 53
4 57 39 56 39 38 0 38 0 26 -25 27 -25 14 -27 14 -28 20 -82 19 -83 26 -235
26 -235 19 -90 18 -90 13 -55 13 -55 11 -10 10 -10 425 0 425 0 50 17 51 17
32 34 32 33 10 35 10 34 0 48 0 48 -16 72 -16 72 -34 77 -35 77 -5 48 -5 48
23 45 23 45 49 33 49 32 52 15 53 16 88 7 89 8 49 -8 49 -7 55 -27 54 -26 54
-56 55 -55 39 -81 38 -81 16 -72 16 -72 0 -60 0 -60 -11 -52 -11 -53 -29 -67
-29 -68 0 -56 0 -55 35 -34 35 -34 51 -12 52 -13 121 6 121 5 105 22 105 22
110 35 110 35 72 30 72 30 6 18 6 18 -15 114 -16 115 -15 284 -15 284 -6 55
-6 55 -14 63 -14 63 -16 32 -16 32 -21 22 -20 23 -35 6 -34 7 -41 -13 -42 -12
-20 -18 -20 -19 -37 -16 -37 -15 -33 0 -33 0 -45 21 -45 20 -38 37 -38 37 -26
50 -27 50 -4 92 -4 91 12 69 11 68 19 43 19 43 28 31 28 30 32 14 32 14 54 0
54 0 54 -19 54 -19 60 -27 60 -28 67 -5 67 -5 35 35 34 34 12 39 12 40 5 145
5 145 -12 315 -12 315 -11 7 -12 8 -275 0 -275 0 -132 10 -131 10 -64 20 -64
20 -21 22 -21 23 -12 24 -12 23 6 32 6 31 30 71 30 72 11 68 12 69 -12 41 -11
41 -23 34 -23 34 -40 22 -40 22 -57 15 -58 15 -97 5 -97 5 -57 -9z"/>
</g>
</svg>
