<?xml version="1.0" standalone="no"?>
<!DOCTYPE svg PUBLIC "-//W3C//DTD SVG 20010904//EN"
 "http://www.w3.org/TR/2001/REC-SVG-20010904/DTD/svg10.dtd">
<svg version="1.0" xmlns="http://www.w3.org/2000/svg"
 width="280.000000pt" height="437.000000pt" viewBox="0 0 280.000000 437.000000"
 preserveAspectRatio="xMidYMid meet">
<metadata>
Created by potrace 1.16, written by Peter Selinger 2001-2019
</metadata>
<g transform="translate(0.000000,437.000000) scale(0.100000,-0.100000)"
fill="#000000" stroke="none">
<path d="M1304 4360 l-51 -7 -39 -13 -39 -12 -37 -25 -37 -25 -15 -33 -16 -33
0 -40 0 -39 39 -78 40 -78 12 -68 12 -69 -11 -39 -12 -38 -21 -27 -20 -26 -44
-25 -43 -26 -78 -15 -79 -16 -398 7 -397 6 0 -73 0 -73 -30 -350 -30 -350 -7
-142 -6 -143 16 0 16 0 37 25 37 25 36 9 36 10 61 7 60 6 95 -12 94 -12 85
-25 85 -24 73 -35 73 -35 54 -54 54 -53 11 -43 12 -44 -11 -89 -12 -89 -19
-54 -19 -55 -25 -33 -25 -32 -48 -31 -48 -30 -59 -12 -60 -12 -60 6 -61 7 -82
19 -81 19 -58 21 -58 20 -29 0 -28 0 -28 -15 -29 -14 -21 -44 -21 -43 -10 -53
-10 -54 1 -166 0 -166 22 -240 22 -240 140 3 140 3 270 13 270 13 70 -7 70 -7
36 -12 36 -12 12 -23 13 -23 -26 -60 -25 -60 -21 -104 -22 -104 -5 -91 -6 -91
12 -65 13 -65 21 -38 22 -39 43 -33 43 -32 52 -16 52 -16 85 -6 85 -5 59 11
60 11 41 20 41 20 31 31 32 30 22 46 23 47 4 75 4 76 -20 80 -20 80 -26 73
-26 72 14 34 14 33 23 17 24 17 65 19 65 19 100 10 100 10 180 6 180 6 120 10
120 9 43 6 42 6 0 21 0 21 -41 58 -40 58 -39 83 -38 82 -22 65 -22 65 -55 210
-54 210 -25 54 -24 53 -29 30 -29 30 -40 5 -41 5 -36 -6 -36 -7 -41 -37 -40
-36 -14 18 -13 19 -13 56 -12 56 -1 200 0 200 25 44 25 44 26 20 27 19 45 5
45 5 54 -12 53 -13 90 -35 90 -34 51 4 51 4 31 22 31 22 25 53 26 52 17 80 18
80 0 315 0 315 -9 137 -8 136 -21 5 -22 4 -100 21 -100 21 -220 21 -220 21
-73 14 -74 14 -54 25 -53 25 -21 33 -20 33 0 25 1 25 12 28 12 28 25 12 25 12
3 43 3 43 -21 44 -22 45 -51 46 -52 47 -61 29 -61 28 -69 15 -69 15 -60 -1
-60 -1 -51 -8z"/>
</g>
</svg>
