<?xml version="1.0" standalone="no"?>
<!DOCTYPE svg PUBLIC "-//W3C//DTD SVG 20010904//EN"
 "http://www.w3.org/TR/2001/REC-SVG-20010904/DTD/svg10.dtd">
<svg version="1.0" xmlns="http://www.w3.org/2000/svg"
 width="278.000000pt" height="435.000000pt" viewBox="0 0 278.000000 435.000000"
 preserveAspectRatio="xMidYMid meet">
<metadata>
Created by potrace 1.16, written by Peter Selinger 2001-2019
</metadata>
<g transform="translate(0.000000,435.000000) scale(0.100000,-0.100000)"
fill="#000000" stroke="none">
<path d="M1304 4340 l-51 -7 -39 -13 -39 -12 -37 -25 -37 -25 -15 -33 -16 -33
0 -29 0 -30 40 -79 39 -79 12 -70 12 -70 -7 -36 -6 -37 -23 -33 -22 -33 -45
-28 -46 -28 -79 -16 -80 -16 -398 7 -397 6 0 -73 0 -73 -30 -350 -30 -350 -7
-132 -6 -133 6 0 6 0 37 25 37 25 36 10 36 9 70 7 70 6 95 -12 95 -12 85 -25
85 -24 73 -35 73 -35 54 -54 54 -53 12 -43 12 -44 -12 -97 -11 -98 -19 -56
-20 -56 -25 -33 -25 -32 -48 -31 -48 -30 -60 -12 -59 -12 -75 6 -74 7 -106 29
-106 29 -42 12 -42 13 -34 -16 -34 -16 -22 -44 -21 -44 -10 -53 -10 -54 1
-156 0 -156 22 -240 22 -240 130 3 130 3 275 14 275 14 80 -9 80 -9 31 -11 31
-11 13 -24 13 -25 -11 -32 -11 -33 -21 -58 -20 -58 -20 -115 -20 -116 0 -59 0
-58 11 -53 11 -53 19 -36 18 -36 33 -28 33 -28 42 -19 42 -19 81 -11 80 -12
74 11 74 10 44 22 44 21 31 31 32 30 22 46 22 45 4 67 5 66 -20 80 -20 80 -27
75 -27 75 11 37 11 37 27 21 26 20 66 20 66 19 100 10 100 10 180 6 180 6 120
10 120 9 43 6 42 6 0 11 0 11 -41 58 -40 58 -39 83 -38 82 -22 65 -22 65 -55
210 -54 210 -24 53 -24 53 -28 30 -28 29 -32 6 -33 6 -35 -6 -35 -7 -47 -41
-47 -40 -17 21 -18 22 -12 57 -13 57 -1 210 0 210 25 44 25 44 27 20 27 20 55
5 55 4 53 -12 53 -13 90 -35 90 -34 41 5 42 4 30 22 31 21 25 53 26 52 17 80
18 80 0 305 0 305 -9 137 -8 136 -21 5 -22 4 -100 21 -100 21 -220 21 -220 21
-73 14 -74 14 -54 25 -53 25 -21 33 -20 33 0 35 1 35 12 28 12 28 25 12 25 12
3 33 3 33 -21 44 -22 45 -51 46 -52 47 -61 29 -61 28 -69 15 -69 15 -50 -1
-50 -1 -51 -8z"/>
</g>
</svg>
