<?xml version="1.0" standalone="no"?>
<!DOCTYPE svg PUBLIC "-//W3C//DTD SVG 20010904//EN"
 "http://www.w3.org/TR/2001/REC-SVG-20010904/DTD/svg10.dtd">
<svg version="1.0" xmlns="http://www.w3.org/2000/svg"
 width="356.000000pt" height="433.000000pt" viewBox="0 0 356.000000 433.000000"
 preserveAspectRatio="xMidYMid meet">
<metadata>
Created by potrace 1.16, written by Peter Selinger 2001-2019
</metadata>
<g transform="translate(0.000000,433.000000) scale(0.100000,-0.100000)"
fill="#000000" stroke="none">
<path d="M1888 4314 l-47 -14 -16 -22 -15 -22 0 -51 0 -50 35 -80 36 -80 11
-65 11 -65 -12 -41 -11 -41 -22 -33 -23 -33 -46 -29 -47 -28 -78 -23 -79 -22
-402 2 -403 2 0 -52 0 -52 26 -280 25 -280 6 -170 6 -170 -20 18 -20 18 -56
19 -57 20 -112 0 -112 0 -65 -16 -66 -16 -75 -36 -75 -35 -71 -71 -71 -71 -21
-58 -22 -58 0 -97 0 -98 15 -59 16 -59 25 -47 26 -47 41 -41 40 -41 56 -28 56
-27 85 0 85 0 80 39 80 40 32 0 32 0 22 -19 21 -20 18 -35 18 -35 13 -55 14
-55 0 -387 0 -386 8 -9 9 -8 331 3 332 4 70 -11 70 -12 46 -15 46 -15 47 -29
46 -30 29 -46 29 -45 12 -67 12 -67 -16 -95 -17 -94 -31 -50 -32 -49 -4 -58
-4 -59 39 -39 39 -39 59 -19 60 -18 160 0 160 0 57 27 57 27 40 39 39 40 16
49 17 48 6 56 6 57 -13 83 -12 84 -35 103 -35 104 12 29 13 30 25 20 25 19 53
16 54 15 102 9 103 8 338 -11 338 -10 9 9 8 9 27 270 27 270 5 195 6 195 -12
70 -12 71 -22 39 -22 40 -35 18 -35 18 -45 -6 -45 -6 -60 -37 -60 -37 -70 0
-70 0 -50 24 -49 25 -41 41 -41 41 -24 48 -23 49 0 57 1 57 20 44 20 44 25 27
24 28 44 20 44 20 54 0 53 0 61 -16 61 -16 63 -29 62 -29 30 0 30 0 26 23 27
22 14 55 15 55 6 160 5 160 -16 295 -16 295 0 71 0 72 -13 10 -12 10 -85 16
-85 15 -95 10 -95 11 -204 15 -205 16 -75 14 -76 15 -51 26 -52 26 -18 33 -17
32 6 42 5 41 33 52 34 52 3 65 4 66 -31 42 -31 42 -40 21 -39 20 -58 15 -57
15 -156 -1 -155 0 -47 -15z"/>
</g>
</svg>
