<?xml version="1.0" standalone="no"?>
<!DOCTYPE svg PUBLIC "-//W3C//DTD SVG 20010904//EN"
 "http://www.w3.org/TR/2001/REC-SVG-20010904/DTD/svg10.dtd">
<svg version="1.0" xmlns="http://www.w3.org/2000/svg"
 width="354.000000pt" height="431.000000pt" viewBox="0 0 354.000000 431.000000"
 preserveAspectRatio="xMidYMid meet">
<metadata>
Created by potrace 1.16, written by Peter Selinger 2001-2019
</metadata>
<g transform="translate(0.000000,431.000000) scale(0.100000,-0.100000)"
fill="#000000" stroke="none">
<path d="M1888 4294 l-47 -14 -16 -22 -15 -22 0 -41 0 -40 35 -80 35 -80 12
-61 11 -60 -7 -45 -7 -44 -22 -40 -22 -39 -40 -28 -40 -28 -62 -19 -62 -20
-88 -12 -88 -12 -342 7 -343 7 0 -43 0 -43 26 -280 25 -280 6 -167 6 -166 -7
-18 -7 -17 -23 22 -23 21 -56 20 -57 20 -102 0 -102 0 -65 -16 -66 -16 -75
-36 -75 -35 -71 -71 -71 -71 -21 -58 -22 -58 0 -87 0 -88 15 -59 16 -59 25
-47 26 -47 41 -41 40 -41 56 -28 56 -27 75 0 75 0 80 40 80 39 41 1 42 0 22
-20 22 -20 18 -35 18 -35 13 -55 14 -55 0 -387 0 -387 8 -8 8 -8 332 3 332 3
75 -11 75 -12 51 -19 52 -20 40 -29 41 -29 25 -43 25 -44 12 -69 12 -70 -17
-99 -16 -100 -32 -49 -31 -49 -5 -49 -5 -49 40 -39 39 -39 59 -19 60 -18 150
0 150 0 57 27 57 27 40 39 39 40 16 48 16 49 6 50 6 51 -11 74 -11 75 -36 111
-37 111 7 28 7 28 28 28 28 28 56 16 56 16 108 9 108 9 333 -11 333 -11 9 9 8
9 27 270 27 270 5 186 6 185 -12 69 -12 68 -20 38 -19 39 -27 17 -27 18 -44
-2 -44 -2 -62 -38 -61 -38 -80 0 -80 0 -50 24 -49 25 -41 41 -41 41 -24 49
-24 50 0 65 1 66 21 44 20 45 25 27 24 28 44 20 44 20 64 0 63 0 61 -16 61
-16 63 -29 62 -29 20 0 20 0 26 23 27 22 14 55 15 55 6 150 5 150 -16 295 -16
295 0 71 0 72 -13 10 -12 10 -85 16 -85 15 -95 10 -95 11 -204 15 -205 16 -75
14 -76 15 -51 26 -52 26 -17 33 -18 32 5 51 5 50 33 53 34 52 4 56 4 56 -31
42 -31 42 -40 21 -39 20 -58 15 -57 15 -146 -1 -145 0 -47 -15z"/>
</g>
</svg>
