<?xml version="1.0" standalone="no"?>
<!DOCTYPE svg PUBLIC "-//W3C//DTD SVG 20010904//EN"
 "http://www.w3.org/TR/2001/REC-SVG-20010904/DTD/svg10.dtd">
<svg version="1.0" xmlns="http://www.w3.org/2000/svg"
 width="278.000000pt" height="420.000000pt" viewBox="0 0 278.000000 420.000000"
 preserveAspectRatio="xMidYMid meet">
<metadata>
Created by potrace 1.16, written by Peter Selinger 2001-2019
</metadata>
<g transform="translate(0.000000,420.000000) scale(0.100000,-0.100000)"
fill="#000000" stroke="none">
<path d="M1264 4190 l-32 -10 -48 -32 -49 -33 -30 -59 -30 -60 0 -120 1 -121
27 -100 28 -99 14 -16 15 -17 -18 -16 -19 -17 -84 -11 -84 -11 -130 7 -130 6
-269 20 -268 19 -63 0 -62 0 -9 -252 -9 -253 1 -190 0 -190 13 -70 12 -69 21
-48 21 -48 29 -25 30 -25 52 0 52 0 88 45 89 45 64 0 63 0 56 -20 56 -19 54
-41 54 -41 24 -38 24 -38 12 -40 13 -41 -7 -37 -7 -37 -44 -43 -43 -44 -71
-35 -70 -36 -73 -20 -73 -20 -61 0 -61 0 -31 11 -31 10 -15 24 -16 24 -42 12
-42 11 -38 -11 -37 -12 -19 -27 -20 -27 -17 -55 -17 -55 -5 -175 -5 -175 16
-271 16 -271 0 -77 0 -78 117 6 118 6 190 5 190 6 115 -11 114 -11 46 -11 45
-11 42 -18 42 -18 45 -41 45 -41 15 -46 16 -47 0 -40 0 -41 -14 -57 -13 -57
-32 -36 -31 -36 0 -55 0 -55 44 -43 44 -44 58 -21 57 -22 76 -1 76 -1 37 16
37 16 46 48 46 48 40 80 39 80 21 84 21 84 -4 103 -3 103 -33 40 -33 41 -6 36
-6 35 14 25 13 26 39 19 38 20 67 8 67 9 100 -9 100 -9 110 -21 110 -20 100
-25 100 -25 104 -31 103 -30 9 13 9 14 0 11 0 11 -44 94 -44 94 -31 110 -30
110 -36 175 -36 175 -13 45 -13 45 -23 48 -22 47 -30 21 -29 21 -47 1 -47 1
-26 -7 -27 -7 -21 -35 -21 -35 -20 12 -21 13 -29 60 -30 60 -17 70 -17 70 0
170 -1 170 18 55 17 55 18 21 18 22 35 18 34 19 105 -1 105 -1 120 -27 119
-28 20 -14 20 -14 22 0 23 0 20 26 20 25 12 57 12 57 -6 255 -6 255 -16 199
-16 200 -4 5 -5 4 -33 -10 -32 -11 -120 -42 -120 -41 -115 -29 -115 -29 -95
-16 -95 -17 -106 0 -105 -1 -46 21 -46 20 -21 21 -21 21 0 43 0 42 26 55 25
55 15 55 14 54 0 76 0 76 -16 55 -16 54 -29 53 -30 53 -32 29 -32 29 -50 28
-50 27 -95 3 -95 2 -31 -9z"/>
</g>
</svg>
