<?xml version="1.0" standalone="no"?>
<!DOCTYPE svg PUBLIC "-//W3C//DTD SVG 20010904//EN"
 "http://www.w3.org/TR/2001/REC-SVG-20010904/DTD/svg10.dtd">
<svg version="1.0" xmlns="http://www.w3.org/2000/svg"
 width="276.000000pt" height="418.000000pt" viewBox="0 0 276.000000 418.000000"
 preserveAspectRatio="xMidYMid meet">
<metadata>
Created by potrace 1.16, written by Peter Selinger 2001-2019
</metadata>
<g transform="translate(0.000000,418.000000) scale(0.100000,-0.100000)"
fill="#000000" stroke="none">
<path d="M1264 4170 l-32 -10 -48 -32 -49 -33 -30 -59 -30 -60 0 -110 1 -111
27 -100 28 -99 14 -16 15 -17 0 -10 0 -10 -18 -17 -19 -16 -84 -11 -84 -11
-140 7 -140 6 -269 20 -268 19 -53 0 -52 0 -9 -252 -9 -253 1 -180 0 -180 13
-70 12 -69 21 -48 21 -48 29 -25 30 -25 42 0 42 0 90 46 89 46 90 -4 90 -4 55
-27 55 -27 45 -39 45 -38 24 -49 24 -48 5 -46 4 -47 -17 -37 -18 -37 -41 -33
-41 -34 -62 -31 -61 -30 -74 -21 -73 -20 -71 0 -71 0 -31 11 -31 10 -15 24
-16 24 -40 11 -39 11 -34 -14 -33 -14 -16 -25 -16 -25 -17 -54 -17 -54 -5
-165 -5 -165 16 -271 16 -271 0 -77 0 -78 98 6 97 6 210 5 210 6 115 -11 114
-11 46 -11 45 -11 42 -18 42 -18 45 -41 45 -41 15 -46 16 -47 0 -50 0 -51 -14
-57 -13 -57 -32 -36 -31 -36 0 -45 0 -45 44 -43 44 -44 57 -21 57 -21 66 -2
67 -1 37 16 37 16 46 48 46 48 40 80 39 80 21 84 21 84 -4 93 -4 93 -33 42
-34 41 -5 45 -5 44 14 26 13 25 38 19 38 20 73 9 72 9 105 -10 105 -9 110 -21
110 -20 150 -39 150 -39 47 -15 46 -15 6 14 5 14 -44 93 -43 93 -31 110 -30
110 -36 175 -36 175 -13 45 -13 45 -23 48 -22 47 -29 21 -30 21 -42 0 -42 1
-22 -7 -22 -7 -20 -34 -20 -35 -14 0 -13 0 -23 22 -24 21 -23 51 -23 51 -17
70 -18 70 0 180 -1 180 18 55 17 55 18 21 18 22 35 18 34 19 115 -1 115 -1
118 -27 117 -27 31 -17 30 -17 24 27 23 27 13 58 12 58 -6 245 -6 245 -16 199
-16 200 -3 3 -3 3 -84 -31 -84 -31 -93 -29 -92 -28 -83 -20 -83 -20 -95 -16
-94 -17 -115 -1 -115 0 -46 20 -47 21 -21 21 -21 21 0 53 0 52 26 55 25 55 15
55 14 54 0 66 0 66 -16 55 -16 54 -29 53 -30 53 -32 29 -32 29 -50 28 -50 27
-85 3 -85 2 -31 -9z"/>
</g>
</svg>
