<?xml version="1.0" standalone="no"?>
<!DOCTYPE svg PUBLIC "-//W3C//DTD SVG 20010904//EN"
 "http://www.w3.org/TR/2001/REC-SVG-20010904/DTD/svg10.dtd">
<svg version="1.0" xmlns="http://www.w3.org/2000/svg"
 width="432.000000pt" height="441.000000pt" viewBox="0 0 432.000000 441.000000"
 preserveAspectRatio="xMidYMid meet">
<metadata>
Created by potrace 1.16, written by Peter Selinger 2001-2019
</metadata>
<g transform="translate(0.000000,441.000000) scale(0.100000,-0.100000)"
fill="#000000" stroke="none">
<path d="M1927 4396 l-49 -13 -26 -20 -27 -20 -13 -24 -13 -24 4 -55 3 -55 32
-69 32 -69 15 -85 15 -85 -10 -59 -9 -60 -26 -44 -26 -44 -52 -33 -53 -34 -49
-16 -50 -15 -25 -6 -25 -6 -130 -10 -130 -9 -280 9 -280 8 -7 -7 -7 -6 16
-230 15 -230 1 -240 2 -240 -14 -74 -13 -74 -14 -32 -13 -32 -14 -12 -15 -12
-59 20 -59 20 -101 20 -101 21 -100 0 -99 0 -34 -12 -34 -11 -28 -19 -27 -19
-22 -47 -21 -47 -1 -95 -1 -95 23 -49 22 -49 53 -53 53 -53 44 -20 45 -21 56
0 56 0 16 18 17 19 0 11 0 11 19 11 20 10 33 0 34 0 22 -16 22 -15 24 -48 24
-47 16 -77 16 -77 25 -253 25 -252 20 -118 20 -118 17 -70 17 -70 20 5 21 5
225 7 225 6 110 -11 111 -11 73 -20 73 -21 47 -23 47 -24 41 -44 40 -45 13
-37 12 -38 -4 -66 -5 -67 -12 -25 -12 -25 -24 -40 -25 -40 0 -55 0 -55 25 -36
24 -37 45 -26 44 -26 69 -16 68 -16 120 4 120 4 59 23 58 23 48 47 48 47 12
44 12 44 -6 34 -5 34 -15 22 -16 21 -19 25 -20 25 -6 35 -6 35 20 32 20 32 51
26 50 25 64 15 65 15 227 35 227 35 106 26 106 25 75 28 75 28 -1 24 -2 24 -7
425 -8 425 12 75 12 75 24 53 24 53 35 14 35 15 80 -29 80 -29 70 -16 70 -16
89 0 88 0 52 15 51 16 43 32 43 33 30 54 30 55 -1 175 0 175 -17 56 -17 56
-35 40 -35 40 -46 13 -45 13 -102 -6 -102 -6 -105 -30 -105 -30 -55 -20 -55
-20 -23 -1 -23 0 -29 15 -30 15 -15 30 -15 30 -11 82 -12 82 12 271 11 270 0
108 0 107 -16 0 -16 0 -181 -45 -182 -44 -125 -22 -125 -22 -155 -1 -155 -1
-47 22 -46 21 -18 27 -18 28 1 40 2 41 19 25 19 26 19 35 19 35 -1 120 -1 120
-21 79 -22 79 -35 72 -35 73 -52 58 -53 57 -40 18 -40 19 -90 -1 -90 0 -48
-13z"/>
</g>
</svg>
