<?xml version="1.0" standalone="no"?>
<!DOCTYPE svg PUBLIC "-//W3C//DTD SVG 20010904//EN"
 "http://www.w3.org/TR/2001/REC-SVG-20010904/DTD/svg10.dtd">
<svg version="1.0" xmlns="http://www.w3.org/2000/svg"
 width="430.000000pt" height="439.000000pt" viewBox="0 0 430.000000 439.000000"
 preserveAspectRatio="xMidYMid meet">
<metadata>
Created by potrace 1.16, written by Peter Selinger 2001-2019
</metadata>
<g transform="translate(0.000000,439.000000) scale(0.100000,-0.100000)"
fill="#000000" stroke="none">
<path d="M1927 4376 l-49 -13 -26 -20 -27 -20 -13 -24 -13 -24 4 -46 4 -46 32
-68 32 -69 15 -89 15 -89 -10 -64 -10 -65 -26 -45 -26 -44 -52 -33 -53 -34
-49 -16 -50 -16 -65 -10 -65 -10 -105 -5 -105 -5 -265 8 -265 8 -6 -6 -7 -6
15 -215 15 -215 1 -250 2 -250 -13 -80 -14 -80 -16 -34 -17 -34 -16 -10 -17
-11 -65 22 -65 21 -100 21 -100 20 -90 0 -89 0 -34 -12 -34 -11 -28 -19 -27
-19 -21 -47 -22 -47 -1 -85 -1 -85 23 -49 22 -49 53 -53 53 -53 44 -20 45 -21
46 0 46 0 16 18 17 19 0 11 0 11 21 11 20 11 39 1 40 0 25 -16 25 -16 24 -48
24 -48 16 -77 16 -77 25 -253 25 -252 20 -118 20 -118 16 -67 16 -67 222 9
221 9 135 -11 135 -11 73 -21 74 -21 47 -23 47 -24 41 -45 42 -45 11 -40 12
-39 -4 -74 -5 -74 -12 -25 -12 -25 -24 -40 -25 -40 0 -45 0 -45 25 -36 24 -37
45 -26 44 -26 69 -16 68 -16 110 4 110 5 59 22 58 23 48 47 48 47 12 43 11 43
-6 29 -7 29 -33 40 -34 41 -7 44 -6 44 19 33 19 33 49 27 50 27 68 16 68 16
226 34 226 35 106 26 106 25 75 28 75 28 -2 9 -1 9 -8 440 -7 440 12 75 12 75
24 53 24 53 38 16 38 16 110 -37 110 -36 45 -10 45 -10 81 0 80 0 52 15 51 16
43 32 43 33 30 54 30 55 -1 165 0 165 -17 56 -17 56 -35 40 -35 40 -46 13 -45
13 -92 -6 -92 -7 -105 -29 -105 -30 -55 -20 -55 -20 -33 -1 -33 0 -29 15 -30
15 -15 30 -16 31 -11 85 -11 85 12 277 11 277 0 98 0 97 -6 0 -6 0 -181 -45
-182 -44 -125 -22 -125 -23 -165 0 -165 -1 -47 22 -46 21 -19 28 -18 28 2 49
1 50 20 26 19 26 19 35 19 35 -1 110 -1 110 -21 79 -22 79 -35 72 -35 73 -52
58 -53 57 -40 18 -40 19 -80 -1 -80 0 -48 -13z"/>
</g>
</svg>
