<?xml version="1.0" standalone="no"?>
<!DOCTYPE svg PUBLIC "-//W3C//DTD SVG 20010904//EN"
 "http://www.w3.org/TR/2001/REC-SVG-20010904/DTD/svg10.dtd">
<svg version="1.0" xmlns="http://www.w3.org/2000/svg"
 width="358.000000pt" height="358.000000pt" viewBox="0 0 358.000000 358.000000"
 preserveAspectRatio="xMidYMid meet">
<metadata>
Created by potrace 1.16, written by Peter Selinger 2001-2019
</metadata>
<g transform="translate(0.000000,358.000000) scale(0.100000,-0.100000)"
fill="#000000" stroke="none">
<path d="M2013 3570 l-53 -8 -47 -23 -48 -24 -30 -59 -30 -59 1 -111 1 -111
27 -160 28 -160 12 -15 12 -15 12 -28 12 -28 -6 -24 -6 -24 -30 -10 -31 -11
-121 0 -121 0 -220 15 -220 15 -137 0 -138 0 0 -21 0 -20 21 -272 22 -272 1
-260 1 -260 -13 -22 -13 -23 -9 0 -9 0 -37 25 -37 25 -41 12 -41 13 -135 -1
-135 0 -82 -22 -82 -21 -73 -31 -73 -30 -50 -38 -50 -37 -23 -45 -23 -45 5
-47 5 -47 17 -33 17 -33 43 -42 44 -42 32 -18 33 -18 90 0 90 0 85 43 84 42
24 0 23 0 29 -15 28 -15 20 -32 20 -33 16 -50 16 -50 14 -95 15 -95 21 -195
22 -195 23 -140 24 -140 18 -65 18 -65 1343 -3 1342 -2 -21 42 -21 42 -24 62
-23 63 -25 88 -25 88 -41 215 -41 215 -16 55 -16 55 -23 47 -24 48 -23 14 -22
14 -22 6 -22 7 -39 -11 -40 -10 -12 -30 -13 -30 -23 -6 -24 -6 -25 16 -25 16
-25 50 -25 50 -14 62 -15 63 -6 80 -7 80 12 69 11 69 16 31 16 31 25 25 24 25
57 0 56 0 76 -38 77 -38 53 -11 54 -11 38 7 38 7 39 35 38 35 21 44 21 44 15
87 15 87 0 202 0 202 -7 225 -6 225 -91 36 -91 36 -102 25 -103 26 -231 40
-232 40 -60 16 -61 16 -40 20 -41 20 -27 30 -28 29 0 44 0 44 10 27 10 26 30
28 30 28 0 46 0 47 -25 47 -25 47 -19 23 -19 22 -11 0 -11 0 0 9 0 8 -62 29
-63 28 -120 2 -120 3 -52 -9z"/>
</g>
</svg>
