<?xml version="1.0" standalone="no"?>
<!DOCTYPE svg PUBLIC "-//W3C//DTD SVG 20010904//EN"
 "http://www.w3.org/TR/2001/REC-SVG-20010904/DTD/svg10.dtd">
<svg version="1.0" xmlns="http://www.w3.org/2000/svg"
 width="360.000000pt" height="360.000000pt" viewBox="0 0 360.000000 360.000000"
 preserveAspectRatio="xMidYMid meet">
<metadata>
Created by potrace 1.16, written by Peter Selinger 2001-2019
</metadata>
<g transform="translate(0.000000,360.000000) scale(0.100000,-0.100000)"
fill="#000000" stroke="none">
<path d="M2013 3590 l-53 -8 -47 -23 -48 -24 -30 -59 -30 -60 1 -120 0 -121
28 -160 28 -160 12 -15 12 -15 10 -25 10 -25 -3 -17 -4 -16 -31 -11 -31 -11
-111 0 -111 0 -220 15 -220 15 -147 0 -148 0 0 -31 0 -30 21 -272 22 -272 1
-250 1 -250 -13 -22 -12 -22 -37 24 -36 25 -41 12 -41 13 -145 -1 -145 0 -82
-22 -82 -21 -73 -31 -73 -30 -50 -38 -50 -37 -23 -45 -23 -45 4 -56 5 -56 17
-34 18 -34 43 -42 44 -42 32 -18 33 -18 100 0 100 0 87 44 88 43 26 -6 27 -7
28 -30 28 -30 20 -62 21 -62 14 -95 15 -95 21 -195 22 -195 23 -140 24 -140
18 -65 18 -65 1354 -3 1353 -2 -5 17 -5 18 -36 80 -35 80 -30 105 -30 105 -41
215 -41 215 -16 55 -16 55 -23 47 -24 47 -22 15 -22 16 -32 6 -31 6 -40 -11
-41 -11 -12 -29 -12 -30 -15 -6 -16 -5 -23 15 -24 15 -25 50 -25 50 -14 62
-14 63 -7 70 -6 70 11 69 11 69 16 31 16 31 25 25 24 25 47 0 46 0 75 -37 75
-36 40 -11 40 -11 43 0 43 0 32 14 32 13 33 37 32 37 15 36 16 37 14 84 15 85
0 212 0 212 -7 225 -6 225 -91 36 -91 36 -102 25 -103 26 -231 40 -232 40 -60
16 -61 16 -40 20 -41 20 -27 30 -28 29 0 34 0 34 10 27 10 26 30 28 30 28 0
56 0 57 -25 47 -25 47 -19 23 -19 22 -11 0 -11 0 0 9 0 8 -62 29 -63 28 -130
2 -130 3 -52 -9z"/>
</g>
</svg>
