<?xml version="1.0" standalone="no"?>
<!DOCTYPE svg PUBLIC "-//W3C//DTD SVG 20010904//EN"
 "http://www.w3.org/TR/2001/REC-SVG-20010904/DTD/svg10.dtd">
<svg version="1.0" xmlns="http://www.w3.org/2000/svg"
 width="341.000000pt" height="359.000000pt" viewBox="0 0 341.000000 359.000000"
 preserveAspectRatio="xMidYMid meet">
<metadata>
Created by potrace 1.16, written by Peter Selinger 2001-2019
</metadata>
<g transform="translate(0.000000,359.000000) scale(0.100000,-0.100000)"
fill="#000000" stroke="none">
<path d="M1245 3574 l-41 -14 -35 -29 -35 -30 -31 -58 -31 -58 -13 -63 -12
-63 6 -122 6 -122 26 -105 26 -105 9 -9 10 -10 0 -19 0 -18 -37 -16 -38 -17
-170 -4 -170 -4 -230 17 -230 16 -121 6 -122 6 -7 -115 -7 -114 4 -235 5 -234
18 -75 17 -75 28 -60 27 -61 32 -36 32 -37 52 -25 52 -26 55 -6 56 -6 71 11
71 11 73 35 73 35 49 0 48 0 28 -14 28 -15 28 -37 28 -36 18 -60 19 -60 6 -83
7 -82 -12 -65 -13 -65 -32 -59 -33 -59 -48 -37 -48 -36 -54 -17 -55 -17 -72 4
-71 5 -57 22 -58 21 -57 21 -57 21 -34 -7 -35 -6 -28 -28 -27 -28 -20 -64 -20
-65 -11 -89 -10 -90 -11 -200 -11 -200 -14 -125 -14 -125 -7 -32 -6 -33 1346
0 1346 0 0 68 0 67 -14 200 -15 200 -6 160 -7 160 10 92 11 92 12 42 13 42 32
33 31 34 41 0 40 0 51 -35 51 -35 50 -12 50 -11 66 12 66 12 60 30 59 30 37
37 38 38 17 36 17 36 0 84 0 83 -15 69 -14 68 -19 32 -18 31 -30 3 -30 3 -32
-35 -31 -35 -48 -8 -48 -8 -59 2 -59 2 -64 32 -63 32 -34 41 -33 41 -26 52
-27 52 -19 73 -20 73 -12 85 -12 85 1 259 1 259 6 27 6 26 -118 37 -118 36
-125 25 -125 25 -200 30 -200 30 -70 16 -70 15 -53 31 -53 30 -16 33 -16 34 7
37 7 37 37 34 37 34 -1 62 0 63 -26 50 -26 50 -50 47 -50 47 -37 15 -37 16
-62 -1 -61 -1 -40 -14z"/>
</g>
</svg>
