<?xml version="1.0" standalone="no"?>
<!DOCTYPE svg PUBLIC "-//W3C//DTD SVG 20010904//EN"
 "http://www.w3.org/TR/2001/REC-SVG-20010904/DTD/svg10.dtd">
<svg version="1.0" xmlns="http://www.w3.org/2000/svg"
 width="339.000000pt" height="357.000000pt" viewBox="0 0 339.000000 357.000000"
 preserveAspectRatio="xMidYMid meet">
<metadata>
Created by potrace 1.16, written by Peter Selinger 2001-2019
</metadata>
<g transform="translate(0.000000,357.000000) scale(0.100000,-0.100000)"
fill="#000000" stroke="none">
<path d="M1245 3554 l-41 -14 -35 -29 -35 -30 -31 -58 -31 -58 -13 -63 -12
-64 6 -111 6 -112 25 -103 26 -102 16 -25 15 -24 -10 -19 -11 -20 -32 -12 -33
-13 -180 -4 -180 -5 -230 16 -230 17 -111 6 -112 6 -7 -115 -7 -115 4 -224 5
-224 18 -75 17 -75 28 -60 27 -61 32 -36 32 -37 52 -25 52 -25 46 -6 47 -7 70
11 70 11 73 35 73 35 59 0 58 0 28 -14 28 -15 28 -37 28 -36 19 -61 19 -61 6
-92 6 -91 -12 -65 -13 -65 -32 -59 -33 -59 -48 -37 -48 -36 -54 -17 -55 -17
-81 4 -82 5 -57 22 -58 21 -56 20 -56 21 -34 -11 -34 -11 -20 -26 -20 -26 -19
-62 -19 -61 -11 -95 -11 -94 -10 -190 -11 -190 -15 -138 -15 -137 -5 -15 -6
-15 1336 0 1336 0 0 58 0 57 -15 205 -14 205 -7 165 -6 165 10 92 11 92 12 42
13 42 32 33 31 34 51 0 50 0 50 -35 51 -34 46 -12 46 -12 61 13 62 12 58 29
59 30 37 37 38 38 17 36 17 36 0 74 0 73 -15 69 -14 68 -19 32 -18 31 -20 3
-20 3 -32 -35 -31 -35 -48 -8 -48 -8 -68 1 -69 2 -64 32 -64 33 -34 41 -33 41
-26 52 -27 52 -19 73 -20 73 -10 80 -10 80 -5 115 -6 115 8 177 7 176 -115 36
-115 35 -125 25 -125 25 -180 26 -180 27 -88 18 -88 19 -51 28 -51 28 -19 30
-18 30 0 32 0 32 11 28 10 28 32 26 32 27 -1 53 0 54 -26 50 -26 50 -50 47
-50 47 -37 15 -37 16 -52 -1 -51 -1 -40 -14z"/>
</g>
</svg>
