<?xml version="1.0" standalone="no"?>
<!DOCTYPE svg PUBLIC "-//W3C//DTD SVG 20010904//EN"
 "http://www.w3.org/TR/2001/REC-SVG-20010904/DTD/svg10.dtd">
<svg version="1.0" xmlns="http://www.w3.org/2000/svg"
 width="441.000000pt" height="357.000000pt" viewBox="0 0 441.000000 357.000000"
 preserveAspectRatio="xMidYMid meet">
<metadata>
Created by potrace 1.16, written by Peter Selinger 2001-2019
</metadata>
<g transform="translate(0.000000,357.000000) scale(0.100000,-0.100000)"
fill="#000000" stroke="none">
<path d="M2085 3552 l-31 -19 -27 -33 -28 -33 -25 -48 -24 -49 -19 -52 -20
-53 -15 -60 -15 -60 -9 -86 -9 -85 7 -90 8 -89 17 -43 17 -43 22 -15 21 -16
-185 6 -185 5 -330 30 -330 31 -60 0 -60 0 3 -272 4 -273 -16 -123 -16 -123
-30 -94 -30 -93 -40 -59 -39 -58 -36 -28 -36 -28 -46 -21 -46 -20 -56 -5 -56
-5 -56 10 -57 11 -44 31 -45 31 -41 6 -41 6 -29 -30 -29 -29 -12 -52 -11 -53
0 -102 0 -102 15 -68 14 -68 32 -64 32 -65 49 -49 50 -50 44 -17 43 -16 61 4
60 4 28 27 27 26 28 10 28 11 24 0 24 0 26 -12 25 -11 29 -51 29 -51 16 -76
16 -77 20 -203 20 -204 15 -90 15 -90 16 -47 16 -48 1354 0 1354 0 0 11 0 10
-36 142 -36 142 -28 140 -28 140 -17 129 -17 129 4 107 4 106 23 47 23 48 30
15 29 15 62 -20 62 -21 90 -21 90 -20 150 -6 151 -6 84 22 85 21 55 38 54 37
30 44 29 43 5 67 4 67 -11 85 -11 84 -21 63 -21 62 -31 47 -32 47 -34 23 -34
23 -46 0 -46 0 -26 -18 -26 -17 -24 -17 -24 -17 -66 -10 -66 -11 -53 10 -52
10 -50 27 -49 27 -36 39 -35 39 -35 73 -34 73 -22 98 -21 99 0 245 1 246 -86
51 -86 52 -60 24 -60 25 -85 26 -85 25 -190 46 -190 46 -55 25 -55 25 -27 30
-28 30 -6 25 -7 26 13 41 12 40 28 29 28 28 7 30 6 29 -13 28 -13 28 -46 31
-47 31 -68 17 -69 18 -105 5 -105 5 -30 -20z"/>
</g>
</svg>
