<?xml version="1.0" standalone="no"?>
<!DOCTYPE svg PUBLIC "-//W3C//DTD SVG 20010904//EN"
 "http://www.w3.org/TR/2001/REC-SVG-20010904/DTD/svg10.dtd">
<svg version="1.0" xmlns="http://www.w3.org/2000/svg"
 width="439.000000pt" height="355.000000pt" viewBox="0 0 439.000000 355.000000"
 preserveAspectRatio="xMidYMid meet">
<metadata>
Created by potrace 1.16, written by Peter Selinger 2001-2019
</metadata>
<g transform="translate(0.000000,355.000000) scale(0.100000,-0.100000)"
fill="#000000" stroke="none">
<path d="M2085 3532 l-31 -19 -27 -33 -28 -33 -25 -48 -24 -49 -19 -52 -20
-53 -14 -60 -15 -60 -7 -50 -7 -50 1 -94 1 -95 15 -54 16 -54 25 -24 24 -25 0
-11 0 -11 -192 6 -193 6 -330 30 -330 31 -50 0 -50 0 3 -273 4 -272 -16 -123
-16 -123 -30 -94 -30 -93 -40 -59 -39 -58 -36 -28 -36 -28 -47 -21 -47 -21
-65 -5 -65 -4 -56 10 -57 11 -43 30 -44 31 -32 6 -32 6 -29 -29 -29 -29 -12
-52 -11 -53 0 -92 0 -92 15 -68 14 -68 32 -64 32 -65 49 -49 50 -50 44 -17 44
-17 50 5 51 5 27 26 27 26 28 10 28 11 34 0 34 0 26 -12 25 -11 29 -51 29 -51
16 -76 16 -77 20 -203 20 -204 15 -90 15 -90 16 -48 16 -47 1344 0 1345 0 -5
18 -5 17 -31 125 -32 125 -28 140 -28 140 -17 129 -17 129 4 116 4 116 23 48
24 49 33 15 33 16 88 -26 88 -27 70 -15 70 -16 140 -6 140 -6 85 22 85 21 55
38 54 37 29 43 29 43 5 58 5 57 -11 85 -11 84 -21 63 -21 62 -31 47 -32 47
-34 23 -34 23 -36 0 -36 0 -26 -18 -26 -17 -24 -17 -24 -17 -72 -11 -71 -11
-57 10 -57 11 -49 27 -50 27 -36 39 -35 39 -35 73 -34 73 -22 98 -21 99 0 246
0 245 -85 51 -86 52 -60 24 -60 25 -85 26 -85 25 -190 46 -190 46 -54 25 -54
24 -22 23 -22 22 -12 22 -11 22 0 29 0 29 12 34 11 34 24 22 23 22 10 27 10
26 -12 26 -13 27 -46 31 -47 31 -68 17 -67 17 -96 5 -96 5 -30 -19z"/>
</g>
</svg>
