<?xml version="1.0" standalone="no"?>
<!DOCTYPE svg PUBLIC "-//W3C//DTD SVG 20010904//EN"
 "http://www.w3.org/TR/2001/REC-SVG-20010904/DTD/svg10.dtd">
<svg version="1.0" xmlns="http://www.w3.org/2000/svg"
 width="293.000000pt" height="343.000000pt" viewBox="0 0 293.000000 343.000000"
 preserveAspectRatio="xMidYMid meet">
<metadata>
Created by potrace 1.16, written by Peter Selinger 2001-2019
</metadata>
<g transform="translate(0.000000,343.000000) scale(0.100000,-0.100000)"
fill="#000000" stroke="none">
<path d="M1320 3425 l-15 -3 -72 -12 -72 -12 -25 -19 -25 -20 5 -12 5 -13 28
-17 29 -17 12 -72 12 -72 -4 -68 -5 -68 -32 -65 -32 -64 -37 -31 -37 -31 -60
-28 -60 -29 -65 -16 -66 -16 -124 -10 -125 -10 -196 6 -197 7 -7 -138 -8 -138
7 -113 7 -113 19 -92 19 -91 34 -73 35 -73 35 -39 36 -39 50 -27 49 -27 57
-11 57 -10 71 11 72 11 24 17 24 17 26 17 26 18 36 0 36 0 34 -23 34 -23 32
-47 31 -47 21 -62 21 -63 11 -84 11 -85 -5 -57 -5 -58 -29 -43 -29 -43 -54
-37 -55 -38 -85 -21 -85 -22 -140 6 -140 6 -70 16 -70 15 -88 27 -88 26 -33
-16 -33 -15 -24 -49 -23 -48 -4 -116 -4 -116 17 -129 17 -129 28 -140 28 -140
27 -105 26 -105 10 -37 10 -38 1344 0 1343 0 6 27 6 28 24 195 25 195 12 140
12 140 -6 105 -6 105 -16 54 -17 54 -28 29 -28 28 -48 0 -47 0 -84 -41 -83
-42 -68 0 -69 0 -55 26 -56 25 -42 42 -42 42 -27 57 -26 56 0 120 0 120 23 42
22 43 38 24 37 24 59 12 60 12 80 -6 81 -7 124 -25 124 -25 29 -17 29 -17 9
15 10 15 2 40 1 40 -2 95 -2 95 -25 313 -24 314 -6 122 -7 121 -101 -17 -101
-16 -170 -22 -170 -22 -160 4 -160 4 -40 18 -40 17 -27 30 -28 30 0 44 0 44 9
24 10 25 25 25 25 25 7 37 6 36 -4 44 -5 43 -31 66 -31 66 -52 55 -53 56 -74
37 -75 37 -136 2 -136 2 -15 -4z"/>
</g>
</svg>
