<?xml version="1.0" standalone="no"?>
<!DOCTYPE svg PUBLIC "-//W3C//DTD SVG 20010904//EN"
 "http://www.w3.org/TR/2001/REC-SVG-20010904/DTD/svg10.dtd">
<svg version="1.0" xmlns="http://www.w3.org/2000/svg"
 width="295.000000pt" height="345.000000pt" viewBox="0 0 295.000000 345.000000"
 preserveAspectRatio="xMidYMid meet">
<metadata>
Created by potrace 1.16, written by Peter Selinger 2001-2019
</metadata>
<g transform="translate(0.000000,345.000000) scale(0.100000,-0.100000)"
fill="#000000" stroke="none">
<path d="M1277 3440 l-57 -9 -39 -11 -38 -10 -17 -19 -18 -20 6 -18 6 -19 29
-17 29 -17 12 -72 12 -72 -5 -59 -5 -59 -32 -64 -31 -63 -37 -31 -37 -31 -60
-28 -60 -29 -65 -16 -66 -16 -119 -10 -120 -10 -201 7 -202 6 -7 -139 -8 -139
7 -120 7 -121 19 -93 19 -93 34 -73 35 -73 37 -41 37 -41 64 -31 64 -32 78 -1
77 -1 47 8 47 8 37 30 37 29 24 6 23 6 25 -6 25 -6 35 -31 35 -31 30 -61 30
-62 16 -65 17 -65 1 -100 1 -100 -30 -45 -31 -45 -54 -37 -55 -38 -79 -20 -79
-20 -97 0 -96 0 -95 16 -94 16 -85 26 -85 25 -31 4 -31 5 -31 -16 -30 -15 -23
-48 -23 -48 -4 -126 -4 -127 17 -128 17 -129 28 -140 28 -140 27 -105 26 -105
10 -37 10 -38 1354 0 1353 0 6 27 6 28 24 195 25 195 12 140 12 140 -6 115 -6
115 -16 54 -17 54 -28 29 -28 28 -58 0 -57 0 -83 -41 -82 -41 -61 0 -60 0 -54
25 -55 25 -42 42 -42 42 -27 57 -26 56 0 110 0 110 23 42 22 43 38 24 37 24
58 12 59 12 71 -7 72 -7 125 -24 125 -25 22 -15 22 -14 20 0 20 0 7 23 8 22
-2 130 -1 130 -26 318 -25 319 -6 125 -7 125 -21 -6 -21 -6 -210 -32 -210 -32
-195 0 -195 -1 -39 14 -39 14 -34 33 -33 33 0 35 0 35 9 24 10 25 25 25 25 25
7 36 6 37 -4 53 -4 52 -32 67 -31 67 -52 55 -53 56 -75 37 -75 37 -145 2 -146
2 -58 -9z"/>
</g>
</svg>
