<?xml version="1.0" standalone="no"?>
<!DOCTYPE svg PUBLIC "-//W3C//DTD SVG 20010904//EN"
 "http://www.w3.org/TR/2001/REC-SVG-20010904/DTD/svg10.dtd">
<svg version="1.0" xmlns="http://www.w3.org/2000/svg"
 width="345.000000pt" height="299.000000pt" viewBox="0 0 345.000000 299.000000"
 preserveAspectRatio="xMidYMid meet">
<metadata>
Created by potrace 1.16, written by Peter Selinger 2001-2019
</metadata>
<g transform="translate(0.000000,299.000000) scale(0.100000,-0.100000)"
fill="#000000" stroke="none">
<path d="M2549 2980 l-46 -8 -32 -17 -33 -16 -14 -35 -15 -35 12 -41 11 -41
23 -19 23 -18 11 -51 11 -50 0 -57 0 -57 -15 -100 -15 -100 -26 -90 -25 -90
-49 -100 -49 -100 -43 -47 -43 -46 -35 -21 -35 -21 -61 0 -61 0 -47 31 -47 32
-35 51 -34 51 -26 80 -25 80 -6 106 -6 106 12 84 12 84 21 75 20 74 15 23 15
23 -6 15 -6 16 -37 17 -38 16 -175 0 -175 -1 -245 -16 -245 -16 -114 -3 -114
-3 7 -205 6 -205 -10 -131 -10 -131 -20 -77 -20 -78 -26 -57 -25 -58 -47 -46
-47 -46 -49 -22 -49 -21 -58 -5 -58 -6 -63 13 -62 12 -40 34 -40 34 -27 0 -28
0 -25 -33 -25 -33 -15 -58 -16 -58 -6 -103 -7 -102 12 -51 13 -50 34 -40 34
-40 44 -26 45 -26 63 -16 63 -16 145 5 145 5 103 26 103 26 20 11 20 10 42 1
41 0 27 -30 28 -31 12 -43 11 -43 -5 -130 -6 -130 -25 -115 -25 -115 -35 -124
-36 -123 -54 -142 -53 -141 4 -7 4 -8 1340 0 1339 0 0 1381 0 1380 -9 -5 -9
-6 -104 50 -105 50 -135 44 -134 45 -100 20 -99 19 -80 6 -80 5 -46 -9z"/>
</g>
</svg>
