<?xml version="1.0" standalone="no"?>
<!DOCTYPE svg PUBLIC "-//W3C//DTD SVG 20010904//EN"
 "http://www.w3.org/TR/2001/REC-SVG-20010904/DTD/svg10.dtd">
<svg version="1.0" xmlns="http://www.w3.org/2000/svg"
 width="347.000000pt" height="301.000000pt" viewBox="0 0 347.000000 301.000000"
 preserveAspectRatio="xMidYMid meet">
<metadata>
Created by potrace 1.16, written by Peter Selinger 2001-2019
</metadata>
<g transform="translate(0.000000,301.000000) scale(0.100000,-0.100000)"
fill="#000000" stroke="none">
<path d="M2549 3000 l-46 -8 -32 -17 -33 -16 -15 -37 -15 -37 11 -49 11 -48
24 -19 24 -19 11 -51 11 -50 0 -47 0 -47 -15 -100 -15 -100 -26 -90 -25 -90
-49 -100 -49 -100 -43 -47 -43 -46 -35 -21 -35 -21 -51 0 -51 0 -47 31 -47 32
-35 51 -34 51 -26 80 -25 80 -6 96 -6 96 12 84 12 84 21 75 20 74 15 22 15 23
-4 23 -3 23 -40 20 -40 20 -185 -1 -185 -1 -245 -16 -245 -17 -114 -2 -114 -3
6 -206 7 -205 -10 -131 -10 -130 -20 -77 -20 -78 -26 -57 -25 -58 -47 -46 -47
-46 -48 -21 -47 -21 -50 -6 -49 -6 -63 13 -62 12 -40 34 -40 34 -37 0 -38 0
-25 -33 -25 -33 -16 -59 -15 -60 -7 -111 -6 -110 12 -51 13 -51 34 -40 34 -40
44 -26 45 -26 63 -16 63 -16 155 5 155 5 115 32 115 31 41 6 41 5 26 -32 26
-31 12 -42 11 -42 -5 -120 -6 -120 -25 -115 -25 -115 -35 -124 -36 -123 -56
-149 -56 -148 7 -11 6 -10 1350 0 1349 0 0 1390 0 1390 -19 0 -18 0 -96 45
-96 46 -134 44 -133 44 -101 20 -101 20 -88 5 -89 5 -46 -9z"/>
</g>
</svg>
