<?xml version="1.0" standalone="no"?>
<!DOCTYPE svg PUBLIC "-//W3C//DTD SVG 20010904//EN"
 "http://www.w3.org/TR/2001/REC-SVG-20010904/DTD/svg10.dtd">
<svg version="1.0" xmlns="http://www.w3.org/2000/svg"
 width="276.000000pt" height="293.000000pt" viewBox="0 0 276.000000 293.000000"
 preserveAspectRatio="xMidYMid meet">
<metadata>
Created by potrace 1.16, written by Peter Selinger 2001-2019
</metadata>
<g transform="translate(0.000000,293.000000) scale(0.100000,-0.100000)"
fill="#000000" stroke="none">
<path d="M1764 2920 l-62 -9 -39 -19 -39 -20 -13 -25 -14 -26 5 -54 4 -54 34
-41 34 -42 4 -83 4 -83 -21 -85 -21 -84 -39 -80 -40 -80 -46 -48 -46 -48 -34
-15 -34 -14 -60 0 -60 0 -57 21 -56 21 -44 44 -44 43 0 35 0 35 31 36 32 36
13 57 14 57 0 61 0 60 -16 47 -15 46 -45 41 -45 42 -37 15 -37 16 -50 13 -50
14 -125 11 -125 11 -303 -10 -303 -10 -5 -5 -5 -5 -2 -363 -2 -364 19 -80 18
-80 24 -46 23 -47 42 -35 42 -36 56 -12 56 -11 65 11 65 12 80 36 80 36 43 1
44 1 28 -31 28 -32 10 -48 10 -49 7 -115 7 -115 -16 -65 -17 -65 -31 -46 -32
-47 -31 -25 -32 -25 -39 -21 -39 -21 -44 0 -43 0 -33 36 -33 36 -38 8 -39 9
-36 -9 -36 -10 -26 -38 -26 -37 -15 -55 -15 -55 -10 -65 -10 -65 -21 -245 -20
-245 -16 -105 -15 -105 -9 -40 -10 -40 0 -17 0 -18 1345 0 1345 0 0 4 0 4 -25
94 -24 93 -20 125 -20 125 -26 225 -25 225 -11 60 -10 60 -16 50 -15 50 -20
33 -20 32 -28 15 -29 15 -33 0 -34 0 -84 -42 -85 -43 -80 0 -80 0 -33 18 -32
18 -44 42 -43 42 -16 31 -16 32 -6 38 -6 39 23 45 23 45 50 37 50 38 73 30 73
31 82 21 82 22 125 0 125 1 41 -13 41 -12 37 -25 37 -25 19 0 19 0 13 23 13
22 -1 260 0 260 -23 300 -22 300 -4 13 -4 12 -20 0 -19 0 -119 34 -118 34
-117 26 -117 26 -98 14 -98 14 -85 5 -85 5 -61 -8z"/>
</g>
</svg>
