<?xml version="1.0" standalone="no"?>
<!DOCTYPE svg PUBLIC "-//W3C//DTD SVG 20010904//EN"
 "http://www.w3.org/TR/2001/REC-SVG-20010904/DTD/svg10.dtd">
<svg version="1.0" xmlns="http://www.w3.org/2000/svg"
 width="274.000000pt" height="291.000000pt" viewBox="0 0 274.000000 291.000000"
 preserveAspectRatio="xMidYMid meet">
<metadata>
Created by potrace 1.16, written by Peter Selinger 2001-2019
</metadata>
<g transform="translate(0.000000,291.000000) scale(0.100000,-0.100000)"
fill="#000000" stroke="none">
<path d="M1764 2900 l-62 -9 -39 -19 -39 -20 -13 -25 -14 -26 5 -44 5 -45 34
-41 33 -42 4 -93 4 -93 -21 -84 -21 -84 -39 -80 -40 -80 -46 -48 -46 -48 -37
-16 -37 -16 -67 1 -66 2 -57 21 -57 21 -44 44 -44 43 0 45 0 45 31 36 32 36
13 57 14 57 0 51 0 50 -16 47 -15 46 -45 41 -45 42 -37 15 -37 16 -50 13 -50
14 -125 11 -125 10 -293 -9 -294 -10 -4 -5 -5 -4 -2 -354 -2 -354 19 -80 18
-80 24 -46 23 -47 42 -35 42 -36 53 -11 54 -11 58 11 57 12 80 36 80 36 53 0
54 1 28 -31 28 -32 10 -49 11 -48 7 -125 7 -125 -17 -65 -17 -65 -31 -46 -32
-47 -31 -25 -32 -25 -39 -21 -39 -21 -54 0 -53 0 -33 36 -33 36 -33 7 -34 8
-31 -9 -31 -8 -26 -37 -26 -38 -15 -55 -15 -55 -10 -65 -10 -65 -16 -190 -15
-190 -11 -95 -10 -95 -15 -90 -15 -90 -6 -22 -5 -23 1334 0 1335 0 -23 86 -23
85 -20 127 -20 127 -26 225 -25 225 -11 60 -10 60 -16 50 -15 50 -20 33 -20
32 -28 15 -29 15 -23 0 -24 0 -84 -42 -85 -43 -90 0 -90 0 -33 18 -32 18 -44
42 -43 42 -17 33 -17 33 -5 47 -5 47 23 45 23 45 50 37 50 38 73 30 73 31 82
21 82 22 135 0 135 1 41 -13 41 -12 37 -25 37 -25 9 0 9 0 13 23 13 22 -1 250
0 250 -23 300 -22 300 -3 9 -2 9 -20 3 -20 3 -119 35 -120 34 -117 26 -117 26
-98 14 -98 14 -75 5 -75 5 -61 -8z"/>
</g>
</svg>
