<?xml version="1.0" standalone="no"?>
<!DOCTYPE svg PUBLIC "-//W3C//DTD SVG 20010904//EN"
 "http://www.w3.org/TR/2001/REC-SVG-20010904/DTD/svg10.dtd">
<svg version="1.0" xmlns="http://www.w3.org/2000/svg"
 width="275.000000pt" height="362.000000pt" viewBox="0 0 275.000000 362.000000"
 preserveAspectRatio="xMidYMid meet">
<metadata>
Created by potrace 1.16, written by Peter Selinger 2001-2019
</metadata>
<g transform="translate(0.000000,362.000000) scale(0.100000,-0.100000)"
fill="#000000" stroke="none">
<path d="M1280 3608 l-55 -8 -52 -26 -52 -25 -45 -50 -45 -50 -21 -56 -21 -55
-5 -57 -6 -56 11 -58 10 -57 37 -83 36 -82 5 -52 6 -53 -37 -35 -37 -35 -57
-17 -57 -17 -165 0 -165 -1 -282 9 -283 9 0 -1376 0 -1377 1355 0 1355 0 0 8
0 8 -35 87 -35 86 -35 133 -34 133 -36 210 -36 210 -20 79 -20 79 -24 48 -25
48 -22 15 -22 16 -33 6 -33 6 -47 -12 -47 -11 -38 -35 -38 -34 -28 0 -27 0
-37 25 -37 25 -30 62 -31 63 -10 59 -9 59 10 46 10 45 25 46 25 45 17 20 17
20 43 28 42 27 51 20 51 21 59 6 58 6 63 -12 63 -12 71 -35 72 -35 43 3 44 3
22 45 23 45 11 110 11 110 -11 235 -12 235 -9 174 -10 174 -5 5 -5 6 -138 -47
-137 -46 -75 -20 -75 -20 -115 -22 -115 -22 -120 -1 -120 -1 -47 22 -46 21
-18 27 -18 27 1 32 1 31 26 80 27 80 15 95 16 95 -5 95 -5 95 -21 65 -21 65
-35 53 -36 53 -40 29 -41 29 -52 19 -51 19 -60 5 -60 5 -55 -9z"/>
</g>
</svg>
