<?xml version="1.0" standalone="no"?>
<!DOCTYPE svg PUBLIC "-//W3C//DTD SVG 20010904//EN"
 "http://www.w3.org/TR/2001/REC-SVG-20010904/DTD/svg10.dtd">
<svg version="1.0" xmlns="http://www.w3.org/2000/svg"
 width="273.000000pt" height="360.000000pt" viewBox="0 0 273.000000 360.000000"
 preserveAspectRatio="xMidYMid meet">
<metadata>
Created by potrace 1.16, written by Peter Selinger 2001-2019
</metadata>
<g transform="translate(0.000000,360.000000) scale(0.100000,-0.100000)"
fill="#000000" stroke="none">
<path d="M1280 3588 l-55 -8 -52 -26 -52 -25 -45 -50 -45 -50 -20 -54 -20 -53
-7 -49 -6 -48 11 -58 10 -57 37 -83 36 -82 6 -63 5 -62 -37 -35 -37 -35 -57
-17 -57 -17 -175 0 -175 -1 -273 9 -272 9 0 -1366 0 -1367 1344 0 1344 0 -34
85 -34 84 -35 133 -34 133 -36 210 -36 210 -20 80 -20 80 -27 50 -27 50 -39
19 -39 19 -50 -12 -50 -11 -38 -35 -39 -35 -38 0 -37 0 -37 25 -37 25 -30 62
-31 63 -11 64 -10 64 11 51 10 51 30 50 29 50 13 15 13 15 43 28 42 27 52 21
53 21 67 5 67 6 63 -12 63 -12 72 -35 71 -35 34 3 33 3 22 45 23 45 11 109 11
109 -12 226 -11 226 -9 174 -10 174 -3 3 -3 4 -98 -36 -99 -35 -106 -29 -106
-29 -115 -22 -115 -22 -130 -1 -130 -1 -47 22 -46 21 -19 28 -18 28 1 41 2 40
26 80 27 80 15 95 16 95 -5 85 -6 85 -20 65 -21 65 -35 53 -36 53 -40 29 -41
29 -52 19 -51 19 -50 5 -50 4 -55 -8z"/>
</g>
</svg>
