<?xml version="1.0" standalone="no"?>
<!DOCTYPE svg PUBLIC "-//W3C//DTD SVG 20010904//EN"
 "http://www.w3.org/TR/2001/REC-SVG-20010904/DTD/svg10.dtd">
<svg version="1.0" xmlns="http://www.w3.org/2000/svg"
 width="430.000000pt" height="360.000000pt" viewBox="0 0 430.000000 360.000000"
 preserveAspectRatio="xMidYMid meet">
<metadata>
Created by potrace 1.16, written by Peter Selinger 2001-2019
</metadata>
<g transform="translate(0.000000,360.000000) scale(0.100000,-0.100000)"
fill="#000000" stroke="none">
<path d="M1844 3585 l-61 -13 -41 -21 -40 -20 -34 -41 -35 -40 -16 -51 -17
-51 0 -79 0 -78 19 -99 19 -99 27 -77 27 -78 -6 -23 -6 -24 -34 -26 -34 -26
-33 -10 -34 -10 -103 -9 -103 -9 -177 9 -177 10 -148 6 -147 7 6 -419 7 -419
-17 -93 -16 -92 -21 -45 -21 -44 -38 -35 -39 -35 -38 -7 -38 -7 -54 11 -53 11
-77 38 -76 38 -56 0 -57 0 -24 -25 -25 -25 -16 -31 -16 -31 -11 -69 -12 -69 7
-80 6 -80 15 -63 14 -62 25 -50 25 -50 25 -16 25 -16 24 6 23 6 13 30 12 30
40 10 39 11 22 -7 22 -6 22 -14 23 -14 24 -48 23 -47 16 -55 16 -55 41 -215
41 -215 25 -88 25 -88 23 -63 24 -62 21 -42 21 -42 1354 0 1354 0 6 15 5 15
15 137 15 138 11 190 10 190 11 94 11 95 19 61 19 62 20 26 20 26 34 11 34 11
56 -21 56 -20 58 -21 57 -22 82 -5 81 -4 55 17 54 17 48 36 48 37 33 59 32 59
13 65 12 65 -6 91 -6 92 -19 61 -19 61 -28 36 -28 37 -28 15 -28 14 -58 0 -59
0 -73 -35 -73 -35 -70 -11 -70 -11 -47 7 -46 6 -52 25 -52 25 -32 37 -32 36
-27 61 -28 60 -18 80 -19 80 0 334 0 333 -45 -5 -45 -6 -185 -25 -185 -25
-135 -11 -135 -11 -80 6 -80 6 -54 15 -54 15 -35 36 -34 36 4 58 4 59 22 22
21 23 16 37 15 37 0 73 0 73 -16 65 -15 65 -43 90 -44 91 -50 50 -50 51 -46
21 -46 22 -92 -1 -93 -1 -61 -13z"/>
</g>
</svg>
