<?xml version="1.0" standalone="no"?>
<!DOCTYPE svg PUBLIC "-//W3C//DTD SVG 20010904//EN"
 "http://www.w3.org/TR/2001/REC-SVG-20010904/DTD/svg10.dtd">
<svg version="1.0" xmlns="http://www.w3.org/2000/svg"
 width="432.000000pt" height="362.000000pt" viewBox="0 0 432.000000 362.000000"
 preserveAspectRatio="xMidYMid meet">
<metadata>
Created by potrace 1.16, written by Peter Selinger 2001-2019
</metadata>
<g transform="translate(0.000000,362.000000) scale(0.100000,-0.100000)"
fill="#000000" stroke="none">
<path d="M1844 3605 l-61 -13 -41 -21 -40 -20 -34 -41 -35 -40 -16 -51 -17
-51 0 -89 0 -88 19 -99 19 -99 27 -77 27 -77 -16 -23 -15 -24 -33 -20 -33 -20
-60 -13 -60 -12 -170 1 -170 1 -140 10 -140 11 -83 0 -83 0 7 -417 7 -418 -17
-93 -16 -92 -21 -45 -21 -44 -38 -35 -39 -35 -36 -7 -35 -6 -48 11 -47 12 -75
37 -75 37 -66 0 -67 0 -24 -25 -25 -25 -16 -32 -17 -31 -11 -74 -11 -73 6 -85
7 -85 14 -63 15 -62 25 -49 25 -50 22 -15 22 -16 28 0 27 0 15 15 15 15 6 20
6 19 37 10 36 11 36 -18 35 -17 22 -40 23 -40 19 -65 20 -65 41 -215 41 -215
25 -88 25 -88 23 -63 24 -62 21 -42 21 -42 1364 0 1364 0 6 15 5 15 15 137 15
138 11 190 10 190 11 94 11 95 19 61 19 62 20 26 20 25 28 10 29 10 54 -20 54
-20 55 -20 55 -21 92 -5 92 -4 54 17 54 17 48 36 48 37 33 59 32 59 13 65 12
65 -6 101 -6 101 -19 61 -19 62 -28 36 -28 37 -28 15 -28 14 -68 0 -69 0 -73
-35 -73 -35 -69 -11 -69 -10 -54 11 -54 11 -44 28 -45 29 -26 34 -26 34 -24
55 -25 54 -18 80 -19 80 0 334 0 333 -60 -6 -60 -6 -180 -24 -180 -25 -134
-11 -135 -11 -70 6 -71 7 -54 15 -54 14 -35 36 -34 36 4 49 5 49 21 22 21 22
16 37 15 37 0 83 0 83 -16 65 -15 65 -43 90 -44 91 -50 50 -50 51 -46 21 -46
22 -102 -1 -103 -1 -61 -13z"/>
</g>
</svg>
