<?xml version="1.0" standalone="no"?>
<!DOCTYPE svg PUBLIC "-//W3C//DTD SVG 20010904//EN"
 "http://www.w3.org/TR/2001/REC-SVG-20010904/DTD/svg10.dtd">
<svg version="1.0" xmlns="http://www.w3.org/2000/svg"
 width="277.000000pt" height="361.000000pt" viewBox="0 0 277.000000 361.000000"
 preserveAspectRatio="xMidYMid meet">
<metadata>
Created by potrace 1.16, written by Peter Selinger 2001-2019
</metadata>
<g transform="translate(0.000000,361.000000) scale(0.100000,-0.100000)"
fill="#000000" stroke="none">
<path d="M1292 3600 l-82 -9 -54 -15 -53 -16 -49 -32 -49 -33 -23 -45 -23 -45
4 -65 4 -66 36 -79 35 -80 18 -81 17 -81 -7 -47 -7 -48 -36 -39 -35 -39 -57
-18 -56 -17 -416 3 -416 3 -6 -208 -7 -208 10 -135 10 -136 10 -54 10 -55 16
-55 16 -54 25 -51 26 -50 33 -41 34 -41 65 -33 65 -33 77 -1 78 -1 47 8 48 8
35 37 36 37 19 -23 20 -24 15 -51 16 -52 6 -91 6 -90 -19 -39 -18 -39 -38 -38
-37 -37 -58 -30 -58 -29 -57 -11 -57 -12 -42 11 -42 11 -49 35 -50 34 -60 0
-61 0 -31 -33 -32 -34 -12 -39 -13 -39 -11 -118 -12 -118 12 -217 12 -217 12
-197 12 -198 1358 0 1358 0 0 14 0 13 -14 40 -14 40 -16 94 -15 94 -21 204
-20 203 -16 77 -16 76 -29 51 -29 51 -25 11 -26 12 -44 0 -44 0 -28 -11 -28
-10 -26 -25 -27 -26 -41 -5 -41 -6 -44 17 -44 17 -50 50 -49 49 -32 65 -32 64
-14 68 -15 68 0 82 0 82 11 53 12 52 28 29 29 28 22 -6 23 -7 44 -29 43 -30
57 -11 56 -10 75 4 75 5 47 21 47 21 36 28 36 28 39 58 40 59 30 93 30 94 15
116 15 116 0 252 0 252 -6 38 -7 37 -12 0 -12 0 -64 -29 -64 -29 -125 -40
-125 -40 -105 -22 -105 -21 -101 -6 -101 -6 -52 13 -51 12 -35 34 -35 34 0 35
0 36 29 68 29 67 11 53 11 52 0 80 0 80 -16 72 -16 72 -29 64 -29 65 -41 52
-40 52 -52 36 -52 35 -40 14 -40 15 -60 5 -60 5 -83 -8z"/>
</g>
</svg>
