<?xml version="1.0" standalone="no"?>
<!DOCTYPE svg PUBLIC "-//W3C//DTD SVG 20010904//EN"
 "http://www.w3.org/TR/2001/REC-SVG-20010904/DTD/svg10.dtd">
<svg version="1.0" xmlns="http://www.w3.org/2000/svg"
 width="275.000000pt" height="359.000000pt" viewBox="0 0 275.000000 359.000000"
 preserveAspectRatio="xMidYMid meet">
<metadata>
Created by potrace 1.16, written by Peter Selinger 2001-2019
</metadata>
<g transform="translate(0.000000,359.000000) scale(0.100000,-0.100000)"
fill="#000000" stroke="none">
<path d="M1292 3579 l-82 -8 -54 -15 -53 -16 -49 -32 -49 -33 -23 -45 -23 -45
4 -56 5 -57 35 -78 35 -79 16 -72 16 -72 0 -38 0 -38 -10 -34 -10 -35 -32 -33
-33 -34 -55 -17 -55 -17 -416 3 -416 2 -6 -198 -7 -198 10 -135 10 -135 10
-54 10 -55 16 -55 16 -54 25 -51 26 -50 33 -41 34 -41 64 -33 64 -32 69 -2 68
-1 48 8 48 8 31 35 32 35 20 -3 20 -3 18 -31 19 -32 14 -68 15 -69 0 -73 0
-74 -17 -36 -17 -36 -38 -38 -37 -37 -59 -30 -58 -29 -62 -12 -61 -13 -46 12
-46 12 -51 34 -50 35 -50 0 -51 0 -31 -33 -32 -34 -12 -39 -13 -39 -11 -113
-12 -114 12 -211 12 -212 12 -198 12 -197 1348 0 1348 0 0 4 0 3 -14 40 -14
40 -16 94 -15 94 -21 204 -20 203 -16 77 -16 76 -29 51 -29 51 -25 11 -26 12
-34 0 -34 0 -28 -11 -28 -10 -27 -26 -27 -26 -51 -5 -50 -5 -44 17 -44 17 -50
50 -49 49 -32 65 -32 64 -14 68 -15 68 0 92 0 92 11 53 12 52 29 29 29 29 32
-6 32 -6 44 -31 43 -30 57 -11 56 -10 65 4 65 5 47 21 47 21 36 28 36 28 39
58 40 59 30 93 30 94 16 122 15 122 -3 268 -3 267 -6 6 -6 6 -64 -29 -64 -29
-125 -40 -125 -40 -105 -22 -105 -22 -111 -5 -111 -6 -52 13 -51 12 -35 34
-35 34 0 45 0 46 29 68 29 67 11 53 11 52 0 70 0 70 -16 72 -16 72 -29 64 -29
65 -41 52 -40 52 -52 36 -52 35 -40 14 -40 14 -50 5 -50 5 -83 -8z"/>
</g>
</svg>
