<?xml version="1.0" standalone="no"?>
<!DOCTYPE svg PUBLIC "-//W3C//DTD SVG 20010904//EN"
 "http://www.w3.org/TR/2001/REC-SVG-20010904/DTD/svg10.dtd">
<svg version="1.0" xmlns="http://www.w3.org/2000/svg"
 width="358.000000pt" height="360.000000pt" viewBox="0 0 358.000000 360.000000"
 preserveAspectRatio="xMidYMid meet">
<metadata>
Created by potrace 1.16, written by Peter Selinger 2001-2019
</metadata>
<g transform="translate(0.000000,360.000000) scale(0.100000,-0.100000)"
fill="#000000" stroke="none">
<path d="M1270 3585 l-65 -14 -65 -33 -64 -33 -31 -43 -30 -44 0 -66 1 -67 38
-85 39 -85 5 -71 4 -71 -12 -37 -12 -38 -31 -34 -30 -35 -49 -25 -48 -24 -67
-18 -68 -17 -320 0 -320 -1 -11 -2 -11 -2 -6 -192 -6 -193 -26 -283 -26 -283
3 -47 3 -47 23 -3 23 -3 17 21 17 21 145 26 145 26 155 1 155 1 50 -23 50 -23
22 -20 21 -21 23 -51 23 -52 4 -144 4 -145 -12 -55 -12 -56 -25 -52 -24 -53
-50 -55 -51 -55 -61 -30 -62 -30 -71 -11 -71 -11 -79 16 -79 16 -75 30 -75 29
-37 1 -37 0 -23 -10 -23 -11 -22 -33 -22 -34 -12 -43 -12 -44 0 -135 1 -135
17 -109 16 -108 25 -112 24 -111 15 -52 16 -53 1363 0 1364 0 10 48 11 47 15
105 16 105 20 245 21 245 10 65 9 65 20 65 19 65 30 32 30 33 41 0 41 0 39
-40 39 -40 63 0 63 0 39 21 39 21 32 25 31 25 32 47 31 46 17 65 17 65 -7 133
-7 134 -10 50 -11 50 -28 32 -28 31 -64 0 -63 -1 -80 -36 -80 -36 -52 -11 -53
-11 -49 11 -49 10 -41 36 -42 35 -23 47 -24 46 -18 80 -19 80 2 357 3 356 -48
6 -47 6 -270 -8 -270 -9 -111 7 -112 8 -55 16 -56 16 -37 35 -37 35 5 50 5 50
25 37 25 38 11 34 12 34 0 67 0 68 -20 63 -19 64 -29 45 -29 45 -44 43 -44 43
-55 27 -55 27 -125 2 -125 2 -65 -14z"/>
</g>
</svg>
