<?xml version="1.0" standalone="no"?>
<!DOCTYPE svg PUBLIC "-//W3C//DTD SVG 20010904//EN"
 "http://www.w3.org/TR/2001/REC-SVG-20010904/DTD/svg10.dtd">
<svg version="1.0" xmlns="http://www.w3.org/2000/svg"
 width="356.000000pt" height="358.000000pt" viewBox="0 0 356.000000 358.000000"
 preserveAspectRatio="xMidYMid meet">
<metadata>
Created by potrace 1.16, written by Peter Selinger 2001-2019
</metadata>
<g transform="translate(0.000000,358.000000) scale(0.100000,-0.100000)"
fill="#000000" stroke="none">
<path d="M1270 3565 l-65 -14 -65 -33 -64 -33 -30 -43 -31 -43 1 -57 0 -57 39
-85 39 -85 4 -81 4 -81 -12 -38 -12 -37 -31 -34 -30 -35 -49 -25 -48 -24 -67
-18 -68 -17 -320 0 -320 -1 -11 -2 -11 -2 -6 -197 -6 -198 -26 -270 -25 -270
0 -43 0 -43 15 -5 15 -6 18 21 17 22 145 26 145 26 165 1 165 1 50 -23 50 -23
22 -20 21 -21 23 -51 23 -52 4 -155 4 -154 -12 -56 -12 -55 -25 -52 -24 -53
-50 -55 -51 -55 -61 -30 -62 -30 -77 -12 -77 -11 -83 16 -83 17 -75 30 -75 29
-27 1 -27 0 -23 -10 -23 -11 -22 -33 -22 -34 -12 -43 -12 -44 1 -125 0 -125
17 -109 16 -108 25 -112 24 -111 15 -53 16 -52 1353 0 1354 0 10 47 11 48 15
105 16 105 20 245 21 245 10 65 10 65 15 55 15 55 26 38 26 37 31 8 31 9 34
-8 33 -7 33 -36 33 -36 53 0 54 0 39 21 39 21 32 25 31 25 32 47 31 46 17 65
17 65 -7 125 -7 125 -11 48 -10 49 -28 32 -28 31 -54 -1 -53 0 -80 -36 -80
-36 -57 -12 -58 -11 -54 11 -53 11 -42 36 -42 35 -23 47 -24 46 -18 80 -19 80
2 356 2 357 -42 6 -42 6 -270 -9 -270 -9 -120 9 -120 8 -52 16 -52 16 -37 34
-36 35 4 59 4 59 25 39 26 38 11 34 12 34 0 57 0 58 -20 63 -19 64 -29 45 -29
45 -44 43 -44 43 -55 27 -55 27 -115 2 -115 2 -65 -14z"/>
</g>
</svg>
