<?xml version="1.0" standalone="no"?>
<!DOCTYPE svg PUBLIC "-//W3C//DTD SVG 20010904//EN"
 "http://www.w3.org/TR/2001/REC-SVG-20010904/DTD/svg10.dtd">
<svg version="1.0" xmlns="http://www.w3.org/2000/svg"
 width="278.000000pt" height="365.000000pt" viewBox="0 0 278.000000 365.000000"
 preserveAspectRatio="xMidYMid meet">
<metadata>
Created by potrace 1.16, written by Peter Selinger 2001-2019
</metadata>
<g transform="translate(0.000000,365.000000) scale(0.100000,-0.100000)"
fill="#000000" stroke="none">
<path d="M1248 3641 l-58 -8 -44 -13 -45 -12 -20 -19 -21 -20 0 -29 0 -29 31
-36 32 -36 8 -42 8 -42 1 -61 0 -60 -15 -51 -15 -51 -33 -48 -32 -48 -50 -38
-50 -38 -52 -25 -52 -24 -78 -20 -78 -20 -80 -11 -80 -11 -250 2 -250 2 -13
-199 -13 -199 5 -200 5 -200 15 -66 14 -65 22 -47 22 -47 33 -20 32 -20 40 0
40 0 74 39 74 39 43 7 43 7 52 -12 52 -12 55 -29 55 -29 48 -46 47 -47 31 -64
31 -65 5 -77 6 -77 -17 -58 -17 -58 -24 -37 -23 -37 -26 -17 -25 -17 -20 0
-20 0 -45 39 -46 40 -45 6 -45 7 -23 -6 -24 -6 -28 -21 -27 -22 -29 -61 -28
-60 -30 -130 -31 -131 -36 -159 -36 -158 -35 -107 -35 -106 -51 -108 -51 -109
14 -8 13 -8 81 -6 81 -6 332 -17 333 -17 95 11 95 12 31 22 31 22 -5 46 -4 46
-26 61 -27 61 -15 72 -15 72 0 73 0 72 15 57 15 58 21 41 21 41 49 48 49 47
55 21 56 21 45 0 45 0 32 -14 32 -13 42 -46 42 -45 29 -59 29 -58 19 -60 18
-60 1 -105 0 -105 -38 -80 -38 -80 -5 -45 -5 -45 18 -35 18 -34 45 -23 45 -23
90 -11 90 -11 125 6 125 7 95 10 95 10 190 25 190 24 23 5 22 5 0 16 0 15 -25
50 -26 50 -34 86 -35 85 -35 127 -35 126 -40 199 -41 198 -21 67 -20 66 -24
40 -23 40 -30 18 -29 17 -45 0 -44 0 -32 -11 -31 -11 0 -31 -1 -32 -24 28 -24
27 -16 53 -17 52 -5 80 -5 80 16 62 16 63 24 49 25 49 50 51 50 52 66 31 66
30 59 -4 59 -4 47 -37 47 -37 31 -5 31 -6 28 10 28 11 20 45 20 45 9 113 10
112 -10 200 -10 200 -10 149 -10 149 -2 2 -3 2 -60 16 -60 16 -85 15 -85 16
-245 25 -245 26 -70 16 -70 15 -29 15 -28 15 -35 35 -35 35 5 44 5 45 31 50
31 51 9 41 10 42 -9 44 -8 43 -29 42 -29 41 -54 33 -55 33 -50 15 -50 15 -95
4 -95 4 -57 -8z"/>
</g>
</svg>
