<?xml version="1.0" standalone="no"?>
<!DOCTYPE svg PUBLIC "-//W3C//DTD SVG 20010904//EN"
 "http://www.w3.org/TR/2001/REC-SVG-20010904/DTD/svg10.dtd">
<svg version="1.0" xmlns="http://www.w3.org/2000/svg"
 width="276.000000pt" height="363.000000pt" viewBox="0 0 276.000000 363.000000"
 preserveAspectRatio="xMidYMid meet">
<metadata>
Created by potrace 1.16, written by Peter Selinger 2001-2019
</metadata>
<g transform="translate(0.000000,363.000000) scale(0.100000,-0.100000)"
fill="#000000" stroke="none">
<path d="M1248 3621 l-58 -8 -44 -13 -45 -12 -20 -19 -21 -20 0 -19 0 -19 31
-36 32 -36 8 -42 8 -42 1 -71 0 -70 -15 -51 -15 -51 -33 -48 -32 -48 -50 -38
-50 -38 -52 -25 -52 -24 -78 -20 -78 -20 -80 -11 -80 -11 -250 2 -250 1 -13
-198 -13 -199 5 -190 5 -190 15 -66 14 -65 22 -47 22 -47 33 -20 32 -20 30 0
30 0 74 39 75 40 51 7 51 6 54 -12 53 -12 55 -29 55 -29 48 -46 47 -47 31 -65
32 -66 5 -86 5 -86 -17 -58 -17 -58 -24 -37 -23 -37 -26 -17 -25 -17 -30 0
-30 0 -45 39 -46 40 -44 6 -43 7 -29 -15 -29 -15 -17 -19 -17 -18 -25 -55 -26
-55 -30 -130 -30 -130 -36 -159 -36 -158 -35 -107 -35 -106 -48 -102 -48 -102
15 -5 15 -6 176 -9 177 -10 230 -12 230 -12 88 11 88 11 30 22 31 22 -5 36 -4
36 -27 61 -26 61 -15 72 -15 72 0 83 0 82 15 57 15 58 21 41 21 41 49 48 49
47 55 21 56 21 55 0 55 0 32 -14 32 -13 42 -46 42 -45 29 -59 29 -58 19 -60
18 -60 1 -115 0 -115 -40 -84 -40 -85 0 -41 0 -41 17 -26 17 -26 44 -21 44
-21 84 -11 84 -11 123 7 122 6 123 14 122 13 172 23 172 22 11 7 12 7 -27 52
-26 52 -34 86 -35 85 -35 127 -35 126 -40 199 -41 198 -21 67 -20 66 -24 40
-23 40 -30 18 -29 17 -35 0 -34 0 -32 -11 -31 -11 0 -28 0 -29 -9 -5 -9 -6
-26 30 -26 31 -16 52 -16 52 -5 85 -5 85 11 56 12 55 28 60 28 60 50 51 50 51
52 26 52 27 45 8 45 9 42 -10 42 -9 38 -30 37 -30 28 -10 29 -10 27 11 27 10
20 45 20 45 9 112 9 111 -10 191 -9 191 -10 149 -10 149 -2 2 -3 2 -60 16 -60
16 -85 15 -85 16 -245 25 -245 26 -70 16 -70 15 -29 15 -28 15 -35 35 -35 35
4 53 5 54 31 52 32 51 8 36 8 37 -7 38 -6 38 -29 42 -30 42 -54 33 -55 33 -50
15 -50 14 -85 5 -85 4 -57 -8z"/>
</g>
</svg>
