<?xml version="1.0" standalone="no"?>
<!DOCTYPE svg PUBLIC "-//W3C//DTD SVG 20010904//EN"
 "http://www.w3.org/TR/2001/REC-SVG-20010904/DTD/svg10.dtd">
<svg version="1.0" xmlns="http://www.w3.org/2000/svg"
 width="361.000000pt" height="277.000000pt" viewBox="0 0 361.000000 277.000000"
 preserveAspectRatio="xMidYMid meet">
<metadata>
Created by potrace 1.16, written by Peter Selinger 2001-2019
</metadata>
<g transform="translate(0.000000,277.000000) scale(0.100000,-0.100000)"
fill="#000000" stroke="none">
<path d="M785 2760 l-110 -7 -4 -2 -4 -1 6 -127 7 -128 25 -317 25 -317 1
-113 2 -113 -7 -22 -7 -23 -22 15 -22 14 -125 25 -125 25 -90 7 -90 6 -60 -12
-60 -12 -37 -24 -38 -24 -22 -43 -23 -42 0 -130 0 -130 26 -56 27 -57 42 -42
42 -42 56 -26 57 -26 77 0 76 0 84 42 85 42 37 0 38 0 28 -28 28 -29 17 -54
16 -54 6 -95 6 -95 -12 -140 -12 -140 -24 -190 -25 -190 -6 -43 -6 -42 1353 2
1353 3 53 141 53 142 36 123 35 124 25 115 25 115 6 140 5 140 -11 42 -12 42
-24 29 -25 29 -28 6 -28 6 -35 -10 -34 -9 -115 -31 -115 -31 -135 -5 -135 -6
-63 17 -63 16 -45 26 -44 26 -34 40 -34 40 -12 50 -13 50 7 94 7 95 15 56 15
57 25 33 25 33 18 0 17 0 40 -34 40 -34 62 -12 62 -13 68 5 67 5 50 22 50 22
47 46 47 46 25 58 26 57 20 78 20 77 10 136 11 136 -7 208 -7 207 -7 0 -6 0
-106 -54 -105 -53 -139 -46 -139 -45 -185 -42 -185 -42 -75 -20 -75 -20 -46
-24 -46 -23 -27 -31 -26 -32 0 -59 0 -60 41 -40 40 -39 -3 -27 -3 -27 -43 -33
-43 -33 -56 -16 -56 -16 -78 4 -77 5 -56 27 -56 27 -30 37 -31 37 -15 53 -16
54 6 43 7 43 37 74 36 73 1 62 0 61 -30 44 -30 43 -65 33 -66 33 -94 20 -95
21 -265 3 -265 3 -110 -8z"/>
</g>
</svg>
