<?xml version="1.0" standalone="no"?>
<!DOCTYPE svg PUBLIC "-//W3C//DTD SVG 20010904//EN"
 "http://www.w3.org/TR/2001/REC-SVG-20010904/DTD/svg10.dtd">
<svg version="1.0" xmlns="http://www.w3.org/2000/svg"
 width="359.000000pt" height="275.000000pt" viewBox="0 0 359.000000 275.000000"
 preserveAspectRatio="xMidYMid meet">
<metadata>
Created by potrace 1.16, written by Peter Selinger 2001-2019
</metadata>
<g transform="translate(0.000000,275.000000) scale(0.100000,-0.100000)"
fill="#000000" stroke="none">
<path d="M785 2740 l-110 -7 -4 -2 -4 -1 7 -122 7 -123 24 -310 24 -310 2 -95
2 -95 -1 -40 -2 -40 -10 -15 -9 -15 -29 17 -29 17 -124 25 -124 25 -81 7 -80
6 -60 -12 -59 -12 -37 -24 -38 -24 -22 -43 -23 -42 0 -120 0 -120 26 -56 27
-57 42 -42 42 -42 56 -25 55 -26 69 0 68 0 83 42 84 41 47 0 48 0 28 -28 28
-29 17 -54 16 -54 6 -105 6 -105 -12 -140 -12 -140 -25 -195 -24 -195 -6 -28
-6 -27 1343 2 1343 3 53 141 53 142 36 123 35 124 25 115 25 115 6 130 5 130
-11 43 -12 43 -28 31 -27 30 -41 0 -42 -1 -20 -10 -20 -11 -103 -26 -103 -26
-145 -5 -145 -5 -63 16 -63 16 -45 26 -44 26 -34 40 -34 40 -13 50 -12 51 7
102 6 103 16 58 15 58 25 33 25 33 28 0 27 0 40 -34 40 -34 62 -12 63 -13 58
6 58 5 49 21 49 22 47 46 47 46 25 58 26 57 20 78 20 77 10 131 10 131 -6 201
-7 201 -102 -52 -102 -52 -139 -46 -139 -45 -185 -42 -185 -42 -75 -20 -75
-20 -46 -24 -46 -23 -27 -31 -26 -32 0 -49 0 -50 41 -40 40 -39 -3 -37 -3 -37
-43 -33 -43 -33 -56 -16 -56 -16 -87 4 -87 4 -56 28 -57 27 -30 37 -31 37 -16
54 -15 54 6 51 6 50 37 76 37 75 0 52 0 52 -29 43 -30 43 -65 33 -66 33 -94
20 -95 21 -255 3 -255 3 -110 -8z"/>
</g>
</svg>
