<?xml version="1.0" standalone="no"?>
<!DOCTYPE svg PUBLIC "-//W3C//DTD SVG 20010904//EN"
 "http://www.w3.org/TR/2001/REC-SVG-20010904/DTD/svg10.dtd">
<svg version="1.0" xmlns="http://www.w3.org/2000/svg"
 width="350.000000pt" height="277.000000pt" viewBox="0 0 350.000000 277.000000"
 preserveAspectRatio="xMidYMid meet">
<metadata>
Created by potrace 1.16, written by Peter Selinger 2001-2019
</metadata>
<g transform="translate(0.000000,277.000000) scale(0.100000,-0.100000)"
fill="#000000" stroke="none">
<path d="M1400 2759 l-145 -8 -229 -10 -229 -10 -3 -4 -4 -3 10 -175 9 -174
11 -226 12 -226 -11 -109 -11 -109 -23 -45 -22 -45 -33 -3 -34 -3 -71 35 -72
35 -63 12 -63 12 -67 -6 -67 -5 -53 -21 -52 -21 -42 -27 -43 -28 -13 -15 -13
-15 -29 -50 -30 -50 -10 -51 -11 -51 10 -64 11 -64 31 -63 30 -62 37 -25 37
-25 37 0 38 0 39 35 38 35 50 11 50 12 39 -19 39 -19 27 -50 27 -50 26 -110
25 -110 34 -200 35 -200 35 -125 35 -125 29 -70 29 -70 1347 -3 1348 -2 -6 27
-6 28 -10 315 -10 315 -11 77 -10 77 -14 48 -14 48 -30 35 -29 35 -58 0 -59 0
-66 -32 -66 -32 -59 -10 -59 -9 -59 9 -59 10 -54 25 -53 26 -48 46 -48 47 -32
65 -32 65 -12 78 -12 77 12 86 11 85 21 37 21 37 33 23 32 22 56 10 56 11 99
-15 98 -15 90 -27 90 -27 40 -6 40 -7 41 8 41 9 33 32 33 32 23 51 23 52 16
83 16 84 6 165 6 165 -12 230 -12 229 -4 4 -3 4 -89 -11 -88 -11 -245 -10
-245 -10 -114 -11 -115 -11 -62 -19 -61 -19 -26 -21 -27 -20 -11 -37 -11 -37
27 -75 27 -75 20 -80 20 -80 -5 -66 -4 -67 -22 -45 -22 -46 -32 -30 -31 -31
-44 -21 -44 -22 -74 -10 -74 -11 -80 12 -81 11 -42 19 -42 19 -33 28 -33 28
-18 36 -19 36 -11 53 -11 53 0 58 0 59 20 116 20 115 20 58 21 58 11 33 11 32
-13 25 -14 26 -50 14 -51 14 -90 4 -90 5 -145 -9z"/>
</g>
</svg>
