<?xml version="1.0" standalone="no"?>
<!DOCTYPE svg PUBLIC "-//W3C//DTD SVG 20010904//EN"
 "http://www.w3.org/TR/2001/REC-SVG-20010904/DTD/svg10.dtd">
<svg version="1.0" xmlns="http://www.w3.org/2000/svg"
 width="352.000000pt" height="279.000000pt" viewBox="0 0 352.000000 279.000000"
 preserveAspectRatio="xMidYMid meet">
<metadata>
Created by potrace 1.16, written by Peter Selinger 2001-2019
</metadata>
<g transform="translate(0.000000,279.000000) scale(0.100000,-0.100000)"
fill="#000000" stroke="none">
<path d="M1400 2779 l-145 -8 -229 -10 -229 -10 -4 -4 -4 -4 10 -189 10 -189
11 -215 11 -215 -10 -105 -11 -105 -23 -45 -22 -45 -23 -3 -24 -4 -71 35 -72
36 -63 12 -63 12 -77 -6 -77 -5 -52 -21 -53 -21 -42 -27 -43 -28 -17 -20 -18
-20 -29 -60 -30 -60 -6 -45 -6 -45 10 -65 11 -65 31 -63 30 -62 37 -25 37 -25
47 0 48 0 38 34 37 34 43 12 43 11 37 -18 37 -18 27 -50 27 -50 26 -110 25
-110 34 -200 35 -200 35 -125 35 -125 29 -70 29 -70 1357 -3 1358 -2 -5 37 -6
38 -11 315 -10 315 -11 77 -10 77 -14 48 -14 48 -30 35 -29 35 -68 0 -69 0
-66 -32 -67 -32 -53 -9 -54 -8 -53 8 -53 8 -55 26 -54 26 -48 46 -48 47 -32
65 -32 65 -11 73 -12 73 11 80 12 81 20 37 21 36 32 23 33 22 51 9 52 10 93
-14 93 -14 90 -27 90 -27 45 -7 45 -8 46 9 46 10 33 32 33 32 23 51 23 52 16
83 16 84 6 175 5 175 -11 230 -12 229 -4 4 -5 5 -102 -12 -103 -12 -240 -9
-240 -10 -114 -11 -115 -11 -65 -20 -64 -20 -28 -27 -28 -28 -7 -37 -6 -37 27
-77 27 -77 20 -75 19 -75 -4 -62 -5 -62 -21 -45 -22 -45 -32 -30 -31 -31 -43
-21 -43 -21 -70 -11 -70 -11 -76 12 -76 12 -42 18 -41 19 -33 28 -33 28 -18
36 -19 36 -12 63 -13 63 6 75 7 75 20 101 21 101 24 58 25 58 0 28 -1 28 -13
18 -14 18 -44 14 -44 13 -104 5 -105 5 -145 -9z"/>
</g>
</svg>
