<?xml version="1.0" standalone="no"?>
<!DOCTYPE svg PUBLIC "-//W3C//DTD SVG 20010904//EN"
 "http://www.w3.org/TR/2001/REC-SVG-20010904/DTD/svg10.dtd">
<svg version="1.0" xmlns="http://www.w3.org/2000/svg"
 width="377.000000pt" height="279.000000pt" viewBox="0 0 377.000000 279.000000"
 preserveAspectRatio="xMidYMid meet">
<metadata>
Created by potrace 1.16, written by Peter Selinger 2001-2019
</metadata>
<g transform="translate(0.000000,279.000000) scale(0.100000,-0.100000)"
fill="#000000" stroke="none">
<path d="M557 2775 l-289 -13 -9 -9 -9 -9 -15 -355 -14 -354 9 -86 8 -86 15
-36 15 -35 26 -17 26 -17 63 4 64 4 54 28 54 28 40 21 39 21 52 0 51 0 66 -32
66 -33 46 -51 47 -52 23 -46 23 -46 16 -54 15 -55 6 -56 7 -56 -12 -57 -12
-56 -32 -43 -32 -42 -47 -32 -47 -31 -69 -16 -70 -16 -89 0 -90 0 -112 19
-112 20 -90 26 -90 27 -35 -7 -36 -7 -28 -29 -28 -30 -12 -57 -12 -57 6 -115
5 -115 27 -128 26 -128 40 -127 41 -127 49 -125 50 -125 1351 3 1352 2 4 5 4
4 -25 98 -26 98 -20 100 -20 100 -11 85 -12 85 0 110 -1 110 12 44 12 43 22
34 22 33 29 13 30 12 75 -28 76 -28 50 -14 50 -14 61 -6 61 -6 69 11 69 12 62
30 61 29 51 55 50 55 24 53 25 52 12 55 12 55 -4 165 -4 165 -22 50 -23 50
-20 22 -21 21 -51 24 -52 23 -175 -1 -175 -1 -145 -26 -145 -26 -17 -22 -18
-21 -6 17 -7 17 28 302 27 301 5 203 6 202 -7 0 -7 0 -61 -21 -62 -20 -90 -19
-91 -19 -205 -26 -205 -26 -66 -14 -67 -13 -51 -23 -52 -22 -19 -24 -19 -25
-7 -34 -6 -35 12 -44 13 -45 19 0 19 0 15 -37 16 -37 -11 -53 -10 -54 -33 -66
-33 -67 -59 -63 -58 -63 -66 -32 -67 -33 -100 1 -100 0 -57 23 -58 22 -54 53
-55 53 -22 49 -22 49 -5 92 -4 92 17 72 18 72 28 74 29 74 0 54 0 53 -25 31
-26 30 -48 16 -49 16 -89 9 -88 10 -70 -2 -70 -1 -288 -12z"/>
</g>
</svg>
