<?xml version="1.0" standalone="no"?>
<!DOCTYPE svg PUBLIC "-//W3C//DTD SVG 20010904//EN"
 "http://www.w3.org/TR/2001/REC-SVG-20010904/DTD/svg10.dtd">
<svg version="1.0" xmlns="http://www.w3.org/2000/svg"
 width="375.000000pt" height="277.000000pt" viewBox="0 0 375.000000 277.000000"
 preserveAspectRatio="xMidYMid meet">
<metadata>
Created by potrace 1.16, written by Peter Selinger 2001-2019
</metadata>
<g transform="translate(0.000000,277.000000) scale(0.100000,-0.100000)"
fill="#000000" stroke="none">
<path d="M557 2755 l-289 -13 -9 -9 -9 -9 -14 -350 -15 -349 9 -81 8 -81 15
-36 15 -35 26 -17 26 -17 54 4 54 4 54 28 53 28 40 22 40 21 60 0 60 0 67 -33
67 -33 46 -51 47 -52 23 -46 23 -45 15 -52 16 -52 6 -69 7 -68 -12 -57 -12
-57 -32 -43 -32 -42 -47 -32 -47 -31 -69 -16 -70 -16 -99 0 -98 0 -95 16 -94
15 -111 31 -112 31 -38 -19 -38 -19 -20 -40 -21 -40 1 -140 1 -140 27 -128 27
-128 40 -127 41 -127 49 -125 50 -125 1341 3 1342 2 3 4 4 3 -10 25 -9 24 -30
135 -30 134 -17 110 -17 110 0 125 -1 125 12 44 12 43 22 34 22 33 23 11 23
10 27 0 27 -1 75 -29 75 -30 83 -17 83 -16 77 11 77 12 62 30 61 30 51 55 50
55 24 53 25 52 12 55 12 56 -4 154 -4 155 -22 50 -23 50 -20 22 -21 21 -51 24
-52 23 -165 -1 -165 -1 -145 -26 -145 -26 -17 -22 -18 -21 -15 6 -15 5 0 43 0
43 25 270 26 270 6 201 6 202 -58 -20 -58 -19 -91 -19 -91 -19 -205 -26 -205
-26 -67 -14 -67 -14 -48 -21 -47 -21 -18 -16 -17 -15 -12 -35 -11 -35 12 -44
13 -44 19 0 19 0 16 -37 16 -38 -10 -61 -11 -61 -33 -69 -34 -68 -59 -63 -58
-63 -66 -32 -67 -33 -110 1 -110 0 -57 23 -58 22 -54 53 -55 53 -22 49 -22 49
-5 102 -4 103 17 71 18 72 28 74 29 74 0 44 0 43 -25 31 -26 30 -48 16 -49 16
-89 9 -88 10 -60 -2 -60 -1 -288 -12z"/>
</g>
</svg>
