<?xml version="1.0" standalone="no"?>
<!DOCTYPE svg PUBLIC "-//W3C//DTD SVG 20010904//EN"
 "http://www.w3.org/TR/2001/REC-SVG-20010904/DTD/svg10.dtd">
<svg version="1.0" xmlns="http://www.w3.org/2000/svg"
 width="428.000000pt" height="275.000000pt" viewBox="0 0 428.000000 275.000000"
 preserveAspectRatio="xMidYMid meet">
<metadata>
Created by potrace 1.16, written by Peter Selinger 2001-2019
</metadata>
<g transform="translate(0.000000,275.000000) scale(0.100000,-0.100000)"
fill="#000000" stroke="none">
<path d="M1058 2741 l-137 -7 -6 -6 -6 -5 12 -229 12 -229 -6 -165 -6 -165
-16 -84 -16 -83 -23 -52 -23 -51 -33 -32 -33 -32 -41 -9 -41 -8 -40 7 -40 6
-90 27 -90 27 -98 15 -99 15 -56 -11 -56 -10 -32 -22 -33 -23 -21 -37 -21 -37
-11 -85 -12 -86 12 -77 12 -78 32 -65 32 -65 48 -47 48 -46 53 -26 54 -25 59
-9 59 -10 59 9 58 10 67 32 66 32 59 0 58 0 29 -35 30 -35 14 -48 14 -48 10
-77 11 -77 10 -315 10 -315 6 -27 6 -28 1339 0 1339 0 0 6 0 6 -35 80 -36 81
-35 116 -35 116 -20 113 -19 114 0 82 0 82 15 51 15 51 31 26 31 26 22 0 23 0
32 -11 33 -12 25 -23 25 -23 52 -11 53 -11 69 11 69 10 84 42 83 42 57 55 58
56 31 56 32 56 16 64 16 64 -5 71 -5 71 -25 49 -25 49 -34 31 -33 31 -31 21
-32 22 -58 15 -58 15 -51 0 -51 0 -59 -15 -60 -15 -62 -32 -63 -31 -15 13 -15
13 -18 56 -17 56 1 255 1 255 17 233 17 232 -7 11 -7 11 -65 -6 -66 -7 -355
-9 -356 -10 -75 -14 -75 -14 -36 -16 -37 -15 -26 -31 -26 -32 0 -38 0 -39 12
-26 11 -25 9 0 8 0 20 -32 20 -33 0 -70 0 -71 -15 -58 -16 -59 -35 -68 -35
-67 -30 -33 -29 -32 -42 -29 -43 -28 -110 0 -110 0 -65 10 -65 11 -49 16 -48
15 -43 43 -43 42 -7 46 -7 45 11 52 11 52 24 62 24 61 11 40 11 40 0 60 0 60
-19 41 -19 41 -28 27 -29 27 -45 23 -45 24 -75 16 -75 17 -160 4 -160 3 -137
-7z"/>
</g>
</svg>
