<?xml version="1.0" standalone="no"?>
<!DOCTYPE svg PUBLIC "-//W3C//DTD SVG 20010904//EN"
 "http://www.w3.org/TR/2001/REC-SVG-20010904/DTD/svg10.dtd">
<svg version="1.0" xmlns="http://www.w3.org/2000/svg"
 width="430.000000pt" height="277.000000pt" viewBox="0 0 430.000000 277.000000"
 preserveAspectRatio="xMidYMid meet">
<metadata>
Created by potrace 1.16, written by Peter Selinger 2001-2019
</metadata>
<g transform="translate(0.000000,277.000000) scale(0.100000,-0.100000)"
fill="#000000" stroke="none">
<path d="M1058 2761 l-137 -7 -6 -6 -6 -6 12 -244 12 -243 -6 -150 -6 -150
-16 -84 -16 -83 -23 -52 -23 -51 -33 -32 -34 -33 -33 -6 -33 -6 -37 4 -38 5
-90 27 -90 27 -103 15 -104 16 -60 -11 -61 -11 -33 -22 -33 -23 -21 -37 -21
-38 -12 -90 -11 -90 12 -83 12 -82 32 -65 32 -65 48 -47 48 -46 53 -26 54 -25
64 -10 64 -11 64 11 64 10 66 32 66 31 49 1 48 0 29 -35 30 -35 14 -48 14 -48
10 -77 11 -77 10 -315 10 -315 6 -27 6 -28 1349 0 1349 0 0 15 0 15 -40 93
-39 92 -35 120 -34 120 -17 109 -17 110 4 81 4 80 20 40 19 39 27 20 27 19 41
-12 40 -12 26 -24 26 -24 55 -11 56 -12 76 11 76 11 84 42 83 42 57 55 58 56
31 56 32 56 16 64 16 64 -5 80 -5 81 -25 49 -25 50 -34 31 -33 31 -31 21 -32
22 -58 15 -58 15 -61 0 -61 0 -59 -15 -60 -15 -58 -29 -57 -30 -14 22 -14 22
-14 45 -13 45 1 240 0 240 18 243 18 243 -6 16 -6 16 -83 -7 -82 -7 -350 -9
-350 -10 -75 -14 -75 -14 -36 -16 -37 -15 -26 -31 -26 -32 0 -48 0 -49 12 -26
11 -25 9 0 8 0 20 -32 20 -33 0 -60 0 -61 -15 -58 -16 -59 -35 -68 -35 -67
-30 -33 -29 -32 -42 -29 -43 -28 -100 0 -100 0 -65 10 -65 11 -49 16 -48 15
-43 42 -43 43 -6 39 -7 40 11 49 11 49 24 61 23 60 11 40 11 40 0 70 0 70 -19
41 -19 41 -28 27 -29 27 -45 23 -45 24 -75 17 -75 17 -170 3 -170 3 -137 -7z"/>
</g>
</svg>
