<?xml version="1.0" standalone="no"?>
<!DOCTYPE svg PUBLIC "-//W3C//DTD SVG 20010904//EN"
 "http://www.w3.org/TR/2001/REC-SVG-20010904/DTD/svg10.dtd">
<svg version="1.0" xmlns="http://www.w3.org/2000/svg"
 width="369.000000pt" height="277.000000pt" viewBox="0 0 369.000000 277.000000"
 preserveAspectRatio="xMidYMid meet">
<metadata>
Created by potrace 1.16, written by Peter Selinger 2001-2019
</metadata>
<g transform="translate(0.000000,277.000000) scale(0.100000,-0.100000)"
fill="#000000" stroke="none">
<path d="M2075 2760 l-90 -8 -45 -12 -45 -12 -28 -15 -28 -14 -19 -32 -20 -32
0 -30 0 -30 34 -100 34 -100 12 -79 12 -80 -6 -40 -7 -41 -15 -48 -16 -48 -39
-40 -40 -40 -57 -27 -57 -27 -140 0 -140 0 -60 18 -59 19 -39 39 -40 39 6 40
5 40 31 48 30 48 17 94 16 95 -6 60 -5 60 -11 37 -11 37 -32 43 -33 43 -64 33
-65 33 -90 15 -90 16 -337 -4 -336 -3 -5 -5 -5 -5 -17 -235 -16 -235 -6 -210
-6 -210 12 -89 11 -89 17 -36 18 -36 19 -3 18 -4 62 31 61 31 60 15 59 15 41
0 41 0 58 -15 58 -15 32 -22 31 -21 33 -31 34 -31 24 -48 25 -48 6 -62 5 -62
-16 -64 -16 -64 -32 -56 -31 -56 -58 -56 -57 -55 -83 -42 -84 -42 -64 -10 -63
-9 -48 10 -49 10 -24 23 -25 23 -33 12 -32 11 -33 0 -32 0 -31 -26 -31 -26
-15 -51 -15 -51 0 -92 0 -92 20 -114 19 -113 31 -105 31 -105 42 -97 41 -98
1348 0 1348 0 0 10 0 10 -40 96 -40 96 -49 152 -49 152 -28 129 -27 130 -1
130 -1 130 21 40 20 40 35 17 36 18 84 -25 84 -25 114 -20 114 -20 109 0 109
0 70 16 69 16 47 31 47 32 32 42 32 43 12 57 12 58 -6 76 -6 76 -16 54 -16 54
-23 45 -23 46 -47 52 -46 51 -67 33 -67 33 -70 0 -70 0 -40 -21 -40 -22 -52
-27 -53 -27 -45 -5 -45 -6 -26 17 -26 18 -15 35 -15 36 -8 81 -8 81 14 325 13
325 1 31 0 31 -217 7 -218 6 -145 4 -145 4 -90 -8z"/>
</g>
</svg>
