<?xml version="1.0" standalone="no"?>
<!DOCTYPE svg PUBLIC "-//W3C//DTD SVG 20010904//EN"
 "http://www.w3.org/TR/2001/REC-SVG-20010904/DTD/svg10.dtd">
<svg version="1.0" xmlns="http://www.w3.org/2000/svg"
 width="367.000000pt" height="275.000000pt" viewBox="0 0 367.000000 275.000000"
 preserveAspectRatio="xMidYMid meet">
<metadata>
Created by potrace 1.16, written by Peter Selinger 2001-2019
</metadata>
<g transform="translate(0.000000,275.000000) scale(0.100000,-0.100000)"
fill="#000000" stroke="none">
<path d="M2074 2740 l-91 -8 -58 -17 -58 -16 -28 -28 -28 -28 -7 -28 -7 -28
37 -111 36 -111 11 -75 11 -74 -6 -51 -6 -50 -16 -49 -16 -48 -39 -40 -40 -39
-57 -27 -57 -27 -150 0 -150 0 -60 18 -59 19 -39 39 -40 39 5 49 5 49 31 49
32 49 16 100 17 99 -12 70 -12 69 -25 44 -25 43 -41 29 -40 29 -52 20 -52 19
-81 12 -82 12 -319 -3 -320 -4 -5 -5 -5 -5 -18 -245 -18 -245 0 -250 -1 -250
17 -56 18 -56 15 -13 15 -13 63 31 62 32 60 15 59 15 51 0 51 0 58 -15 58 -15
32 -22 31 -21 33 -31 34 -31 25 -49 25 -49 5 -71 5 -71 -16 -64 -16 -64 -32
-56 -31 -56 -58 -56 -57 -55 -83 -42 -84 -42 -69 -10 -69 -11 -53 11 -52 11
-25 23 -25 23 -33 12 -32 11 -23 0 -22 0 -31 -26 -31 -26 -15 -51 -15 -51 0
-82 0 -82 20 -114 19 -113 31 -105 31 -105 42 -97 41 -98 1338 0 1338 0 -16
37 -16 38 -28 70 -28 70 -45 141 -45 141 -28 129 -27 129 -1 140 -1 140 21 40
20 40 38 19 38 19 112 -31 111 -31 94 -15 95 -16 98 0 99 0 70 16 69 16 47 31
47 32 32 42 32 43 12 57 12 57 -7 68 -6 69 -16 52 -15 52 -23 45 -23 46 -47
52 -46 51 -67 33 -67 33 -60 0 -60 0 -40 -21 -40 -22 -53 -28 -54 -28 -54 -4
-54 -4 -26 17 -26 17 -15 35 -15 36 -8 83 -9 84 14 337 15 338 0 16 0 16 -222
7 -223 6 -130 4 -130 4 -91 -8z"/>
</g>
</svg>
