<?xml version="1.0" standalone="no"?>
<!DOCTYPE svg PUBLIC "-//W3C//DTD SVG 20010904//EN"
 "http://www.w3.org/TR/2001/REC-SVG-20010904/DTD/svg10.dtd">
<svg version="1.0" xmlns="http://www.w3.org/2000/svg"
 width="440.000000pt" height="280.000000pt" viewBox="0 0 440.000000 280.000000"
 preserveAspectRatio="xMidYMid meet">
<metadata>
Created by potrace 1.16, written by Peter Selinger 2001-2019
</metadata>
<g transform="translate(0.000000,280.000000) scale(0.100000,-0.100000)"
fill="#000000" stroke="none">
<path d="M795 2568 l7 -233 -11 -112 -11 -111 -20 -79 -20 -78 -25 -51 -25
-51 -41 -47 -41 -46 -65 -32 -65 -31 -87 0 -86 1 -41 11 -41 11 -26 30 -27 30
-33 0 -34 0 -20 -22 -21 -23 -16 -32 -16 -32 -15 -63 -15 -63 0 -101 0 -100
25 -51 26 -51 44 -41 43 -40 49 -24 48 -25 54 -16 55 -16 72 0 73 0 48 16 48
16 25 18 25 18 41 11 41 11 31 -11 31 -11 25 -41 24 -42 12 -63 13 -62 -5
-197 -6 -198 -27 -253 -27 -254 7 -6 6 -7 292 -12 292 -12 110 5 110 6 86 14
86 14 44 18 44 19 29 29 28 29 9 23 9 23 0 43 0 43 -12 34 -12 34 -27 26 -27
26 -7 36 -7 36 25 53 24 54 32 36 32 37 61 31 61 30 71 0 71 0 50 -14 50 -13
44 -23 45 -22 -19 -14 -19 -14 -11 0 -12 0 -11 -25 -12 -26 0 -50 0 -50 14
-27 14 -27 54 -32 53 -32 75 -20 75 -20 170 -36 170 -36 110 -31 110 -30 73
-29 73 -29 59 -30 59 -30 31 0 31 0 -5 53 -6 52 -21 240 -22 240 -1 185 -1
185 19 60 18 60 19 26 19 27 28 10 29 10 81 -28 81 -28 83 -17 83 -17 120 5
120 4 48 19 48 19 47 35 47 36 29 57 29 57 0 82 0 83 -16 55 -16 55 -45 62
-46 62 -51 40 -50 41 -62 29 -62 30 -75 21 -75 21 -120 6 -120 5 -71 -15 -72
-15 -41 -20 -41 -20 0 51 0 52 25 255 24 255 11 144 10 144 6 24 6 23 -1362 0
-1361 0 6 -232z"/>
</g>
</svg>
