<?xml version="1.0" standalone="no"?>
<!DOCTYPE svg PUBLIC "-//W3C//DTD SVG 20010904//EN"
 "http://www.w3.org/TR/2001/REC-SVG-20010904/DTD/svg10.dtd">
<svg version="1.0" xmlns="http://www.w3.org/2000/svg"
 width="438.000000pt" height="278.000000pt" viewBox="0 0 438.000000 278.000000"
 preserveAspectRatio="xMidYMid meet">
<metadata>
Created by potrace 1.16, written by Peter Selinger 2001-2019
</metadata>
<g transform="translate(0.000000,278.000000) scale(0.100000,-0.100000)"
fill="#000000" stroke="none">
<path d="M796 2548 l6 -233 -11 -112 -11 -111 -20 -79 -20 -78 -25 -51 -25
-51 -41 -47 -41 -46 -66 -32 -66 -32 -95 1 -96 0 -41 12 -41 11 -26 30 -27 30
-23 0 -24 0 -20 -22 -21 -23 -16 -32 -16 -32 -15 -63 -15 -63 0 -91 0 -90 25
-51 26 -51 44 -41 43 -40 49 -24 48 -25 54 -16 55 -16 62 0 63 0 48 16 48 16
26 19 25 18 47 11 46 12 35 -12 35 -11 24 -42 25 -42 11 -55 12 -55 0 -158 -1
-158 -10 -112 -10 -112 -20 -189 -20 -189 6 -6 5 -6 297 -12 297 -12 130 9
130 9 55 12 54 12 41 17 40 17 29 29 28 29 9 23 9 23 0 31 0 31 -12 39 -12 39
-19 10 -19 11 -14 33 -14 34 0 29 0 29 30 61 31 61 36 32 37 32 50 23 51 24
80 0 80 0 50 -14 50 -13 43 -22 42 -21 0 -16 0 -16 -29 -11 -30 -11 -10 -23
-11 -24 0 -40 0 -40 14 -27 14 -27 54 -32 53 -32 75 -20 75 -20 170 -36 170
-36 110 -31 110 -30 73 -29 73 -29 58 -30 58 -29 21 2 22 1 -5 36 -5 35 -22
250 -21 250 -1 190 -1 190 19 60 18 60 19 27 19 27 34 11 34 11 85 -30 86 -29
83 -17 83 -17 110 5 110 5 48 18 48 19 47 35 47 36 28 56 29 56 0 75 0 74 -15
54 -16 54 -45 62 -46 62 -51 40 -50 41 -62 29 -62 30 -80 23 -80 22 -140 0
-140 0 -65 -23 -65 -23 -22 -21 -23 -20 0 74 0 74 25 255 24 255 11 149 11
150 5 8 5 8 -1351 0 -1351 0 7 -232z"/>
</g>
</svg>
