<?xml version="1.0" standalone="no"?>
<!DOCTYPE svg PUBLIC "-//W3C//DTD SVG 20010904//EN"
 "http://www.w3.org/TR/2001/REC-SVG-20010904/DTD/svg10.dtd">
<svg version="1.0" xmlns="http://www.w3.org/2000/svg"
 width="344.000000pt" height="386.000000pt" viewBox="0 0 344.000000 386.000000"
 preserveAspectRatio="xMidYMid meet">
<metadata>
Created by potrace 1.16, written by Peter Selinger 2001-2019
</metadata>
<g transform="translate(0.000000,386.000000) scale(0.100000,-0.100000)"
fill="#000000" stroke="none">
<path d="M1915 3854 l-20 -5 -45 -11 -45 -11 -58 -29 -59 -29 -45 -42 -46 -42
-23 -50 -24 -50 0 -41 0 -41 25 -34 25 -34 15 -32 15 -32 6 -54 6 -54 -16 -57
-17 -57 -36 -39 -35 -40 -62 -29 -61 -29 -75 -15 -75 -15 -100 -7 -100 -6
-189 10 -190 11 -4 -5 -5 -5 -1 -282 -1 -283 -19 -75 -18 -75 -28 -62 -28 -61
-41 -45 -41 -45 -52 -22 -51 -22 -52 -5 -53 -6 -66 13 -66 12 0 9 0 8 -24 26
-25 27 -23 -4 -23 -3 -17 -35 -17 -35 -12 -75 -13 -75 0 -200 -1 -200 22 -62
21 -63 32 -50 32 -49 47 -34 47 -34 38 -13 39 -12 76 4 76 5 72 36 73 37 28 0
28 0 22 -16 22 -15 20 -38 19 -39 11 -63 10 -64 0 -75 0 -75 -10 -115 -11
-115 -20 -160 -20 -160 -5 -32 -6 -32 39 -10 38 -9 215 -13 215 -12 170 6 170
6 65 16 65 16 42 25 43 25 10 19 10 19 0 40 0 39 -21 49 -20 48 -20 80 -19 80
0 60 0 60 19 40 18 40 36 32 37 32 52 16 53 17 85 5 85 5 46 -30 45 -29 39
-59 40 -59 33 -88 33 -87 14 -95 14 -95 -11 -61 -10 -60 -24 -28 -23 -28 -11
-27 -10 -27 0 -51 0 -50 33 -33 32 -32 53 -12 53 -11 87 0 87 0 100 15 100 15
125 30 125 31 183 61 182 61 0 18 0 19 -31 50 -31 51 -34 79 -33 79 -30 103
-31 103 -35 165 -36 165 -16 60 -16 60 -18 42 -18 43 -31 30 -30 30 -26 6 -25
6 -45 -5 -44 -5 -54 -37 -55 -37 -27 0 -28 0 -36 39 -37 39 -21 56 -21 55 -11
84 -12 83 7 60 7 60 19 53 18 54 22 32 22 32 31 33 31 34 48 24 47 24 63 17
62 16 90 -6 90 -6 75 -21 75 -21 43 -22 42 -21 27 10 27 9 13 45 14 45 0 175
0 175 -21 290 -21 290 -17 13 -16 12 -106 34 -105 34 -105 21 -105 21 -165 25
-165 25 -80 16 -80 16 -50 20 -49 19 -33 34 -33 34 0 43 0 43 21 45 21 45 19
54 19 54 0 53 0 53 -11 28 -10 28 -32 33 -31 32 -55 21 -56 22 -115 3 -115 3
-20 -5z"/>
</g>
</svg>
