<?xml version="1.0" standalone="no"?>
<!DOCTYPE svg PUBLIC "-//W3C//DTD SVG 20010904//EN"
 "http://www.w3.org/TR/2001/REC-SVG-20010904/DTD/svg10.dtd">
<svg version="1.0" xmlns="http://www.w3.org/2000/svg"
 width="342.000000pt" height="384.000000pt" viewBox="0 0 342.000000 384.000000"
 preserveAspectRatio="xMidYMid meet">
<metadata>
Created by potrace 1.16, written by Peter Selinger 2001-2019
</metadata>
<g transform="translate(0.000000,384.000000) scale(0.100000,-0.100000)"
fill="#000000" stroke="none">
<path d="M1915 3834 l-20 -5 -45 -11 -45 -11 -58 -29 -59 -29 -45 -42 -46 -42
-23 -50 -24 -50 0 -31 0 -31 25 -34 25 -34 15 -33 16 -33 6 -63 6 -62 -17 -57
-17 -58 -36 -39 -35 -40 -62 -29 -61 -29 -75 -16 -75 -15 -115 -6 -115 -6
-175 10 -175 10 -3 -4 -4 -4 -2 -283 -1 -283 -19 -75 -18 -75 -28 -62 -28 -61
-41 -45 -41 -45 -53 -22 -52 -23 -62 -5 -61 -5 -66 13 -66 12 0 9 0 8 -26 28
-25 27 -17 -10 -17 -11 -17 -50 -17 -51 -12 -133 -12 -133 6 -111 5 -110 20
-62 20 -63 32 -50 32 -49 47 -34 47 -34 38 -13 39 -12 66 4 66 5 72 37 73 36
38 0 38 0 22 -16 22 -15 20 -38 19 -39 11 -63 10 -64 0 -85 0 -85 -10 -115
-11 -115 -20 -160 -19 -160 -5 -22 -5 -22 37 -10 38 -9 215 -13 215 -12 160 6
160 7 65 15 65 16 42 25 43 25 10 19 10 19 0 30 0 29 -21 49 -20 48 -20 80
-19 80 0 70 0 70 19 40 18 40 36 32 37 32 52 17 53 16 95 5 95 5 46 -30 45
-29 39 -59 40 -59 33 -88 33 -88 15 -100 15 -99 -12 -66 -11 -65 -24 -28 -23
-28 -11 -27 -10 -27 0 -41 0 -40 33 -33 32 -32 53 -12 53 -11 77 0 77 0 100
15 100 15 125 30 125 31 183 61 182 61 0 8 0 9 -31 50 -31 51 -34 79 -33 79
-30 103 -31 103 -35 165 -36 165 -16 60 -16 60 -18 42 -18 43 -31 30 -30 30
-26 6 -25 6 -36 -5 -35 -6 -55 -38 -54 -37 -36 0 -35 0 -38 40 -37 40 -21 56
-21 55 -11 84 -12 84 7 68 6 68 19 55 19 55 22 32 22 32 31 33 31 34 48 24 47
24 63 17 62 16 100 -6 100 -5 88 -26 88 -26 25 -17 25 -16 23 11 23 10 12 47
12 46 0 165 -1 164 -20 287 -21 288 -17 13 -16 12 -106 34 -105 34 -105 21
-105 21 -165 25 -165 25 -80 16 -80 16 -47 19 -48 19 -30 26 -30 27 -9 34 -10
34 14 47 13 47 27 65 28 65 5 42 4 42 -6 36 -7 36 -35 39 -36 39 -56 22 -57
22 -105 3 -105 3 -20 -5z"/>
</g>
</svg>
