<?xml version="1.0" standalone="no"?>
<!DOCTYPE svg PUBLIC "-//W3C//DTD SVG 20010904//EN"
 "http://www.w3.org/TR/2001/REC-SVG-20010904/DTD/svg10.dtd">
<svg version="1.0" xmlns="http://www.w3.org/2000/svg"
 width="277.000000pt" height="413.000000pt" viewBox="0 0 277.000000 413.000000"
 preserveAspectRatio="xMidYMid meet">
<metadata>
Created by potrace 1.16, written by Peter Selinger 2001-2019
</metadata>
<g transform="translate(0.000000,413.000000) scale(0.100000,-0.100000)"
fill="#000000" stroke="none">
<path d="M1073 4120 l-33 -7 -15 -13 -15 -12 0 -20 0 -19 11 -22 11 -22 23
-25 23 -25 16 -72 16 -72 0 -78 0 -78 -19 -40 -18 -40 -36 -32 -37 -32 -67
-21 -68 -21 -115 -8 -115 -8 -308 8 -309 9 -9 -6 -9 -5 0 -1383 0 -1382 87 3
88 3 275 10 275 10 84 -10 84 -9 36 -12 36 -12 23 -15 23 -15 15 -28 14 -28 0
-39 0 -38 -16 -55 -16 -54 -17 -25 -18 -25 -16 -43 -17 -42 0 -43 0 -43 22
-43 23 -44 55 -33 55 -34 70 -15 70 -15 100 0 100 0 45 21 45 20 38 40 38 40
22 47 21 47 4 97 4 97 -17 77 -17 77 -24 64 -24 63 0 34 0 34 34 30 34 30 52
11 51 11 99 0 99 0 114 -15 113 -15 125 -25 124 -25 137 -32 138 -31 6 6 6 6
19 143 19 143 15 154 15 154 0 96 0 96 -10 64 -11 63 -19 39 -20 38 -22 15
-22 16 -48 0 -48 0 -72 -36 -72 -36 -57 -5 -56 -6 -38 13 -39 13 -47 34 -47
34 -32 49 -32 50 -20 63 -20 62 -5 100 -6 101 12 131 12 132 13 46 14 46 12
15 13 14 23 -25 24 -26 0 -9 0 -8 69 -13 69 -12 68 5 69 5 52 23 53 22 41 45
41 45 28 61 28 62 18 80 19 80 0 282 0 281 -7 7 -7 7 -168 -55 -168 -55 -115
-25 -115 -25 -99 -13 -98 -12 -72 6 -72 5 -37 16 -37 15 -25 25 -25 25 0 34 0
34 11 31 10 30 15 6 15 6 14 35 15 34 0 70 0 69 -21 68 -21 69 -20 40 -21 40
-31 45 -31 44 -25 23 -25 23 -59 30 -59 30 -161 -1 -161 -1 -32 -8z"/>
</g>
</svg>
