<?xml version="1.0" standalone="no"?>
<!DOCTYPE svg PUBLIC "-//W3C//DTD SVG 20010904//EN"
 "http://www.w3.org/TR/2001/REC-SVG-20010904/DTD/svg10.dtd">
<svg version="1.0" xmlns="http://www.w3.org/2000/svg"
 width="275.000000pt" height="411.000000pt" viewBox="0 0 275.000000 411.000000"
 preserveAspectRatio="xMidYMid meet">
<metadata>
Created by potrace 1.16, written by Peter Selinger 2001-2019
</metadata>
<g transform="translate(0.000000,411.000000) scale(0.100000,-0.100000)"
fill="#000000" stroke="none">
<path d="M1071 4100 l-33 -8 -15 -15 -15 -15 7 -22 7 -21 28 -32 27 -32 17
-72 16 -72 0 -88 0 -88 -19 -40 -18 -40 -36 -32 -37 -32 -67 -21 -68 -21 -120
-9 -120 -8 -304 9 -304 9 -8 -6 -9 -5 0 -1372 0 -1372 207 7 208 8 210 2 210
2 63 -17 62 -17 26 -16 25 -17 15 -28 14 -28 0 -49 0 -48 -16 -55 -16 -54 -17
-25 -18 -25 -16 -43 -17 -42 0 -33 0 -33 23 -43 22 -44 55 -33 55 -34 70 -15
70 -15 90 0 90 0 45 21 45 20 38 40 38 40 21 47 22 47 4 83 5 82 -13 63 -12
62 -33 100 -33 100 5 27 5 28 33 29 33 29 52 11 51 11 109 0 109 0 116 -15
115 -15 173 -36 172 -35 79 -20 78 -20 5 5 5 5 19 143 19 143 15 154 15 154 0
86 0 86 -10 64 -11 63 -19 39 -20 38 -22 15 -22 16 -38 0 -38 0 -73 -36 -72
-37 -66 -5 -66 -4 -39 12 -38 13 -47 34 -47 34 -32 49 -32 50 -20 63 -20 62
-5 110 -6 111 12 133 12 133 17 51 17 50 17 11 17 10 25 -27 26 -28 0 -8 0 -9
66 -12 66 -13 61 5 62 5 52 23 53 22 41 45 41 45 28 61 28 62 18 80 19 80 0
272 0 271 -5 5 -5 5 -115 -40 -115 -40 -135 -34 -134 -34 -116 -16 -115 -16
-90 5 -90 4 -37 16 -38 16 -25 25 -25 25 0 44 0 44 11 31 10 30 15 6 15 6 14
35 15 34 0 60 0 59 -21 68 -21 69 -20 40 -21 40 -31 45 -31 44 -25 23 -25 23
-59 30 -59 30 -151 -1 -151 -1 -34 -8z"/>
</g>
</svg>
