<?xml version="1.0" standalone="no"?>
<!DOCTYPE svg PUBLIC "-//W3C//DTD SVG 20010904//EN"
 "http://www.w3.org/TR/2001/REC-SVG-20010904/DTD/svg10.dtd">
<svg version="1.0" xmlns="http://www.w3.org/2000/svg"
 width="355.000000pt" height="444.000000pt" viewBox="0 0 355.000000 444.000000"
 preserveAspectRatio="xMidYMid meet">
<metadata>
Created by potrace 1.16, written by Peter Selinger 2001-2019
</metadata>
<g transform="translate(0.000000,444.000000) scale(0.100000,-0.100000)"
fill="#000000" stroke="none">
<path d="M2070 4420 l-55 -18 -52 -56 -51 -55 -31 -63 -31 -63 -16 -75 -16
-75 5 -52 5 -51 21 -44 21 -43 20 -32 21 -31 6 -51 6 -51 -41 -40 -42 -39 -37
-11 -38 -10 -102 -10 -102 -10 -358 15 -357 15 -23 0 -22 0 2 -302 1 -303 -17
-80 -18 -80 -24 -52 -23 -52 -41 -44 -41 -45 -53 -22 -52 -23 -67 -5 -66 -5
-67 13 -66 12 -40 34 -41 34 -35 0 -35 0 -28 -28 -28 -29 -20 -65 -21 -65 -11
-81 -12 -82 3 -108 4 -108 32 -65 33 -65 52 -52 53 -51 38 -26 39 -25 46 -24
47 -23 65 -21 65 -21 59 -10 60 -11 70 0 71 0 40 11 40 11 39 29 40 29 38 0
39 0 24 -24 23 -23 11 -39 11 -39 0 -82 0 -81 -15 -79 -15 -78 -31 -100 -31
-99 -43 -97 -42 -98 -32 -50 -31 -51 0 -15 0 -15 88 0 87 0 325 16 325 17 103
-11 103 -12 44 -19 45 -20 11 -24 11 -25 -16 -33 -16 -34 -19 -76 -20 -76 -11
-82 -12 -81 4 -104 3 -105 30 -42 30 -42 38 -20 37 -19 105 -5 104 -6 63 13
63 12 52 25 53 24 57 52 56 52 24 50 23 50 0 35 0 36 -16 22 -15 22 -18 0 -19
0 -10 41 -11 42 9 21 8 21 28 27 29 27 38 16 37 15 63 15 62 14 199 31 199 30
86 20 86 20 88 32 87 32 0 12 0 11 -35 75 -34 75 -24 84 -25 84 -36 205 -36
205 -21 85 -20 85 -25 42 -24 42 -31 22 -30 21 -60 -4 -59 -4 -28 -22 -27 -23
-39 -18 -38 -19 -28 8 -28 8 -31 23 -31 23 -26 37 -26 38 -23 64 -24 64 -11
81 -11 82 11 38 10 39 29 37 30 37 35 29 36 28 64 25 64 26 66 12 66 11 61
-11 60 -10 70 -36 69 -35 39 0 38 0 26 26 26 26 15 46 15 47 12 65 12 65 1
220 0 220 -14 238 -13 237 -27 0 -27 0 -222 -35 -222 -34 -107 -12 -107 -12
-130 -1 -130 0 -56 17 -56 17 -26 20 -27 21 -8 32 -8 32 9 38 10 39 22 8 23 9
12 37 13 37 -6 106 -6 106 -25 92 -25 92 -30 66 -30 67 -37 49 -36 50 -39 19
-38 20 -28 0 -28 -1 -55 -19z"/>
</g>
</svg>
