<?xml version="1.0" standalone="no"?>
<!DOCTYPE svg PUBLIC "-//W3C//DTD SVG 20010904//EN"
 "http://www.w3.org/TR/2001/REC-SVG-20010904/DTD/svg10.dtd">
<svg version="1.0" xmlns="http://www.w3.org/2000/svg"
 width="353.000000pt" height="442.000000pt" viewBox="0 0 353.000000 442.000000"
 preserveAspectRatio="xMidYMid meet">
<metadata>
Created by potrace 1.16, written by Peter Selinger 2001-2019
</metadata>
<g transform="translate(0.000000,442.000000) scale(0.100000,-0.100000)"
fill="#000000" stroke="none">
<path d="M2070 4400 l-55 -18 -52 -56 -51 -55 -32 -64 -31 -63 -16 -82 -16
-82 12 -55 12 -54 26 -38 27 -38 12 -35 13 -35 1 -44 0 -44 -40 -38 -40 -38
-37 -11 -38 -10 -106 -11 -105 -10 -364 16 -365 15 -12 0 -12 0 2 -302 1 -303
-17 -80 -18 -80 -24 -52 -23 -52 -41 -44 -41 -45 -53 -22 -52 -23 -74 -5 -73
-5 -69 13 -69 12 -41 34 -41 34 -25 0 -25 0 -28 -28 -28 -29 -20 -65 -21 -65
-11 -82 -12 -81 4 -98 4 -99 32 -65 32 -64 52 -52 53 -51 38 -26 39 -25 46
-24 47 -23 65 -21 65 -21 59 -10 60 -11 60 0 61 0 40 11 40 11 34 25 33 26 36
8 36 8 32 -14 33 -13 14 -29 14 -28 7 -29 7 -30 0 -86 0 -85 -16 -80 -15 -80
-31 -100 -31 -99 -43 -97 -42 -98 -32 -50 -31 -51 0 -5 0 -5 73 0 72 0 339 17
339 17 104 -12 104 -12 44 -19 43 -19 11 -20 11 -21 0 -18 0 -18 -14 -27 -15
-28 -20 -82 -21 -83 -11 -75 -11 -74 4 -98 4 -97 29 -42 30 -42 37 -19 37 -20
95 -5 95 -6 63 13 63 12 52 25 53 24 57 52 56 52 24 50 23 50 0 25 0 26 -16
22 -15 22 -19 0 -18 0 -12 48 -11 48 9 24 10 25 28 27 29 27 38 16 37 15 63
15 62 14 198 30 198 31 92 21 92 21 80 31 80 30 3 2 2 2 -35 75 -34 75 -24 84
-25 84 -36 205 -36 205 -21 85 -20 85 -25 42 -24 42 -31 22 -30 21 -50 -4 -50
-5 -27 -22 -27 -22 -42 -20 -43 -20 -39 11 -39 10 -42 41 -42 41 -24 51 -23
52 -17 65 -17 65 -1 80 -1 80 17 31 17 31 47 46 46 46 73 30 72 30 72 12 71
12 65 -11 65 -11 70 -35 70 -36 29 0 28 0 26 26 26 26 15 46 15 47 12 65 12
65 0 210 1 210 -14 238 -13 237 -17 0 -17 0 -222 -35 -222 -34 -107 -12 -107
-13 -140 0 -140 0 -56 17 -56 17 -26 20 -26 21 -10 36 -10 37 11 44 11 44 22
8 23 9 12 37 13 38 -6 95 -6 96 -25 92 -25 92 -30 66 -30 67 -37 49 -36 50
-39 19 -38 20 -18 0 -18 -1 -55 -19z"/>
</g>
</svg>
