<?xml version="1.0" standalone="no"?>
<!DOCTYPE svg PUBLIC "-//W3C//DTD SVG 20010904//EN"
 "http://www.w3.org/TR/2001/REC-SVG-20010904/DTD/svg10.dtd">
<svg version="1.0" xmlns="http://www.w3.org/2000/svg"
 width="378.000000pt" height="289.000000pt" viewBox="0 0 378.000000 289.000000"
 preserveAspectRatio="xMidYMid meet">
<metadata>
Created by potrace 1.16, written by Peter Selinger 2001-2019
</metadata>
<g transform="translate(0.000000,289.000000) scale(0.100000,-0.100000)"
fill="#000000" stroke="none">
<path d="M2585 2880 l-51 -9 -36 -15 -36 -15 -21 -27 -21 -27 0 -49 0 -48 24
-60 25 -60 17 -70 17 -70 -5 -85 -6 -84 -29 -63 -30 -63 -26 -31 -26 -30 -67
-35 -68 -34 -106 1 -105 1 -60 13 -60 12 -38 20 -38 19 -30 47 -31 47 5 90 5
90 42 125 42 125 -5 39 -6 39 -19 26 -19 26 -32 22 -32 22 -77 17 -77 18 -175
0 -175 1 -212 -9 -213 -9 0 -31 0 -31 20 -265 20 -265 0 -163 0 -163 -11 -45
-12 -45 -17 -9 -17 -9 -20 14 -20 14 -89 27 -89 26 -105 5 -105 6 -56 -12 -55
-12 -60 -28 -59 -29 -31 -33 -31 -34 -22 -32 -22 -32 -19 -56 -19 -56 -7 -73
-6 -72 11 -88 12 -88 21 -56 21 -56 38 -40 38 -41 44 0 45 0 53 37 54 37 28 6
27 7 23 -6 23 -5 26 -23 25 -23 16 -25 15 -25 21 -62 20 -63 46 -209 46 -210
35 -108 35 -108 44 -90 45 -90 14 -17 13 -18 294 -8 294 -9 121 8 121 8 44 11
44 12 35 18 35 18 32 34 32 33 16 44 15 44 0 64 0 64 -16 77 -15 77 -18 15
-18 15 -18 28 -18 28 20 27 20 27 33 23 34 23 55 17 56 17 145 0 145 0 50 -23
50 -23 32 -31 33 -32 11 -34 11 -34 -6 -41 -7 -42 -36 -80 -37 -80 0 -55 -1
-56 18 -28 19 -28 51 -24 52 -23 90 -15 90 -15 245 -11 245 -11 105 -10 105
-10 40 -9 40 -10 8 0 7 0 0 18 0 17 51 114 51 114 38 116 39 116 27 120 26
120 5 110 6 111 -17 56 -16 57 -26 20 -27 21 -54 0 -55 0 -26 -28 -27 -29 -22
-11 -22 -12 -73 0 -73 0 -63 15 -62 15 -78 30 -77 31 -70 47 -70 48 -40 58
-40 58 1 152 1 151 17 85 17 85 21 43 22 42 13 0 13 0 0 -13 0 -13 19 -20 19
-21 83 -18 84 -18 85 -1 85 0 38 13 39 13 34 31 35 30 18 36 18 36 11 50 11
50 6 59 7 60 -7 307 -8 306 -191 32 -191 32 -110 14 -110 15 -145 4 -145 5
-50 -9z"/>
</g>
</svg>
