<?xml version="1.0" standalone="no"?>
<!DOCTYPE svg PUBLIC "-//W3C//DTD SVG 20010904//EN"
 "http://www.w3.org/TR/2001/REC-SVG-20010904/DTD/svg10.dtd">
<svg version="1.0" xmlns="http://www.w3.org/2000/svg"
 width="376.000000pt" height="287.000000pt" viewBox="0 0 376.000000 287.000000"
 preserveAspectRatio="xMidYMid meet">
<metadata>
Created by potrace 1.16, written by Peter Selinger 2001-2019
</metadata>
<g transform="translate(0.000000,287.000000) scale(0.100000,-0.100000)"
fill="#000000" stroke="none">
<path d="M2585 2860 l-51 -9 -36 -15 -36 -15 -21 -27 -21 -27 0 -39 0 -38 24
-60 25 -60 17 -70 17 -70 -5 -94 -5 -94 -30 -63 -30 -64 -26 -31 -26 -30 -67
-35 -68 -34 -116 1 -115 1 -60 13 -60 12 -38 20 -38 19 -30 47 -31 47 5 100 5
100 41 125 42 125 -6 35 -7 34 -37 37 -37 37 -54 16 -55 17 -109 11 -109 11
-241 -11 -241 -12 -62 0 -63 0 0 -22 0 -23 20 -270 20 -270 0 -167 1 -166 -12
-47 -12 -47 -23 -10 -23 -11 -25 16 -25 17 -88 26 -88 26 -100 5 -100 6 -62
-16 -63 -17 -47 -24 -48 -24 -31 -34 -31 -33 -22 -32 -22 -32 -19 -55 -19 -55
-6 -68 -7 -68 12 -84 11 -84 21 -55 21 -56 37 -40 38 -40 35 0 36 0 54 37 55
38 35 6 36 5 25 -6 26 -6 30 -30 31 -30 18 -43 18 -42 16 -60 16 -60 36 -165
35 -165 27 -90 26 -90 29 -75 29 -75 41 -71 40 -72 147 -6 146 -7 220 -1 220
0 69 11 69 12 47 20 47 20 36 37 36 37 16 44 15 44 0 54 0 54 -16 77 -16 77
-29 29 -29 29 -6 24 -7 25 20 26 20 27 33 23 34 23 54 15 55 16 79 7 79 7 80
-8 79 -7 50 -22 50 -21 34 -39 35 -38 7 -36 6 -36 -6 -42 -7 -42 -36 -80 -37
-80 0 -45 -1 -46 18 -28 19 -28 51 -24 52 -23 90 -15 90 -15 245 -11 245 -11
105 -10 105 -10 37 -8 37 -9 -1 17 0 16 52 114 52 114 38 116 39 116 27 120
26 120 5 100 6 101 -17 56 -16 57 -26 20 -27 21 -44 0 -45 0 -26 -28 -27 -29
-22 -11 -22 -12 -83 0 -83 0 -63 15 -62 15 -78 30 -77 31 -70 47 -70 48 -40
58 -40 58 1 162 1 161 17 85 17 85 21 43 22 42 23 0 23 0 0 -13 0 -13 19 -20
19 -21 83 -18 84 -18 80 0 80 0 40 17 40 17 28 27 29 27 18 35 17 35 11 50 11
50 6 59 7 58 -7 298 -8 298 -221 36 -221 35 -85 11 -85 10 -130 5 -130 4 -50
-9z"/>
</g>
</svg>
