<?xml version="1.0" standalone="no"?>
<!DOCTYPE svg PUBLIC "-//W3C//DTD SVG 20010904//EN"
 "http://www.w3.org/TR/2001/REC-SVG-20010904/DTD/svg10.dtd">
<svg version="1.0" xmlns="http://www.w3.org/2000/svg"
 width="436.000000pt" height="429.000000pt" viewBox="0 0 436.000000 429.000000"
 preserveAspectRatio="xMidYMid meet">
<metadata>
Created by potrace 1.16, written by Peter Selinger 2001-2019
</metadata>
<g transform="translate(0.000000,429.000000) scale(0.100000,-0.100000)"
fill="#000000" stroke="none">
<path d="M2112 4269 l-52 -20 -49 -48 -49 -48 -21 -41 -21 -41 -15 -58 -15
-57 0 -92 0 -93 15 -72 15 -72 26 -61 26 -61 5 -26 5 -26 -30 -22 -30 -21 -84
-11 -83 -12 -340 17 -340 17 -79 9 -79 8 -12 -11 -11 -12 13 -265 12 -265 -5
-95 -6 -95 -14 -63 -14 -62 -20 -39 -19 -39 -27 -21 -27 -21 -22 0 -21 0 -75
26 -74 25 -80 19 -80 20 -67 0 -67 0 -51 -11 -52 -11 -51 -42 -52 -42 -33 -65
-34 -65 -15 -100 -15 -99 5 -61 5 -62 23 -41 23 -41 45 -36 46 -35 70 -35 70
-34 65 -17 65 -18 135 0 135 0 92 43 91 43 25 -6 25 -7 21 -21 20 -22 17 -40
18 -40 4 -130 4 -130 -16 -140 -16 -140 -37 -221 -36 -221 7 -18 6 -17 223 7
222 7 100 -12 100 -12 75 -24 76 -24 46 -30 46 -31 26 -34 27 -35 14 -41 15
-42 0 -61 0 -61 -9 -37 -9 -37 -31 -38 -31 -38 0 -36 0 -37 43 -17 42 -18 214
-5 214 -5 56 13 56 12 36 19 37 18 37 35 36 35 -3 43 -3 43 -25 12 -25 12 -12
17 -13 18 0 36 0 37 24 26 23 25 42 21 41 21 82 20 83 19 180 26 180 27 139
29 138 29 97 32 96 33 6 50 7 50 11 135 11 135 10 225 10 226 15 88 14 89 26
53 27 54 28 15 29 15 13 0 13 0 81 -41 81 -40 56 -6 56 -6 48 14 48 13 51 51
51 51 20 54 21 55 7 65 6 65 -11 70 -11 70 -21 43 -21 44 -31 19 -31 19 -48 0
-48 0 -80 -42 -80 -41 -57 0 -57 0 -41 21 -41 21 -31 36 -32 36 -25 49 -25 49
-19 73 -20 73 -13 80 -13 80 2 333 1 334 -31 -6 -32 -5 -190 -25 -190 -25 -95
-10 -95 -10 -110 -6 -110 -7 -84 11 -84 11 -44 21 -44 21 -17 25 -16 26 0 32
0 33 40 84 39 83 0 125 -1 125 -18 60 -19 60 -29 58 -29 59 -42 45 -42 46 -32
13 -32 14 -68 -1 -68 0 -53 -20z"/>
</g>
</svg>
