<?xml version="1.0" standalone="no"?>
<!DOCTYPE svg PUBLIC "-//W3C//DTD SVG 20010904//EN"
 "http://www.w3.org/TR/2001/REC-SVG-20010904/DTD/svg10.dtd">
<svg version="1.0" xmlns="http://www.w3.org/2000/svg"
 width="434.000000pt" height="427.000000pt" viewBox="0 0 434.000000 427.000000"
 preserveAspectRatio="xMidYMid meet">
<metadata>
Created by potrace 1.16, written by Peter Selinger 2001-2019
</metadata>
<g transform="translate(0.000000,427.000000) scale(0.100000,-0.100000)"
fill="#000000" stroke="none">
<path d="M2112 4249 l-52 -20 -49 -48 -49 -48 -21 -41 -21 -41 -15 -58 -15
-57 0 -82 0 -83 15 -72 15 -72 26 -61 27 -61 4 -36 5 -36 -31 -22 -30 -22 -87
-11 -88 -11 -351 17 -350 18 -66 7 -65 7 -10 -10 -9 -9 12 -256 13 -256 -6
-105 -6 -105 -14 -63 -14 -62 -20 -39 -19 -39 -27 -21 -27 -21 -31 0 -32 0
-87 29 -86 29 -77 18 -77 17 -76 -6 -76 -5 -35 -15 -35 -15 -42 -36 -42 -37
-31 -63 -32 -64 -15 -99 -15 -98 5 -52 6 -53 22 -40 23 -40 45 -36 46 -35 70
-35 70 -34 65 -17 65 -18 125 0 125 0 93 44 93 43 33 -6 33 -6 21 -23 21 -22
17 -40 18 -40 4 -140 4 -140 -17 -145 -16 -145 -35 -209 -35 -209 5 -14 6 -14
222 6 223 7 100 -12 100 -12 75 -24 76 -24 46 -30 46 -31 26 -34 27 -35 14
-41 15 -42 0 -71 0 -71 -9 -37 -9 -37 -31 -38 -31 -38 0 -26 0 -27 43 -17 42
-18 204 -5 204 -5 56 13 56 12 36 19 37 18 37 35 36 35 -3 33 -3 33 -25 12
-25 12 -12 17 -13 18 0 46 0 47 24 26 23 25 42 21 41 21 82 20 83 19 180 26
180 27 139 29 138 29 97 32 96 33 6 50 7 50 11 135 11 135 10 225 10 226 15
88 14 89 26 53 27 54 28 15 29 15 23 0 23 0 80 -40 80 -40 47 -6 48 -7 45 13
45 13 45 39 44 39 26 53 26 53 10 66 11 67 -12 72 -11 73 -21 43 -21 44 -31
19 -31 19 -38 0 -38 0 -81 -42 -80 -42 -67 0 -66 0 -41 22 -41 21 -31 36 -32
36 -25 49 -25 49 -19 73 -20 73 -13 80 -13 80 1 332 2 333 -22 -5 -21 -5 -190
-24 -190 -25 -95 -10 -95 -10 -120 -7 -120 -6 -84 11 -84 11 -44 21 -44 21
-17 26 -17 26 0 41 0 41 40 85 40 84 0 115 -1 115 -18 60 -19 60 -29 58 -29
59 -42 45 -42 46 -32 13 -32 14 -58 -1 -58 0 -53 -20z"/>
</g>
</svg>
