<?xml version="1.0" standalone="no"?>
<!DOCTYPE svg PUBLIC "-//W3C//DTD SVG 20010904//EN"
 "http://www.w3.org/TR/2001/REC-SVG-20010904/DTD/svg10.dtd">
<svg version="1.0" xmlns="http://www.w3.org/2000/svg"
 width="355.000000pt" height="286.000000pt" viewBox="0 0 355.000000 286.000000"
 preserveAspectRatio="xMidYMid meet">
<metadata>
Created by potrace 1.16, written by Peter Selinger 2001-2019
</metadata>
<g transform="translate(0.000000,286.000000) scale(0.100000,-0.100000)"
fill="#000000" stroke="none">
<path d="M1405 2833 l-250 -24 -167 -2 -168 -2 5 -45 5 -45 11 -190 12 -190 0
-220 0 -220 -12 -65 -12 -65 -15 -47 -15 -46 -26 -26 -26 -26 -18 0 -19 0 -71
36 -70 36 -70 11 -69 11 -76 -12 -75 -12 -73 -30 -74 -31 -46 -46 -47 -46 -14
-27 -14 -28 -7 -40 -6 -40 11 -87 12 -87 23 -64 24 -65 27 -39 27 -38 36 -26
37 -25 36 -6 37 -7 43 21 44 20 26 21 26 21 41 6 40 5 31 -21 31 -22 24 -42
25 -42 20 -85 21 -85 36 -205 36 -205 25 -84 24 -84 33 -72 33 -72 124 -6 124
-6 285 -12 285 -12 91 11 92 11 35 15 35 14 18 27 17 26 0 52 0 52 -22 40 -22
40 -24 40 -25 40 0 55 0 55 25 52 24 53 46 49 45 48 63 29 62 28 90 -1 90 0
64 -17 64 -17 57 -29 56 -28 38 -42 38 -42 14 -34 14 -33 0 -30 0 -30 -11 -28
-10 -28 -26 -37 -25 -37 -5 -63 -4 -63 20 -32 20 -32 33 -17 33 -17 55 -15 55
-14 360 -8 360 -8 24 -8 24 -7 -6 69 -6 69 -10 100 -10 100 -11 240 -11 240
-10 74 -10 73 -20 63 -19 63 -37 32 -36 32 -63 -4 -64 -4 -27 -22 -28 -22 -23
-17 -24 -16 -43 0 -44 0 -47 29 -48 29 -33 47 -34 47 -20 55 -19 56 0 87 0 88
15 63 15 63 20 38 19 38 31 27 32 26 31 0 32 0 40 -25 40 -25 34 -15 34 -16
66 -6 66 -5 41 11 40 11 36 32 36 33 25 50 25 50 16 74 17 74 6 111 6 111 -8
268 -7 269 -15 5 -16 6 -21 -13 -21 -13 -70 -38 -70 -38 -123 -41 -123 -41
-212 -49 -212 -48 -58 -20 -58 -21 -31 -18 -31 -18 -20 -27 -21 -28 1 -49 1
-50 42 -85 43 -86 -6 -41 -5 -42 -32 -28 -31 -29 -57 -17 -57 -17 -110 0 -110
-1 -40 20 -40 19 -52 54 -53 53 -45 92 -44 92 -22 90 -22 90 -1 105 -1 105 18
57 17 57 26 30 26 31 -6 15 -5 15 -108 -1 -108 -1 -250 -25z"/>
</g>
</svg>
