<?xml version="1.0" standalone="no"?>
<!DOCTYPE svg PUBLIC "-//W3C//DTD SVG 20010904//EN"
 "http://www.w3.org/TR/2001/REC-SVG-20010904/DTD/svg10.dtd">
<svg version="1.0" xmlns="http://www.w3.org/2000/svg"
 width="353.000000pt" height="284.000000pt" viewBox="0 0 353.000000 284.000000"
 preserveAspectRatio="xMidYMid meet">
<metadata>
Created by potrace 1.16, written by Peter Selinger 2001-2019
</metadata>
<g transform="translate(0.000000,284.000000) scale(0.100000,-0.100000)"
fill="#000000" stroke="none">
<path d="M1405 2814 l-250 -25 -167 -2 -166 -2 4 -25 3 -25 12 -205 12 -205 0
-225 0 -225 -12 -65 -12 -65 -15 -47 -15 -46 -26 -26 -26 -26 -28 0 -29 0 -70
36 -70 35 -65 11 -65 11 -71 -12 -72 -12 -72 -30 -73 -30 -46 -46 -47 -46 -17
-31 -17 -31 1 -80 1 -80 17 -65 17 -65 23 -52 24 -51 42 -41 42 -41 39 -10 39
-11 43 20 42 20 27 22 27 22 50 5 50 4 30 -21 31 -22 24 -42 25 -42 20 -85 21
-85 36 -205 36 -205 25 -84 24 -84 33 -72 33 -72 129 -6 129 -7 270 -11 270
-12 91 11 92 11 35 15 35 14 17 26 17 25 0 45 0 46 -26 42 -25 43 -21 39 -22
39 0 58 0 58 25 55 26 55 45 49 46 49 63 29 62 28 100 0 100 -1 64 -17 64 -17
57 -29 56 -28 38 -42 38 -42 14 -34 14 -33 0 -40 0 -40 -11 -28 -10 -28 -25
-36 -25 -37 -5 -53 -5 -54 20 -32 20 -32 33 -17 33 -17 55 -15 55 -14 360 -7
360 -7 14 -8 14 -9 -7 64 -6 64 -10 95 -9 95 -11 240 -11 240 -10 74 -10 73
-20 63 -19 63 -37 32 -36 32 -54 -4 -54 -5 -27 -21 -27 -22 -24 -17 -24 -17
-52 0 -53 0 -48 29 -48 30 -33 47 -34 47 -20 55 -19 56 0 97 0 98 15 63 15 63
20 38 19 38 31 27 32 26 41 0 42 0 40 -25 40 -25 33 -15 32 -15 58 -6 57 -6
41 11 40 11 36 32 36 33 25 50 25 50 18 80 19 80 -2 359 -2 359 -9 9 -9 9 -50
-30 -50 -31 -64 -29 -64 -29 -100 -32 -100 -32 -210 -48 -210 -48 -58 -20 -58
-21 -31 -18 -31 -18 -20 -26 -19 -27 0 -41 1 -42 42 -84 42 -84 -5 -51 -5 -52
-32 -29 -32 -29 -57 -17 -57 -17 -120 0 -120 -1 -40 20 -40 19 -52 54 -53 53
-45 92 -44 92 -22 90 -22 90 -1 115 -1 115 18 57 17 57 25 29 24 29 -6 7 -6 6
-96 -1 -96 -1 -250 -24z"/>
</g>
</svg>
