<?xml version="1.0" standalone="no"?>
<!DOCTYPE svg PUBLIC "-//W3C//DTD SVG 20010904//EN"
 "http://www.w3.org/TR/2001/REC-SVG-20010904/DTD/svg10.dtd">
<svg version="1.0" xmlns="http://www.w3.org/2000/svg"
 width="276.000000pt" height="385.000000pt" viewBox="0 0 276.000000 385.000000"
 preserveAspectRatio="xMidYMid meet">
<metadata>
Created by potrace 1.16, written by Peter Selinger 2001-2019
</metadata>
<g transform="translate(0.000000,385.000000) scale(0.100000,-0.100000)"
fill="#000000" stroke="none">
<path d="M1290 3840 l-45 -8 -50 -23 -50 -23 -56 -56 -56 -55 -32 -68 -32 -67
-16 -73 -15 -72 5 -110 5 -110 21 -66 21 -66 21 -27 21 -27 -5 -14 -6 -14 -43
-6 -43 -7 -140 12 -140 11 -185 14 -185 14 -136 6 -137 7 -7 -229 -8 -228 7
-126 7 -127 14 -88 14 -89 17 -55 16 -55 24 -47 24 -47 32 -36 31 -36 41 -22
41 -21 76 0 76 -1 81 43 81 42 28 0 28 0 31 -19 31 -19 21 -44 21 -43 11 -68
10 -67 -10 -62 -9 -62 -26 -53 -26 -52 -44 -39 -45 -39 -44 -13 -44 -12 -41 7
-41 7 -77 39 -77 39 -33 0 -34 0 -29 -15 -28 -15 -27 -54 -26 -53 -14 -89 -15
-89 -10 -230 -10 -230 -11 -125 -11 -125 -5 -61 -5 -61 103 -6 104 -7 305 -6
305 -6 74 16 74 16 39 25 38 25 16 25 17 26 0 67 0 67 -36 95 -35 95 -11 40
-11 40 0 46 0 46 23 33 22 34 34 20 33 19 57 13 56 14 101 0 101 0 61 -31 61
-30 39 -44 38 -43 27 -55 27 -56 16 -68 16 -68 -5 -92 -5 -91 -37 -109 -38
-108 0 -35 -1 -35 7 -27 7 -27 48 -28 47 -28 140 0 140 1 110 23 110 23 145
48 145 48 79 36 78 36 18 0 18 0 6 15 6 16 -25 72 -24 72 -25 125 -25 125 -31
250 -31 249 -16 70 -16 70 -17 41 -18 41 -33 28 -33 28 -67 -4 -68 -4 -45 -32
-46 -33 -36 -6 -35 -6 -29 28 -29 28 -17 46 -16 46 -5 100 -5 100 22 65 22 64
20 31 21 30 46 48 46 49 48 24 47 24 61 16 60 16 42 -7 42 -7 30 -16 30 -15
30 -23 30 -22 28 -7 27 -7 24 16 24 15 11 51 11 51 0 137 0 137 -14 205 -15
205 -7 119 -7 118 -51 24 -51 23 -87 25 -87 25 -173 26 -173 26 -85 15 -85 15
-61 20 -62 20 -36 35 -36 35 -6 25 -6 25 12 45 13 45 9 5 8 5 20 39 20 39 0
56 0 56 -20 38 -19 39 -38 31 -37 31 -44 20 -43 21 -57 14 -57 13 -75 5 -75 5
-45 -8z"/>
</g>
</svg>
