<?xml version="1.0" standalone="no"?>
<!DOCTYPE svg PUBLIC "-//W3C//DTD SVG 20010904//EN"
 "http://www.w3.org/TR/2001/REC-SVG-20010904/DTD/svg10.dtd">
<svg version="1.0" xmlns="http://www.w3.org/2000/svg"
 width="274.000000pt" height="383.000000pt" viewBox="0 0 274.000000 383.000000"
 preserveAspectRatio="xMidYMid meet">
<metadata>
Created by potrace 1.16, written by Peter Selinger 2001-2019
</metadata>
<g transform="translate(0.000000,383.000000) scale(0.100000,-0.100000)"
fill="#000000" stroke="none">
<path d="M1290 3820 l-45 -8 -50 -23 -50 -23 -56 -56 -56 -55 -32 -68 -32 -67
-16 -73 -15 -72 5 -100 5 -100 20 -63 20 -64 28 -39 27 -40 -17 -17 -17 -17
-122 2 -122 1 -175 16 -175 15 -199 11 -198 11 -5 -5 -5 -5 -2 -328 -1 -328
13 -80 13 -80 20 -73 19 -73 25 -49 25 -49 32 -36 31 -36 41 -21 41 -22 66 0
67 0 80 42 81 42 38 0 38 0 31 -19 31 -19 21 -44 21 -43 11 -73 12 -72 -11
-67 -10 -66 -26 -53 -26 -53 -44 -39 -45 -39 -45 -13 -45 -13 -48 7 -47 6 -80
40 -80 40 -23 0 -23 0 -29 -15 -28 -15 -27 -54 -26 -53 -14 -89 -15 -89 -10
-230 -10 -230 -10 -120 -10 -120 -6 -56 -6 -56 108 -7 109 -6 290 -6 290 -6
74 16 74 16 39 25 38 25 16 25 16 25 0 58 0 58 -35 94 -35 95 -11 40 -11 40 0
56 0 56 23 33 22 34 34 20 33 19 57 13 56 14 111 0 111 0 61 -31 61 -30 39
-44 38 -43 27 -55 27 -56 16 -68 16 -68 -5 -101 -5 -100 -37 -109 -37 -109 0
-32 0 -32 7 -21 6 -21 47 -27 47 -28 130 0 130 1 110 23 110 23 146 48 146 49
88 40 87 41 8 -5 8 -5 4 11 4 11 -23 67 -22 67 -25 124 -25 125 -31 250 -31
249 -16 70 -16 70 -17 41 -18 41 -33 28 -33 28 -58 -4 -57 -4 -43 -31 -43 -30
-33 -11 -33 -11 -22 8 -22 9 -22 24 -22 24 -17 44 -16 45 -5 110 -5 110 22 65
22 64 20 31 21 30 46 48 46 49 48 24 47 24 62 16 62 16 49 -7 50 -6 31 -16 31
-16 30 -22 30 -22 19 -7 19 -6 23 14 22 15 11 51 11 51 0 127 0 127 -14 205
-15 205 -7 119 -7 118 -51 24 -51 23 -87 25 -87 25 -173 26 -173 26 -85 15
-85 15 -61 20 -62 20 -36 35 -36 35 -6 25 -6 25 5 32 5 32 11 25 12 25 24 40
25 40 0 48 0 48 -20 38 -19 39 -38 31 -37 31 -44 20 -43 21 -57 14 -57 13 -65
5 -65 4 -45 -7z"/>
</g>
</svg>
