<?xml version="1.0" standalone="no"?>
<!DOCTYPE svg PUBLIC "-//W3C//DTD SVG 20010904//EN"
 "http://www.w3.org/TR/2001/REC-SVG-20010904/DTD/svg10.dtd">
<svg version="1.0" xmlns="http://www.w3.org/2000/svg"
 width="299.000000pt" height="355.000000pt" viewBox="0 0 299.000000 355.000000"
 preserveAspectRatio="xMidYMid meet">
<metadata>
Created by potrace 1.16, written by Peter Selinger 2001-2019
</metadata>
<g transform="translate(0.000000,355.000000) scale(0.100000,-0.100000)"
fill="#000000" stroke="none">
<path d="M1245 3540 l-110 -7 -25 -13 -25 -13 -17 -15 -18 -15 0 -41 0 -41 35
-68 35 -68 9 -60 10 -61 -9 -50 -10 -49 -16 -34 -16 -34 -45 -41 -44 -42 -53
-24 -53 -24 -78 -20 -77 -20 -143 -9 -143 -10 -198 9 -198 9 -6 -4 -7 -5 -7
-177 -7 -178 -14 -230 -15 -230 0 -111 0 -111 11 -31 11 -31 19 -6 19 -6 23 7
22 7 26 18 26 18 139 27 139 27 125 1 125 1 46 -18 45 -17 32 -33 31 -32 16
-45 16 -45 6 -91 6 -92 -23 -46 -22 -46 -41 -34 -42 -34 -55 -30 -55 -31 -61
-20 -61 -20 -64 -10 -65 -11 -35 10 -34 10 -26 32 -26 32 -62 4 -63 5 -24 -13
-24 -13 -20 -35 -21 -35 -17 -66 -17 -66 5 -345 4 -345 1 -136 0 -136 95 -6
95 -6 275 -12 275 -13 110 12 110 12 39 12 40 13 38 36 38 36 0 42 0 42 -40
118 -40 117 -6 61 -7 61 7 37 7 36 35 39 35 38 47 17 47 16 97 6 96 6 64 -30
63 -30 37 -38 38 -38 20 -42 20 -41 0 -28 0 -28 -29 -11 -30 -11 -10 -23 -11
-24 0 -55 0 -55 16 -24 16 -24 32 -19 32 -19 50 -16 49 -17 95 -14 95 -15 150
-16 150 -16 130 -20 130 -19 93 -25 94 -25 24 0 24 0 0 14 0 13 34 74 35 75
45 131 45 132 27 118 27 118 5 140 4 140 -12 44 -12 44 -28 29 -28 28 -51 0
-51 0 -72 -24 -73 -24 -80 -17 -80 -17 -105 0 -105 0 -75 17 -75 17 -70 33
-71 34 -46 41 -47 41 -33 66 -32 66 1 87 1 88 22 41 21 42 31 19 31 19 67 12
67 12 114 -12 114 -12 122 -24 122 -24 20 -10 20 -11 44 0 44 0 27 26 26 27
15 51 16 51 11 140 11 140 -12 250 -12 250 -6 133 -6 132 -21 0 -22 0 -84 -24
-85 -25 -90 -20 -90 -21 -90 -16 -90 -16 -132 -5 -131 -6 -47 12 -46 12 -34
22 -34 22 -12 28 -12 28 11 42 11 42 27 85 28 85 0 140 1 140 -27 51 -27 52
-42 36 -42 36 -55 20 -55 21 -96 9 -96 9 -10 -1 -10 -1 -110 -7z"/>
</g>
</svg>
