<?xml version="1.0" standalone="no"?>
<!DOCTYPE svg PUBLIC "-//W3C//DTD SVG 20010904//EN"
 "http://www.w3.org/TR/2001/REC-SVG-20010904/DTD/svg10.dtd">
<svg version="1.0" xmlns="http://www.w3.org/2000/svg"
 width="297.000000pt" height="353.000000pt" viewBox="0 0 297.000000 353.000000"
 preserveAspectRatio="xMidYMid meet">
<metadata>
Created by potrace 1.16, written by Peter Selinger 2001-2019
</metadata>
<g transform="translate(0.000000,353.000000) scale(0.100000,-0.100000)"
fill="#000000" stroke="none">
<path d="M1245 3520 l-110 -7 -25 -13 -25 -13 -17 -15 -18 -15 0 -31 0 -31 35
-68 35 -68 10 -65 11 -66 -10 -54 -10 -55 -17 -34 -16 -34 -45 -41 -44 -42
-53 -24 -53 -24 -78 -20 -77 -20 -152 -10 -151 -9 -190 8 -190 9 -6 -4 -6 -4
-7 -177 -7 -178 -14 -230 -15 -230 0 -102 0 -102 11 -28 10 -28 12 -7 12 -8
20 7 20 6 26 18 26 18 139 27 139 27 135 1 135 1 46 -18 45 -17 32 -33 31 -32
16 -45 16 -45 6 -101 6 -102 -22 -46 -23 -46 -41 -34 -42 -34 -55 -30 -55 -31
-61 -20 -61 -20 -67 -11 -68 -11 -36 7 -37 7 -32 35 -32 35 -51 5 -51 5 -25
-13 -24 -13 -20 -35 -21 -35 -17 -66 -17 -66 5 -335 4 -335 0 -136 1 -136 95
-6 95 -6 266 -12 266 -12 109 11 109 12 39 12 40 13 38 36 38 36 0 32 0 32
-41 119 -40 120 -6 69 -6 69 7 36 7 37 35 39 35 38 47 17 47 17 107 5 106 6
64 -30 63 -30 37 -38 38 -38 20 -42 20 -41 0 -38 0 -38 -29 -11 -30 -11 -10
-23 -11 -24 0 -45 0 -45 16 -24 16 -24 32 -19 32 -19 50 -16 49 -17 95 -14 95
-15 150 -16 150 -16 130 -20 130 -19 93 -25 94 -25 14 0 14 0 0 14 0 13 34 74
35 75 45 131 45 132 27 118 27 118 4 130 5 130 -12 44 -12 44 -28 29 -28 28
-41 0 -41 0 -72 -24 -73 -24 -80 -17 -80 -17 -115 0 -115 0 -75 17 -75 17 -70
33 -71 34 -46 41 -47 41 -33 67 -33 66 2 96 1 97 21 42 22 42 31 19 31 19 69
12 68 12 123 -12 122 -12 122 -24 122 -24 20 -10 20 -11 34 0 34 0 27 26 26
27 15 51 16 51 11 139 10 138 -11 234 -11 233 -7 141 -6 140 -11 0 -11 0 -70
-20 -70 -21 -100 -23 -100 -24 -100 -18 -100 -18 -165 -1 -165 0 -36 18 -36
18 -22 20 -21 20 -6 26 -7 27 11 45 10 46 28 85 28 85 0 130 1 130 -27 51 -27
52 -42 36 -42 36 -53 19 -52 20 -51 6 -51 5 -47 3 -48 4 -110 -7z"/>
</g>
</svg>
