<?xml version="1.0" standalone="no"?>
<!DOCTYPE svg PUBLIC "-//W3C//DTD SVG 20010904//EN"
 "http://www.w3.org/TR/2001/REC-SVG-20010904/DTD/svg10.dtd">
<svg version="1.0" xmlns="http://www.w3.org/2000/svg"
 width="425.000000pt" height="428.000000pt" viewBox="0 0 425.000000 428.000000"
 preserveAspectRatio="xMidYMid meet">
<metadata>
Created by potrace 1.16, written by Peter Selinger 2001-2019
</metadata>
<g transform="translate(0.000000,428.000000) scale(0.100000,-0.100000)"
fill="#000000" stroke="none">
<path d="M1882 4269 l-63 -8 -53 -15 -52 -15 -35 -24 -34 -23 -3 -31 -3 -31
31 -18 30 -19 12 -40 11 -40 1 -90 0 -90 -22 -50 -23 -50 -41 -42 -40 -41 -67
-31 -66 -30 -95 -17 -95 -16 -293 4 -293 5 3 -351 3 -351 -14 -55 -14 -55 -17
-35 -18 -35 -29 -27 -28 -27 -40 -17 -40 -17 -70 0 -70 0 -84 18 -83 18 -19
21 -19 20 0 13 0 13 -33 0 -33 0 -22 -42 -21 -43 -17 -85 -18 -85 0 -171 -1
-172 40 -58 40 -58 70 -48 70 -47 77 -31 78 -30 62 -15 63 -15 93 0 93 0 22
12 22 11 27 29 26 28 35 0 34 0 27 -21 26 -20 16 -57 17 -56 -6 -91 -5 -90
-27 -120 -26 -120 -39 -116 -38 -116 -52 -114 -52 -114 -2 -20 -1 -20 70 -3
70 -4 285 17 285 18 111 -5 112 -5 38 -19 38 -19 10 -16 9 -17 -20 -48 -21
-49 -23 -105 -24 -105 0 -135 0 -135 21 -40 20 -40 47 -31 46 -32 64 -11 64
-11 144 0 144 0 65 10 65 11 48 15 48 16 30 25 30 25 14 29 15 28 0 64 0 64
-19 54 -19 54 -21 45 -21 45 0 32 0 31 25 31 26 30 53 20 54 20 84 15 83 15
155 16 155 16 95 15 95 15 78 21 79 21 4 12 5 12 -51 102 -51 103 -33 86 -33
87 -26 90 -26 90 -15 84 -16 83 0 84 0 85 15 37 16 37 21 22 21 23 26 0 26 0
65 -21 65 -20 113 -20 114 -19 121 0 122 0 64 15 65 16 50 29 51 29 32 33 32
33 24 50 25 50 12 63 13 62 -6 158 -5 157 -15 49 -16 49 -31 29 -31 28 -73 0
-73 0 -114 -39 -114 -39 -47 -7 -46 -7 -54 16 -53 15 -37 31 -37 31 -30 62
-31 62 -16 64 -16 63 -7 126 -7 126 8 226 8 225 -32 27 -33 28 -75 39 -75 39
-90 30 -90 30 -180 41 -180 42 -68 24 -68 23 -34 26 -34 27 -12 37 -11 38 11
40 11 40 30 22 30 23 0 33 0 34 -32 20 -33 20 -55 16 -55 15 -97 11 -97 10
-98 -1 -98 -2 -63 -8z"/>
</g>
</svg>
