<?xml version="1.0" standalone="no"?>
<!DOCTYPE svg PUBLIC "-//W3C//DTD SVG 20010904//EN"
 "http://www.w3.org/TR/2001/REC-SVG-20010904/DTD/svg10.dtd">
<svg version="1.0" xmlns="http://www.w3.org/2000/svg"
 width="423.000000pt" height="426.000000pt" viewBox="0 0 423.000000 426.000000"
 preserveAspectRatio="xMidYMid meet">
<metadata>
Created by potrace 1.16, written by Peter Selinger 2001-2019
</metadata>
<g transform="translate(0.000000,426.000000) scale(0.100000,-0.100000)"
fill="#000000" stroke="none">
<path d="M1882 4249 l-63 -8 -53 -15 -52 -15 -35 -24 -34 -23 -3 -21 -3 -21
31 -18 30 -19 12 -40 11 -40 1 -100 1 -100 -23 -50 -23 -50 -41 -42 -40 -41
-67 -31 -66 -30 -95 -17 -95 -16 -293 4 -292 4 2 -351 3 -350 -14 -55 -14 -55
-17 -35 -18 -35 -29 -27 -28 -27 -40 -17 -40 -17 -80 0 -80 0 -84 18 -83 18
-19 21 -19 20 0 13 0 13 -23 0 -23 0 -22 -42 -21 -43 -17 -85 -17 -85 -1 -161
-1 -162 40 -58 40 -58 70 -48 70 -47 77 -31 78 -30 62 -15 63 -15 83 0 83 0
22 12 22 11 27 29 26 28 45 0 44 0 27 -21 26 -20 16 -57 17 -56 -6 -101 -5
-100 -26 -120 -27 -120 -39 -116 -38 -116 -52 -114 -51 -114 -2 -10 -2 -10 75
-3 75 -3 243 16 244 15 113 0 112 0 54 -10 54 -10 25 -19 25 -18 3 -22 4 -23
-20 -46 -20 -47 -23 -105 -24 -105 0 -125 0 -125 21 -40 20 -40 47 -31 46 -32
64 -11 64 -11 134 0 134 0 65 10 65 11 48 15 48 16 30 25 30 25 14 29 15 28 0
54 0 54 -19 54 -19 54 -21 45 -21 45 0 42 0 41 25 31 26 30 53 20 54 20 84 15
83 15 155 16 155 16 95 15 95 15 58 15 57 15 25 9 25 9 -51 102 -50 101 -33
86 -33 87 -26 90 -26 90 -15 84 -16 83 0 94 0 95 15 37 16 37 21 22 21 23 36
0 36 0 65 -21 65 -20 113 -20 114 -19 111 0 112 0 64 15 65 16 50 29 51 29 32
33 32 33 24 50 25 50 12 63 13 63 -6 147 -5 147 -16 49 -15 49 -31 29 -31 28
-63 0 -63 0 -115 -40 -115 -39 -55 -7 -55 -6 -54 15 -54 16 -37 31 -37 31 -30
62 -31 62 -15 60 -16 60 -8 132 -8 132 8 223 9 223 -33 27 -32 28 -75 39 -75
39 -90 30 -90 30 -180 41 -180 42 -68 24 -68 23 -34 26 -33 26 -12 36 -12 35
7 46 7 46 34 30 34 31 0 22 0 22 -32 20 -33 20 -55 16 -55 15 -97 11 -97 10
-88 -1 -88 -2 -63 -8z"/>
</g>
</svg>
