<?xml version="1.0" standalone="no"?>
<!DOCTYPE svg PUBLIC "-//W3C//DTD SVG 20010904//EN"
 "http://www.w3.org/TR/2001/REC-SVG-20010904/DTD/svg10.dtd">
<svg version="1.0" xmlns="http://www.w3.org/2000/svg"
 width="362.000000pt" height="362.000000pt" viewBox="0 0 362.000000 362.000000"
 preserveAspectRatio="xMidYMid meet">
<metadata>
Created by potrace 1.16, written by Peter Selinger 2001-2019
</metadata>
<g transform="translate(0.000000,362.000000) scale(0.100000,-0.100000)"
fill="#000000" stroke="none">
<path d="M2010 3611 l-105 -8 -39 -11 -38 -11 -19 -17 -19 -17 0 -28 0 -27 25
-30 25 -30 14 -34 14 -33 11 -77 11 -77 -10 -51 -10 -51 -11 -22 -11 -22 -45
-42 -44 -43 -67 -20 -67 -21 -111 -9 -110 -8 -220 8 -219 9 -24 1 -24 0 6
-157 6 -158 12 -226 11 -225 -11 -135 -10 -134 -16 -51 -15 -51 -26 -27 -27
-26 -24 0 -24 0 -20 11 -20 10 -122 24 -122 25 -131 12 -131 12 -70 -13 -70
-12 -31 -19 -31 -19 -22 -43 -22 -42 -1 -106 -1 -105 33 -67 33 -67 47 -41 46
-41 71 -34 70 -33 75 -17 75 -17 125 0 125 0 80 17 80 17 73 24 72 24 31 0 31
0 28 -28 28 -29 12 -44 12 -44 -5 -120 -4 -120 -27 -118 -27 -118 -45 -132
-45 -131 -35 -75 -34 -74 0 -22 0 -23 168 -6 167 -7 276 -20 277 -19 98 0 99
1 18 13 17 13 0 25 0 25 -19 17 -19 17 -15 57 -16 57 -15 84 -16 83 0 102 0
102 15 57 15 58 21 42 22 42 30 38 29 38 52 27 51 27 85 0 85 0 54 -28 53 -28
44 -45 44 -45 35 -73 36 -72 16 -89 16 -90 -12 -93 -11 -93 -35 -105 -35 -104
0 -33 0 -32 20 -33 21 -33 43 -20 43 -19 84 -6 84 -6 110 11 110 12 119 25
120 26 120 35 121 36 33 5 32 4 0 1389 0 1388 -12 7 -12 8 -323 7 -322 8 -73
10 -73 11 -35 10 -35 10 -32 19 -32 20 -17 32 -16 32 5 34 6 33 35 58 36 57 0
55 0 55 -21 39 -20 38 -27 24 -27 23 -55 30 -55 29 -64 17 -64 16 -136 4 -136
3 -105 -7z"/>
</g>
</svg>
