<?xml version="1.0" standalone="no"?>
<!DOCTYPE svg PUBLIC "-//W3C//DTD SVG 20010904//EN"
 "http://www.w3.org/TR/2001/REC-SVG-20010904/DTD/svg10.dtd">
<svg version="1.0" xmlns="http://www.w3.org/2000/svg"
 width="360.000000pt" height="360.000000pt" viewBox="0 0 360.000000 360.000000"
 preserveAspectRatio="xMidYMid meet">
<metadata>
Created by potrace 1.16, written by Peter Selinger 2001-2019
</metadata>
<g transform="translate(0.000000,360.000000) scale(0.100000,-0.100000)"
fill="#000000" stroke="none">
<path d="M2010 3591 l-105 -8 -39 -11 -38 -11 -19 -17 -19 -17 0 -18 0 -17 25
-30 25 -30 14 -34 14 -34 12 -82 11 -82 -10 -55 -10 -55 -12 -23 -11 -22 -45
-42 -44 -43 -67 -20 -67 -21 -115 -9 -115 -9 -230 9 -230 10 -9 0 -9 0 6 -142
6 -143 12 -236 11 -237 -10 -138 -11 -139 -16 -51 -15 -51 -26 -27 -27 -26
-34 0 -34 0 -20 11 -20 10 -122 24 -122 24 -122 12 -123 12 -68 -12 -69 -12
-31 -19 -31 -19 -22 -42 -21 -42 -1 -97 -2 -96 33 -66 33 -67 47 -41 46 -41
71 -34 70 -33 75 -17 75 -17 115 0 115 0 80 17 80 17 73 24 72 24 41 0 41 0
28 -28 28 -29 12 -44 12 -44 -5 -130 -4 -130 -27 -118 -27 -118 -45 -132 -45
-131 -35 -75 -34 -74 0 -12 0 -13 168 -6 167 -7 276 -20 277 -19 88 0 89 1 18
13 17 13 0 15 0 15 -19 17 -19 17 -15 57 -16 57 -15 84 -16 83 0 112 0 112 15
57 15 58 21 42 22 42 30 38 29 38 52 27 51 27 95 0 95 0 54 -28 53 -28 44 -45
44 -45 36 -74 36 -73 16 -97 16 -98 -12 -94 -12 -94 -35 -105 -35 -104 0 -23
0 -22 20 -33 21 -33 47 -22 47 -22 135 1 135 1 100 17 100 18 150 38 150 39
59 20 58 21 9 -6 9 -5 0 1380 0 1380 -12 7 -12 8 -323 7 -322 8 -73 10 -73 11
-35 10 -35 10 -32 19 -32 20 -17 32 -16 32 5 42 4 43 37 58 36 59 0 45 0 45
-21 39 -20 38 -27 24 -27 23 -55 30 -55 29 -63 16 -62 17 -128 4 -127 3 -105
-7z"/>
</g>
</svg>
