<?xml version="1.0" standalone="no"?>
<!DOCTYPE svg PUBLIC "-//W3C//DTD SVG 20010904//EN"
 "http://www.w3.org/TR/2001/REC-SVG-20010904/DTD/svg10.dtd">
<svg version="1.0" xmlns="http://www.w3.org/2000/svg"
 width="352.000000pt" height="356.000000pt" viewBox="0 0 352.000000 356.000000"
 preserveAspectRatio="xMidYMid meet">
<metadata>
Created by potrace 1.16, written by Peter Selinger 2001-2019
</metadata>
<g transform="translate(0.000000,356.000000) scale(0.100000,-0.100000)"
fill="#000000" stroke="none">
<path d="M76 3552 l-5 -8 -11 -150 -11 -149 -24 -255 -25 -255 0 -82 0 -83 13
0 14 0 17 19 17 19 72 23 72 24 125 0 125 -1 80 -23 80 -22 62 -30 62 -29 50
-41 51 -40 46 -62 45 -62 15 -52 15 -52 0 -68 0 -67 -28 -55 -28 -55 -47 -36
-47 -35 -48 -19 -48 -18 -94 -5 -93 -6 -72 13 -71 12 -108 35 -109 36 -38 -12
-39 -12 -20 -27 -19 -27 -18 -60 -19 -60 1 -200 0 -200 22 -250 22 -250 6 -43
5 -43 392 3 392 2 80 -17 80 -17 62 -30 62 -31 31 -37 31 -37 14 -49 15 -50 0
-35 0 -36 -15 -69 -15 -69 -19 -21 -19 -21 -16 -32 -16 -32 0 -31 0 -32 16
-34 16 -33 46 -30 47 -29 40 -11 40 -11 90 0 91 0 59 16 60 15 45 26 44 26 48
50 48 50 20 55 21 56 6 61 6 61 -12 54 -12 55 -30 64 -31 64 -1 35 -1 34 36
34 36 33 42 11 41 11 82 9 82 10 165 -11 165 -10 165 -13 165 -13 10 3 10 4
11 23 11 22 42 82 42 82 38 118 39 118 46 207 47 207 20 58 20 58 25 38 25 39
31 13 31 13 31 -9 31 -9 32 -35 32 -35 36 0 37 0 29 31 29 31 23 72 22 71 0
155 0 155 -32 68 -32 68 -51 49 -50 49 -28 15 -27 15 -55 27 -55 26 -70 15
-70 15 -110 -5 -110 -4 -62 -25 -63 -26 0 7 0 6 19 165 20 165 11 115 11 115
8 195 8 195 -11 7 -11 8 -1337 0 -1337 0 -5 -8z"/>
</g>
</svg>
