<?xml version="1.0" standalone="no"?>
<!DOCTYPE svg PUBLIC "-//W3C//DTD SVG 20010904//EN"
 "http://www.w3.org/TR/2001/REC-SVG-20010904/DTD/svg10.dtd">
<svg version="1.0" xmlns="http://www.w3.org/2000/svg"
 width="350.000000pt" height="354.000000pt" viewBox="0 0 350.000000 354.000000"
 preserveAspectRatio="xMidYMid meet">
<metadata>
Created by potrace 1.16, written by Peter Selinger 2001-2019
</metadata>
<g transform="translate(0.000000,354.000000) scale(0.100000,-0.100000)"
fill="#000000" stroke="none">
<path d="M76 3532 l-5 -8 -11 -150 -11 -149 -24 -255 -25 -255 0 -74 0 -74 23
20 22 21 65 23 65 23 140 0 140 0 80 -22 80 -23 62 -30 62 -29 50 -41 51 -40
46 -62 45 -62 16 -54 15 -54 0 -74 0 -75 -29 -56 -28 -56 -47 -36 -47 -35 -48
-19 -48 -18 -110 -5 -110 -5 -83 17 -83 17 -86 29 -85 30 -34 -11 -34 -11 -19
-27 -19 -27 -18 -60 -19 -60 1 -190 1 -190 21 -250 22 -250 6 -43 5 -42 392 2
392 2 80 -17 80 -17 62 -30 62 -31 31 -37 31 -37 14 -49 15 -50 0 -45 0 -46
-15 -68 -14 -68 -24 -28 -23 -28 -13 -32 -13 -31 6 -34 7 -35 29 -30 30 -29
47 -23 48 -23 96 -4 95 -4 64 16 65 17 44 26 45 26 48 50 48 50 20 54 20 53 6
54 6 53 -11 54 -12 54 -31 65 -31 65 -1 43 -1 44 37 33 36 34 42 11 41 11 85
10 85 9 172 -10 172 -11 155 -13 155 -12 10 3 10 3 11 23 11 22 42 82 42 82
38 118 39 118 46 207 47 207 20 58 20 58 25 38 25 39 35 14 35 15 37 -11 38
-10 31 -35 31 -35 27 0 27 0 29 31 29 31 23 72 22 71 0 145 0 145 -32 68 -32
68 -51 49 -50 49 -28 15 -27 15 -55 27 -55 26 -70 15 -70 15 -100 -5 -100 -5
-58 -22 -57 -21 -15 -15 -15 -15 0 25 0 25 25 218 24 218 10 145 11 145 3 107
2 108 -13 5 -14 5 -1323 0 -1324 0 -5 -8z"/>
</g>
</svg>
