<?xml version="1.0" standalone="no"?>
<!DOCTYPE svg PUBLIC "-//W3C//DTD SVG 20010904//EN"
 "http://www.w3.org/TR/2001/REC-SVG-20010904/DTD/svg10.dtd">
<svg version="1.0" xmlns="http://www.w3.org/2000/svg"
 width="343.000000pt" height="299.000000pt" viewBox="0 0 343.000000 299.000000"
 preserveAspectRatio="xMidYMid meet">
<metadata>
Created by potrace 1.16, written by Peter Selinger 2001-2019
</metadata>
<g transform="translate(0.000000,299.000000) scale(0.100000,-0.100000)"
fill="#000000" stroke="none">
<path d="M1390 2983 l-35 -3 -275 -20 -275 -20 -50 -3 -49 -2 4 -145 5 -145 0
-225 0 -225 -19 -80 -18 -80 -25 -50 -25 -50 -36 -33 -36 -32 -40 -11 -40 -11
-50 7 -49 6 -31 15 -31 14 -40 25 -40 25 -52 0 -51 0 -32 -26 -31 -27 -19 -38
-20 -38 -15 -63 -15 -63 0 -108 0 -107 19 -56 20 -55 34 -47 33 -47 49 -30 48
-30 63 0 63 0 28 23 28 22 23 16 22 16 44 5 43 5 36 -32 37 -32 19 -63 20 -63
10 -73 10 -74 11 -240 11 -240 9 -95 10 -95 6 -60 6 -60 97 -2 96 -2 260 -17
260 -16 104 6 105 6 43 21 43 21 7 26 6 26 -17 46 -17 45 -14 60 -14 60 -16
120 -17 120 0 100 0 100 21 56 21 56 23 21 22 21 50 22 50 22 125 4 125 4 33
-20 32 -21 34 -53 34 -54 26 -62 25 -63 26 -102 25 -101 10 -90 10 -90 -10
-59 -9 -59 -18 -24 -18 -25 -17 -31 -18 -32 0 -54 0 -54 34 -32 35 -32 43 -11
43 -10 65 -7 65 -7 116 11 117 11 118 20 119 21 207 50 207 51 6 17 5 18 -34
104 -34 104 -27 119 -26 120 -35 223 -34 224 -11 52 -10 52 -16 50 -16 50 -24
38 -24 39 -37 15 -36 15 -45 -6 -44 -6 -46 -27 -46 -28 -29 -12 -28 -13 -39 0
-40 0 -33 14 -32 13 -39 34 -38 34 -23 50 -24 50 0 141 0 140 11 60 11 59 24
42 24 41 44 17 45 17 48 -7 48 -7 110 -36 110 -35 81 -5 82 -4 54 24 54 25 36
49 36 49 20 60 20 60 13 65 13 65 -2 270 -2 270 -8 35 -8 35 -25 -2 -24 -2
-450 -9 -450 -10 -55 -14 -55 -15 -32 -16 -31 -17 -21 -26 -21 -27 0 -45 0
-45 41 -88 40 -88 1 -59 1 -58 -20 -44 -20 -45 -28 -33 -28 -33 -46 -24 -47
-23 -46 -7 -46 -7 -56 16 -55 16 -52 52 -51 51 -28 60 -29 59 -12 71 -12 72 6
76 6 75 25 78 24 78 18 19 18 20 -10 17 -11 17 -24 6 -24 7 -175 -1 -175 0
-35 -4z"/>
</g>
</svg>
