<?xml version="1.0" standalone="no"?>
<!DOCTYPE svg PUBLIC "-//W3C//DTD SVG 20010904//EN"
 "http://www.w3.org/TR/2001/REC-SVG-20010904/DTD/svg10.dtd">
<svg version="1.0" xmlns="http://www.w3.org/2000/svg"
 width="341.000000pt" height="297.000000pt" viewBox="0 0 341.000000 297.000000"
 preserveAspectRatio="xMidYMid meet">
<metadata>
Created by potrace 1.16, written by Peter Selinger 2001-2019
</metadata>
<g transform="translate(0.000000,297.000000) scale(0.100000,-0.100000)"
fill="#000000" stroke="none">
<path d="M1265 2955 l-160 -13 -190 -12 -190 -12 -10 -3 -10 -2 8 -194 8 -194
-4 -180 -5 -180 -17 -75 -17 -75 -25 -50 -25 -50 -36 -33 -36 -32 -40 -11 -41
-11 -57 6 -58 6 -32 15 -33 15 -40 25 -40 25 -42 0 -41 0 -32 -26 -31 -27 -19
-38 -20 -38 -15 -63 -15 -63 0 -98 0 -97 19 -56 20 -55 34 -47 33 -47 48 -30
48 -29 54 0 53 0 28 22 28 22 23 17 24 17 52 4 53 4 36 -32 37 -32 19 -63 20
-63 10 -73 10 -74 11 -240 11 -240 9 -95 10 -95 6 -60 7 -60 96 -2 96 -2 260
-17 260 -16 95 6 95 7 43 20 42 21 6 23 6 23 -21 46 -20 46 -20 123 -21 122
-9 110 -10 110 8 65 9 65 16 40 17 40 20 22 21 21 51 23 52 22 135 4 135 4 33
-20 32 -21 34 -53 34 -54 26 -62 25 -63 26 -102 25 -101 10 -96 11 -97 -10
-62 -10 -62 -18 -25 -18 -25 -17 -31 -18 -32 0 -41 0 -41 20 -25 19 -25 35
-17 34 -16 77 -11 78 -10 117 10 116 11 120 20 119 21 207 50 206 50 5 12 5
12 -33 100 -33 100 -27 119 -26 120 -35 223 -34 224 -11 52 -10 52 -16 50 -16
50 -24 38 -24 39 -36 14 -36 15 -37 -6 -38 -6 -44 -27 -43 -27 -28 -13 -28
-12 -50 0 -50 0 -33 14 -32 13 -39 34 -38 34 -23 50 -24 50 0 151 0 150 11 60
11 59 24 42 24 41 45 18 45 17 56 -7 55 -6 112 -37 112 -36 71 -5 72 -4 54 24
54 25 36 49 36 49 20 60 20 60 13 65 13 65 -2 260 -2 260 -8 35 -8 34 -48 -3
-48 -3 -417 -8 -416 -8 -55 -14 -55 -15 -32 -16 -31 -17 -21 -26 -21 -27 0
-35 0 -35 41 -89 41 -89 1 -67 1 -67 -21 -45 -20 -45 -28 -33 -28 -33 -48 -24
-48 -25 -54 -6 -54 -6 -56 16 -56 16 -52 52 -51 51 -28 60 -29 59 -12 71 -12
72 6 85 6 85 24 78 25 79 16 17 17 18 -17 14 -17 14 -181 2 -181 1 -160 -13z"/>
</g>
</svg>
