<?xml version="1.0" standalone="no"?>
<!DOCTYPE svg PUBLIC "-//W3C//DTD SVG 20010904//EN"
 "http://www.w3.org/TR/2001/REC-SVG-20010904/DTD/svg10.dtd">
<svg version="1.0" xmlns="http://www.w3.org/2000/svg"
 width="360.000000pt" height="365.000000pt" viewBox="0 0 360.000000 365.000000"
 preserveAspectRatio="xMidYMid meet">
<metadata>
Created by potrace 1.16, written by Peter Selinger 2001-2019
</metadata>
<g transform="translate(0.000000,365.000000) scale(0.100000,-0.100000)"
fill="#000000" stroke="none">
<path d="M2065 3643 l-20 -4 -52 -15 -53 -15 -37 -32 -36 -32 -18 -40 -19 -40
1 -85 0 -85 23 -85 23 -85 18 -46 18 -46 -7 -27 -7 -27 -46 -29 -46 -29 -76
-18 -76 -18 -260 1 -260 1 -115 11 -115 12 -27 6 -26 6 5 -303 5 -304 -15 -85
-15 -85 -22 -60 -23 -59 -51 -51 -51 -51 -54 -17 -53 -17 -52 0 -51 0 -66 14
-67 14 -58 33 -58 33 -52 0 -53 0 -21 -19 -21 -19 -20 -33 -21 -34 -15 -52
-15 -52 -5 -165 -5 -165 15 -58 16 -59 33 -55 33 -55 48 -44 48 -43 57 -28 57
-28 86 -3 87 -4 43 22 44 21 35 19 35 20 32 0 32 0 21 -23 22 -22 15 -30 16
-30 14 -50 13 -50 10 -155 10 -155 11 -220 11 -220 -1 -26 -1 -25 257 -12 258
-11 314 -26 315 -27 43 7 43 6 0 24 0 24 -21 14 -20 15 -27 73 -26 74 0 140 0
140 27 81 27 81 39 60 39 61 47 27 46 27 68 -6 67 -7 46 -14 45 -13 43 -22 44
-22 52 -49 52 -50 28 -62 29 -62 -1 -115 0 -115 -37 -99 -37 -98 0 -40 0 -39
15 -29 15 -30 43 -22 42 -22 130 -4 130 -4 89 12 89 12 104 24 104 23 101 32
100 33 5 14 6 14 -22 36 -22 37 -59 120 -58 120 -36 112 -36 113 -49 202 -50
203 -20 59 -21 58 -21 35 -22 35 -31 19 -31 19 -35 0 -35 0 -33 -10 -34 -9
-39 -36 -40 -36 -17 3 -16 3 -23 34 -23 34 -11 36 -11 36 -5 95 -5 95 20 58
21 58 33 38 33 38 45 23 45 23 30 9 30 9 71 0 71 0 69 -16 69 -15 30 -12 30
-11 44 -20 44 -19 36 6 36 5 17 22 18 21 16 51 17 52 4 205 5 205 -16 278 -16
278 0 19 0 20 -16 0 -16 0 -158 -54 -157 -54 -140 -36 -140 -35 -105 -15 -106
-16 -65 0 -66 0 -53 11 -53 12 -32 32 -33 33 0 30 0 31 10 27 11 27 23 28 24
28 12 70 12 70 -16 105 -15 105 -33 88 -33 88 -40 59 -39 59 -45 28 -45 29
-85 -1 -86 -1 -20 -5z"/>
</g>
</svg>
