<?xml version="1.0" standalone="no"?>
<!DOCTYPE svg PUBLIC "-//W3C//DTD SVG 20010904//EN"
 "http://www.w3.org/TR/2001/REC-SVG-20010904/DTD/svg10.dtd">
<svg version="1.0" xmlns="http://www.w3.org/2000/svg"
 width="358.000000pt" height="363.000000pt" viewBox="0 0 358.000000 363.000000"
 preserveAspectRatio="xMidYMid meet">
<metadata>
Created by potrace 1.16, written by Peter Selinger 2001-2019
</metadata>
<g transform="translate(0.000000,363.000000) scale(0.100000,-0.100000)"
fill="#000000" stroke="none">
<path d="M2065 3623 l-20 -4 -52 -15 -53 -15 -37 -32 -36 -32 -18 -40 -19 -40
0 -70 0 -70 19 -80 20 -80 20 -48 21 -49 0 -29 0 -30 -10 -19 -10 -19 -43 -25
-42 -25 -70 -18 -70 -18 -275 1 -275 1 -115 10 -115 11 -16 7 -17 6 5 -303 5
-303 -15 -85 -15 -85 -22 -60 -23 -59 -51 -51 -51 -51 -54 -17 -53 -17 -62 0
-61 0 -66 14 -67 14 -57 33 -58 32 -43 0 -44 0 -20 -18 -21 -19 -20 -33 -21
-34 -15 -52 -15 -52 -5 -155 -5 -155 15 -58 16 -59 33 -55 33 -55 48 -44 48
-43 57 -28 57 -28 76 -3 77 -4 43 21 44 22 35 19 35 20 42 0 42 0 21 -22 22
-23 15 -30 16 -30 14 -50 13 -50 10 -155 10 -155 11 -220 12 -220 0 -26 0 -25
261 -12 261 -12 300 -25 300 -26 43 6 42 6 0 14 0 14 -21 14 -20 15 -27 73
-27 74 1 150 0 150 27 81 27 81 39 60 39 61 47 27 46 28 77 -7 77 -6 46 -14
46 -14 43 -22 44 -22 52 -49 52 -50 28 -62 29 -62 -1 -125 0 -125 -37 -99 -37
-98 0 -30 0 -29 15 -29 15 -30 43 -22 42 -22 120 -4 119 -4 90 12 89 12 105
24 105 24 96 31 96 31 8 8 8 7 -30 51 -31 50 -49 103 -49 104 -36 113 -37 114
-44 186 -45 187 -26 77 -25 77 -28 39 -29 39 -31 12 -31 13 -45 -6 -45 -7 -46
-40 -46 -40 -26 3 -26 3 -23 34 -23 34 -11 36 -11 36 -5 105 -5 105 20 58 21
58 33 38 33 38 55 27 55 27 60 8 60 8 68 -8 69 -9 41 -10 42 -11 30 -11 30
-11 44 -20 44 -19 31 9 31 8 22 45 22 45 11 65 10 65 0 169 0 168 -16 282 -16
281 -3 3 -3 3 -160 -55 -159 -54 -140 -36 -140 -35 -105 -15 -106 -16 -75 0
-76 0 -53 11 -53 12 -32 32 -33 33 0 40 0 41 10 27 11 27 23 28 24 28 11 65
12 66 -15 99 -15 100 -33 88 -33 88 -40 59 -39 59 -45 28 -45 29 -75 -1 -76
-1 -20 -5z"/>
</g>
</svg>
