<?xml version="1.0" standalone="no"?>
<!DOCTYPE svg PUBLIC "-//W3C//DTD SVG 20010904//EN"
 "http://www.w3.org/TR/2001/REC-SVG-20010904/DTD/svg10.dtd">
<svg version="1.0" xmlns="http://www.w3.org/2000/svg"
 width="430.000000pt" height="350.000000pt" viewBox="0 0 430.000000 350.000000"
 preserveAspectRatio="xMidYMid meet">
<metadata>
Created by potrace 1.16, written by Peter Selinger 2001-2019
</metadata>
<g transform="translate(0.000000,350.000000) scale(0.100000,-0.100000)"
fill="#000000" stroke="none">
<path d="M1295 3484 l-170 -14 -185 -8 -185 -7 1 -90 1 -90 4 -280 3 -280 -17
-80 -18 -80 -25 -53 -26 -52 -35 -28 -36 -27 -56 0 -56 1 -35 17 -35 17 -35
23 -35 22 -77 0 -76 0 -43 -30 -43 -31 -33 -42 -32 -43 -21 -67 -21 -66 -1
-91 -1 -90 22 -44 23 -43 32 -32 33 -31 24 -19 24 -18 70 -34 70 -34 84 -21
83 -21 117 4 116 3 67 38 66 37 27 0 26 0 20 -10 19 -11 21 -41 21 -42 5 -81
5 -80 -16 -104 -16 -104 -29 -116 -30 -116 -45 -131 -45 -130 -25 -58 -26 -58
0 -16 0 -15 98 6 97 6 196 11 196 12 114 -11 114 -10 52 -16 52 -15 31 -26 30
-26 0 -18 0 -19 -37 -72 -38 -71 -3 -73 -4 -73 17 -51 16 -50 44 -49 43 -48
64 -32 63 -32 70 -15 70 -15 75 0 76 0 80 10 81 10 51 18 50 17 36 29 36 28 0
47 0 46 -28 35 -29 35 -11 22 -12 22 0 32 0 31 38 38 37 37 65 21 65 22 269
45 270 45 87 25 86 25 46 19 46 20 7 27 7 28 -12 368 -13 368 7 87 7 88 13 61
14 61 21 35 20 35 24 13 25 13 41 -6 42 -5 32 -35 32 -35 45 -7 44 -6 69 11
69 11 61 20 61 20 55 31 55 30 42 34 41 34 22 46 23 46 -6 112 -6 111 -16 45
-16 45 -31 32 -32 33 -45 17 -46 18 -145 -1 -145 -1 -139 -27 -139 -27 -27
-19 -28 -20 -20 0 -20 0 -11 31 -11 32 0 91 0 91 14 225 15 225 7 193 7 192
-21 0 -21 0 -26 -10 -27 -10 -123 -25 -123 -25 -254 -30 -253 -30 -80 -15 -80
-16 -55 -27 -54 -27 -20 -27 -20 -28 1 -51 1 -51 21 -27 22 -26 21 -44 21 -45
-6 -69 -6 -69 -30 -65 -31 -65 -30 -39 -31 -38 -55 -32 -56 -32 -66 5 -67 5
-52 27 -53 26 0 10 0 10 -14 0 -14 0 -36 49 -36 49 -25 55 -26 55 -15 74 -16
73 6 115 5 115 21 84 21 85 19 31 20 32 0 25 0 25 -25 11 -26 12 -152 -1 -152
-2 -170 -13z"/>
</g>
</svg>
