<?xml version="1.0" standalone="no"?>
<!DOCTYPE svg PUBLIC "-//W3C//DTD SVG 20010904//EN"
 "http://www.w3.org/TR/2001/REC-SVG-20010904/DTD/svg10.dtd">
<svg version="1.0" xmlns="http://www.w3.org/2000/svg"
 width="428.000000pt" height="348.000000pt" viewBox="0 0 428.000000 348.000000"
 preserveAspectRatio="xMidYMid meet">
<metadata>
Created by potrace 1.16, written by Peter Selinger 2001-2019
</metadata>
<g transform="translate(0.000000,348.000000) scale(0.100000,-0.100000)"
fill="#000000" stroke="none">
<path d="M1295 3464 l-170 -14 -185 -8 -185 -7 1 -80 1 -80 4 -290 3 -290 -17
-80 -18 -80 -25 -53 -26 -52 -35 -28 -36 -27 -66 0 -66 0 -35 18 -35 17 -35
23 -35 22 -67 0 -66 0 -43 -30 -43 -31 -33 -42 -32 -43 -21 -66 -20 -66 -1
-82 -2 -81 22 -43 23 -43 32 -32 33 -31 24 -19 24 -18 70 -34 70 -34 84 -21
84 -21 106 4 106 3 67 38 66 37 37 0 36 0 20 -10 19 -11 21 -42 22 -42 4 -90
5 -90 -16 -104 -16 -104 -29 -116 -30 -116 -45 -131 -45 -130 -25 -59 -26 -58
5 -5 5 -5 168 11 167 12 125 6 125 6 110 -11 110 -10 52 -16 52 -15 31 -26 30
-26 0 -28 0 -29 -37 -71 -37 -71 -4 -64 -4 -63 17 -51 16 -50 44 -49 43 -48
64 -32 63 -32 70 -15 70 -15 65 0 66 0 80 10 81 10 51 18 50 17 36 29 36 28 0
37 0 36 -28 35 -29 35 -11 22 -12 22 0 42 0 41 37 38 38 37 65 21 65 22 269
45 270 45 87 25 86 25 46 19 46 20 7 27 7 26 -13 361 -12 360 7 96 6 96 14 61
14 61 21 35 20 35 24 13 25 13 51 -5 51 -5 32 -35 32 -35 37 -7 36 -7 68 11
67 11 61 20 61 20 55 31 55 30 42 34 41 34 23 46 22 46 -6 102 -6 101 -16 45
-16 45 -31 32 -32 33 -45 17 -46 18 -135 -1 -135 -1 -139 -27 -139 -27 -26
-18 -26 -18 -20 -6 -20 -7 -12 8 -12 7 -10 28 -11 28 0 102 0 102 15 230 14
230 7 178 7 177 -11 0 -11 0 -26 -10 -27 -10 -123 -25 -123 -25 -254 -30 -253
-30 -80 -15 -80 -16 -55 -27 -54 -27 -19 -26 -19 -27 0 -43 1 -43 21 -25 21
-26 21 -44 21 -45 -6 -78 -5 -78 -31 -66 -31 -66 -30 -39 -31 -38 -55 -32 -56
-31 -76 4 -77 5 -52 27 -53 26 0 10 0 10 -14 0 -14 0 -36 49 -36 49 -25 55
-26 55 -15 74 -16 73 5 125 6 125 21 84 21 85 19 31 20 32 0 15 0 15 -25 11
-26 12 -142 -1 -142 -2 -170 -13z"/>
</g>
</svg>
