<?xml version="1.0" standalone="no"?>
<!DOCTYPE svg PUBLIC "-//W3C//DTD SVG 20010904//EN"
 "http://www.w3.org/TR/2001/REC-SVG-20010904/DTD/svg10.dtd">
<svg version="1.0" xmlns="http://www.w3.org/2000/svg"
 width="296.000000pt" height="352.000000pt" viewBox="0 0 296.000000 352.000000"
 preserveAspectRatio="xMidYMid meet">
<metadata>
Created by potrace 1.16, written by Peter Selinger 2001-2019
</metadata>
<g transform="translate(0.000000,352.000000) scale(0.100000,-0.100000)"
fill="#000000" stroke="none">
<path d="M1344 3506 l-51 -12 -34 -20 -34 -20 -22 -34 -23 -33 0 -66 0 -66 11
-40 11 -40 34 -92 34 -92 0 -57 0 -57 -40 -38 -40 -39 -58 -17 -57 -18 -220 0
-220 0 -215 5 -215 5 -12 -215 -11 -215 -1 -195 -1 -195 10 -87 10 -86 19 -63
20 -62 32 -33 33 -34 57 0 56 0 74 34 74 34 52 11 51 10 51 -14 50 -15 35 -42
35 -41 17 -51 17 -51 0 -75 -1 -75 -20 -62 -20 -63 -31 -49 -32 -49 -48 -45
-48 -45 -53 -27 -52 -27 -68 -14 -68 -14 -53 10 -53 10 -54 31 -55 31 -52 5
-51 5 -31 -16 -31 -15 -22 -45 -21 -45 -6 -88 -5 -88 16 -111 16 -111 21 -79
20 -79 25 -75 26 -75 35 -82 35 -82 16 -6 17 -7 295 -6 296 -5 94 11 95 12 60
15 60 16 54 25 55 25 42 34 43 35 26 53 25 53 6 65 7 65 -13 72 -12 71 -17 23
-18 23 -17 32 -16 32 0 18 1 18 17 21 18 22 30 15 29 15 43 12 44 11 81 0 82
1 50 -13 50 -12 36 -18 36 -18 31 -36 32 -36 0 -22 0 -22 -23 -34 -22 -34 -17
-25 -17 -25 -6 -46 -6 -46 11 -30 11 -30 22 -24 22 -24 52 -23 51 -23 124 -25
123 -25 140 -26 140 -26 100 -25 100 -25 114 -46 114 -45 9 14 9 13 -6 30 -6
30 -14 100 -14 100 -16 253 -15 252 -16 88 -15 87 -21 45 -22 45 -24 22 -25
23 -59 0 -59 0 -29 -15 -30 -16 0 -8 0 -8 -34 -18 -33 -18 -60 5 -59 6 -64 32
-63 32 -54 51 -53 50 -31 63 -31 64 0 65 0 65 26 54 27 55 48 43 48 43 71 28
72 27 66 9 66 10 83 -10 83 -9 68 -21 69 -21 31 -19 31 -19 25 0 25 0 16 18
16 17 10 45 11 45 0 171 0 171 -14 219 -15 219 -6 113 -7 114 -14 5 -14 5
-103 -46 -103 -46 -134 -44 -135 -44 -110 -23 -110 -23 -120 0 -120 -1 -33 18
-33 18 -20 20 -19 19 0 36 0 36 36 106 37 107 4 110 5 110 -16 68 -16 68 -27
56 -27 55 -38 43 -39 44 -61 30 -61 31 -126 -1 -126 -1 -51 -12z"/>
</g>
</svg>
