<?xml version="1.0" standalone="no"?>
<!DOCTYPE svg PUBLIC "-//W3C//DTD SVG 20010904//EN"
 "http://www.w3.org/TR/2001/REC-SVG-20010904/DTD/svg10.dtd">
<svg version="1.0" xmlns="http://www.w3.org/2000/svg"
 width="294.000000pt" height="350.000000pt" viewBox="0 0 294.000000 350.000000"
 preserveAspectRatio="xMidYMid meet">
<metadata>
Created by potrace 1.16, written by Peter Selinger 2001-2019
</metadata>
<g transform="translate(0.000000,350.000000) scale(0.100000,-0.100000)"
fill="#000000" stroke="none">
<path d="M1344 3486 l-51 -12 -34 -20 -34 -20 -22 -34 -23 -33 0 -56 0 -56 11
-40 11 -40 35 -95 35 -94 0 -58 0 -58 -16 -25 -16 -25 -38 -25 -39 -25 -74
-16 -74 -16 -325 8 -325 8 -80 1 -80 0 -12 -215 -11 -215 -1 -185 -1 -185 10
-87 10 -86 19 -63 20 -62 32 -33 33 -34 47 0 46 0 74 34 74 34 58 12 57 11 54
-15 55 -16 35 -41 35 -42 18 -51 17 -51 -1 -85 -1 -85 -20 -62 -20 -63 -31
-49 -32 -49 -50 -47 -50 -46 -62 -29 -62 -29 -63 -11 -62 -11 -57 10 -56 11
-54 30 -53 30 -44 6 -43 6 -30 -16 -31 -15 -21 -44 -21 -44 -6 -79 -6 -79 16
-111 16 -111 21 -79 20 -79 25 -75 26 -75 35 -82 35 -82 16 -6 17 -7 285 -5
286 -6 94 11 95 12 60 15 60 16 54 25 55 25 42 34 43 35 25 53 26 52 6 56 6
56 -12 71 -12 71 -17 23 -18 23 -17 32 -16 32 0 28 1 28 19 23 19 23 45 20 46
20 76 8 75 9 67 -9 67 -8 31 -9 30 -10 31 -15 30 -16 32 -36 31 -36 0 -32 0
-32 -18 -26 -17 -26 -19 -27 -18 -26 -9 -41 -10 -42 11 -32 10 -32 28 -26 27
-26 48 -20 47 -20 123 -25 122 -25 140 -26 140 -26 112 -29 112 -29 95 -39 95
-39 6 14 5 15 -4 7 -5 7 -15 115 -16 114 -15 248 -16 247 -15 88 -15 87 -21
45 -22 45 -24 22 -25 23 -49 0 -49 0 -29 -15 -30 -16 0 -8 0 -8 -33 -18 -34
-18 -69 5 -69 5 -64 32 -64 33 -54 51 -53 50 -32 64 -31 64 0 74 0 73 27 56
27 55 48 43 48 43 71 28 72 27 70 10 71 10 87 -10 87 -10 55 -15 55 -16 53
-27 53 -26 17 10 17 11 15 29 15 29 3 167 4 168 -16 252 -16 253 -6 98 -7 97
-7 5 -8 5 -87 -41 -88 -40 -146 -49 -146 -48 -110 -23 -110 -23 -130 -1 -130
0 -47 28 -47 27 -6 21 -7 21 0 32 0 32 37 109 37 109 5 100 5 101 -16 68 -16
68 -27 56 -27 55 -38 43 -39 44 -61 30 -61 31 -116 -1 -116 -1 -51 -12z"/>
</g>
</svg>
