<?xml version="1.0" standalone="no"?>
<!DOCTYPE svg PUBLIC "-//W3C//DTD SVG 20010904//EN"
 "http://www.w3.org/TR/2001/REC-SVG-20010904/DTD/svg10.dtd">
<svg version="1.0" xmlns="http://www.w3.org/2000/svg"
 width="305.000000pt" height="293.000000pt" viewBox="0 0 305.000000 293.000000"
 preserveAspectRatio="xMidYMid meet">
<metadata>
Created by potrace 1.16, written by Peter Selinger 2001-2019
</metadata>
<g transform="translate(0.000000,293.000000) scale(0.100000,-0.100000)"
fill="#000000" stroke="none">
<path d="M349 2923 l-97 -4 -7 -103 -7 -102 0 -230 0 -229 15 -80 15 -80 22
-58 22 -58 31 -41 32 -42 50 -25 50 -26 85 1 85 0 119 42 119 42 53 0 53 0 31
-28 31 -29 15 -49 16 -49 5 -137 6 -137 -12 -63 -13 -63 -25 -50 -24 -50 -32
-33 -32 -33 -51 -29 -50 -29 -65 -16 -64 -15 -102 0 -101 0 -114 19 -113 20
-65 20 -65 21 -46 0 -46 0 -21 -23 -21 -22 -16 -37 -15 -37 0 -105 0 -104 16
-83 15 -84 26 -90 26 -90 39 -100 39 -100 43 -85 43 -85 104 -6 104 -7 335 -7
335 -8 75 12 75 12 45 23 45 23 23 33 22 33 0 61 0 61 -11 40 -11 40 -33 55
-33 55 -7 32 -6 31 11 41 11 42 42 43 42 43 58 22 58 21 45 0 45 0 27 -14 27
-14 31 -34 32 -33 27 -45 28 -44 27 -76 28 -75 11 -70 10 -70 -9 -40 -9 -40
-26 -22 -25 -22 -10 -26 -10 -26 0 -45 0 -45 14 -27 14 -28 49 -24 48 -25 185
0 185 1 155 27 155 27 150 36 150 35 38 6 39 6 -5 26 -5 26 33 200 34 200 16
145 17 145 -4 150 -4 150 -20 45 -21 45 -21 18 -20 19 -40 5 -40 5 -94 -43
-93 -44 -115 0 -115 1 -65 17 -65 17 -70 34 -70 35 -46 35 -45 36 -22 39 -22
39 -6 43 -6 44 15 98 15 99 32 64 31 63 42 37 42 36 34 15 34 14 67 6 67 6 77
-17 77 -18 86 -29 87 -29 42 0 41 0 27 21 27 21 18 36 19 37 11 40 12 40 9
105 10 105 -11 285 -12 285 -8 9 -7 8 -59 -20 -59 -21 -68 -15 -67 -16 -232
-30 -232 -30 -80 -25 -80 -24 -33 -34 -33 -34 -5 -35 -6 -36 12 -38 13 -39 27
-27 28 -27 6 -33 5 -33 -8 -36 -8 -36 -24 -47 -23 -47 -56 -53 -56 -54 -50
-25 -49 -25 -54 -16 -55 -16 -75 0 -76 0 -41 19 -41 19 -42 43 -41 43 -20 53
-20 54 0 62 0 62 11 40 11 40 30 69 30 69 -4 67 -3 67 -29 38 -29 37 -71 34
-71 33 -75 17 -75 17 -305 2 -305 2 -96 -4z"/>
</g>
</svg>
