<?xml version="1.0" standalone="no"?>
<!DOCTYPE svg PUBLIC "-//W3C//DTD SVG 20010904//EN"
 "http://www.w3.org/TR/2001/REC-SVG-20010904/DTD/svg10.dtd">
<svg version="1.0" xmlns="http://www.w3.org/2000/svg"
 width="303.000000pt" height="291.000000pt" viewBox="0 0 303.000000 291.000000"
 preserveAspectRatio="xMidYMid meet">
<metadata>
Created by potrace 1.16, written by Peter Selinger 2001-2019
</metadata>
<g transform="translate(0.000000,291.000000) scale(0.100000,-0.100000)"
fill="#000000" stroke="none">
<path d="M349 2903 l-97 -4 -7 -102 -6 -102 0 -220 0 -220 14 -80 15 -80 22
-58 22 -58 31 -41 32 -42 50 -25 50 -26 75 1 75 1 119 41 119 42 63 0 63 0 31
-28 31 -29 15 -49 16 -49 5 -147 6 -147 -13 -63 -12 -63 -25 -50 -24 -50 -32
-33 -32 -33 -51 -29 -50 -29 -65 -16 -64 -15 -112 0 -111 0 -114 19 -113 20
-65 20 -65 21 -36 0 -36 0 -21 -23 -21 -22 -16 -37 -15 -37 0 -95 0 -94 16
-83 15 -84 26 -90 26 -90 39 -100 39 -100 43 -85 43 -85 104 -6 104 -7 325 -7
325 -8 75 12 75 12 45 23 45 23 23 33 22 33 0 52 0 52 -13 44 -14 44 -31 49
-31 49 -6 42 -7 41 12 43 11 42 42 43 42 43 58 22 58 21 55 0 55 0 27 -14 27
-14 31 -34 32 -33 27 -45 28 -44 27 -76 28 -75 11 -76 12 -76 -10 -44 -10 -44
-26 -22 -25 -22 -10 -26 -10 -26 0 -35 0 -35 14 -27 14 -28 49 -24 48 -25 175
0 175 1 155 27 155 27 150 36 150 35 38 6 37 6 -5 18 -6 18 35 208 35 208 16
145 17 145 -4 140 -4 140 -18 40 -17 40 -21 22 -21 23 -33 6 -33 6 -93 -43
-93 -44 -125 0 -125 0 -65 18 -65 17 -70 34 -70 35 -46 35 -45 36 -23 40 -22
40 -6 53 -5 52 15 98 15 99 32 64 31 63 42 37 42 36 35 15 35 15 76 5 76 6 77
-17 77 -18 86 -29 87 -29 32 0 31 0 27 21 27 21 18 37 19 36 12 45 12 45 9 95
9 95 -11 275 -11 275 -4 13 -4 12 -33 -14 -34 -14 -84 -21 -84 -20 -235 -31
-235 -30 -80 -25 -80 -24 -32 -33 -32 -33 -6 -27 -7 -27 13 -38 12 -38 27 -27
28 -27 6 -36 7 -35 -7 -37 -7 -38 -25 -53 -25 -52 -57 -54 -56 -54 -50 -25
-49 -25 -54 -16 -55 -16 -85 0 -86 0 -41 19 -41 19 -42 43 -41 43 -20 53 -20
54 0 72 0 72 11 40 11 40 30 69 30 69 -4 58 -4 57 -28 37 -29 37 -71 34 -71
33 -75 17 -75 16 -295 3 -295 2 -96 -4z"/>
</g>
</svg>
