<?xml version="1.0" standalone="no"?>
<!DOCTYPE svg PUBLIC "-//W3C//DTD SVG 20010904//EN"
 "http://www.w3.org/TR/2001/REC-SVG-20010904/DTD/svg10.dtd">
<svg version="1.0" xmlns="http://www.w3.org/2000/svg"
 width="434.000000pt" height="372.000000pt" viewBox="0 0 434.000000 372.000000"
 preserveAspectRatio="xMidYMid meet">
<metadata>
Created by potrace 1.16, written by Peter Selinger 2001-2019
</metadata>
<g transform="translate(0.000000,372.000000) scale(0.100000,-0.100000)"
fill="#000000" stroke="none">
<path d="M2060 3710 l-75 -8 -45 -12 -45 -12 -36 -19 -36 -18 -27 -31 -26 -32
0 -27 0 -27 17 -24 17 -25 18 -15 17 -15 15 -77 16 -77 0 -44 0 -44 -15 -44
-16 -44 -36 -37 -36 -37 -47 -20 -47 -20 -69 -11 -69 -12 -205 1 -205 0 -163
7 -162 7 0 -44 0 -44 15 -250 15 -250 0 -165 0 -165 -11 -65 -10 -65 -19 -42
-19 -43 -26 -10 -26 -10 -42 18 -42 19 -30 11 -30 11 -42 11 -41 10 -74 10
-74 9 -67 -9 -66 -10 -53 -26 -53 -27 -33 -38 -33 -38 -21 -58 -20 -58 5 -115
5 -115 11 -36 11 -36 23 -34 23 -34 36 -3 36 -3 45 40 46 39 40 7 39 6 31 -16
31 -16 25 -37 24 -37 21 -60 21 -60 50 -203 49 -202 36 -113 35 -112 70 -140
69 -140 15 -19 14 -19 398 -1 398 -1 57 23 58 23 29 36 30 36 12 50 12 50 -7
91 -6 91 -20 78 -20 78 -31 39 -32 40 18 20 17 19 32 11 32 10 99 10 100 9 90
1 90 0 40 -19 40 -18 48 -52 48 -51 34 -73 35 -72 21 -80 21 -80 1 -75 0 -75
-16 -30 -17 -30 -22 -28 -22 -27 -4 -64 -4 -64 36 -35 36 -35 51 -12 52 -13
131 6 131 6 120 25 120 25 100 30 100 30 133 48 132 48 0 15 0 15 -35 170 -35
170 -20 145 -21 145 -1 120 -1 120 17 59 17 59 29 28 28 29 29 0 29 0 60 -36
59 -36 60 -9 60 -10 83 11 84 11 64 23 64 23 56 34 57 34 42 40 43 40 28 50
29 50 3 101 4 102 -11 88 -12 89 -27 55 -27 54 -26 19 -26 18 -40 9 -40 9 -56
-9 -55 -9 -79 -32 -78 -33 -76 0 -75 -1 -43 28 -42 28 -30 47 -29 46 -19 51
-19 50 -17 100 -17 100 3 280 4 279 -35 7 -35 8 -110 10 -110 11 -240 10 -240
11 -90 15 -90 15 -52 23 -51 24 -18 28 -19 27 1 37 1 37 37 81 37 81 6 50 6
49 -7 37 -7 36 -35 38 -34 39 -48 20 -48 21 -54 6 -55 6 -40 3 -40 3 -75 -7z"/>
</g>
</svg>
