<?xml version="1.0" standalone="no"?>
<!DOCTYPE svg PUBLIC "-//W3C//DTD SVG 20010904//EN"
 "http://www.w3.org/TR/2001/REC-SVG-20010904/DTD/svg10.dtd">
<svg version="1.0" xmlns="http://www.w3.org/2000/svg"
 width="432.000000pt" height="370.000000pt" viewBox="0 0 432.000000 370.000000"
 preserveAspectRatio="xMidYMid meet">
<metadata>
Created by potrace 1.16, written by Peter Selinger 2001-2019
</metadata>
<g transform="translate(0.000000,370.000000) scale(0.100000,-0.100000)"
fill="#000000" stroke="none">
<path d="M2060 3690 l-75 -7 -56 -16 -55 -16 -34 -23 -33 -23 -20 -27 -20 -26
7 -25 6 -24 29 -29 29 -29 16 -77 16 -77 0 -54 0 -54 -15 -44 -16 -44 -36 -37
-36 -37 -47 -20 -47 -20 -69 -12 -69 -11 -220 0 -220 1 -147 7 -148 7 0 -34 0
-34 15 -250 15 -250 0 -175 0 -175 -10 -65 -11 -65 -22 -45 -22 -45 -31 -8
-31 -9 -44 19 -44 20 -30 11 -30 11 -42 11 -41 10 -69 9 -68 8 -60 -8 -60 -8
-55 -27 -55 -27 -33 -38 -33 -38 -21 -58 -20 -58 5 -105 5 -105 11 -36 11 -36
23 -34 23 -34 26 -3 26 -3 46 40 46 40 45 7 45 6 31 -13 31 -12 29 -39 28 -39
25 -77 26 -77 45 -187 44 -186 36 -114 36 -113 70 -140 69 -140 15 -19 14 -19
388 -1 388 -1 57 23 58 23 29 36 30 36 12 50 12 50 -7 81 -6 81 -20 78 -20 78
-31 38 -31 39 4 17 3 18 25 18 25 19 55 10 55 11 157 6 157 6 44 -17 45 -17
51 -54 52 -55 34 -72 35 -73 21 -80 21 -80 1 -85 1 -85 -17 -30 -17 -30 -22
-27 -21 -27 -5 -55 -4 -54 36 -35 36 -35 51 -12 52 -13 116 6 116 5 108 22
109 21 121 35 121 36 126 45 125 46 3 2 3 3 -36 174 -35 175 -21 144 -20 144
-1 130 -2 130 18 59 17 59 29 28 28 29 39 0 39 0 60 -36 59 -36 55 -9 55 -9
79 11 79 10 63 23 64 23 56 34 57 34 42 40 43 40 28 50 28 49 4 92 4 91 -11
89 -12 89 -27 55 -27 54 -26 19 -26 18 -35 8 -36 8 -50 -8 -50 -7 -78 -33 -79
-33 -86 0 -85 -1 -43 28 -42 28 -30 47 -29 46 -19 51 -19 50 -17 100 -17 100
3 280 4 279 -35 8 -35 7 -110 10 -110 11 -240 10 -240 11 -90 15 -90 15 -52
23 -51 24 -19 28 -18 28 1 46 0 45 37 80 36 80 7 42 6 42 -6 36 -7 36 -35 38
-34 39 -49 21 -49 21 -58 5 -59 6 -25 3 -25 2 -75 -6z"/>
</g>
</svg>
