<?xml version="1.0" standalone="no"?>
<!DOCTYPE svg PUBLIC "-//W3C//DTD SVG 20010904//EN"
 "http://www.w3.org/TR/2001/REC-SVG-20010904/DTD/svg10.dtd">
<svg version="1.0" xmlns="http://www.w3.org/2000/svg"
 width="363.000000pt" height="364.000000pt" viewBox="0 0 363.000000 364.000000"
 preserveAspectRatio="xMidYMid meet">
<metadata>
Created by potrace 1.16, written by Peter Selinger 2001-2019
</metadata>
<g transform="translate(0.000000,364.000000) scale(0.100000,-0.100000)"
fill="#000000" stroke="none">
<path d="M811 3633 l-134 -4 7 -127 7 -127 15 -230 16 -230 -4 -125 -4 -125
-15 -30 -14 -30 -23 -3 -23 -4 -32 25 -32 24 -32 17 -32 16 -58 6 -58 6 -63
-16 -62 -16 -47 -24 -48 -24 -46 -49 -46 -48 -21 -30 -20 -31 -22 -64 -22 -65
5 -120 4 -120 17 -45 17 -45 25 -27 26 -26 25 -7 25 -6 37 12 36 12 42 30 42
30 49 5 48 4 33 -28 33 -28 18 -41 17 -41 16 -70 16 -70 31 -249 31 -250 25
-123 24 -124 23 -66 22 -67 325 4 325 3 82 -11 82 -12 49 -14 48 -15 45 -30
46 -30 26 -49 27 -49 0 -62 0 -62 -41 -121 -41 -122 -5 -75 -6 -76 21 -40 20
-40 44 -22 44 -22 70 -10 69 -10 81 0 80 0 52 26 52 26 41 51 42 52 29 64 30
64 20 76 21 76 0 135 1 135 -21 55 -21 55 -23 61 -23 61 22 34 21 35 53 19 53
20 105 -1 105 -1 100 -18 100 -17 158 -39 157 -40 115 -39 115 -40 5 0 5 0 0
13 0 13 53 106 54 105 32 89 32 88 25 94 24 94 8 92 9 92 -8 67 -8 66 -16 31
-16 32 -35 14 -35 15 -37 -7 -37 -6 -40 -28 -40 -28 -40 -11 -40 -11 -51 0
-50 0 -60 11 -59 10 -65 21 -65 21 -47 23 -46 24 -39 25 -38 26 -53 51 -52 52
-32 64 -32 65 -4 96 -4 96 16 92 16 92 21 55 20 56 26 20 26 20 12 0 13 0 41
-34 41 -34 68 -12 69 -13 84 5 84 5 52 22 53 23 41 45 41 44 23 52 24 52 18
80 18 80 -2 303 -1 303 -6 7 -6 6 -94 -47 -93 -47 -106 -34 -105 -34 -194 -42
-193 -41 -73 -20 -73 -19 -48 -25 -48 -24 -15 -23 -15 -23 -8 -23 -7 -24 6
-43 7 -43 40 -41 41 -42 -7 -27 -7 -27 -23 -30 -23 -31 -49 -26 -49 -27 -59
-16 -59 -15 -88 0 -87 0 -53 11 -53 11 -40 21 -40 20 -28 30 -27 31 -11 39
-10 38 11 57 12 57 31 70 30 70 5 78 5 79 -24 49 -23 50 -70 34 -71 35 -89 15
-89 15 -231 -2 -231 -2 -134 -3z"/>
</g>
</svg>
