<?xml version="1.0" standalone="no"?>
<!DOCTYPE svg PUBLIC "-//W3C//DTD SVG 20010904//EN"
 "http://www.w3.org/TR/2001/REC-SVG-20010904/DTD/svg10.dtd">
<svg version="1.0" xmlns="http://www.w3.org/2000/svg"
 width="361.000000pt" height="362.000000pt" viewBox="0 0 361.000000 362.000000"
 preserveAspectRatio="xMidYMid meet">
<metadata>
Created by potrace 1.16, written by Peter Selinger 2001-2019
</metadata>
<g transform="translate(0.000000,362.000000) scale(0.100000,-0.100000)"
fill="#000000" stroke="none">
<path d="M811 3613 l-134 -4 7 -122 7 -122 15 -205 14 -205 0 -127 0 -127 -11
-51 -11 -51 -22 -15 -23 -14 -19 6 -19 7 -30 22 -30 22 -31 16 -31 16 -50 6
-49 7 -62 -16 -62 -16 -47 -24 -48 -24 -46 -49 -46 -48 -21 -30 -20 -31 -22
-64 -22 -65 5 -110 5 -110 16 -45 17 -44 22 -24 22 -24 22 -9 22 -8 33 11 33
11 43 30 43 31 57 4 58 4 33 -28 33 -28 18 -41 17 -41 16 -70 16 -70 31 -249
31 -250 25 -123 24 -124 23 -66 22 -67 325 4 325 3 82 -11 82 -12 49 -14 48
-15 45 -30 46 -30 26 -49 27 -49 0 -72 0 -72 -41 -121 -41 -122 -5 -65 -6 -66
21 -40 20 -40 44 -22 44 -22 70 -10 69 -10 71 0 70 0 52 26 52 26 41 51 42 52
29 64 30 64 18 74 19 74 7 87 6 87 -12 65 -12 65 -30 68 -30 69 -5 33 -5 34
20 33 21 34 53 19 53 20 115 -1 115 -1 100 -18 100 -17 155 -39 155 -39 104
-35 104 -35 13 18 14 17 55 110 54 110 40 121 39 120 16 84 17 85 0 86 0 85
-7 30 -7 29 -14 28 -14 29 -33 13 -32 14 -36 -8 -36 -8 -33 -26 -34 -25 -40
-11 -40 -11 -61 0 -60 0 -60 11 -59 10 -65 21 -65 21 -47 23 -46 24 -39 25
-38 26 -53 51 -52 52 -32 64 -32 65 -4 99 -4 98 12 81 11 82 21 65 20 65 28
29 28 28 25 0 25 0 41 -34 41 -34 69 -12 69 -13 73 5 74 5 52 23 53 22 39 43
40 43 20 39 19 39 16 61 16 61 11 103 11 104 -7 227 -7 226 -87 -44 -87 -43
-106 -35 -106 -34 -218 -47 -219 -47 -60 -19 -60 -19 -39 -22 -39 -23 -20 -37
-19 -38 7 -39 6 -39 41 -42 40 -41 -5 -35 -6 -36 -24 -32 -25 -32 -49 -26 -49
-27 -59 -16 -59 -15 -98 0 -97 0 -53 11 -53 11 -40 21 -40 20 -28 30 -27 31
-11 40 -11 41 12 65 11 65 31 70 31 70 5 68 5 68 -23 50 -24 50 -70 34 -71 35
-89 15 -89 15 -221 -2 -221 -2 -134 -3z"/>
</g>
</svg>
