<?xml version="1.0" standalone="no"?>
<!DOCTYPE svg PUBLIC "-//W3C//DTD SVG 20010904//EN"
 "http://www.w3.org/TR/2001/REC-SVG-20010904/DTD/svg10.dtd">
<svg version="1.0" xmlns="http://www.w3.org/2000/svg"
 width="380.000000pt" height="367.000000pt" viewBox="0 0 380.000000 367.000000"
 preserveAspectRatio="xMidYMid meet">
<metadata>
Created by potrace 1.16, written by Peter Selinger 2001-2019
</metadata>
<g transform="translate(0.000000,367.000000) scale(0.100000,-0.100000)"
fill="#000000" stroke="none">
<path d="M977 3663 l-108 -4 7 -92 8 -92 0 -205 0 -205 -13 -65 -13 -65 -20
-60 -20 -60 -36 -49 -36 -49 -54 -25 -54 -25 -62 5 -61 5 -114 37 -114 37 -63
6 -64 6 -45 -17 -45 -18 -24 -41 -24 -42 -11 -59 -11 -60 0 -160 0 -161 24
-50 23 -50 38 -34 39 -34 32 -13 33 -14 59 0 60 0 33 15 34 14 30 21 30 20 37
10 37 11 35 -15 35 -14 24 -39 24 -38 16 -50 16 -50 10 -52 11 -52 34 -224 35
-223 26 -120 27 -119 29 -91 29 -91 0 -22 0 -22 33 6 32 6 340 2 340 2 72 -23
73 -23 37 -32 36 -32 19 -43 19 -43 0 -63 0 -62 -15 -68 -16 -68 -30 -85 -30
-85 -6 -54 -7 -54 17 -44 17 -44 23 -16 23 -15 59 -17 59 -17 180 -1 180 -1
59 24 59 23 72 73 73 72 41 84 41 84 21 80 22 80 0 135 1 135 -21 55 -21 55
-20 55 -20 54 12 31 12 30 49 25 50 25 90 -1 90 -2 100 -22 100 -22 108 -39
109 -38 105 -56 106 -55 8 0 7 0 32 78 33 77 39 115 39 115 29 116 30 116 16
104 16 104 -4 100 -5 100 -21 42 -22 42 -19 11 -20 10 -46 0 -47 0 -66 -37
-67 -37 -96 -4 -96 -4 -84 21 -84 21 -70 34 -70 34 -24 18 -24 19 -33 31 -32
32 -22 43 -22 43 4 90 5 91 23 60 23 59 52 52 52 52 43 12 42 11 39 -6 39 -7
37 -25 38 -26 43 -15 43 -14 59 4 58 4 35 27 35 27 26 52 25 53 15 76 16 76 6
124 7 124 -13 255 -12 255 -4 4 -4 4 -92 -31 -93 -32 -86 -20 -87 -20 -226
-35 -227 -35 -65 -15 -64 -15 -50 -25 -51 -26 -19 -32 -20 -32 0 -30 0 -30 10
-34 10 -34 24 -26 25 -26 10 -28 11 -29 -11 -41 -11 -41 -48 -47 -48 -47 -58
-22 -59 -23 -100 -5 -100 -4 -68 16 -69 16 -44 26 -45 26 -24 37 -25 36 0 35
0 35 25 40 24 40 12 25 12 25 5 84 4 84 -12 40 -11 39 -42 45 -41 45 -48 24
-47 24 -73 20 -73 20 -95 10 -95 10 -160 -2 -160 -2 -108 -3z"/>
</g>
</svg>
