<?xml version="1.0" standalone="no"?>
<!DOCTYPE svg PUBLIC "-//W3C//DTD SVG 20010904//EN"
 "http://www.w3.org/TR/2001/REC-SVG-20010904/DTD/svg10.dtd">
<svg version="1.0" xmlns="http://www.w3.org/2000/svg"
 width="378.000000pt" height="365.000000pt" viewBox="0 0 378.000000 365.000000"
 preserveAspectRatio="xMidYMid meet">
<metadata>
Created by potrace 1.16, written by Peter Selinger 2001-2019
</metadata>
<g transform="translate(0.000000,365.000000) scale(0.100000,-0.100000)"
fill="#000000" stroke="none">
<path d="M977 3643 l-109 -4 8 -67 7 -67 0 -230 1 -230 -13 -65 -13 -65 -20
-60 -20 -60 -36 -49 -36 -49 -54 -25 -54 -24 -72 4 -71 5 -112 36 -112 37 -55
6 -56 7 -45 -17 -45 -18 -24 -41 -24 -42 -11 -59 -11 -60 0 -150 0 -151 24
-50 23 -50 38 -34 39 -34 32 -13 33 -14 50 0 50 0 28 12 28 13 43 27 44 27 38
6 37 6 36 -15 36 -14 24 -39 24 -38 16 -50 16 -50 10 -52 11 -52 34 -224 35
-223 26 -120 27 -119 31 -95 32 -95 -2 -15 -2 -15 237 8 237 8 140 -5 140 -4
68 -22 67 -21 37 -32 36 -32 20 -44 19 -44 0 -71 0 -71 -16 -69 -16 -68 -29
-83 -29 -82 -7 -47 -7 -47 16 -44 17 -43 23 -16 23 -15 59 -17 59 -17 170 -1
170 -1 59 24 59 23 72 73 73 72 41 84 41 84 21 80 21 80 1 125 1 125 -23 60
-23 60 -20 56 -20 56 16 37 15 37 48 22 48 22 100 -1 100 -1 100 -23 100 -22
108 -39 109 -38 103 -55 104 -54 32 77 32 76 39 115 39 115 29 116 30 116 16
104 16 104 -5 90 -4 90 -22 42 -21 42 -19 11 -20 10 -36 0 -37 0 -66 -37 -67
-38 -106 -3 -106 -4 -84 21 -84 21 -70 34 -70 34 -24 18 -24 19 -33 31 -32 32
-23 43 -22 43 2 81 1 82 20 66 21 66 32 43 33 42 43 31 43 30 66 0 67 0 35
-22 35 -23 35 -17 35 -18 66 0 66 0 36 27 35 28 26 52 25 53 15 75 15 75 7
120 6 120 -12 250 -12 250 -2 2 -2 2 -69 -25 -70 -26 -100 -24 -100 -24 -227
-35 -227 -34 -68 -16 -68 -16 -50 -27 -49 -27 -19 -33 -19 -33 6 -44 7 -44 34
-41 33 -40 7 -29 6 -29 -11 -43 -12 -43 -48 -47 -48 -47 -58 -23 -59 -22 -110
-5 -110 -4 -68 16 -69 16 -44 26 -45 26 -24 37 -25 36 0 45 0 45 25 40 24 40
12 25 12 25 5 74 4 74 -12 39 -11 40 -42 45 -41 45 -48 24 -47 24 -73 20 -73
20 -95 10 -95 10 -150 -2 -150 -2 -108 -3z"/>
</g>
</svg>
