<?xml version="1.0" standalone="no"?>
<!DOCTYPE svg PUBLIC "-//W3C//DTD SVG 20010904//EN"
 "http://www.w3.org/TR/2001/REC-SVG-20010904/DTD/svg10.dtd">
<svg version="1.0" xmlns="http://www.w3.org/2000/svg"
 width="301.000000pt" height="370.000000pt" viewBox="0 0 301.000000 370.000000"
 preserveAspectRatio="xMidYMid meet">
<metadata>
Created by potrace 1.16, written by Peter Selinger 2001-2019
</metadata>
<g transform="translate(0.000000,370.000000) scale(0.100000,-0.100000)"
fill="#000000" stroke="none">
<path d="M1143 3690 l-41 -9 -40 -20 -40 -20 -20 -26 -21 -26 -15 -47 -14 -47
-6 -60 -6 -60 10 -110 10 -110 21 -122 20 -123 20 -44 19 -44 -6 -16 -6 -15
-41 -20 -42 -20 -95 -7 -95 -6 -240 16 -240 15 -110 6 -110 6 -11 -8 -10 -8
-17 -280 -18 -280 1 -180 0 -180 10 -70 10 -70 12 -30 11 -30 21 -17 21 -18
25 0 26 0 19 14 20 13 90 21 90 21 84 12 84 12 74 -7 75 -6 46 -20 47 -21 32
-31 32 -31 19 -46 20 -46 7 -55 6 -55 -15 -73 -15 -73 -27 -48 -26 -49 -28
-34 -28 -34 -41 -28 -40 -28 -41 -14 -40 -14 -34 14 -34 14 -7 21 -6 20 -37
11 -37 10 -42 0 -43 0 -40 -36 -40 -36 -24 -78 -25 -78 -26 -173 -25 -174 -20
-110 -20 -110 -19 -65 -18 -65 -28 -68 -27 -68 6 -6 5 -6 328 -5 328 -5 90 12
90 12 78 21 77 20 58 37 57 37 32 37 32 37 16 52 15 52 0 54 0 55 -11 61 -11
61 -31 20 -31 20 -4 13 -4 12 32 30 32 30 65 20 65 20 88 0 87 0 89 -15 89
-16 53 -25 52 -25 0 -14 0 -14 -29 -15 -29 -15 -12 -51 -12 -51 6 -34 7 -34
24 -29 24 -29 60 -27 60 -27 213 -49 213 -50 95 -31 95 -31 70 -35 70 -35 33
-25 32 -24 18 3 17 3 36 85 37 85 45 135 46 135 30 120 30 120 17 103 16 104
-4 116 -4 117 -20 37 -19 36 -27 16 -26 16 -35 0 -34 0 -34 -12 -34 -11 -23
-22 -22 -22 -46 -13 -45 -13 -78 6 -77 6 -85 27 -84 26 -40 20 -40 21 -43 30
-43 31 -21 34 -21 34 6 58 5 58 27 53 26 54 51 52 51 52 49 21 48 21 48 9 47
9 48 -11 47 -10 50 -34 50 -34 40 0 40 0 14 23 14 22 11 59 11 60 0 155 0 156
-20 305 -20 305 0 3 0 2 -19 0 -19 0 -203 -50 -204 -49 -119 -21 -118 -20
-112 -10 -111 -11 -74 11 -74 10 -34 16 -34 17 -19 25 -20 25 0 31 0 31 18 32
17 31 18 25 18 25 10 66 11 67 -12 105 -11 105 -25 99 -25 99 -25 62 -26 62
-34 54 -34 53 -32 20 -33 20 -120 -1 -120 -1 -42 -8z"/>
</g>
</svg>
