<?xml version="1.0" standalone="no"?>
<!DOCTYPE svg PUBLIC "-//W3C//DTD SVG 20010904//EN"
 "http://www.w3.org/TR/2001/REC-SVG-20010904/DTD/svg10.dtd">
<svg version="1.0" xmlns="http://www.w3.org/2000/svg"
 width="299.000000pt" height="368.000000pt" viewBox="0 0 299.000000 368.000000"
 preserveAspectRatio="xMidYMid meet">
<metadata>
Created by potrace 1.16, written by Peter Selinger 2001-2019
</metadata>
<g transform="translate(0.000000,368.000000) scale(0.100000,-0.100000)"
fill="#000000" stroke="none">
<path d="M1143 3670 l-41 -9 -39 -19 -38 -20 -17 -19 -17 -19 -17 -39 -16 -40
-9 -65 -8 -65 10 -110 9 -110 21 -122 20 -123 20 -46 21 -46 -6 -23 -6 -23
-43 -21 -42 -21 -100 -6 -100 -6 -255 16 -255 16 -90 5 -90 6 -11 -8 -10 -8
-17 -280 -18 -280 1 -167 0 -167 11 -75 10 -76 14 -33 14 -33 26 -14 26 -14
32 17 32 17 85 19 85 20 84 12 84 12 83 -6 84 -6 47 -21 48 -21 32 -31 32 -31
20 -46 19 -46 7 -60 7 -60 -11 -65 -12 -65 -31 -65 -31 -64 -47 -47 -47 -47
-39 -20 -39 -20 -31 -6 -32 -7 -35 15 -35 14 -7 21 -6 20 -37 11 -37 10 -32 0
-33 0 -40 -36 -40 -36 -24 -78 -25 -77 -31 -209 -31 -209 -20 -97 -19 -96 -26
-79 -26 -78 -14 -26 -13 -26 112 -6 112 -7 225 0 225 0 95 14 95 15 62 19 63
20 49 32 50 31 35 39 35 39 15 52 16 53 0 44 0 45 -11 61 -11 61 -31 20 -32
20 -3 23 -3 23 31 29 32 30 65 20 65 20 98 0 97 0 89 -15 88 -16 41 -18 40
-18 18 -17 17 -17 0 -10 0 -10 -34 -20 -34 -20 -12 -49 -12 -49 11 -34 12 -34
22 -21 22 -21 56 -26 56 -25 214 -50 214 -50 95 -31 95 -31 70 -35 70 -35 34
-26 34 -25 13 18 14 19 41 105 41 105 35 105 34 106 29 115 29 115 17 104 16
103 -4 107 -4 106 -20 37 -19 36 -27 16 -26 16 -25 0 -24 0 -34 -12 -34 -11
-23 -22 -22 -22 -46 -13 -45 -13 -87 6 -87 6 -85 26 -85 27 -40 20 -40 21 -43
30 -43 31 -21 34 -21 34 5 67 5 67 27 55 27 54 51 52 51 52 49 21 48 20 52 10
53 10 52 -10 53 -11 50 -35 50 -34 30 0 30 0 14 23 14 22 11 59 11 60 0 145 0
146 -20 304 -19 303 -5 5 -5 5 -208 -51 -208 -50 -119 -21 -120 -20 -116 -11
-117 -10 -78 10 -77 11 -34 16 -35 17 -19 25 -20 25 0 41 0 41 18 32 17 31 18
25 18 25 10 62 10 62 -11 97 -10 96 -25 101 -26 102 -25 63 -26 62 -34 54 -34
53 -32 20 -33 20 -110 -1 -110 -1 -42 -8z"/>
</g>
</svg>
