<?xml version="1.0" standalone="no"?>
<!DOCTYPE svg PUBLIC "-//W3C//DTD SVG 20010904//EN"
 "http://www.w3.org/TR/2001/REC-SVG-20010904/DTD/svg10.dtd">
<svg version="1.0" xmlns="http://www.w3.org/2000/svg"
 width="272.000000pt" height="434.000000pt" viewBox="0 0 272.000000 434.000000"
 preserveAspectRatio="xMidYMid meet">
<metadata>
Created by potrace 1.16, written by Peter Selinger 2001-2019
</metadata>
<g transform="translate(0.000000,434.000000) scale(0.100000,-0.100000)"
fill="#000000" stroke="none">
<path d="M1270 4331 l-25 -8 -41 -21 -42 -21 -30 -38 -29 -38 -22 -42 -21 -42
-15 -58 -15 -57 0 -122 0 -122 15 -83 16 -84 15 -55 16 -55 21 -23 21 -22 -20
-15 -19 -14 -80 -1 -80 0 -270 19 -270 20 -191 7 -192 6 -7 -123 -7 -124 4
-265 4 -265 22 -65 22 -66 35 -41 35 -41 43 -21 42 -20 60 -6 60 -7 75 11 75
11 38 10 38 11 35 31 35 31 8 -9 9 -9 11 -36 12 -36 9 -104 9 -104 1 -105 0
-106 -10 -84 -10 -85 -22 -69 -21 -69 -37 -38 -37 -39 -19 0 -19 0 -34 23 -34
22 -26 17 -26 18 -52 0 -52 0 -26 -12 -25 -11 -29 -51 -29 -51 -16 -72 -16
-72 -25 -203 -25 -203 -20 -96 -19 -96 -20 -61 -21 -61 0 -20 0 -20 48 5 47 4
305 21 305 21 175 1 175 0 40 -16 40 -15 -2 -8 -2 -9 -15 -42 -15 -41 -22
-104 -21 -103 -2 -105 -1 -105 18 -46 17 -46 28 -26 27 -26 36 -15 37 -15 78
-7 79 -6 63 11 63 10 53 24 53 25 42 38 42 38 20 37 19 38 0 64 0 64 -25 34
-25 34 -15 32 -15 32 0 18 0 18 20 33 20 33 38 16 37 16 55 14 55 13 210 10
210 10 194 10 194 10 14 11 13 11 0 1370 0 1369 -14 5 -14 5 -99 -31 -98 -31
-115 -29 -115 -28 -100 -17 -100 -18 -125 -1 -125 -1 -50 25 -50 25 -20 37
-19 36 33 97 33 97 14 76 13 77 0 60 0 60 -14 80 -14 79 -36 72 -35 73 -44 45
-44 45 -53 27 -54 28 -90 3 -90 2 -25 -8z"/>
</g>
</svg>
