<?xml version="1.0" standalone="no"?>
<!DOCTYPE svg PUBLIC "-//W3C//DTD SVG 20010904//EN"
 "http://www.w3.org/TR/2001/REC-SVG-20010904/DTD/svg10.dtd">
<svg version="1.0" xmlns="http://www.w3.org/2000/svg"
 width="270.000000pt" height="432.000000pt" viewBox="0 0 270.000000 432.000000"
 preserveAspectRatio="xMidYMid meet">
<metadata>
Created by potrace 1.16, written by Peter Selinger 2001-2019
</metadata>
<g transform="translate(0.000000,432.000000) scale(0.100000,-0.100000)"
fill="#000000" stroke="none">
<path d="M1270 4311 l-25 -8 -41 -21 -42 -21 -30 -38 -29 -38 -22 -42 -21 -42
-15 -58 -15 -57 0 -112 0 -112 16 -83 15 -84 16 -57 15 -57 19 -17 19 -17 0
-15 0 -15 -17 -13 -18 -13 -90 -1 -90 0 -270 19 -270 20 -181 6 -182 7 -7
-123 -7 -124 4 -255 4 -255 22 -65 22 -66 35 -41 35 -41 43 -20 42 -20 51 -7
51 -6 74 10 74 11 38 10 38 11 34 30 34 31 17 -4 17 -3 14 -39 13 -40 10 -110
10 -111 0 -110 0 -111 -10 -84 -10 -85 -22 -69 -21 -69 -37 -38 -37 -39 -29 0
-29 0 -34 23 -34 22 -26 17 -26 18 -42 0 -42 0 -26 -12 -25 -11 -29 -51 -29
-51 -16 -72 -16 -72 -25 -203 -25 -203 -20 -96 -19 -96 -20 -61 -21 -61 0 -8
0 -9 38 3 37 3 305 21 305 22 185 0 185 0 40 -15 40 -15 -2 -19 -1 -19 -16
-42 -15 -41 -22 -104 -21 -103 -1 -100 -1 -100 21 -45 20 -45 24 -22 24 -22
35 -15 35 -14 70 -7 70 -7 63 11 63 10 53 24 53 25 42 38 42 38 20 37 19 38 0
54 0 54 -25 34 -25 34 -15 32 -15 32 0 28 0 28 20 33 20 33 38 16 37 16 55 14
55 13 210 10 210 10 194 10 194 10 14 11 13 11 0 1359 0 1358 -9 5 -9 6 -58
-21 -59 -20 -150 -39 -150 -38 -100 -18 -100 -17 -135 -1 -135 -1 -47 22 -47
22 -21 33 -20 33 0 22 0 23 35 104 35 105 12 94 12 94 -16 98 -16 97 -36 73
-36 74 -44 45 -44 45 -53 27 -54 27 -80 3 -80 3 -25 -8z"/>
</g>
</svg>
