<?xml version="1.0" standalone="no"?>
<!DOCTYPE svg PUBLIC "-//W3C//DTD SVG 20010904//EN"
 "http://www.w3.org/TR/2001/REC-SVG-20010904/DTD/svg10.dtd">
<svg version="1.0" xmlns="http://www.w3.org/2000/svg"
 width="360.000000pt" height="371.000000pt" viewBox="0 0 360.000000 371.000000"
 preserveAspectRatio="xMidYMid meet">
<metadata>
Created by potrace 1.16, written by Peter Selinger 2001-2019
</metadata>
<g transform="translate(0.000000,371.000000) scale(0.100000,-0.100000)"
fill="#000000" stroke="none">
<path d="M5 3322 l0 -387 13 -53 14 -52 31 -47 32 -47 40 -20 40 -21 75 1 75
0 71 22 71 22 12 14 13 15 43 16 43 17 31 -17 32 -16 19 -32 19 -31 16 -71 17
-70 5 -145 5 -145 -16 -75 -16 -74 -31 -62 -30 -62 -49 -50 -48 -50 -56 -27
-56 -28 -43 6 -42 6 -27 30 -27 30 -39 10 -39 11 -32 -6 -31 -6 -23 -22 -24
-22 -21 -56 -21 -56 -10 -103 -10 -104 -5 -313 -4 -312 306 1 307 2 79 -17 78
-17 54 -26 55 -26 39 -44 38 -44 16 -46 16 -47 -1 -80 0 -81 -18 -65 -19 -65
-27 -74 -27 -75 4 -64 4 -65 36 -33 36 -33 43 -11 42 -12 86 -9 86 -9 85 0 85
0 65 11 65 10 50 23 50 23 38 37 37 37 24 48 24 47 16 77 16 76 0 105 0 105
-15 118 -16 118 -21 90 -21 90 -4 37 -5 37 29 30 30 29 39 11 39 11 71 0 72 0
83 -15 84 -16 90 -26 90 -26 98 -38 98 -39 59 -30 59 -30 15 0 15 0 6 19 6 20
-26 52 -27 52 -34 90 -35 90 -29 111 -29 111 -12 75 -12 75 1 81 0 81 19 44
20 44 21 19 22 19 37 -5 38 -5 39 -27 39 -26 41 -11 41 -11 120 5 120 5 89 26
88 27 59 29 59 29 55 36 54 36 41 47 41 47 22 45 22 45 0 110 0 110 -28 57
-28 57 -49 44 -49 45 -46 21 -46 21 -56 15 -57 15 -124 0 -124 0 -100 -20
-101 -21 -36 -16 -36 -17 -7 -3 -6 -4 -14 38 -13 38 2 175 1 175 21 269 21
269 0 54 0 53 -1357 0 -1358 0 0 -388z"/>
</g>
</svg>
