<?xml version="1.0" standalone="no"?>
<!DOCTYPE svg PUBLIC "-//W3C//DTD SVG 20010904//EN"
 "http://www.w3.org/TR/2001/REC-SVG-20010904/DTD/svg10.dtd">
<svg version="1.0" xmlns="http://www.w3.org/2000/svg"
 width="358.000000pt" height="369.000000pt" viewBox="0 0 358.000000 369.000000"
 preserveAspectRatio="xMidYMid meet">
<metadata>
Created by potrace 1.16, written by Peter Selinger 2001-2019
</metadata>
<g transform="translate(0.000000,369.000000) scale(0.100000,-0.100000)"
fill="#000000" stroke="none">
<path d="M5 3312 l0 -377 13 -53 14 -52 31 -47 32 -47 40 -20 39 -20 66 0 65
1 60 17 60 18 44 29 44 29 32 6 33 6 31 -17 32 -16 19 -32 19 -31 17 -71 16
-70 5 -155 5 -155 -16 -75 -16 -74 -31 -62 -30 -62 -49 -50 -48 -50 -56 -27
-56 -28 -52 5 -52 5 -27 31 -28 31 -34 9 -35 10 -26 -5 -25 -5 -24 -22 -24
-22 -21 -57 -21 -56 -10 -108 -10 -108 -5 -298 -4 -297 307 2 306 1 79 -17 78
-17 54 -26 55 -26 39 -44 38 -44 16 -46 16 -47 -1 -90 0 -91 -18 -65 -19 -65
-27 -75 -27 -74 4 -55 5 -54 36 -33 35 -33 43 -11 42 -12 86 -9 86 -9 75 0 75
0 65 11 65 10 50 23 50 23 38 37 37 37 24 48 24 47 16 77 16 76 0 95 0 95 -15
118 -16 118 -21 90 -21 90 -4 47 -5 48 29 29 30 29 39 11 39 11 81 0 82 0 83
-15 84 -16 90 -26 90 -26 98 -38 98 -39 59 -30 59 -30 6 0 6 0 -6 10 -6 10 11
0 10 0 -26 51 -26 52 -34 90 -35 90 -29 111 -29 111 -12 75 -12 75 0 90 0 91
20 44 20 45 21 19 21 19 48 -5 48 -5 39 -26 39 -27 41 -11 41 -11 110 5 110 5
89 26 88 27 59 29 59 29 55 36 54 36 41 47 41 47 22 45 22 45 0 100 0 100 -28
57 -28 57 -49 44 -49 45 -46 21 -46 21 -56 15 -57 15 -114 0 -114 0 -101 -21
-102 -20 -41 -20 -40 -19 -11 0 -11 0 -14 38 -13 37 2 185 1 185 21 269 21
269 0 44 0 43 -1347 0 -1348 0 0 -378z"/>
</g>
</svg>
