<?xml version="1.0" standalone="no"?>
<!DOCTYPE svg PUBLIC "-//W3C//DTD SVG 20010904//EN"
 "http://www.w3.org/TR/2001/REC-SVG-20010904/DTD/svg10.dtd">
<svg version="1.0" xmlns="http://www.w3.org/2000/svg"
 width="272.000000pt" height="458.000000pt" viewBox="0 0 272.000000 458.000000"
 preserveAspectRatio="xMidYMid meet">
<metadata>
Created by potrace 1.16, written by Peter Selinger 2001-2019
</metadata>
<g transform="translate(0.000000,458.000000) scale(0.100000,-0.100000)"
fill="#000000" stroke="none">
<path d="M1242 4570 l-64 -9 -50 -17 -51 -17 -37 -33 -38 -34 -12 -30 -13 -30
5 -73 5 -72 34 -75 33 -75 1 -95 0 -95 -22 -40 -21 -41 -47 -43 -46 -43 -63
-29 -62 -29 -95 -22 -94 -23 -303 0 -302 0 0 -1382 0 -1383 88 0 87 0 300 20
300 20 135 0 135 0 36 -10 37 -10 12 -15 13 -15 -15 -18 -15 -17 -21 -95 -21
-95 -12 -95 -11 -95 5 -100 6 -100 15 -50 15 -50 32 -43 31 -42 43 -26 43 -25
54 -9 53 -8 85 9 85 10 67 31 67 31 41 43 40 43 10 26 10 26 0 36 0 36 -37 34
-36 35 -5 47 -4 47 26 30 25 31 58 26 58 26 256 64 255 65 105 41 104 41 69
42 69 43 10 17 11 16 -42 90 -42 91 -25 93 -24 93 -31 175 -31 175 -20 75 -20
75 -30 46 -30 47 -29 12 -30 13 -48 -5 -48 -5 -78 -37 -77 -37 -39 -1 -39 0
-33 19 -33 19 -32 53 -32 54 -18 76 -17 76 -1 150 0 150 13 37 13 37 20 25 20
26 31 0 31 0 61 -34 61 -34 84 -12 84 -11 51 6 51 6 48 16 48 15 63 62 63 61
27 58 27 58 19 73 19 74 11 101 12 100 -3 290 -4 289 -25 20 -25 21 -100 50
-100 49 -95 31 -95 31 -150 35 -150 35 -79 21 -79 20 -52 24 -52 23 -28 36
-27 36 0 39 1 39 35 70 36 71 6 40 6 40 -6 35 -7 35 -26 31 -26 31 -46 23 -46
24 -50 10 -50 10 -90 5 -90 6 -63 -9z"/>
</g>
</svg>
