<?xml version="1.0" standalone="no"?>
<!DOCTYPE svg PUBLIC "-//W3C//DTD SVG 20010904//EN"
 "http://www.w3.org/TR/2001/REC-SVG-20010904/DTD/svg10.dtd">
<svg version="1.0" xmlns="http://www.w3.org/2000/svg"
 width="270.000000pt" height="456.000000pt" viewBox="0 0 270.000000 456.000000"
 preserveAspectRatio="xMidYMid meet">
<metadata>
Created by potrace 1.16, written by Peter Selinger 2001-2019
</metadata>
<g transform="translate(0.000000,456.000000) scale(0.100000,-0.100000)"
fill="#000000" stroke="none">
<path d="M1242 4550 l-64 -9 -50 -17 -50 -16 -34 -31 -35 -30 -16 -30 -15 -31
4 -65 5 -66 34 -75 33 -75 1 -105 0 -105 -22 -40 -21 -41 -47 -43 -46 -43 -63
-29 -62 -29 -95 -22 -94 -22 -302 -1 -303 0 0 -1372 0 -1373 72 0 72 0 320 21
321 20 150 -3 151 -3 27 -18 27 -17 0 -17 0 -16 -13 -16 -14 -16 -21 -95 -21
-95 -12 -95 -11 -95 5 -90 6 -90 15 -51 16 -51 35 -46 35 -45 55 -27 54 -27
79 0 78 1 47 11 48 10 57 29 57 29 38 41 37 40 10 26 10 26 0 26 0 26 -34 32
-34 32 -10 36 -10 37 9 33 9 33 23 22 22 21 55 25 55 25 245 61 245 62 105 39
105 39 72 42 73 42 15 16 15 17 -40 85 -40 86 -25 93 -24 94 -31 175 -31 175
-20 75 -20 75 -30 46 -30 47 -30 12 -29 13 -39 -6 -40 -5 -77 -37 -77 -37 -47
-1 -47 -1 -34 20 -34 20 -32 53 -32 54 -18 76 -17 76 -1 160 0 160 18 46 18
47 20 18 20 18 34 -1 35 -1 62 -35 63 -35 82 -12 81 -11 59 10 60 9 36 16 37
15 58 58 59 58 27 58 27 58 19 73 19 74 11 101 12 101 -3 279 -4 279 -25 20
-25 21 -100 50 -100 49 -95 31 -95 31 -150 35 -150 35 -79 21 -79 20 -52 24
-52 23 -28 37 -29 37 1 47 1 47 35 70 35 70 7 36 7 36 -7 31 -7 31 -25 31 -26
30 -46 23 -46 24 -55 10 -55 11 -75 5 -75 4 -63 -8z"/>
</g>
</svg>
