<?xml version="1.0" standalone="no"?>
<!DOCTYPE svg PUBLIC "-//W3C//DTD SVG 20010904//EN"
 "http://www.w3.org/TR/2001/REC-SVG-20010904/DTD/svg10.dtd">
<svg version="1.0" xmlns="http://www.w3.org/2000/svg"
 width="363.000000pt" height="415.000000pt" viewBox="0 0 363.000000 415.000000"
 preserveAspectRatio="xMidYMid meet">
<metadata>
Created by potrace 1.16, written by Peter Selinger 2001-2019
</metadata>
<g transform="translate(0.000000,415.000000) scale(0.100000,-0.100000)"
fill="#000000" stroke="none">
<path d="M2023 4129 l-61 -19 -32 -30 -31 -29 3 -33 3 -33 32 -20 31 -20 11
-61 11 -61 0 -35 0 -34 -15 -52 -16 -52 -32 -37 -32 -37 -57 -37 -58 -37 -77
-20 -78 -21 -90 -12 -90 -12 -318 6 -317 5 -1 -11 -1 -12 1 -105 2 -105 15
-255 16 -255 -6 -79 -7 -78 -14 -34 -14 -34 -15 -6 -16 -6 -34 20 -34 20 -84
21 -83 21 -75 11 -75 11 -75 -5 -75 -5 -40 -16 -39 -17 -33 -25 -33 -25 -26
-51 -26 -50 -14 -71 -15 -71 0 -141 -1 -140 20 -62 20 -63 31 -47 30 -48 29
-26 28 -27 49 -31 50 -32 70 -22 70 -22 125 1 125 0 60 13 60 13 87 30 87 29
31 -16 32 -16 19 -42 19 -42 0 -95 0 -95 -24 -105 -24 -106 -27 -79 -27 -80
-48 -103 -49 -103 -21 -28 -20 -29 0 -21 0 -21 71 0 72 0 321 21 321 21 135
-4 135 -4 38 -17 37 -16 0 -14 0 -15 -16 -12 -15 -13 -27 -46 -27 -46 0 -95 0
-95 22 -70 22 -70 33 -50 33 -50 28 -32 29 -31 51 -22 51 -22 72 4 72 5 54 26
53 26 47 42 47 41 26 50 27 51 5 52 5 51 -16 32 -16 31 -20 14 -21 14 -9 34
-10 34 6 20 6 20 22 23 21 24 28 15 29 14 66 15 67 15 382 9 381 9 40 10 39
11 36 187 37 188 16 135 16 134 -4 141 -4 140 -17 39 -18 40 -31 28 -32 28
-45 0 -46 0 -60 -26 -60 -26 -70 -20 -70 -19 -50 6 -50 6 -61 30 -62 29 -37
41 -37 42 -32 66 -31 66 0 125 0 125 31 65 32 65 37 43 37 43 57 28 56 29 59
12 60 12 60 -7 61 -6 75 -25 75 -25 16 -15 16 -14 21 0 22 0 17 27 18 27 0
251 -1 250 -17 202 -18 201 -1 51 -1 51 -15 0 -14 0 -26 19 -27 18 -70 36 -70
35 -95 31 -95 31 -214 50 -214 50 -56 25 -55 26 -20 17 -19 17 -14 33 -13 32
11 45 11 44 34 20 34 20 0 20 0 20 -17 17 -18 17 -40 18 -41 18 -88 16 -89 15
-111 -1 -111 0 -62 -20z"/>
</g>
</svg>
