<?xml version="1.0" standalone="no"?>
<!DOCTYPE svg PUBLIC "-//W3C//DTD SVG 20010904//EN"
 "http://www.w3.org/TR/2001/REC-SVG-20010904/DTD/svg10.dtd">
<svg version="1.0" xmlns="http://www.w3.org/2000/svg"
 width="361.000000pt" height="413.000000pt" viewBox="0 0 361.000000 413.000000"
 preserveAspectRatio="xMidYMid meet">
<metadata>
Created by potrace 1.16, written by Peter Selinger 2001-2019
</metadata>
<g transform="translate(0.000000,413.000000) scale(0.100000,-0.100000)"
fill="#000000" stroke="none">
<path d="M2023 4109 l-61 -19 -32 -30 -31 -29 3 -23 3 -23 32 -20 31 -20 11
-61 11 -61 0 -45 0 -44 -15 -52 -16 -52 -32 -37 -32 -37 -57 -37 -58 -37 -77
-20 -78 -21 -90 -12 -90 -12 -317 5 -318 5 -1 -11 0 -11 0 -85 1 -85 17 -288
16 -288 -10 -80 -11 -79 -16 -25 -16 -25 -23 0 -22 0 -31 19 -31 19 -84 21
-84 21 -75 11 -75 11 -66 -5 -66 -6 -39 -16 -38 -16 -33 -25 -33 -25 -26 -51
-26 -50 -14 -70 -15 -71 0 -131 0 -131 19 -62 20 -63 31 -47 30 -48 29 -26 28
-27 49 -31 50 -32 70 -22 70 -22 115 1 115 0 55 12 55 12 97 32 98 32 35 -17
36 -17 20 -46 21 -46 -1 -97 0 -97 -22 -99 -21 -100 -30 -90 -30 -90 -48 -103
-49 -103 -21 -28 -20 -29 0 -11 0 -11 61 0 62 0 321 21 321 21 145 -4 145 -4
38 -17 37 -16 0 -24 0 -25 -16 -12 -15 -13 -27 -46 -27 -46 0 -85 1 -85 21
-70 22 -70 33 -50 33 -50 28 -32 29 -31 51 -22 51 -22 63 5 63 5 53 25 52 26
47 42 47 41 26 49 25 49 6 44 6 43 -16 31 -17 32 -20 13 -20 12 -10 38 -10 39
6 27 6 28 27 25 27 26 23 11 23 12 67 15 67 15 382 9 381 9 40 10 39 11 36
187 37 188 16 135 16 135 -4 130 -4 130 -17 39 -18 40 -31 28 -32 28 -35 0
-36 0 -60 -26 -60 -26 -70 -20 -70 -19 -62 6 -63 7 -59 29 -59 30 -37 41 -37
41 -32 66 -31 66 0 135 0 135 31 65 32 65 37 43 37 43 57 28 56 29 60 12 60
12 69 -6 69 -6 76 -26 76 -25 18 -17 18 -16 17 10 17 11 14 39 13 39 -6 245
-6 245 -19 217 -19 218 -23 20 -24 20 -85 44 -85 44 -95 31 -95 31 -214 50
-214 50 -56 25 -56 26 -22 21 -22 21 -12 34 -11 34 12 49 12 49 34 20 34 20 0
10 0 10 -17 17 -18 17 -40 18 -41 18 -88 16 -89 15 -101 -1 -101 0 -62 -20z"/>
</g>
</svg>
