<?xml version="1.0" standalone="no"?>
<!DOCTYPE svg PUBLIC "-//W3C//DTD SVG 20010904//EN"
 "http://www.w3.org/TR/2001/REC-SVG-20010904/DTD/svg10.dtd">
<svg version="1.0" xmlns="http://www.w3.org/2000/svg"
 width="428.000000pt" height="436.000000pt" viewBox="0 0 428.000000 436.000000"
 preserveAspectRatio="xMidYMid meet">
<metadata>
Created by potrace 1.16, written by Peter Selinger 2001-2019
</metadata>
<g transform="translate(0.000000,436.000000) scale(0.100000,-0.100000)"
fill="#000000" stroke="none">
<path d="M1963 4343 l-52 -15 -40 -34 -39 -34 -18 -45 -17 -45 6 -107 5 -108
37 -115 37 -114 -5 -43 -5 -43 -16 -25 -17 -25 -40 -30 -41 -29 -54 -21 -55
-20 -87 -15 -87 -16 -165 -6 -165 -5 -180 11 -180 11 -22 6 -23 6 0 -93 0 -94
10 -175 10 -175 25 -277 25 -278 0 -11 0 -10 -26 20 -25 20 -47 15 -47 14 -56
7 -55 6 -86 -11 -85 -10 -72 -25 -71 -24 -48 -26 -48 -26 -37 -33 -36 -32 -25
-37 -25 -37 -12 -42 -11 -43 6 -67 6 -67 21 -55 20 -55 45 -50 45 -50 44 -17
45 -17 82 5 83 5 72 36 73 37 30 0 31 0 19 -10 18 -10 21 -33 20 -33 16 -60
15 -59 10 -170 9 -170 2 -282 2 -282 376 2 376 2 75 -18 75 -18 60 -28 60 -28
32 -27 32 -27 32 -64 31 -64 1 -78 1 -78 -13 -67 -13 -66 -29 -12 -28 -12 -6
-19 -6 -18 10 -20 11 -19 36 -12 35 -12 112 -7 112 -8 78 8 77 8 53 24 52 24
32 32 32 32 20 42 20 42 7 65 6 65 -11 74 -12 74 -35 108 -36 108 14 28 13 27
32 22 33 22 63 11 64 11 52 0 52 0 97 -11 97 -10 135 -25 135 -25 126 -29 127
-30 10 0 10 0 5 14 6 14 -38 189 -39 188 -16 112 -16 113 -6 117 -6 118 11 59
11 59 17 36 18 35 32 19 31 18 87 -30 87 -31 74 -15 73 -15 83 0 83 0 57 14
58 13 55 34 56 34 23 30 23 30 20 40 21 40 12 60 13 60 -7 91 -6 90 -15 57
-15 57 -24 37 -24 38 -32 27 -31 27 -36 7 -35 7 -67 -5 -67 -5 -79 -36 -80
-35 -56 -12 -57 -11 -28 7 -29 7 -28 14 -27 14 -26 38 -25 39 -15 49 -15 48
-9 105 -9 105 11 323 11 322 -5 5 -5 5 -139 -34 -139 -34 -100 -17 -99 -17
-101 -7 -100 -8 -74 8 -73 8 -44 22 -45 21 -14 29 -15 28 0 25 0 25 29 73 29
73 11 53 11 53 0 87 0 88 -15 57 -15 57 -26 52 -26 52 -54 56 -54 57 -52 26
-53 26 -60 16 -59 15 -81 -1 -80 -1 -52 -15z"/>
</g>
</svg>
