<?xml version="1.0" standalone="no"?>
<!DOCTYPE svg PUBLIC "-//W3C//DTD SVG 20010904//EN"
 "http://www.w3.org/TR/2001/REC-SVG-20010904/DTD/svg10.dtd">
<svg version="1.0" xmlns="http://www.w3.org/2000/svg"
 width="426.000000pt" height="434.000000pt" viewBox="0 0 426.000000 434.000000"
 preserveAspectRatio="xMidYMid meet">
<metadata>
Created by potrace 1.16, written by Peter Selinger 2001-2019
</metadata>
<g transform="translate(0.000000,434.000000) scale(0.100000,-0.100000)"
fill="#000000" stroke="none">
<path d="M1963 4323 l-52 -15 -40 -34 -39 -34 -18 -45 -17 -45 6 -97 5 -98 36
-110 36 -110 0 -45 0 -45 -18 -35 -17 -34 -42 -32 -42 -32 -56 -21 -56 -21
-92 -18 -92 -17 -300 2 -300 1 -62 9 -63 10 0 -86 1 -86 9 -160 9 -160 27
-312 28 -313 -7 -6 -7 -7 -20 25 -20 26 -42 17 -43 17 -64 9 -63 9 -83 -10
-82 -10 -72 -25 -71 -24 -48 -26 -48 -26 -37 -33 -36 -32 -25 -37 -25 -37 -12
-42 -11 -43 7 -59 6 -59 20 -53 20 -53 45 -50 45 -50 44 -17 45 -17 72 5 73 5
74 37 73 37 38 1 37 0 21 -11 20 -11 21 -33 20 -33 16 -60 15 -59 10 -175 9
-175 2 -277 3 -277 375 2 376 2 75 -18 75 -18 60 -28 60 -28 32 -27 32 -27 32
-65 32 -65 1 -87 0 -87 -13 -67 -13 -67 -19 -6 -19 -6 -15 -15 -15 -15 10 -19
10 -18 36 -12 36 -12 107 -7 106 -6 72 6 73 7 52 25 53 24 32 32 32 32 20 42
20 42 6 56 7 56 -11 73 -12 74 -35 105 -35 106 6 32 6 32 30 25 30 25 37 11
37 11 85 6 85 5 110 -11 110 -12 135 -25 135 -25 110 -25 110 -26 19 -5 19 -5
-7 11 -7 11 9 0 8 0 -37 182 -37 183 -16 115 -17 115 -6 125 -5 125 11 59 11
59 17 36 18 36 36 19 36 20 94 -32 94 -32 70 -15 70 -15 75 0 75 0 57 14 58
13 55 34 56 34 23 30 23 30 20 40 21 40 12 60 12 60 -6 82 -7 83 -14 55 -15
55 -24 37 -24 38 -32 27 -31 27 -36 7 -35 7 -58 -6 -58 -5 -78 -35 -79 -35
-59 -12 -58 -12 -36 7 -36 7 -29 14 -28 15 -29 46 -29 46 -16 71 -16 71 -2
145 -2 145 8 256 9 257 -134 -33 -133 -33 -99 -17 -98 -16 -107 -9 -106 -8
-79 8 -78 9 -45 22 -44 21 -14 29 -15 28 0 35 0 35 29 73 29 73 11 53 11 53 0
77 0 78 -15 57 -15 57 -26 52 -26 52 -54 56 -54 57 -52 26 -53 26 -60 16 -59
15 -71 -1 -70 -1 -52 -15z"/>
</g>
</svg>
