<?xml version="1.0" standalone="no"?>
<!DOCTYPE svg PUBLIC "-//W3C//DTD SVG 20010904//EN"
 "http://www.w3.org/TR/2001/REC-SVG-20010904/DTD/svg10.dtd">
<svg version="1.0" xmlns="http://www.w3.org/2000/svg"
 width="373.000000pt" height="348.000000pt" viewBox="0 0 373.000000 348.000000"
 preserveAspectRatio="xMidYMid meet">
<metadata>
Created by potrace 1.16, written by Peter Selinger 2001-2019
</metadata>
<g transform="translate(0.000000,348.000000) scale(0.100000,-0.100000)"
fill="#000000" stroke="none">
<path d="M1394 3470 l-61 -8 -39 -11 -39 -10 -41 -27 -40 -26 -22 -32 -22 -33
-11 -62 -11 -62 12 -80 11 -80 20 -77 21 -77 19 -32 20 -33 -3 -22 -3 -23 -40
-13 -40 -14 -135 5 -135 4 -300 18 -301 19 -16 -6 -16 -7 -7 -93 -7 -93 5
-275 4 -275 17 -64 16 -64 26 -51 25 -51 45 -42 44 -41 52 -18 53 -18 80 0 80
0 70 13 70 14 33 28 32 29 27 6 27 7 35 -19 36 -19 31 -53 32 -53 17 -68 16
-67 2 -75 1 -74 -26 -57 -26 -57 -46 -46 -46 -45 -60 -39 -61 -39 -75 -32 -75
-31 -76 -19 -75 -20 -73 -9 -73 -9 -48 9 -49 9 -22 25 -22 25 -26 10 -26 10
-46 0 -45 0 -33 -33 -33 -33 -12 -45 -12 -44 5 -135 6 -135 25 -108 25 -108
36 -104 35 -104 43 -91 42 -91 275 -7 275 -7 160 2 160 2 79 16 79 16 37 19
37 19 31 35 30 35 12 56 11 55 -10 69 -11 70 -10 25 -9 25 -31 42 -30 42 0 30
0 30 20 32 20 32 39 26 38 25 53 16 54 16 60 0 61 0 56 -13 55 -14 45 -24 44
-24 3 -22 3 -21 -30 -18 -30 -18 -11 -29 -10 -30 0 -46 0 -46 19 -31 19 -31
45 -26 44 -26 74 -20 74 -20 195 -42 195 -41 115 -33 116 -33 107 -47 107 -47
6 -9 5 -9 25 0 24 0 0 17 0 16 14 16 15 16 39 80 40 80 25 81 26 81 49 215 50
214 22 52 23 52 34 30 34 30 34 0 34 0 23 -9 24 -9 33 -31 33 -31 46 0 45 0
36 38 37 39 22 58 23 58 15 91 16 91 -4 195 -5 195 -18 43 -17 43 -30 15 -30
16 -37 -7 -36 -6 -70 -34 -70 -34 -77 -11 -77 -11 -61 12 -61 12 -45 30 -45
29 -31 46 -31 45 -18 47 -18 47 -17 89 -18 89 2 323 2 322 -82 1 -83 0 -345 3
-345 3 -68 16 -68 16 -32 22 -32 22 -17 21 -18 21 0 38 0 38 10 19 10 18 31
31 31 32 -4 67 -4 67 -24 49 -23 49 -51 51 -51 52 -50 24 -50 24 -100 2 -100
3 -61 -9z"/>
</g>
</svg>
