<?xml version="1.0" standalone="no"?>
<!DOCTYPE svg PUBLIC "-//W3C//DTD SVG 20010904//EN"
 "http://www.w3.org/TR/2001/REC-SVG-20010904/DTD/svg10.dtd">
<svg version="1.0" xmlns="http://www.w3.org/2000/svg"
 width="371.000000pt" height="346.000000pt" viewBox="0 0 371.000000 346.000000"
 preserveAspectRatio="xMidYMid meet">
<metadata>
Created by potrace 1.16, written by Peter Selinger 2001-2019
</metadata>
<g transform="translate(0.000000,346.000000) scale(0.100000,-0.100000)"
fill="#000000" stroke="none">
<path d="M1394 3450 l-61 -8 -39 -11 -39 -10 -41 -27 -40 -26 -22 -32 -22 -32
-11 -58 -10 -57 11 -76 12 -76 20 -76 20 -76 19 -32 20 -32 -3 -33 -3 -33 -40
-13 -40 -14 -150 5 -150 5 -293 18 -292 18 -13 -13 -12 -12 0 -347 0 -347 18
-69 17 -69 26 -51 25 -51 45 -42 44 -41 52 -18 53 -17 70 -1 70 0 70 13 70 13
25 23 25 23 22 11 22 11 28 0 28 0 32 -19 31 -20 28 -47 27 -47 19 -66 19 -66
2 -90 2 -90 -27 -57 -26 -57 -46 -46 -46 -45 -60 -39 -61 -39 -75 -32 -75 -31
-75 -19 -75 -20 -80 -10 -79 -9 -53 9 -52 10 -22 25 -22 25 -26 10 -26 10 -36
0 -35 0 -33 -33 -33 -33 -12 -45 -12 -44 5 -125 6 -125 25 -108 25 -108 36
-104 35 -104 43 -91 42 -90 275 -7 275 -8 150 2 150 2 79 16 79 16 37 19 37
19 30 35 31 34 11 52 11 52 -10 64 -10 63 -10 25 -9 25 -31 42 -30 42 0 40 0
40 20 32 20 32 39 26 38 25 53 16 54 16 67 0 68 0 53 -11 53 -11 47 -24 47
-24 11 -20 11 -20 -10 -18 -9 -18 -26 -13 -25 -14 -11 -30 -10 -30 0 -36 0
-36 19 -31 19 -31 45 -26 44 -26 74 -20 74 -20 195 -42 195 -41 115 -33 116
-33 107 -47 107 -47 6 -9 5 -9 15 0 15 0 -5 9 -6 9 20 25 21 26 38 78 39 78
25 81 26 81 49 215 50 214 22 52 23 52 34 30 34 30 44 0 44 0 23 -9 24 -9 33
-31 33 -31 36 0 35 0 36 38 37 39 22 58 23 58 15 91 16 91 -4 185 -5 185 -18
43 -17 43 -29 15 -29 15 -42 -12 -42 -11 -52 -28 -53 -28 -86 -12 -86 -12 -64
12 -65 12 -45 30 -46 30 -31 46 -31 45 -18 47 -18 47 -17 89 -18 89 2 323 2
322 -83 0 -82 1 -345 3 -345 3 -68 16 -68 16 -32 22 -32 22 -17 21 -18 21 0
48 0 48 10 19 10 18 31 32 31 31 -4 57 -5 57 -23 49 -23 49 -51 51 -51 52 -50
24 -50 23 -90 3 -90 3 -61 -9z"/>
</g>
</svg>
