<?xml version="1.0" standalone="no"?>
<!DOCTYPE svg PUBLIC "-//W3C//DTD SVG 20010904//EN"
 "http://www.w3.org/TR/2001/REC-SVG-20010904/DTD/svg10.dtd">
<svg version="1.0" xmlns="http://www.w3.org/2000/svg"
 width="362.000000pt" height="430.000000pt" viewBox="0 0 362.000000 430.000000"
 preserveAspectRatio="xMidYMid meet">
<metadata>
Created by potrace 1.16, written by Peter Selinger 2001-2019
</metadata>
<g transform="translate(0.000000,430.000000) scale(0.100000,-0.100000)"
fill="#000000" stroke="none">
<path d="M1129 4290 l-67 -8 -45 -20 -45 -20 -11 -20 -11 -21 0 -48 0 -48 26
-60 26 -60 14 -50 14 -50 1 -65 1 -65 -11 -42 -12 -42 -32 -43 -33 -43 -52
-32 -53 -31 -82 -24 -82 -23 -301 0 -301 0 -7 -119 -7 -119 -29 -306 -30 -306
0 -83 0 -83 14 -5 15 -6 28 21 28 20 160 26 159 27 116 -4 115 -4 40 -21 40
-21 27 -29 27 -28 16 -39 16 -38 11 -119 10 -119 -10 -71 -10 -70 -30 -62 -29
-63 -32 -36 -32 -37 -51 -25 -52 -26 -28 0 -29 0 -32 16 -32 16 -22 20 -21 20
-42 9 -42 10 -34 -7 -34 -6 -30 -31 -31 -31 -19 -62 -19 -62 -10 -79 -10 -78
-16 -245 -16 -245 -15 -104 -15 -105 -10 -17 -9 -18 0 -10 0 -9 348 1 347 2
70 -18 70 -18 50 -23 50 -24 28 -26 27 -27 21 -40 20 -40 6 -49 6 -49 -13 -63
-12 -63 -34 -55 -34 -55 0 -38 0 -38 10 -18 9 -19 42 -16 42 -17 146 -10 146
-10 49 6 49 6 28 14 28 15 50 48 50 48 20 45 21 44 0 58 0 57 -20 18 -20 17
-20 18 -20 17 0 41 0 41 28 27 27 28 57 21 56 21 109 15 108 16 205 15 205 16
117 14 117 15 66 14 66 14 6 5 5 6 -35 138 -35 138 -23 130 -22 130 -1 130 -1
130 14 48 14 48 27 29 28 30 25 0 25 0 75 -30 75 -30 52 -11 52 -11 107 4 106
3 77 37 78 37 50 51 51 50 35 74 35 73 12 92 11 91 -11 65 -11 65 -23 46 -22
47 -51 51 -52 51 -60 32 -60 32 -74 20 -75 19 -71 7 -71 6 -86 -11 -87 -11
-67 -20 -68 -21 -7 -12 -8 -11 0 45 0 45 29 320 30 320 7 153 7 152 -12 0 -12
0 -66 40 -67 40 -76 29 -76 30 -114 29 -115 30 -136 31 -136 32 -59 28 -59 28
-17 19 -17 19 -10 28 -11 28 11 45 12 46 23 8 23 9 11 22 12 21 -7 35 -6 35
-40 43 -39 42 -58 26 -57 26 -60 17 -60 16 -190 3 -190 4 -66 -9z"/>
</g>
</svg>
