<?xml version="1.0" standalone="no"?>
<!DOCTYPE svg PUBLIC "-//W3C//DTD SVG 20010904//EN"
 "http://www.w3.org/TR/2001/REC-SVG-20010904/DTD/svg10.dtd">
<svg version="1.0" xmlns="http://www.w3.org/2000/svg"
 width="360.000000pt" height="428.000000pt" viewBox="0 0 360.000000 428.000000"
 preserveAspectRatio="xMidYMid meet">
<metadata>
Created by potrace 1.16, written by Peter Selinger 2001-2019
</metadata>
<g transform="translate(0.000000,428.000000) scale(0.100000,-0.100000)"
fill="#000000" stroke="none">
<path d="M1129 4270 l-67 -8 -45 -20 -45 -20 -11 -20 -11 -21 0 -38 0 -38 26
-60 26 -60 15 -55 15 -55 0 -70 1 -70 -12 -42 -12 -42 -32 -43 -33 -43 -52
-32 -53 -31 -82 -24 -82 -23 -301 0 -301 0 -7 -119 -7 -119 -29 -306 -30 -306
0 -71 0 -71 6 -6 6 -6 27 19 26 19 160 26 159 27 126 -4 125 -4 40 -21 40 -21
27 -29 27 -28 16 -39 16 -39 11 -124 11 -124 -11 -75 -10 -74 -29 -63 -30 -63
-32 -36 -32 -37 -51 -25 -52 -26 -38 0 -39 0 -32 16 -32 16 -22 20 -21 20 -38
8 -38 9 -28 -6 -28 -6 -30 -30 -31 -31 -19 -62 -19 -62 -10 -79 -10 -78 -16
-245 -16 -245 -15 -104 -15 -105 -10 -17 -9 -17 348 2 347 1 70 -18 70 -18 50
-23 50 -24 28 -26 27 -27 21 -41 21 -42 5 -57 6 -58 -13 -63 -12 -63 -34 -55
-34 -55 0 -28 0 -28 10 -18 9 -19 42 -16 42 -17 146 -10 146 -10 40 7 40 6 27
14 27 14 50 48 50 48 20 45 21 44 0 48 0 47 -20 18 -20 17 -20 18 -20 17 0 51
0 51 28 27 27 28 57 21 56 21 109 15 108 16 205 15 205 16 117 14 117 15 66
14 66 14 4 3 3 4 -33 130 -33 130 -23 130 -22 130 -1 140 -1 140 14 48 14 48
27 29 28 30 35 0 35 0 75 -30 75 -30 52 -11 53 -11 96 4 96 4 78 36 77 37 50
51 51 50 35 73 34 73 12 87 12 87 -12 61 -11 61 -22 45 -22 46 -51 51 -52 51
-59 32 -60 31 -55 17 -55 16 -83 10 -83 9 -84 -10 -85 -11 -67 -20 -68 -21 -8
-14 -8 -14 -9 0 -10 0 0 58 0 57 29 320 30 320 7 143 7 142 -12 0 -12 0 -66
40 -67 40 -76 29 -76 30 -114 29 -115 30 -135 31 -135 31 -55 26 -55 25 -22
21 -22 21 -12 34 -11 34 12 50 12 50 24 9 23 9 11 21 11 21 -11 33 -10 32 -38
37 -37 36 -55 25 -55 25 -60 17 -60 16 -180 3 -180 4 -66 -9z"/>
</g>
</svg>
