<?xml version="1.0" standalone="no"?>
<!DOCTYPE svg PUBLIC "-//W3C//DTD SVG 20010904//EN"
 "http://www.w3.org/TR/2001/REC-SVG-20010904/DTD/svg10.dtd">
<svg version="1.0" xmlns="http://www.w3.org/2000/svg"
 width="379.000000pt" height="380.000000pt" viewBox="0 0 379.000000 380.000000"
 preserveAspectRatio="xMidYMid meet">
<metadata>
Created by potrace 1.16, written by Peter Selinger 2001-2019
</metadata>
<g transform="translate(0.000000,380.000000) scale(0.100000,-0.100000)"
fill="#000000" stroke="none">
<path d="M1990 3794 l-15 -6 -33 -16 -33 -15 -14 -28 -15 -28 0 -35 0 -36 24
-62 23 -63 17 -72 16 -72 0 -98 0 -98 -15 -63 -15 -63 -25 -54 -25 -53 -33
-41 -33 -42 -59 -39 -58 -39 -50 -12 -50 -12 -82 6 -82 6 -59 20 -59 21 -39
28 -40 27 -43 52 -42 53 -21 67 -21 68 -6 91 -6 91 12 84 12 84 20 84 19 84
20 14 20 14 0 15 0 14 -17 0 -18 0 -130 -16 -130 -15 -150 -15 -150 -14 -191
-7 -191 -6 -6 -165 -7 -165 0 -237 0 -237 15 -88 16 -87 25 -54 25 -53 41 -36
41 -35 34 -6 34 -6 77 4 77 5 35 17 35 16 34 25 34 25 40 0 40 0 33 -20 33
-21 30 -45 30 -46 17 -74 16 -75 -7 -47 -7 -46 -24 -49 -25 -49 -55 -54 -55
-54 -92 -45 -92 -45 -79 -20 -79 -20 -71 0 -71 0 -42 20 -43 19 0 9 0 9 -25
11 -26 12 -48 0 -48 0 -26 -26 -26 -26 -13 -36 -13 -37 1 -125 1 -125 22 -110
23 -110 33 -110 34 -110 45 -110 46 -110 0 -19 0 -18 23 5 22 6 320 7 320 6
80 -12 80 -12 52 -20 52 -19 40 -45 39 -44 11 -45 11 -44 0 -41 0 -41 -16 -77
-15 -77 -35 -70 -34 -70 0 -56 0 -56 20 -26 20 -26 57 -21 56 -21 133 -11 132
-12 42 13 42 12 43 40 42 39 31 57 30 58 16 54 16 54 6 76 6 76 -11 73 -11 73
-35 90 -35 89 0 19 0 19 25 30 25 30 48 17 47 17 110 5 110 5 144 -16 144 -16
211 -35 211 -34 33 -7 32 -6 0 25 0 26 -35 78 -36 77 -35 103 -35 102 -25 108
-25 108 -6 115 -5 115 12 44 12 45 33 33 33 33 25 0 26 0 26 -10 26 -10 22
-25 22 -25 57 -10 57 -11 84 11 85 10 75 20 76 19 75 31 75 32 61 39 60 39 46
45 46 46 26 57 27 57 -2 100 -2 100 -19 66 -19 66 -27 47 -28 47 -31 20 -32
19 -38 0 -38 0 -22 -11 -22 -11 -25 -23 -25 -23 -70 -12 -70 -13 -61 0 -61 0
-52 18 -51 17 -44 41 -45 42 -25 51 -26 51 -17 64 -17 64 -1 364 -1 363 -84
34 -85 35 -125 39 -125 40 -95 21 -95 21 -150 4 -150 4 -15 -6z"/>
</g>
</svg>
