<?xml version="1.0" standalone="no"?>
<!DOCTYPE svg PUBLIC "-//W3C//DTD SVG 20010904//EN"
 "http://www.w3.org/TR/2001/REC-SVG-20010904/DTD/svg10.dtd">
<svg version="1.0" xmlns="http://www.w3.org/2000/svg"
 width="377.000000pt" height="378.000000pt" viewBox="0 0 377.000000 378.000000"
 preserveAspectRatio="xMidYMid meet">
<metadata>
Created by potrace 1.16, written by Peter Selinger 2001-2019
</metadata>
<g transform="translate(0.000000,378.000000) scale(0.100000,-0.100000)"
fill="#000000" stroke="none">
<path d="M1990 3774 l-15 -6 -33 -16 -33 -15 -14 -28 -15 -28 0 -25 0 -26 24
-62 23 -63 17 -72 16 -72 0 -108 0 -108 -15 -63 -15 -63 -25 -54 -25 -53 -33
-41 -33 -42 -59 -39 -58 -39 -50 -12 -50 -12 -91 6 -91 5 -60 21 -60 21 -39
28 -40 27 -43 52 -42 53 -21 67 -22 68 -5 101 -6 101 12 84 12 84 20 83 19 84
23 19 22 18 -10 1 -10 0 -130 -16 -130 -15 -150 -15 -150 -14 -191 -7 -191 -6
-6 -165 -7 -165 0 -227 0 -227 15 -88 16 -87 25 -54 25 -53 41 -36 41 -35 35
-6 34 -7 66 5 67 5 35 17 35 16 34 25 34 25 50 0 50 0 33 -20 33 -21 30 -45
30 -46 17 -75 16 -75 -6 -55 -6 -54 -26 -50 -25 -51 -55 -54 -55 -54 -92 -45
-92 -45 -79 -20 -79 -20 -81 0 -81 0 -42 20 -43 19 0 9 0 9 -25 11 -26 12 -38
0 -38 0 -26 -26 -26 -26 -13 -36 -13 -37 1 -115 1 -115 23 -110 22 -110 29
-97 29 -98 31 -77 30 -78 26 -58 26 -59 336 7 336 7 80 -12 80 -12 52 -20 52
-19 40 -45 39 -44 11 -45 11 -44 0 -51 0 -51 -16 -77 -15 -77 -35 -70 -34 -70
0 -46 0 -46 20 -26 20 -26 56 -21 56 -21 128 -11 128 -11 45 17 45 17 41 44
40 43 24 49 25 48 15 52 16 52 6 69 7 68 -11 73 -11 72 -35 90 -35 89 0 29 0
29 25 30 25 30 48 17 47 17 120 5 120 5 144 -16 144 -16 216 -35 216 -35 18
-6 17 -5 0 15 0 15 -35 78 -36 77 -35 103 -35 102 -25 108 -25 108 -6 125 -5
125 12 44 12 45 33 33 33 33 35 0 36 0 26 -10 26 -10 22 -25 22 -25 52 -10 53
-9 79 9 80 10 75 20 75 19 75 31 75 32 61 39 60 39 46 45 46 46 26 57 27 57
-2 90 -2 90 -19 66 -19 66 -27 47 -28 47 -31 20 -32 19 -28 0 -28 0 -22 -11
-22 -11 -25 -23 -25 -23 -70 -13 -70 -13 -70 0 -70 1 -53 17 -52 18 -44 41
-45 42 -25 51 -26 51 -17 64 -17 64 -1 364 -2 364 -84 34 -84 34 -125 39 -125
40 -95 21 -95 21 -140 4 -140 4 -15 -6z"/>
</g>
</svg>
