<?xml version="1.0" standalone="no"?>
<!DOCTYPE svg PUBLIC "-//W3C//DTD SVG 20010904//EN"
 "http://www.w3.org/TR/2001/REC-SVG-20010904/DTD/svg10.dtd">
<svg version="1.0" xmlns="http://www.w3.org/2000/svg"
 width="418.000000pt" height="428.000000pt" viewBox="0 0 418.000000 428.000000"
 preserveAspectRatio="xMidYMid meet">
<metadata>
Created by potrace 1.16, written by Peter Selinger 2001-2019
</metadata>
<g transform="translate(0.000000,428.000000) scale(0.100000,-0.100000)"
fill="#000000" stroke="none">
<path d="M1989 4270 l-67 -8 -47 -21 -46 -20 -19 -23 -19 -23 -1 -38 0 -38 17
-32 16 -32 18 -25 19 -25 11 -75 12 -75 -12 -57 -12 -58 -32 -47 -32 -47 -48
-32 -47 -33 -57 -21 -56 -21 -71 -17 -71 -17 -363 0 -362 1 0 -56 0 -55 10
-203 10 -203 20 -227 20 -227 0 -48 0 -49 -34 21 -34 21 -77 20 -78 20 -96 0
-97 0 -57 -15 -57 -15 -51 -26 -51 -25 -45 -45 -45 -45 -26 -57 -27 -57 0
-110 0 -110 19 -53 18 -53 14 -6 14 -5 0 -12 0 -13 27 -14 26 -14 56 1 56 0
78 42 79 42 23 0 24 0 24 -11 25 -11 27 -56 27 -55 19 -91 18 -91 26 -225 26
-225 20 -115 19 -115 20 -75 20 -75 0 -24 0 -24 193 6 192 7 255 20 255 20 61
0 61 0 31 -11 31 -11 -19 -26 -19 -27 -20 -80 -20 -80 -12 -84 -12 -83 7 -67
6 -67 16 -46 16 -47 38 -41 38 -40 46 -21 46 -20 91 -11 90 -11 92 12 92 12
63 29 63 29 44 46 44 46 17 51 16 50 -4 78 -5 77 -36 78 -37 77 0 29 0 28 30
34 29 34 53 17 53 18 150 5 150 5 224 -16 225 -16 38 0 37 0 10 18 10 18 15
105 15 104 16 245 16 245 10 78 10 79 19 62 19 62 32 32 31 32 22 1 21 1 25
-2 25 -2 24 -16 23 -17 37 -22 36 -23 51 0 50 0 52 26 51 25 32 37 32 36 30
63 29 63 11 76 10 76 -10 132 -11 132 -17 40 -16 39 -27 28 -27 29 -40 21 -40
21 -136 4 -135 4 -160 -27 -159 -26 -22 -15 -23 -14 0 61 0 61 31 316 30 317
2 124 2 125 -80 34 -80 33 -84 25 -84 24 -146 29 -146 30 -157 30 -156 30 -54
24 -53 24 -22 24 -22 24 -10 26 -9 26 8 37 8 36 18 26 19 27 17 26 18 26 0 42
0 42 -32 36 -31 36 -36 18 -36 18 -50 11 -50 11 -60 5 -60 4 -66 -8z"/>
</g>
</svg>
