<?xml version="1.0" standalone="no"?>
<!DOCTYPE svg PUBLIC "-//W3C//DTD SVG 20010904//EN"
 "http://www.w3.org/TR/2001/REC-SVG-20010904/DTD/svg10.dtd">
<svg version="1.0" xmlns="http://www.w3.org/2000/svg"
 width="416.000000pt" height="426.000000pt" viewBox="0 0 416.000000 426.000000"
 preserveAspectRatio="xMidYMid meet">
<metadata>
Created by potrace 1.16, written by Peter Selinger 2001-2019
</metadata>
<g transform="translate(0.000000,426.000000) scale(0.100000,-0.100000)"
fill="#000000" stroke="none">
<path d="M1989 4250 l-67 -8 -47 -21 -46 -20 -19 -23 -19 -23 -1 -28 0 -28 16
-32 17 -32 18 -23 17 -23 12 -71 12 -71 -6 -56 -6 -56 -26 -52 -25 -53 -43
-35 -42 -34 -55 -25 -54 -25 -60 -16 -60 -15 -95 -12 -95 -11 -297 5 -298 6 0
-47 0 -46 10 -203 10 -203 20 -227 20 -227 0 -67 0 -68 -42 30 -43 30 -79 20
-79 20 -86 0 -87 0 -57 -15 -57 -15 -51 -26 -51 -25 -45 -45 -45 -45 -26 -57
-27 -57 0 -100 0 -100 19 -53 18 -53 14 -6 14 -5 0 -12 0 -13 27 -14 26 -14
46 1 46 1 78 41 79 42 33 0 34 0 24 -11 25 -11 27 -56 27 -55 19 -91 18 -91
26 -225 26 -225 15 -95 16 -95 25 -100 26 -100 -1 -19 -1 -19 182 6 182 7 255
20 255 20 71 0 71 0 32 -11 31 -11 0 -9 0 -10 -20 -27 -19 -27 -20 -80 -20
-80 -12 -83 -12 -84 7 -56 6 -57 16 -47 15 -47 39 -40 38 -41 46 -20 45 -21
86 -11 86 -11 87 12 87 12 63 29 63 29 44 46 44 46 17 51 16 51 -4 68 -5 68
-37 76 -36 77 0 39 0 38 30 34 29 34 53 18 53 17 160 5 160 5 224 -16 225 -16
28 0 27 0 10 18 10 18 15 105 15 104 16 245 16 245 10 78 10 79 19 62 19 62
31 31 30 30 28 6 28 6 38 -9 38 -8 21 -20 22 -20 32 -16 32 -16 39 0 38 0 52
26 51 25 32 37 32 36 30 63 29 63 10 74 11 75 -11 124 -11 124 -16 39 -16 39
-27 28 -27 29 -40 21 -40 21 -125 4 -126 4 -159 -27 -160 -26 -26 -19 -27 -19
-6 6 -6 6 0 69 0 70 30 316 31 317 2 114 2 115 -80 34 -80 33 -84 25 -84 24
-146 29 -146 30 -156 30 -155 30 -50 21 -49 21 -27 26 -28 26 -10 32 -11 32
10 42 9 41 18 26 19 27 17 26 18 26 0 32 0 32 -32 36 -31 36 -36 18 -36 18
-50 11 -50 11 -50 4 -50 4 -66 -7z"/>
</g>
</svg>
