<?xml version="1.0" standalone="no"?>
<!DOCTYPE svg PUBLIC "-//W3C//DTD SVG 20010904//EN"
 "http://www.w3.org/TR/2001/REC-SVG-20010904/DTD/svg10.dtd">
<svg version="1.0" xmlns="http://www.w3.org/2000/svg"
 width="359.000000pt" height="429.000000pt" viewBox="0 0 359.000000 429.000000"
 preserveAspectRatio="xMidYMid meet">
<metadata>
Created by potrace 1.16, written by Peter Selinger 2001-2019
</metadata>
<g transform="translate(0.000000,429.000000) scale(0.100000,-0.100000)"
fill="#000000" stroke="none">
<path d="M2122 4265 l-44 -27 -39 -61 -39 -60 -27 -81 -27 -81 0 -155 -1 -155
24 -74 24 -73 25 -23 24 -22 -34 -7 -34 -6 -300 25 -299 25 -195 10 -195 10
-66 0 -65 0 4 -283 5 -284 -12 -102 -12 -103 -19 -74 -19 -73 -27 -58 -27 -58
-59 -58 -58 -58 -37 -15 -36 -16 -55 -8 -55 -9 -76 10 -76 11 -64 35 -64 36
-42 1 -43 1 -21 -19 -20 -18 -18 -47 -18 -46 0 -170 0 -170 18 -76 18 -76 32
-54 32 -53 35 -20 35 -21 55 1 55 1 76 36 76 37 31 6 32 6 30 -12 29 -12 30
-47 30 -46 20 -75 20 -75 31 -175 31 -175 24 -93 25 -93 41 -90 42 -89 66 0
66 0 218 10 219 10 129 -10 129 -10 60 -19 59 -19 45 -26 44 -26 23 -37 24
-38 -1 -55 -1 -55 -38 -85 -39 -85 -1 -93 0 -92 40 -35 39 -36 56 -17 55 -17
120 0 120 0 47 23 46 23 44 38 43 39 34 56 34 56 23 64 23 64 11 86 12 85 -11
71 -11 71 -35 72 -35 72 0 23 0 24 33 33 32 32 53 12 53 11 47 0 47 0 97 -15
97 -14 98 -25 98 -25 85 -29 85 -29 103 -43 104 -43 9 14 10 14 -6 40 -5 40
-10 320 -9 320 -11 75 -10 75 -12 35 -11 35 -18 28 -17 29 -29 19 -28 19 -35
0 -35 0 -36 -10 -37 -10 -16 -24 -15 -24 -36 -12 -35 -12 -44 22 -44 21 -41
44 -40 43 -26 52 -27 52 -14 67 -14 66 0 60 0 60 14 66 15 67 21 43 22 44 27
28 26 29 37 19 38 19 43 6 43 6 60 -15 60 -16 76 -35 75 -36 27 0 28 0 28 28
27 28 12 52 11 53 0 162 0 162 -15 260 -15 260 0 39 0 38 -32 -5 -33 -4 -100
-32 -100 -32 -125 -26 -125 -27 -160 0 -160 -1 -42 23 -43 22 -15 30 -15 29 0
19 0 20 37 98 37 99 1 135 0 135 -29 62 -28 62 -52 50 -52 49 -44 22 -43 22
-46 14 -46 14 -90 6 -90 5 -43 -26z"/>
</g>
</svg>
