<?xml version="1.0" standalone="no"?>
<!DOCTYPE svg PUBLIC "-//W3C//DTD SVG 20010904//EN"
 "http://www.w3.org/TR/2001/REC-SVG-20010904/DTD/svg10.dtd">
<svg version="1.0" xmlns="http://www.w3.org/2000/svg"
 width="357.000000pt" height="427.000000pt" viewBox="0 0 357.000000 427.000000"
 preserveAspectRatio="xMidYMid meet">
<metadata>
Created by potrace 1.16, written by Peter Selinger 2001-2019
</metadata>
<g transform="translate(0.000000,427.000000) scale(0.100000,-0.100000)"
fill="#000000" stroke="none">
<path d="M2122 4245 l-44 -27 -39 -61 -39 -60 -27 -81 -27 -81 0 -150 -1 -150
27 -74 27 -73 20 -15 21 -14 0 -14 0 -13 -38 -7 -38 -6 -304 25 -305 26 -195
10 -195 10 -55 0 -55 0 4 -285 3 -284 -12 -102 -11 -101 -19 -74 -19 -73 -27
-58 -27 -58 -59 -58 -58 -58 -37 -15 -36 -16 -60 -9 -59 -10 -81 11 -82 12
-63 35 -62 35 -35 1 -34 1 -20 -18 -20 -18 -18 -47 -18 -46 0 -160 1 -160 17
-76 18 -76 32 -54 32 -53 34 -20 34 -20 47 1 47 1 77 37 77 37 40 5 39 6 29
-13 30 -12 30 -47 30 -46 20 -75 20 -75 31 -175 31 -175 24 -93 25 -93 41 -90
42 -89 56 0 56 0 224 11 225 10 132 -11 133 -10 60 -19 60 -19 45 -26 44 -26
24 -37 23 -38 -1 -65 -1 -65 -38 -85 -39 -85 0 -82 -1 -83 40 -35 39 -36 56
-17 55 -16 110 -1 110 0 47 23 46 23 44 38 43 39 34 56 34 56 23 64 23 63 11
81 11 80 -11 67 -11 67 -34 72 -35 71 0 33 0 34 33 33 32 32 53 12 53 11 57 0
57 0 97 -15 97 -14 99 -25 99 -25 99 -35 99 -35 82 -35 81 -35 6 14 5 13 -9
94 -9 93 -1 165 0 165 -10 140 -10 140 -14 56 -15 56 -20 35 -21 35 -33 18
-34 18 -47 -7 -47 -7 -33 -34 -34 -34 -36 -6 -35 -7 -45 21 -44 22 -41 44 -40
43 -26 52 -27 52 -14 67 -14 66 0 70 0 70 14 66 15 67 21 43 22 44 27 28 26
29 39 20 39 20 51 5 51 5 61 -15 60 -16 76 -35 75 -36 17 0 18 0 28 28 27 28
12 52 11 53 0 142 0 142 -16 305 -16 305 -4 4 -4 4 -99 -32 -100 -32 -104 -23
-104 -24 -89 -12 -90 -12 -119 4 -120 4 -42 22 -43 22 -15 30 -15 29 0 29 0
30 37 98 37 99 0 125 1 125 -29 62 -28 62 -52 50 -52 49 -44 22 -43 22 -46 14
-46 14 -80 6 -80 5 -43 -26z"/>
</g>
</svg>
