<?xml version="1.0" standalone="no"?>
<!DOCTYPE svg PUBLIC "-//W3C//DTD SVG 20010904//EN"
 "http://www.w3.org/TR/2001/REC-SVG-20010904/DTD/svg10.dtd">
<svg version="1.0" xmlns="http://www.w3.org/2000/svg"
 width="278.000000pt" height="421.000000pt" viewBox="0 0 278.000000 421.000000"
 preserveAspectRatio="xMidYMid meet">
<metadata>
Created by potrace 1.16, written by Peter Selinger 2001-2019
</metadata>
<g transform="translate(0.000000,421.000000) scale(0.100000,-0.100000)"
fill="#000000" stroke="none">
<path d="M1134 4203 l-22 -4 -17 -19 -17 -19 6 -25 6 -26 30 -33 29 -34 11
-70 11 -71 -11 -64 -12 -63 -25 -46 -25 -47 -37 -35 -36 -36 -59 -35 -58 -35
-77 -25 -76 -25 -85 -17 -85 -18 -285 -1 -285 -2 -7 -209 -8 -209 6 -125 5
-125 15 -84 15 -84 18 -47 18 -47 31 -45 31 -46 46 -30 46 -30 69 -13 69 -12
88 12 88 12 50 26 50 26 40 12 40 13 26 -14 27 -13 17 -43 18 -43 5 -175 4
-175 -16 -91 -15 -91 -23 -58 -22 -58 -37 -39 -36 -38 -25 0 -26 0 -33 31 -33
31 -24 9 -23 9 -54 0 -54 0 -34 -30 -34 -30 -23 -52 -22 -52 -50 -214 -49
-215 -26 -81 -25 -81 -39 -78 -38 -78 -21 -26 -20 -26 0 -13 0 -14 27 -6 26
-7 172 7 172 6 194 15 194 15 62 0 62 0 25 -10 26 -10 0 -13 0 -14 -20 -25
-19 -25 -27 -99 -27 -99 -1 -125 -1 -125 19 -35 19 -35 21 -21 21 -22 42 -22
42 -22 88 -15 88 -15 135 4 135 4 39 17 40 18 52 34 53 35 40 48 41 47 35 67
36 67 19 77 20 77 0 67 0 67 -14 48 -15 47 -21 23 -22 23 -5 41 -6 41 17 26
18 26 41 19 42 19 73 0 74 0 98 -20 98 -20 103 -36 102 -35 81 -41 80 -40 38
-24 38 -24 10 0 10 0 0 28 0 27 -20 75 -20 75 -19 115 -20 115 -26 225 -26
225 -18 91 -19 91 -27 55 -27 56 -25 11 -24 11 -44 0 -43 0 -78 -41 -78 -42
-37 -1 -37 -1 -26 14 -26 14 0 13 0 12 -14 5 -14 6 -18 53 -19 53 0 90 0 90
27 57 26 57 45 45 45 45 51 25 51 26 57 15 57 15 77 0 76 0 79 -20 79 -20 43
-30 43 -30 9 0 10 0 0 78 0 77 -20 225 -20 225 -10 245 -11 245 -5 23 -4 22
-18 0 -17 0 -85 35 -85 34 -130 30 -130 30 -156 30 -156 30 -57 21 -57 22 -41
39 -41 38 5 50 5 49 36 43 37 43 0 39 0 39 -22 30 -21 31 -62 28 -62 29 -69
15 -69 15 -180 -2 -180 -1 -21 -4z"/>
</g>
</svg>
