<?xml version="1.0" standalone="no"?>
<!DOCTYPE svg PUBLIC "-//W3C//DTD SVG 20010904//EN"
 "http://www.w3.org/TR/2001/REC-SVG-20010904/DTD/svg10.dtd">
<svg version="1.0" xmlns="http://www.w3.org/2000/svg"
 width="276.000000pt" height="419.000000pt" viewBox="0 0 276.000000 419.000000"
 preserveAspectRatio="xMidYMid meet">
<metadata>
Created by potrace 1.16, written by Peter Selinger 2001-2019
</metadata>
<g transform="translate(0.000000,419.000000) scale(0.100000,-0.100000)"
fill="#000000" stroke="none">
<path d="M1134 4183 l-22 -4 -17 -19 -17 -18 12 -24 12 -23 24 -25 23 -26 12
-76 11 -77 -12 -68 -11 -68 -26 -46 -25 -47 -37 -35 -36 -36 -59 -35 -58 -35
-77 -25 -76 -25 -85 -17 -85 -18 -285 -2 -285 -2 -7 -208 -7 -209 5 -115 5
-115 15 -84 15 -84 18 -47 18 -47 31 -45 31 -46 46 -30 45 -30 65 -12 64 -12
86 12 86 12 53 28 52 28 42 11 42 12 29 -15 29 -15 17 -43 18 -43 5 -185 4
-185 -16 -91 -15 -91 -23 -58 -22 -58 -37 -39 -36 -38 -35 0 -36 0 -33 31 -33
31 -24 9 -23 9 -44 0 -44 0 -34 -30 -34 -30 -23 -52 -22 -52 -50 -214 -49
-215 -26 -81 -25 -81 -39 -78 -38 -78 -21 -26 -21 -27 17 -9 18 -10 171 7 172
6 194 15 194 15 72 0 72 0 25 -10 26 -10 0 -23 0 -24 -20 -25 -19 -25 -27 -99
-27 -99 -1 -115 -1 -115 19 -35 19 -35 21 -21 21 -22 42 -22 42 -22 88 -15 88
-15 125 4 125 5 39 17 40 17 52 34 53 35 40 48 41 47 35 67 36 67 19 77 20 77
0 57 0 57 -14 48 -15 47 -22 24 -22 23 -5 51 -5 50 18 26 17 26 41 19 42 19
83 0 84 0 98 -20 98 -20 103 -36 102 -35 81 -41 80 -40 38 -24 38 -24 0 17 0
18 -20 75 -20 75 -19 115 -20 115 -26 225 -26 225 -18 91 -19 91 -27 55 -27
56 -25 11 -24 11 -34 0 -33 0 -79 -42 -78 -41 -46 -1 -46 -1 -26 14 -27 14 0
13 0 12 -14 5 -14 6 -18 53 -19 53 0 100 0 100 27 57 26 57 45 45 45 45 51 25
51 26 57 15 57 15 87 0 86 0 79 -20 79 -20 43 -30 42 -30 0 68 0 67 -20 225
-20 225 -10 245 -11 245 -4 20 -4 21 -18 1 -18 1 -85 36 -85 35 -130 30 -130
30 -156 30 -156 30 -57 21 -57 22 -41 39 -40 38 4 59 4 59 37 43 37 44 0 29 0
29 -22 30 -21 31 -62 28 -62 29 -69 15 -69 15 -170 -2 -170 -1 -21 -4z"/>
</g>
</svg>
