<?xml version="1.0" standalone="no"?>
<!DOCTYPE svg PUBLIC "-//W3C//DTD SVG 20010904//EN"
 "http://www.w3.org/TR/2001/REC-SVG-20010904/DTD/svg10.dtd">
<svg version="1.0" xmlns="http://www.w3.org/2000/svg"
 width="412.000000pt" height="427.000000pt" viewBox="0 0 412.000000 427.000000"
 preserveAspectRatio="xMidYMid meet">
<metadata>
Created by potrace 1.16, written by Peter Selinger 2001-2019
</metadata>
<g transform="translate(0.000000,427.000000) scale(0.100000,-0.100000)"
fill="#000000" stroke="none">
<path d="M1720 4260 l-75 -7 -32 -7 -32 -7 -26 -20 -25 -20 0 -27 0 -27 30
-37 30 -37 20 -78 19 -79 7 -71 7 -70 -12 -50 -12 -50 -30 -36 -29 -36 -58
-23 -57 -23 -398 2 -398 1 5 -26 5 -27 17 -314 16 -313 -4 -142 -4 -141 -16
-37 -16 -36 -26 -17 -25 -17 -77 37 -78 36 -60 16 -61 15 -60 -4 -61 -5 -39
-21 -40 -20 -26 -29 -27 -28 -22 -44 -21 -43 -15 -67 -14 -66 0 -80 0 -80 15
-68 14 -67 32 -61 32 -60 50 -45 49 -44 38 -11 38 -12 37 7 37 7 33 34 34 33
40 7 40 7 31 -19 31 -18 18 -31 18 -31 11 -34 12 -34 10 -75 11 -75 10 -330
11 -330 -1 -32 -1 -32 423 2 422 2 55 -17 55 -17 43 -28 43 -28 19 -41 20 -40
0 -45 0 -45 -15 -56 -14 -56 -26 -37 -25 -38 -11 -41 -12 -41 12 -55 11 -54
28 -34 27 -35 52 -29 51 -29 68 -14 69 -15 80 0 81 0 84 10 85 11 52 16 52 16
33 29 33 28 0 54 0 54 -31 43 -31 44 -12 37 -12 37 15 29 15 30 31 26 31 25
77 25 77 24 190 42 190 41 105 35 106 35 79 43 79 43 10 15 9 15 -43 99 -42
99 -38 115 -38 115 -27 125 -27 125 -2 110 -1 110 13 37 13 36 26 26 26 26 28
0 28 0 26 -12 25 -11 0 -9 0 -9 43 -19 42 -20 91 0 91 0 79 20 79 20 92 45 92
45 55 54 55 54 26 52 26 51 6 63 6 63 -17 76 -17 75 -30 46 -30 45 -33 21 -33
20 -60 0 -60 0 -34 -25 -34 -25 -35 -16 -35 -16 -56 -5 -57 -6 -34 7 -35 6
-41 35 -41 36 -25 53 -26 54 -16 94 -17 93 6 383 6 382 -19 0 -18 0 -94 -36
-93 -35 -129 -40 -129 -39 -121 -26 -121 -25 -111 -6 -111 -6 -52 13 -51 12
-36 35 -36 35 5 45 5 45 21 27 21 26 17 30 17 30 -1 95 -1 95 -21 80 -21 80
-35 72 -34 73 -48 51 -48 52 -40 18 -40 19 -125 -2 -125 -1 -75 -7z"/>
</g>
</svg>
