<?xml version="1.0" standalone="no"?>
<!DOCTYPE svg PUBLIC "-//W3C//DTD SVG 20010904//EN"
 "http://www.w3.org/TR/2001/REC-SVG-20010904/DTD/svg10.dtd">
<svg version="1.0" xmlns="http://www.w3.org/2000/svg"
 width="410.000000pt" height="425.000000pt" viewBox="0 0 410.000000 425.000000"
 preserveAspectRatio="xMidYMid meet">
<metadata>
Created by potrace 1.16, written by Peter Selinger 2001-2019
</metadata>
<g transform="translate(0.000000,425.000000) scale(0.100000,-0.100000)"
fill="#000000" stroke="none">
<path d="M1720 4240 l-75 -7 -32 -7 -32 -7 -26 -20 -25 -20 0 -17 0 -17 30
-37 30 -37 20 -78 20 -78 6 -81 7 -81 -12 -50 -12 -50 -30 -36 -29 -36 -58
-23 -57 -23 -396 1 -396 2 4 -22 3 -21 15 -285 15 -285 0 -147 0 -147 -11 -53
-12 -52 -27 -28 -28 -28 -18 0 -17 0 -75 36 -76 35 -60 16 -61 15 -51 -5 -51
-5 -39 -20 -39 -20 -26 -29 -27 -28 -22 -44 -21 -43 -15 -67 -14 -66 0 -70 0
-70 14 -66 14 -67 27 -52 26 -52 40 -43 41 -44 44 -22 45 -21 35 7 36 6 34 34
33 34 47 7 47 7 34 -18 33 -18 19 -32 18 -32 11 -34 12 -34 10 -75 11 -75 11
-330 10 -330 1 -32 1 -32 420 2 421 2 55 -17 55 -17 43 -28 43 -28 19 -41 20
-40 0 -55 0 -55 -15 -56 -14 -56 -26 -37 -25 -38 -11 -40 -10 -39 11 -48 11
-47 29 -34 28 -35 51 -27 50 -28 68 -14 68 -15 70 0 71 0 84 10 85 11 52 16
52 16 33 29 33 28 0 44 0 44 -31 43 -32 44 -12 42 -13 42 13 31 12 30 34 30
34 29 77 24 78 25 190 42 190 41 105 35 105 35 75 40 75 40 12 12 13 12 -41
95 -41 95 -38 115 -38 115 -27 125 -27 125 -2 120 -1 120 13 37 13 36 26 26
26 26 38 0 38 0 26 -12 25 -11 0 -9 0 -9 43 -19 42 -20 81 0 81 0 79 20 79 20
92 45 92 45 55 54 55 54 25 51 26 50 6 54 6 55 -16 75 -17 75 -30 46 -30 45
-33 21 -33 20 -50 0 -50 0 -34 -25 -34 -25 -35 -16 -35 -17 -67 -5 -66 -5 -34
7 -35 6 -41 35 -41 36 -25 53 -26 54 -16 94 -17 93 6 383 6 382 -9 0 -8 0 -94
-36 -93 -35 -129 -40 -129 -39 -121 -26 -121 -25 -121 -6 -121 -6 -52 13 -51
12 -36 35 -36 35 4 54 5 55 21 27 22 27 17 30 17 30 -1 85 -1 85 -21 80 -21
80 -35 72 -34 73 -48 51 -48 52 -40 18 -40 19 -115 -2 -115 -1 -75 -7z"/>
</g>
</svg>
