<?xml version="1.0" standalone="no"?>
<!DOCTYPE svg PUBLIC "-//W3C//DTD SVG 20010904//EN"
 "http://www.w3.org/TR/2001/REC-SVG-20010904/DTD/svg10.dtd">
<svg version="1.0" xmlns="http://www.w3.org/2000/svg"
 width="349.000000pt" height="278.000000pt" viewBox="0 0 349.000000 278.000000"
 preserveAspectRatio="xMidYMid meet">
<metadata>
Created by potrace 1.16, written by Peter Selinger 2001-2019
</metadata>
<g transform="translate(0.000000,278.000000) scale(0.100000,-0.100000)"
fill="#000000" stroke="none">
<path d="M60 2765 l0 -15 8 0 7 0 -6 -172 -7 -173 -12 -120 -11 -120 -20 -165
-19 -165 0 -37 0 -38 11 0 10 0 15 14 14 15 57 21 58 22 90 5 90 5 70 -15 70
-15 55 -26 55 -27 27 -15 28 -15 50 -49 51 -49 32 -68 32 -68 0 -135 0 -135
-23 -71 -22 -72 -29 -31 -29 -31 -16 0 -15 0 -39 39 -38 39 -41 6 -40 7 -36
-15 -36 -14 -25 -39 -25 -38 -20 -58 -20 -57 -46 -203 -46 -202 -25 -85 -26
-85 -33 -81 -33 -80 -31 -53 -31 -52 0 -24 0 -25 249 0 250 0 78 11 78 10 78
20 78 20 52 24 52 25 50 38 50 38 33 48 32 49 16 55 17 56 -6 109 -5 109 -21
27 -21 26 -15 21 -15 21 6 16 6 15 32 16 32 15 49 12 50 11 105 1 105 1 55
-17 55 -16 55 -33 55 -33 33 -50 34 -50 -4 -55 -5 -55 -33 -53 -34 -54 -4 -63
-4 -63 35 -35 35 -35 28 -15 29 -15 70 -15 70 -16 250 -26 250 -26 120 -26
120 -25 36 -5 36 -5 6 108 7 107 0 204 0 204 11 96 10 96 21 55 21 56 26 24
26 24 46 -4 46 -5 30 -33 30 -34 61 -4 62 -4 56 27 56 27 48 50 49 50 30 62
31 62 15 69 15 70 0 115 0 115 -10 84 -9 84 -16 55 -16 55 -28 28 -28 28 -27
7 -26 6 -34 -6 -33 -6 -44 -29 -44 -29 -59 -17 -58 -17 -58 -1 -58 0 -38 20
-39 19 -32 47 -31 47 -14 52 -13 53 0 375 0 375 -1357 3 -1358 2 0 -15z"/>
</g>
</svg>
