<?xml version="1.0" standalone="no"?>
<!DOCTYPE svg PUBLIC "-//W3C//DTD SVG 20010904//EN"
 "http://www.w3.org/TR/2001/REC-SVG-20010904/DTD/svg10.dtd">
<svg version="1.0" xmlns="http://www.w3.org/2000/svg"
 width="347.000000pt" height="276.000000pt" viewBox="0 0 347.000000 276.000000"
 preserveAspectRatio="xMidYMid meet">
<metadata>
Created by potrace 1.16, written by Peter Selinger 2001-2019
</metadata>
<g transform="translate(0.000000,276.000000) scale(0.100000,-0.100000)"
fill="#000000" stroke="none">
<path d="M66 2752 l10 -7 -7 -180 -7 -180 -12 -120 -11 -120 -20 -165 -19
-165 0 -28 0 -28 15 15 15 15 57 21 58 22 100 5 100 5 70 -15 70 -15 55 -26
55 -27 27 -15 28 -15 50 -49 51 -49 32 -68 32 -68 0 -145 0 -145 -22 -71 -23
-72 -29 -31 -29 -31 -27 0 -27 0 -31 35 -31 35 -38 10 -37 11 -35 -15 -35 -14
-25 -39 -25 -38 -20 -58 -20 -57 -46 -203 -46 -202 -25 -85 -26 -85 -33 -81
-33 -80 -31 -53 -31 -52 0 -14 0 -15 239 0 240 0 78 11 78 10 78 20 78 20 52
24 52 25 50 38 50 38 33 48 32 49 16 55 17 56 -6 100 -5 99 -21 26 -21 26 -16
22 -16 23 6 24 6 24 33 15 33 16 49 12 50 12 115 0 115 1 55 -16 55 -17 55
-33 54 -33 30 -42 29 -42 6 -38 7 -38 -8 -37 -8 -36 -32 -51 -31 -52 -5 -54
-4 -53 35 -35 35 -35 28 -15 29 -15 70 -15 70 -16 250 -26 250 -26 120 -25
120 -26 26 -5 26 -5 6 108 7 107 0 204 0 204 11 96 10 96 21 55 21 56 24 22
24 22 25 5 26 5 35 -10 34 -9 28 -31 27 -31 52 -5 52 -5 56 28 56 27 48 50 49
50 30 62 31 62 16 74 16 75 -5 155 -5 155 -16 70 -17 71 -19 31 -19 32 -32 16
-31 17 -33 -6 -32 -6 -44 -29 -44 -29 -60 -18 -60 -17 -65 -1 -66 0 -39 20
-40 20 -32 47 -31 47 -14 52 -13 53 0 375 0 375 -1350 2 -1350 3 11 -8z"/>
</g>
</svg>
