<?xml version="1.0" standalone="no"?>
<!DOCTYPE svg PUBLIC "-//W3C//DTD SVG 20010904//EN"
 "http://www.w3.org/TR/2001/REC-SVG-20010904/DTD/svg10.dtd">
<svg version="1.0" xmlns="http://www.w3.org/2000/svg"
 width="409.000000pt" height="435.000000pt" viewBox="0 0 409.000000 435.000000"
 preserveAspectRatio="xMidYMid meet">
<metadata>
Created by potrace 1.16, written by Peter Selinger 2001-2019
</metadata>
<g transform="translate(0.000000,435.000000) scale(0.100000,-0.100000)"
fill="#000000" stroke="none">
<path d="M1910 4343 l-25 -4 -47 -15 -47 -15 -35 -39 -35 -39 -7 -37 -7 -36 6
-78 5 -78 41 -120 41 -121 0 -22 0 -22 -38 -36 -38 -36 -40 -13 -39 -12 -108
-12 -108 -11 -360 17 -360 18 -3 -4 -3 -3 8 -115 8 -115 0 -205 1 -206 -10
-84 -11 -85 -20 -73 -19 -73 -21 -40 -20 -40 -36 -39 -35 -40 -50 -15 -50 -14
-48 10 -48 10 -36 35 -35 34 -53 0 -53 0 -37 -25 -37 -25 -29 -43 -30 -42 -17
-50 -17 -50 0 -88 0 -88 32 -66 33 -66 41 -41 42 -41 57 -29 57 -28 63 -5 64
-6 36 12 35 12 24 23 23 23 36 12 37 12 34 -16 34 -17 22 -47 21 -47 12 -75
12 -74 -7 -395 -7 -395 -6 -23 -5 -22 383 2 384 3 75 -19 75 -18 40 -21 40
-20 31 -23 31 -24 28 -52 29 -52 4 -76 4 -77 -12 -72 -12 -72 -36 -67 -35 -67
-1 -45 -1 -46 18 -28 19 -28 43 -19 43 -19 83 -11 83 -12 81 5 80 6 47 22 47
22 35 38 35 39 15 52 16 53 0 57 0 57 -14 74 -14 73 -32 93 -32 93 12 29 12
29 17 16 18 16 55 19 55 19 87 11 88 11 376 9 377 10 22 6 21 6 26 81 25 82
15 80 16 80 25 203 25 203 16 72 16 72 29 51 29 51 25 11 26 12 32 0 32 0 34
-23 34 -22 26 -17 26 -18 39 0 39 0 37 39 37 38 21 69 22 69 10 85 10 84 0
121 0 120 -10 111 -10 110 -13 40 -14 39 -27 3 -27 3 -34 -30 -34 -30 -38 -11
-38 -10 -72 -11 -73 -10 -57 11 -57 10 -38 25 -38 25 -29 40 -28 39 -19 63
-19 63 0 372 0 372 -80 22 -80 22 -106 18 -105 18 -225 26 -224 25 -60 11 -60
10 -49 16 -50 16 -32 19 -32 19 -16 24 -16 24 0 35 0 35 11 24 10 23 30 11 29
11 0 48 0 48 -20 41 -20 42 -38 38 -37 38 -60 28 -60 29 -95 -1 -95 -2 -25 -4z"/>
</g>
</svg>
