<?xml version="1.0" standalone="no"?>
<!DOCTYPE svg PUBLIC "-//W3C//DTD SVG 20010904//EN"
 "http://www.w3.org/TR/2001/REC-SVG-20010904/DTD/svg10.dtd">
<svg version="1.0" xmlns="http://www.w3.org/2000/svg"
 width="407.000000pt" height="433.000000pt" viewBox="0 0 407.000000 433.000000"
 preserveAspectRatio="xMidYMid meet">
<metadata>
Created by potrace 1.16, written by Peter Selinger 2001-2019
</metadata>
<g transform="translate(0.000000,433.000000) scale(0.100000,-0.100000)"
fill="#000000" stroke="none">
<path d="M1910 4323 l-25 -4 -47 -15 -47 -15 -35 -39 -35 -39 -7 -37 -7 -36 6
-69 6 -69 40 -120 41 -119 0 -32 0 -32 -38 -36 -38 -36 -40 -13 -39 -12 -109
-12 -109 -11 -266 12 -266 12 -95 6 -95 6 6 -104 7 -104 1 -220 1 -221 -10
-84 -11 -85 -20 -73 -19 -73 -21 -40 -20 -40 -36 -40 -35 -39 -54 -16 -54 -15
-54 11 -54 11 -35 34 -36 35 -43 0 -43 0 -37 -25 -37 -25 -29 -43 -30 -42 -17
-50 -17 -50 0 -79 0 -78 32 -65 33 -66 41 -41 42 -41 56 -28 56 -28 54 -6 55
-6 36 12 35 12 24 23 23 24 42 12 43 13 38 -17 38 -17 21 -47 22 -47 10 -65
11 -65 -1 -235 -1 -235 -7 -193 -6 -192 375 2 375 3 80 -19 80 -18 40 -21 40
-20 31 -23 31 -24 28 -52 29 -53 4 -86 4 -86 -12 -72 -12 -72 -35 -66 -36 -67
-1 -36 -1 -37 19 -27 18 -28 43 -19 43 -19 83 -11 83 -12 71 6 71 5 47 22 46
22 35 38 35 39 15 52 16 53 0 46 0 46 -10 60 -11 59 -36 111 -36 110 7 27 6
26 23 26 22 25 56 20 56 19 87 11 88 11 376 9 377 10 22 6 21 6 26 81 25 82
15 80 16 80 25 203 25 203 16 72 16 72 29 51 29 51 25 11 26 12 42 0 42 0 34
-23 34 -22 26 -17 26 -18 29 0 29 0 37 39 37 38 21 69 22 69 10 85 10 84 0
111 0 110 -10 111 -10 110 -13 40 -14 39 -17 3 -17 4 -34 -31 -34 -30 -38 -11
-38 -10 -74 -11 -74 -10 -51 6 -51 7 -42 20 -43 20 -35 41 -36 42 -22 70 -22
70 0 372 0 372 -80 22 -80 22 -106 18 -105 18 -225 26 -224 25 -60 11 -60 10
-49 16 -50 16 -32 19 -32 19 -16 24 -16 24 0 45 0 45 11 24 10 23 30 11 29 11
0 38 0 38 -20 41 -20 42 -38 38 -37 38 -60 28 -60 29 -85 -1 -85 -2 -25 -4z"/>
</g>
</svg>
