<?xml version="1.0" standalone="no"?>
<!DOCTYPE svg PUBLIC "-//W3C//DTD SVG 20010904//EN"
 "http://www.w3.org/TR/2001/REC-SVG-20010904/DTD/svg10.dtd">
<svg version="1.0" xmlns="http://www.w3.org/2000/svg"
 width="343.000000pt" height="347.000000pt" viewBox="0 0 343.000000 347.000000"
 preserveAspectRatio="xMidYMid meet">
<metadata>
Created by potrace 1.16, written by Peter Selinger 2001-2019
</metadata>
<g transform="translate(0.000000,347.000000) scale(0.100000,-0.100000)"
fill="#000000" stroke="none">
<path d="M1150 3455 l-215 -13 -107 -1 -108 -1 3 -382 2 -383 -22 -70 -22 -70
-28 -31 -28 -32 -35 -18 -35 -19 -95 0 -95 0 -74 19 -75 19 -44 34 -45 34 -25
-3 -25 -3 -20 -26 -19 -27 -14 -58 -15 -59 -6 -180 -6 -180 13 -73 12 -73 34
-69 34 -68 46 -42 45 -42 67 -31 66 -31 107 -4 107 -4 78 17 79 17 64 24 63
24 33 0 33 0 30 -34 30 -35 12 -58 12 -58 -6 -80 -7 -80 -19 -88 -20 -89 -36
-106 -36 -107 -59 -116 -59 -116 0 -8 0 -8 163 7 162 6 235 7 236 6 84 -12 85
-13 48 -20 47 -21 26 -30 26 -31 -6 -38 -6 -37 -37 -71 -37 -72 -4 -69 -4 -70
16 -44 17 -44 32 -32 32 -32 55 -26 55 -26 180 0 180 0 58 18 58 18 19 19 20
20 0 39 0 39 -36 47 -36 47 -5 34 -5 33 6 26 6 25 42 30 41 30 68 20 68 21
208 35 208 35 105 25 105 25 85 32 85 32 3 21 3 22 -37 58 -37 58 -38 80 -37
81 -32 90 -31 90 -59 230 -58 231 -21 53 -20 54 -26 38 -27 38 -30 10 -31 11
-16 0 -16 0 -38 -11 -38 -10 -6 -17 -6 -17 -15 -17 -15 -18 -20 0 -20 0 -48
50 -47 49 -24 58 -23 58 0 150 0 150 8 35 7 36 31 33 30 33 41 -5 41 -5 61
-31 61 -31 45 -10 45 -10 77 0 77 0 56 21 55 20 44 45 45 44 26 56 26 55 19
75 20 76 10 126 11 127 -7 248 -7 247 -12 0 -12 0 -62 -25 -62 -26 -102 -24
-102 -25 -200 -30 -200 -31 -62 -14 -63 -15 -37 -15 -38 -16 -32 -31 -32 -31
-6 -29 -7 -29 12 -49 12 -49 21 -3 21 -3 15 -26 15 -26 -18 -49 -19 -49 -61
-61 -61 -60 -55 -26 -55 -26 -63 -12 -63 -13 -86 6 -85 6 -37 19 -36 19 -29
41 -30 42 -4 88 -4 88 11 74 11 75 21 83 20 82 15 28 14 27 0 28 0 28 -11 21
-11 20 -41 18 -42 18 -78 11 -78 11 -122 -1 -122 -2 -215 -12z"/>
</g>
</svg>
