<?xml version="1.0" standalone="no"?>
<!DOCTYPE svg PUBLIC "-//W3C//DTD SVG 20010904//EN"
 "http://www.w3.org/TR/2001/REC-SVG-20010904/DTD/svg10.dtd">
<svg version="1.0" xmlns="http://www.w3.org/2000/svg"
 width="341.000000pt" height="345.000000pt" viewBox="0 0 341.000000 345.000000"
 preserveAspectRatio="xMidYMid meet">
<metadata>
Created by potrace 1.16, written by Peter Selinger 2001-2019
</metadata>
<g transform="translate(0.000000,345.000000) scale(0.100000,-0.100000)"
fill="#000000" stroke="none">
<path d="M1150 3435 l-215 -13 -107 -1 -107 -1 2 -382 2 -383 -22 -70 -22 -70
-28 -31 -28 -32 -35 -18 -35 -19 -105 0 -105 0 -74 19 -75 19 -44 34 -45 34
-15 -3 -15 -3 -19 -26 -20 -27 -14 -58 -15 -59 -6 -170 -6 -170 13 -73 12 -73
34 -69 34 -68 46 -42 45 -42 66 -30 66 -31 97 -5 98 -5 78 18 79 17 64 24 63
24 43 0 43 0 30 -34 30 -35 12 -58 13 -58 -7 -87 -6 -88 -20 -91 -20 -91 -36
-106 -36 -107 -58 -114 -58 -114 146 7 147 6 250 6 251 7 84 -12 85 -13 48
-20 47 -21 26 -30 26 -31 -5 -46 -6 -46 -37 -72 -38 -72 -4 -60 -4 -61 16 -44
17 -44 32 -32 32 -32 55 -26 55 -26 170 0 170 1 58 17 58 18 19 19 20 20 0 29
0 29 -36 48 -37 48 -5 42 -4 43 6 25 6 26 42 30 41 30 68 20 68 21 208 35 208
35 100 24 100 23 88 32 89 32 4 13 5 13 -37 58 -37 58 -38 80 -37 81 -32 90
-31 90 -59 230 -58 231 -21 53 -20 54 -27 38 -26 38 -33 11 -34 11 -41 -11
-41 -11 -6 -17 -6 -17 -15 -17 -15 -18 -30 0 -30 0 -48 50 -47 49 -24 58 -23
58 0 160 0 160 8 35 7 36 31 33 30 33 50 -4 49 -5 63 -31 62 -32 45 -10 45
-10 67 0 67 0 56 21 55 20 44 45 45 44 26 56 26 55 19 75 20 76 10 126 11 127
-7 238 -7 237 -2 0 -2 0 -62 -25 -62 -26 -102 -24 -102 -25 -200 -30 -200 -31
-62 -14 -63 -15 -37 -15 -38 -16 -29 -27 -28 -27 -10 -25 -9 -24 11 -48 12
-48 18 0 19 0 15 -22 16 -22 0 -26 0 -25 -23 -50 -24 -50 -56 -52 -57 -52 -53
-24 -52 -25 -63 -12 -63 -13 -95 6 -95 5 -37 20 -37 19 -30 42 -29 42 -4 97
-4 98 11 74 11 75 21 83 20 82 15 28 14 27 0 18 0 18 -11 21 -11 20 -41 18
-42 18 -78 11 -78 11 -112 -1 -112 -2 -215 -12z"/>
</g>
</svg>
