<?xml version="1.0" standalone="no"?>
<!DOCTYPE svg PUBLIC "-//W3C//DTD SVG 20010904//EN"
 "http://www.w3.org/TR/2001/REC-SVG-20010904/DTD/svg10.dtd">
<svg version="1.0" xmlns="http://www.w3.org/2000/svg"
 width="438.000000pt" height="431.000000pt" viewBox="0 0 438.000000 431.000000"
 preserveAspectRatio="xMidYMid meet">
<metadata>
Created by potrace 1.16, written by Peter Selinger 2001-2019
</metadata>
<g transform="translate(0.000000,431.000000) scale(0.100000,-0.100000)"
fill="#000000" stroke="none">
<path d="M2104 4300 l-42 -9 -49 -24 -49 -25 -43 -47 -43 -46 -25 -56 -26 -56
0 -66 0 -66 22 -40 22 -40 24 -40 25 -40 0 -41 0 -41 -21 -27 -20 -26 -57 -17
-57 -17 -165 0 -165 -1 -292 14 -292 13 -12 -8 -12 -7 7 -236 6 -236 -10 -127
-10 -126 -20 -76 -19 -75 -26 -55 -26 -56 -45 -44 -44 -45 -55 -20 -56 -21
-57 0 -57 0 -45 10 -45 10 -63 32 -64 32 -58 4 -59 4 -30 -33 -31 -33 -7 -36
-8 -35 0 -170 0 -170 23 -58 24 -58 47 -49 48 -50 40 0 40 0 15 18 15 17 6 17
6 17 36 10 36 10 29 -10 28 -10 27 -38 26 -38 20 -54 21 -53 58 -231 59 -230
31 -90 32 -90 37 -81 38 -80 36 -57 37 -57 0 -11 0 -10 48 5 47 5 330 12 330
12 135 -5 135 -5 45 -20 45 -20 18 -17 17 -17 0 -26 0 -25 -30 -88 -29 -88
-17 -88 -16 -89 4 -100 4 -100 17 -31 16 -32 31 -30 30 -30 52 -18 53 -18 125
2 125 1 72 15 71 15 65 26 65 26 41 38 41 38 0 35 0 36 -34 16 -34 16 -6 22
-6 23 0 27 0 27 30 34 29 34 58 26 58 26 175 51 175 51 80 30 80 30 70 41 70
42 51 40 52 41 5 25 5 25 31 88 30 87 20 98 20 97 31 209 31 209 25 77 24 78
40 36 40 36 23 0 22 0 37 -10 37 -11 6 -20 7 -21 36 -15 36 -15 39 6 39 7 40
20 41 21 47 47 47 47 31 64 31 65 12 69 11 69 -6 65 -7 66 -20 46 -20 45 -31
32 -31 32 -50 21 -50 22 -92 5 -92 6 -84 -12 -84 -12 -90 -21 -90 -21 -22 -14
-21 -14 -22 13 -21 13 -14 32 -14 33 -10 76 -11 75 0 177 0 177 15 210 15 210
0 68 0 67 -2 1 -3 1 -365 8 -365 8 -55 14 -55 15 -33 17 -33 17 -20 32 -20 32
6 45 5 44 25 36 24 35 10 28 11 28 0 50 0 50 -14 33 -14 34 -38 42 -38 42 -56
28 -57 29 -60 15 -61 16 -89 5 -88 4 -41 -9z"/>
</g>
</svg>
