<?xml version="1.0" standalone="no"?>
<!DOCTYPE svg PUBLIC "-//W3C//DTD SVG 20010904//EN"
 "http://www.w3.org/TR/2001/REC-SVG-20010904/DTD/svg10.dtd">
<svg version="1.0" xmlns="http://www.w3.org/2000/svg"
 width="436.000000pt" height="429.000000pt" viewBox="0 0 436.000000 429.000000"
 preserveAspectRatio="xMidYMid meet">
<metadata>
Created by potrace 1.16, written by Peter Selinger 2001-2019
</metadata>
<g transform="translate(0.000000,429.000000) scale(0.100000,-0.100000)"
fill="#000000" stroke="none">
<path d="M2104 4280 l-42 -9 -49 -24 -49 -25 -43 -47 -43 -46 -25 -55 -25 -55
0 -58 0 -58 22 -39 21 -39 25 -43 26 -42 0 -47 0 -46 -19 -26 -20 -26 -54 -19
-54 -20 -190 0 -190 0 -272 13 -273 12 -11 -7 -12 -7 7 -236 7 -236 -11 -127
-10 -126 -20 -76 -19 -75 -26 -55 -26 -56 -45 -44 -44 -45 -55 -20 -56 -21
-67 0 -67 0 -45 10 -45 10 -62 32 -63 31 -49 5 -50 4 -30 -33 -31 -33 -7 -36
-8 -35 0 -160 0 -160 23 -58 24 -58 47 -49 48 -50 30 0 30 0 15 18 15 17 6 17
6 17 41 11 41 11 34 -11 33 -11 26 -38 27 -38 20 -54 21 -53 58 -231 59 -230
31 -90 32 -90 37 -81 38 -80 36 -57 37 -57 0 -8 0 -7 73 2 72 3 235 10 235 11
170 0 170 0 54 -11 53 -10 39 -22 38 -21 10 -29 10 -29 -34 -105 -35 -105 -16
-87 -16 -87 4 -90 4 -90 17 -31 16 -32 31 -30 30 -30 52 -18 53 -17 115 1 115
1 72 15 71 15 65 26 65 26 41 38 41 38 0 25 0 26 -34 16 -34 16 -6 22 -6 23 0
37 0 37 30 34 29 34 58 26 58 26 175 51 175 51 80 30 80 30 70 41 70 42 52 40
52 41 -2 10 -1 10 26 70 27 70 15 53 15 54 20 111 21 112 25 174 26 173 25 78
24 78 40 36 40 36 33 0 32 0 37 -10 37 -11 6 -20 7 -21 35 -14 35 -15 32 7 31
6 39 20 39 20 47 47 47 47 31 64 31 65 12 65 11 65 -7 60 -6 60 -20 45 -20 45
-31 32 -31 32 -49 21 -49 21 -83 6 -83 6 -84 -12 -84 -12 -85 -20 -85 -19 -32
-17 -32 -17 -26 14 -26 14 -14 33 -14 33 -10 76 -11 75 0 167 0 167 17 282 17
282 -7 8 -8 7 -362 7 -362 7 -55 14 -55 15 -33 17 -33 17 -20 32 -20 32 5 54
5 53 25 37 25 36 10 28 11 28 0 40 0 40 -14 33 -14 34 -38 42 -38 42 -56 28
-57 29 -59 15 -59 15 -80 5 -80 5 -41 -9z"/>
</g>
</svg>
