<?xml version="1.0" standalone="no"?>
<!DOCTYPE svg PUBLIC "-//W3C//DTD SVG 20010904//EN"
 "http://www.w3.org/TR/2001/REC-SVG-20010904/DTD/svg10.dtd">
<svg version="1.0" xmlns="http://www.w3.org/2000/svg"
 width="272.000000pt" height="292.000000pt" viewBox="0 0 272.000000 292.000000"
 preserveAspectRatio="xMidYMid meet">
<metadata>
Created by potrace 1.16, written by Peter Selinger 2001-2019
</metadata>
<g transform="translate(0.000000,292.000000) scale(0.100000,-0.100000)"
fill="#000000" stroke="none">
<path d="M425 2914 l-30 -3 -191 -12 -192 -12 -7 -235 -8 -235 6 -161 5 -161
21 -65 20 -65 26 -37 26 -38 41 -21 41 -21 81 4 81 4 35 17 35 17 40 25 40 25
23 0 23 0 25 -17 25 -16 21 -41 21 -41 14 -50 15 -50 5 -185 6 -185 -12 -89
-12 -89 -19 -49 -19 -50 -32 -29 -33 -29 -15 0 -16 0 -50 25 -50 26 -29 16
-30 16 -40 4 -41 5 -35 -24 -35 -23 -23 -46 -22 -45 -15 -70 -14 -69 -26 -225
-26 -225 -15 -67 -14 -68 -20 -61 -21 -61 4 -4 4 -4 184 -11 184 -11 185 5
185 6 87 15 87 16 56 21 56 21 42 32 42 32 17 34 18 35 0 55 0 55 -36 110 -36
110 -5 87 -6 88 17 45 18 45 39 34 40 34 58 16 57 16 55 0 55 0 59 -15 60 -16
53 -26 52 -26 54 -57 54 -56 26 -52 26 -52 15 -57 15 -57 0 -68 0 -67 -11 -53
-11 -53 -29 -73 -29 -73 0 -45 0 -45 15 -28 14 -29 44 -21 45 -22 83 -9 82
-10 116 10 116 9 90 16 90 16 131 31 131 31 6 261 7 261 0 180 0 180 -11 65
-10 65 -22 47 -21 46 -33 16 -34 16 -23 0 -23 0 -34 -12 -34 -11 -23 -23 -24
-23 -35 -12 -35 -11 -47 6 -46 6 -54 28 -55 27 -41 41 -42 41 -31 63 -32 63 0
73 0 73 16 48 16 48 30 42 29 43 37 25 37 25 33 0 33 0 36 -35 35 -34 56 -12
56 -11 54 12 54 12 37 33 37 34 26 48 27 48 20 73 20 73 12 102 12 102 -6 308
-5 309 -7 6 -6 6 -47 -18 -47 -19 -93 -28 -93 -28 -276 -46 -276 -46 -66 -24
-66 -24 -32 -35 -33 -36 0 -51 0 -50 12 -22 11 -22 29 -35 28 -35 0 -26 0 -27
-36 -28 -36 -29 -50 -17 -51 -18 -81 -10 -80 -10 -56 0 -55 0 -70 15 -70 15
-63 32 -64 32 -43 48 -44 49 -16 50 -17 51 4 54 5 55 36 70 37 70 0 39 0 38
-30 26 -31 26 -52 15 -52 16 -95 9 -95 9 -95 -1 -95 -1 -30 -3z"/>
</g>
</svg>
