<?xml version="1.0" standalone="no"?>
<!DOCTYPE svg PUBLIC "-//W3C//DTD SVG 20010904//EN"
 "http://www.w3.org/TR/2001/REC-SVG-20010904/DTD/svg10.dtd">
<svg version="1.0" xmlns="http://www.w3.org/2000/svg"
 width="270.000000pt" height="290.000000pt" viewBox="0 0 270.000000 290.000000"
 preserveAspectRatio="xMidYMid meet">
<metadata>
Created by potrace 1.16, written by Peter Selinger 2001-2019
</metadata>
<g transform="translate(0.000000,290.000000) scale(0.100000,-0.100000)"
fill="#000000" stroke="none">
<path d="M425 2894 l-30 -3 -191 -12 -192 -12 -7 -235 -8 -236 6 -150 5 -151
21 -65 20 -65 26 -37 26 -38 41 -21 41 -21 71 4 71 4 35 17 35 17 40 25 40 25
33 0 33 0 25 -17 25 -16 21 -41 21 -41 14 -50 15 -50 5 -195 5 -196 -11 -88
-12 -89 -19 -49 -19 -50 -32 -29 -33 -29 -25 0 -26 0 -50 25 -50 26 -28 15
-28 15 -32 5 -32 6 -35 -24 -35 -23 -23 -46 -22 -45 -15 -70 -14 -69 -26 -225
-26 -225 -15 -67 -14 -68 -18 -54 -18 -55 85 -7 86 -8 270 0 270 0 92 17 92
17 56 21 56 21 42 32 42 32 17 34 18 35 0 45 0 45 -36 110 -36 110 -5 98 -6
97 17 45 18 45 39 34 40 34 58 16 57 16 65 0 65 0 59 -15 60 -16 53 -26 52
-26 54 -57 54 -56 26 -52 26 -52 15 -57 15 -57 0 -78 0 -77 -11 -53 -11 -53
-29 -73 -29 -73 0 -35 0 -35 15 -28 14 -29 45 -21 44 -22 78 -9 79 -8 110 9
110 8 90 16 90 16 131 31 131 31 0 11 1 11 7 410 8 410 -12 74 -12 75 -22 47
-21 48 -38 17 -38 17 -43 -13 -42 -12 -23 -24 -24 -23 -35 -12 -36 -12 -55 6
-54 6 -56 28 -56 28 -42 41 -41 41 -33 66 -32 65 0 78 0 79 17 50 17 50 30 42
29 43 37 25 37 25 43 0 43 0 36 -35 35 -34 54 -11 54 -11 54 15 54 16 35 39
36 40 20 40 20 39 20 71 20 72 12 102 12 102 -6 298 -6 299 -4 4 -4 5 -48 -21
-48 -20 -86 -25 -87 -25 -270 -45 -269 -45 -65 -22 -65 -21 -37 -37 -38 -38 0
-41 0 -42 12 -22 11 -22 29 -35 28 -35 0 -36 0 -37 -36 -28 -36 -29 -50 -17
-51 -18 -81 -10 -80 -10 -66 0 -65 0 -70 15 -70 15 -63 32 -64 32 -43 48 -44
49 -16 50 -17 51 4 63 4 64 37 71 37 71 0 29 0 28 -30 26 -31 26 -52 15 -52
16 -95 9 -95 9 -85 -1 -85 -1 -30 -3z"/>
</g>
</svg>
