<?xml version="1.0" standalone="no"?>
<!DOCTYPE svg PUBLIC "-//W3C//DTD SVG 20010904//EN"
 "http://www.w3.org/TR/2001/REC-SVG-20010904/DTD/svg10.dtd">
<svg version="1.0" xmlns="http://www.w3.org/2000/svg"
 width="377.000000pt" height="351.000000pt" viewBox="0 0 377.000000 351.000000"
 preserveAspectRatio="xMidYMid meet">
<metadata>
Created by potrace 1.16, written by Peter Selinger 2001-2019
</metadata>
<g transform="translate(0.000000,351.000000) scale(0.100000,-0.100000)"
fill="#000000" stroke="none">
<path d="M1445 3485 l-60 -24 -37 -42 -38 -41 -11 -42 -11 -41 6 -49 6 -50 34
-55 34 -56 11 -40 11 -40 0 -41 0 -41 -22 -33 -23 -33 -45 -23 -45 -23 -75
-12 -75 -12 -280 7 -280 6 -151 6 -152 7 -7 -79 -7 -79 0 -250 -1 -250 12 -79
13 -80 23 -68 23 -67 36 -50 37 -50 54 -27 55 -26 62 -5 63 -5 74 16 73 15 12
14 11 14 25 17 24 16 37 0 36 0 48 -25 47 -26 20 -22 19 -22 34 -70 34 -70 9
-59 9 -59 -9 -36 -10 -36 -53 -52 -53 -51 -73 -35 -74 -35 -75 -21 -75 -20
-98 -12 -98 -12 -76 11 -76 12 -77 35 -78 35 -40 0 -41 0 -26 -12 -25 -11 -24
-51 -24 -51 -7 -62 -6 -62 11 -108 11 -108 21 -100 20 -100 35 -120 35 -119
44 -126 45 -125 7 -13 7 -13 145 -4 145 -4 215 -16 215 -15 110 1 110 0 35 12
35 12 3 43 3 43 -19 32 -20 32 -15 55 -16 55 -16 90 -15 91 10 54 10 54 22 31
21 32 33 22 33 23 40 14 40 13 93 12 93 11 55 -5 55 -5 50 -23 50 -23 51 -52
51 -51 23 -49 23 -49 5 -47 4 -47 -31 -31 -31 -32 -10 -18 -10 -19 0 -58 0
-58 18 -21 17 -21 32 -22 32 -22 68 -16 68 -15 350 -4 350 -3 90 -2 90 -1 13
1 12 1 0 21 0 21 19 76 20 77 20 120 20 120 21 185 20 185 15 87 15 86 14 40
14 40 16 31 16 31 26 16 25 17 27 -1 27 -1 85 -40 84 -41 68 0 69 0 37 19 37
19 21 24 22 23 20 40 20 41 11 59 11 59 0 31 0 31 -15 51 -15 51 -44 49 -44
49 -59 29 -58 30 -95 0 -95 0 -78 -43 -79 -42 -42 0 -43 0 -34 23 -34 23 -27
49 -27 50 -18 75 -18 75 2 390 1 390 7 49 6 49 -48 -6 -48 -5 -150 -36 -150
-36 -155 -27 -155 -27 -165 0 -165 -1 -48 25 -49 24 -14 28 -14 27 0 25 0 25
9 24 9 24 30 29 29 30 7 47 7 47 -11 78 -12 77 -28 75 -27 76 -28 44 -27 45
-32 33 -31 34 -27 14 -27 14 -68 0 -68 0 -60 -25z"/>
</g>
</svg>
