<?xml version="1.0" standalone="no"?>
<!DOCTYPE svg PUBLIC "-//W3C//DTD SVG 20010904//EN"
 "http://www.w3.org/TR/2001/REC-SVG-20010904/DTD/svg10.dtd">
<svg version="1.0" xmlns="http://www.w3.org/2000/svg"
 width="375.000000pt" height="349.000000pt" viewBox="0 0 375.000000 349.000000"
 preserveAspectRatio="xMidYMid meet">
<metadata>
Created by potrace 1.16, written by Peter Selinger 2001-2019
</metadata>
<g transform="translate(0.000000,349.000000) scale(0.100000,-0.100000)"
fill="#000000" stroke="none">
<path d="M1445 3465 l-60 -24 -37 -42 -38 -41 -11 -41 -11 -41 7 -41 6 -42 31
-49 31 -49 14 -44 13 -44 0 -52 0 -52 -22 -33 -23 -33 -45 -23 -45 -23 -75
-12 -75 -12 -295 7 -295 6 -136 6 -137 7 -7 -79 -6 -79 -1 -240 -1 -240 13
-79 12 -80 23 -68 23 -67 36 -50 37 -50 53 -26 54 -26 53 -6 54 -5 75 16 75
16 3 10 3 9 34 21 34 21 40 1 40 0 46 -22 47 -23 25 -26 25 -26 34 -70 33 -70
10 -65 11 -64 -11 -41 -11 -40 -53 -52 -53 -51 -73 -35 -74 -35 -75 -21 -75
-21 -107 -12 -106 -12 -78 12 -77 12 -77 35 -78 35 -30 0 -31 0 -24 -11 -24
-11 -23 -39 -22 -40 -9 -66 -9 -66 10 -106 11 -106 21 -100 20 -100 35 -120
35 -120 45 -120 45 -120 2 -12 2 -12 5 -5 5 -5 148 -6 147 -5 212 -15 212 -15
100 1 100 0 35 12 35 12 3 33 3 33 -20 32 -19 32 -20 76 -20 76 -12 76 -11 76
10 57 11 58 22 31 21 32 33 22 33 23 40 14 41 14 96 11 97 12 61 -5 61 -5 50
-24 50 -23 51 -52 51 -51 23 -49 23 -49 5 -57 4 -57 -31 -31 -31 -32 -10 -18
-10 -19 0 -48 0 -48 18 -21 17 -21 32 -22 32 -22 68 -16 68 -16 345 -3 345 -2
85 -2 85 -1 13 0 13 1 -5 8 -5 8 20 69 20 70 24 140 24 140 21 185 20 185 16
89 15 89 19 49 19 49 16 26 17 25 34 14 34 14 28 -6 27 -7 79 -39 80 -38 58 0
59 0 37 19 37 19 21 24 22 23 21 42 21 43 12 72 11 73 -17 56 -16 57 -44 49
-44 49 -59 29 -58 30 -85 0 -85 0 -78 -43 -79 -42 -52 0 -53 0 -34 23 -34 23
-27 49 -27 50 -18 75 -18 75 2 414 2 414 6 25 6 25 -38 -6 -38 -6 -150 -35
-150 -36 -155 -27 -155 -27 -175 -1 -175 0 -48 25 -49 24 -14 28 -14 27 0 35
0 35 10 26 10 26 25 22 26 22 10 44 10 44 -12 76 -11 76 -28 75 -27 76 -28 44
-27 45 -32 33 -31 34 -27 14 -27 14 -58 0 -58 0 -60 -25z"/>
</g>
</svg>
