<?xml version="1.0" standalone="no"?>
<!DOCTYPE svg PUBLIC "-//W3C//DTD SVG 20010904//EN"
 "http://www.w3.org/TR/2001/REC-SVG-20010904/DTD/svg10.dtd">
<svg version="1.0" xmlns="http://www.w3.org/2000/svg"
 width="339.000000pt" height="279.000000pt" viewBox="0 0 339.000000 279.000000"
 preserveAspectRatio="xMidYMid meet">
<metadata>
Created by potrace 1.16, written by Peter Selinger 2001-2019
</metadata>
<g transform="translate(0.000000,279.000000) scale(0.100000,-0.100000)"
fill="#000000" stroke="none">
<path d="M118 2783 l-97 -4 -6 -33 -7 -33 -1 -419 -2 -419 18 -75 18 -75 27
-50 27 -49 34 -23 34 -23 63 0 62 0 79 42 78 43 75 0 75 0 58 -30 59 -29 44
-49 44 -49 16 -55 16 -54 -12 -66 -11 -66 -21 -41 -20 -41 -22 -23 -21 -24
-37 -19 -37 -19 -49 0 -48 0 -80 39 -81 39 -31 7 -32 7 -35 -12 -35 -11 -19
-26 -20 -25 -20 -53 -20 -53 -15 -89 -16 -88 -20 -185 -21 -185 -20 -120 -20
-120 -26 -98 -25 -99 11 -11 12 -12 272 0 272 1 90 17 90 18 76 25 77 25 58
35 59 35 36 36 37 35 26 47 25 47 12 72 12 73 -11 80 -12 81 -30 34 -30 35 0
13 0 14 17 13 16 14 171 3 171 3 74 -15 74 -16 62 -29 62 -28 21 -31 22 -30 0
-19 0 -19 -37 -44 -38 -43 -3 -69 -4 -69 40 -39 41 -38 57 -22 57 -21 156 -30
156 -30 130 -30 130 -30 85 -35 85 -36 23 -5 22 -5 0 19 0 19 -40 97 -40 98
-29 102 -30 102 -17 90 -18 90 0 110 -1 110 24 48 23 48 30 15 30 16 33 -6 33
-7 65 -33 64 -34 59 -7 59 -6 71 15 72 14 52 27 53 27 48 45 48 45 32 49 31
49 20 63 20 62 1 95 1 95 -17 51 -18 51 -35 42 -35 41 -57 16 -56 17 -65 -12
-65 -12 -74 -35 -75 -34 -36 0 -37 0 -33 34 -32 33 -20 62 -19 63 -10 86 -10
87 0 135 0 135 12 257 12 258 -7 6 -6 7 -97 -32 -96 -32 -136 -29 -137 -28
-180 -27 -180 -26 -83 -19 -82 -20 -41 -21 -42 -21 -23 -25 -24 -26 0 -57 0
-56 13 -18 12 -17 25 -12 25 -13 3 -22 4 -23 -37 -35 -37 -35 -37 -18 -36 -19
-56 -12 -57 -13 -193 5 -194 5 -42 18 -43 17 0 17 0 16 31 38 31 38 9 37 9 37
0 81 0 81 -15 42 -14 41 -27 35 -26 34 -46 31 -46 30 -76 24 -75 24 -90 11
-90 11 -145 -2 -145 -2 -97 -3z"/>
</g>
</svg>
