<?xml version="1.0" standalone="no"?>
<!DOCTYPE svg PUBLIC "-//W3C//DTD SVG 20010904//EN"
 "http://www.w3.org/TR/2001/REC-SVG-20010904/DTD/svg10.dtd">
<svg version="1.0" xmlns="http://www.w3.org/2000/svg"
 width="337.000000pt" height="277.000000pt" viewBox="0 0 337.000000 277.000000"
 preserveAspectRatio="xMidYMid meet">
<metadata>
Created by potrace 1.16, written by Peter Selinger 2001-2019
</metadata>
<g transform="translate(0.000000,277.000000) scale(0.100000,-0.100000)"
fill="#000000" stroke="none">
<path d="M118 2763 l-97 -4 -6 -33 -7 -33 -1 -409 -2 -409 18 -75 18 -75 27
-50 27 -49 34 -23 34 -23 53 0 52 0 79 42 78 43 85 0 85 0 58 -30 59 -29 44
-49 44 -49 16 -57 17 -56 -11 -73 -12 -72 -21 -43 -21 -42 -22 -23 -21 -24
-37 -19 -37 -19 -59 0 -58 0 -80 38 -79 39 -27 7 -28 6 -34 -14 -34 -14 -17
-25 -16 -26 -19 -49 -19 -49 -15 -89 -16 -89 -20 -185 -21 -185 -24 -140 -24
-140 -20 -70 -20 -70 10 -10 10 -10 262 0 262 1 90 17 90 18 76 25 77 25 58
35 59 35 36 36 37 35 25 47 26 46 11 68 12 68 -11 77 -12 76 -23 26 -24 25
-12 24 -12 23 21 22 22 21 182 3 182 3 74 -15 74 -16 62 -29 62 -28 21 -31 22
-30 0 -29 0 -29 -37 -44 -37 -43 -4 -59 -4 -59 40 -38 41 -39 58 -22 57 -21
161 -31 160 -30 136 -33 137 -33 83 -36 83 -35 4 4 4 4 -45 113 -45 113 -25
90 -26 90 -17 90 -18 90 0 120 -1 120 24 48 23 48 31 15 30 16 43 -6 44 -6 53
-30 54 -30 56 -11 57 -10 62 11 63 11 62 29 62 29 50 46 50 47 32 49 31 49 20
63 20 62 1 85 1 85 -17 51 -18 51 -35 42 -35 41 -55 16 -54 15 -57 -11 -58
-12 -74 -34 -74 -34 -46 0 -47 0 -33 34 -32 33 -20 62 -19 63 -10 86 -10 87 0
150 0 150 12 242 11 243 -4 4 -4 4 -88 -29 -87 -30 -138 -29 -137 -28 -180
-27 -180 -26 -83 -19 -82 -20 -41 -21 -42 -21 -23 -25 -24 -26 0 -47 0 -46 13
-18 12 -17 25 -12 25 -12 3 -33 3 -33 -36 -35 -37 -35 -37 -18 -36 -19 -56
-12 -56 -13 -204 5 -204 5 -42 18 -43 17 0 27 0 26 31 38 31 38 9 37 9 37 0
71 0 71 -15 42 -14 41 -27 35 -26 34 -46 31 -46 30 -76 24 -75 24 -90 11 -90
11 -135 -2 -135 -2 -97 -3z"/>
</g>
</svg>
