<?xml version="1.0" standalone="no"?>
<!DOCTYPE svg PUBLIC "-//W3C//DTD SVG 20010904//EN"
 "http://www.w3.org/TR/2001/REC-SVG-20010904/DTD/svg10.dtd">
<svg version="1.0" xmlns="http://www.w3.org/2000/svg"
 width="401.000000pt" height="392.000000pt" viewBox="0 0 401.000000 392.000000"
 preserveAspectRatio="xMidYMid meet">
<metadata>
Created by potrace 1.16, written by Peter Selinger 2001-2019
</metadata>
<g transform="translate(0.000000,392.000000) scale(0.100000,-0.100000)"
fill="#000000" stroke="none">
<path d="M2488 3907 l-46 -13 -26 -17 -25 -17 -12 -40 -12 -39 21 -58 20 -58
23 -60 23 -60 -1 -115 -1 -115 -21 -80 -21 -80 -41 -84 -41 -84 -73 -72 -72
-73 -59 -23 -59 -24 -160 1 -160 1 -59 17 -59 17 -23 15 -22 15 -17 41 -16 41
7 41 6 41 29 81 29 82 16 68 16 69 1 80 0 80 -20 45 -20 45 -36 32 -37 32 -73
23 -72 23 -374 -3 -374 -2 -4 -4 -4 -3 21 -324 20 -323 0 -131 0 -131 -11 -60
-11 -59 -14 -22 -14 -23 -20 0 -20 0 -50 34 -50 35 -55 11 -54 11 -48 -7 -48
-7 -55 -20 -55 -20 -56 -54 -56 -53 -28 -57 -28 -58 -5 -77 -4 -77 20 -33 21
-34 43 -31 43 -30 40 -21 40 -20 85 -27 85 -27 97 -5 97 -6 45 13 46 13 22 22
23 23 43 13 44 13 31 -18 32 -17 19 -37 19 -37 5 -96 4 -96 -16 -104 -17 -104
-30 -120 -30 -120 -45 -133 -45 -133 -35 -82 -34 -81 0 -20 0 -19 158 6 157 7
255 20 255 20 60 0 60 0 38 -11 37 -10 0 -13 0 -14 -14 -11 -14 -12 -23 -52
-24 -52 0 -145 1 -145 17 -65 18 -65 21 -55 22 -55 30 -55 30 -55 56 -56 55
-55 49 -17 50 -17 56 0 56 0 59 11 59 11 46 23 46 23 36 40 35 39 18 53 18 53
-6 121 -5 121 -27 85 -27 85 -11 37 -11 37 17 35 16 35 42 21 41 21 71 15 72
15 375 9 375 9 32 11 33 12 19 66 19 67 10 50 11 50 26 225 26 225 14 69 15
70 22 45 23 46 35 23 34 23 26 -6 25 -6 25 -14 25 -14 50 -26 50 -25 36 0 35
0 33 29 32 29 19 50 19 49 12 89 11 88 -5 205 -5 206 -15 50 -14 50 -21 41
-21 41 -25 16 -25 17 -43 0 -43 0 -40 -25 -40 -25 -35 -17 -35 -16 -61 -5 -61
-4 -41 21 -41 21 -26 38 -26 37 -22 70 -22 70 2 381 1 382 -108 56 -107 56
-99 36 -99 36 -105 24 -105 24 -95 5 -95 5 -47 -13z"/>
</g>
</svg>
