<?xml version="1.0" standalone="no"?>
<!DOCTYPE svg PUBLIC "-//W3C//DTD SVG 20010904//EN"
 "http://www.w3.org/TR/2001/REC-SVG-20010904/DTD/svg10.dtd">
<svg version="1.0" xmlns="http://www.w3.org/2000/svg"
 width="399.000000pt" height="390.000000pt" viewBox="0 0 399.000000 390.000000"
 preserveAspectRatio="xMidYMid meet">
<metadata>
Created by potrace 1.16, written by Peter Selinger 2001-2019
</metadata>
<g transform="translate(0.000000,390.000000) scale(0.100000,-0.100000)"
fill="#000000" stroke="none">
<path d="M2488 3887 l-46 -13 -25 -17 -25 -16 -12 -35 -11 -34 21 -59 22 -58
21 -55 21 -55 -1 -125 -1 -125 -21 -80 -21 -80 -41 -84 -41 -84 -73 -72 -72
-73 -59 -23 -59 -24 -170 1 -170 1 -59 17 -59 17 -23 15 -23 16 -17 43 -16 44
7 47 7 47 29 82 29 83 16 68 16 69 0 71 0 71 -19 44 -20 44 -36 32 -37 32 -73
23 -72 23 -364 -3 -364 -2 -4 -3 -3 -3 20 -310 20 -309 0 -146 0 -145 -11 -60
-11 -59 -14 -22 -14 -23 -30 0 -30 0 -50 34 -50 35 -53 11 -52 10 -53 -10 -52
-10 -48 -20 -49 -21 -51 -52 -51 -52 -27 -54 -27 -55 -5 -67 -5 -67 21 -34 21
-34 43 -31 43 -30 40 -21 40 -20 85 -27 85 -26 87 -6 87 -6 45 13 46 13 22 22
23 22 34 11 34 12 24 0 25 0 26 -16 27 -16 19 -36 20 -37 4 -106 4 -107 -16
-103 -17 -104 -30 -120 -30 -120 -45 -133 -45 -133 -35 -82 -34 -81 0 -10 0
-9 148 6 147 7 255 20 255 20 70 0 70 0 37 -10 37 -11 7 -10 6 -10 -26 -37
-25 -37 -18 -40 -18 -40 1 -135 0 -135 17 -65 18 -65 21 -55 22 -55 30 -55 30
-55 56 -56 55 -55 49 -17 50 -17 46 0 46 0 59 11 59 11 41 20 40 20 38 36 37
36 20 53 20 54 0 87 0 87 -14 66 -14 65 -26 75 -26 76 0 27 0 27 15 29 15 30
41 21 41 20 71 15 72 15 375 9 375 9 32 11 33 12 19 66 19 67 10 50 11 50 26
225 26 225 14 69 15 70 22 45 23 46 35 23 35 24 32 -6 32 -5 28 -15 28 -15 50
-26 50 -25 26 0 25 0 33 29 32 29 19 50 19 49 12 89 11 88 -5 196 -5 195 -15
50 -14 50 -21 41 -21 41 -25 16 -25 17 -33 0 -33 0 -40 -25 -40 -25 -35 -17
-35 -17 -71 -4 -71 -4 -41 21 -41 21 -26 38 -26 37 -22 70 -22 70 1 382 2 381
-109 57 -109 56 -107 38 -108 39 -97 21 -97 21 -83 5 -83 5 -47 -13z"/>
</g>
</svg>
