<?xml version="1.0" standalone="no"?>
<!DOCTYPE svg PUBLIC "-//W3C//DTD SVG 20010904//EN"
 "http://www.w3.org/TR/2001/REC-SVG-20010904/DTD/svg10.dtd">
<svg version="1.0" xmlns="http://www.w3.org/2000/svg"
 width="381.000000pt" height="297.000000pt" viewBox="0 0 381.000000 297.000000"
 preserveAspectRatio="xMidYMid meet">
<metadata>
Created by potrace 1.16, written by Peter Selinger 2001-2019
</metadata>
<g transform="translate(0.000000,297.000000) scale(0.100000,-0.100000)"
fill="#000000" stroke="none">
<path d="M2590 2960 l-45 -8 -36 -15 -35 -16 -19 -34 -18 -34 5 -40 6 -39 30
-70 30 -69 12 -65 12 -65 -7 -79 -7 -79 -18 -72 -18 -72 -30 -64 -29 -64 -42
-52 -41 -51 -52 -26 -52 -26 -60 0 -61 0 -69 10 -70 10 -44 22 -44 22 -20 40
-20 40 6 57 5 57 41 120 40 120 0 82 0 82 -27 49 -26 49 -46 31 -46 30 -50 14
-50 15 -70 10 -70 10 -136 0 -136 0 -213 -7 -213 -6 7 -136 7 -136 15 -210 14
-210 0 -152 0 -152 -11 -50 -10 -49 -19 -17 -19 -17 -33 20 -33 20 -69 21 -69
21 -93 11 -94 10 -75 -10 -75 -11 -71 -27 -72 -28 -48 -43 -48 -43 -27 -56
-28 -56 0 -82 0 -82 32 -65 32 -65 53 -50 54 -51 64 -33 64 -32 79 -5 79 -5
34 18 33 18 0 8 0 8 30 16 29 15 39 0 39 0 25 -23 24 -22 22 -45 21 -45 16
-90 15 -90 15 -235 14 -235 18 -147 17 -146 113 -7 112 -7 198 4 198 5 82 22
82 23 53 31 52 32 33 43 32 43 12 42 12 42 0 80 -1 80 -15 55 -15 55 -26 60
-26 60 0 33 0 33 24 24 24 24 58 18 59 17 205 1 205 0 65 -18 65 -18 55 -25
55 -25 34 -32 33 -32 13 -30 13 -30 -10 -18 -9 -18 -23 -9 -24 -9 -12 -51 -12
-51 6 -33 7 -34 21 -27 21 -27 60 -29 60 -28 136 -32 136 -31 115 -30 114 -29
76 -30 76 -29 67 -40 66 -40 25 0 26 0 54 108 54 107 36 107 36 106 20 89 20
88 6 100 7 100 -13 58 -12 58 -30 35 -30 34 -53 0 -53 0 -63 -24 -64 -24 -79
-17 -79 -18 -88 5 -87 5 -66 31 -65 30 -44 41 -44 41 -32 60 -32 60 -14 67
-15 68 0 115 0 115 10 82 9 82 11 41 11 40 22 26 23 26 45 -34 45 -35 75 -19
74 -19 115 0 115 0 35 19 35 18 28 32 27 31 21 65 21 65 5 190 4 190 -8 205
-8 205 -95 33 -95 34 -170 43 -170 43 -94 16 -93 16 -107 4 -106 5 -45 -9z"/>
</g>
</svg>
