<?xml version="1.0" standalone="no"?>
<!DOCTYPE svg PUBLIC "-//W3C//DTD SVG 20010904//EN"
 "http://www.w3.org/TR/2001/REC-SVG-20010904/DTD/svg10.dtd">
<svg version="1.0" xmlns="http://www.w3.org/2000/svg"
 width="379.000000pt" height="295.000000pt" viewBox="0 0 379.000000 295.000000"
 preserveAspectRatio="xMidYMid meet">
<metadata>
Created by potrace 1.16, written by Peter Selinger 2001-2019
</metadata>
<g transform="translate(0.000000,295.000000) scale(0.100000,-0.100000)"
fill="#000000" stroke="none">
<path d="M2590 2940 l-45 -8 -35 -15 -35 -15 -19 -32 -18 -32 5 -33 5 -33 30
-69 30 -68 12 -65 12 -65 -6 -87 -7 -87 -19 -74 -18 -74 -30 -64 -29 -64 -42
-52 -41 -51 -52 -26 -52 -26 -70 0 -71 0 -69 10 -70 10 -44 22 -44 22 -20 40
-21 40 6 66 5 65 41 122 41 121 0 72 0 72 -27 49 -26 49 -46 31 -46 30 -50 14
-50 15 -70 10 -70 10 -126 0 -126 0 -213 -7 -213 -6 7 -116 7 -116 15 -240 16
-240 -4 -170 -3 -170 -15 -29 -15 -29 -17 -11 -17 -10 -53 26 -53 27 -55 16
-55 15 -87 10 -87 10 -71 -10 -70 -10 -72 -27 -71 -28 -48 -43 -48 -43 -27
-55 -27 -56 0 -73 0 -74 31 -64 32 -64 53 -50 54 -51 64 -33 64 -32 69 -5 69
-5 34 18 33 18 0 8 0 8 30 16 29 15 49 0 49 0 25 -23 24 -22 22 -45 21 -45 15
-87 15 -88 16 -247 15 -248 17 -115 16 -115 0 -22 -1 -21 114 -7 114 -7 188 4
187 5 82 22 82 23 53 31 52 32 33 43 32 43 12 42 12 42 -1 70 0 70 -15 55 -15
55 -26 60 -26 60 0 43 0 43 24 24 24 24 58 18 59 17 215 1 215 0 65 -18 65
-18 55 -25 55 -25 37 -36 38 -37 10 -32 11 -33 -11 -21 -11 -21 -23 -9 -24 -9
-12 -50 -12 -50 11 -34 12 -34 22 -21 22 -21 55 -25 55 -26 135 -31 135 -31
115 -30 114 -29 76 -30 76 -29 67 -40 66 -40 15 0 16 0 54 108 54 107 36 107
36 106 20 91 20 91 6 88 7 87 -13 58 -12 58 -30 35 -30 34 -43 0 -43 0 -63
-24 -64 -24 -79 -17 -78 -18 -98 5 -97 5 -66 31 -66 30 -45 42 -46 42 -34 68
-34 69 -12 73 -13 73 6 170 6 170 15 59 14 58 20 27 19 26 15 3 15 3 45 -34
44 -34 75 -19 74 -19 105 0 105 0 35 19 35 18 28 32 27 31 21 65 21 65 5 180
4 180 -8 205 -8 205 -95 33 -95 34 -170 43 -170 43 -95 16 -95 16 -95 4 -95 5
-45 -9z"/>
</g>
</svg>
