<?xml version="1.0" standalone="no"?>
<!DOCTYPE svg PUBLIC "-//W3C//DTD SVG 20010904//EN"
 "http://www.w3.org/TR/2001/REC-SVG-20010904/DTD/svg10.dtd">
<svg version="1.0" xmlns="http://www.w3.org/2000/svg"
 width="271.000000pt" height="292.000000pt" viewBox="0 0 271.000000 292.000000"
 preserveAspectRatio="xMidYMid meet">
<metadata>
Created by potrace 1.16, written by Peter Selinger 2001-2019
</metadata>
<g transform="translate(0.000000,292.000000) scale(0.100000,-0.100000)"
fill="#000000" stroke="none">
<path d="M1657 2906 l-48 -13 -29 -28 -28 -27 -6 -33 -7 -34 35 -103 34 -103
12 -63 13 -62 -5 -73 -5 -72 -21 -47 -21 -47 -38 -40 -38 -40 -45 -20 -45 -21
-80 0 -80 0 -69 15 -70 15 -54 32 -55 33 -18 30 -19 30 -6 33 -6 33 17 47 18
47 17 25 18 25 16 54 16 55 0 58 0 59 -14 28 -15 28 -25 17 -26 16 -62 18 -63
17 -225 -3 -225 -3 -200 -7 -200 -7 -3 -1378 -2 -1378 17 -7 18 -7 295 0 295
1 94 22 95 22 62 29 63 29 46 43 47 43 21 41 22 40 0 115 0 115 -33 73 -33 73
-6 49 -6 48 7 26 7 27 35 39 36 39 53 20 54 20 80 10 80 10 79 -9 78 -9 30 -7
29 -7 45 -22 45 -23 22 -24 22 -23 11 -30 11 -30 -6 -34 -7 -35 -35 -70 -36
-71 -1 -56 -1 -56 29 -38 29 -37 52 -23 52 -24 79 -20 79 -21 150 -35 150 -35
94 -31 94 -31 71 -33 71 -34 48 -27 47 -28 11 11 10 10 -10 84 -10 84 -11 275
-10 275 -9 55 -9 55 -8 30 -7 30 -18 35 -17 35 -22 23 -21 22 -52 0 -52 0 -35
-20 -35 -19 -44 -22 -44 -21 -66 4 -66 3 -57 28 -57 28 -48 43 -48 44 -33 55
-33 55 -16 59 -15 58 5 145 6 145 14 52 15 52 21 34 20 33 20 18 20 18 35 0
36 0 56 -32 56 -32 67 -14 66 -14 71 0 72 0 53 17 54 17 51 51 51 51 23 59 22
60 14 75 13 75 1 220 0 220 -7 97 -6 97 -106 25 -106 26 -150 30 -150 30 -113
15 -113 15 -127 -1 -127 0 -48 -13z"/>
</g>
</svg>
