<?xml version="1.0" standalone="no"?>
<!DOCTYPE svg PUBLIC "-//W3C//DTD SVG 20010904//EN"
 "http://www.w3.org/TR/2001/REC-SVG-20010904/DTD/svg10.dtd">
<svg version="1.0" xmlns="http://www.w3.org/2000/svg"
 width="269.000000pt" height="290.000000pt" viewBox="0 0 269.000000 290.000000"
 preserveAspectRatio="xMidYMid meet">
<metadata>
Created by potrace 1.16, written by Peter Selinger 2001-2019
</metadata>
<g transform="translate(0.000000,290.000000) scale(0.100000,-0.100000)"
fill="#000000" stroke="none">
<path d="M1657 2886 l-48 -13 -28 -27 -29 -28 -5 -26 -5 -27 33 -100 33 -100
12 -62 13 -63 -5 -82 -4 -83 -22 -47 -21 -47 -38 -40 -38 -40 -45 -20 -45 -21
-90 0 -90 0 -70 15 -70 15 -55 34 -55 33 -22 44 -23 43 0 33 0 33 17 42 16 43
18 25 17 25 16 54 16 55 0 48 0 49 -14 28 -15 28 -25 17 -26 16 -62 17 -63 17
-215 -2 -215 -3 -200 -7 -200 -7 -3 -1368 -2 -1368 17 -7 18 -7 285 0 285 1
94 22 95 22 62 29 63 29 46 43 47 43 21 41 22 40 0 105 -1 105 -33 74 -33 74
-5 58 -6 57 7 26 7 27 35 39 36 39 53 20 54 20 85 11 84 10 89 -10 88 -10 30
-9 31 -8 41 -21 40 -21 26 -31 26 -31 7 -34 6 -33 -7 -34 -7 -33 -35 -70 -35
-69 -1 -47 -1 -47 29 -37 28 -37 51 -23 51 -22 55 -16 55 -16 158 -36 159 -37
77 -23 77 -23 80 -32 79 -31 67 -39 68 -39 4 8 5 7 -9 74 -9 75 -11 275 -10
275 -9 55 -9 55 -8 30 -7 30 -18 35 -17 35 -22 23 -21 22 -42 0 -42 0 -35 -20
-35 -19 -44 -22 -43 -21 -77 4 -76 3 -57 28 -57 28 -48 43 -48 44 -33 55 -33
55 -16 59 -15 58 5 155 5 155 15 52 15 52 21 34 20 33 21 19 20 18 44 0 43 0
58 -32 57 -33 67 -14 66 -14 61 0 62 0 53 17 54 17 51 51 51 51 23 59 22 60
14 75 13 75 1 210 0 210 -7 97 -6 97 -106 25 -106 26 -150 30 -150 30 -113 15
-113 15 -117 -1 -117 0 -48 -13z"/>
</g>
</svg>
