<?xml version="1.0" standalone="no"?>
<!DOCTYPE svg PUBLIC "-//W3C//DTD SVG 20010904//EN"
 "http://www.w3.org/TR/2001/REC-SVG-20010904/DTD/svg10.dtd">
<svg version="1.0" xmlns="http://www.w3.org/2000/svg"
 width="370.000000pt" height="365.000000pt" viewBox="0 0 370.000000 365.000000"
 preserveAspectRatio="xMidYMid meet">
<metadata>
Created by potrace 1.16, written by Peter Selinger 2001-2019
</metadata>
<g transform="translate(0.000000,365.000000) scale(0.100000,-0.100000)"
fill="#000000" stroke="none">
<path d="M505 3635 l-180 -13 -101 -1 -101 -1 -6 -82 -7 -83 0 -216 0 -215 16
-95 16 -94 19 -50 19 -51 29 -46 30 -47 42 -28 43 -28 95 1 96 0 80 34 80 34
65 4 65 4 35 -24 35 -23 27 -55 27 -55 12 -89 11 -89 -4 -82 -4 -82 -28 -49
-28 -49 -43 -40 -42 -40 -57 -34 -56 -34 -63 -23 -64 -22 -74 -10 -74 -10 -50
8 -50 8 -59 36 -60 36 -49 0 -49 0 -28 -29 -29 -28 -17 -59 -18 -59 1 -135 1
-135 16 -120 17 -120 25 -133 25 -133 16 -71 16 -71 206 7 206 6 140 14 140
14 108 13 108 12 4 -5 5 -5 -19 -84 -20 -84 -12 -84 -12 -84 6 -111 5 -111 22
-68 21 -67 42 -53 43 -52 40 -27 39 -28 60 -21 60 -21 101 -5 101 -6 50 12 50
12 58 39 59 39 33 42 33 41 25 53 25 54 15 63 15 63 0 120 0 120 -15 65 -16
65 -27 77 -27 76 17 35 16 34 39 19 38 19 130 0 130 0 110 -23 110 -24 155
-52 155 -53 47 -19 48 -18 11 11 11 11 -50 133 -50 134 -35 120 -35 120 -20
100 -21 100 -10 100 -10 100 9 62 8 62 22 40 23 39 24 11 24 11 22 0 22 0 65
-31 65 -31 65 -14 65 -14 65 0 65 0 95 14 96 15 87 29 87 29 56 34 56 34 38
42 39 41 11 42 11 42 -11 71 -11 72 -33 70 -34 70 -25 26 -25 26 -48 24 -48
23 -47 -1 -48 -1 -35 -21 -35 -22 -3 -9 -3 -10 -75 -16 -75 -16 -45 6 -45 6
-52 26 -52 25 -34 47 -35 47 -15 36 -14 35 -17 68 -17 68 -9 132 -8 132 8 224
9 225 -5 4 -4 4 -107 -26 -108 -26 -75 -10 -75 -11 -150 -15 -150 -16 -83 -15
-84 -15 -54 -20 -53 -20 -26 -30 -25 -31 0 -51 0 -52 21 -45 21 -45 19 -54 19
-54 0 -44 0 -44 -15 -28 -14 -29 -30 -25 -30 -25 -48 -16 -48 -15 -65 -11 -65
-10 -124 0 -124 0 -64 11 -64 11 -46 32 -47 31 -20 40 -21 40 0 115 0 115 24
105 23 105 20 46 19 47 -3 32 -3 33 -25 18 -25 19 -54 10 -54 10 -156 -1 -156
-2 -180 -12z"/>
</g>
</svg>
