<?xml version="1.0" standalone="no"?>
<!DOCTYPE svg PUBLIC "-//W3C//DTD SVG 20010904//EN"
 "http://www.w3.org/TR/2001/REC-SVG-20010904/DTD/svg10.dtd">
<svg version="1.0" xmlns="http://www.w3.org/2000/svg"
 width="368.000000pt" height="363.000000pt" viewBox="0 0 368.000000 363.000000"
 preserveAspectRatio="xMidYMid meet">
<metadata>
Created by potrace 1.16, written by Peter Selinger 2001-2019
</metadata>
<g transform="translate(0.000000,363.000000) scale(0.100000,-0.100000)"
fill="#000000" stroke="none">
<path d="M505 3615 l-180 -13 -101 -1 -101 -1 -6 -82 -7 -83 0 -206 0 -205 16
-95 16 -94 19 -50 19 -51 29 -46 30 -47 42 -28 43 -28 85 1 86 0 79 33 78 33
50 7 50 8 36 -8 35 -8 26 -18 26 -19 27 -54 27 -55 12 -89 11 -89 -4 -91 -4
-92 -28 -49 -28 -50 -43 -40 -42 -40 -57 -34 -56 -34 -64 -23 -63 -23 -79 -10
-79 -11 -55 9 -55 9 -59 36 -60 36 -39 0 -39 0 -28 -29 -29 -28 -17 -59 -18
-59 1 -125 1 -125 16 -120 17 -120 25 -133 25 -133 16 -71 16 -71 191 6 191 7
150 14 150 15 130 15 130 16 10 0 10 -1 -22 -18 -23 -19 -19 -84 -20 -83 -12
-84 -12 -84 6 -101 5 -101 22 -68 21 -67 42 -53 43 -52 40 -27 39 -28 60 -21
60 -21 91 -5 91 -6 50 12 50 12 58 39 59 39 33 42 33 41 25 53 25 54 15 63 15
63 0 108 0 108 -16 72 -17 72 -23 63 -24 62 0 26 0 25 15 28 14 28 38 19 38
19 140 0 140 0 108 -23 109 -23 122 -39 122 -39 73 -31 73 -30 8 5 7 4 -48
128 -48 128 -34 120 -35 120 -20 100 -21 100 -11 106 -10 106 9 66 9 66 22 40
23 39 24 11 24 11 31 0 30 0 78 -35 77 -35 77 -12 78 -12 106 12 107 12 75 21
75 21 74 35 73 35 53 51 53 52 11 40 11 41 -11 64 -10 65 -33 70 -34 70 -25
26 -25 26 -47 23 -46 22 -40 0 -40 -1 -34 -21 -34 -21 -3 -9 -3 -10 -75 -16
-75 -16 -54 5 -53 6 -54 26 -53 26 -35 47 -34 47 -16 40 -16 40 -15 60 -16 60
-8 140 -9 140 8 220 8 220 -3 3 -2 3 -74 -20 -74 -20 -95 -15 -95 -15 -155
-16 -155 -16 -83 -15 -84 -15 -54 -20 -53 -20 -26 -30 -25 -31 0 -41 0 -42 21
-45 21 -45 19 -54 19 -54 0 -54 0 -54 -15 -28 -14 -29 -30 -25 -30 -25 -48
-16 -48 -15 -65 -11 -65 -10 -134 0 -134 0 -64 11 -64 11 -46 32 -47 31 -20
40 -21 40 0 125 0 125 24 105 23 105 20 47 20 46 -4 23 -3 22 -25 18 -25 19
-54 10 -54 10 -146 -1 -146 -2 -180 -12z"/>
</g>
</svg>
