<?xml version="1.0" standalone="no"?>
<!DOCTYPE svg PUBLIC "-//W3C//DTD SVG 20010904//EN"
 "http://www.w3.org/TR/2001/REC-SVG-20010904/DTD/svg10.dtd">
<svg version="1.0" xmlns="http://www.w3.org/2000/svg"
 width="366.000000pt" height="349.000000pt" viewBox="0 0 366.000000 349.000000"
 preserveAspectRatio="xMidYMid meet">
<metadata>
Created by potrace 1.16, written by Peter Selinger 2001-2019
</metadata>
<g transform="translate(0.000000,349.000000) scale(0.100000,-0.100000)"
fill="#000000" stroke="none">
<path d="M200 3148 l-25 -343 0 -165 0 -165 13 -37 14 -38 21 0 21 0 40 19 41
20 102 20 101 21 104 0 104 0 57 -15 56 -15 46 -21 46 -21 49 -45 49 -44 28
-57 28 -57 0 -90 0 -90 -22 -45 -22 -45 -41 -47 -41 -47 -54 -36 -55 -36 -59
-29 -59 -29 -88 -27 -89 -26 -100 -5 -100 -5 -41 11 -41 11 -39 27 -39 27 -58
4 -58 4 -21 -18 -21 -19 -20 -45 -20 -45 0 -100 0 -100 12 -75 12 -75 29 -110
29 -110 26 -70 26 -70 29 -65 28 -65 7 -28 6 -28 32 6 32 6 350 2 350 2 65
-17 65 -17 45 -20 45 -20 32 -33 32 -33 16 -44 15 -44 0 -33 0 -33 -11 -53
-11 -53 -34 -64 -34 -64 0 -56 0 -57 31 -27 30 -26 37 -11 37 -11 141 -6 141
-6 54 18 54 18 62 63 62 63 36 70 35 71 15 62 15 63 0 41 0 41 -11 32 -11 31
-23 6 -23 6 -10 41 -11 41 12 25 12 25 34 23 34 23 41 12 41 13 170 -1 170 -1
247 -32 248 -31 36 0 36 0 -7 23 -6 22 -29 225 -28 225 -13 143 -12 143 6 107
5 107 16 50 15 50 26 28 26 27 39 0 39 0 40 -40 39 -40 90 0 90 0 68 21 69 21
40 20 39 21 31 21 30 21 33 30 34 30 19 37 19 37 0 130 0 130 -11 53 -11 53
-20 32 -19 32 -37 23 -37 23 -125 0 -125 -1 -95 -23 -95 -23 -48 -21 -48 -20
-25 24 -24 23 -16 50 -16 51 -5 155 -5 155 16 256 16 255 0 42 0 42 -1353 0
-1353 0 -24 -342z"/>
</g>
</svg>
