<?xml version="1.0" standalone="no"?>
<!DOCTYPE svg PUBLIC "-//W3C//DTD SVG 20010904//EN"
 "http://www.w3.org/TR/2001/REC-SVG-20010904/DTD/svg10.dtd">
<svg version="1.0" xmlns="http://www.w3.org/2000/svg"
 width="364.000000pt" height="347.000000pt" viewBox="0 0 364.000000 347.000000"
 preserveAspectRatio="xMidYMid meet">
<metadata>
Created by potrace 1.16, written by Peter Selinger 2001-2019
</metadata>
<g transform="translate(0.000000,347.000000) scale(0.100000,-0.100000)"
fill="#000000" stroke="none">
<path d="M200 3128 l-25 -343 0 -155 0 -155 13 -37 14 -38 11 0 11 0 40 19 41
20 102 20 101 21 114 0 114 0 57 -15 56 -15 46 -21 46 -21 49 -45 49 -44 28
-57 28 -57 0 -100 0 -100 -22 -45 -22 -45 -41 -47 -41 -47 -54 -36 -55 -36
-59 -29 -59 -29 -88 -27 -89 -26 -110 -5 -110 -5 -41 11 -41 11 -39 27 -39 26
-48 5 -48 5 -21 -19 -21 -19 -20 -45 -20 -44 0 -91 0 -90 12 -75 12 -75 29
-111 29 -111 35 -90 35 -91 22 -44 22 -43 2 -20 2 -20 2 -5 1 -5 242 8 243 8
145 -5 145 -6 60 -14 60 -15 45 -20 45 -20 32 -33 32 -33 16 -44 15 -44 0 -43
0 -43 -11 -53 -11 -53 -34 -64 -34 -64 0 -46 0 -47 31 -27 30 -26 37 -11 37
-11 131 -6 131 -6 54 18 54 18 63 64 63 64 39 82 40 82 12 72 12 71 -13 41
-12 41 -24 6 -23 6 -12 48 -12 49 14 27 13 28 34 23 34 23 41 13 41 12 180 -1
180 -1 247 -32 248 -31 24 0 24 0 -9 33 -9 32 -25 210 -24 210 -12 134 -12
135 6 120 5 121 16 50 15 50 26 28 26 27 49 0 49 0 40 -40 39 -40 80 0 80 0
68 21 69 21 40 20 39 21 31 21 30 21 33 30 34 30 19 37 19 37 0 120 0 120 -11
53 -11 53 -20 32 -19 32 -36 23 -37 22 -85 4 -86 4 -105 -22 -105 -21 -55 -20
-55 -20 -23 -6 -23 -6 -25 24 -24 23 -16 50 -16 51 -5 165 -5 165 16 256 16
255 0 32 0 32 -1343 0 -1343 0 -24 -342z"/>
</g>
</svg>
