<?xml version="1.0" standalone="no"?>
<!DOCTYPE svg PUBLIC "-//W3C//DTD SVG 20010904//EN"
 "http://www.w3.org/TR/2001/REC-SVG-20010904/DTD/svg10.dtd">
<svg version="1.0" xmlns="http://www.w3.org/2000/svg"
 width="348.000000pt" height="353.000000pt" viewBox="0 0 348.000000 353.000000"
 preserveAspectRatio="xMidYMid meet">
<metadata>
Created by potrace 1.16, written by Peter Selinger 2001-2019
</metadata>
<g transform="translate(0.000000,353.000000) scale(0.100000,-0.100000)"
fill="#000000" stroke="none">
<path d="M1255 3509 l-220 -18 -163 -7 -164 -7 6 -56 6 -56 17 -195 16 -195 1
-235 1 -236 -18 -28 -19 -28 -16 15 -17 16 -77 25 -77 26 -75 7 -75 6 -63 -12
-62 -13 -57 -28 -57 -29 -37 -43 -37 -43 -32 -65 -31 -65 0 -145 0 -145 31
-66 32 -66 37 -42 37 -41 62 -30 61 -30 70 -6 70 -5 70 19 70 20 60 26 60 26
26 0 25 0 32 -28 31 -28 17 -40 17 -39 5 -120 4 -120 -17 -140 -16 -140 -35
-173 -34 -174 0 -26 0 -25 183 7 182 7 180 14 180 15 106 0 105 0 17 -13 18
-12 -26 -35 -25 -34 -20 -53 -20 -54 -6 -67 -6 -67 12 -60 12 -60 26 -55 27
-55 55 -56 55 -55 55 -26 55 -26 62 -12 62 -12 68 4 68 4 38 18 38 19 48 43
49 44 30 47 31 48 25 77 26 77 0 75 0 75 -11 28 -10 28 -25 26 -26 27 -5 41
-6 41 18 26 17 26 46 21 47 22 170 0 170 -1 115 -18 115 -17 174 -35 173 -35
7 6 6 7 -3 281 -3 282 -9 175 -10 175 -15 60 -16 60 -24 37 -25 37 -37 10 -38
10 -35 -8 -35 -8 -65 -33 -65 -33 -62 -5 -63 -5 -45 17 -44 17 -45 50 -45 50
-19 52 -20 52 -7 51 -7 51 12 42 11 41 25 37 25 37 37 33 37 33 55 29 55 29
65 21 65 21 76 9 75 10 61 -9 61 -8 45 -20 46 -20 13 -21 13 -21 17 0 18 0 0
43 0 42 -25 275 -25 275 -12 253 -12 254 -36 -6 -35 -7 -370 -9 -370 -9 -72
-15 -71 -15 -41 -20 -41 -21 -15 -30 -15 -29 0 -37 0 -37 26 -76 26 -75 14
-65 14 -66 0 -77 0 -77 -20 -54 -20 -53 -37 -36 -38 -36 -40 -20 -41 -20 -59
-11 -59 -11 -36 0 -36 0 -50 17 -49 17 -55 55 -56 56 -30 55 -30 55 -22 55
-21 55 -17 65 -18 65 0 125 -1 125 18 40 18 40 25 37 26 37 -4 18 -3 18 -35
12 -35 12 -110 -1 -110 0 -220 -19z"/>
</g>
</svg>
