<?xml version="1.0" standalone="no"?>
<!DOCTYPE svg PUBLIC "-//W3C//DTD SVG 20010904//EN"
 "http://www.w3.org/TR/2001/REC-SVG-20010904/DTD/svg10.dtd">
<svg version="1.0" xmlns="http://www.w3.org/2000/svg"
 width="346.000000pt" height="351.000000pt" viewBox="0 0 346.000000 351.000000"
 preserveAspectRatio="xMidYMid meet">
<metadata>
Created by potrace 1.16, written by Peter Selinger 2001-2019
</metadata>
<g transform="translate(0.000000,351.000000) scale(0.100000,-0.100000)"
fill="#000000" stroke="none">
<path d="M1255 3489 l-220 -18 -163 -7 -162 -7 5 -46 5 -46 16 -185 16 -185 5
-235 5 -235 -14 -39 -13 -39 -17 -11 -17 -10 -18 16 -18 17 -76 25 -76 26 -69
6 -69 6 -60 -12 -60 -12 -56 -29 -57 -28 -37 -43 -37 -43 -32 -65 -31 -65 0
-135 0 -135 31 -66 32 -66 37 -41 37 -41 59 -30 59 -29 63 -7 62 -6 70 19 70
20 60 26 60 26 36 0 35 0 32 -28 31 -28 18 -40 17 -39 4 -130 4 -130 -17 -140
-16 -140 -35 -173 -34 -174 0 -15 0 -16 168 7 167 6 190 15 190 15 107 1 107
0 21 -11 20 -11 0 -12 0 -13 -25 -34 -25 -34 -19 -52 -20 -51 -6 -60 -7 -59
12 -60 12 -59 26 -55 27 -55 55 -56 55 -55 55 -26 55 -26 62 -12 62 -12 58 4
58 4 38 18 38 19 48 43 49 44 30 47 31 48 25 77 26 77 0 65 0 65 -11 28 -10
28 -26 27 -26 27 -5 50 -5 51 18 26 17 26 46 21 47 22 180 0 180 -1 115 -18
115 -18 150 -29 150 -30 19 -2 20 -2 -3 275 -2 275 -9 175 -10 175 -15 59 -16
60 -20 33 -21 33 -20 11 -21 11 -37 0 -38 -1 -73 -37 -74 -37 -73 -5 -72 -5
-45 17 -44 17 -45 50 -45 50 -20 53 -20 53 -6 59 -7 59 11 43 12 42 25 37 25
37 36 32 37 33 48 26 48 26 71 24 72 25 82 10 83 10 63 -9 64 -9 43 -17 42
-17 20 -26 20 -25 7 7 7 6 -28 313 -28 312 -11 243 -11 243 -21 -6 -20 -6
-375 -9 -375 -9 -72 -15 -71 -15 -41 -20 -41 -21 -15 -30 -15 -29 0 -27 0 -27
26 -76 26 -75 14 -65 14 -66 0 -87 0 -87 -20 -54 -20 -53 -37 -36 -38 -36 -40
-20 -41 -20 -59 -11 -59 -11 -46 0 -46 0 -50 17 -49 17 -55 55 -56 56 -30 55
-30 55 -22 55 -21 55 -18 65 -17 65 0 135 -1 135 18 40 18 40 25 37 26 37 -6
10 -7 10 -37 11 -37 10 -95 -1 -95 -1 -220 -19z"/>
</g>
</svg>
