<?xml version="1.0" standalone="no"?>
<!DOCTYPE svg PUBLIC "-//W3C//DTD SVG 20010904//EN"
 "http://www.w3.org/TR/2001/REC-SVG-20010904/DTD/svg10.dtd">
<svg version="1.0" xmlns="http://www.w3.org/2000/svg"
 width="361.000000pt" height="352.000000pt" viewBox="0 0 361.000000 352.000000"
 preserveAspectRatio="xMidYMid meet">
<metadata>
Created by potrace 1.16, written by Peter Selinger 2001-2019
</metadata>
<g transform="translate(0.000000,352.000000) scale(0.100000,-0.100000)"
fill="#000000" stroke="none">
<path d="M1296 3504 l-48 -15 -39 -26 -39 -26 -20 -32 -20 -32 0 -50 0 -50 30
-42 31 -42 9 -25 10 -24 9 -60 10 -60 -13 -51 -13 -50 -29 -30 -29 -31 -35
-17 -35 -18 -50 -12 -50 -13 -105 -8 -105 -9 -338 11 -338 11 -9 -9 -9 -9 -11
-217 -10 -217 -20 -234 -21 -233 3 -80 3 -79 21 -3 20 -3 26 24 26 24 103 21
104 22 93 11 93 11 68 -12 67 -11 52 -30 51 -29 27 -46 27 -46 13 -57 14 -56
0 -91 0 -90 -25 -50 -25 -50 -42 -43 -43 -44 -59 -39 -59 -38 -79 -25 -79 -25
-50 0 -50 0 -39 40 -39 40 -66 0 -67 0 -28 -29 -29 -28 -18 -59 -18 -59 0
-190 0 -190 30 -272 30 -273 69 0 69 0 331 -16 331 -16 107 11 107 10 35 15
36 15 25 25 25 25 0 53 0 53 -28 60 -29 60 -18 54 -17 54 4 71 5 71 26 51 26
51 47 42 47 41 70 21 69 22 50 -6 50 -6 53 -25 54 -24 46 -43 46 -43 24 -40
23 -41 12 -43 11 -43 -11 -34 -11 -35 -25 -19 -24 -19 -11 -49 -12 -50 7 -35
6 -36 27 -27 27 -26 36 -15 35 -15 40 -9 40 -9 85 -10 85 -10 205 -11 205 -11
124 -15 123 -14 18 -10 19 -10 10 0 11 0 0 53 0 52 -21 210 -22 210 -1 185 -1
185 18 59 18 59 29 28 28 29 37 0 36 0 20 -10 19 -11 0 -14 0 -14 30 -16 29
-15 68 0 68 0 61 15 62 14 56 25 56 25 75 52 75 52 39 59 40 59 7 46 7 46 -6
76 -5 76 -17 45 -16 45 -25 37 -26 37 -33 15 -33 16 -32 0 -31 0 -22 -11 -22
-11 -25 -24 -25 -23 -45 -10 -45 -11 -56 0 -55 0 -51 15 -51 15 -51 46 -50 45
-31 62 -30 62 -15 60 -15 60 -10 75 -11 75 0 270 1 270 5 40 6 40 -28 14 -28
13 -99 45 -99 44 -116 34 -116 33 -195 41 -195 42 -74 20 -74 20 -44 26 -45
26 -19 31 -19 31 0 26 0 26 10 30 11 29 29 18 30 17 6 24 6 23 -12 21 -11 21
-47 24 -47 24 -53 11 -53 11 -82 -1 -82 0 -49 -15z"/>
</g>
</svg>
