<?xml version="1.0" standalone="no"?>
<!DOCTYPE svg PUBLIC "-//W3C//DTD SVG 20010904//EN"
 "http://www.w3.org/TR/2001/REC-SVG-20010904/DTD/svg10.dtd">
<svg version="1.0" xmlns="http://www.w3.org/2000/svg"
 width="359.000000pt" height="350.000000pt" viewBox="0 0 359.000000 350.000000"
 preserveAspectRatio="xMidYMid meet">
<metadata>
Created by potrace 1.16, written by Peter Selinger 2001-2019
</metadata>
<g transform="translate(0.000000,350.000000) scale(0.100000,-0.100000)"
fill="#000000" stroke="none">
<path d="M1296 3484 l-48 -15 -39 -26 -39 -26 -20 -32 -20 -32 0 -40 0 -40 30
-42 31 -42 9 -25 10 -25 10 -63 10 -64 -11 -52 -11 -52 -31 -34 -30 -35 -36
-18 -36 -18 -50 -12 -50 -12 -110 -10 -110 -9 -333 11 -333 12 -9 -9 -9 -9
-11 -217 -10 -217 -20 -234 -21 -234 3 -68 3 -68 11 -4 11 -4 25 24 25 24 99
21 99 21 106 12 106 11 69 -11 70 -12 52 -30 51 -29 27 -46 27 -46 13 -57 14
-56 0 -101 0 -100 -25 -50 -25 -50 -42 -43 -43 -44 -59 -39 -59 -38 -79 -25
-79 -25 -60 0 -60 0 -39 40 -39 40 -56 0 -57 0 -28 -29 -29 -28 -18 -59 -18
-59 1 -195 0 -195 27 -230 27 -230 2 -27 2 -28 70 0 69 0 326 -16 325 -15 103
10 103 11 35 14 35 15 25 25 25 25 0 43 0 43 -28 60 -29 60 -18 54 -17 53 4
82 5 81 26 51 26 51 47 42 47 41 70 22 69 21 58 -6 59 -5 55 -25 55 -25 46
-43 46 -43 24 -40 24 -41 12 -48 12 -48 -12 -39 -11 -39 -24 -19 -24 -19 -12
-43 -12 -43 6 -32 6 -33 27 -27 27 -26 36 -15 35 -15 40 -9 40 -9 85 -10 85
-10 205 -11 205 -11 124 -15 123 -14 19 -11 19 -10 0 43 0 43 -20 205 -20 205
-6 150 -6 150 11 79 11 78 19 43 19 43 27 18 28 18 38 -1 38 -2 21 -11 20 -11
0 -14 0 -14 30 -16 29 -15 58 0 58 0 61 15 62 14 56 25 56 25 75 52 75 52 39
59 40 59 7 46 7 46 -6 66 -5 66 -21 56 -21 56 -35 36 -35 36 -34 7 -34 6 -22
-7 -21 -7 -33 -28 -33 -29 -44 -10 -44 -11 -66 0 -65 0 -51 15 -51 15 -51 46
-50 45 -31 62 -30 62 -15 60 -15 60 -11 75 -11 75 1 288 1 289 5 21 6 22 -28
14 -28 13 -99 45 -99 44 -116 34 -116 33 -195 41 -195 42 -74 20 -74 20 -44
26 -45 26 -19 31 -19 31 0 36 0 36 10 30 11 30 25 14 26 13 9 18 10 18 -11 20
-11 20 -47 24 -47 24 -53 11 -53 11 -72 -1 -72 0 -49 -15z"/>
</g>
</svg>
