<?xml version="1.0" standalone="no"?>
<!DOCTYPE svg PUBLIC "-//W3C//DTD SVG 20010904//EN"
 "http://www.w3.org/TR/2001/REC-SVG-20010904/DTD/svg10.dtd">
<svg version="1.0" xmlns="http://www.w3.org/2000/svg"
 width="340.000000pt" height="364.000000pt" viewBox="0 0 340.000000 364.000000"
 preserveAspectRatio="xMidYMid meet">
<metadata>
Created by potrace 1.16, written by Peter Selinger 2001-2019
</metadata>
<g transform="translate(0.000000,364.000000) scale(0.100000,-0.100000)"
fill="#000000" stroke="none">
<path d="M1450 3634 l-45 -3 -345 -22 -345 -21 -14 -4 -13 -4 7 -238 7 -237
-11 -123 -11 -124 -16 -76 -16 -77 -25 -65 -26 -65 -38 -51 -38 -52 -52 -26
-53 -26 -58 0 -59 0 -32 15 -32 15 -34 25 -34 25 -43 0 -44 0 -20 -20 -19 -19
-17 -58 -17 -58 0 -155 1 -155 12 -80 12 -80 15 -44 15 -44 13 -14 14 -13 25
0 26 0 14 34 14 35 38 7 37 7 31 -17 31 -16 22 -33 23 -33 20 -59 20 -59 50
-201 49 -202 32 -89 31 -89 30 -60 30 -60 34 -48 34 -47 0 -10 0 -10 58 7 57
8 215 0 215 0 84 -18 84 -18 63 -29 62 -28 45 -41 45 -41 22 -53 23 -52 0 -70
0 -70 -12 -42 -12 -43 -10 0 -9 0 -20 -32 -20 -33 0 -40 0 -40 19 -31 19 -31
55 -32 55 -31 48 -15 47 -14 94 -12 95 -12 74 6 74 5 57 27 58 26 34 32 33 32
19 40 19 40 0 58 0 58 -15 29 -15 29 -25 37 -25 37 0 38 0 37 25 30 25 29 49
22 50 21 63 14 63 15 230 31 230 31 75 15 75 15 113 31 114 31 -6 21 -6 21 0
1369 0 1368 -22 -6 -23 -6 -190 -10 -190 -10 -210 -10 -210 -10 -55 -13 -55
-14 -37 -16 -38 -16 -20 -33 -20 -33 0 -38 0 -38 15 -32 15 -32 25 -34 25 -34
0 -44 0 -44 -19 -38 -20 -37 -42 -38 -42 -38 -53 -25 -53 -24 -63 -10 -63 -10
-60 6 -60 7 -40 18 -40 17 -22 24 -22 24 -17 40 -18 40 1 90 1 90 21 103 22
104 16 41 15 42 2 29 1 29 -39 13 -39 14 -136 4 -136 4 -45 -4z"/>
</g>
</svg>
