<?xml version="1.0" standalone="no"?>
<!DOCTYPE svg PUBLIC "-//W3C//DTD SVG 20010904//EN"
 "http://www.w3.org/TR/2001/REC-SVG-20010904/DTD/svg10.dtd">
<svg version="1.0" xmlns="http://www.w3.org/2000/svg"
 width="338.000000pt" height="362.000000pt" viewBox="0 0 338.000000 362.000000"
 preserveAspectRatio="xMidYMid meet">
<metadata>
Created by potrace 1.16, written by Peter Selinger 2001-2019
</metadata>
<g transform="translate(0.000000,362.000000) scale(0.100000,-0.100000)"
fill="#000000" stroke="none">
<path d="M1450 3614 l-45 -3 -345 -22 -345 -21 -13 -4 -14 -4 7 -238 7 -237
-11 -123 -11 -124 -16 -76 -16 -77 -25 -65 -26 -65 -38 -51 -38 -52 -52 -26
-53 -26 -68 0 -69 0 -32 15 -32 15 -34 25 -34 25 -33 0 -34 0 -20 -20 -19 -19
-17 -57 -17 -58 1 -147 0 -147 12 -78 12 -79 15 -44 15 -44 13 -14 14 -13 16
0 16 0 11 31 10 30 25 10 24 9 31 0 30 0 27 -16 27 -16 22 -32 22 -32 20 -59
20 -59 50 -201 49 -202 32 -89 31 -89 30 -60 30 -60 34 -48 34 -47 0 -10 0
-10 28 7 27 7 245 1 245 0 84 -18 84 -18 63 -29 62 -28 45 -41 45 -41 23 -53
22 -52 0 -80 0 -80 -12 -42 -12 -43 -10 0 -9 0 -20 -32 -20 -33 0 -30 0 -30
19 -31 19 -31 55 -32 56 -32 48 -14 48 -14 90 -12 90 -12 68 6 68 6 57 26 57
26 34 32 33 32 19 40 19 40 0 50 0 50 -25 40 -24 40 -16 28 -16 28 -1 41 0 40
19 27 20 26 40 23 41 23 79 19 78 19 230 31 230 31 75 15 75 15 110 30 110 30
-3 1378 -2 1377 -63 -7 -62 -8 -300 -11 -300 -10 -45 -6 -45 -5 -54 -11 -54
-10 -44 -19 -43 -18 -20 -33 -20 -33 0 -28 0 -28 15 -32 15 -32 25 -34 25 -34
0 -54 0 -54 -19 -38 -20 -37 -42 -38 -42 -38 -53 -25 -53 -24 -63 -10 -63 -11
-70 7 -70 7 -40 17 -40 18 -22 24 -22 24 -17 40 -18 40 1 100 1 100 21 103 22
104 15 41 16 42 1 19 2 19 -38 13 -38 13 -127 5 -127 4 -45 -4z"/>
</g>
</svg>
