<?xml version="1.0" standalone="no"?>
<!DOCTYPE svg PUBLIC "-//W3C//DTD SVG 20010904//EN"
 "http://www.w3.org/TR/2001/REC-SVG-20010904/DTD/svg10.dtd">
<svg version="1.0" xmlns="http://www.w3.org/2000/svg"
 width="284.000000pt" height="307.000000pt" viewBox="0 0 284.000000 307.000000"
 preserveAspectRatio="xMidYMid meet">
<metadata>
Created by potrace 1.16, written by Peter Selinger 2001-2019
</metadata>
<g transform="translate(0.000000,307.000000) scale(0.100000,-0.100000)"
fill="#000000" stroke="none">
<path d="M1873 3051 l-41 -19 -17 -26 -17 -26 4 -60 4 -60 23 -24 22 -24 15
-47 14 -48 0 -47 0 -47 -20 -77 -19 -77 -36 -67 -35 -67 -41 -47 -40 -48 -53
-35 -52 -34 -40 -17 -39 -17 -115 -5 -115 -4 -88 15 -88 15 -42 22 -42 22 -21
22 -21 21 -19 35 -19 35 1 105 1 105 27 99 27 99 19 25 20 25 0 34 0 33 -26
10 -25 10 -80 0 -80 0 -207 -16 -207 -16 -172 -1 -172 -2 -5 -30 -6 -30 -1
-290 -1 -290 11 -82 12 -82 15 -58 14 -58 31 -62 30 -62 50 -45 51 -46 51 -15
51 -15 75 0 76 0 44 11 44 10 34 29 33 30 24 6 24 6 35 -17 35 -16 26 -37 25
-37 16 -45 16 -45 6 -56 6 -57 -7 -46 -7 -45 -40 -59 -39 -59 -75 -52 -75 -52
-56 -25 -56 -25 -62 -14 -61 -15 -48 0 -48 0 -29 15 -30 16 0 14 0 14 -21 12
-22 11 -46 2 -47 1 -28 -18 -28 -19 -19 -43 -19 -43 -11 -78 -11 -79 6 -160 6
-160 20 -205 20 -205 0 -43 0 -43 33 6 33 6 303 -21 303 -22 162 4 161 4 28
14 27 13 6 24 6 23 -42 84 -42 83 -5 86 -6 86 13 63 12 63 25 63 26 64 43 59
44 59 55 37 56 37 57 11 57 12 77 -8 77 -9 58 -21 58 -21 55 -57 56 -56 17
-54 17 -53 0 -67 0 -66 -20 -80 -19 -80 -20 -59 -21 -59 0 -54 0 -53 34 -34
35 -33 48 -14 48 -14 235 1 235 0 180 21 180 22 16 6 15 6 27 192 27 192 10
142 11 142 -11 102 -10 102 -23 45 -22 45 -35 19 -35 19 -48 -5 -49 -5 -31
-21 -32 -20 -35 -17 -35 -18 -66 1 -65 0 -68 32 -67 31 -58 58 -57 58 -27 57
-27 57 -16 68 -16 68 6 69 6 69 19 41 18 41 36 32 37 32 57 17 57 17 77 -7 77
-6 104 -26 103 -26 27 -14 27 -14 30 0 30 0 19 20 19 20 12 38 11 37 11 105
11 105 -6 195 -6 195 -15 233 -14 233 -23 19 -23 19 -105 55 -105 54 -104 36
-103 36 -98 20 -98 20 -94 0 -93 0 -42 -19z"/>
</g>
</svg>
