<?xml version="1.0" standalone="no"?>
<!DOCTYPE svg PUBLIC "-//W3C//DTD SVG 20010904//EN"
 "http://www.w3.org/TR/2001/REC-SVG-20010904/DTD/svg10.dtd">
<svg version="1.0" xmlns="http://www.w3.org/2000/svg"
 width="282.000000pt" height="305.000000pt" viewBox="0 0 282.000000 305.000000"
 preserveAspectRatio="xMidYMid meet">
<metadata>
Created by potrace 1.16, written by Peter Selinger 2001-2019
</metadata>
<g transform="translate(0.000000,305.000000) scale(0.100000,-0.100000)"
fill="#000000" stroke="none">
<path d="M1873 3031 l-41 -19 -17 -26 -18 -26 5 -50 5 -51 22 -23 22 -24 15
-47 14 -48 0 -57 0 -57 -20 -77 -19 -77 -36 -67 -35 -67 -41 -47 -40 -48 -53
-35 -52 -34 -40 -17 -39 -17 -125 -5 -125 -4 -88 15 -88 15 -42 22 -42 22 -21
22 -21 21 -19 35 -19 35 1 115 1 115 27 99 27 99 19 25 20 25 0 24 0 23 -26
10 -25 10 -70 0 -70 0 -207 -16 -207 -15 -172 -2 -172 -2 -5 -30 -6 -30 -1
-285 -1 -285 11 -75 11 -75 15 -60 15 -60 30 -62 31 -62 50 -45 51 -46 51 -15
51 -15 65 0 66 0 44 11 44 10 33 29 33 28 21 7 22 7 34 -6 34 -7 35 -36 35
-36 21 -56 21 -56 5 -66 6 -66 -7 -46 -7 -46 -40 -59 -39 -59 -75 -52 -75 -52
-56 -25 -56 -25 -62 -14 -61 -15 -58 0 -58 0 -29 15 -30 16 0 14 0 14 -20 11
-21 11 -38 2 -38 1 -28 -18 -27 -18 -19 -43 -19 -43 -11 -78 -11 -79 6 -150 6
-150 20 -205 20 -205 0 -41 0 -41 29 5 29 4 310 -22 309 -22 149 4 149 4 27
13 27 14 6 15 6 16 -42 82 -42 82 -5 96 -5 96 13 62 12 63 25 63 26 64 43 59
44 59 55 37 56 37 61 12 61 13 83 -10 84 -9 57 -21 58 -21 55 -57 56 -56 17
-54 17 -53 0 -77 0 -76 -20 -80 -19 -80 -20 -59 -21 -59 0 -44 0 -43 34 -34
35 -33 48 -14 48 -14 225 1 225 0 180 21 180 22 16 6 16 6 27 197 27 197 9
131 10 132 -10 98 -10 98 -23 44 -22 45 -37 20 -38 19 -40 -7 -40 -7 -37 -25
-38 -26 -40 -14 -40 -15 -64 6 -64 6 -64 29 -64 30 -58 58 -57 58 -27 57 -27
57 -16 68 -16 68 6 78 5 78 19 42 19 42 36 32 37 32 57 17 57 17 86 -6 85 -6
100 -26 100 -25 37 -16 37 -16 24 6 25 6 16 33 16 34 12 54 13 54 -1 245 -1
245 -16 243 -16 243 -23 19 -23 19 -105 55 -105 54 -104 36 -103 36 -98 20
-98 20 -84 0 -83 0 -42 -19z"/>
</g>
</svg>
