<?xml version="1.0" standalone="no"?>
<!DOCTYPE svg PUBLIC "-//W3C//DTD SVG 20010904//EN"
 "http://www.w3.org/TR/2001/REC-SVG-20010904/DTD/svg10.dtd">
<svg version="1.0" xmlns="http://www.w3.org/2000/svg"
 width="300.000000pt" height="297.000000pt" viewBox="0 0 300.000000 297.000000"
 preserveAspectRatio="xMidYMid meet">
<metadata>
Created by potrace 1.16, written by Peter Selinger 2001-2019
</metadata>
<g transform="translate(0.000000,297.000000) scale(0.100000,-0.100000)"
fill="#000000" stroke="none">
<path d="M665 2959 l-170 -6 -223 -8 -223 -8 -4 -7 -5 -8 -16 -348 -16 -349 5
-102 6 -102 12 -41 13 -41 30 -26 30 -25 52 4 51 4 41 22 42 22 42 22 43 22
61 4 61 4 57 -12 57 -12 78 -39 77 -38 58 -60 57 -60 27 -58 27 -58 0 -100 0
-100 -27 -57 -27 -58 -50 -50 -51 -51 -61 -29 -61 -29 -69 -12 -68 -12 -71 12
-72 11 -89 35 -89 35 -37 0 -38 0 -33 -20 -33 -21 -19 -42 -19 -42 -10 -65
-11 -65 0 -140 0 -140 15 -200 15 -200 0 -70 0 -71 362 -22 363 -23 62 -3 62
-4 104 8 104 7 26 18 27 17 0 32 0 32 -14 20 -14 20 -26 152 -26 152 -6 107
-6 108 11 59 11 60 21 44 22 44 44 28 44 28 63 11 63 11 37 0 37 0 35 -15 35
-14 36 -37 35 -37 39 -81 39 -81 20 -80 21 -80 6 -85 6 -85 -12 -72 -12 -71
-31 -64 -30 -63 -5 -46 -5 -45 16 -32 16 -32 26 -17 26 -17 62 -13 61 -13 70
0 70 0 128 15 129 15 161 35 162 35 108 30 107 30 15 0 15 0 0 16 0 16 20 29
21 28 49 103 48 103 30 90 30 90 22 100 21 100 1 106 0 106 -20 46 -20 46 -31
15 -30 16 -23 0 -23 0 -85 -29 -85 -29 -60 -13 -60 -13 -105 0 -105 0 -70 21
-70 22 -50 32 -49 31 -28 27 -29 26 -30 48 -31 47 -20 63 -19 62 1 125 0 125
14 66 14 67 26 50 26 51 33 25 33 25 37 16 37 15 58 6 57 6 75 -11 75 -11 84
-21 84 -21 31 -19 31 -19 32 0 33 0 16 26 17 25 10 84 11 84 -17 288 -17 288
0 88 0 88 -15 5 -15 6 -47 -39 -48 -40 -70 -41 -70 -41 -80 -30 -80 -30 -175
-51 -175 -51 -58 -26 -58 -26 -29 -34 -30 -34 0 -47 0 -47 6 -23 6 -22 34 -16
34 -16 0 -16 0 -15 -41 -38 -41 -38 -65 -26 -65 -26 -71 -15 -71 -15 -107 -1
-106 -1 -52 18 -51 17 -30 30 -31 30 -16 32 -17 31 -4 80 -4 80 16 87 16 87
36 108 35 108 -10 37 -11 37 -53 25 -52 26 -80 5 -80 6 -45 2 -45 3 -170 -7z"/>
</g>
</svg>
