<?xml version="1.0" standalone="no"?>
<!DOCTYPE svg PUBLIC "-//W3C//DTD SVG 20010904//EN"
 "http://www.w3.org/TR/2001/REC-SVG-20010904/DTD/svg10.dtd">
<svg version="1.0" xmlns="http://www.w3.org/2000/svg"
 width="298.000000pt" height="295.000000pt" viewBox="0 0 298.000000 295.000000"
 preserveAspectRatio="xMidYMid meet">
<metadata>
Created by potrace 1.16, written by Peter Selinger 2001-2019
</metadata>
<g transform="translate(0.000000,295.000000) scale(0.100000,-0.100000)"
fill="#000000" stroke="none">
<path d="M665 2939 l-170 -6 -223 -8 -223 -8 -4 -7 -5 -8 -16 -348 -16 -349 6
-93 6 -93 12 -40 12 -40 30 -26 30 -25 43 5 42 4 41 22 40 21 43 22 42 23 71
3 71 4 57 -12 57 -12 78 -39 77 -38 58 -60 57 -60 26 -57 26 -57 6 -56 6 -56
-7 -59 -8 -60 -24 -53 -25 -53 -50 -50 -51 -51 -61 -29 -61 -29 -70 -12 -71
-13 -77 12 -78 11 -91 35 -91 36 -27 0 -28 0 -33 -20 -33 -21 -19 -42 -19 -42
-10 -65 -11 -65 0 -130 0 -130 15 -200 14 -200 3 -70 2 -71 346 -23 345 -23
145 0 146 1 29 7 30 7 23 15 22 14 0 22 0 22 -14 20 -14 20 -26 154 -26 154
-6 116 -6 115 11 59 11 60 21 44 22 44 44 28 44 28 63 11 63 11 47 0 47 0 35
-15 35 -14 36 -37 35 -37 39 -81 39 -81 20 -80 21 -80 6 -95 6 -95 -12 -72
-12 -71 -30 -63 -30 -63 -5 -40 -5 -41 20 -32 20 -32 30 -16 30 -15 77 -12 76
-12 136 12 137 13 170 34 170 35 129 35 128 35 14 0 14 0 0 16 0 16 20 29 21
28 49 103 48 103 30 90 30 90 21 100 22 99 0 97 1 97 -21 46 -20 46 -36 17
-35 17 -98 -32 -97 -32 -55 -12 -55 -12 -115 0 -115 -1 -70 22 -70 22 -50 32
-49 31 -28 27 -29 26 -30 48 -31 47 -20 63 -19 62 0 131 0 131 15 71 14 70 26
50 26 51 33 25 33 25 38 16 39 16 66 6 66 5 75 -11 75 -11 84 -21 84 -21 31
-19 31 -19 22 0 23 0 16 25 16 25 11 80 10 79 -16 283 -17 283 0 86 0 86 -6 6
-7 6 -46 -38 -46 -38 -70 -41 -70 -41 -80 -30 -80 -30 -175 -51 -175 -51 -58
-26 -58 -26 -29 -34 -30 -34 0 -37 0 -37 6 -23 6 -22 34 -16 34 -16 0 -26 0
-25 -41 -38 -41 -38 -65 -26 -65 -26 -71 -15 -72 -15 -115 -1 -115 -1 -53 17
-52 18 -30 30 -31 30 -16 32 -17 31 -4 90 -4 90 16 87 16 87 35 105 34 105
-10 30 -11 30 -53 26 -53 26 -114 7 -113 7 -170 -6z"/>
</g>
</svg>
