<?xml version="1.0" standalone="no"?>
<!DOCTYPE svg PUBLIC "-//W3C//DTD SVG 20010904//EN"
 "http://www.w3.org/TR/2001/REC-SVG-20010904/DTD/svg10.dtd">
<svg version="1.0" xmlns="http://www.w3.org/2000/svg"
 width="362.000000pt" height="326.000000pt" viewBox="0 0 362.000000 326.000000"
 preserveAspectRatio="xMidYMid meet">
<metadata>
Created by potrace 1.16, written by Peter Selinger 2001-2019
</metadata>
<g transform="translate(0.000000,326.000000) scale(0.100000,-0.100000)"
fill="#000000" stroke="none">
<path d="M2625 3245 l-49 -13 -28 -31 -28 -31 0 -43 0 -42 35 -71 34 -72 10
-62 10 -63 -10 -75 -11 -75 -22 -64 -23 -63 -34 -56 -34 -56 -43 -39 -44 -38
-46 -23 -47 -23 -100 0 -100 1 -55 16 -56 17 -39 36 -40 35 1 73 0 72 39 85
39 85 0 75 1 75 -23 38 -24 37 -44 26 -45 26 -60 19 -60 19 -137 11 -137 10
-235 -10 -235 -11 -59 0 -58 0 7 -127 6 -128 24 -295 24 -295 7 -122 7 -123
-9 0 -9 0 -126 25 -127 25 -123 9 -124 9 -88 -8 -88 -8 -52 -19 -51 -18 -47
-45 -47 -45 -16 -32 -16 -32 -11 -75 -11 -75 11 -124 11 -124 20 -65 20 -65
23 -34 22 -34 37 -18 37 -18 36 7 36 6 40 34 40 33 33 7 34 6 31 -16 31 -17
23 -37 23 -37 17 -41 16 -41 41 -154 41 -154 35 -106 35 -107 42 -84 42 -84
45 -61 45 -61 245 -7 245 -8 95 7 95 6 63 15 63 15 38 20 39 19 41 47 41 47
15 50 15 51 0 98 0 99 -16 77 -16 77 -31 27 -32 27 15 11 15 10 50 15 49 15
146 11 145 11 55 -6 55 -5 45 -16 45 -16 42 -41 42 -41 20 -47 20 -47 11 -69
12 -69 -7 -75 -7 -75 -19 -102 -20 -102 -19 -62 -20 -62 0 -33 0 -33 12 -26
11 -25 32 -20 32 -20 70 -10 71 -10 106 10 106 10 132 34 133 34 128 46 129
47 99 47 100 47 -5 20 -5 20 15 255 16 255 -5 140 -6 140 -20 66 -21 65 -23
22 -24 22 -34 10 -34 10 -30 -6 -30 -6 -103 -35 -103 -34 -67 -6 -67 -5 -41
11 -41 11 -39 28 -39 29 -28 51 -28 51 -15 73 -15 73 0 147 0 146 15 36 15 36
16 6 16 7 27 -12 27 -12 35 -24 35 -23 75 -12 74 -12 71 6 70 6 61 30 62 30
36 40 35 39 30 59 30 59 20 79 20 79 10 97 11 97 0 188 0 188 -7 112 -6 112
-101 42 -101 42 -85 29 -85 29 -98 25 -98 25 -97 14 -97 15 -75 -1 -75 0 -50
-14z"/>
</g>
</svg>
