<?xml version="1.0" standalone="no"?>
<!DOCTYPE svg PUBLIC "-//W3C//DTD SVG 20010904//EN"
 "http://www.w3.org/TR/2001/REC-SVG-20010904/DTD/svg10.dtd">
<svg version="1.0" xmlns="http://www.w3.org/2000/svg"
 width="360.000000pt" height="324.000000pt" viewBox="0 0 360.000000 324.000000"
 preserveAspectRatio="xMidYMid meet">
<metadata>
Created by potrace 1.16, written by Peter Selinger 2001-2019
</metadata>
<g transform="translate(0.000000,324.000000) scale(0.100000,-0.100000)"
fill="#000000" stroke="none">
<path d="M2625 3225 l-49 -13 -28 -31 -28 -31 0 -33 0 -32 35 -71 34 -72 11
-67 11 -67 -11 -80 -11 -81 -23 -63 -23 -64 -34 -56 -34 -56 -43 -39 -44 -38
-46 -23 -47 -23 -110 0 -110 1 -55 16 -56 17 -39 36 -40 35 1 83 0 82 39 85
38 85 1 65 1 65 -23 38 -24 37 -44 26 -45 26 -60 19 -60 19 -133 10 -132 11
-225 -10 -224 -11 -64 0 -63 0 6 -112 7 -113 24 -300 24 -300 7 -111 7 -112
-8 -38 -7 -39 -13 18 -13 18 -125 24 -126 25 -118 8 -118 9 -83 -8 -82 -7 -52
-19 -52 -18 -47 -45 -47 -45 -16 -32 -16 -31 -11 -71 -11 -72 11 -118 11 -119
20 -64 20 -65 23 -34 22 -34 36 -17 35 -18 33 10 32 9 34 30 35 30 35 7 35 6
23 -6 24 -6 24 -19 25 -19 27 -56 28 -56 45 -167 45 -168 35 -106 35 -107 42
-84 42 -84 45 -61 45 -61 245 -7 245 -8 84 7 85 6 63 15 63 15 39 19 39 20 41
47 41 47 15 50 15 51 0 88 0 89 -16 77 -16 77 -29 23 -29 23 0 19 0 18 40 16
40 16 71 11 71 11 156 1 157 2 51 -18 50 -17 42 -43 41 -42 20 -46 21 -46 11
-78 12 -78 -12 -106 -11 -106 -26 -105 -25 -105 -11 -46 -11 -47 12 -31 13
-31 33 -20 32 -20 66 -9 67 -9 100 9 99 9 133 34 133 34 128 46 129 47 98 47
99 46 -5 8 -5 7 17 273 16 273 -5 125 -6 125 -21 67 -20 67 -31 25 -31 26 -21
2 -22 1 -23 -2 -23 -2 -107 -36 -106 -35 -76 -5 -75 -5 -41 11 -41 11 -39 28
-39 29 -28 51 -28 51 -15 73 -16 73 0 158 0 157 19 38 18 37 18 3 19 4 21 -6
22 -5 45 -30 45 -29 73 -12 74 -12 64 7 64 7 59 29 59 30 36 39 35 39 30 59
30 59 20 79 20 79 10 97 11 97 0 178 0 178 -7 112 -6 112 -101 42 -101 42 -85
29 -85 29 -98 25 -98 25 -97 14 -97 15 -65 -1 -65 0 -50 -14z"/>
</g>
</svg>
