<?xml version="1.0" standalone="no"?>
<!DOCTYPE svg PUBLIC "-//W3C//DTD SVG 20010904//EN"
 "http://www.w3.org/TR/2001/REC-SVG-20010904/DTD/svg10.dtd">
<svg version="1.0" xmlns="http://www.w3.org/2000/svg"
 width="373.000000pt" height="372.000000pt" viewBox="0 0 373.000000 372.000000"
 preserveAspectRatio="xMidYMid meet">
<metadata>
Created by potrace 1.16, written by Peter Selinger 2001-2019
</metadata>
<g transform="translate(0.000000,372.000000) scale(0.100000,-0.100000)"
fill="#000000" stroke="none">
<path d="M334 3707 l-211 -10 -7 -136 -7 -136 -30 -320 -29 -320 0 -67 0 -68
20 0 19 0 8 14 8 14 68 21 67 20 79 10 80 10 78 -9 78 -9 55 -17 55 -16 40
-20 40 -20 50 -38 51 -38 37 -53 37 -54 17 -69 16 -68 -11 -86 -12 -86 -34
-73 -35 -73 -51 -50 -50 -51 -77 -37 -77 -36 -86 -4 -87 -4 -53 11 -52 11 -75
30 -75 30 -45 0 -45 0 -28 -30 -27 -29 -14 -48 -14 -48 1 -150 1 -150 22 -130
23 -130 29 -115 29 -115 0 -21 0 -21 83 4 82 4 185 10 185 10 205 20 205 19
59 0 59 0 -17 -19 -18 -19 -20 -64 -20 -63 -5 -108 -6 -107 13 -93 12 -92 25
-80 25 -80 28 -55 29 -55 23 -29 23 -29 29 -28 28 -28 45 -22 44 -21 97 4 97
4 65 30 65 31 47 46 47 47 25 53 25 52 16 60 15 59 0 122 0 122 -15 79 -15 78
-27 88 -26 88 16 35 17 35 45 20 44 20 78 5 78 6 95 -11 95 -12 120 -24 120
-25 133 -40 133 -40 9 5 9 6 -5 62 -4 62 -15 218 -15 217 0 118 0 117 10 65
11 65 22 45 22 45 37 20 36 19 49 -16 48 -17 73 -26 74 -26 81 -6 82 -5 68 16
67 16 51 26 52 26 49 49 49 49 24 53 24 53 9 64 9 65 -7 63 -8 64 -31 62 -31
63 -58 55 -58 56 -62 31 -62 31 -57 15 -57 15 -77 0 -76 0 -41 -14 -40 -14
-39 -26 -38 -25 -47 -13 -48 -12 -27 20 -28 21 -14 28 -13 27 -10 77 -11 76
12 275 11 275 6 113 7 112 -13 0 -12 0 -94 -35 -94 -35 -103 -25 -102 -24
-208 -35 -208 -35 -68 -21 -68 -20 -41 -30 -42 -30 -6 -25 -6 -26 4 -52 4 -52
37 -48 37 -49 0 -19 0 -19 -20 -20 -19 -19 -58 -18 -58 -17 -160 -1 -160 0
-55 26 -55 26 -32 32 -32 32 -17 44 -17 45 5 51 5 51 38 71 37 72 5 55 5 55
-22 28 -22 28 -41 20 -41 21 -75 14 -76 13 -215 -1 -215 -2 -211 -9z"/>
</g>
</svg>
