<?xml version="1.0" standalone="no"?>
<!DOCTYPE svg PUBLIC "-//W3C//DTD SVG 20010904//EN"
 "http://www.w3.org/TR/2001/REC-SVG-20010904/DTD/svg10.dtd">
<svg version="1.0" xmlns="http://www.w3.org/2000/svg"
 width="371.000000pt" height="370.000000pt" viewBox="0 0 371.000000 370.000000"
 preserveAspectRatio="xMidYMid meet">
<metadata>
Created by potrace 1.16, written by Peter Selinger 2001-2019
</metadata>
<g transform="translate(0.000000,370.000000) scale(0.100000,-0.100000)"
fill="#000000" stroke="none">
<path d="M334 3687 l-211 -10 -7 -136 -7 -136 -30 -320 -29 -320 0 -57 0 -58
10 0 9 0 8 14 8 14 68 21 67 20 85 11 84 10 83 -9 83 -10 55 -16 55 -17 60
-31 59 -32 52 -51 51 -51 22 -46 22 -45 11 -61 12 -61 -12 -87 -12 -87 -34
-73 -35 -73 -51 -50 -50 -51 -77 -37 -78 -36 -96 -4 -96 -4 -53 11 -52 11 -75
30 -75 30 -35 0 -35 0 -28 -30 -27 -29 -14 -48 -14 -48 1 -135 0 -135 17 -106
18 -105 23 -105 24 -104 17 -57 16 -58 87 0 87 0 160 10 160 11 210 19 210 20
79 0 80 0 -28 -29 -27 -28 -20 -64 -21 -64 -5 -97 -6 -98 13 -92 12 -93 25
-80 25 -80 28 -55 29 -55 23 -29 23 -29 29 -28 28 -28 45 -22 44 -21 87 4 87
4 65 30 65 31 47 46 47 47 25 53 25 52 16 60 15 59 0 114 0 114 -20 96 -19 97
-21 59 -20 59 0 24 0 24 16 30 15 31 45 19 44 20 83 6 82 6 101 -12 102 -12
116 -24 116 -24 122 -36 122 -36 10 -2 10 -2 -3 70 -2 70 -15 200 -14 200 0
130 0 130 11 65 10 65 19 42 19 42 33 21 33 20 28 0 27 0 91 -36 91 -35 78
-11 77 -12 71 13 70 12 61 29 61 29 51 51 50 50 25 53 24 53 8 60 7 59 -6 56
-6 56 -26 57 -26 57 -57 60 -58 60 -77 38 -78 39 -57 12 -57 12 -71 -4 -71 -3
-45 -24 -45 -23 -38 -21 -38 -20 -42 -4 -43 -5 -30 25 -30 26 -12 40 -12 40
-6 93 -6 93 16 349 16 349 -3 3 -3 3 -92 -35 -92 -34 -102 -25 -103 -24 -208
-35 -208 -35 -68 -21 -68 -20 -41 -30 -42 -30 -6 -26 -6 -25 4 -43 5 -42 37
-48 36 -48 0 -29 0 -29 -20 -20 -19 -19 -58 -18 -58 -17 -170 -1 -170 0 -55
26 -55 26 -32 32 -32 32 -17 44 -16 44 4 61 4 60 38 72 37 72 6 45 5 46 -22
28 -22 28 -41 20 -41 21 -75 14 -76 13 -205 -1 -205 -2 -211 -9z"/>
</g>
</svg>
