<?xml version="1.0" standalone="no"?>
<!DOCTYPE svg PUBLIC "-//W3C//DTD SVG 20010904//EN"
 "http://www.w3.org/TR/2001/REC-SVG-20010904/DTD/svg10.dtd">
<svg version="1.0" xmlns="http://www.w3.org/2000/svg"
 width="283.000000pt" height="301.000000pt" viewBox="0 0 283.000000 301.000000"
 preserveAspectRatio="xMidYMid meet">
<metadata>
Created by potrace 1.16, written by Peter Selinger 2001-2019
</metadata>
<g transform="translate(0.000000,301.000000) scale(0.100000,-0.100000)"
fill="#000000" stroke="none">
<path d="M289 3003 l-167 -3 -8 -238 -9 -237 1 -171 1 -170 17 -76 17 -75 29
-46 29 -46 30 -16 31 -15 43 -6 43 -6 60 12 59 12 77 34 77 35 50 6 49 6 35
-7 36 -7 31 -27 32 -27 24 -38 24 -37 14 -53 14 -53 7 -76 7 -75 -12 -59 -12
-59 -21 -40 -20 -40 -23 -30 -23 -30 -56 -34 -55 -34 -58 -13 -57 -14 -63 0
-63 0 -73 15 -74 15 -86 30 -86 30 -24 0 -23 0 -34 -23 -34 -22 -20 -50 -20
-50 1 -170 0 -170 18 -115 17 -115 34 -173 35 -173 0 -22 0 -23 273 -13 272
-13 194 -5 193 -6 54 12 54 12 15 22 15 21 0 34 0 33 -24 47 -24 47 -22 85
-22 85 -5 100 -5 100 29 55 29 55 54 27 55 28 54 10 54 10 74 0 74 0 40 -20
40 -21 39 -41 40 -40 30 -53 31 -54 23 -69 24 -68 12 -74 13 -74 -6 -64 -6
-64 -37 -66 -37 -66 -1 -56 0 -55 13 -23 13 -24 46 -21 47 -22 135 0 135 0 70
14 70 13 95 24 95 23 115 39 115 39 78 32 77 33 0 19 0 19 -34 47 -34 48 -30
60 -30 60 -31 89 -32 89 -49 202 -50 201 -20 59 -20 59 -22 32 -22 32 -27 16
-27 16 -40 0 -41 0 -24 -9 -25 -10 -10 -30 -11 -31 -6 0 -6 0 -14 13 -13 14
-15 44 -15 44 -12 77 -11 77 -1 140 0 139 16 57 17 56 19 19 20 20 24 0 23 0
34 -25 34 -25 32 -15 32 -15 79 0 78 0 53 26 52 26 38 52 38 51 26 65 25 65
17 79 16 79 11 137 11 136 -8 238 -7 238 -37 -6 -36 -7 -372 -9 -371 -9 -87
-11 -87 -11 -46 -16 -47 -15 -18 -10 -18 -9 -19 -32 -20 -32 0 -31 0 -31 31
-89 31 -89 14 -73 14 -74 0 -37 0 -37 -16 -53 -15 -52 -35 -39 -35 -38 -46
-22 -46 -21 -66 -6 -66 -5 -79 11 -78 11 -43 19 -43 19 -18 27 -17 26 1 29 1
29 34 65 35 65 12 72 12 71 -4 97 -4 96 -28 53 -29 52 -31 24 -31 23 -40 20
-40 21 -75 17 -75 17 -215 3 -215 2 -166 -4z"/>
</g>
</svg>
