<?xml version="1.0" standalone="no"?>
<!DOCTYPE svg PUBLIC "-//W3C//DTD SVG 20010904//EN"
 "http://www.w3.org/TR/2001/REC-SVG-20010904/DTD/svg10.dtd">
<svg version="1.0" xmlns="http://www.w3.org/2000/svg"
 width="281.000000pt" height="299.000000pt" viewBox="0 0 281.000000 299.000000"
 preserveAspectRatio="xMidYMid meet">
<metadata>
Created by potrace 1.16, written by Peter Selinger 2001-2019
</metadata>
<g transform="translate(0.000000,299.000000) scale(0.100000,-0.100000)"
fill="#000000" stroke="none">
<path d="M289 2983 l-167 -3 -8 -238 -9 -237 1 -161 1 -162 17 -74 17 -75 29
-46 29 -46 28 -15 29 -14 36 -7 36 -7 58 12 59 12 79 35 78 35 58 5 58 6 35
-7 36 -7 31 -27 32 -27 24 -38 24 -37 15 -55 14 -55 7 -83 6 -82 -12 -60 -12
-60 -21 -40 -20 -40 -23 -30 -23 -30 -56 -34 -55 -34 -58 -13 -57 -14 -75 0
-75 0 -70 15 -70 15 -94 32 -94 32 -36 -20 -36 -19 -18 -36 -17 -36 -11 -59
-11 -59 5 -126 6 -126 16 -109 16 -109 35 -175 36 -175 0 -21 1 -20 271 -13
271 -13 184 -5 183 -6 54 12 54 12 15 22 15 21 0 24 0 23 -24 47 -24 47 -22
85 -22 85 -5 110 -5 110 29 55 29 55 54 27 55 28 54 10 54 10 84 0 84 0 40
-20 40 -21 39 -41 40 -40 30 -53 31 -54 24 -70 23 -70 13 -76 12 -76 -6 -70
-6 -70 -37 -66 -36 -65 -1 -47 -1 -46 13 -23 13 -24 46 -21 47 -22 125 0 125
0 70 14 70 13 95 24 95 23 115 39 115 39 78 32 77 33 0 9 0 9 -34 47 -34 48
-30 60 -30 60 -31 89 -32 89 -49 202 -50 201 -20 59 -20 59 -22 32 -22 32 -27
16 -27 16 -30 0 -31 0 -24 -9 -25 -10 -10 -30 -11 -31 -16 0 -16 0 -14 13 -13
14 -15 44 -15 44 -12 79 -12 78 0 147 -1 147 17 58 17 57 19 19 20 20 34 0 33
0 34 -25 34 -25 32 -15 32 -15 69 0 68 0 53 26 52 26 38 52 38 51 26 65 25 65
16 78 16 78 11 131 11 132 -7 234 -7 234 -22 -6 -21 -6 -377 -10 -376 -9 -88
-11 -87 -11 -56 -19 -56 -20 -22 -25 -23 -26 -6 -26 -7 -27 36 -110 36 -111
11 -59 10 -60 0 -46 0 -46 -16 -53 -15 -52 -35 -39 -35 -38 -46 -22 -47 -22
-71 -5 -71 -6 -83 12 -83 11 -43 19 -43 19 -18 28 -19 27 1 37 1 36 36 67 35
66 12 72 12 72 -4 86 -4 86 -29 53 -28 52 -31 24 -31 23 -40 20 -40 21 -75 17
-75 17 -205 3 -205 2 -166 -4z"/>
</g>
</svg>
