<?xml version="1.0" standalone="no"?>
<!DOCTYPE svg PUBLIC "-//W3C//DTD SVG 20010904//EN"
 "http://www.w3.org/TR/2001/REC-SVG-20010904/DTD/svg10.dtd">
<svg version="1.0" xmlns="http://www.w3.org/2000/svg"
 width="348.000000pt" height="373.000000pt" viewBox="0 0 348.000000 373.000000"
 preserveAspectRatio="xMidYMid meet">
<metadata>
Created by potrace 1.16, written by Peter Selinger 2001-2019
</metadata>
<g transform="translate(0.000000,373.000000) scale(0.100000,-0.100000)"
fill="#000000" stroke="none">
<path d="M1939 3716 l-57 -12 -40 -26 -40 -27 -21 -43 -21 -44 -11 -60 -11
-59 5 -125 6 -125 26 -150 25 -150 17 -33 18 -33 -25 -19 -25 -19 -33 -6 -33
-6 -132 0 -132 0 -347 22 -347 23 -7 -7 -7 -7 13 -262 13 -263 -5 -170 -6
-170 -17 -75 -17 -75 -18 -35 -18 -35 -18 -16 -19 -16 -16 -6 -16 -5 -44 20
-44 19 -84 25 -83 24 -75 0 -76 0 -38 -12 -39 -11 -39 -34 -40 -34 -27 -55
-27 -55 -5 -94 -5 -95 13 -62 12 -63 28 -62 28 -62 48 -52 49 -51 47 -24 47
-24 60 0 59 0 24 29 25 28 21 12 21 11 21 0 21 0 29 -15 28 -15 26 -52 25 -53
15 -85 16 -85 20 -240 20 -240 14 -80 15 -80 6 -31 7 -31 291 -24 292 -24 215
0 215 0 33 14 32 13 0 24 0 24 -25 38 -24 37 -16 45 -17 45 -1 70 -1 70 13 55
13 55 31 64 31 64 47 51 47 52 59 29 58 28 70 5 70 4 75 -11 75 -12 52 -24 52
-24 21 -33 21 -33 -4 -50 -4 -50 -33 -75 -34 -75 -4 -61 -4 -61 32 -36 31 -36
54 -20 53 -20 109 -15 108 -16 175 -15 175 -15 75 -11 75 -10 88 -21 88 -20 6
6 6 6 -17 137 -16 138 -11 210 -10 210 -14 110 -14 110 -11 35 -10 35 -19 32
-20 32 -27 17 -26 18 -47 0 -48 0 -31 -13 -32 -13 0 -9 0 -9 -32 -20 -33 -20
-31 0 -30 0 -52 26 -52 26 -36 41 -36 42 -29 60 -28 60 -10 62 -10 62 10 98
10 97 20 60 20 59 29 43 29 42 30 10 29 10 28 -17 29 -18 13 -16 14 -16 56
-12 56 -11 71 4 70 5 31 16 32 16 30 31 31 31 30 62 31 62 15 60 15 60 11 120
11 120 -7 233 -7 233 -32 -7 -31 -6 -125 -34 -125 -34 -170 -35 -170 -34 -131
-12 -131 -12 -73 12 -72 12 -29 15 -30 15 -20 32 -20 32 6 33 6 32 29 61 29
61 12 71 12 72 -6 105 -6 105 -21 80 -20 80 -39 81 -39 81 -35 37 -36 37 -35
14 -35 15 -68 -1 -68 -1 -56 -12z"/>
</g>
</svg>
