<?xml version="1.0" standalone="no"?>
<!DOCTYPE svg PUBLIC "-//W3C//DTD SVG 20010904//EN"
 "http://www.w3.org/TR/2001/REC-SVG-20010904/DTD/svg10.dtd">
<svg version="1.0" xmlns="http://www.w3.org/2000/svg"
 width="346.000000pt" height="371.000000pt" viewBox="0 0 346.000000 371.000000"
 preserveAspectRatio="xMidYMid meet">
<metadata>
Created by potrace 1.16, written by Peter Selinger 2001-2019
</metadata>
<g transform="translate(0.000000,371.000000) scale(0.100000,-0.100000)"
fill="#000000" stroke="none">
<path d="M1939 3696 l-57 -12 -40 -26 -40 -27 -21 -43 -21 -44 -11 -60 -11
-59 6 -115 6 -116 26 -154 26 -154 14 -20 14 -20 0 -22 0 -22 -22 -14 -23 -15
-30 -7 -30 -8 -149 0 -150 0 -333 23 -333 23 -6 -7 -7 -7 13 -247 13 -248 -5
-185 -6 -185 -17 -75 -17 -75 -18 -35 -18 -35 -18 -16 -19 -17 -22 -6 -22 -7
-59 25 -60 25 -73 21 -74 20 -64 0 -64 0 -38 -12 -39 -11 -39 -34 -40 -34 -26
-54 -27 -55 -5 -84 -6 -85 13 -63 12 -63 28 -62 28 -62 48 -52 49 -51 47 -24
47 -24 50 0 49 0 24 29 25 28 21 12 21 11 31 0 31 0 29 -15 28 -15 26 -52 25
-53 15 -85 16 -85 20 -240 20 -240 14 -80 15 -80 6 -31 7 -31 291 -24 292 -24
205 0 205 0 33 14 32 13 0 14 0 14 -25 38 -24 37 -17 45 -16 45 -1 80 -1 80
13 55 13 55 31 64 31 64 47 51 47 52 59 29 58 28 80 5 80 4 75 -11 75 -12 52
-24 52 -24 21 -33 21 -33 -4 -60 -3 -60 -34 -75 -33 -75 -5 -51 -4 -51 31 -36
32 -36 54 -20 53 -20 109 -15 108 -16 180 -15 180 -16 95 -15 95 -15 55 -14
54 -14 4 4 4 3 -16 124 -16 123 -10 215 -11 215 -14 110 -14 110 -11 35 -10
35 -19 32 -20 32 -26 17 -26 17 -39 0 -39 0 -31 -13 -30 -12 0 -9 0 -9 -32
-20 -33 -20 -41 0 -40 0 -52 26 -52 26 -36 41 -36 42 -29 60 -28 60 -11 66
-10 67 11 103 10 103 20 60 20 59 30 43 29 42 34 12 35 11 28 -14 28 -15 19
-20 18 -21 56 -12 57 -11 60 4 61 5 31 16 31 16 30 31 31 31 30 62 31 62 15
60 15 59 11 111 11 110 -7 231 -7 231 -32 -7 -31 -8 -135 -36 -135 -35 -149
-30 -148 -30 -138 -12 -139 -13 -76 12 -76 12 -30 15 -30 16 -20 32 -20 32 5
41 5 40 30 63 30 63 12 71 12 72 -6 95 -6 95 -21 80 -20 80 -39 81 -39 81 -35
37 -36 37 -35 14 -35 15 -58 -1 -58 -1 -56 -12z"/>
</g>
</svg>
