<?xml version="1.0" standalone="no"?>
<!DOCTYPE svg PUBLIC "-//W3C//DTD SVG 20010904//EN"
 "http://www.w3.org/TR/2001/REC-SVG-20010904/DTD/svg10.dtd">
<svg version="1.0" xmlns="http://www.w3.org/2000/svg"
 width="385.000000pt" height="378.000000pt" viewBox="0 0 385.000000 378.000000"
 preserveAspectRatio="xMidYMid meet">
<metadata>
Created by potrace 1.16, written by Peter Selinger 2001-2019
</metadata>
<g transform="translate(0.000000,378.000000) scale(0.100000,-0.100000)"
fill="#000000" stroke="none">
<path d="M2050 3769 l-45 -9 -55 -27 -54 -28 -29 -55 -29 -55 5 -120 5 -120
21 -80 21 -80 27 -58 27 -58 -15 -27 -14 -26 -40 -12 -40 -12 -130 -1 -130 -1
-145 10 -144 9 -198 7 -198 7 0 -114 0 -114 11 -295 11 -296 -11 -103 -11
-102 -21 -50 -22 -50 -29 -20 -29 -21 -39 0 -39 1 -63 26 -63 27 -50 20 -50
20 -81 5 -81 6 -54 -13 -54 -13 -45 -23 -45 -22 -39 -39 -39 -38 -23 -50 -24
-50 0 -65 0 -65 20 -33 21 -33 17 -18 17 -18 48 -32 48 -33 62 -27 62 -28 85
-24 85 -24 141 0 142 0 55 38 56 39 37 1 37 1 28 -31 28 -32 11 -38 12 -38 5
-95 5 -95 -16 -135 -15 -135 -30 -160 -29 -160 -21 -90 -21 -90 -6 -21 -5 -20
358 -13 358 -12 105 10 105 10 46 14 47 14 38 29 37 29 18 40 19 40 0 45 0 46
-15 57 -15 57 -29 52 -30 53 -7 43 -7 42 17 44 17 44 45 42 45 41 45 19 45 20
63 10 63 10 51 -15 52 -16 48 -48 49 -49 26 -45 27 -45 32 -94 32 -93 1 -135
0 -135 -38 -91 -37 -91 0 -58 0 -57 28 -28 29 -28 39 -11 39 -11 104 0 103 0
126 25 125 26 133 44 134 45 107 49 108 49 25 13 25 12 17 46 16 46 41 107 41
108 35 119 34 120 21 103 21 103 6 115 6 115 -13 60 -12 59 -34 34 -34 34 -58
-4 -57 -4 -60 -28 -60 -28 -70 -15 -70 -15 -69 6 -69 6 -46 11 -46 11 -81 39
-82 38 -46 52 -46 51 -14 49 -15 49 10 62 10 63 33 70 33 70 49 49 49 48 70
34 70 34 46 6 46 6 44 -21 44 -20 26 -22 27 -21 44 -5 44 -5 32 27 32 26 20
66 20 65 10 131 10 132 -10 200 -9 200 -7 88 -7 87 -21 0 -22 0 -79 -34 -80
-33 -125 -41 -125 -41 -80 -20 -80 -19 -70 -13 -70 -14 -115 0 -115 0 -47 22
-46 21 -12 23 -12 22 0 38 1 38 36 66 37 65 5 80 6 80 -12 75 -13 76 -23 70
-24 70 -31 54 -30 53 -40 40 -39 41 -40 21 -40 20 -103 -1 -103 -1 -45 -9z"/>
</g>
</svg>
