<?xml version="1.0" standalone="no"?>
<!DOCTYPE svg PUBLIC "-//W3C//DTD SVG 20010904//EN"
 "http://www.w3.org/TR/2001/REC-SVG-20010904/DTD/svg10.dtd">
<svg version="1.0" xmlns="http://www.w3.org/2000/svg"
 width="383.000000pt" height="376.000000pt" viewBox="0 0 383.000000 376.000000"
 preserveAspectRatio="xMidYMid meet">
<metadata>
Created by potrace 1.16, written by Peter Selinger 2001-2019
</metadata>
<g transform="translate(0.000000,376.000000) scale(0.100000,-0.100000)"
fill="#000000" stroke="none">
<path d="M2050 3749 l-45 -9 -55 -27 -54 -28 -29 -55 -29 -55 5 -110 5 -110
22 -85 22 -85 24 -47 24 -47 0 -23 0 -24 -15 -21 -14 -20 -45 -12 -45 -11
-133 0 -133 0 -145 10 -145 9 -187 7 -188 7 0 -104 0 -104 11 -302 12 -301
-12 -107 -11 -106 -21 -50 -22 -50 -30 -21 -30 -22 -47 1 -46 1 -65 27 -64 27
-50 20 -50 20 -71 5 -71 6 -54 -13 -54 -13 -45 -23 -45 -22 -39 -39 -39 -38
-23 -50 -24 -50 0 -55 0 -55 20 -33 21 -33 17 -18 17 -18 48 -32 48 -33 62
-27 62 -28 85 -24 85 -23 131 -1 132 0 56 39 57 39 45 1 46 1 28 -32 29 -32
11 -38 12 -38 5 -97 6 -96 -12 -114 -12 -113 -20 -120 -20 -120 -25 -120 -24
-121 -13 -50 -13 -50 350 -13 351 -12 100 10 100 10 51 15 50 16 41 37 41 38
13 43 13 44 -12 66 -11 66 -36 69 -36 69 -6 49 -6 49 17 44 17 44 45 42 45 41
45 20 46 19 69 11 69 10 55 -15 54 -16 49 -49 49 -49 26 -45 27 -45 32 -94 32
-93 1 -145 0 -145 -38 -91 -37 -91 0 -48 0 -47 28 -28 29 -28 39 -11 39 -11
94 0 93 0 126 25 125 26 133 44 133 45 100 45 101 45 33 17 32 18 1 5 0 5 51
130 51 130 26 82 25 81 21 80 20 81 15 78 16 78 6 105 6 105 -13 60 -12 59
-34 34 -34 34 -48 -4 -47 -5 -60 -27 -60 -28 -70 -15 -70 -15 -77 6 -76 5 -49
12 -48 11 -81 39 -82 38 -46 52 -46 51 -15 53 -16 53 11 68 11 69 33 70 33 70
49 49 49 48 71 35 72 34 54 6 55 5 44 -20 44 -21 25 -21 25 -21 36 -5 35 -6
32 27 32 26 20 66 20 65 10 127 9 127 -9 189 -9 190 -7 93 -7 92 -11 0 -12 0
-79 -34 -80 -33 -125 -41 -125 -41 -80 -20 -80 -19 -70 -13 -70 -14 -125 0
-125 0 -47 22 -46 21 -13 24 -13 23 1 46 1 47 36 65 37 66 6 70 6 70 -12 76
-13 76 -23 70 -24 70 -31 54 -30 53 -40 40 -39 41 -40 21 -40 20 -93 -1 -93
-1 -45 -9z"/>
</g>
</svg>
