<?xml version="1.0" standalone="no"?>
<!DOCTYPE svg PUBLIC "-//W3C//DTD SVG 20010904//EN"
 "http://www.w3.org/TR/2001/REC-SVG-20010904/DTD/svg10.dtd">
<svg version="1.0" xmlns="http://www.w3.org/2000/svg"
 width="303.000000pt" height="347.000000pt" viewBox="0 0 303.000000 347.000000"
 preserveAspectRatio="xMidYMid meet">
<metadata>
Created by potrace 1.16, written by Peter Selinger 2001-2019
</metadata>
<g transform="translate(0.000000,347.000000) scale(0.100000,-0.100000)"
fill="#000000" stroke="none">
<path d="M69 3248 l-14 -223 0 -235 0 -235 17 -55 17 -56 25 -23 25 -23 33 5
33 5 55 20 55 21 105 21 105 22 76 -4 76 -5 36 -22 36 -22 19 -32 20 -32 11
-53 11 -53 0 -110 0 -110 -19 -37 -19 -37 -34 -30 -33 -30 -30 -21 -31 -21
-39 -21 -40 -20 -69 -21 -68 -21 -70 0 -70 0 -39 40 -40 40 -59 0 -59 0 -26
-27 -26 -28 -15 -50 -16 -50 -5 -127 -6 -128 12 -142 13 -143 27 -226 28 -226
7 -12 7 -11 82 0 82 0 290 25 290 25 72 0 72 0 26 -10 26 -10 -20 -27 -20 -28
-21 -73 -22 -73 4 -107 3 -107 31 -65 31 -65 28 -33 27 -33 43 -29 43 -29 50
-20 50 -20 86 -11 85 -12 73 12 73 11 60 28 60 28 41 42 42 41 18 38 18 37 4
51 4 52 -12 36 -12 37 -24 29 -25 29 -6 35 -5 35 6 25 6 26 38 25 37 24 60 17
60 16 408 8 408 9 19 6 20 6 0 10 0 9 44 103 44 104 42 129 41 129 26 125 25
125 2 120 1 120 -14 40 -13 40 -26 28 -26 27 -60 0 -61 0 -55 -26 -55 -25 -60
-15 -60 -14 -80 0 -80 0 -82 20 -83 20 -71 36 -71 35 -49 46 -48 45 -26 51
-25 51 0 67 0 67 20 63 20 64 30 52 29 51 43 35 43 35 35 17 35 18 35 8 35 8
37 -10 37 -10 31 -25 30 -26 47 -14 46 -14 72 0 71 0 42 36 42 35 15 52 16 52
8 115 9 115 -12 320 -11 320 -1351 3 -1351 2 -14 -222z"/>
</g>
</svg>
