<?xml version="1.0" standalone="no"?>
<!DOCTYPE svg PUBLIC "-//W3C//DTD SVG 20010904//EN"
 "http://www.w3.org/TR/2001/REC-SVG-20010904/DTD/svg10.dtd">
<svg version="1.0" xmlns="http://www.w3.org/2000/svg"
 width="301.000000pt" height="345.000000pt" viewBox="0 0 301.000000 345.000000"
 preserveAspectRatio="xMidYMid meet">
<metadata>
Created by potrace 1.16, written by Peter Selinger 2001-2019
</metadata>
<g transform="translate(0.000000,345.000000) scale(0.100000,-0.100000)"
fill="#000000" stroke="none">
<path d="M69 3228 l-14 -223 0 -225 0 -225 17 -55 17 -56 25 -23 25 -24 23 6
23 6 55 20 55 20 105 21 105 22 86 -4 85 -4 37 -22 36 -23 19 -32 20 -32 11
-53 11 -53 0 -120 0 -120 -19 -37 -19 -37 -34 -30 -33 -30 -30 -21 -31 -21
-39 -21 -40 -20 -69 -21 -68 -21 -80 0 -80 0 -39 40 -40 40 -49 0 -49 0 -26
-27 -26 -28 -15 -50 -16 -50 -5 -117 -6 -117 12 -143 13 -143 27 -226 28 -226
7 -12 7 -11 72 0 72 0 290 25 290 25 82 0 82 0 25 -10 26 -10 0 -14 0 -14 -15
-12 -15 -13 -26 -83 -26 -84 4 -97 4 -98 30 -65 31 -65 28 -33 27 -33 43 -29
43 -29 50 -20 49 -20 81 -11 80 -11 69 11 68 11 60 28 60 28 41 42 42 41 17
37 18 37 5 42 4 42 -12 36 -12 37 -23 27 -23 27 -10 38 -10 37 9 35 10 35 37
25 37 24 60 17 60 16 408 8 408 9 19 6 20 6 0 10 0 9 44 103 44 104 42 129 41
129 26 125 25 125 1 110 1 110 -13 40 -13 40 -26 28 -26 27 -50 0 -51 0 -55
-26 -55 -25 -60 -15 -60 -14 -90 0 -90 0 -82 20 -83 20 -71 36 -71 35 -49 46
-49 46 -26 53 -27 54 1 73 1 72 20 65 21 65 30 52 29 51 43 35 43 35 40 19 40
20 37 7 38 7 39 -11 40 -11 31 -25 30 -26 47 -14 46 -14 62 0 61 0 42 36 42
35 15 52 16 52 8 110 8 110 -11 315 -11 315 -1341 3 -1341 2 -14 -222z"/>
</g>
</svg>
