<?xml version="1.0" standalone="no"?>
<!DOCTYPE svg PUBLIC "-//W3C//DTD SVG 20010904//EN"
 "http://www.w3.org/TR/2001/REC-SVG-20010904/DTD/svg10.dtd">
<svg version="1.0" xmlns="http://www.w3.org/2000/svg"
 width="297.000000pt" height="293.000000pt" viewBox="0 0 297.000000 293.000000"
 preserveAspectRatio="xMidYMid meet">
<metadata>
Created by potrace 1.16, written by Peter Selinger 2001-2019
</metadata>
<g transform="translate(0.000000,293.000000) scale(0.100000,-0.100000)"
fill="#000000" stroke="none">
<path d="M2073 2920 l-41 -9 -31 -16 -31 -15 -15 -30 -15 -29 0 -34 0 -34 20
-59 21 -59 19 -97 20 -96 0 -104 0 -104 -15 -59 -16 -60 -25 -52 -25 -53 -47
-47 -47 -46 -64 -30 -64 -31 -78 -4 -78 -4 -44 21 -45 22 -28 28 -29 28 -23
29 -23 29 -29 55 -28 55 -25 80 -25 80 -12 93 -13 93 6 87 6 87 20 66 21 65
25 24 25 23 0 14 0 13 -87 0 -88 0 -210 -20 -210 -19 -160 -11 -160 -10 -87 0
-87 0 -5 -9 -6 -8 -16 -289 -16 -289 6 -160 5 -160 17 -60 16 -60 24 -32 24
-32 36 -7 35 -6 82 30 82 31 54 15 55 16 53 0 54 0 32 -16 31 -17 13 -13 14
-13 19 -44 19 -43 12 -75 11 -74 -5 -71 -5 -70 -17 -40 -16 -39 -41 -42 -41
-42 -51 -22 -51 -22 -83 -5 -82 -5 -63 12 -62 12 -118 35 -117 36 -36 -7 -36
-6 -29 -32 -28 -31 -12 -55 -12 -56 6 -125 6 -125 25 -115 24 -116 32 -109 32
-110 56 -151 56 -151 195 -6 194 -7 201 0 201 0 65 16 65 15 38 26 39 27 19
37 19 38 0 78 0 78 -19 65 -19 65 -31 85 -31 85 0 24 0 23 33 33 33 33 59 13
60 12 195 0 195 0 68 -16 67 -17 40 -20 39 -20 27 -36 27 -35 5 -53 4 -53 -41
-120 -41 -119 0 -43 0 -42 14 -27 14 -27 39 -22 40 -22 64 -16 64 -16 350 -14
350 -15 34 -7 34 -6 -6 39 -6 39 -15 85 -16 85 -20 240 -20 240 -16 85 -15 85
-25 53 -26 52 -28 15 -29 15 -41 0 -41 0 -21 -11 -21 -12 -25 -28 -24 -29 -39
0 -40 0 -47 24 -47 24 -49 51 -48 52 -28 62 -28 62 -12 63 -13 63 6 75 6 76
26 54 26 53 40 34 39 34 39 11 38 12 54 0 54 0 74 -20 73 -21 61 -25 60 -26
32 6 32 6 20 23 21 22 15 30 15 30 17 75 18 75 5 195 5 195 -13 253 -13 252
-81 26 -81 25 -95 25 -94 24 -111 21 -110 20 -130 4 -130 4 -42 -9z"/>
</g>
</svg>
