<?xml version="1.0" standalone="no"?>
<!DOCTYPE svg PUBLIC "-//W3C//DTD SVG 20010904//EN"
 "http://www.w3.org/TR/2001/REC-SVG-20010904/DTD/svg10.dtd">
<svg version="1.0" xmlns="http://www.w3.org/2000/svg"
 width="295.000000pt" height="291.000000pt" viewBox="0 0 295.000000 291.000000"
 preserveAspectRatio="xMidYMid meet">
<metadata>
Created by potrace 1.16, written by Peter Selinger 2001-2019
</metadata>
<g transform="translate(0.000000,291.000000) scale(0.100000,-0.100000)"
fill="#000000" stroke="none">
<path d="M2073 2900 l-41 -9 -31 -16 -31 -15 -15 -30 -15 -29 0 -24 0 -24 20
-59 21 -59 19 -97 20 -96 0 -114 0 -114 -15 -59 -16 -60 -25 -52 -25 -53 -47
-47 -47 -46 -65 -31 -65 -30 -87 -4 -87 -4 -44 21 -45 22 -28 28 -29 28 -23
29 -23 29 -29 55 -28 55 -25 80 -25 80 -12 93 -13 92 6 98 5 97 21 64 20 64
27 28 28 29 -80 0 -79 0 -210 -20 -210 -19 -160 -11 -160 -10 -87 0 -87 0 -5
-9 -6 -8 -16 -289 -16 -289 6 -150 6 -150 16 -60 16 -60 24 -32 24 -31 28 -7
28 -6 69 27 70 26 65 19 65 19 63 0 63 0 32 -16 31 -17 13 -13 14 -13 19 -44
19 -43 12 -75 11 -74 -5 -80 -5 -80 -16 -40 -17 -40 -41 -42 -41 -42 -51 -22
-51 -22 -89 -5 -89 -5 -71 13 -71 12 -110 35 -110 34 -35 -10 -36 -11 -22 -29
-22 -30 -11 -53 -12 -53 6 -115 7 -115 24 -115 24 -116 32 -109 32 -110 56
-151 56 -151 195 -6 194 -7 191 0 191 0 65 16 65 15 38 26 39 27 19 37 19 38
0 68 0 68 -19 65 -19 65 -31 85 -31 85 0 34 0 33 33 33 33 33 59 13 60 13 205
-1 205 0 68 -16 67 -17 40 -20 39 -20 28 -36 27 -36 4 -63 4 -62 -41 -120 -41
-119 0 -33 0 -32 14 -27 14 -27 39 -22 40 -22 64 -16 64 -16 350 -14 350 -14
24 -7 24 -7 -7 34 -7 34 -15 80 -14 80 -20 240 -20 240 -16 85 -15 85 -25 53
-26 52 -28 15 -29 15 -31 0 -31 0 -21 -11 -21 -12 -25 -28 -24 -29 -49 0 -50
0 -47 24 -47 24 -49 51 -48 52 -28 62 -28 62 -12 63 -13 63 6 85 5 84 27 55
26 54 40 34 39 34 39 11 38 12 64 0 64 0 74 -20 73 -21 60 -25 59 -25 22 7 22
6 19 17 18 16 18 35 18 35 17 75 17 75 6 185 5 185 -13 253 -13 252 -81 26
-81 25 -95 25 -94 24 -111 21 -110 20 -120 4 -120 4 -42 -9z"/>
</g>
</svg>
