<?xml version="1.0" standalone="no"?>
<!DOCTYPE svg PUBLIC "-//W3C//DTD SVG 20010904//EN"
 "http://www.w3.org/TR/2001/REC-SVG-20010904/DTD/svg10.dtd">
<svg version="1.0" xmlns="http://www.w3.org/2000/svg"
 width="351.000000pt" height="282.000000pt" viewBox="0 0 351.000000 282.000000"
 preserveAspectRatio="xMidYMid meet">
<metadata>
Created by potrace 1.16, written by Peter Selinger 2001-2019
</metadata>
<g transform="translate(0.000000,282.000000) scale(0.100000,-0.100000)"
fill="#000000" stroke="none">
<path d="M923 2813 l-132 -4 6 -277 6 -277 -12 -110 -12 -110 -20 -79 -20 -79
-30 -59 -30 -59 -35 -39 -36 -40 -62 -29 -61 -30 -52 -6 -53 -7 -72 12 -73 12
-45 29 -45 30 -21 5 -22 6 -28 -4 -29 -3 -18 -38 -19 -38 0 -167 0 -167 16
-73 15 -73 28 -51 28 -51 39 -29 39 -28 41 -11 41 -11 85 5 85 4 108 37 109
36 33 0 33 0 31 -26 31 -25 20 -66 20 -65 6 -112 6 -111 -17 -289 -17 -288 9
-8 8 -7 275 -19 275 -18 165 0 165 0 40 13 40 14 18 15 17 15 0 40 0 40 -29
46 -29 46 -13 40 -13 40 0 85 1 85 27 81 26 81 39 60 39 60 43 42 44 41 53 26
54 26 49 7 49 8 52 -8 51 -8 56 -28 56 -27 56 -55 55 -56 37 -75 37 -75 8 -50
8 -50 -7 -34 -7 -34 -30 -29 -31 -28 -7 -45 -6 -45 6 -34 7 -34 33 -30 34 -30
49 -16 48 -15 65 -10 65 -11 240 -10 240 -11 80 -9 80 -10 33 -6 32 -6 0 24 0
24 -9 10 -8 9 -31 75 -30 75 -26 95 -25 95 -41 222 -40 222 -19 61 -19 61 -24
35 -23 34 -34 16 -33 16 -45 -7 -44 -6 -41 -40 -40 -39 -15 0 -15 0 -28 28
-28 29 -21 67 -20 66 -11 110 -11 110 11 90 10 91 20 52 20 52 32 37 33 37 37
16 37 15 34 0 34 0 54 -19 55 -19 42 -21 42 -21 42 -6 43 -6 35 24 35 23 28
55 27 55 15 70 16 70 6 185 6 185 -12 200 -13 200 -4 5 -5 4 -87 -46 -88 -47
-104 -35 -105 -35 -190 -41 -190 -42 -80 -25 -80 -25 -37 -37 -37 -37 -7 -29
-7 -29 12 -44 12 -45 31 -44 32 -44 0 -35 0 -35 -33 -28 -32 -28 -55 -17 -54
-17 -115 -12 -115 -11 -83 12 -82 12 -62 30 -62 31 -30 36 -29 35 -11 42 -10
42 9 36 10 36 26 37 25 37 14 56 15 56 0 65 0 65 -20 40 -19 41 -43 28 -43 28
-50 16 -50 17 -300 1 -300 1 -132 -3z"/>
</g>
</svg>
