<?xml version="1.0" standalone="no"?>
<!DOCTYPE svg PUBLIC "-//W3C//DTD SVG 20010904//EN"
 "http://www.w3.org/TR/2001/REC-SVG-20010904/DTD/svg10.dtd">
<svg version="1.0" xmlns="http://www.w3.org/2000/svg"
 width="349.000000pt" height="280.000000pt" viewBox="0 0 349.000000 280.000000"
 preserveAspectRatio="xMidYMid meet">
<metadata>
Created by potrace 1.16, written by Peter Selinger 2001-2019
</metadata>
<g transform="translate(0.000000,280.000000) scale(0.100000,-0.100000)"
fill="#000000" stroke="none">
<path d="M923 2793 l-132 -4 6 -277 6 -277 -12 -110 -12 -110 -20 -79 -20 -79
-30 -59 -30 -59 -35 -39 -36 -39 -59 -30 -59 -29 -64 -7 -64 -7 -74 12 -73 12
-45 29 -45 30 -22 5 -21 6 -19 -4 -18 -3 -18 -37 -19 -38 0 -157 0 -158 16
-73 15 -73 28 -51 28 -51 39 -29 39 -28 41 -11 41 -11 75 5 76 5 106 35 107
36 23 2 23 2 22 -1 21 -2 31 -26 31 -25 20 -67 21 -67 6 -125 5 -125 -16 -274
-17 -274 8 -7 8 -7 275 -19 275 -18 155 0 155 0 40 13 40 14 18 15 17 15 0 30
0 30 -29 46 -29 46 -13 40 -14 40 1 95 1 95 26 81 27 81 39 60 39 60 43 42 44
41 53 26 53 25 55 9 54 9 57 -9 57 -10 55 -27 56 -27 56 -55 55 -56 37 -75 37
-75 9 -56 10 -56 -9 -39 -9 -38 -29 -28 -30 -27 -7 -40 -7 -41 7 -29 6 -30 34
-29 33 -30 49 -16 48 -15 65 -10 65 -11 240 -10 240 -11 85 -10 85 -10 18 -5
17 -5 0 13 0 14 -9 10 -8 9 -31 75 -30 75 -26 95 -25 95 -41 222 -40 222 -19
61 -19 61 -24 35 -23 34 -32 15 -33 16 -36 -7 -37 -7 -40 -38 -39 -39 -25 0
-25 0 -28 28 -28 29 -21 67 -21 67 -11 115 -11 115 11 94 11 95 20 54 21 54
37 40 37 39 39 13 38 12 52 -4 51 -5 65 -27 65 -28 44 -16 44 -15 36 19 35 19
23 34 23 34 20 63 19 63 12 108 12 108 -7 225 -6 225 -6 77 -7 77 -81 -44 -81
-44 -105 -35 -105 -35 -190 -41 -190 -42 -78 -25 -77 -24 -34 -29 -34 -30 -12
-30 -13 -31 13 -42 12 -42 32 -44 31 -43 0 -44 0 -44 -33 -28 -33 -29 -52 -16
-52 -16 -85 -11 -84 -10 -71 0 -70 0 -68 15 -68 14 -50 28 -51 27 -28 35 -29
34 -11 47 -11 48 10 39 11 40 25 38 26 37 14 56 15 56 0 55 0 55 -20 40 -19
41 -43 28 -43 28 -50 16 -50 17 -290 1 -290 1 -132 -3z"/>
</g>
</svg>
