<?xml version="1.0" standalone="no"?>
<!DOCTYPE svg PUBLIC "-//W3C//DTD SVG 20010904//EN"
 "http://www.w3.org/TR/2001/REC-SVG-20010904/DTD/svg10.dtd">
<svg version="1.0" xmlns="http://www.w3.org/2000/svg"
 width="352.000000pt" height="375.000000pt" viewBox="0 0 352.000000 375.000000"
 preserveAspectRatio="xMidYMid meet">
<metadata>
Created by potrace 1.16, written by Peter Selinger 2001-2019
</metadata>
<g transform="translate(0.000000,375.000000) scale(0.100000,-0.100000)"
fill="#000000" stroke="none">
<path d="M2450 3736 l-55 -12 -20 -11 -20 -11 -18 -20 -18 -20 -6 -35 -5 -36
35 -109 36 -109 12 -72 11 -73 -11 -60 -10 -59 -22 -36 -22 -35 -26 -25 -26
-25 -55 -27 -55 -26 -170 0 -170 1 -37 16 -38 17 0 14 0 15 29 12 29 12 13 66
14 67 -1 97 0 96 -33 66 -32 65 -32 27 -32 27 -60 28 -60 28 -70 15 -70 14
-102 7 -102 7 -285 -7 -285 -7 2 -402 2 -401 -14 -55 -14 -55 -17 -35 -18 -35
-24 -21 -23 -22 -34 -17 -35 -17 -62 0 -63 0 -73 17 -73 18 -49 34 -48 33 -40
0 -39 0 -13 -13 -13 -13 -14 -39 -14 -40 0 -210 0 -210 18 -47 18 -46 44 -41
43 -40 37 -7 36 -6 77 4 77 5 82 37 81 36 34 0 34 0 28 -29 27 -28 22 -64 22
-64 -2 -465 -2 -465 -6 -34 -6 -33 338 7 338 7 80 -11 80 -11 48 -17 47 -17
35 -29 36 -29 21 -41 21 -42 5 -80 4 -80 -17 -90 -16 -90 -35 -76 -34 -77 0
-51 0 -51 19 -19 20 -20 43 -13 43 -12 195 -1 195 0 58 23 58 24 58 53 58 54
32 61 33 62 5 58 6 59 -17 26 -16 25 -19 0 -19 0 -10 41 -11 42 9 21 8 21 28
27 29 26 36 15 36 15 72 16 72 17 202 29 202 29 75 16 75 15 95 30 95 31 23
107 23 107 30 160 30 160 15 135 16 135 -5 115 -5 115 -12 38 -11 38 -29 32
-28 32 -55 -1 -55 0 -57 -40 -57 -39 -122 0 -121 1 -85 23 -85 24 -62 28 -62
27 -48 33 -48 32 -17 18 -17 18 -21 33 -20 33 0 45 0 45 24 50 23 50 39 38 39
39 45 22 45 23 54 13 54 13 62 -6 62 -6 49 -20 49 -19 65 -28 65 -27 55 -1 55
-1 31 22 31 22 22 50 21 50 12 108 11 107 -12 316 -11 315 0 97 0 97 -17 5
-18 4 -110 26 -110 25 -135 25 -135 25 -97 10 -97 11 -83 -1 -83 -1 -55 -12z"/>
</g>
</svg>
