<?xml version="1.0" standalone="no"?>
<!DOCTYPE svg PUBLIC "-//W3C//DTD SVG 20010904//EN"
 "http://www.w3.org/TR/2001/REC-SVG-20010904/DTD/svg10.dtd">
<svg version="1.0" xmlns="http://www.w3.org/2000/svg"
 width="350.000000pt" height="373.000000pt" viewBox="0 0 350.000000 373.000000"
 preserveAspectRatio="xMidYMid meet">
<metadata>
Created by potrace 1.16, written by Peter Selinger 2001-2019
</metadata>
<g transform="translate(0.000000,373.000000) scale(0.100000,-0.100000)"
fill="#000000" stroke="none">
<path d="M2480 3723 l-25 -4 -37 -10 -37 -10 -30 -25 -30 -25 -6 -32 -6 -32
35 -106 35 -105 12 -74 11 -73 -7 -56 -6 -56 -20 -42 -20 -42 -32 -32 -32 -32
-53 -24 -52 -25 -73 -7 -72 -6 -106 6 -107 7 -36 12 -36 12 -10 18 -10 19 15
15 15 15 19 6 19 6 13 67 13 67 0 87 -1 87 -32 65 -32 65 -32 27 -32 27 -60
28 -60 28 -70 15 -70 14 -94 7 -94 7 -283 -7 -283 -7 2 -402 2 -401 -14 -55
-14 -55 -17 -35 -18 -35 -24 -21 -23 -22 -35 -17 -35 -18 -70 0 -70 0 -75 18
-75 18 -49 34 -48 33 -30 0 -29 0 -13 -13 -13 -13 -14 -39 -14 -40 0 -200 0
-200 18 -47 18 -46 44 -41 43 -40 37 -7 37 -7 66 5 67 6 85 37 84 38 39 0 38
0 30 -29 30 -28 21 -66 21 -65 4 -215 4 -215 -8 -283 -8 -284 335 7 335 7 80
-11 80 -11 48 -17 47 -17 35 -29 36 -29 21 -41 22 -42 4 -90 4 -90 -17 -90
-16 -90 -35 -76 -34 -77 0 -41 0 -41 19 -19 20 -20 43 -12 43 -13 185 -1 185
0 58 23 58 24 58 53 58 54 32 60 32 60 6 50 6 50 -17 26 -16 25 -19 0 -19 0
-12 48 -11 48 9 24 10 25 28 27 29 26 36 15 36 15 72 16 72 17 202 29 202 29
75 16 75 15 96 31 96 30 0 12 1 12 22 95 22 95 29 160 30 160 15 135 16 135
-5 105 -5 105 -12 38 -11 38 -29 32 -28 32 -46 -1 -45 -1 -57 -39 -56 -39
-132 0 -131 1 -85 23 -85 24 -62 28 -62 27 -48 33 -48 32 -17 18 -17 18 -21
33 -20 33 0 55 0 55 24 50 23 50 39 38 39 39 45 22 45 23 54 13 54 13 72 -6
73 -5 63 -27 64 -27 50 -20 50 -20 46 -1 46 -1 30 22 30 21 22 50 21 50 11
106 12 107 -12 301 -11 302 0 102 0 102 -17 5 -18 4 -110 26 -110 25 -135 25
-135 25 -97 10 -97 11 -73 -1 -73 -2 -25 -4z"/>
</g>
</svg>
