<?xml version="1.0" standalone="no"?>
<!DOCTYPE svg PUBLIC "-//W3C//DTD SVG 20010904//EN"
 "http://www.w3.org/TR/2001/REC-SVG-20010904/DTD/svg10.dtd">
<svg version="1.0" xmlns="http://www.w3.org/2000/svg"
 width="339.000000pt" height="281.000000pt" viewBox="0 0 339.000000 281.000000"
 preserveAspectRatio="xMidYMid meet">
<metadata>
Created by potrace 1.16, written by Peter Selinger 2001-2019
</metadata>
<g transform="translate(0.000000,281.000000) scale(0.100000,-0.100000)"
fill="#000000" stroke="none">
<path d="M134 2803 l-101 -4 -6 -147 -6 -147 -12 -226 -11 -225 11 -113 11
-112 19 -44 19 -43 20 -11 21 -11 29 0 29 0 64 29 64 28 66 17 65 16 57 0 58
0 33 -14 34 -14 40 -36 40 -36 21 -49 20 -48 12 -74 12 -74 -6 -105 -5 -105
-17 -75 -17 -75 -29 -62 -30 -62 -28 -21 -29 -20 -21 0 -20 0 -15 29 -15 29
-32 11 -32 11 -38 0 -37 0 -32 -26 -31 -27 -19 -37 -19 -37 -20 -79 -19 -79
-31 -165 -30 -166 -26 -89 -26 -90 -39 -83 -40 -84 0 -13 0 -12 238 -14 237
-14 235 0 235 0 46 13 46 14 27 24 26 25 0 33 0 34 -41 86 -41 86 -5 62 -5 63
16 65 17 65 29 52 30 53 38 34 37 35 50 28 50 28 85 0 85 0 56 -18 56 -17 61
-40 60 -40 35 -53 36 -52 17 -62 17 -63 -12 -53 -12 -54 -31 -64 -32 -64 0
-57 -1 -56 21 -29 21 -28 59 -24 59 -25 185 -4 185 -4 218 16 217 16 15 0 15
0 0 18 0 19 -49 129 -49 129 -37 122 -36 123 -25 117 -24 118 -6 105 -7 105
12 53 11 53 22 29 21 29 29 10 29 10 107 -33 107 -34 70 -12 71 -12 99 4 100
4 51 23 51 22 41 42 41 42 17 40 17 40 5 90 4 90 -11 74 -12 75 -19 43 -19 44
-14 13 -13 13 -31 17 -32 16 -73 0 -73 0 -65 -19 -65 -19 -68 -26 -68 -25 -23
9 -24 9 -20 28 -20 29 -17 62 -16 62 -6 128 -6 127 18 313 17 314 -5 4 -4 4
-72 -15 -72 -15 -117 -15 -117 -14 -205 -16 -205 -15 -108 -16 -109 -15 -56
-21 -57 -21 -27 -28 -28 -27 0 -61 0 -61 20 -17 20 -18 20 -17 20 -18 0 -37 0
-38 -21 -44 -20 -45 -50 -48 -50 -48 -27 -14 -27 -13 -35 -7 -35 -6 -141 9
-141 10 -42 17 -42 16 -9 19 -10 18 0 18 0 18 34 55 34 55 12 63 13 62 -5 68
-5 67 -21 42 -22 42 -27 26 -28 26 -38 20 -39 20 -76 21 -77 21 -250 2 -250 2
-101 -4z"/>
</g>
</svg>
