<?xml version="1.0" standalone="no"?>
<!DOCTYPE svg PUBLIC "-//W3C//DTD SVG 20010904//EN"
 "http://www.w3.org/TR/2001/REC-SVG-20010904/DTD/svg10.dtd">
<svg version="1.0" xmlns="http://www.w3.org/2000/svg"
 width="337.000000pt" height="279.000000pt" viewBox="0 0 337.000000 279.000000"
 preserveAspectRatio="xMidYMid meet">
<metadata>
Created by potrace 1.16, written by Peter Selinger 2001-2019
</metadata>
<g transform="translate(0.000000,279.000000) scale(0.100000,-0.100000)"
fill="#000000" stroke="none">
<path d="M134 2783 l-101 -4 -6 -147 -6 -147 -12 -218 -11 -217 11 -111 11
-110 19 -44 19 -43 20 -11 21 -11 19 0 19 0 64 29 64 28 66 17 65 16 67 0 68
0 33 -14 34 -14 40 -36 40 -36 21 -49 20 -48 12 -74 12 -74 -6 -115 -5 -115
-17 -75 -17 -75 -29 -62 -30 -62 -28 -21 -29 -20 -31 0 -30 0 -15 29 -15 29
-32 11 -32 11 -28 0 -27 0 -32 -26 -31 -27 -19 -37 -19 -37 -20 -79 -19 -79
-31 -165 -30 -166 -26 -89 -26 -90 -40 -84 -39 -84 2 -2 3 -2 311 -18 311 -18
159 6 159 5 37 13 37 14 25 22 26 23 0 24 0 24 -42 87 -41 86 -5 72 -4 72 16
65 17 65 29 52 30 53 38 34 37 35 50 28 50 28 95 0 95 0 56 -18 56 -17 61 -40
60 -40 36 -53 36 -52 17 -67 17 -67 -12 -57 -12 -58 -32 -65 -31 -66 -1 -47
-1 -46 21 -29 21 -28 59 -24 59 -25 170 -4 170 -4 235 17 235 17 4 3 3 4 -55
148 -55 148 -32 110 -32 109 -24 116 -24 115 -7 115 -6 115 12 53 11 53 22 30
22 29 36 11 35 10 110 -34 110 -35 71 -12 71 -13 89 5 89 5 51 22 51 22 41 42
41 42 17 40 16 40 5 80 5 80 -11 74 -12 75 -19 43 -19 44 -14 13 -13 13 -31
17 -32 16 -63 0 -63 0 -65 -19 -65 -19 -70 -26 -69 -27 -28 6 -28 7 -24 31
-24 32 -16 60 -16 60 -6 150 -6 150 16 285 16 285 0 11 0 12 -66 -14 -65 -14
-117 -15 -117 -14 -205 -16 -205 -15 -108 -16 -109 -15 -56 -21 -57 -21 -27
-28 -28 -27 0 -51 0 -51 20 -17 20 -18 20 -17 20 -18 0 -47 0 -48 -21 -44 -20
-45 -50 -48 -50 -48 -27 -14 -27 -14 -40 -6 -40 -7 -146 10 -146 10 -42 17
-42 16 -9 19 -10 18 0 28 0 28 34 55 34 55 12 63 13 63 -6 58 -5 57 -21 42
-21 41 -27 26 -28 26 -38 20 -39 20 -76 21 -77 21 -240 2 -240 2 -101 -4z"/>
</g>
</svg>
