<?xml version="1.0" standalone="no"?>
<!DOCTYPE svg PUBLIC "-//W3C//DTD SVG 20010904//EN"
 "http://www.w3.org/TR/2001/REC-SVG-20010904/DTD/svg10.dtd">
<svg version="1.0" xmlns="http://www.w3.org/2000/svg"
 width="415.000000pt" height="310.000000pt" viewBox="0 0 415.000000 310.000000"
 preserveAspectRatio="xMidYMid meet">
<metadata>
Created by potrace 1.16, written by Peter Selinger 2001-2019
</metadata>
<g transform="translate(0.000000,310.000000) scale(0.100000,-0.100000)"
fill="#000000" stroke="none">
<path d="M2390 3093 l-25 -4 -47 -15 -47 -15 -26 -30 -25 -31 0 -39 0 -39 35
-89 35 -90 11 -72 11 -72 -7 -56 -6 -56 -15 -55 -16 -54 -25 -49 -24 -49 -40
-43 -41 -44 -44 -17 -44 -17 -120 12 -120 11 -55 21 -55 20 -20 26 -20 26 0
36 0 36 34 70 35 70 15 77 16 77 0 61 0 61 -11 44 -11 45 -39 44 -40 45 -52
19 -52 20 -80 12 -80 13 -345 -7 -345 -7 -9 -9 -9 -9 12 -183 11 -183 0 -130
0 -130 -10 -90 -10 -90 -20 -66 -19 -65 -23 -34 -23 -34 -31 -18 -32 -19 -38
15 -39 14 -65 28 -65 28 -62 4 -61 4 -39 -12 -38 -13 -37 -39 -37 -40 -21 -54
-20 -55 -11 -99 -12 -99 12 -119 11 -120 21 -68 21 -67 28 -29 28 -28 36 0 35
0 34 35 35 36 32 9 33 9 31 -14 31 -15 23 -34 24 -35 19 -60 18 -61 45 -242
45 -243 26 -88 26 -89 25 -56 25 -57 11 -26 12 -26 164 -6 165 -7 193 0 193 0
78 11 78 10 68 24 68 23 35 27 35 27 26 40 27 40 4 82 4 82 -11 56 -12 55 -25
34 -24 33 -11 40 -11 39 13 44 12 44 43 48 43 48 63 28 63 28 66 1 66 1 49
-33 49 -34 42 -61 41 -62 20 -41 20 -40 26 -80 26 -80 15 -78 15 -78 0 -61 0
-62 -11 -38 -10 -38 -19 -19 -18 -18 -11 -21 -11 -20 0 -61 0 -62 28 -28 29
-28 44 -13 44 -12 110 0 110 1 115 20 115 21 110 32 110 31 127 49 126 50 5
12 5 13 -24 199 -23 200 -12 138 -12 138 6 112 5 112 17 54 17 54 28 29 28 28
47 0 46 0 39 -40 39 -40 70 0 70 0 79 25 79 25 59 38 59 39 43 44 42 43 25 50
25 50 0 110 0 111 -14 56 -13 57 -27 46 -27 46 -51 29 -52 30 -70 12 -71 12
-113 -12 -113 -11 -101 -22 -101 -21 -19 -19 -18 -18 -10 0 -10 0 0 63 0 62
20 225 20 225 11 229 10 228 -5 14 -5 14 -25 0 -24 0 -214 35 -214 35 -134 15
-135 15 -115 -1 -115 -2 -25 -4z"/>
</g>
</svg>
