<?xml version="1.0" standalone="no"?>
<!DOCTYPE svg PUBLIC "-//W3C//DTD SVG 20010904//EN"
 "http://www.w3.org/TR/2001/REC-SVG-20010904/DTD/svg10.dtd">
<svg version="1.0" xmlns="http://www.w3.org/2000/svg"
 width="413.000000pt" height="308.000000pt" viewBox="0 0 413.000000 308.000000"
 preserveAspectRatio="xMidYMid meet">
<metadata>
Created by potrace 1.16, written by Peter Selinger 2001-2019
</metadata>
<g transform="translate(0.000000,308.000000) scale(0.100000,-0.100000)"
fill="#000000" stroke="none">
<path d="M2390 3073 l-25 -4 -47 -15 -47 -15 -26 -30 -25 -31 0 -29 0 -29 35
-89 35 -90 11 -72 11 -73 -7 -68 -6 -69 -16 -52 -15 -52 -25 -48 -24 -49 -40
-43 -41 -44 -45 -17 -45 -17 -128 11 -128 11 -56 21 -56 21 -20 26 -20 26 0
46 0 46 34 70 35 70 15 77 16 77 0 51 0 51 -11 44 -11 45 -39 44 -40 45 -52
19 -52 20 -80 12 -80 12 -335 -6 -335 -7 -8 -9 -9 -8 11 -170 11 -170 0 -144
0 -143 -10 -90 -10 -90 -20 -66 -19 -65 -24 -35 -23 -34 -35 -19 -36 -19 -44
15 -44 16 -65 28 -65 27 -51 5 -52 4 -38 -12 -39 -13 -37 -39 -37 -40 -21 -54
-20 -54 -11 -95 -11 -94 11 -115 11 -115 21 -67 21 -67 28 -29 28 -28 25 0 25
0 39 39 40 38 37 7 36 7 33 -16 32 -15 23 -34 24 -35 19 -60 18 -61 45 -242
45 -243 26 -88 26 -89 25 -56 25 -57 11 -26 12 -26 164 -6 165 -7 183 0 183 0
78 11 78 10 68 24 68 23 35 27 35 27 26 39 26 40 5 72 4 73 -11 54 -12 55 -28
43 -29 43 -7 40 -7 41 12 44 13 45 43 48 43 48 63 28 63 29 76 0 76 1 49 -33
49 -34 42 -61 41 -62 20 -41 20 -40 26 -80 26 -80 15 -78 15 -78 0 -71 0 -72
-11 -38 -10 -38 -19 -19 -18 -18 -11 -21 -11 -20 0 -51 0 -52 28 -28 29 -28
44 -13 44 -12 100 0 100 1 116 21 116 21 119 34 119 35 114 45 114 45 7 10 6
11 -23 192 -22 193 -12 138 -12 138 6 122 5 122 17 54 17 54 28 29 28 28 57 0
56 0 39 -40 39 -40 60 0 60 0 79 25 79 25 59 38 59 39 43 44 42 43 25 50 25
50 0 100 0 101 -14 56 -13 57 -27 46 -27 46 -51 29 -52 30 -70 12 -69 11 -106
-11 -106 -12 -99 -21 -99 -21 -25 -24 -25 -24 -11 4 -11 4 -3 68 -3 68 21 234
20 235 11 220 10 220 -5 6 -6 5 -22 3 -23 3 -215 35 -216 36 -134 15 -135 15
-105 -1 -105 -2 -25 -4z"/>
</g>
</svg>
