<?xml version="1.0" standalone="no"?>
<!DOCTYPE svg PUBLIC "-//W3C//DTD SVG 20010904//EN"
 "http://www.w3.org/TR/2001/REC-SVG-20010904/DTD/svg10.dtd">
<svg version="1.0" xmlns="http://www.w3.org/2000/svg"
 width="344.000000pt" height="297.000000pt" viewBox="0 0 344.000000 297.000000"
 preserveAspectRatio="xMidYMid meet">
<metadata>
Created by potrace 1.16, written by Peter Selinger 2001-2019
</metadata>
<g transform="translate(0.000000,297.000000) scale(0.100000,-0.100000)"
fill="#000000" stroke="none">
<path d="M806 2963 l-69 -4 7 -112 7 -112 9 -179 9 -178 -10 -123 -9 -123 -20
-65 -20 -66 -32 -26 -31 -26 -26 6 -26 6 -25 20 -25 20 -44 21 -44 20 -64 -5
-63 -5 -72 -35 -73 -35 -49 -48 -49 -49 -33 -70 -34 -70 -11 -76 -11 -77 16
-55 16 -55 46 -51 46 -51 71 -35 72 -36 55 -14 55 -15 90 -6 90 -6 70 15 70
15 60 27 59 27 38 6 37 5 35 -35 34 -34 12 -59 13 -60 -6 -95 -6 -95 -16 -78
-15 -78 -21 -82 -21 -82 -30 -95 -30 -95 -50 -123 -50 -124 8 -8 9 -9 315 -6
315 -7 85 11 85 12 52 25 53 25 28 35 29 35 12 38 11 38 0 102 0 102 -21 107
-21 107 -24 25 -23 25 -10 27 -10 27 22 32 22 33 45 22 45 23 70 17 70 16 101
5 102 6 46 -22 46 -23 40 -46 41 -46 29 -60 29 -61 20 -75 21 -75 7 -86 6 -85
-12 -70 -12 -69 -30 -70 -30 -70 -5 -45 -5 -45 18 -34 18 -35 37 -19 38 -19
76 -10 77 -10 118 11 118 11 128 26 128 26 155 45 155 45 35 11 35 10 -3 1380
-2 1381 -5 4 -4 5 -113 -31 -113 -31 -75 -15 -75 -15 -230 -31 -230 -31 -78
-19 -79 -19 -41 -23 -40 -23 -21 -27 -20 -28 1 -48 1 -48 16 -30 17 -29 24
-40 25 -40 0 -40 0 -40 -19 -40 -19 -40 -33 -32 -34 -32 -56 -25 -56 -26 -59
-6 -60 -6 -89 11 -90 12 -50 15 -50 14 -55 33 -55 33 -19 35 -19 35 7 27 7 28
29 30 29 31 8 46 8 47 -1 75 -1 75 -23 52 -22 53 -45 41 -45 41 -62 28 -62 28
-74 17 -75 16 -215 3 -215 3 -69 -4z"/>
</g>
</svg>
