<?xml version="1.0" standalone="no"?>
<!DOCTYPE svg PUBLIC "-//W3C//DTD SVG 20010904//EN"
 "http://www.w3.org/TR/2001/REC-SVG-20010904/DTD/svg10.dtd">
<svg version="1.0" xmlns="http://www.w3.org/2000/svg"
 width="342.000000pt" height="295.000000pt" viewBox="0 0 342.000000 295.000000"
 preserveAspectRatio="xMidYMid meet">
<metadata>
Created by potrace 1.16, written by Peter Selinger 2001-2019
</metadata>
<g transform="translate(0.000000,295.000000) scale(0.100000,-0.100000)"
fill="#000000" stroke="none">
<path d="M806 2943 l-69 -4 7 -97 7 -97 9 -190 9 -189 -9 -127 -10 -127 -20
-65 -20 -66 -32 -26 -32 -27 -35 6 -36 5 -25 21 -25 21 -44 21 -44 20 -55 -5
-54 -6 -72 -34 -71 -35 -49 -48 -49 -49 -33 -70 -33 -70 -11 -69 -11 -68 16
-53 15 -53 46 -51 46 -52 82 -38 81 -39 48 -11 49 -12 76 -5 77 -6 70 15 70
15 60 28 60 27 47 5 48 4 34 -34 34 -34 12 -59 13 -60 -6 -105 -6 -105 -16
-80 -15 -80 -30 -110 -29 -110 -35 -100 -35 -100 -34 -82 -35 -83 6 -4 7 -4
305 -7 305 -7 85 11 85 12 52 25 53 25 28 35 29 35 12 38 11 38 0 92 0 92 -21
107 -21 107 -24 25 -23 26 -11 31 -11 31 15 30 16 30 27 20 28 19 43 16 42 17
86 15 87 15 80 0 81 0 43 -21 43 -21 40 -46 41 -46 29 -60 29 -61 23 -80 22
-80 0 -135 0 -135 -28 -75 -28 -75 -15 -43 -16 -43 12 -39 12 -39 27 -19 27
-19 40 -14 40 -13 120 1 120 0 123 22 123 21 132 35 132 34 105 33 105 33 -3
1374 -2 1373 -18 -7 -17 -7 -131 -33 -132 -33 -188 -26 -189 -27 -104 -15
-105 -16 -60 -19 -61 -19 -32 -19 -32 -20 -17 -26 -16 -25 0 -39 1 -40 16 -28
16 -28 24 -40 25 -40 0 -50 0 -50 -19 -40 -19 -40 -33 -32 -34 -32 -57 -26
-57 -26 -68 -6 -68 -6 -90 12 -90 12 -48 14 -48 14 -56 32 -55 32 -19 31 -19
31 0 30 0 30 20 33 20 32 9 0 10 0 12 43 12 42 0 80 0 80 -22 52 -23 53 -45
41 -45 41 -62 28 -62 28 -74 17 -75 16 -205 3 -205 3 -69 -4z"/>
</g>
</svg>
