<?xml version="1.0" standalone="no"?>
<!DOCTYPE svg PUBLIC "-//W3C//DTD SVG 20010904//EN"
 "http://www.w3.org/TR/2001/REC-SVG-20010904/DTD/svg10.dtd">
<svg version="1.0" xmlns="http://www.w3.org/2000/svg"
 width="342.000000pt" height="296.000000pt" viewBox="0 0 342.000000 296.000000"
 preserveAspectRatio="xMidYMid meet">
<metadata>
Created by potrace 1.16, written by Peter Selinger 2001-2019
</metadata>
<g transform="translate(0.000000,296.000000) scale(0.100000,-0.100000)"
fill="#000000" stroke="none">
<path d="M2457 2950 l-38 -10 -29 -15 -30 -15 -16 -25 -16 -25 4 -60 4 -60 27
-28 26 -27 10 -28 11 -28 0 -55 0 -55 -26 -77 -25 -77 -31 -48 -30 -47 -49
-44 -48 -43 -38 -18 -38 -18 -48 -5 -47 -5 -63 13 -62 12 -55 26 -55 26 -55
55 -55 56 -27 55 -26 55 -12 58 -12 58 7 52 7 52 19 51 19 50 25 34 25 34 0
23 0 22 -21 12 -21 11 -107 0 -106 -1 -215 -17 -215 -17 -164 -1 -163 -1 6
-185 7 -185 20 -275 19 -275 0 -80 0 -80 -9 -13 -8 -13 -13 16 -14 17 -45 23
-46 23 -53 11 -53 11 -58 0 -58 0 -54 -10 -54 -10 -71 -35 -72 -35 -55 -60
-55 -59 -17 -51 -17 -51 3 -78 4 -78 38 -57 38 -57 47 -30 47 -30 54 -16 55
-15 52 5 52 5 28 17 29 16 34 24 34 25 29 0 30 0 33 -33 33 -33 16 -55 16 -54
10 -90 10 -90 0 -310 0 -310 7 -112 6 -111 51 5 52 5 174 -11 175 -12 299 -30
299 -30 41 3 41 3 3 17 3 17 -19 19 -20 20 -15 68 -16 69 -12 75 -11 75 5 130
5 130 16 60 17 60 34 72 34 73 46 44 45 44 45 18 45 17 44 -5 44 -5 45 -22 44
-22 42 -42 42 -42 32 -65 32 -65 0 -95 0 -95 -37 -81 -38 -82 0 -46 0 -47 15
-29 15 -30 48 -23 47 -24 45 -11 45 -11 100 -10 100 -11 223 -15 223 -15 107
-17 107 -16 20 -1 20 -1 8 280 8 280 -4 225 -4 225 -21 65 -21 66 -31 29 -30
29 -48 0 -47 -1 -85 -37 -85 -38 -57 -5 -56 -6 -37 7 -37 7 -43 40 -44 41 -18
46 -18 47 0 190 0 190 14 40 14 39 13 13 13 13 19 0 20 0 48 -33 49 -34 75
-18 75 -19 80 0 80 0 35 18 35 18 23 22 24 21 18 35 17 35 14 55 14 55 -2 408
-1 409 -5 4 -4 5 -144 29 -144 30 -130 21 -130 21 -180 3 -180 4 -38 -9z"/>
</g>
</svg>
