<?xml version="1.0" standalone="no"?>
<!DOCTYPE svg PUBLIC "-//W3C//DTD SVG 20010904//EN"
 "http://www.w3.org/TR/2001/REC-SVG-20010904/DTD/svg10.dtd">
<svg version="1.0" xmlns="http://www.w3.org/2000/svg"
 width="340.000000pt" height="294.000000pt" viewBox="0 0 340.000000 294.000000"
 preserveAspectRatio="xMidYMid meet">
<metadata>
Created by potrace 1.16, written by Peter Selinger 2001-2019
</metadata>
<g transform="translate(0.000000,294.000000) scale(0.100000,-0.100000)"
fill="#000000" stroke="none">
<path d="M2457 2930 l-38 -10 -29 -15 -30 -15 -16 -25 -17 -25 5 -51 5 -50 26
-27 26 -27 10 -28 11 -28 0 -65 0 -65 -26 -77 -25 -77 -31 -48 -30 -47 -49
-44 -48 -43 -38 -19 -38 -18 -58 -4 -58 -4 -62 12 -62 12 -55 26 -55 26 -55
55 -55 56 -27 55 -26 55 -12 59 -12 60 7 59 6 60 20 51 19 52 25 34 25 34 0
13 0 12 -20 11 -21 11 -102 0 -103 0 -204 -17 -205 -16 -169 -1 -168 -2 7
-175 6 -175 20 -275 19 -275 0 -87 0 -86 -6 -16 -6 -16 -13 0 -13 0 -13 16
-13 16 -45 23 -46 23 -53 11 -53 11 -48 0 -48 0 -54 -10 -54 -10 -71 -35 -72
-35 -55 -60 -55 -59 -17 -51 -17 -52 4 -68 4 -68 37 -56 38 -57 47 -30 47 -30
54 -16 54 -15 44 6 43 6 28 15 27 16 34 24 34 25 39 0 40 0 33 -33 33 -33 16
-55 16 -54 10 -90 10 -90 0 -310 0 -310 7 -110 6 -110 161 -2 161 -3 210 -20
210 -20 178 -17 177 -17 11 11 11 11 -20 20 -20 20 -15 68 -16 69 -12 75 -11
75 5 140 5 140 16 60 17 60 34 72 34 73 46 44 45 44 45 17 44 18 54 -5 53 -4
46 -22 45 -23 42 -42 42 -42 32 -65 32 -65 0 -105 0 -105 -37 -81 -38 -82 0
-36 0 -37 15 -29 15 -30 48 -23 47 -24 45 -11 45 -11 100 -10 100 -11 223 -15
223 -15 107 -16 107 -16 10 -1 10 -2 8 280 8 280 -4 215 -4 215 -21 65 -21 66
-30 28 -30 29 -38 0 -39 0 -84 -38 -85 -37 -67 -6 -66 -5 -37 7 -37 7 -43 40
-44 41 -18 46 -18 47 0 200 0 200 14 40 14 39 13 13 13 13 29 0 30 0 48 -33
49 -34 75 -18 75 -18 70 0 70 0 35 18 35 17 23 22 24 21 18 35 17 35 14 55 14
55 -2 398 -1 399 -5 4 -4 5 -144 29 -144 30 -130 21 -130 20 -170 4 -170 4
-38 -9z"/>
</g>
</svg>
