<?xml version="1.0" standalone="no"?>
<!DOCTYPE svg PUBLIC "-//W3C//DTD SVG 20010904//EN"
 "http://www.w3.org/TR/2001/REC-SVG-20010904/DTD/svg10.dtd">
<svg version="1.0" xmlns="http://www.w3.org/2000/svg"
 width="417.000000pt" height="364.000000pt" viewBox="0 0 417.000000 364.000000"
 preserveAspectRatio="xMidYMid meet">
<metadata>
Created by potrace 1.16, written by Peter Selinger 2001-2019
</metadata>
<g transform="translate(0.000000,364.000000) scale(0.100000,-0.100000)"
fill="#000000" stroke="none">
<path d="M1335 3620 l-220 -18 -183 -8 -184 -7 6 -76 6 -76 12 -195 12 -195 0
-220 1 -220 -13 -54 -12 -54 -16 -33 -16 -33 -18 -6 -19 -6 -28 14 -28 15
-105 26 -105 27 -95 6 -95 6 -58 -17 -57 -17 -37 -32 -36 -32 -19 -43 -19 -43
-6 -87 -5 -87 16 -68 16 -68 27 -57 27 -57 57 -58 58 -58 64 -30 64 -29 66 -7
66 -6 45 13 45 12 33 24 32 24 39 11 39 10 36 -19 37 -19 22 -45 23 -44 9 -94
10 -94 -10 -135 -10 -136 -25 -175 -24 -175 -6 -28 -6 -27 94 0 93 0 185 10
185 10 253 26 254 25 3 -3 4 -3 -26 -95 -25 -95 -5 -145 -5 -145 16 -74 16
-74 28 -61 29 -61 39 -42 39 -42 49 -26 49 -25 91 0 91 0 52 14 51 14 48 23
48 24 48 46 47 45 20 45 21 44 0 55 0 55 -20 32 -20 33 -9 0 -9 0 -11 31 -11
32 0 28 0 27 25 31 26 30 56 21 56 21 66 14 66 13 165 21 165 21 123 26 123
25 68 25 68 25 41 87 41 87 26 90 26 89 30 166 31 165 19 79 20 79 19 37 19
37 31 27 32 26 17 0 18 0 32 -11 32 -11 15 -29 15 -29 40 0 41 0 29 20 28 21
30 62 29 62 17 75 17 75 5 125 5 125 -11 74 -12 74 -20 48 -21 49 -40 36 -40
36 -34 14 -33 14 -79 0 -78 0 -70 -18 -69 -19 -63 -28 -63 -28 -25 12 -25 11
-20 44 -19 44 -11 107 -11 107 11 206 12 207 6 161 6 160 -285 19 -286 18
-148 -6 -149 -5 -53 -18 -53 -17 -29 -34 -30 -34 0 -48 0 -49 36 -76 36 -75 5
-59 6 -59 -17 -51 -17 -51 -44 -46 -44 -45 -61 -29 -61 -29 -84 -12 -85 -12
-81 11 -81 11 -45 20 -45 20 -38 41 -39 40 -15 47 -15 47 -7 50 -6 51 12 79
12 80 19 80 20 80 19 27 20 27 0 20 0 19 -31 11 -32 11 -106 -1 -106 -1 -220
-18z"/>
</g>
</svg>
