<?xml version="1.0" standalone="no"?>
<!DOCTYPE svg PUBLIC "-//W3C//DTD SVG 20010904//EN"
 "http://www.w3.org/TR/2001/REC-SVG-20010904/DTD/svg10.dtd">
<svg version="1.0" xmlns="http://www.w3.org/2000/svg"
 width="415.000000pt" height="362.000000pt" viewBox="0 0 415.000000 362.000000"
 preserveAspectRatio="xMidYMid meet">
<metadata>
Created by potrace 1.16, written by Peter Selinger 2001-2019
</metadata>
<g transform="translate(0.000000,362.000000) scale(0.100000,-0.100000)"
fill="#000000" stroke="none">
<path d="M1335 3600 l-220 -18 -183 -8 -183 -7 5 -61 6 -61 12 -200 12 -200 0
-230 1 -230 -13 -54 -12 -54 -16 -34 -16 -33 -25 -6 -24 -6 -37 16 -37 16
-100 25 -100 26 -85 6 -86 6 -57 -17 -57 -17 -37 -32 -36 -32 -19 -42 -19 -42
-5 -78 -6 -78 16 -68 16 -68 27 -57 27 -57 57 -58 58 -58 64 -30 64 -29 64 -6
64 -6 40 15 40 14 38 26 37 25 40 7 40 7 38 -19 37 -20 22 -45 23 -44 10 -98
10 -97 -11 -144 -10 -144 -28 -191 -27 -190 81 0 80 0 190 11 190 10 240 24
240 25 39 0 40 0 -18 -13 -18 -13 -25 -94 -25 -95 -5 -135 -5 -135 16 -74 16
-74 28 -61 29 -61 39 -42 39 -42 49 -26 49 -25 81 0 81 0 52 14 51 14 48 23
48 24 48 46 47 45 20 45 21 44 0 45 0 45 -20 32 -20 33 -9 0 -9 0 -11 31 -11
32 0 38 0 37 25 31 26 30 56 21 56 21 66 14 66 13 165 21 165 21 123 26 123
25 68 25 68 25 41 87 41 87 26 90 26 89 30 166 31 165 19 79 20 79 19 37 19
37 31 27 32 26 27 0 28 0 32 -11 32 -11 15 -29 15 -29 30 0 31 0 29 20 28 21
30 62 29 62 17 75 17 75 5 115 6 115 -12 74 -12 74 -20 48 -21 49 -40 36 -40
36 -34 14 -33 14 -68 0 -67 0 -65 -16 -66 -17 -64 -28 -64 -29 -19 0 -19 0
-21 11 -20 11 -19 43 -19 44 -11 110 -11 111 11 217 12 218 6 146 6 145 -286
19 -286 18 -138 -6 -138 -5 -53 -18 -53 -17 -29 -34 -30 -34 0 -38 0 -39 36
-77 37 -76 5 -68 4 -68 -16 -51 -17 -51 -44 -46 -44 -46 -63 -29 -63 -29 -87
-12 -87 -12 -86 11 -86 11 -45 21 -46 20 -38 41 -39 40 -15 47 -16 47 -6 57
-7 56 12 84 12 83 20 80 20 80 19 27 20 27 0 10 0 9 -31 11 -32 11 -96 -1 -96
-1 -220 -18z"/>
</g>
</svg>
