<?xml version="1.0" standalone="no"?>
<!DOCTYPE svg PUBLIC "-//W3C//DTD SVG 20010904//EN"
 "http://www.w3.org/TR/2001/REC-SVG-20010904/DTD/svg10.dtd">
<svg version="1.0" xmlns="http://www.w3.org/2000/svg"
 width="277.000000pt" height="365.000000pt" viewBox="0 0 277.000000 365.000000"
 preserveAspectRatio="xMidYMid meet">
<metadata>
Created by potrace 1.16, written by Peter Selinger 2001-2019
</metadata>
<g transform="translate(0.000000,365.000000) scale(0.100000,-0.100000)"
fill="#000000" stroke="none">
<path d="M440 3630 l-255 -18 -92 -1 -93 -1 0 -1386 0 -1387 123 7 122 6 242
7 241 6 64 -12 63 -13 41 -23 41 -24 13 -30 12 -30 -7 -23 -7 -23 -37 -75 -36
-75 0 -115 0 -115 22 -48 23 -49 40 -48 40 -48 48 -31 49 -31 59 -22 59 -22
140 0 140 0 59 22 59 22 48 31 48 30 40 47 41 46 16 49 16 49 -4 63 -4 64 -33
42 -34 41 -4 42 -5 41 22 28 22 28 39 19 39 20 65 15 66 16 217 24 217 25 60
11 60 10 78 21 77 20 0 12 0 11 -51 70 -51 70 -39 81 -39 80 -25 75 -26 74
-55 199 -54 199 -28 56 -29 56 -33 23 -33 22 -38 0 -38 0 -27 -10 -27 -11 -34
-29 -34 -30 -33 0 -33 0 -27 21 -27 21 -18 36 -19 37 -16 54 -16 55 -10 111
-11 112 11 68 11 68 16 31 15 31 47 45 47 45 52 18 52 19 79 7 79 7 110 -8
110 -8 128 -25 128 -25 9 -15 8 -15 14 0 14 0 7 37 7 36 -7 121 -7 121 -24
300 -24 300 -6 108 -7 107 -8 0 -8 0 -73 -45 -73 -45 -105 -41 -105 -41 -255
-65 -256 -64 -55 -25 -55 -25 -23 -21 -22 -22 -10 -38 -11 -38 11 -41 12 -42
34 -32 34 -32 0 -16 0 -16 -10 -26 -10 -26 -40 -43 -41 -43 -71 -33 -72 -33
-97 -5 -98 -5 -56 27 -55 28 -35 45 -35 46 -16 51 -15 51 -6 80 -5 80 11 95
12 95 21 95 21 95 14 16 13 16 0 26 0 27 -27 17 -27 18 -206 1 -205 2 -255
-18z"/>
</g>
</svg>
