<?xml version="1.0" standalone="no"?>
<!DOCTYPE svg PUBLIC "-//W3C//DTD SVG 20010904//EN"
 "http://www.w3.org/TR/2001/REC-SVG-20010904/DTD/svg10.dtd">
<svg version="1.0" xmlns="http://www.w3.org/2000/svg"
 width="275.000000pt" height="363.000000pt" viewBox="0 0 275.000000 363.000000"
 preserveAspectRatio="xMidYMid meet">
<metadata>
Created by potrace 1.16, written by Peter Selinger 2001-2019
</metadata>
<g transform="translate(0.000000,363.000000) scale(0.100000,-0.100000)"
fill="#000000" stroke="none">
<path d="M440 3610 l-255 -18 -92 -1 -93 -1 0 -1375 0 -1375 53 0 52 0 150 10
150 10 170 1 170 0 55 -11 55 -12 41 -24 41 -23 13 -31 12 -30 -6 -32 -6 -31
-38 -76 -37 -76 0 -105 0 -105 22 -48 23 -49 40 -48 40 -48 48 -31 49 -31 59
-22 59 -21 130 0 130 0 59 21 59 22 48 31 48 30 40 47 41 46 16 49 16 49 -4
54 -5 54 -33 42 -34 41 -4 51 -4 51 22 28 22 28 39 19 38 20 63 15 63 15 225
25 225 26 95 19 95 19 38 13 37 13 -51 70 -51 70 -39 81 -39 80 -25 75 -26 74
-54 197 -54 198 -28 56 -27 56 -25 19 -24 19 -24 6 -23 6 -35 -6 -35 -7 -35
-30 -34 -30 -32 -9 -33 -10 -35 18 -36 17 -22 34 -23 34 -20 65 -20 64 -11
119 -11 118 11 72 11 71 16 31 16 32 47 45 47 45 52 18 52 19 82 7 83 8 118
-9 118 -8 126 -25 125 -24 13 -18 13 -18 7 39 8 38 -7 112 -7 111 -24 300 -24
300 -6 106 -7 107 -71 -44 -71 -44 -105 -41 -105 -41 -255 -65 -256 -64 -55
-25 -55 -25 -22 -21 -23 -22 -9 -33 -9 -33 10 -37 10 -36 34 -32 34 -32 0 -26
0 -26 -10 -26 -10 -26 -37 -40 -38 -41 -57 -29 -57 -29 -48 -10 -47 -11 -78
-1 -79 0 -54 27 -55 27 -35 45 -35 46 -16 51 -15 51 -6 90 -5 90 11 95 12 95
21 95 21 95 14 16 13 16 0 16 0 17 -27 17 -27 18 -196 1 -195 2 -255 -18z"/>
</g>
</svg>
