<?xml version="1.0" standalone="no"?>
<!DOCTYPE svg PUBLIC "-//W3C//DTD SVG 20010904//EN"
 "http://www.w3.org/TR/2001/REC-SVG-20010904/DTD/svg10.dtd">
<svg version="1.0" xmlns="http://www.w3.org/2000/svg"
 width="348.000000pt" height="294.000000pt" viewBox="0 0 348.000000 294.000000"
 preserveAspectRatio="xMidYMid meet">
<metadata>
Created by potrace 1.16, written by Peter Selinger 2001-2019
</metadata>
<g transform="translate(0.000000,294.000000) scale(0.100000,-0.100000)"
fill="#000000" stroke="none">
<path d="M1150 2920 l-255 -18 -77 -1 -77 -1 2 -297 2 -298 -14 -75 -14 -74
-19 -56 -19 -55 -32 -53 -32 -53 -44 -29 -43 -29 -47 -7 -46 -7 -63 11 -62 10
-35 31 -35 31 -25 6 -24 6 -36 -12 -35 -12 -29 -42 -30 -43 -20 -60 -20 -60
-11 -109 -11 -110 11 -69 11 -70 28 -60 29 -60 36 -42 36 -41 52 -26 52 -26
50 0 51 0 32 20 33 20 0 8 0 9 25 11 26 12 38 0 38 0 27 -21 27 -21 18 -36 18
-37 11 -45 11 -45 10 -95 11 -95 10 -215 11 -215 14 -106 14 -107 -5 -18 -5
-19 218 -5 218 -5 200 1 200 0 70 13 70 12 64 21 64 21 42 38 42 39 13 45 13
45 -6 51 -6 51 -41 87 -40 88 0 37 0 37 15 29 15 29 32 24 33 24 35 14 35 14
75 0 75 -1 55 -28 54 -28 51 -52 51 -52 36 -70 36 -69 16 -54 16 -55 0 -42 0
-43 -11 -28 -10 -28 -27 -21 -26 -21 -4 -69 -4 -69 21 -27 21 -26 45 -22 46
-22 103 -5 103 -6 114 12 114 12 170 34 170 35 65 18 65 17 -3 430 -3 430 -10
90 -9 90 -16 54 -16 55 -33 33 -33 33 -49 0 -48 0 -34 -23 -34 -22 -25 -17
-25 -17 -38 -6 -38 -7 -53 16 -53 15 -47 30 -47 30 -37 56 -38 57 -4 58 -4 58
17 51 17 52 55 59 55 60 72 36 73 35 72 12 73 11 69 -12 70 -12 48 -24 47 -24
13 -16 13 -16 23 0 23 0 6 16 6 16 0 96 0 97 -19 275 -20 275 -6 174 -7 173
-52 -7 -51 -7 -370 -8 -370 -9 -67 -15 -66 -15 -29 -14 -28 -15 -21 -24 -22
-23 -7 -23 -7 -24 7 -45 6 -44 26 -22 25 -22 15 -29 15 -28 -7 -36 -7 -35 -24
-48 -25 -47 -47 -41 -47 -42 -51 -25 -52 -25 -54 -6 -54 -5 -51 22 -51 22 -29
31 -28 32 -33 50 -33 50 -21 70 -22 70 0 75 -1 75 27 46 27 46 15 13 16 12 0
35 0 34 -37 17 -38 16 -200 2 -200 2 -255 -18z"/>
</g>
</svg>
