<?xml version="1.0" standalone="no"?>
<!DOCTYPE svg PUBLIC "-//W3C//DTD SVG 20010904//EN"
 "http://www.w3.org/TR/2001/REC-SVG-20010904/DTD/svg10.dtd">
<svg version="1.0" xmlns="http://www.w3.org/2000/svg"
 width="346.000000pt" height="292.000000pt" viewBox="0 0 346.000000 292.000000"
 preserveAspectRatio="xMidYMid meet">
<metadata>
Created by potrace 1.16, written by Peter Selinger 2001-2019
</metadata>
<g transform="translate(0.000000,292.000000) scale(0.100000,-0.100000)"
fill="#000000" stroke="none">
<path d="M1150 2900 l-255 -18 -79 -1 -78 -1 7 -232 7 -233 -11 -110 -11 -111
-15 -59 -15 -60 -31 -62 -30 -62 -31 -31 -30 -31 -31 -16 -31 -16 -61 -5 -60
-4 -57 11 -56 12 -18 21 -19 20 -28 15 -28 14 -35 -11 -34 -12 -29 -42 -30
-43 -20 -59 -20 -60 -10 -103 -11 -103 10 -67 11 -66 28 -60 29 -60 36 -42 36
-41 52 -26 52 -26 40 0 41 0 33 20 32 20 0 9 0 9 30 12 31 13 39 0 39 0 26
-17 26 -17 20 -32 19 -32 10 -35 11 -35 14 -110 14 -110 11 -215 10 -215 16
-122 15 -123 -4 -7 -5 -8 101 -1 102 0 310 -5 310 -4 65 13 65 13 64 21 64 21
42 38 42 39 13 45 13 45 -7 42 -7 43 -39 86 -40 86 0 47 0 47 15 29 15 29 32
24 33 24 35 14 35 14 85 0 85 0 55 -29 54 -28 51 -52 51 -52 36 -70 36 -69 16
-54 16 -55 0 -52 0 -53 -11 -28 -10 -28 -26 -21 -27 -21 -4 -59 -4 -59 21 -27
21 -26 45 -22 45 -22 98 -5 97 -5 110 11 110 12 170 34 170 35 65 18 65 17 -3
420 -3 420 -10 90 -9 90 -16 54 -16 55 -33 33 -33 33 -40 0 -39 0 -34 -25 -34
-24 -27 -16 -28 -15 -43 -6 -44 -6 -54 15 -54 16 -47 30 -47 30 -38 57 -37 56
-4 68 -4 68 17 52 17 51 55 59 55 60 72 35 71 35 54 10 54 10 48 0 48 0 53
-11 53 -11 46 -23 45 -23 13 -16 13 -16 13 0 13 0 6 16 6 16 0 86 0 87 -19
275 -20 275 -6 173 -7 174 -36 -7 -36 -7 -375 -8 -376 -9 -67 -15 -67 -15 -23
-12 -23 -11 -27 -26 -27 -25 -6 -28 -6 -27 10 -39 10 -38 20 -12 20 -13 17
-32 16 -31 -6 -43 -6 -44 -25 -49 -26 -49 -47 -41 -47 -42 -52 -26 -53 -25
-63 -5 -63 -5 -51 22 -51 22 -29 31 -28 32 -33 50 -33 50 -22 70 -21 70 -1 85
0 85 27 46 27 46 15 13 16 12 0 25 0 24 -37 17 -38 16 -190 2 -190 2 -255 -18z"/>
</g>
</svg>
