<?xml version="1.0" standalone="no"?>
<!DOCTYPE svg PUBLIC "-//W3C//DTD SVG 20010904//EN"
 "http://www.w3.org/TR/2001/REC-SVG-20010904/DTD/svg10.dtd">
<svg version="1.0" xmlns="http://www.w3.org/2000/svg"
 width="433.000000pt" height="371.000000pt" viewBox="0 0 433.000000 371.000000"
 preserveAspectRatio="xMidYMid meet">
<metadata>
Created by potrace 1.16, written by Peter Selinger 2001-2019
</metadata>
<g transform="translate(0.000000,371.000000) scale(0.100000,-0.100000)"
fill="#000000" stroke="none">
<path d="M814 3683 l5 -28 7 -250 7 -250 -1 -122 -1 -121 -17 -74 -16 -73 -44
-42 -44 -43 -54 0 -53 0 -46 14 -47 14 -30 26 -31 25 -41 12 -42 11 -45 -7
-46 -7 -40 -20 -40 -20 -43 -35 -43 -35 -29 -51 -30 -52 -21 -65 -20 -65 -1
-81 -2 -81 27 -55 27 -55 49 -46 49 -46 71 -35 71 -36 83 -20 82 -20 100 0
100 0 60 14 60 15 55 25 55 26 41 0 40 0 26 -28 26 -27 13 -40 13 -40 -1 -100
-1 -100 -26 -125 -25 -125 -41 -129 -42 -129 -44 -104 -44 -103 0 -20 0 -20
323 6 322 7 100 -12 99 -13 65 -20 64 -20 37 -23 37 -23 26 -31 26 -32 7 -34
6 -34 -36 -133 -35 -133 -12 -85 -11 -85 7 -57 6 -58 14 -32 13 -33 37 -32 36
-32 37 -11 37 -11 90 -5 90 -6 75 16 74 16 55 27 55 28 44 45 45 45 20 44 19
44 5 57 6 58 -27 53 -27 54 -15 28 -16 29 -1 35 -1 35 41 38 41 38 68 22 69
21 195 35 195 35 100 25 100 25 76 30 77 29 20 18 20 18 -44 219 -44 220 -19
140 -20 140 -6 100 -7 100 12 70 11 70 18 35 18 35 34 19 34 19 80 -32 80 -32
60 -15 60 -14 90 0 90 0 63 15 62 15 53 26 52 27 32 25 33 24 31 55 31 55 -4
121 -5 122 -16 42 -16 43 -13 16 -13 16 -25 25 -25 26 -42 19 -43 19 -85 11
-85 12 -115 -12 -114 -12 -113 -21 -113 -22 -17 -15 -18 -15 -1 24 -1 24 2 55
1 55 20 240 20 240 8 205 8 205 -5 13 -4 12 -1355 0 -1355 0 6 -27z"/>
</g>
</svg>
