<?xml version="1.0" standalone="no"?>
<!DOCTYPE svg PUBLIC "-//W3C//DTD SVG 20010904//EN"
 "http://www.w3.org/TR/2001/REC-SVG-20010904/DTD/svg10.dtd">
<svg version="1.0" xmlns="http://www.w3.org/2000/svg"
 width="431.000000pt" height="369.000000pt" viewBox="0 0 431.000000 369.000000"
 preserveAspectRatio="xMidYMid meet">
<metadata>
Created by potrace 1.16, written by Peter Selinger 2001-2019
</metadata>
<g transform="translate(0.000000,369.000000) scale(0.100000,-0.100000)"
fill="#000000" stroke="none">
<path d="M826 3373 l11 -318 -8 -110 -8 -110 -16 -52 -15 -52 -42 -35 -42 -36
-61 0 -62 0 -46 14 -47 14 -30 26 -31 25 -40 11 -39 11 -38 -7 -37 -7 -40 -20
-40 -19 -43 -35 -43 -35 -29 -51 -30 -52 -21 -65 -20 -65 -1 -72 -1 -73 27
-54 26 -53 49 -46 49 -46 71 -35 71 -36 83 -20 82 -20 90 0 90 0 60 14 60 15
55 25 55 26 51 0 50 0 26 -27 26 -28 13 -40 13 -40 -1 -110 -1 -110 -25 -125
-26 -125 -41 -129 -42 -129 -44 -104 -44 -103 0 -10 0 -10 323 7 322 6 100
-12 99 -13 65 -20 64 -20 36 -23 36 -23 22 -23 22 -24 10 -28 11 -28 0 -29 0
-28 -34 -123 -34 -124 -11 -90 -12 -89 6 -50 7 -49 13 -31 13 -31 37 -32 36
-32 37 -11 37 -11 80 -5 80 -6 75 16 74 16 55 27 55 28 44 45 45 45 19 43 19
42 6 49 6 49 -27 53 -27 54 -16 30 -16 29 -1 44 -1 43 41 39 42 38 68 22 69
21 195 35 195 35 100 25 100 25 75 30 76 29 19 16 20 16 -42 211 -43 212 -19
140 -20 140 -7 105 -6 105 11 75 12 75 18 35 18 35 35 20 36 19 49 -16 48 -17
75 -27 75 -27 100 -4 100 -5 68 16 67 16 53 26 52 27 32 25 33 24 31 55 31 55
-5 111 -5 112 -15 42 -16 43 -13 16 -13 16 -25 25 -25 26 -42 19 -42 18 -81
12 -81 11 -111 -12 -111 -12 -111 -21 -111 -21 -22 -20 -23 -20 -7 7 -7 6 2
88 2 87 21 240 21 240 7 195 7 195 -4 13 -4 12 -1342 0 -1341 0 11 -317z"/>
</g>
</svg>
