<?xml version="1.0" standalone="no"?>
<!DOCTYPE svg PUBLIC "-//W3C//DTD SVG 20010904//EN"
 "http://www.w3.org/TR/2001/REC-SVG-20010904/DTD/svg10.dtd">
<svg version="1.0" xmlns="http://www.w3.org/2000/svg"
 width="409.000000pt" height="450.000000pt" viewBox="0 0 409.000000 450.000000"
 preserveAspectRatio="xMidYMid meet">
<metadata>
Created by potrace 1.16, written by Peter Selinger 2001-2019
</metadata>
<g transform="translate(0.000000,450.000000) scale(0.100000,-0.100000)"
fill="#000000" stroke="none">
<path d="M1913 4481 l-41 -19 -42 -42 -42 -42 -34 -71 -33 -72 -18 -65 -18
-65 0 -190 1 -190 22 -94 22 -94 15 -24 15 -23 -24 0 -24 0 -293 30 -294 29
-175 11 -175 12 -60 -4 -60 -3 2 -75 1 -75 11 -230 11 -230 -9 -117 -10 -118
-17 -61 -17 -62 -37 -38 -37 -39 -23 0 -23 0 -91 42 -91 43 -76 0 -75 0 -42
-27 -41 -28 -25 -43 -25 -42 -17 -65 -18 -65 1 -130 0 -130 20 -62 21 -63 31
-49 32 -49 35 -27 34 -26 35 -15 34 -14 45 0 45 0 28 11 28 10 26 25 26 24 33
10 33 9 33 -15 34 -16 24 -52 25 -51 11 -80 11 -80 -3 -384 -3 -384 210 8 210
7 175 6 175 7 77 -6 77 -7 38 -18 38 -19 13 -28 13 -28 -16 -52 -17 -52 -28
-45 -28 -45 -11 -40 -11 -40 0 -52 0 -51 19 -61 19 -62 42 -55 42 -55 51 -33
52 -33 45 -18 45 -18 115 -4 115 -5 75 16 75 16 54 27 55 27 33 32 33 33 0 44
0 44 -18 16 -19 17 -11 0 -10 0 -12 35 -12 35 7 29 6 28 27 26 27 26 55 25 56
25 179 44 180 44 78 22 77 22 86 35 86 34 69 45 70 45 9 0 9 0 30 98 30 97 20
105 20 105 26 205 26 205 15 74 15 73 23 52 23 52 28 22 28 22 27 0 28 0 78
-41 79 -42 50 0 50 -1 23 12 22 13 26 40 25 41 16 71 15 72 -5 205 -6 205 -11
47 -11 47 -23 33 -22 33 -46 3 -46 3 -35 -30 -34 -31 -64 -17 -64 -17 -90 -1
-90 0 -47 28 -47 28 -25 42 -25 42 -18 65 -18 65 3 376 2 377 -23 6 -23 5
-101 15 -100 16 -224 15 -224 15 -100 11 -100 10 -45 11 -45 11 -47 24 -48 23
-15 30 -15 29 0 27 0 26 38 82 37 81 0 115 0 115 -32 65 -32 65 -42 42 -42 42
-46 23 -46 23 -70 3 -70 3 -42 -20z"/>
</g>
</svg>
