<?xml version="1.0" standalone="no"?>
<!DOCTYPE svg PUBLIC "-//W3C//DTD SVG 20010904//EN"
 "http://www.w3.org/TR/2001/REC-SVG-20010904/DTD/svg10.dtd">
<svg version="1.0" xmlns="http://www.w3.org/2000/svg"
 width="407.000000pt" height="448.000000pt" viewBox="0 0 407.000000 448.000000"
 preserveAspectRatio="xMidYMid meet">
<metadata>
Created by potrace 1.16, written by Peter Selinger 2001-2019
</metadata>
<g transform="translate(0.000000,448.000000) scale(0.100000,-0.100000)"
fill="#000000" stroke="none">
<path d="M1913 4461 l-41 -19 -42 -42 -42 -42 -34 -71 -33 -72 -17 -60 -16
-60 -5 -140 -5 -140 11 -75 12 -75 16 -69 15 -68 20 -20 20 -20 -11 -11 -11
-11 -177 17 -178 17 -210 20 -210 20 -160 3 -160 2 1 -60 2 -60 11 -245 12
-245 -10 -117 -10 -118 -17 -61 -17 -62 -37 -38 -37 -39 -33 0 -33 0 -91 42
-91 43 -66 0 -65 0 -42 -27 -41 -28 -25 -43 -25 -42 -17 -65 -17 -65 0 -120 0
-120 20 -62 21 -63 31 -49 32 -49 35 -27 34 -26 35 -15 34 -14 35 0 35 0 27
10 27 11 32 28 33 28 36 7 36 7 35 -17 35 -16 24 -52 25 -51 11 -80 11 -80 -3
-384 -3 -384 195 7 195 7 186 8 187 7 80 -7 81 -7 38 -18 38 -19 14 -30 14
-29 -12 -46 -12 -45 -19 -37 -20 -38 -21 -39 -20 -39 -6 -56 -6 -56 18 -66 18
-65 43 -60 44 -59 53 -33 52 -34 45 -18 45 -18 105 -4 105 -5 75 16 75 16 54
27 55 27 33 32 33 33 0 34 0 34 -18 16 -19 17 -11 0 -11 0 -12 39 -12 39 7 34
6 34 28 27 27 26 55 25 56 25 179 44 180 44 78 22 77 22 86 35 86 34 69 45 70
45 9 0 9 0 30 98 30 97 20 105 20 105 26 205 26 205 15 74 15 73 23 52 23 52
28 22 28 22 37 0 38 0 78 -41 77 -41 41 0 42 -1 22 12 22 12 26 40 25 41 16
71 15 72 -5 195 -6 195 -11 47 -11 47 -23 33 -22 33 -36 3 -36 3 -35 -30 -34
-31 -64 -17 -64 -18 -100 0 -100 0 -47 28 -47 28 -25 42 -25 42 -18 65 -18 65
2 376 3 377 -23 6 -23 5 -101 15 -100 16 -224 15 -224 15 -100 11 -100 10 -45
11 -45 11 -47 24 -48 23 -15 30 -15 29 0 37 0 36 38 82 37 81 0 105 0 105 -32
65 -32 65 -42 42 -42 42 -46 23 -46 22 -60 3 -60 4 -42 -20z"/>
</g>
</svg>
