<?xml version="1.0" standalone="no"?>
<!DOCTYPE svg PUBLIC "-//W3C//DTD SVG 20010904//EN"
 "http://www.w3.org/TR/2001/REC-SVG-20010904/DTD/svg10.dtd">
<svg version="1.0" xmlns="http://www.w3.org/2000/svg"
 width="282.000000pt" height="356.000000pt" viewBox="0 0 282.000000 356.000000"
 preserveAspectRatio="xMidYMid meet">
<metadata>
Created by potrace 1.16, written by Peter Selinger 2001-2019
</metadata>
<g transform="translate(0.000000,356.000000) scale(0.100000,-0.100000)"
fill="#000000" stroke="none">
<path d="M1234 3540 l-61 -20 -47 -41 -47 -42 -26 -51 -27 -51 -4 -91 -4 -92
17 -53 18 -54 29 -60 28 -60 0 -33 0 -33 -25 -25 -25 -25 -35 -15 -35 -14 -99
-10 -99 -11 -319 16 -318 15 -72 0 -71 0 -7 -104 -7 -105 5 -238 4 -238 21
-76 20 -76 23 -49 23 -49 46 -46 46 -46 49 -16 49 -17 77 0 77 0 50 12 50 11
13 24 13 25 17 8 16 9 18 -19 17 -19 15 -58 14 -58 5 -160 6 -160 -15 -72 -16
-73 -26 -52 -26 -53 -41 -37 -40 -37 -28 -6 -29 -6 -23 12 -23 12 -26 27 -26
28 -49 8 -48 7 -35 -19 -36 -19 -23 -43 -24 -42 -18 -93 -19 -92 -15 -190 -16
-190 -11 -95 -10 -95 -20 -93 -20 -92 5 -9 5 -8 123 -7 123 -7 210 0 210 -1
90 12 90 12 77 24 77 25 43 32 43 33 21 32 22 32 7 49 7 50 -12 58 -12 58 -23
27 -23 27 -12 37 -12 37 5 49 6 49 32 60 33 61 39 33 39 34 37 17 36 18 61 4
61 4 59 -17 59 -17 48 -26 49 -26 48 -53 49 -53 22 -58 22 -57 0 -58 0 -58
-37 -72 -38 -72 -5 -55 -4 -55 20 -32 20 -32 42 -21 41 -21 67 -15 66 -14 316
-15 317 -15 43 -9 44 -9 23 -7 22 -7 0 26 0 26 39 237 40 238 17 165 16 165
-5 115 -5 115 -17 45 -16 45 -26 27 -27 28 -51 0 -52 0 -63 -42 -63 -43 -71 1
-71 2 -60 22 -60 23 -58 39 -57 39 -28 41 -27 42 0 60 0 61 28 57 28 57 51 46
50 45 62 29 61 30 68 11 69 12 50 -6 50 -7 51 -19 50 -19 23 -22 23 -22 15 6
15 6 7 46 6 46 -6 132 -7 132 -19 229 -20 229 -5 121 -6 121 -5 21 -4 22 -16
6 -16 6 -121 15 -122 14 -205 11 -205 11 -85 10 -85 10 -40 9 -40 9 -35 15
-35 14 -23 22 -23 22 -10 26 -10 27 11 44 11 44 24 19 24 18 11 36 12 36 -6
47 -6 46 -25 51 -25 51 -50 47 -51 47 -57 26 -57 27 -75 3 -75 3 -61 -20z"/>
</g>
</svg>
