<?xml version="1.0" standalone="no"?>
<!DOCTYPE svg PUBLIC "-//W3C//DTD SVG 20010904//EN"
 "http://www.w3.org/TR/2001/REC-SVG-20010904/DTD/svg10.dtd">
<svg version="1.0" xmlns="http://www.w3.org/2000/svg"
 width="280.000000pt" height="354.000000pt" viewBox="0 0 280.000000 354.000000"
 preserveAspectRatio="xMidYMid meet">
<metadata>
Created by potrace 1.16, written by Peter Selinger 2001-2019
</metadata>
<g transform="translate(0.000000,354.000000) scale(0.100000,-0.100000)"
fill="#000000" stroke="none">
<path d="M1234 3520 l-61 -20 -47 -41 -47 -42 -26 -51 -26 -51 -5 -81 -4 -82
17 -53 18 -54 29 -60 28 -60 0 -43 0 -43 -25 -25 -25 -25 -35 -15 -35 -14 -92
-10 -93 -10 -392 17 -393 17 -7 -8 -8 -8 0 -326 1 -327 21 -76 21 -76 23 -49
23 -49 46 -46 46 -46 49 -16 49 -17 67 0 67 0 50 11 49 12 17 28 16 28 21 6
21 7 20 -20 20 -20 15 -58 14 -59 6 -170 5 -170 -15 -72 -16 -73 -26 -52 -26
-53 -41 -37 -41 -38 -33 -6 -32 -6 -23 7 -22 7 -33 33 -33 33 -40 7 -41 7 -33
-19 -32 -19 -23 -42 -24 -42 -18 -93 -19 -92 -21 -250 -21 -250 -15 -85 -15
-85 -9 -34 -9 -34 4 -7 4 -7 118 -7 118 -7 206 0 206 0 89 12 89 11 77 24 77
25 43 32 43 33 21 32 22 31 6 44 7 43 -12 55 -12 54 -22 27 -23 27 -12 37 -13
37 6 58 5 57 33 62 33 62 39 33 39 34 37 17 36 18 71 4 72 4 58 -17 59 -17 48
-26 49 -26 48 -53 49 -53 22 -58 22 -57 1 -67 0 -67 -38 -72 -37 -73 -5 -45
-5 -46 20 -32 20 -32 42 -21 41 -21 67 -15 66 -14 316 -15 317 -15 48 -9 49
-10 6 7 6 7 41 255 42 255 16 155 16 155 -5 110 -6 110 -16 45 -16 45 -26 27
-27 28 -41 0 -42 0 -63 -42 -63 -43 -81 1 -81 1 -60 23 -60 23 -58 39 -57 39
-28 41 -27 42 0 70 0 71 28 57 28 57 51 46 50 45 62 29 61 30 69 12 69 12 58
-6 58 -7 52 -19 52 -20 23 -22 23 -22 8 19 8 19 -2 145 -2 145 -20 240 -21
240 -5 120 -6 120 -5 21 -4 22 -16 6 -16 6 -121 15 -122 14 -205 11 -205 11
-85 10 -85 10 -40 9 -40 9 -35 15 -36 15 -27 26 -27 27 -6 33 -6 32 12 43 12
43 24 19 24 19 11 39 12 39 -12 48 -12 48 -24 41 -24 40 -46 43 -46 43 -56 25
-56 26 -66 3 -66 4 -61 -20z"/>
</g>
</svg>
