<?xml version="1.0" standalone="no"?>
<!DOCTYPE svg PUBLIC "-//W3C//DTD SVG 20010904//EN"
 "http://www.w3.org/TR/2001/REC-SVG-20010904/DTD/svg10.dtd">
<svg version="1.0" xmlns="http://www.w3.org/2000/svg"
 width="376.000000pt" height="372.000000pt" viewBox="0 0 376.000000 372.000000"
 preserveAspectRatio="xMidYMid meet">
<metadata>
Created by potrace 1.16, written by Peter Selinger 2001-2019
</metadata>
<g transform="translate(0.000000,372.000000) scale(0.100000,-0.100000)"
fill="#000000" stroke="none">
<path d="M2179 3710 l-46 -8 -54 -26 -54 -26 -44 -41 -43 -42 -39 -60 -39 -60
-27 -81 -26 -81 -1 -105 -1 -105 14 -40 13 -40 29 -46 29 -46 0 -20 0 -20 -17
-15 -18 -15 -40 -14 -40 -13 -165 1 -165 1 -219 16 -219 16 -64 0 -64 0 5 -32
5 -33 6 -110 6 -110 15 -229 16 -229 -3 -118 -4 -118 -16 -16 -15 -16 -28 22
-27 22 -77 24 -77 25 -110 1 -110 1 -60 -13 -60 -13 -83 -38 -83 -39 -57 -58
-58 -58 -30 -60 -29 -60 0 -141 0 -140 38 -76 37 -77 39 -31 39 -30 44 -20 43
-19 69 -12 70 -12 99 7 99 6 91 20 92 20 62 21 63 20 19 -6 19 -6 25 -25 25
-25 17 -64 18 -65 -6 -137 -6 -138 -16 -100 -16 -100 -36 -165 -36 -165 -1
-25 -1 -25 170 -7 170 -7 180 -16 180 -15 150 -15 150 -15 47 0 46 0 16 6 16
6 0 14 0 15 -19 27 -20 27 -21 100 -20 100 -9 90 -9 89 9 63 9 64 24 47 24 47
19 17 19 17 49 22 49 22 88 5 87 5 63 -13 62 -12 48 -24 48 -24 27 -42 28 -42
-1 -75 0 -76 -37 -96 -37 -97 0 -55 0 -56 33 -34 32 -35 55 -18 55 -19 466 0
466 0 31 95 31 95 30 122 30 122 17 133 17 133 -6 97 -5 98 -21 44 -22 43 -19
18 -19 17 -43 5 -43 5 -125 -43 -125 -42 -80 -1 -80 0 -52 23 -53 23 -41 45
-41 44 -23 52 -22 52 -12 53 -11 53 0 93 0 92 15 51 15 50 35 47 36 46 52 27
52 26 82 5 83 5 92 -22 93 -22 35 -19 35 -19 22 -12 22 -12 24 7 25 6 6 22 6
23 0 140 0 140 -15 205 -15 205 -6 202 -7 202 -66 10 -66 10 -50 6 -50 5 -235
10 -235 10 -65 11 -65 10 -48 15 -48 16 -30 26 -31 25 -9 26 -10 25 6 38 7 39
30 28 29 27 10 43 9 42 -10 62 -10 62 -34 71 -35 70 -41 46 -40 46 -48 31 -48
30 -40 14 -39 15 -60 5 -60 5 -46 -8z"/>
</g>
</svg>
