<?xml version="1.0" standalone="no"?>
<!DOCTYPE svg PUBLIC "-//W3C//DTD SVG 20010904//EN"
 "http://www.w3.org/TR/2001/REC-SVG-20010904/DTD/svg10.dtd">
<svg version="1.0" xmlns="http://www.w3.org/2000/svg"
 width="374.000000pt" height="370.000000pt" viewBox="0 0 374.000000 370.000000"
 preserveAspectRatio="xMidYMid meet">
<metadata>
Created by potrace 1.16, written by Peter Selinger 2001-2019
</metadata>
<g transform="translate(0.000000,370.000000) scale(0.100000,-0.100000)"
fill="#000000" stroke="none">
<path d="M2179 3690 l-46 -8 -54 -26 -54 -26 -44 -41 -43 -42 -39 -60 -39 -60
-27 -81 -26 -81 -1 -95 -1 -95 14 -40 13 -40 29 -46 29 -46 0 -30 0 -30 -17
-15 -18 -15 -40 -14 -40 -13 -175 1 -175 1 -219 16 -219 16 -51 0 -51 0 7
-127 8 -128 15 -220 15 -220 -1 -125 -1 -125 -7 -24 -6 -24 -17 -10 -16 -11
-39 26 -38 26 -70 22 -70 22 -100 1 -100 0 -60 -12 -60 -13 -83 -38 -83 -39
-57 -58 -58 -58 -30 -60 -29 -60 0 -131 0 -130 38 -76 37 -77 39 -31 39 -30
44 -20 43 -19 69 -12 69 -12 90 7 90 7 71 15 71 14 87 26 86 27 25 -6 24 -7
25 -25 26 -26 17 -64 18 -65 -6 -147 -6 -148 -16 -100 -16 -100 -36 -165 -35
-165 -2 -15 -1 -15 170 -7 170 -7 180 -16 180 -15 150 -15 150 -15 40 0 40 0
14 9 13 9 -20 28 -21 29 -20 95 -20 95 -10 100 -10 100 9 68 10 68 24 47 24
47 19 17 19 17 49 22 50 22 97 5 98 5 62 -13 62 -12 48 -24 48 -24 27 -42 28
-41 3 -71 3 -71 -37 -100 -37 -100 -4 -56 -5 -56 34 -35 33 -36 55 -18 55 -19
457 0 456 0 36 115 36 115 25 105 24 105 16 118 15 118 0 63 0 63 -10 54 -10
54 -28 40 -28 40 -37 9 -37 9 -127 -43 -128 -44 -90 0 -90 0 -52 23 -53 23
-41 45 -41 44 -23 52 -22 52 -12 53 -11 53 0 103 0 102 15 51 15 50 35 47 36
46 52 27 52 27 88 4 88 4 62 -12 62 -12 59 -19 58 -20 28 -20 28 -21 20 6 20
7 6 22 6 22 0 130 0 130 -15 205 -15 205 -6 202 -7 202 -66 10 -66 10 -50 6
-50 5 -235 10 -235 10 -65 11 -65 10 -48 15 -49 16 -33 30 -34 29 -6 30 -7 29
7 41 7 40 30 27 29 28 9 38 9 39 -10 56 -9 56 -34 71 -35 70 -41 46 -40 46
-48 31 -48 30 -39 14 -40 14 -50 5 -50 6 -46 -8z"/>
</g>
</svg>
