<?xml version="1.0" standalone="no"?>
<!DOCTYPE svg PUBLIC "-//W3C//DTD SVG 20010904//EN"
 "http://www.w3.org/TR/2001/REC-SVG-20010904/DTD/svg10.dtd">
<svg version="1.0" xmlns="http://www.w3.org/2000/svg"
 width="291.000000pt" height="435.000000pt" viewBox="0 0 291.000000 435.000000"
 preserveAspectRatio="xMidYMid meet">
<metadata>
Created by potrace 1.16, written by Peter Selinger 2001-2019
</metadata>
<g transform="translate(0.000000,435.000000) scale(0.100000,-0.100000)"
fill="#000000" stroke="none">
<path d="M1160 4341 l-85 -8 -37 -12 -37 -12 -26 -30 -25 -31 0 -41 0 -42 31
-85 31 -85 19 -65 19 -65 0 -58 0 -58 -19 -38 -19 -37 -39 -27 -38 -26 -70
-17 -70 -16 -373 6 -372 6 0 -22 0 -23 -21 -230 -20 -230 -5 -240 -6 -240 11
-27 11 -28 18 0 19 0 29 14 29 15 115 21 115 21 125 6 126 6 55 -17 56 -16 41
-40 41 -39 18 -58 17 -58 0 -150 1 -150 -22 -71 -23 -71 -40 -61 -40 -60 -33
-24 -32 -25 -45 -24 -45 -23 -61 -1 -61 0 -61 38 -62 38 -34 6 -34 5 -36 -12
-36 -12 -25 -43 -26 -43 -15 -68 -15 -69 -9 -335 -9 -335 -11 -49 -11 -49 3
-2 3 -2 253 13 253 13 132 10 131 11 91 0 91 0 17 -13 18 -12 -26 -35 -26 -35
-19 -63 -19 -62 -11 -85 -11 -85 10 -79 10 -78 17 -44 18 -44 23 -37 23 -37
33 -34 34 -33 44 -26 44 -26 60 -18 60 -17 80 -1 80 -1 37 8 37 8 53 35 53 36
23 26 23 27 27 40 26 40 22 46 23 46 15 60 15 59 7 69 6 70 -11 73 -11 73 -29
57 -29 57 -6 30 -7 31 23 34 23 35 50 17 50 17 97 1 96 0 117 -20 117 -20 62
-15 61 -16 162 -51 163 -52 4 5 4 4 37 120 36 119 29 146 29 145 11 85 10 84
0 91 0 90 -11 45 -10 44 -16 34 -16 33 -28 14 -28 15 -41 0 -41 0 -34 -14 -35
-15 0 -10 0 -10 -32 -18 -33 -17 -70 1 -70 1 -85 27 -85 27 -62 34 -63 35 -60
55 -59 55 -28 57 -28 57 1 140 2 140 12 64 12 65 18 37 19 37 16 6 17 6 22 0
22 0 45 -28 44 -28 45 -12 45 -11 60 -6 60 -7 58 11 58 10 35 17 35 17 35 35
35 35 24 47 24 46 15 61 16 60 11 104 11 103 -7 242 -7 242 -32 6 -31 6 -350
15 -350 14 -64 16 -64 16 -40 22 -39 22 -14 27 -14 27 0 22 0 23 41 119 41
119 -4 73 -3 72 -28 37 -28 36 -39 20 -39 20 -63 15 -63 15 -165 4 -165 5 -85
-8z"/>
</g>
</svg>
