<?xml version="1.0" standalone="no"?>
<!DOCTYPE svg PUBLIC "-//W3C//DTD SVG 20010904//EN"
 "http://www.w3.org/TR/2001/REC-SVG-20010904/DTD/svg10.dtd">
<svg version="1.0" xmlns="http://www.w3.org/2000/svg"
 width="289.000000pt" height="433.000000pt" viewBox="0 0 289.000000 433.000000"
 preserveAspectRatio="xMidYMid meet">
<metadata>
Created by potrace 1.16, written by Peter Selinger 2001-2019
</metadata>
<g transform="translate(0.000000,433.000000) scale(0.100000,-0.100000)"
fill="#000000" stroke="none">
<path d="M1160 4321 l-85 -8 -37 -12 -37 -12 -26 -30 -25 -31 0 -31 0 -32 31
-85 31 -85 19 -65 19 -65 0 -68 0 -68 -19 -38 -19 -37 -39 -27 -38 -26 -70
-17 -70 -16 -372 6 -373 6 0 -19 0 -20 -21 -243 -22 -243 -1 -237 -1 -237 12
-12 12 -12 33 16 34 16 114 21 115 22 135 5 136 6 56 -17 55 -16 41 -40 41
-39 18 -58 17 -58 1 -160 0 -160 -22 -71 -23 -71 -40 -61 -40 -60 -33 -24 -32
-25 -45 -24 -45 -23 -71 -1 -71 0 -59 37 -60 37 -26 6 -27 7 -36 -12 -35 -12
-25 -43 -26 -43 -15 -68 -15 -69 -9 -330 -9 -330 -7 -44 -7 -44 184 7 184 7
190 15 190 14 101 0 100 0 19 -14 19 -14 -12 -23 -12 -24 -20 -31 -20 -31 -21
-79 -21 -79 0 -105 0 -105 21 -63 22 -64 24 -38 25 -39 33 -34 34 -33 44 -26
44 -26 60 -17 59 -18 71 -1 70 -1 37 8 37 8 53 35 53 36 23 26 23 27 27 40 26
40 22 46 23 46 15 59 15 59 6 61 7 60 -11 73 -11 72 -30 59 -30 58 -6 39 -6
38 24 35 23 35 50 17 50 17 107 1 106 0 119 -20 118 -20 110 -30 110 -29 104
-36 104 -35 3 3 2 2 37 120 36 119 29 146 29 145 11 85 10 84 0 81 0 80 -11
45 -10 44 -16 34 -16 33 -28 14 -28 15 -31 0 -31 0 -34 -14 -35 -15 0 -10 0
-10 -32 -18 -33 -17 -80 1 -80 1 -85 27 -85 27 -62 34 -63 35 -60 55 -59 55
-28 57 -28 57 1 150 2 150 12 64 12 65 18 36 18 36 26 12 25 11 32 -9 32 -10
36 -23 36 -24 50 -11 50 -11 46 -7 45 -6 58 11 57 10 35 17 35 17 35 35 35 35
24 47 24 46 15 60 15 59 11 95 12 95 -7 242 -7 241 -32 6 -31 6 -350 15 -350
14 -64 16 -64 16 -40 22 -39 22 -14 27 -14 27 0 32 0 33 41 119 41 120 -4 62
-4 63 -27 36 -28 36 -39 20 -39 20 -63 15 -63 14 -155 5 -155 4 -85 -7z"/>
</g>
</svg>
