<?xml version="1.0" standalone="no"?>
<!DOCTYPE svg PUBLIC "-//W3C//DTD SVG 20010904//EN"
 "http://www.w3.org/TR/2001/REC-SVG-20010904/DTD/svg10.dtd">
<svg version="1.0" xmlns="http://www.w3.org/2000/svg"
 width="283.000000pt" height="439.000000pt" viewBox="0 0 283.000000 439.000000"
 preserveAspectRatio="xMidYMid meet">
<metadata>
Created by potrace 1.16, written by Peter Selinger 2001-2019
</metadata>
<g transform="translate(0.000000,439.000000) scale(0.100000,-0.100000)"
fill="#000000" stroke="none">
<path d="M1251 4375 l-75 -14 -45 -17 -46 -17 -28 -19 -27 -20 -16 -30 -16
-30 7 -34 6 -34 28 -33 28 -32 22 -107 21 -107 0 -82 0 -82 -11 -38 -12 -38
-29 -35 -28 -35 -53 -25 -52 -25 -85 -11 -85 -12 -320 7 -320 7 -3 -98 -2 -99
-20 -269 -20 -268 0 -138 0 -137 6 -33 7 -32 24 -11 24 -11 42 22 42 22 85 21
85 21 106 5 106 6 51 -17 51 -17 39 -29 40 -29 31 -63 31 -63 9 -84 9 -84 -9
-63 -9 -63 -19 -52 -20 -52 -27 -39 -27 -39 -38 -30 -37 -29 -49 -22 -48 -22
-90 0 -90 0 -60 23 -60 24 -57 20 -57 19 -37 -7 -37 -6 -28 -28 -27 -28 -16
-53 -16 -54 0 -132 0 -133 15 -116 16 -117 29 -136 29 -137 12 -55 12 -55 311
0 311 0 101 -22 101 -23 54 -22 54 -22 47 -29 48 -29 34 -40 35 -40 15 -46 16
-46 0 -45 0 -46 -10 -36 -10 -35 -30 -22 -30 -23 0 -48 0 -49 37 -36 38 -36
55 -22 55 -22 130 0 130 0 59 23 59 23 43 30 43 29 36 42 36 41 25 52 25 52
14 53 15 54 -1 115 0 115 -18 65 -19 65 -23 64 -23 64 20 36 19 36 50 18 50
18 95 -6 95 -5 98 -25 98 -25 91 -35 91 -35 71 -39 71 -38 43 -24 42 -24 10
15 10 15 0 1363 0 1362 -24 0 -23 0 -44 -16 -44 -15 -137 -39 -137 -39 -124
-25 -124 -25 -109 -11 -109 -11 -68 10 -68 10 -37 18 -37 19 -19 38 -18 37 15
42 15 42 28 75 29 75 0 145 0 145 -23 80 -23 80 -29 61 -29 60 -41 46 -40 46
-43 21 -43 21 -100 -1 -99 -1 -74 -13z"/>
</g>
</svg>
