<?xml version="1.0" standalone="no"?>
<!DOCTYPE svg PUBLIC "-//W3C//DTD SVG 20010904//EN"
 "http://www.w3.org/TR/2001/REC-SVG-20010904/DTD/svg10.dtd">
<svg version="1.0" xmlns="http://www.w3.org/2000/svg"
 width="281.000000pt" height="437.000000pt" viewBox="0 0 281.000000 437.000000"
 preserveAspectRatio="xMidYMid meet">
<metadata>
Created by potrace 1.16, written by Peter Selinger 2001-2019
</metadata>
<g transform="translate(0.000000,437.000000) scale(0.100000,-0.100000)"
fill="#000000" stroke="none">
<path d="M1251 4355 l-75 -14 -45 -17 -46 -17 -28 -19 -27 -20 -16 -30 -15
-30 11 -31 11 -31 23 -26 24 -25 21 -107 21 -107 0 -92 0 -92 -11 -38 -12 -38
-29 -35 -28 -35 -53 -25 -52 -25 -85 -12 -85 -11 -320 7 -320 7 -3 -99 -3 -98
-20 -269 -19 -268 0 -128 0 -127 6 -32 7 -32 19 -10 19 -10 27 17 26 17 91 24
90 24 121 6 121 6 51 -17 51 -17 39 -29 40 -29 31 -63 31 -63 10 -89 9 -89 -9
-68 -10 -68 -19 -52 -20 -52 -27 -39 -27 -39 -38 -30 -37 -29 -49 -23 -48 -22
-100 1 -100 0 -60 23 -60 24 -55 19 -55 20 -37 -11 -37 -11 -20 -27 -21 -26
-15 -50 -15 -51 0 -122 0 -123 15 -116 16 -117 29 -136 29 -137 12 -55 12 -55
311 0 311 0 101 -23 101 -22 54 -22 54 -22 47 -29 48 -29 34 -40 35 -40 15
-46 16 -46 0 -55 0 -56 -10 -36 -10 -35 -30 -22 -30 -23 0 -38 0 -39 37 -36
38 -36 55 -22 55 -22 120 0 120 0 59 23 59 23 43 30 43 29 36 42 36 42 29 60
28 60 12 56 13 56 -5 114 -5 114 -27 75 -28 75 -11 46 -10 46 19 34 20 34 49
18 50 18 105 -5 105 -5 98 -26 98 -25 88 -34 87 -34 61 -31 62 -31 47 -30 48
-30 8 13 8 12 0 1353 0 1352 -11 0 -12 0 -96 -31 -96 -31 -132 -34 -132 -34
-123 -21 -123 -22 -120 0 -120 -1 -40 13 -40 14 -27 19 -27 19 -12 39 -12 39
16 43 15 43 28 75 28 75 0 135 0 135 -22 80 -23 80 -29 61 -29 60 -41 46 -40
46 -43 21 -43 21 -90 -1 -89 -1 -74 -13z"/>
</g>
</svg>
