<?xml version="1.0" standalone="no"?>
<!DOCTYPE svg PUBLIC "-//W3C//DTD SVG 20010904//EN"
 "http://www.w3.org/TR/2001/REC-SVG-20010904/DTD/svg10.dtd">
<svg version="1.0" xmlns="http://www.w3.org/2000/svg"
 width="285.000000pt" height="355.000000pt" viewBox="0 0 285.000000 355.000000"
 preserveAspectRatio="xMidYMid meet">
<metadata>
Created by potrace 1.16, written by Peter Selinger 2001-2019
</metadata>
<g transform="translate(0.000000,355.000000) scale(0.100000,-0.100000)"
fill="#000000" stroke="none">
<path d="M1140 3540 l-96 -7 -34 -8 -35 -7 -37 -15 -38 -15 0 -28 0 -29 29
-23 29 -23 16 -77 16 -77 0 -79 0 -78 -15 -51 -15 -50 -41 -47 -41 -47 -39
-20 -39 -19 -67 -18 -68 -17 -322 2 -323 2 0 -107 0 -107 -10 -236 -10 -237
10 -113 10 -113 22 -45 23 -44 28 -21 28 -21 67 0 67 1 55 18 55 18 25 23 25
23 23 11 23 12 27 -6 27 -6 33 -30 34 -30 23 -52 24 -52 17 -65 17 -65 1 -105
1 -105 -28 -60 -28 -60 -32 -33 -32 -34 -27 -14 -27 -14 -16 0 -16 0 -38 39
-39 39 -45 7 -46 7 -35 -12 -36 -11 -19 -26 -20 -25 -20 -53 -20 -53 -15 -114
-15 -113 -16 -210 -16 -210 -20 -136 -20 -137 -9 -33 -10 -34 0 -12 0 -13 51
0 51 0 302 -21 301 -21 120 5 120 5 40 14 39 13 15 27 16 27 -14 33 -13 33
-19 54 -19 54 -16 86 -16 86 4 100 5 101 25 55 25 55 32 37 33 37 63 31 64 31
75 11 74 11 42 -13 43 -13 50 -46 50 -47 28 -60 29 -60 0 -33 0 -33 -15 -29
-15 -29 -20 -14 -20 -14 -12 -55 -12 -56 15 -38 15 -39 49 -32 48 -32 86 -20
86 -20 180 -26 180 -26 90 -15 90 -15 100 -24 100 -24 75 -25 75 -26 11 0 11
0 6 43 5 42 35 165 35 165 16 123 16 124 0 116 0 116 -16 55 -15 56 -12 15
-12 16 -25 17 -24 17 -32 0 -31 0 -56 -19 -57 -20 -92 -20 -93 -20 -85 -6 -85
-7 -65 12 -65 12 -43 19 -44 19 -39 30 -39 31 -37 77 -38 76 0 120 0 121 29
60 30 60 58 58 57 58 83 39 83 38 60 13 60 12 90 -1 90 0 77 -25 77 -24 27
-22 27 -21 22 0 23 0 13 17 14 16 3 141 4 141 -16 220 -16 220 -6 133 -7 132
-12 0 -11 0 -110 -49 -109 -49 -130 -44 -130 -45 -112 -27 -112 -27 -89 -8
-89 -8 -63 9 -63 8 -32 20 -33 20 -12 30 -12 30 12 43 12 42 24 100 24 100 12
111 11 112 -11 81 -12 81 -20 49 -21 48 -42 41 -42 41 -45 17 -45 17 -115 2
-115 3 -95 -8z"/>
</g>
</svg>
