<?xml version="1.0" standalone="no"?>
<!DOCTYPE svg PUBLIC "-//W3C//DTD SVG 20010904//EN"
 "http://www.w3.org/TR/2001/REC-SVG-20010904/DTD/svg10.dtd">
<svg version="1.0" xmlns="http://www.w3.org/2000/svg"
 width="283.000000pt" height="353.000000pt" viewBox="0 0 283.000000 353.000000"
 preserveAspectRatio="xMidYMid meet">
<metadata>
Created by potrace 1.16, written by Peter Selinger 2001-2019
</metadata>
<g transform="translate(0.000000,353.000000) scale(0.100000,-0.100000)"
fill="#000000" stroke="none">
<path d="M1140 3520 l-96 -7 -34 -8 -35 -7 -37 -15 -38 -15 0 -18 0 -19 29
-23 29 -23 16 -77 16 -77 0 -89 0 -88 -15 -51 -15 -50 -41 -47 -41 -47 -39
-20 -39 -19 -67 -18 -68 -17 -322 2 -323 2 0 -112 0 -112 -10 -225 -10 -224
10 -110 10 -110 22 -45 23 -44 28 -21 28 -21 57 1 57 0 55 18 55 19 32 28 32
27 21 7 22 7 31 -6 32 -7 33 -30 34 -30 23 -52 24 -52 17 -65 17 -65 1 -115 1
-115 -28 -60 -28 -60 -32 -33 -32 -34 -27 -14 -27 -14 -26 0 -26 0 -38 39 -38
39 -41 7 -42 7 -37 -19 -38 -18 -28 -56 -28 -56 -14 -79 -14 -79 -10 -120 -11
-120 -15 -180 -15 -180 -20 -116 -19 -115 -7 -17 -6 -17 52 0 52 0 302 -21
301 -21 110 6 110 5 38 11 37 11 17 25 16 25 -22 47 -21 47 -21 80 -21 80 -5
115 -5 115 11 56 12 56 32 54 32 53 42 32 42 32 57 21 56 21 72 7 73 6 38 -13
39 -13 49 -46 50 -46 28 -60 29 -60 0 -45 0 -45 -20 -33 -20 -33 -15 -5 -14
-6 -12 -52 -11 -51 15 -37 16 -37 48 -30 48 -30 85 -20 85 -20 180 -26 180
-26 90 -15 90 -15 100 -24 100 -24 75 -25 75 -26 0 0 1 0 0 18 1 17 36 165 36
165 16 100 16 100 6 148 6 147 -18 65 -17 64 -26 26 -25 25 -24 7 -25 6 -86
-27 -87 -26 -71 -14 -71 -15 -90 -7 -90 -7 -69 12 -69 12 -43 19 -44 20 -39
30 -39 31 -37 77 -38 76 0 130 0 131 29 60 30 60 58 58 57 58 83 39 83 38 60
13 60 12 100 0 100 -1 70 -22 70 -22 38 -26 39 -26 16 11 17 10 6 24 7 24 1
130 1 130 -15 200 -14 200 -7 138 -7 137 -2 0 -1 0 -110 -49 -109 -49 -130
-44 -130 -45 -111 -27 -112 -26 -96 -9 -96 -9 -67 9 -66 9 -32 20 -33 20 -13
31 -12 31 11 47 11 46 25 105 26 105 11 106 12 106 -12 77 -11 78 -21 47 -20
48 -42 41 -42 41 -45 17 -45 16 -105 3 -105 3 -95 -8z"/>
</g>
</svg>
