<?xml version="1.0" standalone="no"?>
<!DOCTYPE svg PUBLIC "-//W3C//DTD SVG 20010904//EN"
 "http://www.w3.org/TR/2001/REC-SVG-20010904/DTD/svg10.dtd">
<svg version="1.0" xmlns="http://www.w3.org/2000/svg"
 width="406.000000pt" height="365.000000pt" viewBox="0 0 406.000000 365.000000"
 preserveAspectRatio="xMidYMid meet">
<metadata>
Created by potrace 1.16, written by Peter Selinger 2001-2019
</metadata>
<g transform="translate(0.000000,365.000000) scale(0.100000,-0.100000)"
fill="#000000" stroke="none">
<path d="M1937 3640 l-37 -10 -49 -24 -48 -25 -40 -45 -40 -46 -13 -45 -13
-45 7 -47 6 -46 20 -31 20 -31 17 -35 17 -35 0 -96 1 -95 -27 -41 -27 -41 -35
-27 -35 -27 -68 -23 -68 -24 -90 -12 -90 -12 -329 7 -329 6 6 -204 7 -204 16
-231 16 -232 -4 -120 -3 -120 -15 -9 -15 -9 -20 14 -20 15 -35 16 -35 15 -85
21 -85 20 -105 -4 -105 -4 -52 -27 -52 -27 -36 -46 -35 -47 -15 -50 -15 -51 0
-112 0 -113 11 -53 12 -53 22 -52 23 -52 41 -44 41 -45 53 -23 52 -24 100 1
100 0 124 43 125 43 30 -9 30 -9 28 -39 28 -40 10 -54 10 -54 0 -53 0 -53 -15
-118 -16 -118 -31 -130 -31 -130 -28 -84 -29 -85 0 -11 0 -12 188 -7 187 -6
230 -7 230 -6 59 13 59 12 28 29 29 30 0 62 0 62 -26 60 -25 60 -24 94 -25 93
0 49 0 50 14 33 14 33 30 21 30 22 58 14 59 14 110 7 110 6 55 -11 54 -10 46
-22 45 -22 53 -53 52 -52 30 -63 30 -63 0 -39 0 -38 -37 -34 -37 -34 -4 -68
-4 -69 28 -30 29 -31 30 -14 30 -15 50 -12 50 -11 110 -10 110 -10 135 0 135
0 140 -10 140 -9 56 -7 56 -6 6 48 7 49 14 80 15 80 21 250 21 250 19 92 18
93 24 42 23 42 32 19 32 18 40 -11 41 -11 10 -19 11 -20 29 -15 29 -15 30 0
30 0 24 9 24 9 36 34 36 33 26 53 26 52 16 73 15 72 -5 180 -6 180 -14 58 -15
58 -17 19 -18 20 -24 0 -24 0 -24 -26 -25 -27 0 -7 0 -7 -51 -11 -51 -12 -57
0 -57 0 -49 17 -49 16 -46 46 -46 46 -23 49 -23 49 -21 76 -22 76 0 333 0 332
-9 0 -8 0 -126 -50 -126 -51 -120 -35 -119 -34 -116 -21 -116 -21 -90 0 -90
-1 -44 12 -44 13 -29 28 -28 28 0 42 0 41 11 20 11 21 18 18 19 19 10 38 11
38 0 82 0 81 -15 78 -15 78 -26 80 -26 80 -20 40 -20 41 -41 62 -42 61 -48 33
-49 33 -66 3 -67 2 -38 -9z"/>
</g>
</svg>
