<?xml version="1.0" standalone="no"?>
<!DOCTYPE svg PUBLIC "-//W3C//DTD SVG 20010904//EN"
 "http://www.w3.org/TR/2001/REC-SVG-20010904/DTD/svg10.dtd">
<svg version="1.0" xmlns="http://www.w3.org/2000/svg"
 width="404.000000pt" height="363.000000pt" viewBox="0 0 404.000000 363.000000"
 preserveAspectRatio="xMidYMid meet">
<metadata>
Created by potrace 1.16, written by Peter Selinger 2001-2019
</metadata>
<g transform="translate(0.000000,363.000000) scale(0.100000,-0.100000)"
fill="#000000" stroke="none">
<path d="M1937 3620 l-37 -10 -49 -24 -48 -25 -40 -45 -40 -46 -13 -44 -12
-44 7 -41 7 -40 29 -43 28 -43 12 -55 11 -54 -4 -73 -5 -72 -26 -40 -26 -39
-35 -27 -35 -27 -68 -23 -68 -24 -90 -12 -90 -12 -329 6 -329 6 7 -202 6 -202
15 -205 15 -205 0 -130 0 -130 -6 -22 -6 -22 -20 -7 -20 -6 -28 21 -28 20 -58
20 -59 19 -62 12 -62 12 -88 -4 -88 -4 -52 -27 -52 -27 -36 -46 -35 -47 -15
-50 -15 -51 0 -102 0 -103 11 -53 12 -53 22 -52 23 -52 41 -44 41 -45 53 -23
52 -23 90 0 90 0 128 44 127 43 37 -9 37 -9 28 -40 28 -40 10 -54 10 -54 0
-63 0 -63 -15 -118 -16 -118 -31 -130 -31 -130 -28 -84 -29 -85 0 -1 0 -2 188
-7 187 -6 220 -6 220 -7 59 13 59 12 28 29 29 30 0 52 0 52 -26 60 -25 60 -24
94 -25 93 0 59 0 60 14 33 14 33 30 21 30 22 58 14 59 15 120 6 120 6 55 -11
54 -10 46 -22 45 -22 53 -53 52 -52 30 -63 30 -63 0 -49 0 -48 -37 -34 -37
-34 -4 -58 -4 -58 28 -31 29 -31 30 -14 30 -15 50 -12 50 -11 110 -10 110 -10
135 0 135 0 146 -10 146 -9 43 -7 43 -7 -6 10 -6 10 9 34 9 34 15 85 15 85 21
250 21 250 19 92 18 93 24 42 23 42 32 19 33 19 41 -7 40 -7 33 -33 33 -33 22
-7 23 -7 32 6 33 6 41 38 41 37 26 53 26 52 16 73 15 72 -5 170 -6 170 -14 59
-15 58 -20 20 -20 20 -21 -7 -21 -6 -16 -28 -17 -28 -49 -12 -50 -11 -67 0
-67 0 -49 17 -49 16 -46 46 -46 46 -23 49 -23 49 -21 76 -21 76 -1 333 0 332
-10 -4 -10 -5 -115 -46 -115 -46 -119 -35 -119 -34 -116 -21 -116 -21 -100 -1
-100 0 -44 12 -44 13 -29 28 -28 28 0 52 0 51 11 20 11 21 18 18 19 19 10 38
11 38 0 72 0 71 -15 78 -15 78 -26 80 -26 80 -20 40 -20 41 -41 62 -42 61 -48
33 -48 33 -57 2 -57 3 -38 -9z"/>
</g>
</svg>
