<?xml version="1.0" standalone="no"?>
<!DOCTYPE svg PUBLIC "-//W3C//DTD SVG 20010904//EN"
 "http://www.w3.org/TR/2001/REC-SVG-20010904/DTD/svg10.dtd">
<svg version="1.0" xmlns="http://www.w3.org/2000/svg"
 width="406.000000pt" height="437.000000pt" viewBox="0 0 406.000000 437.000000"
 preserveAspectRatio="xMidYMid meet">
<metadata>
Created by potrace 1.16, written by Peter Selinger 2001-2019
</metadata>
<g transform="translate(0.000000,437.000000) scale(0.100000,-0.100000)"
fill="#000000" stroke="none">
<path d="M1928 4356 l-56 -12 -56 -37 -56 -37 -44 -59 -43 -59 -26 -64 -25
-63 -12 -63 -13 -62 5 -106 5 -105 40 -80 41 -79 -14 -15 -15 -14 -37 -11 -37
-10 -140 0 -140 0 -270 20 -270 20 -50 0 -50 0 -11 -8 -11 -7 8 -140 9 -140
19 -240 20 -240 6 -112 7 -111 -7 -42 -7 -41 -18 16 -18 16 -53 20 -53 21 -66
5 -67 6 -69 -12 -69 -12 -61 -30 -62 -29 -50 -45 -51 -46 -28 -57 -28 -57 0
-81 0 -80 27 -42 28 -41 57 -39 58 -39 60 -23 60 -23 91 -1 91 -1 63 43 63 42
32 0 31 0 27 -28 26 -27 16 -45 16 -45 6 -95 5 -95 -16 -165 -17 -165 -40
-240 -39 -240 -6 -26 -5 -26 318 1 318 1 65 -18 65 -18 50 -23 50 -23 36 -34
37 -34 22 -45 23 -45 5 -79 5 -79 -13 -71 -12 -71 -18 -20 -18 -20 -16 -32
-16 -32 0 -21 0 -21 10 -19 10 -18 32 -13 33 -12 215 -4 215 -4 32 20 32 20
32 43 32 43 29 63 29 63 21 87 21 87 1 120 1 120 -14 40 -14 40 -17 25 -18 25
-12 41 -12 41 15 30 16 30 38 19 38 19 140 -1 140 -1 105 -22 105 -22 138 -39
138 -40 134 -50 133 -50 12 0 11 0 -3 467 -3 468 14 55 14 55 18 35 17 36 34
18 35 19 35 -12 36 -12 6 -23 6 -23 25 -11 26 -12 49 0 48 0 60 19 60 18 70
47 69 46 39 56 39 57 0 116 0 116 -28 61 -28 61 -44 41 -44 41 -43 22 -43 23
-105 4 -105 4 -68 -16 -68 -16 -54 -26 -55 -25 -10 6 -9 6 -11 37 -10 37 -6
110 -6 110 17 240 16 240 6 144 6 144 -24 -7 -24 -6 -180 -22 -180 -22 -215 0
-215 -1 -48 14 -48 14 -35 33 -34 34 0 33 0 34 21 59 20 59 19 80 20 80 0 86
0 87 -17 52 -17 52 -44 49 -45 50 -38 20 -39 19 -58 14 -57 14 -70 6 -70 5
-57 -13z"/>
</g>
</svg>
