<?xml version="1.0" standalone="no"?>
<!DOCTYPE svg PUBLIC "-//W3C//DTD SVG 20010904//EN"
 "http://www.w3.org/TR/2001/REC-SVG-20010904/DTD/svg10.dtd">
<svg version="1.0" xmlns="http://www.w3.org/2000/svg"
 width="404.000000pt" height="435.000000pt" viewBox="0 0 404.000000 435.000000"
 preserveAspectRatio="xMidYMid meet">
<metadata>
Created by potrace 1.16, written by Peter Selinger 2001-2019
</metadata>
<g transform="translate(0.000000,435.000000) scale(0.100000,-0.100000)"
fill="#000000" stroke="none">
<path d="M1928 4336 l-56 -12 -56 -37 -56 -37 -44 -59 -43 -59 -26 -64 -25
-63 -12 -63 -13 -62 5 -96 5 -96 42 -82 42 -82 -6 -16 -6 -15 -27 -14 -27 -13
-145 -4 -145 -4 -322 22 -321 23 -24 -6 -23 -6 7 -128 7 -128 21 -255 22 -255
1 -140 2 -140 -8 -19 -8 -19 -23 22 -23 22 -52 20 -52 19 -58 7 -58 6 -69 -12
-69 -12 -61 -30 -62 -29 -50 -45 -51 -46 -28 -57 -28 -57 0 -71 0 -70 27 -42
28 -41 57 -39 58 -39 60 -23 60 -23 81 -1 81 -1 63 42 63 43 42 0 41 0 27 -28
26 -27 16 -45 16 -45 6 -100 6 -101 -17 -169 -17 -170 -43 -256 -42 -256 316
1 315 1 65 -18 65 -18 50 -23 50 -23 36 -34 37 -34 20 -40 20 -40 7 -35 8 -35
-1 -69 -2 -69 -11 -61 -12 -61 -17 -20 -18 -20 -17 -34 -17 -33 7 -25 6 -24
37 -17 37 -16 205 -4 205 -3 32 20 32 20 32 43 32 43 29 63 29 63 21 87 21 87
1 110 1 110 -14 40 -14 40 -18 26 -18 26 -13 46 -12 46 16 34 16 34 38 18 38
18 63 6 62 7 92 -8 92 -8 101 -21 101 -20 135 -39 136 -38 119 -45 120 -45 18
-7 18 -7 -3 473 -3 474 13 45 13 45 16 38 16 37 32 20 32 20 20 0 20 0 31 -11
30 -10 6 -23 6 -23 25 -11 26 -12 39 0 38 0 60 19 60 18 70 47 69 46 39 56 39
57 0 106 -1 106 -27 61 -28 61 -44 41 -44 41 -43 22 -43 23 -92 4 -92 4 -73
-16 -73 -16 -56 -29 -56 -28 -16 9 -16 9 -11 37 -11 37 -5 120 -6 120 17 240
16 240 6 134 6 134 -11 -7 -12 -7 -182 -21 -183 -22 -225 0 -225 -1 -48 14
-48 14 -35 33 -34 34 0 43 0 44 21 59 20 59 19 80 20 80 0 76 0 77 -17 52 -17
52 -44 49 -45 50 -38 20 -39 19 -58 14 -57 14 -60 5 -60 5 -57 -12z"/>
</g>
</svg>
