<?xml version="1.0" standalone="no"?>
<!DOCTYPE svg PUBLIC "-//W3C//DTD SVG 20010904//EN"
 "http://www.w3.org/TR/2001/REC-SVG-20010904/DTD/svg10.dtd">
<svg version="1.0" xmlns="http://www.w3.org/2000/svg"
 width="347.000000pt" height="430.000000pt" viewBox="0 0 347.000000 430.000000"
 preserveAspectRatio="xMidYMid meet">
<metadata>
Created by potrace 1.16, written by Peter Selinger 2001-2019
</metadata>
<g transform="translate(0.000000,430.000000) scale(0.100000,-0.100000)"
fill="#000000" stroke="none">
<path d="M1284 4289 l-51 -8 -46 -20 -46 -20 -45 -41 -45 -42 -17 -44 -17 -44
5 -58 6 -58 36 -70 36 -69 12 -62 11 -62 -17 -46 -18 -45 -45 -35 -45 -34 -74
-17 -74 -16 -153 -2 -152 -1 -261 9 -261 8 -7 -43 -6 -44 -6 -275 -7 -275 12
-108 12 -107 20 -77 19 -78 31 -50 30 -50 39 -23 39 -22 40 0 40 0 83 30 83
30 78 16 79 16 40 -6 40 -7 41 -20 41 -21 17 -22 18 -21 21 -43 20 -42 11 -74
11 -73 -11 -119 -11 -119 -16 -55 -16 -54 -39 -40 -39 -39 -47 7 -47 6 -52 30
-53 30 -46 10 -46 10 -39 -10 -39 -10 -30 -37 -30 -37 -21 -60 -21 -61 -45
-220 -45 -220 -25 -85 -25 -85 -51 -104 -51 -103 14 -9 14 -10 270 8 270 8
160 -1 160 -1 53 -12 54 -11 47 -21 48 -20 24 -42 23 -42 0 -51 -1 -50 -18
-55 -18 -54 -23 -47 -24 -47 -10 -48 -11 -48 6 -45 7 -44 42 -41 42 -42 65
-17 66 -18 114 4 114 4 55 26 55 25 51 41 51 41 51 75 50 75 23 58 22 58 5 87
4 88 -16 25 -16 25 -15 0 -14 0 -12 41 -12 40 9 27 9 26 34 23 34 23 41 12 41
12 125 0 125 -1 115 -17 115 -17 139 -30 139 -29 5 0 5 0 -6 43 -5 42 -26 110
-26 110 -22 125 -22 125 0 175 -1 175 25 50 25 50 37 18 36 18 54 -19 53 -19
60 -24 60 -23 110 0 110 -1 48 22 49 23 37 29 38 30 27 39 27 39 20 52 19 52
10 72 11 72 -11 95 -10 95 -31 63 -31 63 -40 29 -39 29 -51 17 -51 17 -131 -6
-131 -6 -90 -24 -90 -24 -21 -13 -21 -13 -15 6 -15 5 -7 32 -6 32 0 118 0 118
19 268 19 269 7 103 6 102 -14 0 -14 0 -121 -55 -120 -54 -135 -45 -134 -45
-125 -26 -126 -25 -83 0 -84 0 -39 11 -39 11 -29 28 -28 28 0 37 0 38 37 91
38 91 0 155 0 155 -33 93 -32 94 -27 45 -26 45 -49 49 -48 48 -52 16 -52 15
-30 -1 -31 -1 -51 -9z"/>
</g>
</svg>
