<?xml version="1.0" standalone="no"?>
<!DOCTYPE svg PUBLIC "-//W3C//DTD SVG 20010904//EN"
 "http://www.w3.org/TR/2001/REC-SVG-20010904/DTD/svg10.dtd">
<svg version="1.0" xmlns="http://www.w3.org/2000/svg"
 width="345.000000pt" height="428.000000pt" viewBox="0 0 345.000000 428.000000"
 preserveAspectRatio="xMidYMid meet">
<metadata>
Created by potrace 1.16, written by Peter Selinger 2001-2019
</metadata>
<g transform="translate(0.000000,428.000000) scale(0.100000,-0.100000)"
fill="#000000" stroke="none">
<path d="M1284 4269 l-51 -8 -46 -20 -46 -20 -45 -41 -45 -42 -17 -44 -17 -44
6 -49 6 -49 36 -69 36 -69 11 -66 12 -66 -13 -44 -13 -43 -41 -38 -41 -37 -50
-16 -51 -15 -100 -10 -100 -10 -342 12 -343 12 -5 -5 -6 -6 -9 -143 -10 -144
0 -173 0 -173 11 -95 10 -96 20 -76 19 -77 31 -50 30 -50 39 -23 39 -22 30 0
30 0 83 30 83 30 79 16 79 16 47 -5 47 -6 44 -21 44 -22 26 -36 27 -37 15 -45
15 -46 7 -69 7 -70 -11 -116 -11 -115 -16 -54 -16 -54 -39 -40 -39 -39 -56 6
-55 6 -54 30 -54 31 -41 9 -41 9 -34 -9 -34 -10 -30 -37 -31 -36 -21 -63 -20
-62 -49 -234 -48 -234 -32 -94 -31 -94 -39 -72 -39 -73 24 -6 24 -6 338 12
338 12 90 -7 90 -7 44 -9 44 -10 47 -20 47 -20 24 -42 24 -42 -1 -60 -1 -60
-18 -55 -18 -55 -23 -47 -24 -48 -11 -49 -10 -49 10 -39 11 -40 39 -35 40 -35
64 -18 65 -17 103 4 104 5 55 25 55 25 51 41 51 41 51 75 50 75 23 58 22 58 5
77 5 78 -17 25 -16 25 -14 0 -14 0 -11 31 -11 32 0 31 0 32 16 22 15 22 39 20
38 20 74 11 73 11 100 -6 100 -7 130 -20 130 -20 109 -23 108 -24 -5 32 -6 31
-25 110 -26 110 -21 120 -21 120 -5 165 -6 166 16 55 17 56 20 26 21 27 37 11
37 11 55 -20 55 -19 60 -24 60 -23 100 0 100 -1 48 22 49 23 37 29 38 30 27
39 27 39 20 52 19 52 10 68 9 68 -9 89 -10 89 -31 63 -31 63 -40 29 -39 29
-51 17 -51 17 -121 -6 -121 -6 -90 -24 -91 -24 -26 -17 -27 -17 -19 10 -19 10
-7 32 -6 31 0 128 0 127 20 279 19 279 6 83 5 82 -3 0 -4 0 -121 -55 -120 -54
-135 -45 -134 -45 -125 -26 -126 -25 -93 0 -94 0 -39 11 -39 11 -29 28 -28 28
0 47 0 48 37 91 38 91 0 145 -1 145 -32 93 -32 94 -27 45 -26 45 -49 49 -48
48 -52 16 -52 15 -20 -1 -21 -1 -51 -9z"/>
</g>
</svg>
