<?xml version="1.0" standalone="no"?>
<!DOCTYPE svg PUBLIC "-//W3C//DTD SVG 20010904//EN"
 "http://www.w3.org/TR/2001/REC-SVG-20010904/DTD/svg10.dtd">
<svg version="1.0" xmlns="http://www.w3.org/2000/svg"
 width="433.000000pt" height="357.000000pt" viewBox="0 0 433.000000 357.000000"
 preserveAspectRatio="xMidYMid meet">
<metadata>
Created by potrace 1.16, written by Peter Selinger 2001-2019
</metadata>
<g transform="translate(0.000000,357.000000) scale(0.100000,-0.100000)"
fill="#000000" stroke="none">
<path d="M2088 3557 l-37 -14 -29 -19 -29 -19 -36 -32 -36 -31 -30 -54 -30
-53 -17 -65 -16 -64 4 -82 4 -81 42 -88 42 -87 0 -14 0 -13 -26 -25 -27 -24
-46 -14 -46 -13 -210 0 -210 0 -257 14 -258 15 -7 -8 -7 -7 33 -402 32 -402 9
-141 9 -142 -6 -22 -6 -22 -26 5 -26 4 -120 24 -120 23 -170 0 -170 1 -55 -17
-55 -17 -47 -30 -46 -29 -29 -49 -28 -48 0 -135 0 -135 24 -73 24 -72 38 -44
38 -43 37 -18 37 -17 64 -8 63 -8 69 9 69 8 112 36 112 37 22 -6 21 -6 20 -18
20 -17 17 -40 18 -40 12 -50 12 -50 -2 -405 -3 -405 223 -5 223 -5 215 0 215
1 60 13 60 13 48 25 48 24 19 32 20 32 0 67 0 66 -42 79 -43 78 1 70 1 70 25
55 25 55 41 45 40 46 51 28 51 27 54 6 53 5 46 -20 46 -21 50 -46 50 -47 26
-51 25 -51 0 -27 0 -28 -16 -15 -15 -16 -15 0 -14 0 -10 -26 -10 -25 0 -57 0
-58 15 -21 15 -21 34 -21 34 -21 57 -20 57 -20 276 -46 275 -45 116 -30 116
-31 75 -29 75 -29 11 0 11 0 7 43 7 42 9 330 9 330 15 69 15 68 26 43 25 43
33 11 34 12 19 -7 19 -7 59 -36 59 -36 81 0 81 0 45 24 45 24 32 25 33 24 40
60 40 61 23 71 22 71 0 170 -1 170 -17 58 -18 58 -41 39 -41 40 -55 16 -56 17
-146 -6 -145 -5 -115 -22 -115 -21 -28 -14 -28 -14 -10 27 -11 27 5 205 5 205
22 273 23 272 -6 7 -7 6 -263 -18 -264 -18 -149 5 -149 5 -59 24 -59 24 -21
28 -21 28 1 39 1 39 26 48 25 49 16 54 16 54 0 41 0 41 -16 55 -15 54 -36 52
-35 53 -60 40 -60 40 -52 16 -51 16 -95 4 -95 4 -37 -13z"/>
</g>
</svg>
