<?xml version="1.0" standalone="no"?>
<!DOCTYPE svg PUBLIC "-//W3C//DTD SVG 20010904//EN"
 "http://www.w3.org/TR/2001/REC-SVG-20010904/DTD/svg10.dtd">
<svg version="1.0" xmlns="http://www.w3.org/2000/svg"
 width="431.000000pt" height="355.000000pt" viewBox="0 0 431.000000 355.000000"
 preserveAspectRatio="xMidYMid meet">
<metadata>
Created by potrace 1.16, written by Peter Selinger 2001-2019
</metadata>
<g transform="translate(0.000000,355.000000) scale(0.100000,-0.100000)"
fill="#000000" stroke="none">
<path d="M2088 3537 l-37 -14 -29 -19 -29 -19 -36 -32 -36 -31 -30 -54 -30
-53 -17 -65 -16 -65 4 -72 5 -72 41 -86 42 -87 0 -24 0 -24 -26 -23 -25 -22
-37 -14 -37 -13 -155 -5 -154 -6 -323 18 -323 18 -6 -6 -7 -7 32 -387 32 -388
9 -150 9 -150 -6 -38 -6 -37 -11 9 -11 8 -105 21 -105 21 -99 12 -100 12 -105
-6 -106 -5 -50 -16 -50 -15 -47 -30 -46 -29 -29 -49 -28 -48 0 -125 0 -125 24
-75 25 -75 50 -50 51 -51 44 -13 44 -13 76 0 77 0 60 16 59 15 74 26 75 25 25
0 25 0 31 -21 31 -22 17 -41 16 -41 13 -50 12 -50 -2 -405 -3 -405 118 -1 118
-1 310 -4 310 -4 60 14 60 13 48 25 48 24 19 32 20 32 0 57 0 56 -42 79 -43
78 1 80 1 80 25 55 25 55 41 45 40 46 52 28 52 28 62 5 63 5 46 -20 46 -21 50
-46 50 -47 26 -51 25 -51 0 -37 0 -38 -16 -15 -15 -16 -15 0 -14 0 -10 -26
-10 -25 0 -47 0 -48 15 -21 15 -21 34 -21 34 -21 57 -20 57 -20 276 -46 275
-45 114 -30 114 -30 62 -23 62 -24 16 -7 16 -6 7 43 7 43 9 330 9 330 15 69
15 68 26 43 25 43 35 12 36 12 27 -7 26 -6 60 -37 59 -37 71 0 71 1 45 23 45
24 32 25 33 24 40 60 40 61 23 71 22 71 0 160 -1 160 -17 58 -18 58 -41 39
-41 40 -55 16 -56 17 -136 -6 -135 -5 -115 -22 -114 -21 -34 -16 -33 -16 -12
12 -12 12 1 227 0 227 23 268 23 268 -5 6 -6 5 -250 -17 -249 -17 -164 4 -163
4 -59 25 -59 24 -21 28 -21 29 1 46 1 47 31 66 32 65 12 58 12 57 -17 67 -17
67 -36 52 -36 53 -60 40 -60 40 -52 16 -51 16 -85 4 -85 4 -37 -13z"/>
</g>
</svg>
